<svg xmlns="http://www.w3.org/2000/svg" width="48" height="48"><path fill="currentColor" fill-rule="evenodd" d="M15.68 6.65c-3.168.364-6.904 1.46-7.654 2.244-.646.675-2.29 3.766-3.142 5.906-2.186 5.491-3.302 11.362-3.318 17.44l-.006 2.52.211.45c.292.622.691 1.036 1.669 1.73 2.217 1.574 4.975 2.935 7.98 3.94 1.226.41 1.554.454 2.131.286.837-.243 1.331-.873 2.37-3.026.481-.995.603-1.188.781-1.233.209-.052.356-.027 1.698.289 1.753.413 2.929.523 5.6.522 2.784-.001 3.62-.08 5.6-.53 1.43-.325 1.486-.334 1.714-.277.158.04.304.275.765 1.229 1.039 2.153 1.533 2.783 2.37 3.026.577.168.905.124 2.131-.286 3.005-1.005 5.763-2.366 7.98-3.94.978-.694 1.377-1.108 1.669-1.73l.211-.45-.006-2.48c-.011-5.26-.808-10.135-2.471-15.12-.706-2.115-1.262-3.454-2.209-5.32-.929-1.83-1.55-2.788-2.048-3.154-1.127-.83-6.635-2.126-9.037-2.126-1.083 0-1.38.248-1.792 1.497-.143.431-.308.881-.369 1.001-.19.376-.333.402-1.368.246-1.355-.203-4.96-.201-6.273.003-1.281.2-1.26.215-1.744-1.25-.269-.815-.505-1.181-.889-1.38-.255-.132-1.526-.145-2.554-.027m1.753 13.473c1.697.4 3.132 1.994 3.452 3.833.117.673.054 2.087-.117 2.626-.532 1.674-1.813 2.936-3.347 3.298-2.113.498-4.247-.764-5.08-3.005-1.36-3.658 1.595-7.576 5.092-6.752m15.393.11c1.39.485 2.572 1.81 2.975 3.337.956 3.622-1.913 7.09-5.222 6.31-1.624-.383-3.006-1.829-3.418-3.575-.152-.648-.152-1.962 0-2.61.404-1.711 1.78-3.17 3.37-3.573.614-.156 1.676-.105 2.295.111"/></svg>