<svg xmlns="http://www.w3.org/2000/svg" width="24" height="24" viewBox="0 0 48 48"><path fill="currentColor" fill-rule="evenodd" d="M7.84 3.325c-1.584.182-3.452.73-3.827 1.122C3.69 4.785 2.868 6.33 2.442 7.4 1.349 10.146.791 13.081.783 16.12L.78 17.38l.105.225c.146.311.346.518.835.865 1.109.787 2.488 1.468 3.99 1.97.613.205.777.227 1.066.143.418-.122.665-.437 1.185-1.513.24-.498.301-.594.39-.616.105-.027.178-.014.849.144.876.206 1.465.261 2.8.261 1.392 0 1.81-.04 2.8-.265.715-.162.743-.167.857-.138.079.019.152.137.382.614.52 1.076.767 1.391 1.185 1.513.289.084.453.062 1.066-.143 1.502-.502 2.881-1.183 3.99-1.97.489-.347.689-.554.835-.865l.105-.225-.003-1.24a23.5 23.5 0 0 0-1.236-7.56 17.3 17.3 0 0 0-1.104-2.66c-.464-.915-.775-1.394-1.024-1.577-.564-.415-3.318-1.063-4.519-1.063-.541 0-.689.124-.896.749-.071.215-.154.44-.184.5-.095.188-.167.201-.684.123-.678-.101-2.48-.101-3.137.002-.64.099-.63.107-.871-.625-.135-.408-.253-.591-.445-.69-.127-.066-.763-.073-1.277-.014m.876 6.737c.849.2 1.566.996 1.727 1.916.058.336.027 1.044-.059 1.313-.266.837-.906 1.468-1.674 1.649-1.056.249-2.123-.382-2.539-1.502-.68-1.829.797-3.788 2.545-3.376m7.697.055c.695.242 1.286.904 1.487 1.668.479 1.811-.956 3.545-2.61 3.155-.812-.192-1.503-.914-1.709-1.788-.077-.324-.077-.98 0-1.304.201-.856.889-1.586 1.684-1.787.308-.078.838-.052 1.148.056"/></svg>