<svg xmlns="http://www.w3.org/2000/svg" width="48" height="48"><path fill="currentColor" fill-rule="evenodd" d="M31.24 1.609c-3.489.188-5.805.691-7.722 1.676-4.003 2.056-5.804 6.094-6.127 13.735l-.055 1.3h-2.859c-3.35 0-3.449.016-4.13.678-.321.312-.441.501-.537.842-.433 1.531-.363 5.362.117 6.479.205.475.715.979 1.233 1.217.39.18.47.185 3.3.209l2.9.024v8.421c0 9.436-.026 8.984.56 9.57.592.592 1.841.763 5.107.697 2.056-.042 2.946-.12 3.526-.309.398-.13.92-.649 1.138-1.13l.189-.418.022-8.416.022-8.417 3.778-.023 3.778-.024.44-.207c1.228-.575 1.567-1.562 1.552-4.513-.008-1.671-.163-2.881-.44-3.456-.195-.404-.612-.786-1.108-1.016-.352-.162-.494-.169-4.196-.191l-3.832-.023.048-1.457c.144-4.362.984-5.46 4.444-5.813a20 20 0 0 1 1.65-.084c1.42 0 2.126-.227 2.688-.866.554-.629.757-1.721.745-4.014-.014-2.955-.378-3.931-1.641-4.411-.336-.128-.604-.147-1.891-.137-.824.006-2.039.041-2.699.077"/></svg>