<svg xmlns="http://www.w3.org/2000/svg" viewBox="0 0 48 48"><path fill="currentColor" fill-rule="evenodd" d="M31.72 4.565c-2.271.217-4.45 1.298-6.257 3.105-1.973 1.973-2.896 4.586-2.657 7.521.041.503.06.93.041.948-.143.143-3.559-.483-5.111-.937-4.431-1.296-8.226-3.556-11.902-7.087-.678-.652-.813-.746-1.185-.826-.456-.097-.693-.064-1.141.16-.412.206-.603.568-.847 1.606-.192.814-.213 1.057-.213 2.425.001 1.273.03 1.656.181 2.355.61 2.831 2.108 5.734 4.287 8.312.31.367.654.777.764.912l.199.246-.599-.058c-.33-.032-1.456-.201-2.501-.375-2.1-.351-2.296-.346-2.786.066-.517.435-.585.936-.266 1.958 1.291 4.137 6.488 8.692 11.167 9.787.708.165.734.102-.334.816-1.737 1.161-4.3 2.094-6.755 2.458-.968.144-1.382.318-1.679.708-.567.744-.575 1.681-.019 2.237.419.418 2.794 1.308 4.853 1.818 2.245.556 3.843.746 6.32.749 2.492.003 4.135-.194 6.52-.783 7.887-1.949 14.571-7.26 18.149-14.421 1.915-3.834 2.857-7.847 2.87-12.225l.005-1.52 1.751-2.502c.963-1.377 1.785-2.594 1.828-2.706.218-.574-.01-1.366-.504-1.743-.429-.327-.725-.346-3.393-.222l-2.495.116-.505-.439c-2.09-1.814-4.979-2.727-7.786-2.459"/></svg>