<svg
  height="48"
  width="48"
  viewBox="0 0 48 48"
  xmlns="http://www.w3.org/2000/svg"
>
  <path fill="currentColor" fill-rule="evenodd"
    d="M18.956 7.523a1.471 1.471 0 0 0-1.44-1.01c-3.788.128-7.081 1.207-8.484 1.735a2.828 2.828 0 0 0-1.384 1.107C6.132 11.682 1.35 20.14 1.502 33.982c.01.887.377 1.76 1.1 2.335 1.453 1.154 4.624 3.3 9.67 4.838.862.263 1.862.024 2.413-.783.682-1 1.278-2.252 1.687-3.202a.57.57 0 0 1 .683-.313c1.79.523 4.096.922 6.958.922 2.852 0 5.148-.397 6.933-.917a.57.57 0 0 1 .683.313c.408.95 1.004 2.2 1.685 3.197.55.807 1.55 1.046 2.413.783 5.046-1.538 8.216-3.684 9.669-4.838.724-.575 1.091-1.448 1.101-2.335.149-13.73-4.554-22.162-6.109-24.57a2.91 2.91 0 0 0-1.503-1.168c-1.501-.52-4.956-1.588-8.4-1.729a1.464 1.464 0 0 0-1.443 1.008l-.507 1.514c-.086.256-.385.436-.7.378-.82-.152-2.119-.321-3.822-.321-1.714 0-3.026.171-3.852.323-.314.058-.61-.12-.696-.376l-.509-1.518ZM21 25c0 2.761-2.015 5-4.5 5S12 27.761 12 25s2.015-5 4.5-5 4.5 2.239 4.5 5Zm10.5 5c-2.485 0-4.5-2.239-4.5-5s2.015-5 4.5-5 4.5 2.239 4.5 5-2.015 5-4.5 5Z"
    clip-rule="evenodd"></path>
</svg>
