<svg
  viewBox="0 0 48 48"
  xmlns="http://www.w3.org/2000/svg"
>
  <path fill="currentColor" fill-rule="evenodd"
    d="M37.25 3.302c-.2-1.116-1.199-1.805-2.262-1.798-2.727.017-5.195.1-7.355.466-2.162.367-4.049 1.024-5.595 2.213-3.045 2.341-4.6 6.604-4.666 14.139h-5.417c-1.03 0-2.01.652-2.212 1.745-.23 1.245-.412 3.244.013 5.734.2 1.164 1.238 1.931 2.367 1.931h5.247v16.655c0 .83.465 1.672 1.413 1.853.718.137 1.847.26 3.592.26 1.742 0 2.972-.122 3.797-.256 1.079-.176 1.706-1.125 1.706-2.125V27.732h7.054c1.094 0 2.124-.723 2.329-1.866.413-2.304.213-4.39-.017-5.71-.197-1.128-1.2-1.834-2.279-1.834H27.88c.013-1.61.087-2.866.266-3.85.196-1.08.51-1.784.96-2.267.445-.479 1.077-.795 2.023-.993.955-.2 2.185-.271 3.784-.293 1.1-.014 2.14-.747 2.342-1.901a16.564 16.564 0 0 0-.005-5.716Z"
    clip-rule="evenodd"></path>
</svg>
