<svg
  viewBox="0 0 48 48"
  xmlns="http://www.w3.org/2000/svg"
>
  <path fill="currentColor"
    d="M34.723 4.698c2.195.434 4.1 1.528 5.234 2.763l4.917-.233c1.288-.061 2.084 1.385 1.342 2.44l-3.412 4.854c.974 21.16-20.55 34.574-38.254 26.699-.8-.356-.968-1.177-.803-1.818.163-.634.687-1.273 1.49-1.37 2.51-.305 5.649-1.138 8.294-3.223-2.196-.33-4.657-1.59-6.76-3.258-2.52-1.998-4.655-4.687-5.238-7.32a1.315 1.315 0 0 1 .415-1.284 1.51 1.51 0 0 1 1.278-.346c1.274.235 3.218.569 4.708.72a24.699 24.699 0 0 1-2.987-3.87c-1.807-2.915-3.36-6.95-2.077-11.21.175-.583.652-.92 1.159-1.002.498-.08 1.048.08 1.438.489 2.341 2.457 8.323 7.677 17.447 8.435-.332-2.136-.546-6.707 4.337-9.988 2.473-1.662 5.152-1.936 7.472-1.478Z"></path>
</svg>
