<svg xmlns="http://www.w3.org/2000/svg" width="24" height="24" fill="none" stroke="currentColor" stroke-linecap="round" stroke-linejoin="round" stroke-width="2"><path fill="#000" fill-rule="evenodd" stroke="none" d="M6.24 6.035c-.197.065-.35.163-.476.307-.074.084-1.098 2.085-2.431 4.753-2.518 5.037-2.415 4.799-2.272 5.227.128.385.533.678.939.678.08 0 .232-.029.336-.065.353-.12.44-.245 1.139-1.645L4.12 14h4.76l.645 1.29c.699 1.4.786 1.525 1.139 1.645.104.036.256.065.336.065.406 0 .811-.293.939-.678.142-.428.245-.191-2.264-5.219-1.462-2.93-2.345-4.655-2.432-4.754a1.2 1.2 0 0 0-.297-.236c-.175-.089-.547-.13-.706-.078m11.455.022a1.04 1.04 0 0 0-.567.459l-.108.184-.011 3.437-.011 3.437-1.229-1.223c-1.159-1.152-1.241-1.226-1.446-1.287-.266-.078-.377-.08-.613-.009a1.02 1.02 0 0 0-.582.461c-.092.156-.108.229-.107.484 0 .212.022.341.074.44.04.077 1.021 1.091 2.179 2.254 2.293 2.302 2.297 2.305 2.726 2.305s.433-.003 2.726-2.305c1.158-1.163 2.139-2.177 2.179-2.254.052-.099.074-.228.074-.44.001-.255-.015-.328-.107-.484a1.02 1.02 0 0 0-.582-.461c-.236-.071-.347-.069-.613.009-.205.061-.287.135-1.446 1.287l-1.229 1.223-.011-3.437L18.98 6.7l-.108-.184a1.005 1.005 0 0 0-1.177-.459M7.2 10.64 7.88 12H5.12l.68-1.36c.374-.748.689-1.36.7-1.36s.326.612.7 1.36"/></svg>