<svg xmlns="http://www.w3.org/2000/svg" width="24" height="24" fill="none" stroke="currentColor" stroke-linecap="round" stroke-linejoin="round" stroke-width="2"><path fill="#000" fill-rule="evenodd" stroke="none" d="M6.24 6.035c-.197.065-.35.163-.476.307-.074.084-1.098 2.085-2.431 4.753-2.518 5.037-2.415 4.799-2.272 5.227.128.385.533.678.939.678.08 0 .232-.029.336-.065.353-.12.44-.245 1.139-1.645L4.12 14h4.76l.645 1.29c.699 1.4.786 1.525 1.139 1.645.104.036.256.065.336.065.406 0 .811-.293.939-.678.142-.428.245-.191-2.264-5.219-1.462-2.93-2.345-4.655-2.432-4.754a1.2 1.2 0 0 0-.297-.236c-.175-.089-.547-.13-.706-.078m11.34.061c-.158.076-.64.538-2.306 2.21-1.158 1.163-2.136 2.175-2.173 2.249-.229.455-.045 1.046.407 1.312.165.097.234.113.492.112.213 0 .341-.022.44-.074.077-.041.684-.616 1.349-1.278l1.209-1.204.011 3.442.011 3.441.121.197c.068.11.205.253.311.325.471.316 1.102.171 1.407-.325l.121-.197.011-3.441.011-3.442 1.209 1.204c.665.662 1.272 1.237 1.349 1.278.099.052.227.074.44.074.258.001.327-.015.492-.112.222-.13.409-.369.473-.603a1.2 1.2 0 0 0-.066-.709c-.037-.074-1.015-1.086-2.173-2.249C18.433 6.004 18.429 6.001 18 6.001a.95.95 0 0 0-.42.095M7.2 10.64 7.88 12H5.12l.68-1.36c.374-.748.689-1.36.7-1.36s.326.612.7 1.36"/></svg>