<svg xmlns="http://www.w3.org/2000/svg" width="24" height="24" fill="none" stroke="currentColor" stroke-linecap="round" stroke-linejoin="round" stroke-width="2"><path fill="#000" fill-rule="evenodd" stroke="none" d="M7.24 6.035c-.197.065-.35.163-.476.307-.074.084-1.098 2.085-2.431 4.753-2.518 5.037-2.415 4.799-2.272 5.227.128.385.533.678.939.678.08 0 .232-.029.336-.065.353-.12.44-.245 1.139-1.645L5.12 14h4.76l.645 1.29c.699 1.4.786 1.525 1.139 1.645.104.036.256.065.336.065.406 0 .811-.293.939-.678.142-.428.245-.191-2.264-5.219-1.462-2.93-2.345-4.655-2.432-4.754a1.2 1.2 0 0 0-.297-.236c-.175-.089-.547-.13-.706-.078M17.873 9.06a3.54 3.54 0 0 0-1.915 1.045c-.397.42-.64.845-.827 1.443l-.11.352v2.203l-.001 2.203.121.197a.998.998 0 0 0 1.718 0c.12-.195.121-.203.134-.85l.014-.653h2.986l.014.653c.013.647.014.655.134.85a.998.998 0 0 0 1.718 0l.121-.197.011-2.023c.008-1.26-.004-2.124-.03-2.291a3.54 3.54 0 0 0-2.583-2.874c-.419-.109-1.098-.135-1.505-.058M8.2 10.64 8.88 12H6.12l.68-1.36c.374-.748.689-1.36.7-1.36s.326.612.7 1.36m10.919.503c.298.136.609.449.743.749.089.198.112.318.129.674l.02.434h-3.022l.02-.435c.017-.359.04-.477.128-.67.189-.416.614-.766 1.037-.856.267-.057.696-.009.945.104"/></svg>