<svg xmlns="http://www.w3.org/2000/svg" width="24" height="24" fill="none" stroke="currentColor" stroke-linecap="round" stroke-linejoin="round" stroke-width="2"><path fill="#000" fill-rule="evenodd" stroke="none" d="M15.477 2.073c-.671.176-1.239.75-1.417 1.435a2.07 2.07 0 0 0 .165 1.422c.136.269.576.709.845.845a2.05 2.05 0 0 0 1.86 0c.266-.135.708-.575.841-.838a2.05 2.05 0 0 0 .169-1.408 1.8 1.8 0 0 0-.475-.876A1.97 1.97 0 0 0 16 2.005c-.143 0-.378.031-.523.068M7.66 4.066c-.184.056-.332.192-1.813 1.667-.887.884-1.661 1.688-1.72 1.787-.091.152-.107.226-.107.48 0 .257.016.327.113.492.13.222.369.409.603.473.203.054.531.024.709-.066.074-.037.72-.651 1.435-1.363l1.301-1.295L10.1 7.286a308 308 0 0 1 1.935 1.058c.008.006-.274.44-.626.964-.718 1.067-.619.99-1.129.88a6.2 6.2 0 0 0-2.374-.047 8 8 0 0 0-1.35.411c-.694.302-.887 1.081-.4 1.621.327.363.702.405 1.369.151a3.93 3.93 0 0 1 2.095-.225c.833.136 1.489.465 2.115 1.061.387.369.606.671.843 1.162.265.552.349.909.371 1.578.016.483.005.618-.075.98-.117.525-.118.844-.005 1.06a.98.98 0 0 0 .891.549.95.95 0 0 0 .661-.255c.183-.161.274-.341.373-.737a5.77 5.77 0 0 0-.129-3.347l-.129-.389.122-.023c.78-.142 3.142-.519 3.143-.502.001.013-.183 1.323-.409 2.911-.38 2.671-.407 2.901-.36 3.08.069.265.234.488.466.632.173.107.231.121.499.121.26 0 .33-.016.495-.113.209-.123.407-.365.463-.566.019-.07.266-1.749.549-3.731.48-3.363.511-3.616.463-3.797-.108-.406-.423-.7-.808-.753-.154-.021-.798.073-3 .44l-2.804.468-.248-.236a6 6 0 0 0-.399-.35c-.083-.063-.144-.134-.135-.158s.419-.638.91-1.364c.944-1.395 1.063-1.621 1.016-1.916a1.1 1.1 0 0 0-.304-.611c-.159-.149-5.706-3.184-5.937-3.249-.207-.057-.354-.052-.598.022m-3.839 9.536c-.355.177-.493.393-.64 1.002a5.9 5.9 0 0 0 .127 3.172c.951 3.011 4.124 4.78 7.172 3.999.541-.139 1.096-.367 1.283-.527.434-.372.47-.99.082-1.42-.314-.347-.726-.397-1.331-.163a4.2 4.2 0 0 1-1.459.294 4.02 4.02 0 0 1-3.687-2.382c-.217-.48-.297-.854-.317-1.477-.016-.483-.005-.618.075-.98.117-.527.118-.843.004-1.064a1.14 1.14 0 0 0-.516-.476c-.205-.086-.598-.075-.793.022"/></svg>