<svg xmlns="http://www.w3.org/2000/svg" width="24" height="24" fill="none" stroke="currentColor" stroke-linecap="round" stroke-linejoin="round" stroke-width="2"><path fill="#000" fill-rule="evenodd" stroke="none" d="M8.7 1.035c-.413.11-.775.463-.901.88-.044.146-.6 2.117-1.236 4.381-1.264 4.497-1.206 4.331-1.581 4.563l-.195.121-1.524.021c-1.076.015-1.556.035-1.636.07a1.14 1.14 0 0 0-.499.445c-.091.156-.108.23-.108.484 0 .257.016.327.113.492.129.22.369.409.597.471.103.027.7.037 1.724.027 1.342-.012 1.6-.024 1.806-.084a3.3 3.3 0 0 0 1.54-.999c.385-.465.45-.651 1.348-3.857.458-1.633.841-2.969.852-2.969s1.072 3.748 2.358 8.33c1.285 4.581 2.38 8.472 2.433 8.647.086.283.123.344.343.562.195.194.294.259.48.317.67.209 1.364-.163 1.581-.845.048-.15.607-2.124 1.242-4.388 1.263-4.497 1.205-4.331 1.581-4.563l.195-.121 1.544-.02 1.543-.02.192-.113c.782-.459.61-1.635-.268-1.829-.139-.031-.685-.04-1.724-.029-1.289.014-1.556.027-1.76.086-.572.165-1.172.553-1.537.994-.388.469-.452.651-1.351 3.86-.458 1.634-.841 2.97-.852 2.97s-1.072-3.748-2.357-8.329a2150 2150 0 0 0-2.436-8.642c-.174-.553-.588-.897-1.117-.929a1.7 1.7 0 0 0-.39.016"/></svg>