<svg xmlns="http://www.w3.org/2000/svg" width="24" height="24" fill="none" stroke="currentColor" stroke-linecap="round" stroke-linejoin="round" stroke-width="2"><path fill="#000" fill-rule="evenodd" stroke="none" d="M3.499 2.043C2.38 2.232 1.461 3.048 1.114 4.16l-.094.3v6.08l.094.3a3.1 3.1 0 0 0 2.026 2.044c.264.086.355.092 1.624.107.883.01 1.399.001 1.504-.028.23-.062.469-.25.599-.471.097-.165.113-.235.113-.492 0-.254-.017-.328-.108-.484a1.14 1.14 0 0 0-.499-.445c-.077-.033-.519-.055-1.393-.07L3.7 10.98l-.184-.108a1.2 1.2 0 0 1-.291-.249c-.229-.3-.225-.245-.225-3.101 0-2.992-.008-2.908.303-3.219C3.632 3.974 2.892 4 12 4s8.368-.026 8.697.303c.311.311.303.229.303 3.198 0 2.828 0 2.827-.221 3.117-.061.08-.194.195-.295.254l-.184.108-1.28.021c-.874.015-1.316.037-1.393.07a1.14 1.14 0 0 0-.499.445c-.091.156-.108.23-.108.484 0 .257.016.327.113.492.13.221.369.409.599.471.105.029.621.038 1.504.028 1.269-.015 1.36-.021 1.624-.107a3.1 3.1 0 0 0 2.026-2.044l.094-.3V4.46l-.094-.3a3.09 3.09 0 0 0-2.025-2.039l-.321-.101-8.42-.006c-4.631-.003-8.511.01-8.621.029m2.196 5.014a1.04 1.04 0 0 0-.567.459c-.091.156-.108.23-.108.484 0 .256.016.328.111.489.125.213.318.375.539.454s12.438.079 12.66 0 .414-.241.539-.454c.095-.161.111-.233.111-.489 0-.254-.017-.328-.108-.484a1.02 1.02 0 0 0-.582-.461c-.262-.079-12.343-.077-12.595.002m4 4a1.04 1.04 0 0 0-.567.459l-.108.184L9 14.5c-.02 2.769-.021 2.802-.106 2.961-.263.491-.815.692-1.298.472-.372-.169-.574-.489-.574-.913 0-.316.057-.454.302-.733.528-.602.24-1.493-.534-1.655a.94.94 0 0 0-.766.16c-.355.244-.784.929-.933 1.488-.109.408-.098 1.175.023 1.56.17.545.385.902.786 1.305.31.312.417.391.741.547.529.256.808.323 1.339.322.543 0 .876-.076 1.364-.313a3.07 3.07 0 0 0 1.432-1.539c.224-.552.228-.613.215-3.662l-.011-2.8-.108-.184a1.005 1.005 0 0 0-1.177-.459m4 0a1.04 1.04 0 0 0-.567.459l-.108.184v8.32l.11.352c.192.61.433 1.026.848 1.463.972 1.024 2.37 1.347 3.75.868.764-.266 1.513-.945 1.905-1.727a3.55 3.55 0 0 0 .246-2.442c-.177-.695-.709-1.502-1.127-1.711-.66-.328-1.441.139-1.441.862 0 .267.067.434.296.743.239.321.306.466.355.767.153.94-.616 1.778-1.575 1.717-.553-.036-.993-.342-1.24-.864l-.127-.268-.02-4.04-.02-4.04-.108-.184a1.005 1.005 0 0 0-1.177-.459"/></svg>