<svg xmlns="http://www.w3.org/2000/svg" width="24" height="24" fill="none" stroke="currentColor" stroke-linecap="round" stroke-linejoin="round" stroke-width="2"><path fill="#000" fill-rule="evenodd" stroke="none" d="M1.67 1.061c-.222.081-.42.248-.542.455-.092.156-.108.229-.107.484 0 .213.022.34.075.44.04.077.39.459.777.85l.704.71-.704.71c-.387.391-.734.771-.772.845-.229.453-.045 1.046.407 1.312.165.097.234.113.492.112.213 0 .34-.022.44-.075.077-.04.46-.39.851-.778l.71-.704.7.699c.384.384.699.707.698.719 0 .011-.145.191-.322.4-1.125 1.327-1.855 3.015-2.075 4.799-.061.491-.052 1.637.017 2.125.223 1.592.744 2.917 1.63 4.147l.238.332-.793.819c-.885.914-.996 1.045-1.053 1.253a1 1 0 0 0 1.284 1.225c.197-.065.289-.146 1.097-.972l.882-.901.311.231a9.1 9.1 0 0 0 4.342 1.7c.48.058 1.534.059 1.991.002 1.759-.218 3.518-.969 4.76-2.032.172-.147.346-.294.385-.325.066-.052.207.078 1.699 1.566.896.892 1.691 1.656 1.768 1.696.099.052.228.074.44.074.258.001.327-.015.492-.112.476-.28.647-.9.373-1.359-.055-.092-4.65-4.715-10.212-10.273C3.3 1.889 2.525 1.125 2.343 1.065a1 1 0 0 0-.673-.004m17 1c-.222.081-.42.248-.542.455-.092.156-.108.229-.107.484 0 .212.022.341.074.44.101.192 3.201 3.299 3.425 3.433.152.091.226.107.48.107.257 0 .327-.016.492-.113.476-.28.646-.899.374-1.359-.055-.092-.826-.89-1.713-1.772-1.439-1.431-1.634-1.612-1.81-1.67a1 1 0 0 0-.673-.005m-7.23 1.966c-.482.033-.956.107-1.1.17a1.13 1.13 0 0 0-.526.552c-.078.205-.058.61.04.799.154.299.509.529.836.543.093.004.404-.017.69-.047 1.212-.126 2.481.102 3.64.652a6.94 6.94 0 0 1 3.301 3.324 6.84 6.84 0 0 1 .633 3.642c-.068.711-.05.882.12 1.135a.985.985 0 0 0 1.522.158c.297-.294.381-.722.382-1.955.002-.969-.049-1.381-.281-2.274-.559-2.15-1.862-3.97-3.75-5.235-1.562-1.046-3.628-1.596-5.507-1.464m.36 9.195 4.94 4.942-.16.141a7 7 0 0 1-2.42 1.377c-.758.253-1.161.322-2.02.346-.664.018-.826.01-1.28-.067a7 7 0 0 1-1.96-.62c-.844-.412-1.344-.782-2.039-1.507-1.8-1.879-2.378-4.636-1.497-7.141a7.8 7.8 0 0 1 .798-1.571c.237-.346.636-.842.676-.842.012 0 2.245 2.224 4.962 4.942"/></svg>