<svg xmlns="http://www.w3.org/2000/svg" width="24" height="24" fill="none" stroke="currentColor" stroke-linecap="round" stroke-linejoin="round" stroke-width="2"><path fill="#000" fill-rule="evenodd" stroke="none" d="M2.477 2.073c-.693.181-1.293.813-1.439 1.516-.029.142-.039.68-.029 1.603.015 1.316.02 1.402.107 1.668.128.389.329.759.563 1.031.597.698 1.282 1.047 2.151 1.097.226.013.41.031.41.04s.145.56.321 1.224c.345 1.298.478 1.639.764 1.964.337.383.803.65 1.292.74.333.062 10.433.062 10.766 0A2.25 2.25 0 0 0 19.12 11.4c.071-.239.64-2.353.64-2.377 0-.006.185-.022.41-.035.869-.05 1.554-.399 2.151-1.097a3.1 3.1 0 0 0 .563-1.031c.087-.265.092-.352.107-1.66.017-1.504-.004-1.711-.209-2.117-.136-.267-.485-.634-.765-.802-.496-.299.318-.276-10.017-.276-8.624 0-9.278.004-9.523.068M21 5.054c0 1.149-.022 1.302-.221 1.564-.061.08-.194.195-.295.254l-.184.108H3.7l-.184-.108a1.2 1.2 0 0 1-.291-.249C3.016 6.349 3 6.241 3 5.075V4h18zM17.68 9.03c0 .016-.091.372-.202.79l-.241.908c-.078.297.399.272-5.237.272s-5.158.025-5.237-.272l-.241-.901a18 18 0 0 1-.202-.79C6.32 9.014 8.494 9 12 9c3.124 0 5.68.014 5.68.03m-9.985 6.027a1.03 1.03 0 0 0-.561.449c-.081.139-.108.259-.138.601-.063.72-.167.963-.73 1.705-.853 1.123-1.094 1.629-1.229 2.581-.072.506-.035.884.108 1.117a1 1 0 0 0 1.707.004c.097-.158.12-.251.152-.617.063-.725.166-.966.73-1.709.519-.683.693-.95.867-1.323.391-.84.515-1.933.267-2.355a1 1 0 0 0-1.173-.453m5 0a1.03 1.03 0 0 0-.561.449c-.081.139-.108.259-.138.601-.063.72-.167.963-.73 1.705-.853 1.123-1.094 1.629-1.229 2.581-.072.506-.035.884.108 1.117a1 1 0 0 0 1.707.004c.097-.158.12-.251.152-.617.063-.725.166-.966.73-1.709.519-.683.693-.95.867-1.323.391-.84.515-1.933.267-2.355a1 1 0 0 0-1.173-.453m5 0a1.03 1.03 0 0 0-.561.449c-.081.139-.108.259-.138.601-.063.72-.167.963-.73 1.705-.853 1.123-1.094 1.629-1.229 2.581-.072.506-.035.884.108 1.117a1 1 0 0 0 1.707.004c.097-.158.12-.251.152-.617.063-.725.166-.966.73-1.709.519-.683.693-.95.867-1.323.391-.84.515-1.933.267-2.355a1 1 0 0 0-1.173-.453"/></svg>