<svg xmlns="http://www.w3.org/2000/svg" width="24" height="24" fill="none" stroke="currentColor" stroke-linecap="round" stroke-linejoin="round" stroke-width="2"><path fill="#000" fill-rule="evenodd" stroke="none" d="M4.64 2.069c-.152.052-.432.312-1.793 1.666-.887.883-1.661 1.686-1.72 1.785-.09.152-.107.226-.107.48 0 .257.016.327.113.492.28.476.9.646 1.359.373.215-.127 3.315-3.239 3.413-3.425.052-.099.074-.228.074-.44.001-.255-.015-.328-.107-.484a1.01 1.01 0 0 0-1.232-.447m14.03-.008c-.222.081-.42.248-.542.455-.092.156-.108.229-.107.484 0 .212.022.341.074.44.101.192 3.201 3.299 3.425 3.433.152.091.226.107.48.107.257 0 .327-.016.492-.113.476-.28.646-.899.374-1.359-.055-.092-.826-.89-1.713-1.772-1.439-1.431-1.634-1.612-1.81-1.67a1 1 0 0 0-.673-.005m-7.33 1.963c-1.314.136-2.249.391-3.28.894A8.87 8.87 0 0 0 3.939 9.02c-1.523 3.071-1.179 6.627.915 9.46l.133.18-.894.86c-1.016.977-1.073 1.056-1.073 1.5 0 .234.018.311.111.469a1 1 0 0 0 .568.457c.224.076.545.055.746-.048.073-.038.545-.466 1.048-.951.666-.642.928-.872.966-.844.493.357 1.151.761 1.599.98a8.95 8.95 0 0 0 7.882 0 9.6 9.6 0 0 0 1.498-.91l.177-.136.903.897c.496.493.963.927 1.037.965.466.235 1.098.019 1.346-.461.103-.199.12-.514.041-.763-.063-.198-.142-.287-.992-1.125l-.923-.909.11-.151c.35-.476.705-1.058.947-1.55a8.95 8.95 0 0 0 0-7.88 9 9 0 0 0-6.764-4.959c-.409-.062-1.658-.11-1.98-.077m1.762 2.074c2.997.453 5.389 2.887 5.822 5.922.066.463.066 1.497 0 1.96-.437 3.067-2.798 5.444-5.904 5.946-.413.066-1.627.066-2.04 0-3.107-.502-5.467-2.879-5.904-5.946-.109-.763-.054-1.887.129-2.64A7.02 7.02 0 0 1 9.62 6.427c.63-.227 1.095-.325 1.92-.404.273-.026 1.186.018 1.562.075m1.538 3.97c-.152.053-.444.326-1.909 1.785l-1.729 1.722-.731-.72c-.616-.608-.762-.732-.928-.788a1 1 0 0 0-1.215.449c-.092.156-.108.229-.107.484 0 .213.022.341.074.44.102.193 2.202 2.3 2.425 2.433.153.091.225.107.48.106.212 0 .341-.022.44-.074.192-.1 4.299-4.2 4.433-4.425.091-.152.107-.226.107-.48s-.017-.328-.108-.484a1.016 1.016 0 0 0-1.232-.448"/></svg>