<svg xmlns="http://www.w3.org/2000/svg" width="24" height="24" fill="none" stroke="currentColor" stroke-linecap="round" stroke-linejoin="round" stroke-width="2"><path fill="#000" fill-rule="evenodd" stroke="none" d="M4.499 2.043C3.38 2.232 2.461 3.048 2.114 4.16l-.094.3v15.08l.094.3a3.09 3.09 0 0 0 2.046 2.046l.3.094h15.08l.3-.094a3.09 3.09 0 0 0 2.046-2.046l.094-.3V4.46l-.094-.3a3.09 3.09 0 0 0-2.025-2.039l-.321-.101-7.42-.006c-4.081-.003-7.511.01-7.621.029m5.503 5.547c.001 2.894.012 3.619.055 3.74a1 1 0 0 0 1.268.609c.198-.065.314-.168 1.446-1.293l1.23-1.223 1.21 1.204c.665.662 1.272 1.237 1.349 1.278.099.052.227.074.44.074.255.001.328-.015.484-.107.101-.059.232-.172.291-.249.233-.306.225-.159.225-4.048V4h.553c.696 0 .893.052 1.144.303.327.328.303-.294.303 7.698 0 5.906-.009 7.137-.055 7.289a1.02 1.02 0 0 1-.461.582l-.184.108H4.7l-.184-.108a1.2 1.2 0 0 1-.291-.249c-.239-.314-.225.172-.225-7.601 0-8.017-.025-7.391.304-7.719.305-.306.216-.297 3.126-.3L10 4zM16 6.287v2.287l-.73-.72C14.496 7.09 14.362 7 14 7s-.496.09-1.27.854l-.73.72V4h4z"/></svg>