<svg xmlns="http://www.w3.org/2000/svg" width="24" height="24" fill="none" stroke="currentColor" stroke-linecap="round" stroke-linejoin="round" stroke-width="2"><path fill="#000" fill-rule="evenodd" stroke="none" d="M8.499 3.042c-1.122.192-2.038 1.006-2.385 2.118-.092.292-.094.338-.094 1.82 0 1.453.014 1.668.124 1.955.022.06-.154.065-2.113.065-2.321 0-2.364.004-2.649.221-.08.061-.195.194-.254.295-.091.156-.108.23-.108.484 0 .256.016.328.111.489.125.213.318.375.539.454.223.08 20.437.08 20.66 0 .221-.079.414-.241.539-.454.095-.161.111-.233.111-.489 0-.254-.017-.328-.108-.484a1.2 1.2 0 0 0-.254-.295C22.333 9.004 22.29 9 19.969 9c-1.959 0-2.135-.005-2.113-.065.11-.287.124-.502.124-1.955 0-1.482-.002-1.528-.094-1.82a3.09 3.09 0 0 0-2.025-2.038l-.321-.101-3.42-.007c-1.881-.003-3.511.009-3.621.028m6.811 2.019c.279.083.546.35.629.629.084.282.089 2.325.006 2.6a1.02 1.02 0 0 1-.461.582l-.184.108H8.7l-.184-.108a1.05 1.05 0 0 1-.458-.556c-.086-.245-.084-2.334.003-2.626.079-.269.351-.547.612-.627.288-.088 6.34-.091 6.637-.002m-8.811 7.982c-1.12.19-2.038 1.005-2.385 2.117-.092.292-.094.338-.094 1.82 0 1.453.014 1.668.124 1.955.022.059-.078.065-1.113.065-1.24 0-1.384.019-1.649.221-.08.061-.195.194-.254.295-.091.156-.108.23-.108.484 0 .256.016.328.111.489.125.213.318.375.539.454.223.08 20.437.08 20.66 0 .221-.079.414-.241.539-.454.095-.161.111-.233.111-.489 0-.254-.017-.328-.108-.484a1.2 1.2 0 0 0-.254-.295c-.265-.202-.409-.221-1.649-.221-1.035 0-1.135-.006-1.113-.065.11-.287.124-.502.124-1.955 0-1.482-.002-1.528-.094-1.82a3.09 3.09 0 0 0-2.025-2.039l-.321-.101-5.42-.006c-2.981-.003-5.511.01-5.621.029m10.811 2.018c.279.083.546.35.629.629.084.282.089 2.325.006 2.6a1.02 1.02 0 0 1-.461.582l-.184.108H6.7l-.184-.108a1.2 1.2 0 0 1-.291-.249C6.014 18.347 6 18.245 6 17.022c0-1.324.019-1.435.301-1.716.321-.322-.099-.299 5.662-.303 4.494-.003 5.168.005 5.347.058"/></svg>