<svg xmlns="http://www.w3.org/2000/svg" width="24" height="24" fill="none" stroke="currentColor" stroke-linecap="round" stroke-linejoin="round" stroke-width="2"><path fill="#000" fill-rule="evenodd" stroke="none" d="M1.695 1.057a1.04 1.04 0 0 0-.567.459c-.091.156-.108.23-.108.484 0 .256.016.328.111.489.125.213.318.375.539.454.223.08 20.437.08 20.66 0 .221-.079.414-.241.539-.454.095-.161.111-.233.111-.489 0-.254-.017-.328-.108-.484a1.02 1.02 0 0 0-.582-.461C22.027.976 1.948.978 1.695 1.057m3.804 3.985A3.05 3.05 0 0 0 3.114 7.16l-.094.3v13.08l.094.3a3.09 3.09 0 0 0 2.046 2.046c.293.092.337.094 1.84.094s1.547-.002 1.84-.094a3.09 3.09 0 0 0 2.046-2.046l.094-.3V7.46l-.094-.3a3.08 3.08 0 0 0-2.025-2.036c-.313-.097-.357-.1-1.741-.109-.781-.005-1.511.007-1.621.027m10 0a3.05 3.05 0 0 0-2.385 2.118l-.094.3v6.08l.094.3a3.09 3.09 0 0 0 2.046 2.046c.293.092.336.094 1.86.094h1.56l.307-.105a3.1 3.1 0 0 0 1.999-2.035l.094-.3V7.46l-.094-.3a3.08 3.08 0 0 0-2.025-2.036c-.313-.097-.357-.1-1.741-.109-.781-.005-1.511.007-1.621.027M8.31 7.061c.279.083.546.35.629.629.053.179.061.961.061 6.311 0 5.058-.009 6.138-.055 6.289a1.02 1.02 0 0 1-.461.582l-.184.108H5.7l-.184-.108a1.05 1.05 0 0 1-.458-.556c-.09-.256-.087-12.323.003-12.626.079-.269.351-.547.612-.627.279-.086 2.35-.088 2.637-.002m10 0c.279.083.546.35.629.629.086.289.092 5.316.006 5.6a1.02 1.02 0 0 1-.461.582l-.184.108h-2.6l-.184-.108a1.05 1.05 0 0 1-.458-.556c-.088-.252-.086-5.326.003-5.626.079-.269.351-.547.612-.627.279-.086 2.35-.088 2.637-.002"/></svg>