<svg xmlns="http://www.w3.org/2000/svg" width="24" height="24" fill="none" stroke="currentColor" stroke-linecap="round" stroke-linejoin="round" stroke-width="2"><path fill="#000" fill-rule="evenodd" stroke="none" d="M3.695 1.057a1.04 1.04 0 0 0-.567.459L3.02 1.7v20.606l.121.197a.998.998 0 0 0 1.718 0l.121-.197V1.7l-.108-.184a1.005 1.005 0 0 0-1.177-.459m16 0a1.04 1.04 0 0 0-.567.459l-.108.184v20.606l.121.197a.998.998 0 0 0 1.718 0l.121-.197V1.7l-.108-.184a1.005 1.005 0 0 0-1.177-.459m-9.196 4.985A3.05 3.05 0 0 0 8.114 8.16l-.094.3v7.08l.094.3a3.09 3.09 0 0 0 2.046 2.046c.293.092.337.094 1.84.094s1.547-.002 1.84-.094a3.09 3.09 0 0 0 2.046-2.046l.094-.3V8.46l-.094-.3a3.08 3.08 0 0 0-2.025-2.036c-.313-.097-.357-.1-1.741-.109-.781-.005-1.511.007-1.621.027m2.811 2.019c.279.083.546.35.629.629.086.29.092 6.314.006 6.6a1.02 1.02 0 0 1-.461.582l-.184.108h-2.6l-.184-.108a1.05 1.05 0 0 1-.458-.556c-.089-.253-.087-6.325.003-6.626.079-.269.351-.547.612-.627.279-.086 2.35-.088 2.637-.002"/></svg>