<svg xmlns="http://www.w3.org/2000/svg" width="24" height="24" fill="none" stroke="currentColor" stroke-linecap="round" stroke-linejoin="round" stroke-width="2"><path fill="#000" fill-rule="evenodd" stroke="none" d="M6.695 1.057a1.04 1.04 0 0 0-.567.459L6.02 1.7l-.012 1.145-.012 1.145-.284.028c-1.216.12-2.227.953-2.598 2.142l-.094.3v11.08l.094.3c.369 1.183 1.397 2.036 2.582 2.143l.3.028.012 1.148.012 1.148.121.196a.998.998 0 0 0 1.718 0l.121-.196.012-1.148.012-1.148.3-.028c1.185-.107 2.213-.96 2.582-2.143l.094-.3V6.46l-.094-.3a3.07 3.07 0 0 0-.975-1.465 2.97 2.97 0 0 0-1.623-.677l-.284-.028-.012-1.145L7.98 1.7l-.108-.184a1.005 1.005 0 0 0-1.177-.459m10 0a1.04 1.04 0 0 0-.567.459l-.108.184-.011 2.145-.012 2.145-.284.028c-1.217.12-2.228.953-2.599 2.142l-.094.3v7.08l.094.3c.369 1.183 1.397 2.036 2.583 2.144l.3.027.012 2.148.011 2.147.121.197a.998.998 0 0 0 1.718 0l.121-.197.011-2.147.012-2.148.3-.027c1.186-.108 2.214-.961 2.583-2.144l.094-.3V8.46l-.094-.3a3.07 3.07 0 0 0-.975-1.465 2.97 2.97 0 0 0-1.624-.677l-.284-.028-.012-2.145L17.98 1.7l-.108-.184a1.005 1.005 0 0 0-1.177-.459M8.31 6.061c.279.083.546.35.629.629.053.178.061.856.061 5.311 0 4.211-.01 5.138-.055 5.289a1.02 1.02 0 0 1-.461.582l-.184.108H5.7l-.184-.108a1.05 1.05 0 0 1-.458-.556c-.089-.255-.087-10.323.003-10.626.079-.269.351-.547.612-.627.279-.086 2.35-.088 2.637-.002m10 2c.279.083.546.35.629.629.086.29.092 6.314.006 6.6a1.02 1.02 0 0 1-.461.582l-.184.108h-2.6l-.184-.108a1.05 1.05 0 0 1-.458-.556c-.089-.253-.087-6.325.003-6.626.079-.269.351-.547.612-.627.279-.086 2.35-.088 2.637-.002"/></svg>