<svg xmlns="http://www.w3.org/2000/svg" width="24" height="24" fill="none" stroke="currentColor" stroke-linecap="round" stroke-linejoin="round" stroke-width="2"><path fill="#000" fill-rule="evenodd" stroke="none" d="M3.695 1.057a1.04 1.04 0 0 0-.567.459L3.02 1.7v20.606l.121.197a.998.998 0 0 0 1.718 0l.121-.197.012-1.236c.011-1.106.019-1.234.075-1.213.284.109.502.123 1.953.123 1.482 0 1.528-.002 1.82-.094a3.09 3.09 0 0 0 2.046-2.046l.094-.3V6.46l-.094-.3c-.309-.991-1.094-1.77-2.064-2.048-.31-.089-.377-.092-1.802-.092-1.423 0-1.562.009-1.948.124-.062.018-.069-.075-.08-1.212L4.98 1.7l-.108-.184a1.005 1.005 0 0 0-1.177-.459m10 0a1.04 1.04 0 0 0-.567.459l-.108.184v20.606l.121.197a.998.998 0 0 0 1.718 0l.121-.197.011-2.237c.011-2.029.018-2.234.075-2.212.286.109.502.123 1.954.123 1.482 0 1.528-.002 1.82-.094a3.09 3.09 0 0 0 2.046-2.046l.094-.3V8.46l-.094-.3c-.309-.991-1.094-1.77-2.064-2.048-.31-.089-.377-.092-1.802-.092-1.424 0-1.562.009-1.949.124-.064.019-.069-.123-.08-2.212L14.98 1.7l-.108-.184a1.005 1.005 0 0 0-1.177-.459M8.31 6.061c.279.083.546.35.629.629.053.178.061.856.061 5.311 0 4.211-.01 5.138-.055 5.289a1.02 1.02 0 0 1-.461.582l-.184.108H5.7l-.184-.108a1.05 1.05 0 0 1-.458-.556c-.089-.255-.087-10.323.003-10.626.079-.269.351-.547.612-.627.279-.086 2.35-.088 2.637-.002m10 2c.279.083.546.35.629.629.086.29.092 6.314.006 6.6a1.02 1.02 0 0 1-.461.582l-.184.108h-2.6l-.184-.108a1.05 1.05 0 0 1-.458-.556c-.089-.253-.087-6.325.003-6.626.079-.269.351-.547.612-.627.279-.086 2.35-.088 2.637-.002"/></svg>