<svg xmlns="http://www.w3.org/2000/svg" width="24" height="24" fill="none" stroke="currentColor" stroke-linecap="round" stroke-linejoin="round" stroke-width="2"><path fill="#000" fill-rule="evenodd" stroke="none" d="M8.499 3.042a2.95 2.95 0 0 0-1.41.653c-.634.544-1.003 1.233-1.073 2.003L5.989 6H3.941c-2.223 0-2.275.004-2.559.221-.08.061-.195.194-.254.295-.091.156-.108.23-.108.484 0 .256.016.328.111.489.125.213.318.375.539.454.118.042.598.054 2.234.055L5.989 8l.027.302c.108 1.187.96 2.215 2.144 2.584l.3.094h7.08l.3-.094c1.184-.369 2.036-1.397 2.144-2.584L18.011 8l2.085-.002c1.636-.001 2.116-.013 2.234-.055.221-.079.414-.241.539-.454.095-.161.111-.233.111-.489 0-.254-.017-.328-.108-.484a1.2 1.2 0 0 0-.254-.295C22.334 6.004 22.282 6 20.059 6h-2.048l-.027-.302c-.107-1.179-.956-2.209-2.123-2.576l-.321-.101-3.42-.007c-1.881-.003-3.511.009-3.621.028m6.811 2.019c.279.083.546.35.629.629.084.282.089 2.325.006 2.6a1.02 1.02 0 0 1-.461.582l-.184.108H8.7l-.184-.108a1.05 1.05 0 0 1-.458-.556c-.086-.245-.084-2.334.003-2.626.079-.269.351-.547.612-.627.288-.088 6.34-.091 6.637-.002m-8.811 7.982a2.95 2.95 0 0 0-1.41.652c-.634.544-1.003 1.233-1.073 2.003L3.989 16H2.941c-1.144 0-1.298.022-1.559.221-.08.061-.195.194-.254.295-.091.156-.108.23-.108.484 0 .256.016.328.111.489.061.103.173.236.25.294.261.2.357.213 1.523.215L3.989 18l.027.302c.108 1.187.96 2.215 2.144 2.584l.3.094h11.08l.3-.094c1.184-.369 2.036-1.397 2.144-2.584l.027-.302 1.085-.002c1.166-.002 1.262-.015 1.523-.215.077-.058.189-.191.25-.294.095-.161.111-.233.111-.489 0-.254-.017-.328-.108-.484a1.2 1.2 0 0 0-.254-.295c-.261-.199-.415-.221-1.559-.221h-1.048l-.027-.302c-.107-1.178-.955-2.208-2.123-2.577l-.321-.101-5.42-.006c-2.981-.003-5.511.01-5.621.029m10.811 2.018c.279.083.546.35.629.629.084.282.089 2.325.006 2.6a1.02 1.02 0 0 1-.461.582l-.184.108H6.7l-.184-.108a1.2 1.2 0 0 1-.291-.249C6.014 18.347 6 18.245 6 17.022c0-1.324.019-1.435.301-1.716.321-.322-.099-.299 5.662-.303 4.494-.003 5.168.005 5.347.058"/></svg>