<svg xmlns="http://www.w3.org/2000/svg" width="24" height="24" fill="none" stroke="currentColor" stroke-linecap="round" stroke-linejoin="round" stroke-width="2"><path fill="#000" fill-rule="evenodd" stroke="none" d="M2.695 1.057a1.04 1.04 0 0 0-.567.459L2.02 1.7v20.606l.121.197a.998.998 0 0 0 1.718 0l.121-.197.012-1.236c.011-1.106.019-1.234.075-1.213.284.109.502.123 1.953.123 1.482 0 1.528-.002 1.82-.094a3.09 3.09 0 0 0 2.046-2.046l.094-.3V6.46l-.094-.3c-.309-.991-1.094-1.77-2.064-2.048-.31-.089-.377-.092-1.802-.092-1.423 0-1.562.009-1.948.124-.062.018-.069-.075-.08-1.212L3.98 1.7l-.108-.184a1.005 1.005 0 0 0-1.177-.459m18 0a1.04 1.04 0 0 0-.567.459l-.108.184-.011 2.232c-.011 2.089-.016 2.231-.08 2.212-.387-.115-.525-.124-1.949-.124-1.425 0-1.492.003-1.802.092-.97.278-1.755 1.057-2.064 2.048l-.094.3v7.08l.094.3a3.09 3.09 0 0 0 2.046 2.046c.292.092.338.094 1.82.094 1.452 0 1.668-.014 1.954-.123.057-.022.064.183.075 2.212l.011 2.237.121.197a.998.998 0 0 0 1.718 0l.121-.197V1.7l-.108-.184a1.005 1.005 0 0 0-1.177-.459M7.31 6.061c.279.083.546.35.629.629.053.178.061.856.061 5.311 0 4.211-.01 5.138-.055 5.289a1.02 1.02 0 0 1-.461.582l-.184.108H4.7l-.184-.108a1.05 1.05 0 0 1-.458-.556c-.089-.255-.087-10.323.003-10.626.079-.269.351-.547.612-.627.279-.086 2.35-.088 2.637-.002m12 2c.279.083.546.35.629.629.086.29.092 6.314.006 6.6a1.02 1.02 0 0 1-.461.582l-.184.108h-2.6l-.184-.108a1.05 1.05 0 0 1-.458-.556c-.089-.253-.087-6.325.003-6.626.079-.269.351-.547.612-.627.279-.086 2.35-.088 2.637-.002"/></svg>