<svg xmlns="http://www.w3.org/2000/svg" width="24" height="24" fill="none" stroke="currentColor" stroke-linecap="round" stroke-linejoin="round" stroke-width="2"><path fill="#000" fill-rule="evenodd" stroke="none" d="M11.695 1.057a1.04 1.04 0 0 0-.567.459l-.108.184v20.606l.121.197a.998.998 0 0 0 1.718 0l.121-.197V1.7l-.108-.184a1.005 1.005 0 0 0-1.177-.459M3.499 3.043c-.639.107-1.104.355-1.603.853-.4.401-.601.717-.771 1.217l-.105.307v1.56c0 1.524.002 1.567.094 1.86a3.11 3.11 0 0 0 2.026 2.045c.278.093.295.093 2.628.106 1.553.009 2.401-.001 2.504-.029.226-.061.466-.251.595-.47.097-.165.113-.235.113-.492 0-.254-.017-.328-.108-.484a1.15 1.15 0 0 0-.499-.446c-.084-.037-.692-.055-2.393-.07L3.7 8.98l-.184-.108a1.2 1.2 0 0 1-.292-.251c-.217-.284-.23-.383-.216-1.686.011-1.087.019-1.209.089-1.351.099-.199.288-.388.487-.487.147-.073.284-.078 2.436-.097l2.28-.02.192-.113c.756-.444.631-1.561-.202-1.812-.146-.044-.624-.054-2.386-.05-1.212.002-2.295.02-2.405.038m12.196.013c-.23.073-.44.244-.567.46-.091.156-.108.23-.108.484 0 .256.016.328.111.489.125.213.318.375.539.454.118.042.608.054 2.293.055 2.452.002 2.428 0 2.734.305.283.284.303.394.303 1.698 0 1.206-.02 1.353-.221 1.617-.061.08-.194.195-.295.254l-.184.108-2.28.02c-1.701.015-2.309.033-2.393.07a1.15 1.15 0 0 0-.499.446c-.091.156-.108.23-.108.484 0 .257.016.327.113.492.129.219.369.409.595.47.103.028.951.038 2.504.029 2.333-.013 2.35-.013 2.628-.106a3.11 3.11 0 0 0 2.026-2.045c.092-.293.094-.337.094-1.84s-.002-1.547-.094-1.84a3.08 3.08 0 0 0-2.025-2.038l-.321-.1-2.34-.009c-1.849-.008-2.375.001-2.505.043m-9.196 9.987c-.639.107-1.104.355-1.603.853-.4.401-.601.717-.771 1.217l-.105.307v1.56c0 1.524.002 1.567.094 1.86a3.1 3.1 0 0 0 2.026 2.042c.243.078.391.092 1.12.108.545.012.898.003 1.004-.026.233-.063.473-.25.603-.472.097-.165.113-.235.113-.492 0-.254-.017-.328-.108-.484a1.1 1.1 0 0 0-.499-.443c-.066-.028-.439-.057-.893-.07-.756-.022-.786-.026-.964-.131a1.2 1.2 0 0 1-.292-.251c-.217-.284-.23-.383-.216-1.686.013-1.323.02-1.36.293-1.634.251-.25.359-.277 1.219-.3.766-.021.783-.023.972-.134.756-.444.631-1.561-.202-1.812-.206-.062-1.445-.07-1.791-.012m9.196.012a1.05 1.05 0 0 0-.567.461c-.091.156-.108.23-.108.484 0 .256.016.328.111.489.061.103.173.236.25.294.241.184.389.213 1.082.215.794.002.976.047 1.234.305.283.284.303.394.303 1.698 0 1.206-.02 1.353-.221 1.617-.061.08-.194.195-.295.254-.178.105-.208.109-.964.131-.454.013-.827.042-.893.07a1.1 1.1 0 0 0-.499.443c-.091.156-.108.23-.108.484 0 .257.016.327.113.492.13.222.37.409.603.472.106.029.459.038 1.004.026.729-.016.877-.03 1.12-.108a3.1 3.1 0 0 0 2.026-2.042c.092-.293.094-.337.094-1.84s-.002-1.547-.094-1.84a3.07 3.07 0 0 0-2.025-2.035c-.287-.086-.41-.098-1.161-.11-.628-.011-.882 0-1.005.04"/></svg>