<svg xmlns="http://www.w3.org/2000/svg" width="24" height="24" fill="none" stroke="currentColor" stroke-linecap="round" stroke-linejoin="round" stroke-width="2"><path fill="#000" fill-rule="evenodd" stroke="none" d="M8.499 1.042c-1.122.192-2.038 1.006-2.385 2.118-.092.293-.094.337-.094 1.84s.002 1.547.094 1.84A3.09 3.09 0 0 0 8.16 8.886l.3.094h7.08l.3-.094a3.09 3.09 0 0 0 2.046-2.046c.092-.293.094-.337.094-1.84s-.002-1.547-.094-1.84a3.09 3.09 0 0 0-2.025-2.038l-.321-.101-3.42-.007c-1.881-.003-3.511.009-3.621.028m6.811 2.019c.279.083.546.35.629.629.084.282.089 2.325.006 2.6a1.02 1.02 0 0 1-.461.582l-.184.108H8.7l-.184-.108a1.05 1.05 0 0 1-.458-.556c-.086-.245-.084-2.334.003-2.626.079-.269.351-.547.612-.627.288-.088 6.34-.091 6.637-.002m-8.811 7.982c-1.12.19-2.038 1.005-2.385 2.117-.092.293-.094.337-.094 1.84s.002 1.547.094 1.84a3.09 3.09 0 0 0 2.046 2.046l.3.094h11.08l.3-.094a3.09 3.09 0 0 0 2.046-2.046c.092-.293.094-.337.094-1.84s-.002-1.547-.094-1.84a3.09 3.09 0 0 0-2.025-2.039l-.321-.101-5.42-.006c-2.981-.003-5.511.01-5.621.029m10.811 2.018c.279.083.546.35.629.629.084.282.089 2.325.006 2.6a1.02 1.02 0 0 1-.461.582l-.184.108H6.7l-.184-.108a1.05 1.05 0 0 1-.458-.556c-.086-.245-.084-2.334.003-2.626.079-.269.351-.547.612-.627.29-.089 10.337-.091 10.637-.002M1.695 21.057a1.04 1.04 0 0 0-.567.459c-.091.156-.108.23-.108.484 0 .256.016.328.111.489.125.213.318.375.539.454.223.08 20.437.08 20.66 0 .221-.079.414-.241.539-.454.095-.161.111-.233.111-.489 0-.254-.017-.328-.108-.484a1.02 1.02 0 0 0-.582-.461c-.263-.079-20.342-.077-20.595.002"/></svg>