<svg xmlns="http://www.w3.org/2000/svg" width="24" height="24" fill="none" stroke="currentColor" stroke-linecap="round" stroke-linejoin="round" stroke-width="2"><path fill="#000" fill-rule="evenodd" stroke="none" d="M5.499 1.042A3.05 3.05 0 0 0 3.114 3.16l-.094.3v4.846l.121.197a.998.998 0 0 0 1.718 0l.121-.197L5 6.023c.022-2.559.008-2.436.321-2.74C5.591 3.022 5.72 3 7 3s1.409.022 1.679.283c.313.304.299.181.321 2.74l.02 2.283.121.197a.998.998 0 0 0 1.718 0l.121-.197V3.46l-.094-.3a3.08 3.08 0 0 0-2.025-2.036c-.313-.097-.357-.1-1.741-.109-.781-.005-1.511.007-1.621.027m10 3c-.649.113-1.105.357-1.603.854-.401.402-.603.721-.769 1.217-.099.294-.103.346-.105 1.25l-.002.943.121.197a.998.998 0 0 0 1.718 0l.121-.197.021-.783c.023-.863.05-.971.3-1.222.273-.272.313-.28 1.611-.293 1.363-.014 1.488.005 1.766.275.272.264.295.353.32 1.24l.022.783.121.197a.998.998 0 0 0 1.718 0l.121-.197v-.923c0-.856-.007-.945-.094-1.223a3.08 3.08 0 0 0-2.025-2.036c-.313-.097-.357-.1-1.741-.109-.781-.005-1.511.007-1.621.027M1.695 11.057a1.04 1.04 0 0 0-.567.459c-.091.156-.108.23-.108.484 0 .256.016.328.111.489.125.213.318.375.539.454.223.08 20.437.08 20.66 0 .221-.079.414-.241.539-.454.095-.161.111-.233.111-.489 0-.254-.017-.328-.108-.484a1.02 1.02 0 0 0-.582-.461c-.263-.079-20.342-.077-20.595.002m2 4a1.04 1.04 0 0 0-.567.459l-.108.184v4.84l.094.3a3.09 3.09 0 0 0 2.046 2.046c.293.092.337.094 1.84.094s1.547-.002 1.84-.094a3.09 3.09 0 0 0 2.046-2.046l.094-.3V15.7l-.109-.186a1.01 1.01 0 0 0-1.742 0l-.109.186L9 17.98c-.015 1.701-.033 2.309-.07 2.393a1.15 1.15 0 0 1-.446.499l-.184.108H5.7l-.184-.108a1.15 1.15 0 0 1-.446-.499c-.037-.084-.055-.692-.07-2.393l-.02-2.28-.108-.184a1.005 1.005 0 0 0-1.177-.459m10 0a1.04 1.04 0 0 0-.567.459l-.108.184v.92c0 .853.007.942.094 1.22.124.4.323.769.565 1.051.428.5.891.811 1.481.995.293.092.337.094 1.84.094s1.547-.002 1.84-.094a3.09 3.09 0 0 0 2.046-2.046c.087-.278.094-.367.094-1.22v-.92l-.109-.186a1.01 1.01 0 0 0-1.742 0c-.106.181-.11.208-.132.966-.013.454-.042.827-.07.893a1.1 1.1 0 0 1-.443.499l-.184.108h-2.6l-.184-.108a1.13 1.13 0 0 1-.444-.499c-.029-.068-.057-.426-.07-.893-.021-.756-.025-.786-.13-.964a1.005 1.005 0 0 0-1.177-.459"/></svg>