<svg xmlns="http://www.w3.org/2000/svg" width="24" height="24" fill="none" stroke="currentColor" stroke-linecap="round" stroke-linejoin="round" stroke-width="2"><path fill="#000" fill-rule="evenodd" stroke="none" d="M3.499 3.043c-1.11.189-2.011.981-2.385 2.097l-.094.28-.011 5.899c-.007 4.024.003 5.964.031 6.103.075.357.26.686.551.977.493.493.825.601 1.851.601h.705l.165.33a3.1 3.1 0 0 0 1.848 1.556c.434.135 1.246.135 1.68 0a3.1 3.1 0 0 0 1.848-1.556l.165-.33h4.294l.165.33a3.1 3.1 0 0 0 1.848 1.556c.252.078.387.093.84.093s.588-.015.84-.093a3.1 3.1 0 0 0 1.848-1.556l.165-.33h.705c1.023 0 1.358-.108 1.846-.596.29-.29.437-.541.533-.913.089-.343.093-3.915.005-4.246a2 2 0 0 0-.541-.926c-.331-.331-.528-.424-1.735-.824l-.954-.315-.836-1.667c-.764-1.523-.856-1.687-1.067-1.9-.486-.492-.878-.612-2.014-.612L15.009 7l-.019-.79c-.016-.674-.032-.831-.108-1.07a3.1 3.1 0 0 0-2.021-2.019l-.321-.101-4.42-.006c-2.431-.003-4.511.01-4.621.029m8.811 2.018c.279.083.546.35.629.629.053.179.061.903.061 5.757V17H9.853l-.165-.33a3.08 3.08 0 0 0-1.827-1.545c-.273-.083-.403-.098-.861-.098s-.588.015-.861.098a3.08 3.08 0 0 0-1.827 1.545l-.165.33H3v-5.553c0-6.257-.022-5.819.304-6.144.314-.314.042-.297 4.679-.3 3.58-.003 4.149.005 4.327.058M7.695 7.057a1.04 1.04 0 0 0-.567.459c-.103.176-.109.212-.121.834L6.993 9h-.55c-.795 0-1.077.111-1.315.516-.091.156-.108.23-.108.484 0 .256.016.328.111.489.125.213.318.375.539.454.098.035.352.054.737.055l.586.002.014.653c.013.647.014.655.134.85.068.11.205.253.311.325.471.316 1.102.171 1.407-.325.12-.195.121-.203.134-.85L9.007 11l.586-.002c.385-.001.639-.02.737-.055.221-.079.414-.241.539-.454.095-.161.111-.233.111-.489 0-.254-.017-.328-.108-.484-.238-.405-.52-.516-1.315-.516h-.55l-.014-.65c-.012-.622-.018-.658-.121-.834a1.005 1.005 0 0 0-1.177-.459m9.514 3.6c.727 1.451.858 1.687 1.056 1.902.294.317.592.459 1.805.86l.93.308V17h-1.147l-.165-.33a3.08 3.08 0 0 0-1.827-1.545c-.456-.138-1.218-.144-1.681-.012a3.1 3.1 0 0 0-1.01.514l-.17.138V9h1.38zM7.31 17.061c.378.112.69.537.69.94 0 .33-.216.695-.516.871-.156.091-.23.108-.484.108s-.328-.017-.484-.108c-.581-.342-.683-1.098-.212-1.569q.417-.418 1.006-.242m10 0c.378.112.69.537.69.94 0 .33-.216.695-.516.871-.156.091-.23.108-.484.108s-.328-.017-.484-.108c-.584-.344-.685-1.097-.209-1.573q.414-.413 1.003-.238"/></svg>