<svg xmlns="http://www.w3.org/2000/svg" width="24" height="24" fill="none" stroke="currentColor" stroke-linecap="round" stroke-linejoin="round" stroke-width="2"><path fill="#000" fill-rule="evenodd" stroke="none" d="M9.358 3.061c-1.627.254-2.941 1.523-3.275 3.166-.219 1.075.026 2.599.669 4.162l.086.209-.389.258c-1.389.921-2.163 2.136-2.387 3.744-.254 1.822.302 3.528 1.558 4.778 1.144 1.137 2.552 1.676 4.212 1.611 1.806-.071 3.601-.7 5.006-1.754.232-.175.266-.189.34-.141.252.164 1.318.758 1.933 1.077 1.617.841 1.801.905 2.211.768a.994.994 0 0 0 .616-1.268c-.115-.337-.242-.432-1.263-.946a46 46 0 0 1-1.532-.805c-.573-.322-.585-.331-.525-.415.349-.48.754-1.139.962-1.565.398-.812.72-1.865.843-2.75l.026-.19.366-.002c.553-.002.837-.14 1.054-.509.095-.161.111-.233.111-.489 0-.254-.017-.328-.108-.484a1.02 1.02 0 0 0-.582-.461c-.264-.08-3.316-.08-3.58 0a.99.99 0 0 0-.512 1.536c.065.09.204.213.308.274.158.093.246.114.546.128l.357.017-.027.205c-.085.661-.462 1.664-.892 2.377-.241.399-.607.888-.665.888-.051-.001-.845-.573-1.451-1.047-.916-.716-2.055-1.803-2.734-2.609-.431-.511-.997-1.279-.966-1.311.014-.015.296-.137.626-.273.849-.348 1.375-.613 1.854-.933 1.192-.797 1.776-1.799 1.833-3.147a3.8 3.8 0 0 0-.282-1.644 3.98 3.98 0 0 0-3.1-2.458 3.7 3.7 0 0 0-1.247.003m1.165 2.012a2 2 0 0 1 1.445 1.634c.157 1.082-.369 1.778-1.839 2.431-.659.293-1.444.6-1.47.574a4 4 0 0 1-.158-.357c-.394-.969-.585-2.174-.444-2.805A2.005 2.005 0 0 1 10 5.005c.143 0 .378.031.523.068M8.1 12.802c1.119 1.619 2.782 3.29 4.628 4.65.388.286.537.418.51.451-.066.079-.962.525-1.318.655a6.5 6.5 0 0 1-2.36.42c-.717 0-.927-.038-1.449-.259-.929-.395-1.729-1.32-2-2.314-.109-.402-.119-1.391-.017-1.84.143-.631.389-1.085.826-1.525.224-.226.784-.664.867-.679.004 0 .145.198.313.441"/></svg>