<svg xmlns="http://www.w3.org/2000/svg" width="24" height="24" fill="none" stroke="currentColor" stroke-linecap="round" stroke-linejoin="round" stroke-width="2"><path fill="#000" fill-rule="evenodd" stroke="none" d="M4.499 5.04a3.05 3.05 0 0 0-2.378 2.1c-.238.768-.094 1.953.381 3.145.076.19.138.354.138.364s-.169.189-.375.395c-.795.797-1.195 1.671-1.252 2.739-.1 1.855 1.013 3.476 2.768 4.029 1.168.368 2.701.177 4.022-.5l.464-.238.516.337c.766.498.868.552 1.111.577a.99.99 0 0 0 1.046-1.307c-.09-.273-.262-.441-.771-.755l-.41-.254.114-.146c.445-.574.88-1.604 1.033-2.446.039-.218.07-.593.071-.88.003-.475-.002-.509-.106-.686-.389-.661-1.351-.667-1.736-.009-.087.148-.11.256-.144.666-.022.269-.082.66-.134.869-.1.397-.363.978-.576 1.272l-.125.173-.288-.25a21 21 0 0 1-1.619-1.64c-.353-.421-.927-1.199-.928-1.258-.001-.023.075-.085.169-.138.385-.216 1.228-.807 1.478-1.036.532-.488.849-1.023.974-1.643.295-1.454-.634-2.968-2.081-3.391-.361-.106-1.029-.149-1.362-.089m12 0a3.05 3.05 0 0 0-2.378 2.1c-.238.768-.094 1.953.381 3.145.076.19.138.354.138.364s-.169.189-.375.395c-.795.797-1.195 1.671-1.252 2.739-.1 1.855 1.013 3.476 2.768 4.029 1.168.368 2.701.177 4.022-.5l.464-.238.516.337c.766.498.868.552 1.111.577a.99.99 0 0 0 1.046-1.307c-.09-.273-.262-.441-.771-.755l-.41-.254.114-.146c.445-.574.88-1.604 1.033-2.446.039-.218.07-.593.071-.88.003-.475-.002-.509-.106-.686-.389-.661-1.351-.667-1.736-.009-.087.148-.11.256-.144.666-.022.269-.082.66-.134.869-.1.397-.363.978-.576 1.272l-.125.173-.288-.25a21 21 0 0 1-1.619-1.64c-.353-.421-.927-1.199-.928-1.258-.001-.023.075-.085.169-.138.385-.216 1.228-.807 1.478-1.036.532-.488.849-1.023.974-1.643.295-1.454-.634-2.968-2.081-3.391-.361-.106-1.029-.149-1.362-.089M5.31 7.061c.368.109.691.538.69.916-.001.362-.292.696-1.033 1.187-.295.196-.559.356-.586.356-.072 0-.292-.763-.346-1.2-.063-.505.002-.751.268-1.017.28-.279.612-.359 1.007-.242m12 0c.368.109.691.538.69.916-.001.362-.292.696-1.033 1.187-.295.196-.559.356-.586.356-.072 0-.292-.763-.346-1.2-.063-.505.002-.751.268-1.017.28-.279.612-.359 1.007-.242M4.038 13.013a18 18 0 0 0 2.149 2.398l.327.304-.257.086c-.863.287-1.754.255-2.315-.082-1.04-.626-1.254-2.129-.437-3.075.134-.155.156-.168.193-.107.023.038.176.252.34.476m12 0a18 18 0 0 0 2.149 2.398l.327.304-.257.086c-.863.287-1.754.255-2.315-.082-1.04-.626-1.254-2.129-.437-3.075.134-.155.156-.168.193-.107.023.038.176.252.34.476"/></svg>