<svg xmlns="http://www.w3.org/2000/svg" width="24" height="24" fill="none" stroke="currentColor" stroke-linecap="round" stroke-linejoin="round" stroke-width="2"><path fill="#000" fill-rule="evenodd" stroke="none" d="M8.695 1.057a1.04 1.04 0 0 0-.567.459c-.092.156-.108.23-.108.487 0 .268.014.326.121.5.147.239.437.443.68.479L9 3.009v.982l-.77.019c-.663.017-.814.033-1.091.116A3.07 3.07 0 0 0 5.114 6.16c-.135.434-.135 1.247 0 1.679.212.675.571 1.173 1.166 1.615.121.089.225.166.232.169.006.004-.097.158-.23.342-.488.676-.968 1.772-1.137 2.597-.256 1.244-.158 2.749.269 4.138.425 1.384 1.273 2.833 2.328 3.98l.276.3-1.139.021c-.771.014-1.175.037-1.252.07a1.14 1.14 0 0 0-.499.445c-.091.156-.108.23-.108.484 0 .256.016.328.111.489.125.213.318.375.539.454s12.438.079 12.66 0 .414-.241.539-.454c.095-.161.111-.233.111-.489 0-.254-.017-.328-.108-.484a1.14 1.14 0 0 0-.499-.445c-.077-.033-.481-.056-1.249-.07l-1.137-.021.257-.28a11.3 11.3 0 0 0 1.764-2.557c.885-1.761 1.203-3.852.847-5.581-.169-.825-.649-1.921-1.137-2.597a3 3 0 0 1-.23-.342c.007-.003.111-.08.232-.169.595-.442.954-.94 1.166-1.615.135-.432.135-1.245 0-1.679a3.07 3.07 0 0 0-2.025-2.034c-.277-.083-.428-.099-1.091-.116L15 3.991v-.982l.179-.027c.243-.036.533-.24.68-.479.107-.174.121-.232.121-.5 0-.257-.016-.331-.108-.487a1.02 1.02 0 0 0-.582-.461c-.26-.078-6.345-.076-6.595.002M13 5.432c0 2.645 0 2.645.23 3.121.158.325.595.752.99.967.779.423 1.342.896 1.79 1.5.311.419.682 1.182.809 1.66.216.815.223 1.797.021 2.78-.409 1.988-1.854 4.066-3.666 5.272l-.402.268h-1.544l-.402-.268c-1.81-1.204-3.257-3.286-3.666-5.272a10 10 0 0 1-.127-.963c-.082-1.013.063-1.817.484-2.679.499-1.02 1.18-1.712 2.263-2.299.396-.215.832-.641.99-.966.23-.476.23-.476.23-3.121V3h2zM9 6.814c0 .927.03.846-.389 1.065-.236.124-.267.13-.584.114-.269-.015-.37-.039-.514-.124a.985.985 0 0 1-.206-1.57c.247-.246.423-.293 1.123-.296L9 6zm7.31-.753c.378.112.69.537.69.94 0 .175-.103.461-.221.617-.188.247-.42.354-.806.375-.317.016-.348.01-.584-.114C14.97 7.66 15 7.741 15 6.814V6h.553c.378 0 .617.019.757.061"/></svg>