<svg xmlns="http://www.w3.org/2000/svg" width="24" height="24" fill="none" stroke="currentColor" stroke-linecap="round" stroke-linejoin="round" stroke-width="2"><path fill="#000" fill-rule="evenodd" stroke="none" d="m11.28 1.023-.56.06c-1.888.2-3.729.94-5.36 2.152-.609.453-1.676 1.52-2.134 2.132C.728 8.714.301 13.032 2.097 16.78c.546 1.138 1.179 2.021 2.141 2.982.961.962 1.844 1.595 2.982 2.141 3.747 1.796 8.068 1.367 11.417-1.133.609-.454 1.679-1.524 2.133-2.133 2.974-3.985 2.974-9.289 0-13.274-.454-.608-1.523-1.677-2.13-2.128-1.595-1.186-3.275-1.875-5.217-2.139C13 1.038 11.574.99 11.28 1.023m2.04 2.078c2.563.387 4.804 1.83 6.24 4.019.303.463.743 1.359.932 1.9.346.993.485 1.845.485 2.98 0 1.493-.257 2.621-.897 3.94-.705 1.454-1.769 2.667-3.153 3.592-.789.528-2.051 1.056-3.019 1.265a9.05 9.05 0 0 1-7.538-1.778c-1.513-1.212-2.648-2.99-3.103-4.859-.186-.763-.244-1.272-.244-2.16 0-1.493.257-2.621.897-3.94a8.98 8.98 0 0 1 5.24-4.594c.705-.233 1.272-.348 2.18-.442.322-.033 1.571.015 1.98.077M7.24 7.035a1.1 1.1 0 0 0-.488.317.97.97 0 0 0 0 1.296c.162.18.324.267.948.512.242.094.454.185.472.2s-.009.098-.06.184c-.074.126-.092.215-.092.456 0 .257.016.327.113.492a1 1 0 0 0 1.784-.092.9.9 0 0 0 .082-.29c.001-.079.021-.11.074-.11.173 0 .471-.142.628-.299a.984.984 0 0 0 .001-1.401c-.147-.147-.314-.225-1.543-.717-1.408-.563-1.656-.634-1.919-.548m8.84.058c-.143.052-.79.309-1.439.569-1.036.416-1.198.493-1.343.638a.984.984 0 0 0 .001 1.401c.155.156.455.299.624.299.05 0 .075.047.095.179.036.243.24.533.479.68.174.107.232.121.5.12.231-.001.341-.021.463-.086.482-.257.672-.828.441-1.324l-.099-.212.089-.034c.431-.167.944-.379 1.063-.441.582-.3.721-1.089.274-1.556-.299-.312-.709-.395-1.148-.233m-4.62 5.932q-1.47.16-2.777 1.032c-.774.516-1.496 1.241-1.626 1.632a.99.99 0 0 0 1.048 1.299c.301-.031.408-.102.905-.602.68-.683 1.316-1.067 2.103-1.27 1.366-.351 2.847.151 3.955 1.342.366.393.531.499.82.529a.99.99 0 0 0 1.055-1.298c-.13-.391-.852-1.116-1.626-1.632-.719-.48-1.517-.816-2.277-.957-.339-.064-1.277-.108-1.58-.075"/></svg>