<svg xmlns="http://www.w3.org/2000/svg" width="24" height="24" fill="none" stroke="currentColor" stroke-linecap="round" stroke-linejoin="round" stroke-width="2"><path fill="#000" fill-rule="evenodd" stroke="none" d="M6.643 1.066c-.382.14-.31.011-3.058 5.517-2.792 5.594-2.667 5.309-2.524 5.739.128.385.533.678.939.678.227 0 .512-.116.679-.275.119-.114.397-.637 1.296-2.435L5.12 8h2.759l-.925 1.852c-1.016 2.037-1.027 2.067-.893 2.47.128.385.533.678.939.678.227 0 .512-.116.679-.275.119-.114.397-.637 1.296-2.435L10.12 8h2.759l-.925 1.852c-1.016 2.037-1.027 2.067-.893 2.47.128.385.533.678.939.678.227 0 .512-.116.679-.275.119-.114.397-.637 1.296-2.435L15.12 8h2.759l-.925 1.852c-1.016 2.037-1.027 2.067-.893 2.47.128.385.533.678.939.678.243 0 .521-.119.697-.298.132-.135.643-1.127 2.718-5.285 2.78-5.57 2.666-5.312 2.529-5.724-.227-.685-1.106-.912-1.622-.419-.12.115-.395.631-1.297 2.436L18.88 6h-2.759l.925-1.852c1.01-2.024 1.026-2.069.898-2.455-.227-.685-1.106-.912-1.622-.419-.12.115-.395.631-1.297 2.436L13.88 6h-2.759l.925-1.852c1.01-2.024 1.026-2.069.898-2.455-.227-.685-1.106-.912-1.622-.419-.12.115-.395.631-1.297 2.436L8.88 6H6.121l.925-1.852c1.01-2.024 1.026-2.069.898-2.455a1.3 1.3 0 0 0-.179-.335c-.242-.293-.754-.427-1.122-.292m5.052 13.991a1.04 1.04 0 0 0-.567.459l-.108.184v6.606l.121.197a.998.998 0 0 0 1.718 0l.121-.197V15.7l-.108-.184a1.005 1.005 0 0 0-1.177-.459"/></svg>