<svg xmlns="http://www.w3.org/2000/svg" width="24" height="24" fill="none" stroke="currentColor" stroke-linecap="round" stroke-linejoin="round" stroke-width="2"><path fill="#000" fill-rule="evenodd" stroke="none" d="M7.48 3.073c-.426.111-.882.43-1.126.789l-.094.137-1.76.003c-1.529.002-1.795.012-2.023.071-.697.182-1.292.812-1.441 1.524-.094.454.01 1.35.232 2.003a5.04 5.04 0 0 0 4.402 3.388l.33.024v.126c0 .405.235.906.596 1.266.362.363.861.596 1.272.596H8v3h-.11c-.226.001-.888.12-1.135.204-1.387.475-2.383 1.601-2.672 3.023-.198.971-.045 1.619.513 2.177.286.286.552.443.912.536.345.09 12.639.09 12.984 0 .36-.093.626-.25.912-.536.553-.553.71-1.211.517-2.161a4.02 4.02 0 0 0-2.676-3.039c-.247-.084-.909-.203-1.135-.204H16v-3.08h.102c.195 0 .919-.169 1.398-.325a8.4 8.4 0 0 0 2.54-1.384c.354-.286 1.027-.972 1.286-1.311a8.23 8.23 0 0 0 1.632-4.068c.119-1.094-.008-1.657-.493-2.179a2 2 0 0 0-.942-.58c-.244-.063-.762-.068-7.023-.068-6.232 0-6.78.005-7.02.068M20.999 5.09a7 7 0 0 1-.328 1.85c-.68 1.996-2.348 3.461-4.491 3.945-.398.09-.42.091-4.29.105L8 11.003V5h13zM6 7.506v1.505l-.302-.027c-.77-.07-1.459-.439-2.003-1.073a2.97 2.97 0 0 1-.677-1.625L2.99 6H6zm8 6.994V16h-4v-3h4zm2.478 3.562c.478.109.911.423 1.208.875.169.259.252.493.295.839l.028.224H6v-.102c0-.222.132-.663.265-.884.281-.471.723-.813 1.212-.941.24-.062.628-.069 4.495-.071 3.695-.002 4.267.006 4.506.06"/></svg>