<svg xmlns="http://www.w3.org/2000/svg" width="24" height="24" fill="none" stroke="currentColor" stroke-linecap="round" stroke-linejoin="round" stroke-width="2"><path fill="#000" fill-rule="evenodd" stroke="none" d="M3.499 3.043C2.38 3.232 1.461 4.048 1.114 5.16l-.094.3v13.08l.094.3a3.09 3.09 0 0 0 2.046 2.046l.3.094h17.08l.3-.094a3.09 3.09 0 0 0 2.046-2.046l.094-.3V5.46l-.094-.3a3.09 3.09 0 0 0-2.025-2.039l-.321-.101-8.42-.006c-4.631-.003-8.511.01-8.621.029M5 6v1H3v-.553c0-.697.052-.893.304-1.144.25-.251.423-.297 1.126-.3L5 5zm4 0v1H7V5h2zm11.31-.939a.9.9 0 0 1 .387.242c.251.251.303.448.303 1.144V7H11V5h4.553c3.959 0 4.579.008 4.757.061m.69 8.493c0 4.943.008 4.764-.221 5.064-.061.08-.194.195-.295.254l-.184.108H3.7l-.184-.108a1.2 1.2 0 0 1-.291-.249C2.989 18.314 3 18.557 3 13.575V9h18z"/></svg>