<svg xmlns="http://www.w3.org/2000/svg" width="24" height="24" fill="none" stroke="currentColor" stroke-linecap="round" stroke-linejoin="round" stroke-width="2"><path fill="#000" fill-rule="evenodd" stroke="none" d="M9.643 1.069a1.07 1.07 0 0 0-.577.591c-.164.483.001.927.45 1.209.46.289.751.65 1.004 1.244.127.3.335 1.021.288.999l-.445-.226c-1.048-.537-2.051-.818-3.103-.871-3-.151-5.571 1.853-6.164 4.805-.098.483-.099 1.786-.002 2.5.276 2.05.885 4.239 1.734 6.239 1.19 2.804 2.636 4.646 4.098 5.224.549.217 1.063.266 1.679.158.414-.072.764-.185 1.688-.545.864-.337 1.251-.435 1.707-.435s.843.098 1.707.435c.924.36 1.274.473 1.688.545.616.108 1.13.059 1.679-.158 1.062-.42 2.141-1.532 3.103-3.2 1.286-2.229 2.355-5.46 2.726-8.243.087-.654.1-1.952.023-2.38-.338-1.888-1.486-3.459-3.141-4.298-.75-.38-1.369-.555-2.238-.63-1.422-.123-2.977.273-4.425 1.127a1 1 0 0 1-.222.113 8 8 0 0 1-.096-.452c-.317-1.614-1.015-2.837-1.991-3.486-.496-.33-.795-.398-1.17-.265M7.481 6.041c.982.12 1.803.464 3.279 1.377.863.534.962.58 1.24.58s.377-.046 1.24-.58c1.52-.94 2.321-1.27 3.352-1.381 1.759-.191 3.308.673 4.051 2.26.254.542.332.935.331 1.663-.004 2.825-1.538 7.426-3.236 9.704-.349.468-.911 1.011-1.218 1.176-.232.124-.293.14-.56.139-.344-.001-.498-.046-1.574-.466a14 14 0 0 0-1.186-.406c-.434-.115-.501-.122-1.2-.122s-.766.007-1.2.122c-.253.068-.787.25-1.186.406-1.076.42-1.23.465-1.574.466-.267.001-.328-.015-.56-.139-.307-.165-.869-.708-1.216-1.173-1.385-1.86-2.691-5.284-3.122-8.187-.233-1.569-.158-2.453.283-3.331.198-.393.339-.59.671-.941.872-.917 2.062-1.328 3.385-1.167"/></svg>