<svg xmlns="http://www.w3.org/2000/svg" width="24" height="24" fill="none" stroke="currentColor" stroke-linecap="round" stroke-linejoin="round" stroke-width="2"><path fill="#000" fill-rule="evenodd" stroke="none" d="M2.477 2.073c-.671.176-1.239.75-1.417 1.435-.088.336-.088 3.648 0 3.984.093.36.25.626.536.912.362.362.861.596 1.271.596h.131l.011 5.29.011 5.29.094.28c.332.991 1.07 1.722 2.046 2.026l.3.094h13.08l.3-.094c.976-.304 1.714-1.035 2.046-2.026l.094-.28.011-5.29.011-5.29h.131c.19 0 .558-.104.797-.225.266-.135.708-.575.841-.838.219-.431.229-.541.228-2.423 0-1.872-.014-2.03-.218-2.431-.135-.267-.484-.634-.764-.802-.496-.299.318-.276-10.017-.276-8.624 0-9.278.004-9.523.068M21 5.5V7H3V4h18zm-2 8.554c0 4.166-.01 5.085-.055 5.236a1.02 1.02 0 0 1-.461.582l-.184.108H5.7l-.184-.108a1.2 1.2 0 0 1-.291-.249c-.237-.31-.225-.02-.225-5.548V9h14zm-9.76-3.019c-.456.149-.728.511-.728.968 0 .391.072.49 1.104 1.517.519.517.944.958.944.98s-.425.463-.944.98c-.662.659-.968.992-1.024 1.115a1.12 1.12 0 0 0-.014.787c.145.348.548.618.922.617.368-.001.486-.088 1.53-1.13l.97-.968.97.968c1.044 1.042 1.162 1.129 1.53 1.13.374.001.777-.269.922-.617a1.12 1.12 0 0 0-.014-.787c-.056-.123-.362-.456-1.024-1.115-.519-.517-.944-.958-.944-.98s.425-.463.944-.98c1.032-1.027 1.104-1.126 1.104-1.517a.98.98 0 0 0-.548-.895c-.211-.113-.656-.119-.86-.013-.077.04-.577.507-1.11 1.039l-.97.965-.97-.965c-.533-.532-1.031-.997-1.106-1.034-.156-.078-.535-.114-.684-.065"/></svg>