<svg xmlns="http://www.w3.org/2000/svg" width="24" height="24" fill="none" stroke="currentColor" stroke-linecap="round" stroke-linejoin="round" stroke-width="2"><path fill="#000" fill-rule="evenodd" stroke="none" d="M2.477 2.073c-.671.176-1.239.75-1.417 1.435-.088.336-.088 3.648 0 3.984.093.36.25.626.536.912.362.362.861.596 1.271.596h.131l.011 5.29.011 5.29.094.28a3.14 3.14 0 0 0 2.026 2.024c.264.086.355.092 1.624.107.883.01 1.399.001 1.504-.028.23-.062.469-.25.599-.471.097-.165.113-.235.113-.492 0-.254-.017-.328-.108-.484a1.14 1.14 0 0 0-.499-.445c-.077-.033-.519-.055-1.393-.07L5.7 19.98l-.184-.108a1.2 1.2 0 0 1-.291-.249c-.237-.31-.225-.02-.225-5.548V9h14v5.054c0 4.166-.01 5.085-.055 5.236a1.02 1.02 0 0 1-.461.582l-.184.108-1.28.021c-.874.015-1.316.037-1.393.07a1.14 1.14 0 0 0-.499.445c-.091.156-.108.23-.108.484 0 .257.016.327.113.492.13.221.369.409.599.471.105.029.621.038 1.504.028 1.269-.015 1.36-.021 1.624-.107a3.14 3.14 0 0 0 2.026-2.024l.094-.28.011-5.29.011-5.29h.131c.19 0 .558-.104.797-.225.266-.135.708-.575.841-.838.219-.431.229-.541.228-2.423 0-1.872-.014-2.03-.218-2.431-.135-.267-.484-.634-.764-.802-.496-.299.318-.276-10.017-.276-8.624 0-9.278.004-9.523.068M21 5.5V7H3V4h18zm-9.42 5.596c-.156.075-.551.449-1.806 1.71-.883.888-1.639 1.677-1.679 1.754-.052.099-.074.228-.074.44-.001.258.015.327.112.492.13.222.369.409.603.473.203.054.531.024.709-.066.074-.038.454-.385.844-.771l.709-.703.011 3.44.011 3.441.121.197c.068.11.205.253.311.325.471.316 1.102.171 1.407-.325l.121-.197.011-3.441.011-3.44.709.703c.39.386.772.736.849.776.1.053.227.075.44.075.258.001.327-.015.492-.112.222-.13.409-.369.473-.603a1.2 1.2 0 0 0-.066-.709c-.037-.074-.79-.861-1.673-1.749-1.754-1.763-1.806-1.805-2.226-1.805a.95.95 0 0 0-.42.095"/></svg>