<svg xmlns="http://www.w3.org/2000/svg" width="24" height="24" fill="none" stroke="currentColor" stroke-linecap="round" stroke-linejoin="round" stroke-width="2"><path fill="#000" fill-rule="evenodd" stroke="none" d="M6.499 3.043c-1.11.188-2.02.99-2.383 2.097-.086.265-.092.353-.107 1.644l-.015 1.364-.327.167a3.1 3.1 0 0 0-1.553 1.845l-.094.3v6.08l.094.3c.25.801.815 1.475 1.546 1.844l.32.161.02.731c.02.728.02.731.141.927a.998.998 0 0 0 1.718 0c.12-.195.121-.203.134-.85L6.007 19h11.986l.014.653c.013.647.014.655.134.85a.998.998 0 0 0 1.718 0c.121-.196.121-.199.141-.927l.02-.731.32-.161a3.1 3.1 0 0 0 1.546-1.844l.094-.3v-6.08l-.094-.3a3.1 3.1 0 0 0-1.553-1.845l-.327-.167-.015-1.364c-.015-1.291-.021-1.379-.107-1.644a3.11 3.11 0 0 0-2.023-2.019l-.321-.101-5.42-.006c-2.981-.003-5.511.01-5.621.029M17.31 5.061a.9.9 0 0 1 .387.242c.284.284.303.392.303 1.717v1.125l-.33.168a3.12 3.12 0 0 0-1.552 1.827c-.076.239-.092.396-.108 1.07l-.019.79H8.009l-.019-.79c-.016-.674-.032-.831-.108-1.07A3.12 3.12 0 0 0 6.33 8.313L6 8.145V7.02c0-1.325.019-1.433.304-1.717.317-.318-.07-.297 5.679-.3 4.475-.003 5.148.005 5.327.058M5.308 10.06c.13.039.263.119.371.223.287.279.297.323.32 1.517.021 1.058.021 1.06.134 1.304.143.309.452.617.767.764l.24.112h9.72l.24-.112c.315-.147.624-.455.767-.764.113-.244.113-.246.134-1.304.023-1.194.033-1.238.32-1.517.169-.163.456-.283.679-.283.402 0 .827.312.939.69.086.289.092 5.316.006 5.6a1.02 1.02 0 0 1-.461.582l-.184.108H4.7l-.184-.108a1.2 1.2 0 0 1-.291-.249c-.229-.3-.225-.245-.225-3.101 0-2.993-.008-2.908.304-3.219q.417-.418 1.004-.243"/></svg>