<svg xmlns="http://www.w3.org/2000/svg" width="24" height="24" fill="none" stroke="currentColor" stroke-linecap="round" stroke-linejoin="round" stroke-width="2"><path fill="#000" fill-rule="evenodd" stroke="none" d="M11.64 4.068c-.156.053-.662.542-3.793 3.667-2.076 2.071-3.658 3.682-3.72 3.785-.091.152-.107.226-.107.48s.016.328.107.48c.062.103 1.644 1.714 3.72 3.785 3.44 3.433 3.623 3.609 3.828 3.675a1 1 0 0 0 1.268-.61c.041-.115.054-.516.055-1.738L13 16.005l1.15-.013 1.15-.012.192-.113c.218-.128.409-.369.469-.591.027-.099.037-1.271.03-3.364L15.98 8.7l-.108-.184a1.2 1.2 0 0 0-.254-.295C15.356 8.022 15.203 8 14.054 8H13V6.427c0-1.794-.004-1.825-.303-2.124a.99.99 0 0 0-1.057-.235m-.509 5.421c.061.103.173.236.25.294.262.2.357.213 1.529.215L14 10v4h-1.054c-1.149 0-1.302.022-1.564.221-.08.061-.195.194-.254.295-.107.182-.108.192-.128 1.114l-.02.931L8.7 14.28 6.42 12 8.7 9.72l2.28-2.281.02.931c.02.928.02.93.131 1.119m7.564-1.432a1.04 1.04 0 0 0-.567.459l-.108.184v6.606l.121.197a.998.998 0 0 0 1.718 0l.121-.197V8.7l-.108-.184a1.005 1.005 0 0 0-1.177-.459"/></svg>