<svg xmlns="http://www.w3.org/2000/svg" width="24" height="24" fill="none" stroke="currentColor" stroke-linecap="round" stroke-linejoin="round" stroke-width="2"><path fill="#000" fill-rule="evenodd" stroke="none" d="M2.695 4.057a1.04 1.04 0 0 0-.567.459L2.02 4.7v14.606l.121.197a.998.998 0 0 0 1.718 0l.121-.197V4.7l-.108-.184a1.005 1.005 0 0 0-1.177-.459M14.67 5.061c-.222.081-.42.248-.542.455-.092.156-.108.229-.107.484 0 .212.022.341.074.44.04.077 1.066 1.135 2.279 2.35L18.579 11h-5.843c-4.835 0-5.875.009-6.026.055a1.02 1.02 0 0 0-.582.461c-.091.156-.108.23-.108.484 0 .256.016.328.111.489.125.213.318.375.539.454.123.044 1.222.054 6.03.055l5.879.002-2.205 2.21c-1.213 1.216-2.239 2.273-2.279 2.35-.052.099-.074.228-.074.44-.001.258.015.327.112.492.13.222.369.409.603.473.202.054.53.024.709-.066.074-.037 1.536-1.465 3.249-3.173 3.382-3.373 3.305-3.286 3.305-3.726s.08-.35-3.325-3.745c-2.855-2.846-3.152-3.13-3.331-3.19a1 1 0 0 0-.673-.004"/></svg>