<svg xmlns="http://www.w3.org/2000/svg" width="24" height="24" fill="none" stroke="currentColor" stroke-linecap="round" stroke-linejoin="round" stroke-width="2"><path fill="#000" fill-rule="evenodd" stroke="none" d="M11.695 2.057a1.04 1.04 0 0 0-.567.459l-.108.184-.011 5.938-.01 5.939-2.23-2.223c-2.014-2.008-2.248-2.23-2.426-2.289a1 1 0 0 0-1.215.451c-.092.156-.108.229-.107.484 0 .212.022.341.074.44.04.077 1.471 1.541 3.179 3.254 3.373 3.382 3.286 3.305 3.726 3.305s.353.077 3.726-3.305c1.708-1.713 3.139-3.177 3.179-3.254.052-.099.074-.228.074-.44.001-.255-.015-.328-.107-.484a1 1 0 0 0-1.215-.451c-.178.059-.412.281-2.426 2.289l-2.23 2.223-.01-5.939L12.98 2.7l-.108-.184a1.005 1.005 0 0 0-1.177-.459m-7 18a1.04 1.04 0 0 0-.567.459c-.091.156-.108.23-.108.484 0 .256.016.328.111.489.125.213.318.375.539.454.223.079 14.437.079 14.66 0 .221-.079.414-.241.539-.454.095-.161.111-.233.111-.489 0-.254-.017-.328-.108-.484a1.02 1.02 0 0 0-.582-.461c-.263-.079-14.343-.077-14.595.002"/></svg>