<svg xmlns="http://www.w3.org/2000/svg" width="24" height="24" fill="none" stroke="currentColor" stroke-linecap="round" stroke-linejoin="round" stroke-width="2"><path fill="#000" fill-rule="evenodd" stroke="none" d="M6.695 3.057a1.04 1.04 0 0 0-.567.459L6.02 3.7l-.01 6.938-.011 6.937-1.229-1.221c-1.082-1.075-1.254-1.23-1.427-1.288a1 1 0 0 0-1.215.45c-.092.156-.108.229-.107.484 0 .212.022.341.074.44.04.077 1.021 1.091 2.179 2.254C6.567 20.996 6.571 20.999 7 20.999s.433-.003 2.726-2.305c1.158-1.163 2.139-2.177 2.179-2.254.052-.099.074-.228.074-.44.001-.255-.015-.328-.107-.484a1 1 0 0 0-1.215-.45c-.173.058-.345.213-1.427 1.288l-1.229 1.221-.011-6.937L7.98 3.7l-.108-.184a1.005 1.005 0 0 0-1.177-.459m8 0c-.644.201-.896.983-.497 1.534.065.09.205.214.31.276l.192.113 1.575.02 1.575.02-1.847 2.217c-1.017 1.219-1.876 2.27-1.909 2.335-.175.339-.085.839.204 1.128.309.309.213.3 3.219.298 2.12-.001 2.694-.012 2.813-.055.221-.079.414-.241.539-.454.095-.161.111-.233.111-.489 0-.254-.017-.328-.108-.484a1.15 1.15 0 0 0-.499-.446c-.081-.036-.552-.055-1.668-.07l-1.555-.02 1.864-2.237c2.034-2.44 2.018-2.418 1.974-2.85a.98.98 0 0 0-.698-.838c-.259-.078-5.346-.076-5.595.002m2.178 10.003a3.54 3.54 0 0 0-1.915 1.045c-.397.42-.64.845-.827 1.443l-.11.352v2.203l-.001 2.203.121.197a.998.998 0 0 0 1.718 0c.12-.195.121-.203.134-.85l.014-.653h2.986l.014.653c.013.647.014.655.134.85a.998.998 0 0 0 1.718 0l.121-.197.011-2.023c.008-1.26-.004-2.124-.03-2.291a3.54 3.54 0 0 0-2.583-2.874c-.419-.109-1.098-.135-1.505-.058m1.246 2.083c.298.136.609.449.743.749.089.198.112.318.129.674l.02.434h-3.022l.02-.435c.017-.359.04-.477.128-.67.189-.416.614-.766 1.037-.856.267-.057.696-.009.945.104"/></svg>