<svg xmlns="http://www.w3.org/2000/svg" width="24" height="24" fill="none" stroke="currentColor" stroke-linecap="round" stroke-linejoin="round" stroke-width="2"><path fill="#000" fill-rule="evenodd" stroke="none" d="M20.695 4.057a1.04 1.04 0 0 0-.567.459l-.108.184v14.606l.121.197a.998.998 0 0 0 1.718 0l.121-.197V4.7l-.108-.184a1.005 1.005 0 0 0-1.177-.459M8.64 5.068c-.155.053-.607.488-3.314 3.187C1.921 11.65 2.001 11.56 2.001 12s-.077.353 3.305 3.726c1.713 1.708 3.175 3.136 3.249 3.173.455.229 1.046.045 1.312-.407.097-.165.113-.234.112-.492 0-.212-.022-.341-.074-.44-.04-.077-1.066-1.135-2.279-2.35L5.421 13l5.879-.002c4.808-.001 5.907-.011 6.03-.055.221-.079.414-.241.539-.454.095-.161.111-.233.111-.489 0-.254-.017-.328-.108-.484a1.02 1.02 0 0 0-.582-.461c-.151-.046-1.191-.055-6.026-.055H5.421l2.205-2.21c1.213-1.215 2.239-2.273 2.279-2.35.052-.099.074-.228.074-.44.001-.255-.015-.328-.107-.484a1.016 1.016 0 0 0-1.232-.448"/></svg>