<svg xmlns="http://www.w3.org/2000/svg" width="24" height="24" fill="none" stroke="currentColor" stroke-linecap="round" stroke-linejoin="round" stroke-width="2"><path fill="#000" fill-rule="evenodd" stroke="none" d="M6.58 3.096c-.158.076-.64.538-2.306 2.21-1.158 1.163-2.136 2.175-2.173 2.249-.229.455-.045 1.046.407 1.312.165.097.234.113.492.112.213 0 .341-.022.44-.074.077-.041.684-.616 1.35-1.278l1.209-1.204.011 6.941.01 6.942.121.197a.998.998 0 0 0 1.718 0l.121-.197.01-6.942.011-6.941L9.21 7.627c.666.662 1.273 1.237 1.35 1.278.099.052.227.074.44.074.258.001.327-.015.492-.112.222-.13.409-.369.473-.603a1.2 1.2 0 0 0-.066-.709c-.037-.074-1.015-1.086-2.173-2.249C7.433 3.004 7.429 3.001 7 3.001a.95.95 0 0 0-.42.095m10.293-.036a3.54 3.54 0 0 0-1.915 1.045c-.397.42-.64.845-.827 1.443l-.11.352v2.203l-.001 2.203.121.197a.998.998 0 0 0 1.718 0c.12-.195.121-.203.134-.85L16.007 9h2.986l.014.653c.013.647.014.655.134.85a.998.998 0 0 0 1.718 0l.121-.197.011-2.023c.008-1.26-.004-2.124-.03-2.291a3.54 3.54 0 0 0-2.583-2.874c-.419-.109-1.098-.135-1.505-.058m1.246 2.083c.298.136.609.449.743.749.089.198.112.318.129.674l.02.434h-3.022l.02-.435c.017-.359.04-.477.128-.67.189-.416.614-.766 1.037-.856.267-.057.696-.009.945.104m-3.424 7.914c-.644.201-.896.983-.497 1.534.065.09.205.214.31.276l.192.113 1.575.02 1.575.02-1.847 2.217c-1.017 1.219-1.876 2.27-1.909 2.335-.175.339-.085.839.204 1.128.309.309.213.3 3.219.298 2.12-.001 2.694-.012 2.813-.055.221-.079.414-.241.539-.454.095-.161.111-.233.111-.489 0-.254-.017-.328-.108-.484a1.15 1.15 0 0 0-.499-.446c-.081-.036-.552-.055-1.668-.07l-1.555-.02 1.864-2.237c2.034-2.44 2.018-2.418 1.974-2.85a.98.98 0 0 0-.698-.838c-.259-.078-5.346-.076-5.595.002"/></svg>