<svg xmlns="http://www.w3.org/2000/svg" width="24" height="24" fill="none" stroke="currentColor" stroke-linecap="round" stroke-linejoin="round" stroke-width="2"><path fill="#000" fill-rule="evenodd" stroke="none" d="M11.64 4.068c-.156.053-.66.541-3.846 3.727-3.496 3.496-3.668 3.675-3.735 3.88-.17.531.096 1.084.611 1.268.115.041.517.054 1.739.055L7.998 13l.011 2.65.011 2.65.111.189c.125.213.318.375.539.454s6.439.079 6.66 0 .414-.241.539-.454l.111-.189.011-2.65.011-2.65h1.574c1.707 0 1.76-.006 2.047-.225.077-.059.19-.19.249-.291.091-.156.108-.23.108-.484s-.016-.328-.107-.48c-.062-.103-1.644-1.713-3.72-3.785-3.302-3.294-3.63-3.61-3.81-3.67a1.05 1.05 0 0 0-.703.003M14.3 8.72 16.58 11h-.844c-.924 0-1.102.029-1.354.221-.08.061-.195.194-.254.295l-.108.184-.011 2.65-.011 2.65h-3.996l-.011-2.65-.011-2.65-.108-.184a1.2 1.2 0 0 0-.254-.295c-.252-.192-.43-.221-1.354-.221H7.42L9.7 8.72A188 188 0 0 1 12 6.44c.011 0 1.046 1.026 2.3 2.28"/></svg>