<svg xmlns="http://www.w3.org/2000/svg" width="24" height="24" fill="none" stroke="currentColor" stroke-linecap="round" stroke-linejoin="round" stroke-width="2"><path fill="#000" fill-rule="evenodd" stroke="none" d="M11.695 4.055a1.05 1.05 0 0 0-.567.461l-.108.184-.012 1.65L10.997 8H8.445c-2.769 0-2.773 0-3.063.221-.08.061-.195.194-.254.295L5.02 8.7v6.6l.111.189c.125.213.318.375.539.454.119.043.681.054 2.74.055L11 16v1.575c0 1.708.006 1.761.225 2.048.059.077.19.19.291.249.156.092.229.108.484.107.212 0 .341-.022.44-.074.192-.1 7.297-7.198 7.433-7.425.091-.152.107-.226.107-.48s-.016-.328-.107-.48c-.156-.261-7.25-7.328-7.446-7.417a1.16 1.16 0 0 0-.732-.048M15.3 14.28l-2.28 2.281-.02-.931c-.02-.922-.021-.932-.128-1.114a1.2 1.2 0 0 0-.254-.295C12.328 14 12.325 14 9.554 14H7v-4l2.59-.002c2.059-.001 2.621-.012 2.74-.055.221-.079.414-.241.539-.454l.111-.189.013-.937.012-.937 2.288 2.287L17.58 12z"/></svg>