<svg xmlns="http://www.w3.org/2000/svg" width="24" height="24" fill="none" stroke="currentColor" stroke-linecap="round" stroke-linejoin="round" stroke-width="2"><path fill="#000" fill-rule="evenodd" stroke="none" d="M6.58 2.096c-.156.075-.551.449-1.806 1.71-.883.888-1.639 1.677-1.679 1.754-.052.099-.074.228-.074.44-.001.258.015.327.112.492.13.222.369.409.603.473.203.054.531.024.709-.066.074-.038.454-.385.844-.772l.71-.703.01 5.941.011 5.941.121.197a.998.998 0 0 0 1.718 0l.121-.197.011-5.941.01-5.941.71.703c.39.387.772.737.849.777.1.053.227.075.44.075.258.001.327-.015.492-.112.222-.13.409-.369.473-.603a1.2 1.2 0 0 0-.066-.709c-.037-.074-.79-.861-1.673-1.749-1.255-1.261-1.65-1.635-1.806-1.71a.97.97 0 0 0-.84 0m10 0c-.156.075-.551.449-1.806 1.71-.883.888-1.639 1.677-1.679 1.754-.052.099-.074.228-.074.44-.001.258.015.327.112.492.13.222.369.409.603.473.203.054.531.024.709-.066.074-.038.454-.385.844-.772l.71-.703.01 5.941.011 5.941.121.197a.998.998 0 0 0 1.718 0l.121-.197.011-5.941.01-5.941.71.703c.39.387.772.737.849.777.1.053.227.075.44.075.258.001.327-.015.492-.112.222-.13.409-.369.473-.603a1.2 1.2 0 0 0-.066-.709c-.037-.074-.79-.861-1.673-1.749-1.255-1.261-1.65-1.635-1.806-1.71a.97.97 0 0 0-.84 0M3.695 20.057a1.04 1.04 0 0 0-.567.459c-.091.156-.108.23-.108.484 0 .256.016.328.111.489.125.213.318.375.539.454.223.079 16.437.079 16.66 0 .221-.079.414-.241.539-.454.095-.161.111-.233.111-.489 0-.254-.017-.328-.108-.484a1.02 1.02 0 0 0-.582-.461c-.263-.079-16.343-.077-16.595.002"/></svg>