<svg xmlns="http://www.w3.org/2000/svg" width="24" height="24" fill="none" stroke="currentColor" stroke-linecap="round" stroke-linejoin="round" stroke-width="2"><path fill="#000" fill-rule="evenodd" stroke="none" d="M11.58 2.096c-.16.077-.818.716-3.306 3.21C6.566 7.019 5.135 8.483 5.095 8.56c-.052.099-.074.228-.074.44-.001.258.015.327.112.492.13.222.369.409.603.473.203.054.531.024.709-.066.074-.037 1.129-1.059 2.344-2.272l2.21-2.205.01 5.942.011 5.942.121.197a.998.998 0 0 0 1.718 0l.121-.197.011-5.942.01-5.942 2.21 2.205c1.215 1.213 2.27 2.235 2.344 2.272.455.229 1.046.045 1.312-.407.097-.165.113-.234.112-.492 0-.212-.022-.341-.074-.44-.04-.077-1.471-1.541-3.179-3.254C12.353 1.924 12.44 2.001 12 2.001a.95.95 0 0 0-.42.095M4.695 20.057a1.04 1.04 0 0 0-.567.459c-.091.156-.108.23-.108.484 0 .256.016.328.111.489.125.213.318.375.539.454.223.079 14.437.079 14.66 0 .221-.079.414-.241.539-.454.095-.161.111-.233.111-.489 0-.254-.017-.328-.108-.484a1.02 1.02 0 0 0-.582-.461c-.263-.079-14.343-.077-14.595.002"/></svg>