<svg xmlns="http://www.w3.org/2000/svg" width="24" height="24" fill="none" stroke="currentColor" stroke-linecap="round" stroke-linejoin="round" stroke-width="2"><path fill="#000" fill-rule="evenodd" stroke="none" d="M11.695 4.055a1.05 1.05 0 0 0-.567.461l-.108.184-.012 1.65L10.997 8H9.945c-1.148 0-1.302.022-1.563.221-.08.061-.195.194-.254.295L8.02 8.7l-.011 3.212c-.007 2.093.003 3.265.03 3.364.06.222.251.463.469.591l.192.113 1.15.012 1.15.013v1.572c0 1.706.006 1.759.225 2.046.059.077.19.19.291.249.156.092.229.108.484.107.212 0 .341-.022.44-.074.192-.1 7.297-7.198 7.433-7.425.091-.152.107-.226.107-.48s-.016-.328-.107-.48c-.156-.261-7.25-7.328-7.446-7.417a1.16 1.16 0 0 0-.732-.048M15.3 14.28l-2.28 2.281-.02-.931c-.02-.922-.021-.932-.128-1.114a1.2 1.2 0 0 0-.254-.295c-.262-.199-.415-.221-1.564-.221H10v-4l1.09-.002c1.172-.002 1.267-.015 1.529-.215.077-.058.189-.191.25-.294l.111-.189.013-.937.012-.937 2.288 2.287L17.58 12zM4.695 8.057a1.04 1.04 0 0 0-.567.459L4.02 8.7v6.606l.121.197a.998.998 0 0 0 1.718 0l.121-.197V8.7l-.108-.184a1.005 1.005 0 0 0-1.177-.459"/></svg>