<svg xmlns="http://www.w3.org/2000/svg" width="24" height="24" fill="none" stroke="currentColor" stroke-linecap="round" stroke-linejoin="round" stroke-width="2"><path fill="#000" fill-rule="evenodd" stroke="none" d="M11.695 1.057a1.04 1.04 0 0 0-.567.459l-.108.184-.011 5.939-.01 5.938-2.73-2.723C5.79 8.38 5.522 8.125 5.343 8.065a1 1 0 0 0-1.215.451c-.092.156-.108.229-.107.484 0 .212.022.341.074.44.04.077 1.696 1.766 3.679 3.754 3.914 3.923 3.783 3.805 4.226 3.805s.312.118 4.226-3.805c1.983-1.988 3.639-3.677 3.679-3.754.052-.099.074-.228.074-.44.001-.255-.015-.328-.107-.484a1 1 0 0 0-1.215-.451c-.179.06-.447.315-2.926 2.789l-2.73 2.723-.01-5.938L12.98 1.7l-.108-.184a1.005 1.005 0 0 0-1.177-.459m-.218 18.016c-.671.176-1.239.75-1.417 1.435a2.07 2.07 0 0 0 .165 1.422c.136.269.576.709.845.845a2.05 2.05 0 0 0 1.86 0c.266-.135.708-.575.841-.838a2.05 2.05 0 0 0 .169-1.408 1.8 1.8 0 0 0-.475-.876A1.97 1.97 0 0 0 12 19.005c-.143 0-.378.031-.523.068"/></svg>