<svg xmlns="http://www.w3.org/2000/svg" width="24" height="24" fill="none" stroke="currentColor" stroke-linecap="round" stroke-linejoin="round" stroke-width="2"><path fill="#000" fill-rule="evenodd" stroke="none" d="M11.64 4.068c-.156.053-.662.542-3.793 3.667-2.076 2.071-3.658 3.682-3.72 3.785-.091.152-.107.226-.107.48s.016.328.107.48c.062.103 1.644 1.714 3.72 3.785 3.44 3.433 3.623 3.609 3.828 3.675a1 1 0 0 0 1.268-.61c.041-.115.054-.517.055-1.74L13 16l2.59-.002c2.059-.001 2.621-.012 2.74-.055.221-.079.414-.241.539-.454l.111-.189V8.7l-.108-.184a1.2 1.2 0 0 0-.254-.295C18.328 8 18.325 8 15.554 8H13V6.427c0-1.794-.004-1.825-.303-2.124a.99.99 0 0 0-1.057-.235m-.509 5.421c.125.213.318.375.539.454.119.043.681.054 2.74.055L17 10v4h-2.554c-2.771 0-2.774 0-3.064.221-.08.061-.195.194-.254.295-.107.182-.108.192-.128 1.114l-.02.931L8.7 14.28 6.42 12 8.7 9.72l2.28-2.281.02.931c.02.928.02.93.131 1.119"/></svg>