<svg xmlns="http://www.w3.org/2000/svg" width="24" height="24" fill="none" stroke="currentColor" stroke-linecap="round" stroke-linejoin="round" stroke-width="2"><path fill="#000" fill-rule="evenodd" stroke="none" d="M8.695 4.057a1.04 1.04 0 0 0-.567.459c-.091.156-.108.23-.108.484 0 .256.016.328.111.489.125.213.318.375.539.454s6.439.079 6.66 0 .414-.241.539-.454c.095-.161.111-.233.111-.489 0-.254-.017-.328-.108-.484a1.02 1.02 0 0 0-.582-.461c-.26-.078-6.345-.076-6.595.002m0 4a1.04 1.04 0 0 0-.567.459L8.02 8.7l-.012 1.15L7.995 11H6.448c-1.007 0-1.604.016-1.707.045a1.1 1.1 0 0 0-.61.466c-.095.161-.111.233-.111.489 0 .254.016.328.107.48.136.227 7.241 7.325 7.433 7.425.099.052.228.074.44.074.255.001.327-.015.48-.106.103-.062 1.714-1.644 3.785-3.72 3.433-3.44 3.609-3.623 3.675-3.828.133-.411.003-.856-.322-1.104-.276-.21-.376-.221-2.062-.221h-1.551l-.013-1.15-.012-1.15-.108-.184a1.02 1.02 0 0 0-.582-.461c-.26-.078-6.345-.076-6.595.002m5.307 3.033c.002 1.172.015 1.267.215 1.529.058.077.191.189.294.25.189.111.191.111 1.119.131l.931.02-2.281 2.28L12 17.58 9.72 15.3l-2.281-2.28.931-.02c.928-.02.93-.02 1.119-.131.103-.061.236-.173.294-.25.2-.262.213-.357.215-1.529L10 10h4z"/></svg>