<svg xmlns="http://www.w3.org/2000/svg" width="24" height="24" fill="none" stroke="currentColor" stroke-linecap="round" stroke-linejoin="round" stroke-width="2"><path fill="#000" fill-rule="evenodd" stroke="none" d="M6.695 3.057a1.04 1.04 0 0 0-.567.459L6.02 3.7l-.01 6.938-.011 6.937-1.229-1.221c-1.082-1.075-1.254-1.23-1.427-1.288a1 1 0 0 0-1.215.45c-.092.156-.108.229-.107.484 0 .212.022.341.074.44.04.077 1.021 1.091 2.179 2.254C6.567 20.996 6.571 20.999 7 20.999s.433-.003 2.726-2.305c1.158-1.163 2.139-2.177 2.179-2.254.052-.099.074-.228.074-.44.001-.255-.015-.328-.107-.484a1 1 0 0 0-1.215-.45c-.173.058-.345.213-1.427 1.288l-1.229 1.221-.011-6.937L7.98 3.7l-.108-.184a1.005 1.005 0 0 0-1.177-.459m4 0a1.04 1.04 0 0 0-.567.459c-.091.156-.108.23-.108.484 0 .256.016.328.111.489.125.213.318.375.539.454.219.078 4.441.078 4.66 0 .221-.079.414-.241.539-.454.095-.161.111-.233.111-.489 0-.254-.017-.328-.108-.484a1.02 1.02 0 0 0-.582-.461c-.257-.077-4.347-.076-4.595.002m0 4a1.04 1.04 0 0 0-.567.459c-.091.156-.108.23-.108.484 0 .256.016.328.111.489.125.213.318.375.539.454s7.439.079 7.66 0 .414-.241.539-.454c.095-.161.111-.233.111-.489 0-.254-.017-.328-.108-.484a1.02 1.02 0 0 0-.582-.461c-.26-.078-7.345-.076-7.595.002m0 4a1.04 1.04 0 0 0-.567.459c-.091.156-.108.23-.108.484 0 .256.016.328.111.489.125.213.318.375.539.454s10.438.079 10.66 0 .414-.241.539-.454c.095-.161.111-.233.111-.489 0-.254-.017-.328-.108-.484a1.02 1.02 0 0 0-.582-.461c-.262-.079-10.344-.077-10.595.002"/></svg>