<svg xmlns="http://www.w3.org/2000/svg" width="24" height="24" fill="none" stroke="currentColor" stroke-linecap="round" stroke-linejoin="round" stroke-width="2"><path fill="#000" fill-rule="evenodd" stroke="none" d="M8.695 5.057a1.04 1.04 0 0 0-.567.459L8.02 5.7l-.011 2.65L7.998 11H6.449c-1.008 0-1.605.016-1.708.045a1.1 1.1 0 0 0-.61.466c-.095.161-.111.233-.111.489 0 .254.016.328.107.48.136.227 7.241 7.325 7.433 7.425.099.052.228.074.44.074.255.001.327-.015.48-.106.103-.062 1.714-1.644 3.785-3.72 3.433-3.44 3.609-3.623 3.675-3.828.133-.411.003-.856-.322-1.104-.276-.21-.376-.221-2.063-.221h-1.553l-.011-2.65-.011-2.65-.108-.184a1.02 1.02 0 0 0-.582-.461c-.26-.078-6.345-.076-6.595.002m5.307 4.533c.001 2.059.012 2.621.055 2.74.079.221.241.414.454.539.189.111.191.111 1.119.131l.931.02-2.281 2.28L12 17.58 9.72 15.3l-2.281-2.28.931-.02c.928-.02.93-.02 1.119-.131.213-.125.375-.318.454-.539.043-.119.054-.681.055-2.74L10 7h4z"/></svg>