<svg xmlns="http://www.w3.org/2000/svg" width="24" height="24" fill="none" stroke="currentColor" stroke-linecap="round" stroke-linejoin="round" stroke-width="2"><path fill="#000" fill-rule="evenodd" stroke="none" d="M11.695 5.057a1.04 1.04 0 0 0-.567.459l-.108.184-.011 2.274c-.01 1.92-.02 2.27-.067 2.252-.031-.011-.881-.497-1.889-1.08-1.008-.582-1.914-1.08-2.013-1.106-.484-.13-1.009.156-1.18.641a.99.99 0 0 0 .213.992c.089.089.9.582 2.018 1.227 1.028.593 1.869 1.089 1.869 1.102s-.841.508-1.869 1.101c-1.097.632-1.93 1.138-2.018 1.225-.155.154-.273.453-.273.692 0 .643.703 1.138 1.312.923.09-.032.991-.536 2.003-1.12a103 103 0 0 1 1.861-1.063c.012 0 .027 1.023.033 2.273l.011 2.273.121.197a.998.998 0 0 0 1.718 0l.121-.197.011-2.273c.006-1.25.021-2.273.032-2.273s.849.478 1.862 1.063c1.013.584 1.914 1.088 2.003 1.12.609.215 1.312-.28 1.312-.923 0-.239-.118-.538-.273-.692-.088-.087-.921-.593-2.018-1.225-1.028-.593-1.869-1.088-1.869-1.101s.841-.509 1.87-1.103c1.108-.639 1.93-1.139 2.018-1.227a.99.99 0 0 0 .212-.991c-.171-.485-.696-.771-1.18-.641-.099.026-1.005.524-2.013 1.106a115 115 0 0 1-1.889 1.08c-.047.018-.057-.332-.067-2.252L12.98 5.7l-.108-.184a1.005 1.005 0 0 0-1.177-.459"/></svg>