<svg xmlns="http://www.w3.org/2000/svg" width="24" height="24" fill="none" stroke="currentColor" stroke-linecap="round" stroke-linejoin="round" stroke-width="2"><path fill="#000" fill-rule="evenodd" stroke="none" d="M11.043 1.042A11.1 11.1 0 0 0 5.928 2.84c-.73.486-1.204.882-1.849 1.545-2.81 2.89-3.79 7.14-2.539 11.009.546 1.689 1.397 3.067 2.698 4.369 1.751 1.752 3.756 2.755 6.282 3.143.578.088 2.134.1 2.76.021 1.625-.207 3.187-.752 4.506-1.575.935-.584 1.157-.814 1.202-1.246a.99.99 0 0 0-.835-1.087c-.337-.049-.477.003-1.08.406-2.382 1.588-5.095 1.983-7.813 1.138-1.953-.608-3.718-1.966-4.832-3.716C3.483 15.36 3.024 13.776 3.024 12c0-1.484.29-2.724.947-4.039a9 9 0 0 1 6.152-4.754c.7-.148 1.085-.185 1.897-.185.907.001 1.402.063 2.241.279 2.305.595 4.254 2.065 5.488 4.139a8.8 8.8 0 0 1 1.154 3.296c.082.565.122 2.244.062 2.604a1.9 1.9 0 0 1-.562 1.064c-.401.403-.856.596-1.403.596a2 2 0 0 1-1.688-.937c-.301-.466-.287-.312-.311-3.503L16.98 7.7l-.109-.186a1.01 1.01 0 0 0-1.085-.479c-.392.088-.708.413-.768.791l-.027.167-.266-.172c-.73-.47-1.379-.696-2.255-.785a5.1 5.1 0 0 0-2.222.284 5.1 5.1 0 0 0-2.722 2.465c-.368.748-.506 1.351-.506 2.215 0 .67.058 1.044.248 1.6.578 1.691 1.985 2.925 3.772 3.307.471.101 1.449.101 1.92 0a5.1 5.1 0 0 0 2.521-1.332l.26-.254.18.226c.098.124.31.338.471.476 2.085 1.786 5.287 1.007 6.312-1.535.075-.188.175-.522.22-.744.077-.372.082-.498.064-1.604-.022-1.345-.086-1.899-.326-2.836-.517-2.016-1.519-3.739-3.027-5.206a10.6 10.6 0 0 0-2.771-1.954 10.6 10.6 0 0 0-3.439-1.045c-.544-.075-1.869-.107-2.382-.057m1.818 8.087c.943.276 1.723 1.054 2.014 2.01.083.273.098.403.098.861s-.015.588-.098.861a3.07 3.07 0 0 1-2.035 2.025c-.434.135-1.246.135-1.68 0a3.07 3.07 0 0 1-2.035-2.025c-.083-.273-.098-.403-.098-.861s.015-.588.098-.861a3.04 3.04 0 0 1 2.374-2.099c.333-.06 1.001-.017 1.362.089"/></svg>