<svg xmlns="http://www.w3.org/2000/svg" width="24" height="24" fill="none" stroke="currentColor" stroke-linecap="round" stroke-linejoin="round" stroke-width="2"><path fill="#000" fill-rule="evenodd" stroke="none" d="M5.404 2.046C3.229 2.273 1.891 3.96 2.013 6.32c.081 1.574.796 3.605 1.911 5.426l.153.251-.152.251c-.998 1.646-1.674 3.418-1.864 4.884-.41 3.169 1.516 5.167 4.651 4.826 1.433-.156 3.257-.825 4.879-1.791l.412-.244.261.159c1.809 1.108 3.834 1.82 5.415 1.904 2.845.153 4.598-1.773 4.279-4.698-.157-1.433-.827-3.259-1.79-4.878l-.244-.41.244-.41c.963-1.619 1.633-3.445 1.79-4.878.199-1.827-.389-3.282-1.654-4.091-1.356-.867-3.431-.803-5.824.181-.569.234-1.571.734-2.11 1.053l-.37.22-.37-.22a20 20 0 0 0-2.25-1.108c-1.515-.602-2.786-.826-3.976-.701m1.635 2.072c.795.154 1.64.46 2.611.947.281.141.51.262.51.27s-.203.176-.45.372A26.4 26.4 0 0 0 5.763 9.64a31 31 0 0 1-.404.495c-.04.042-.475-.814-.73-1.435-.716-1.741-.814-3.296-.254-4.03.465-.61 1.383-.8 2.664-.552M18.737 4.1c.861.227 1.24.826 1.238 1.96-.002 1.053-.334 2.184-1.072 3.655-.126.25-.244.439-.262.42a31 31 0 0 1-.404-.495 26.5 26.5 0 0 0-3.947-3.933 7 7 0 0 1-.45-.372c0-.03 1.038-.533 1.463-.708a8.8 8.8 0 0 1 2.237-.603c.227-.033.96.014 1.197.076m-6.425 2.607a24.2 24.2 0 0 1 4.983 4.983l.228.31-.228.31a23.8 23.8 0 0 1-4.767 4.819l-.531.4-.529-.401a23.8 23.8 0 0 1-4.763-4.818L6.477 12l.228-.31c1.242-1.684 2.872-3.356 4.484-4.599.698-.538.789-.607.803-.609.007-.001.151.1.32.225m-.835 3.366c-.671.176-1.239.75-1.417 1.435a2.07 2.07 0 0 0 .165 1.422c.136.269.576.709.845.845a2.05 2.05 0 0 0 1.86 0c.266-.135.708-.575.841-.838a2.05 2.05 0 0 0 .169-1.408 1.8 1.8 0 0 0-.475-.876A1.97 1.97 0 0 0 12 10.005c-.143 0-.378.031-.523.068M5.763 14.36a26.5 26.5 0 0 0 3.942 3.931c.25.2.44.38.422.398-.063.063-1.026.519-1.507.713-1.902.77-3.48.786-4.152.042-.325-.36-.445-.767-.442-1.504.003-1.047.329-2.173 1.042-3.595.142-.283.273-.499.291-.48s.2.242.404.495m13.142-.07c.736 1.466 1.068 2.598 1.07 3.65.001.738-.118 1.144-.443 1.504-.672.744-2.251.728-4.152-.042-.52-.21-1.487-.668-1.518-.718-.01-.017.185-.195.435-.395a26.7 26.7 0 0 0 3.993-3.994c.201-.25.371-.455.377-.455s.114.203.238.45"/></svg>