<svg xmlns="http://www.w3.org/2000/svg" width="24" height="24" fill="none" stroke="currentColor" stroke-linecap="round" stroke-linejoin="round" stroke-width="2"><path fill="#000" fill-rule="evenodd" stroke="none" d="M13.499 1.04c-1.125.204-2.011.984-2.385 2.1l-.094.28-.02 8.42c-.016 6.618-.031 8.444-.07 8.533a1.15 1.15 0 0 1-.446.499c-.156.091-.23.108-.484.108s-.328-.017-.484-.108a1.15 1.15 0 0 1-.446-.499c-.039-.089-.054-1.616-.07-7.033l-.02-6.92-.094-.28c-.33-.984-1.075-1.726-2.025-2.015-.273-.083-.403-.098-.861-.098s-.588.015-.861.098c-.95.29-1.7 1.036-2.024 2.015-.091.277-.092.308-.114 2.7-.016 1.801-.034 2.449-.071 2.533-.162.366-.452.569-.896.625a2.6 2.6 0 0 0-.409.08 1.1 1.1 0 0 0-.497.438c-.091.156-.108.23-.108.484 0 .257.016.327.113.492.13.222.369.409.603.473.224.061.783.017 1.127-.088.947-.29 1.699-1.04 2.022-2.017.091-.277.092-.307.114-2.7.024-2.712.008-2.571.322-2.877C5.49 6.12 5.777 6 6 6s.51.12.679.283c.329.32.299-.379.321 7.377l.02 6.92.094.28c.333.991 1.071 1.723 2.046 2.026.434.135 1.246.135 1.68 0 .975-.303 1.713-1.035 2.046-2.026l.094-.28.02-8.42c.022-9.439-.01-8.556.321-8.877C13.49 3.12 13.777 3 14 3s.51.12.679.283c.329.32.299-.379.321 7.377l.02 6.92.094.28c.333.991 1.071 1.723 2.046 2.026.434.135 1.246.135 1.68 0a3.11 3.11 0 0 0 2.045-2.026c.091-.277.092-.307.114-2.7.023-2.692.01-2.566.302-2.859.19-.189.344-.253.727-.302.364-.046.603-.172.774-.408a.993.993 0 0 0-.57-1.553c-.411-.099-1.179.053-1.673.33a3.17 3.17 0 0 0-1.444 1.772c-.091.277-.092.308-.114 2.7-.016 1.801-.034 2.449-.071 2.533a1.15 1.15 0 0 1-.446.499c-.156.091-.23.108-.484.108s-.328-.017-.484-.108a1.15 1.15 0 0 1-.446-.499c-.039-.089-.054-1.616-.07-7.033l-.02-6.92-.094-.28c-.331-.986-1.086-1.737-2.025-2.011-.361-.106-1.029-.149-1.362-.089"/></svg>