<svg xmlns="http://www.w3.org/2000/svg" width="24" height="24" fill="none" stroke="currentColor" stroke-linecap="round" stroke-linejoin="round" stroke-width="2"><path fill="#000" fill-rule="evenodd" stroke="none" d="M11.54 1.023c-1.062.102-1.848.312-2.63.703-2.072 1.036-3.462 2.94-3.836 5.254-.066.413-.066 1.627 0 2.04.248 1.535.914 2.849 1.99 3.926l.366.367-.717 4.013c-.791 4.436-.778 4.329-.57 4.793.132.294.447.603.767.753.196.091.283.107.59.107.303 0 .395-.017.581-.103.121-.057 1.053-.727 2.07-1.489L12 20l1.849 1.387c1.017.762 1.949 1.432 2.07 1.489.185.085.28.102.581.103.309.001.393-.014.59-.107.321-.15.635-.459.767-.753.209-.464.221-.357-.57-4.793l-.717-4.013.366-.367a6.86 6.86 0 0 0 1.637-2.566c.303-.842.404-1.436.404-2.38s-.101-1.538-.404-2.38c-.858-2.383-2.992-4.147-5.471-4.522-.376-.057-1.289-.101-1.562-.075m1.012 2.02a5.01 5.01 0 0 1 4.128 3.205c.412 1.072.405 2.472-.017 3.545-.63 1.602-1.993 2.748-3.703 3.114-.471.101-1.449.101-1.92 0-1.725-.369-3.097-1.533-3.72-3.155-.405-1.053-.405-2.451 0-3.504a5 5 0 0 1 5.232-3.205m-2.28 11.734c.636.159.991.2 1.728.2.93 0 1.637-.121 2.412-.413.215-.081.318-.103.329-.071.023.072 1.019 5.707 1.019 5.771 0 .031-.614-.404-1.364-.966-.77-.578-1.461-1.066-1.588-1.122-.322-.142-.739-.196-1.101-.142-.509.076-.554.103-2.197 1.335-.699.523-1.27.929-1.27.901 0-.06.997-5.71 1.019-5.777.012-.033.109-.012.321.069.167.065.479.161.692.215"/></svg>