<svg xmlns="http://www.w3.org/2000/svg" width="24" height="24" fill="none" stroke="currentColor" stroke-linecap="round" stroke-linejoin="round" stroke-width="2"><path fill="#000" fill-rule="evenodd" stroke="none" d="M12.64 2.068c-.154.053-.489.37-2.293 2.167-1.181 1.176-2.16 2.184-2.22 2.285-.091.153-.107.225-.106.48 0 .213.022.34.075.44.04.077.39.46.778.85l.704.711-4.022 4.029c-2.663 2.667-4.075 4.11-4.176 4.267a3.03 3.03 0 0 0-.487 1.861c.012.232.052.53.088.662.278 1.024 1.175 1.921 2.199 2.199.132.036.43.076.662.088a3.03 3.03 0 0 0 1.861-.487c.157-.101 1.599-1.513 4.265-4.174l4.028-4.021.012 1.438.012 1.437.113.192c.13.221.368.409.603.474.319.088 1.39-.11 2.304-.426a10.7 10.7 0 0 0 1.92-.941 9.5 9.5 0 0 0 2.64-2.641c.311-.473.75-1.367.938-1.915.283-.819.488-1.819.447-2.177a1 1 0 0 0-.367-.645C22.347 8.015 22.225 8 20.765 8h-1.343l-2.941-2.935c-2.677-2.671-2.959-2.94-3.138-3a1.05 1.05 0 0 0-.703.003m3.099 5.087c2.472 2.466 2.739 2.72 2.918 2.78.16.053.376.065 1.15.065.524 0 .953.015.953.033 0 .089-.22.662-.394 1.026a6.94 6.94 0 0 1-3.186 3.252c-.356.179-1.045.449-1.143.449-.022 0-.037-.399-.037-.953 0-.774-.012-.99-.065-1.15-.06-.179-.315-.447-2.79-2.927l-2.724-2.731L11.7 5.72a62 62 0 0 1 1.299-1.28c.01 0 1.244 1.222 2.74 2.715M11.8 11.22l.78.78-3.96 3.961c-2.911 2.911-4.008 3.984-4.139 4.048-.537.261-1.204.029-1.481-.514-.129-.251-.14-.708-.023-.955.051-.109 1.329-1.416 4.039-4.13 2.18-2.183 3.973-3.97 3.984-3.97s.371.351.8.78"/></svg>