<svg xmlns="http://www.w3.org/2000/svg" width="24" height="24" fill="none" stroke="currentColor" stroke-linecap="round" stroke-linejoin="round" stroke-width="2"><path fill="#000" fill-rule="evenodd" stroke="none" d="M3.695 3.057a1.04 1.04 0 0 0-.567.459L3.02 3.7l-.011 8.24c-.01 7.57-.006 8.254.055 8.414.091.241.278.441.516.552l.2.093 8.2-.001c6.747-.001 8.227-.011 8.35-.055.221-.079.414-.241.539-.454.095-.161.111-.233.111-.489 0-.254-.017-.328-.108-.484a1.02 1.02 0 0 0-.582-.461c-.152-.046-1.343-.055-7.026-.055H6.421l2.705-2.71c1.488-1.49 2.739-2.773 2.779-2.85.052-.099.074-.228.074-.44.001-.255-.015-.328-.107-.484a1 1 0 0 0-1.215-.451c-.179.06-.447.315-2.927 2.789l-2.729 2.723-.011-6.938L4.98 3.7l-.108-.184a1.005 1.005 0 0 0-1.177-.459"/></svg>