<svg xmlns="http://www.w3.org/2000/svg" width="24" height="24" fill="none" stroke="currentColor" stroke-linecap="round" stroke-linejoin="round" stroke-width="2"><path fill="#000" fill-rule="evenodd" stroke="none" d="M11.32 2.024c-2.294.202-4.29 1.043-5.92 2.494-1.438 1.28-2.493 2.949-2.999 4.743-.08.283-.11.335-.252.44-.23.17-.619.672-.775.999a2.98 2.98 0 0 0 .334 3.132c.172.224.501.547.601.589.005.002.056.165.112.361a10.1 10.1 0 0 0 1.212 2.597c1.444 2.159 3.497 3.618 5.966 4.24 2.438.615 5.112.248 7.32-1.002 2.224-1.26 3.966-3.442 4.661-5.841.056-.193.106-.354.111-.357.161-.098.374-.302.563-.539a3 3 0 0 0 .372-3.18c-.155-.326-.545-.828-.775-.999a.46.46 0 0 1-.211-.32 13 13 0 0 0-.544-1.55 10 10 0 0 0-.867-1.541c-.529-.783-.765-.97-1.223-.97-.29 0-.455.06-.661.241a1 1 0 0 0-.334.679c-.025.276.057.486.344.875a8.1 8.1 0 0 1 1.405 3.02c.144.585.235.731.602.967.436.279.608.623.54 1.077-.037.248-.241.536-.481.681-.341.206-.489.386-.583.711-.26.897-.431 1.38-.641 1.809a8.04 8.04 0 0 1-3.077 3.387c-1.026.628-2.234 1.009-3.543 1.117-1.581.132-3.339-.287-4.697-1.117a8.07 8.07 0 0 1-3.642-4.938c-.151-.555-.26-.727-.573-.906-.408-.234-.604-.568-.578-.984.023-.358.171-.584.544-.83.159-.106.334-.259.388-.34s.145-.329.202-.549c.182-.701.341-1.146.603-1.684Q6.045 6.02 8.54 4.816c.972-.47 1.821-.696 2.928-.782 1.026-.079 1.757.06 2.349.446.488.319.661.596.661 1.06 0 .476-.119.826-.385 1.137q-.38.443-.936.277c-.124-.037-.158-.069-.179-.17-.107-.515-.666-.867-1.192-.749-.625.14-.923.741-.712 1.436.166.546.542.965 1.106 1.233.383.183.689.257 1.16.284 1.468.082 2.729-1.013 3.083-2.68.035-.162.062-.489.062-.748.001-.944-.299-1.625-1.016-2.307-.617-.586-1.393-.966-2.352-1.153-.327-.064-1.414-.109-1.797-.076m-2.625 9.031a1.05 1.05 0 0 0-.567.461c-.091.156-.108.23-.108.484 0 .257.016.327.113.492.518.882 1.865.526 1.865-.492a.99.99 0 0 0-.535-.888 1.17 1.17 0 0 0-.768-.057m6 0a1.05 1.05 0 0 0-.567.461c-.091.156-.108.23-.108.484 0 .257.016.327.113.492.518.882 1.865.526 1.865-.492a.99.99 0 0 0-.535-.888 1.17 1.17 0 0 0-.768-.057m-5.006 4.002c-.666.216-.9 1.043-.449 1.59.142.172.681.46 1.14.608a5.57 5.57 0 0 0 3.24 0c.459-.148.998-.436 1.14-.608.473-.573.191-1.436-.524-1.608-.277-.066-.45-.035-.863.155-.481.222-.816.293-1.373.293-.559 0-.892-.071-1.38-.296-.403-.186-.659-.223-.931-.134"/></svg>