<svg xmlns="http://www.w3.org/2000/svg" width="24" height="24" fill="none" stroke="currentColor" stroke-linecap="round" stroke-linejoin="round" stroke-width="2"><path fill="#000" fill-rule="evenodd" stroke="none" d="M10.499 1.042A3.06 3.06 0 0 0 8.118 3.14c-.076.239-.092.396-.108 1.065l-.019.784-.466.047a4.8 4.8 0 0 0-2.457.927c-1.001.714-1.704 1.808-1.975 3.077-.069.32-.073.675-.073 5.92v5.58l.094.3a3.09 3.09 0 0 0 2.046 2.046l.3.094h13.08l.3-.094a3.09 3.09 0 0 0 2.046-2.046l.094-.3v-5.58c0-5.245-.004-5.6-.073-5.92-.282-1.319-1.044-2.464-2.107-3.166-.78-.516-1.418-.746-2.325-.838l-.466-.047-.019-.784c-.016-.669-.032-.826-.108-1.065a3.09 3.09 0 0 0-2.021-2.016c-.313-.097-.357-.1-1.741-.109-.781-.005-1.511.007-1.621.027m2.811 2.019a.9.9 0 0 1 .387.242c.251.251.303.448.303 1.144V5h-4v-.553c0-.697.052-.893.304-1.144.28-.281.371-.297 1.679-.3.895-.002 1.164.009 1.327.058m3.551 4.06a3.09 3.09 0 0 1 2.018 2.018l.101.321.013 5.28c.008 3.742-.001 5.34-.032 5.484-.056.26-.237.507-.475.647-.179.105-.212.11-.834.122l-.648.014-.013-2.794-.012-2.793-.094-.28c-.331-.993-1.104-1.753-2.063-2.028-.321-.092-.332-.092-2.822-.092s-2.501 0-2.822.092c-.959.275-1.732 1.035-2.063 2.028l-.094.28-.012 2.793-.013 2.794-.648-.014c-.62-.012-.656-.018-.832-.121a1.2 1.2 0 0 1-.292-.251c-.238-.312-.227 0-.215-5.823L5.02 9.46l.101-.321a3.05 3.05 0 0 1 2.378-2.096c.11-.019 2.19-.032 4.621-.029l4.42.006zM7.695 9.057a1.04 1.04 0 0 0-.567.459c-.091.156-.108.23-.108.484 0 .256.016.328.111.489.125.213.318.375.539.454s8.438.079 8.66 0 .414-.241.539-.454c.095-.161.111-.233.111-.489 0-.254-.017-.328-.108-.484a1.02 1.02 0 0 0-.582-.461c-.261-.079-8.344-.076-8.595.002m6.615 6.004a.9.9 0 0 1 .387.242c.251.251.303.448.303 1.144V17H9v-.553c0-.694.052-.893.301-1.141.305-.306.245-.299 2.662-.303 1.808-.003 2.174.006 2.347.058M15 20v1H9v-2h6z"/></svg>