<svg xmlns="http://www.w3.org/2000/svg" width="24" height="24" fill="none" stroke="currentColor" stroke-linecap="round" stroke-linejoin="round" stroke-width="2"><path fill="#000" fill-rule="evenodd" stroke="none" d="M13.499 1.041a3.06 3.06 0 0 0-2.381 2.099c-.076.239-.092.396-.108 1.07l-.019.79-1.126.002c-1.269.003-1.474.033-1.882.279-.28.168-.629.535-.764.802C6.997 6.52 7 6.467 7 10c0 3.547-.004 3.478.225 3.93.136.269.576.709.845.845.466.236.149.225 6.43.225s5.964.011 6.43-.225c.266-.135.708-.575.841-.838.232-.458.229-.4.228-3.923 0-3.499 0-3.503-.218-3.931-.135-.267-.484-.634-.764-.802-.408-.246-.613-.276-1.882-.279L18.009 5l-.019-.79c-.016-.674-.032-.831-.108-1.07a3.08 3.08 0 0 0-2.021-2.015c-.294-.089-.399-.098-1.241-.109-.506-.006-1.011.005-1.121.025m1.811 2.02a.9.9 0 0 1 .387.242c.251.251.303.448.303 1.144V5h-3v-.553c0-.697.052-.893.304-1.144.254-.255.419-.297 1.179-.3.448-.002.68.014.827.058m-13.615.993a.997.997 0 0 0-.497 1.537c.171.236.41.362.774.408.383.049.537.113.727.302.303.303.279-.123.301 5.359l.02 4.92.094.28c.132.393.333.761.565 1.031.585.684 1.275 1.042 2.113 1.097.279.018.367.037.352.076-.092.239-.121.464-.122.936-.001.456.013.587.092.84a3.09 3.09 0 0 0 2.046 2.046c.434.135 1.246.135 1.68 0a3.09 3.09 0 0 0 2.046-2.046c.146-.468.129-1.361-.032-1.783-.019-.049.212-.057 1.646-.057s1.665.008 1.646.057c-.094.246-.123.467-.124.943-.001.456.013.587.092.84a3.09 3.09 0 0 0 2.046 2.046c.434.135 1.246.135 1.68 0a3.09 3.09 0 0 0 2.046-2.046c.146-.468.129-1.361-.032-1.783-.019-.048.082-.057.652-.059.726-.002.87-.029 1.113-.215.077-.058.189-.191.25-.294.095-.161.111-.233.111-.489 0-.254-.017-.328-.108-.484a1.15 1.15 0 0 0-.499-.446c-.089-.039-1.887-.054-8.393-.07l-8.28-.02-.184-.108a1.15 1.15 0 0 1-.446-.499c-.039-.088-.055-1.217-.07-5.033l-.02-4.92-.094-.28c-.331-.986-1.089-1.739-2.023-2.01-.4-.115-.941-.151-1.168-.076M11 10v3H9V7h2zm5 0v3h-3V7h3zm4 0v3h-2V7h2zM9.31 19.061c.378.112.69.537.69.94 0 .33-.216.695-.516.871-.156.091-.23.108-.484.108s-.328-.017-.484-.108c-.581-.342-.683-1.098-.212-1.569q.417-.418 1.006-.242m9 0c.378.112.69.537.69.94 0 .33-.216.695-.516.871-.156.091-.23.108-.484.108s-.328-.017-.484-.108c-.581-.342-.683-1.098-.212-1.569q.417-.418 1.006-.242"/></svg>