<svg xmlns="http://www.w3.org/2000/svg" width="24" height="24" fill="none" stroke="currentColor" stroke-linecap="round" stroke-linejoin="round" stroke-width="2"><path fill="#000" fill-rule="evenodd" stroke="none" d="M12.48 1.06c-.894.202-1.479.89-1.666 1.957-.048.274-.058.505-.04.943.027.666.13 1.22.402 2.16.35 1.21.459 2.076.384 3.056-.056.74-.236 1.703-.353 1.893-.022.036-.111.023-.348-.051-2.111-.653-4.688-.302-7.066.962-.465.247-.638.414-.736.71a.99.99 0 0 0 .681 1.269c.303.085.49.036 1.192-.31.942-.466 1.712-.723 2.61-.874.481-.08 1.596-.091 1.98-.019.426.08.8.175.8.203 0 .015-.092.16-.204.324a8.97 8.97 0 0 1-3.456 2.959c-.715.349-1.18.519-2.1.766-1.894.509-2.393.713-2.853 1.167-.294.29-.425.503-.574.929-.098.283-.11.373-.111.856-.002.461.012.581.091.82.417 1.255 1.574 1.905 3.827 2.148.655.071 3.427.071 3.92 0a16 16 0 0 0 1.32-.249c1.315-.356 2.284-.782 3.262-1.433a9.7 9.7 0 0 0 1.778-1.464 12.2 12.2 0 0 0 2.505-3.666c.239-.541.182-.515.661-.296 1.257.575 2.168 1.697 2.494 3.072.043.18.094.574.114.875.031.484.047.568.141.729a.996.996 0 0 0 1.804-.174c.109-.307.062-1.159-.101-1.869a6.56 6.56 0 0 0-3.888-4.572c-.287-.117-.369-.168-.366-.226.002-.041.051-.3.107-.575.285-1.379.382-2.956.248-4.038-.217-1.754-.891-3.745-1.746-5.162a7 7 0 0 0-1.152-1.483c-.883-.887-1.813-1.332-2.881-1.378-.287-.012-.503 0-.68.041m.888 1.985c.458.096.882.366 1.343.853 1.123 1.186 2.079 3.571 2.256 5.63.078.898-.045 2.319-.299 3.452l-.09.4-.419.031a7.3 7.3 0 0 0-1.436.238l-.296.087-.064-.098c-.26-.4-.873-1.077-1.269-1.403l-.127-.104.134-.403c.325-.981.469-1.896.474-3.028.006-1.142-.091-1.793-.453-3.049-.288-1.002-.338-1.275-.34-1.871-.002-.639.041-.78.241-.78.073 0 .228.02.345.045m-.81 11.515c.106.143.294.44.419.66.254.449.426.626.694.718.28.095.472.076.849-.083.603-.254 1.28-.445 1.28-.359 0 .045-.262.548-.46.884-1.571 2.661-4.022 4.279-6.934 4.578-.529.054-2.218.054-2.946 0-1.365-.101-2.211-.352-2.398-.714-.121-.235-.065-.588.112-.704.148-.097.691-.272 1.551-.5 1.953-.518 3.042-.995 4.324-1.892a11.6 11.6 0 0 0 2.851-2.92l.153-.231.157.151c.086.084.242.269.348.412"/></svg>