<svg xmlns="http://www.w3.org/2000/svg" width="24" height="24" fill="none" stroke="currentColor" stroke-linecap="round" stroke-linejoin="round" stroke-width="2"><path fill="#000" fill-rule="evenodd" stroke="none" d="M3.499 5.043C2.38 5.232 1.461 6.048 1.114 7.16l-.094.3v9.08l.094.3a3.09 3.09 0 0 0 2.046 2.046l.3.094h17.08l.3-.094a3.09 3.09 0 0 0 2.046-2.046l.094-.3V7.46l-.094-.3a3.09 3.09 0 0 0-2.025-2.039l-.321-.101-8.42-.006c-4.631-.003-8.511.01-8.621.029M5 12.003v5.004l-.65-.014c-.622-.012-.658-.018-.834-.121a1.2 1.2 0 0 1-.291-.249C2.99 16.315 3 16.515 3 12.022c0-4.666-.017-4.398.304-4.719.25-.251.423-.297 1.126-.3L5 7zM17 12v5H7V7h10zm3.31-4.939c.279.083.546.35.629.629.053.177.061.751.061 4.311 0 4.457.007 4.318-.221 4.617-.061.08-.194.195-.295.254-.176.103-.212.109-.834.121l-.65.014V7h.553c.378 0 .617.019.757.061M9.8 9.037a1 1 0 0 0-.788 1.063c.066.647.671 1.038 1.324.856.21-.058.562-.41.62-.62.076-.271.054-.54-.061-.772a1.1 1.1 0 0 0-.515-.483 1.4 1.4 0 0 0-.58-.044m4 0a1 1 0 0 0-.788 1.063c.066.647.671 1.038 1.324.856.21-.058.562-.41.62-.62.076-.271.054-.54-.061-.772a1.1 1.1 0 0 0-.515-.483 1.4 1.4 0 0 0-.58-.044m-4 4a1 1 0 0 0-.788 1.063c.066.647.671 1.038 1.324.856.21-.058.562-.41.62-.62.076-.271.054-.54-.061-.772a1.1 1.1 0 0 0-.515-.483 1.4 1.4 0 0 0-.58-.044m4 0a1 1 0 0 0-.788 1.063c.066.647.671 1.038 1.324.856.21-.058.562-.41.62-.62.076-.271.054-.54-.061-.772a1.1 1.1 0 0 0-.515-.483 1.4 1.4 0 0 0-.58-.044"/></svg>