<svg xmlns="http://www.w3.org/2000/svg" width="24" height="24" fill="none" stroke="currentColor" stroke-linecap="round" stroke-linejoin="round" stroke-width="2"><path fill="#000" fill-rule="evenodd" stroke="none" d="M11.643 3.069c-.383.135-.269-.073-3.558 6.514-2.559 5.125-3.058 6.152-3.075 6.323-.042.441.241.888.65 1.028a.95.95 0 0 0 .68 0c.368-.125.441-.238 1.4-2.166L8.619 13h6.762l.879 1.768c.959 1.928 1.032 2.041 1.4 2.166a.95.95 0 0 0 .68 0c.409-.14.692-.587.65-1.028-.017-.171-.516-1.198-3.075-6.323-3.342-6.694-3.177-6.395-3.599-6.52-.259-.077-.442-.076-.673.006M13.19 8.62c.644 1.287 1.17 2.349 1.17 2.36S13.298 11 12 11s-2.36-.009-2.36-.02c0-.039 2.34-4.7 2.36-4.7.011 0 .547 1.053 1.19 2.34M3.695 19.057a1.04 1.04 0 0 0-.567.459c-.091.156-.108.23-.108.484 0 .256.016.328.111.489.125.213.318.375.539.454.223.079 16.437.079 16.66 0 .221-.079.414-.241.539-.454.095-.161.111-.233.111-.489 0-.254-.017-.328-.108-.484a1.02 1.02 0 0 0-.582-.461c-.263-.079-16.343-.077-16.595.002"/></svg>