<svg xmlns="http://www.w3.org/2000/svg" width="24" height="24" fill="none" stroke="currentColor" stroke-linecap="round" stroke-linejoin="round" stroke-width="2"><path fill="#000" fill-rule="evenodd" stroke="none" d="M5.591 2.039a3.2 3.2 0 0 0-.915.327c-.75.386-1.291 1.045-1.57 1.914-.081.253-.084.343-.096 3.49L2.997 11h-.552c-.797 0-1.078.11-1.317.516-.091.156-.108.23-.108.484 0 .256.016.328.111.489.125.213.318.375.539.454.098.035.352.054.738.055l.588.002.013 2.29c.013 2.272.014 2.292.106 2.57.393 1.183 1.406 2.017 2.58 2.123l.298.027.014.648c.013.642.014.651.134.845a.998.998 0 0 0 1.718 0c.12-.195.121-.203.134-.85L8.007 20h7.986l.014.653c.013.647.014.655.134.85.068.11.205.253.311.325.471.316 1.102.171 1.407-.325.12-.194.121-.203.134-.845l.014-.648.298-.027c1.174-.106 2.187-.94 2.58-2.123.092-.278.093-.298.106-2.57l.013-2.29.588-.002c.386-.001.64-.02.738-.055.221-.079.414-.241.539-.454.095-.161.111-.233.111-.489 0-.254-.017-.328-.108-.484a1.02 1.02 0 0 0-.582-.461c-.152-.046-1.605-.055-8.736-.055H5V7.987c0-3.463-.015-3.297.334-3.646.327-.327.702-.416 1.151-.273.18.057.286.138.654.497l.439.428-.204.216c-.298.315-.352.436-.353.791-.001.258.015.327.112.492.28.476.899.646 1.359.374.214-.127 2.314-2.239 2.413-2.426.052-.099.074-.227.074-.44.001-.255-.015-.328-.107-.484a1.05 1.05 0 0 0-.556-.458c-.371-.13-.711-.039-1.073.289l-.245.222-.439-.424a9 9 0 0 0-.609-.548 3.6 3.6 0 0 0-.997-.479c-.328-.094-1.05-.136-1.362-.079M19 15.054c0 2.229-.004 2.28-.221 2.564-.061.08-.194.195-.295.254l-.184.108H5.7l-.184-.108a1.2 1.2 0 0 1-.291-.249C5 17.328 5 17.328 5 15.075V13h14z"/></svg>