<svg xmlns="http://www.w3.org/2000/svg" width="24" height="24" fill="none" stroke="currentColor" stroke-linecap="round" stroke-linejoin="round" stroke-width="2"><path fill="#000" fill-rule="evenodd" stroke="none" d="M3.499 6.043C2.383 6.23 1.461 7.048 1.114 8.16l-.094.3v7.08l.094.3a3.1 3.1 0 0 0 2.026 2.042c.243.078.391.092 1.12.108.545.012.898.003 1.004-.026.233-.063.473-.25.603-.472.097-.165.113-.235.113-.492 0-.254-.017-.328-.108-.484a1.1 1.1 0 0 0-.499-.443c-.066-.028-.439-.057-.893-.07-.756-.022-.786-.026-.964-.131a1.2 1.2 0 0 1-.291-.249c-.231-.303-.225-.2-.225-3.601 0-3.55-.012-3.404.303-3.719.284-.284.391-.303 1.734-.305 1.229-.002 1.319-.014 1.582-.215.077-.058.189-.191.25-.294.095-.161.111-.233.111-.489 0-.254-.017-.328-.108-.484a1.2 1.2 0 0 0-.254-.295C6.35 6.016 6.216 6 4.904 6.005c-.662.002-1.295.02-1.405.038m7.172.021a1 1 0 0 0-.344.207c-.159.154-3.178 5.141-3.273 5.409-.121.338-.021.755.245 1.021.281.282.382.299 1.728.299.645 0 1.173.011 1.173.024s-.472.809-1.048 1.77c-.577.96-1.071 1.809-1.098 1.886-.153.427.042.946.445 1.182.341.199.8.166 1.125-.082.094-.072.592-.867 1.709-2.731.867-1.446 1.599-2.699 1.627-2.785.112-.348-.04-.812-.342-1.043-.266-.203-.406-.221-1.682-.221H9.764l1.1-1.834c1.003-1.672 1.103-1.854 1.123-2.055a.97.97 0 0 0-.292-.814c-.284-.276-.629-.355-1.024-.233m4.024-.009a1.05 1.05 0 0 0-.567.461c-.091.156-.108.23-.108.484 0 .256.016.328.111.489.061.103.173.236.25.294.241.184.389.213 1.082.215.794.002.976.047 1.234.305.315.315.303.172.303 3.698 0 3.371.003 3.323-.221 3.617-.061.08-.194.195-.295.254l-.184.108-1.28.021c-.874.015-1.316.037-1.393.07a1.14 1.14 0 0 0-.499.445c-.091.156-.108.23-.108.484 0 .257.016.327.113.492.13.221.369.409.599.471.105.029.621.038 1.504.028 1.269-.015 1.36-.021 1.624-.107a3.1 3.1 0 0 0 2.026-2.044l.094-.3V8.46l-.094-.3a3.07 3.07 0 0 0-2.025-2.035c-.287-.086-.41-.098-1.161-.11-.628-.011-.882 0-1.005.04m7 4.002a1.04 1.04 0 0 0-.567.459l-.108.184v2.606l.121.197a.998.998 0 0 0 1.718 0l.121-.197V10.7l-.108-.184a1.005 1.005 0 0 0-1.177-.459"/></svg>