<svg xmlns="http://www.w3.org/2000/svg" width="24" height="24" fill="none" stroke="currentColor" stroke-linecap="round" stroke-linejoin="round" stroke-width="2"><path fill="#000" fill-rule="evenodd" stroke="none" d="M4.24 2.037c-.446.137-.728.509-.728.963 0 .405.207.724.588.905.163.076.265.094.549.095h.35l.01 7.79.011 7.79.094.28c.332.991 1.07 1.722 2.046 2.026l.3.094h9.08l.3-.094c.976-.304 1.714-1.035 2.046-2.026l.094-.28.011-7.79.01-7.79h.35c.284-.001.386-.019.549-.095.381-.181.588-.5.588-.905 0-.385-.195-.703-.548-.894l-.16-.086-7.72-.007c-4.246-.003-7.765.007-7.82.024M17 8.5V13H7V4h10zm0 8.554c0 2.229-.004 2.28-.221 2.564-.061.08-.194.195-.295.254l-.184.108H7.7l-.184-.108a1.2 1.2 0 0 1-.291-.249C7 19.328 7 19.328 7 17.075V15h10z"/></svg>