<svg xmlns="http://www.w3.org/2000/svg" width="24" height="24" fill="none" stroke="currentColor" stroke-linecap="round" stroke-linejoin="round" stroke-width="2"><path fill="#000" fill-rule="evenodd" stroke="none" d="M1.67 1.061c-.222.081-.42.248-.542.455-.091.156-.108.23-.108.484s.016.327.107.48c.061.102 1.449 1.52 3.19 3.26C6.013 7.434 7.4 8.832 7.4 8.847c0 .032-.574.222-1.18.39-1.075.298-1.901.726-2.722 1.41A6.7 6.7 0 0 0 1.76 12.86c-.493.988-.712 1.837-.748 2.9-.102 3.043 1.716 5.743 4.589 6.813.879.327 1.756.452 2.912.413 3.24-.107 6.413-1.283 8.861-3.284.217-.177.42-.34.45-.362.043-.03.465.369 1.826 1.726.973.971 1.833 1.799 1.91 1.839.099.052.228.074.44.074.258.001.327-.015.492-.112.476-.28.647-.9.373-1.359-.055-.092-4.65-4.715-10.212-10.273C3.3 1.889 2.525 1.125 2.343 1.065a1 1 0 0 0-.673-.004m13.57-.016a7.03 7.03 0 0 0-5.055 3.07c-.562.845-.665 1.22-.452 1.655.131.267.215.346.567.527.626.322 1.021.709 1.349 1.322.223.417.346.552.601.662a.99.99 0 0 0 1.401-.914c.001-.429-.558-1.355-1.177-1.949a5 5 0 0 0-.389-.348l-.096-.065.121-.153c.216-.272.802-.809 1.08-.988 1.116-.719 2.312-.992 3.53-.805 1.137.175 2.011.616 2.8 1.415.744.753 1.201 1.593 1.38 2.537.187.986.071 2.658-.285 4.108-.242.988-.43 1.499-.945 2.578-.35.733-.398.928-.309 1.245.065.235.345.547.569.638.212.085.565.09.753.011.283-.12.431-.3.715-.868.899-1.794 1.367-3.448 1.543-5.442.16-1.808-.021-3.021-.645-4.321-1.273-2.653-4.15-4.249-7.056-3.915m-4.991 10.677c-.065.055-.412.163-.705.219a2.95 2.95 0 0 1-2.513-.687l-.149-.132.169-.042c.407-.103 1.173-.389 1.497-.56l.352-.185.689.681c.379.375.676.693.66.706M6.033 13.02c1.554 1.166 3.789 1.295 5.459.316.128-.075.245-.136.26-.136.04 0 4.708 4.674 4.686 4.692-1.075.881-1.977 1.456-3.004 1.917-1.68.754-3.256 1.124-5.014 1.177-1.116.033-1.818-.103-2.646-.514-1.38-.686-2.351-1.959-2.68-3.512-.097-.455-.097-1.528 0-1.954.234-1.033.662-1.808 1.413-2.56l.454-.454.364.385c.201.212.519.501.708.643"/></svg>