<svg xmlns="http://www.w3.org/2000/svg" width="24" height="24" fill="none" stroke="currentColor" stroke-linecap="round" stroke-linejoin="round" stroke-width="2"><path fill="#000" fill-rule="evenodd" stroke="none" d="M5.499 3.043c-1.109.188-2.017.986-2.384 2.097-.09.274-.092.323-.106 2.144l-.014 1.864-.327.166a3.1 3.1 0 0 0-1.554 1.846l-.094.3v8.846l.121.197a.998.998 0 0 0 1.718 0c.12-.195.121-.203.134-.85L3.007 19h17.986l.014.653c.013.647.014.655.134.85a.998.998 0 0 0 1.718 0l.121-.197V11.46l-.094-.3a3.1 3.1 0 0 0-1.554-1.846l-.327-.166-.014-1.864c-.014-1.821-.016-1.87-.106-2.144a3.11 3.11 0 0 0-2.024-2.019l-.321-.101-6.42-.006c-3.531-.003-6.511.01-6.621.029M11 7v2H5V7.447c0-1.798.007-1.848.304-2.144.305-.306.216-.297 3.126-.3L11 5zm7.31-1.939a.9.9 0 0 1 .387.242c.296.296.303.347.303 2.144V9h-6V5h2.553c2.169 0 2.583.009 2.757.061m2 6a.9.9 0 0 1 .387.242c.31.311.303.235.303 3.144V17H3v-2.553c0-2.909-.007-2.833.304-3.144a.9.9 0 0 1 .369-.24c.16-.049 1.357-.058 8.31-.06 7.161-.003 8.147.004 8.327.058"/></svg>