<svg xmlns="http://www.w3.org/2000/svg" width="24" height="24" fill="none" stroke="currentColor" stroke-linecap="round" stroke-linejoin="round" stroke-width="2"><path fill="#000" fill-rule="evenodd" stroke="none" d="M1.695 3.057a1.04 1.04 0 0 0-.567.459L1.02 3.7v16.606l.121.197a.998.998 0 0 0 1.718 0l.121-.196.012-1.154L3.005 18h17.99l.013 1.153.012 1.154.121.196a.998.998 0 0 0 1.718 0l.121-.197V9.46l-.094-.3a3.09 3.09 0 0 0-2.025-2.039l-.321-.101-8.768-.011-8.769-.01-.011-1.65L2.98 3.7l-.108-.184a1.005 1.005 0 0 0-1.177-.459M5 12.5V16H3V9h2zm15.31-3.439c.279.083.546.35.629.629.052.175.061.641.061 3.257V16H7V9h6.553c5.75 0 6.578.007 6.757.061"/></svg>