<svg xmlns="http://www.w3.org/2000/svg" width="24" height="24" fill="none" stroke="currentColor" stroke-linecap="round" stroke-linejoin="round" stroke-width="2"><path fill="#000" fill-rule="evenodd" stroke="none" d="M11.72 1.045c-2.484.226-4.863 1.878-5.941 4.127-.257.535-.518 1.264-.901 2.52-.45 1.475-.558 1.782-.783 2.228-.304.602-.528.88-1.433 1.78-.88.876-1.134 1.207-1.346 1.758-.196.507-.281.889-.304 1.362-.026.536.027.906.207 1.446.16.476 2.138 4.457 2.462 4.954.528.807 1.4 1.415 2.399 1.673.3.077.441.087 1.2.085a13.4 13.4 0 0 0 2.48-.224c2.879-.51 5.947-1.815 8.3-3.527.642-.468 1.462-1.144 1.786-1.472 1.633-1.658 2.412-4.02 2.076-6.3-.144-.985-.189-1.099-1.38-3.551L19.231 5.2c-.592-1.225-1.465-2.206-2.665-2.994-1.404-.922-3.073-1.322-4.846-1.161m1.808 2.054c1.412.256 2.723 1.125 3.535 2.344 1.075 1.612 1.227 3.616.41 5.395a6.2 6.2 0 0 1-.932 1.39c-.278.303-1.119.995-1.794 1.477-2.337 1.668-5.326 2.844-8.127 3.197-.717.09-1.756.121-2.022.059a2.02 2.02 0 0 1-1.358-1.054c-.223-.451-.282-.857-.189-1.288.119-.546.213-.682 1.032-1.499 1.014-1.01 1.435-1.546 1.808-2.3.252-.51.348-.766.648-1.74.794-2.575 1.048-3.207 1.558-3.884a5.9 5.9 0 0 1 1.981-1.635c.533-.268 1.145-.442 1.882-.536.266-.034 1.221.011 1.568.074M11.873 5.06a3.54 3.54 0 0 0-1.915 1.045c-.399.422-.644.852-.825 1.443-.095.315-.107.415-.107.952s.012.637.107.952c.592 1.941 2.541 2.977 4.455 2.369 1.016-.323 1.909-1.215 2.232-2.23.123-.386.179-.731.179-1.091a3.53 3.53 0 0 0-2.621-3.382c-.419-.109-1.098-.135-1.505-.058m1.246 2.083c.298.136.608.449.746.753.095.209.111.296.111.604s-.016.395-.111.604c-.14.309-.448.616-.765.764-.207.097-.29.112-.6.112s-.393-.015-.6-.112a1.68 1.68 0 0 1-.765-.764c-.095-.208-.111-.296-.111-.604-.001-.309.015-.394.11-.6.193-.422.615-.771 1.04-.861.267-.057.696-.009.945.104m6.717 4.052c.36 1.541.088 3.075-.774 4.363-.358.535-.702.894-1.357 1.416-1.839 1.467-3.582 2.42-5.785 3.162-1.544.52-2.99.797-4.44.851-.542.019-.706.012-.92-.043a1.96 1.96 0 0 1-.944-.524c-.205-.2-.293-.335-.531-.81a17 17 0 0 1-.285-.583c0-.008.32-.026.71-.039 1.642-.058 3.232-.356 4.959-.93a20.3 20.3 0 0 0 6.65-3.655c1.198-.981 1.991-2.076 2.428-3.354.135-.395.167-.379.289.146"/></svg>