<svg xmlns="http://www.w3.org/2000/svg" width="24" height="24" fill="none" stroke="currentColor" stroke-linecap="round" stroke-linejoin="round" stroke-width="2"><path fill="#000" fill-rule="evenodd" stroke="none" d="M10.512 1.045a3.8 3.8 0 0 0-1.107.379c-.249.143-.549.368-1.002.749l-.376.317-.264-.023a6 6 0 0 1-.816-.183c-.754-.218-1.275-.301-1.685-.27-1.488.115-2.687 1.086-3.129 2.534-.095.315-.107.415-.107.952s.012.637.107.952a3.5 3.5 0 0 0 .955 1.574c.248.238.681.546.835.595.073.023.076.193.086 5.991l.011 5.968.094.28c.332.991 1.07 1.722 2.046 2.026l.3.094h9.08l.3-.094a3.11 3.11 0 0 0 2.044-2.026c.085-.263.092-.358.107-1.57l.016-1.29h.18c.099 0 .356-.036.57-.079 1.36-.278 2.436-1.166 2.947-2.433a3.95 3.95 0 0 0 .217-2.245 4.02 4.02 0 0 0-2.676-3.039c-.247-.084-.909-.203-1.135-.204H18l.001-.67.001-.67.289-.16c.415-.23.99-.814 1.24-1.26 1.267-2.262-.21-5.029-2.789-5.225-.41-.031-.758.022-1.582.245-.364.098-.773.194-.911.213-.29.039-.256.057-.8-.402-.506-.426-.66-.534-1.009-.709-.635-.319-1.198-.411-1.928-.317m.837 2.015c.216.065.45.228 1.031.72.626.531 1.035.707 1.64.707.458 0 .705-.044 1.636-.293.671-.18.783-.199 1.005-.175.511.054.985.401 1.205.881.095.206.111.292.111.6s-.016.394-.111.6a1.68 1.68 0 0 1-.762.767c-.374.172-.72.158-1.463-.06-.829-.243-1.199-.3-1.801-.276-.438.018-.598.047-1.3.232l-.8.211h-1.48l-.8-.211c-1.276-.337-1.829-.329-3.101.044-.743.218-1.089.232-1.463.06a1.68 1.68 0 0 1-.762-.767c-.095-.206-.111-.292-.111-.6s.016-.394.111-.6c.225-.49.698-.83 1.226-.881.21-.02.333-.005.64.078.894.244 1.321.342 1.641.376.758.08 1.239-.096 1.999-.73.589-.492.718-.581.972-.669.257-.088.472-.092.737-.014M8.985 8.703c1.552.4 2.486.399 4.037-.003.917-.238 1.144-.236 2.038.011.33.092.677.186.77.209l.17.043v5.572c0 4.606-.01 5.604-.055 5.755a1.02 1.02 0 0 1-.461.582l-.184.108H6.7l-.184-.108a1.2 1.2 0 0 1-.291-.249c-.238-.312-.225.029-.225-6.066V8.963l.17-.043c.094-.023.431-.113.75-.199.746-.201.69-.191 1.047-.196.245-.004.451.032 1.018.178m-.29 2.354a1.04 1.04 0 0 0-.567.459l-.108.184v6.606l.121.197a.998.998 0 0 0 1.718 0l.121-.197V11.7l-.108-.184a1.005 1.005 0 0 0-1.177-.459m4 0a1.04 1.04 0 0 0-.567.459l-.108.184v6.606l.121.197a.998.998 0 0 0 1.718 0l.121-.197V11.7l-.108-.184a1.005 1.005 0 0 0-1.177-.459m5.828 1.016a2.01 2.01 0 0 1 1.444 1.617c.1.653-.094 1.243-.564 1.714-.361.362-.859.596-1.271.596H18v-4l.13.002c.072.002.248.034.393.071"/></svg>