<svg xmlns="http://www.w3.org/2000/svg" width="24" height="24" fill="none" stroke="currentColor" stroke-linecap="round" stroke-linejoin="round" stroke-width="2"><path fill="#000" fill-rule="evenodd" stroke="none" d="M1.67 1.061c-.222.081-.42.248-.542.455-.092.156-.108.229-.107.484 0 .214.022.34.075.44.04.077.353.423.695.768l.622.628-.104.232A3.5 3.5 0 0 0 2.66 7.54c.294.414.963.986 1.263 1.081.073.023.076.193.086 5.991l.011 5.968.094.28c.332.991 1.07 1.722 2.046 2.026l.3.094h9.08l.3-.094a3.09 3.09 0 0 0 2.04-2.026c.067-.212.093-.42.11-.854l.021-.573 1.705 1.699c.937.935 1.767 1.733 1.844 1.773.099.052.228.074.44.074.258.001.327-.015.492-.112.476-.28.647-.9.373-1.359-.055-.092-4.65-4.715-10.212-10.273C3.3 1.889 2.525 1.125 2.343 1.065a1 1 0 0 0-.673-.004m8.842-.016c-.471.06-1.026.295-1.492.631-.266.192-1.024.84-1.1.94a1.4 1.4 0 0 0-.198.564c-.004.333.212.715.501.884a1 1 0 0 0 .432.126c.342.027.528-.061 1.049-.498.529-.444.701-.559.95-.632.546-.162.819-.048 1.726.72.626.531 1.035.707 1.64.707.458 0 .705-.044 1.636-.293.671-.18.783-.199 1.005-.175.511.054.985.401 1.205.881.095.206.111.292.111.6s-.016.394-.111.6a1.68 1.68 0 0 1-.762.767c-.374.172-.72.158-1.462-.06-.735-.215-1.149-.287-1.663-.287-.414 0-.973.083-1.201.178-.2.084-.424.307-.524.522a.94.94 0 0 0 .159 1.045c.273.31.596.404 1.065.307.455-.093.873-.057 1.582.14.33.091.677.185.77.208l.17.043v1.331c0 1.494.012 1.577.269 1.841.226.234.427.322.731.322a.9.9 0 0 0 .724-.315c.115-.122.159-.142.316-.142.601 0 1.267.371 1.619.901.234.352.312.618.316 1.079.003.342-.013.449-.111.735-.185.544-.128.9.197 1.214.408.394 1.14.345 1.46-.097.133-.183.289-.576.385-.972.108-.442.098-1.341-.019-1.789q-.354-1.348-1.354-2.152a4.04 4.04 0 0 0-2.107-.882L18 9.989l.001-.664.001-.665.289-.16c.415-.23.99-.814 1.24-1.26 1.267-2.262-.21-5.029-2.789-5.225-.41-.031-.758.022-1.582.245-.364.098-.773.194-.911.213-.29.039-.256.057-.8-.402-.506-.426-.66-.534-1.009-.709-.635-.319-1.198-.411-1.928-.317M4.8 6.225l.78.784-.228-.021c-.67-.063-1.256-.642-1.336-1.318-.015-.127-.02-.23-.011-.23s.367.353.795.785m4.809 4.805 2.389 2.39.011 2.443.011 2.443.121.197a.998.998 0 0 0 1.718 0l.121-.197.012-1.441.012-1.441.998.998.998.997v1.344c0 1.462-.015 1.584-.221 1.855-.061.08-.194.195-.295.254l-.184.108H6.7l-.184-.108a1.2 1.2 0 0 1-.291-.249c-.238-.312-.225.029-.225-6.066V8.963l.17-.042c.094-.023.35-.094.57-.158.22-.063.418-.117.44-.119s1.115 1.072 2.429 2.386m-.914 2.627a1.04 1.04 0 0 0-.567.459l-.108.184v4.006l.121.197a.998.998 0 0 0 1.718 0l.121-.197V14.3l-.108-.184a1.005 1.005 0 0 0-1.177-.459"/></svg>