<svg xmlns="http://www.w3.org/2000/svg" width="24" height="24" fill="none" stroke="currentColor" stroke-linecap="round" stroke-linejoin="round" stroke-width="2"><path fill="#000" fill-rule="evenodd" stroke="none" d="M1.67 1.061c-.222.081-.42.248-.542.455-.091.156-.108.23-.108.484s.016.327.107.48c.06.099.988 1.059 2.064 2.133l1.956 1.954-.053.286c-.029.158-.071.746-.092 1.307-.082 2.13-.287 3.207-.82 4.3-.315.646-.623 1.074-1.317 1.833-.686.75-.863 1.097-.865 1.689-.001.934.685 1.785 1.592 1.974.15.031 2.091.044 6.6.044h6.388l2.38 2.383c1.322 1.323 2.46 2.43 2.56 2.49.153.091.226.107.48.107.257 0 .327-.016.492-.113.476-.28.647-.9.373-1.359-.055-.092-4.65-4.715-10.212-10.273C3.3 1.889 2.525 1.125 2.343 1.065a1 1 0 0 0-.673-.004m9.59-.017c-1.155.122-2.451.607-3.235 1.211-.288.223-.415.671-.304 1.072.061.22.362.533.587.609a.98.98 0 0 0 .859-.075c1.033-.568 1.555-.75 2.383-.829a4.97 4.97 0 0 1 4.04 1.504c.949.993 1.41 2.182 1.41 3.643 0 .857.158 2.151.359 2.941.301 1.187.695 2.142 1.273 3.092.397.652.628.827 1.095.828.46 0 .856-.332.957-.801.062-.29-.006-.521-.289-.98-.649-1.054-1.042-2.133-1.251-3.439-.077-.484-.099-.764-.143-1.805-.058-1.378-.262-2.209-.8-3.245a6.5 6.5 0 0 0-1.261-1.71c-.597-.596-1.068-.934-1.84-1.318a6.8 6.8 0 0 0-3.84-.698M10.8 12.22 14.58 16H3.982l.304-.31c1.77-1.808 2.523-3.699 2.697-6.78.015-.258.029-.47.032-.47s1.706 1.701 3.785 3.78m-.854 7.845c-.248.076-.548.368-.617.6-.084.282-.062.536.069.799.259.518.797 1.01 1.382 1.265.473.206.687.25 1.22.25s.747-.044 1.22-.25c.42-.183.763-.443 1.092-.827.499-.584.545-1.167.124-1.589-.361-.362-.885-.408-1.288-.113a1.6 1.6 0 0 0-.288.303c-.167.235-.322.36-.542.438-.435.153-.895-.016-1.175-.431-.211-.314-.56-.514-.883-.507a1.4 1.4 0 0 0-.314.062"/></svg>