<svg xmlns="http://www.w3.org/2000/svg" width="24" height="24" fill="none" stroke="currentColor" stroke-linecap="round" stroke-linejoin="round" stroke-width="2"><path fill="#000" fill-rule="evenodd" stroke="none" d="m11.42 1.023-.44.06c-.714.095-1.49.347-2.22.723-1.857.955-3.192 2.728-3.622 4.811-.082.396-.107.677-.139 1.563-.078 2.12-.288 3.201-.836 4.32-.297.605-.613 1.042-1.303 1.8-.574.632-.729.877-.816 1.292a1.95 1.95 0 0 0 .553 1.808c.288.284.643.483.995.556.3.062 16.516.062 16.816 0 .369-.077.709-.266.995-.552a1.96 1.96 0 0 0 .553-1.812c-.075-.357-.254-.675-.61-1.082-.799-.912-1.273-1.677-1.7-2.74-.213-.532-.497-.748-.986-.748-.429 0-.72.188-.897.578-.165.365-.091.721.34 1.632.47.995 1.059 1.874 1.713 2.558l.201.21h-7.988c-4.394 0-7.989-.013-7.989-.029s.124-.156.275-.31c1.336-1.367 2.052-2.743 2.422-4.657.146-.754.22-1.507.263-2.664.022-.576.065-1.166.096-1.323a5.15 5.15 0 0 1 1.299-2.469 5 5 0 0 1 5.55-1.147c.599.255.953.485 1.501.979.403.363.726.457 1.11.322a.99.99 0 0 0 .671-.83c.044-.429-.102-.694-.636-1.152A7 7 0 0 0 13.1 1.096c-.363-.057-1.458-.104-1.68-.073m3.275 6.034a1.04 1.04 0 0 0-.567.459c-.091.156-.108.23-.108.484 0 .256.016.328.111.489.125.213.318.375.539.454s6.439.079 6.66 0 .414-.241.539-.454c.095-.161.111-.233.111-.489 0-.254-.017-.328-.108-.484a1.02 1.02 0 0 0-.582-.461c-.26-.078-6.345-.076-6.595.002M9.946 20.065c-.248.076-.548.368-.617.6-.084.282-.062.536.069.799.259.518.797 1.01 1.382 1.265.473.206.687.25 1.22.25s.747-.044 1.22-.25c.42-.183.763-.443 1.092-.827.499-.584.545-1.167.124-1.589-.361-.362-.885-.408-1.288-.113a1.6 1.6 0 0 0-.288.303c-.167.235-.322.36-.542.438-.435.153-.895-.016-1.175-.431-.211-.314-.56-.514-.883-.507a1.4 1.4 0 0 0-.314.062"/></svg>