<svg xmlns="http://www.w3.org/2000/svg" width="24" height="24" fill="none" stroke="currentColor" stroke-linecap="round" stroke-linejoin="round" stroke-width="2"><path fill="#000" fill-rule="evenodd" stroke="none" d="M11.16 1.06a6.99 6.99 0 0 0-5.675 4.387c-.335.844-.435 1.415-.486 2.753-.08 2.107-.291 3.191-.837 4.3-.303.614-.622 1.055-1.296 1.791-.686.749-.864 1.098-.866 1.691-.001.934.685 1.785 1.592 1.974.3.062 16.516.062 16.816 0 .369-.077.709-.266.995-.552.615-.617.765-1.48.394-2.268-.149-.316-.964-1.252-1.183-1.358a1.4 1.4 0 0 0-.422-.09c-.217-.014-.303 0-.45.071a1.03 1.03 0 0 0-.582.91c0 .32.134.561.579 1.041l.268.29H3.982l.304-.31c1.364-1.393 2.077-2.756 2.451-4.686.143-.741.219-1.499.262-2.624.051-1.342.14-1.784.518-2.56a5 5 0 0 1 3.892-2.779c.67-.084 1.201-.04 1.989.166.509.133.691.131.96-.006a1 1 0 0 0 .502-.585c.182-.581-.132-1.103-.782-1.297a7.1 7.1 0 0 0-2.918-.259m6.198 3.001c-1.128.176-2.215.913-2.789 1.892a3.992 3.992 0 0 0 1.943 5.751 3.99 3.99 0 0 0 5.192-2.216 3.96 3.96 0 0 0 .001-2.972 3.98 3.98 0 0 0-3.1-2.458 3.7 3.7 0 0 0-1.247.003m1.165 2.012a2.01 2.01 0 0 1 1.444 1.617c.1.653-.094 1.243-.564 1.714-.401.403-.856.596-1.403.596q-.771 0-1.347-.535c-1.33-1.236-.464-3.46 1.347-3.46.143 0 .378.031.523.068M9.946 20.065c-.248.076-.548.368-.617.6-.084.282-.062.536.069.799.259.518.797 1.01 1.382 1.265.473.206.687.25 1.22.25s.747-.044 1.22-.25c.42-.183.763-.443 1.092-.827.499-.584.545-1.167.124-1.589-.361-.362-.885-.408-1.288-.113a1.6 1.6 0 0 0-.288.303c-.167.235-.322.36-.542.438-.435.153-.895-.016-1.175-.431-.211-.314-.56-.514-.883-.507a1.4 1.4 0 0 0-.314.062"/></svg>