<svg xmlns="http://www.w3.org/2000/svg" width="24" height="24" fill="none" stroke="currentColor" stroke-linecap="round" stroke-linejoin="round" stroke-width="2"><path fill="#000" fill-rule="evenodd" stroke="none" d="M11.54 1.023c-.825.079-1.29.177-1.92.404A7.01 7.01 0 0 0 5.456 5.53c-.31.814-.403 1.357-.456 2.69-.084 2.101-.294 3.172-.837 4.28-.297.605-.613 1.042-1.303 1.8-.574.632-.729.877-.816 1.292a1.95 1.95 0 0 0 .553 1.808c.288.284.643.483.995.556.3.062 16.516.062 16.816 0 .369-.077.709-.266.995-.552a1.96 1.96 0 0 0 .553-1.812c-.087-.417-.247-.671-.802-1.278-.719-.785-.989-1.158-1.313-1.814-.551-1.113-.76-2.179-.84-4.28-.049-1.294-.126-1.761-.428-2.6-.857-2.382-2.992-4.147-5.471-4.522-.376-.057-1.289-.101-1.562-.075m1.012 2.02a5.01 5.01 0 0 1 4.128 3.205c.209.542.32 1.243.32 2.02.001.595.068 1.491.158 2.113.326 2.251 1.067 3.788 2.556 5.309l.304.31h-7.989c-4.394 0-7.989-.013-7.989-.029s.124-.156.275-.31c1.336-1.367 2.052-2.743 2.422-4.657.144-.742.219-1.501.262-2.624.046-1.203.098-1.552.321-2.132a5 5 0 0 1 5.232-3.205M9.946 20.065c-.248.076-.548.368-.617.6-.084.282-.062.536.069.799.259.518.797 1.01 1.382 1.265.473.206.687.25 1.22.25s.747-.044 1.22-.25c.42-.183.763-.443 1.092-.827.499-.584.545-1.167.124-1.589-.361-.362-.885-.408-1.288-.113a1.6 1.6 0 0 0-.288.303c-.167.235-.322.36-.542.438-.435.153-.895-.016-1.175-.431-.211-.314-.56-.514-.883-.507a1.4 1.4 0 0 0-.314.062"/></svg>