<svg xmlns="http://www.w3.org/2000/svg" width="24" height="24" fill="none" stroke="currentColor" stroke-linecap="round" stroke-linejoin="round" stroke-width="2"><path fill="#000" fill-rule="evenodd" stroke="none" d="M11.44 1.027a7 7 0 0 0-2.66.768c-1.359.713-2.347 1.716-3.02 3.065-.547 1.096-.708 1.791-.761 3.3-.075 2.112-.283 3.204-.817 4.3-.315.646-.623 1.074-1.317 1.833-.686.75-.863 1.097-.865 1.689-.001.934.685 1.785 1.592 1.974.3.062 16.516.062 16.816 0 .369-.077.709-.266.995-.552a1.95 1.95 0 0 0 .395-2.264c-.11-.234-.683-.944-1.098-1.361a.98.98 0 0 0-1.688.6c-.013.12-.001.276.028.365.057.179.392.637.735 1.004l.234.252H3.982l.304-.31c1.364-1.393 2.077-2.756 2.451-4.686.146-.755.221-1.509.263-2.664.05-1.366.145-1.808.564-2.625A4.99 4.99 0 0 1 14.1 3.471c.47.207.635.233.928.148.312-.09.577-.351.668-.656.081-.274.08-.344-.004-.606-.098-.302-.29-.483-.735-.694a7 7 0 0 0-3.517-.636m6.255 3.03a1.04 1.04 0 0 0-.567.459l-.108.184-.012 1.15L16.995 7h-1.051c-1.147 0-1.301.022-1.562.221-.08.061-.195.194-.254.295-.091.156-.108.23-.108.484 0 .256.016.328.111.489.061.103.173.236.25.294.261.2.357.213 1.527.215L16.995 9l.013 1.153.012 1.154.121.196a.998.998 0 0 0 1.718 0l.121-.196.012-1.154L19.005 9l1.087-.002c1.17-.002 1.266-.015 1.527-.215.077-.058.189-.191.25-.294.095-.161.111-.233.111-.489 0-.254-.017-.328-.108-.484a1.2 1.2 0 0 0-.254-.295C21.357 7.022 21.203 7 20.056 7h-1.051l-.013-1.15-.012-1.15-.108-.184a1.005 1.005 0 0 0-1.177-.459M9.946 20.065c-.248.076-.548.368-.617.6-.084.282-.062.536.069.799.259.518.797 1.01 1.382 1.265.473.206.687.25 1.22.25s.747-.044 1.22-.25c.42-.183.763-.443 1.092-.827.499-.584.545-1.167.124-1.589-.361-.362-.885-.408-1.288-.113a1.6 1.6 0 0 0-.288.303c-.167.235-.322.36-.542.438-.435.153-.895-.016-1.175-.431-.211-.314-.56-.514-.883-.507a1.4 1.4 0 0 0-.314.062"/></svg>