<svg xmlns="http://www.w3.org/2000/svg" width="24" height="24" fill="none" stroke="currentColor" stroke-linecap="round" stroke-linejoin="round" stroke-width="2"><path fill="#000" fill-rule="evenodd" stroke="none" d="M8.207 1.043A8.06 8.06 0 0 0 3.9 2.847a7.9 7.9 0 0 0-2.1 2.682 7.99 7.99 0 0 0 .989 8.511c.289.358.979 1.034 1.304 1.279l.233.175-.193.163c-.53.449-.824.882-1.019 1.504-.092.292-.094.335-.094 1.839 0 1.503.002 1.547.094 1.84a3.09 3.09 0 0 0 2.046 2.046l.3.094h7.08l.3-.094c1.194-.372 2.045-1.408 2.145-2.608.023-.282.037-.321.111-.336.046-.01.264-.048.484-.085.951-.16 2.081-.585 2.829-1.063l.188-.121.252.1c.447.178.592.204 1.151.205.456.001.587-.013.84-.092a3.09 3.09 0 0 0 2.046-2.046c.078-.252.093-.387.093-.84s-.015-.588-.093-.84a3.07 3.07 0 0 0-2.025-2.035c-.273-.083-.403-.098-.861-.098s-.588.015-.861.098a3.07 3.07 0 0 0-2.025 2.035c-.081.258-.094.379-.091.86.003.46.019.607.09.82.047.143.086.282.086.309.001.067-.65.372-1.119.525-.351.115-.894.246-1.018.246q-.053.001-.082-.269c-.083-.775-.449-1.432-1.113-1.994l-.193-.163.233-.175c.325-.245 1.015-.921 1.304-1.279a7.99 7.99 0 0 0 .989-8.511 7.9 7.9 0 0 0-2.1-2.682c-1.617-1.353-3.763-2.01-5.893-1.804m1.357 1.996a5.99 5.99 0 0 1 5.107 4.021c.497 1.457.397 3.191-.261 4.52-.86 1.736-2.354 2.898-4.25 3.305-.606.13-1.714.13-2.32 0-1.899-.407-3.389-1.566-4.25-3.305-.658-1.329-.758-3.063-.261-4.52a5.9 5.9 0 0 1 1.402-2.255 5.92 5.92 0 0 1 4.833-1.766m8.903.026c-.399.122-.699.584-.658 1.012.011.112.103.372.229.644.583 1.253.828 2.243.938 3.792.03.411.075.801.102.867.302.758 1.37.826 1.788.113.137-.234.163-.594.097-1.384-.105-1.274-.352-2.366-.782-3.471-.294-.753-.555-1.251-.733-1.398-.277-.228-.614-.288-.981-.175m-9.772 4.99a1.05 1.05 0 0 0-.567.461c-.091.156-.108.23-.108.484 0 .257.016.327.113.492.518.882 1.865.526 1.865-.492a.99.99 0 0 0-.535-.888 1.17 1.17 0 0 0-.768-.057m11.639 7.009c.364.124.666.549.666.937 0 .487-.405.937-.888.986-.319.033-.53-.042-.775-.273-.319-.302-.401-.604-.276-1.024.154-.518.742-.807 1.273-.626m-8.024 1.997c.279.083.546.35.629.629.084.282.089 2.325.006 2.6a1.02 1.02 0 0 1-.461.582l-.184.108H5.7l-.184-.108a1.05 1.05 0 0 1-.458-.556c-.086-.245-.084-2.334.003-2.626.079-.269.351-.547.612-.627.288-.088 6.34-.091 6.637-.002"/></svg>