<svg xmlns="http://www.w3.org/2000/svg" width="24" height="24" fill="none" stroke="currentColor" stroke-linecap="round" stroke-linejoin="round" stroke-width="2"><path fill="#000" fill-rule="evenodd" stroke="none" d="M3.477 2.073c-.671.176-1.239.75-1.417 1.435C2.01 3.7 2 4.18 2 6.5c0 3.001-.001 2.984.225 3.43.136.269.576.709.845.845.466.236.15.225 6.423.225 6.29 0 5.971.011 6.444-.229.26-.132.702-.574.834-.834.229-.452.229-.448.228-3.423 0-2.956-.004-3.009-.218-3.431-.135-.267-.484-.634-.764-.802-.487-.293-.092-.276-6.517-.276-5.316 0-5.78.005-6.023.068M15 6.5V9H4V4h11zm6.64 1.569c-.152.052-.432.312-1.793 1.666-.887.883-1.661 1.686-1.72 1.785-.09.152-.107.226-.107.48s.016.328.107.48c.134.224 3.244 3.327 3.428 3.419.454.229 1.046.045 1.312-.407.097-.165.113-.234.112-.492 0-.213-.022-.341-.074-.44-.041-.077-.616-.684-1.279-1.35L20.422 12l1.204-1.21c.663-.665 1.238-1.273 1.279-1.35.052-.099.074-.227.074-.44.001-.255-.015-.328-.107-.484a1.01 1.01 0 0 0-1.232-.447M3.477 13.073c-.671.176-1.239.75-1.417 1.435C2.01 14.7 2 15.18 2 17.5c0 3.001-.001 2.984.225 3.43.136.269.576.709.845.845.466.236.15.225 6.423.225 6.29 0 5.971.011 6.444-.229.26-.132.702-.574.834-.834.229-.452.229-.448.228-3.423 0-2.956-.004-3.009-.218-3.431-.135-.267-.484-.634-.764-.802-.487-.293-.092-.276-6.517-.276-5.316 0-5.78.005-6.023.068M15 17.5V20H4v-5h11z"/></svg>