<svg xmlns="http://www.w3.org/2000/svg" width="24" height="24" fill="none" stroke="currentColor" stroke-linecap="round" stroke-linejoin="round" stroke-width="2"><path fill="#000" fill-rule="evenodd" stroke="none" d="M3.477 2.073c-.671.176-1.239.75-1.417 1.435C2.008 3.706 2 4.521 2 9.5c0 6.281-.011 5.964.225 6.43.136.269.576.709.845.845.446.226.429.225 3.43.225s2.984.001 3.43-.225c.266-.135.708-.575.841-.838.24-.473.229-.156.228-6.423 0-6.222.008-5.987-.218-6.431-.135-.267-.484-.634-.764-.802-.462-.278-.437-.276-3.517-.276-2.48 0-2.787.007-3.023.068m11 0c-.671.176-1.239.75-1.417 1.435-.052.198-.06 1.013-.06 5.992 0 6.281-.011 5.964.225 6.43.136.269.576.709.845.845.446.226.429.225 3.43.225s2.984.001 3.43-.225c.266-.135.708-.575.841-.838.24-.473.229-.156.228-6.423 0-6.222.008-5.987-.218-6.431-.135-.267-.484-.634-.764-.802-.462-.278-.437-.276-3.517-.276-2.48 0-2.787.007-3.023.068M9 9.5V15H4V4h5zm11 0V15h-5V4h5zm-8.36 8.569c-.152.052-.432.312-1.793 1.666-.887.883-1.661 1.686-1.72 1.785-.09.152-.107.226-.107.48 0 .257.016.327.113.492.13.222.369.409.603.473.203.054.531.024.709-.066.074-.037.68-.61 1.345-1.273L12 20.422l1.21 1.204c.666.663 1.273 1.238 1.35 1.279.099.052.227.074.44.074.258.001.327-.015.492-.112.476-.28.646-.899.374-1.359-.055-.092-.826-.89-1.713-1.772-1.439-1.431-1.634-1.612-1.81-1.67a1.03 1.03 0 0 0-.703.003"/></svg>