<svg xmlns="http://www.w3.org/2000/svg" width="24" height="24" fill="none" stroke="currentColor" stroke-linecap="round" stroke-linejoin="round" stroke-width="2"><path fill="#000" fill-rule="evenodd" stroke="none" d="M8.477 2.073c-.671.176-1.239.75-1.417 1.435C7.01 3.7 7 4.18 7 6.5c0 3.001-.001 2.984.225 3.43.136.269.576.709.845.845.466.236.149.225 6.43.225s5.964.011 6.43-.225c.266-.135.708-.575.841-.838.229-.452.229-.448.228-3.423 0-2.956-.004-3.009-.218-3.431-.135-.267-.484-.634-.764-.802-.487-.293-.092-.276-6.517-.276-5.316 0-5.78.005-6.023.068M20 6.5V9H9V4h11zM1.67 8.061c-.222.081-.42.248-.542.455-.092.156-.108.229-.107.484 0 .213.022.341.074.44.041.077.616.685 1.279 1.35L3.578 12l-1.204 1.21c-.663.666-1.236 1.271-1.273 1.345-.229.454-.045 1.046.407 1.312.165.097.234.113.492.112.212 0 .341-.022.44-.074.192-.101 3.299-3.201 3.433-3.425.091-.152.107-.226.107-.48s-.017-.328-.107-.48c-.059-.099-.833-.902-1.72-1.784-1.439-1.431-1.634-1.612-1.81-1.67a1 1 0 0 0-.673-.005m6.807 5.012c-.671.176-1.239.75-1.417 1.435C7.01 14.7 7 15.18 7 17.5c0 3.001-.001 2.984.225 3.43.136.269.576.709.845.845.466.236.149.225 6.43.225s5.964.011 6.43-.225c.266-.135.708-.575.841-.838.229-.452.229-.448.228-3.423 0-2.956-.004-3.009-.218-3.431-.135-.267-.484-.634-.764-.802-.487-.293-.092-.276-6.517-.276-5.316 0-5.78.005-6.023.068M20 17.5V20H9v-5h11z"/></svg>