<svg xmlns="http://www.w3.org/2000/svg" width="24" height="24" fill="none" stroke="currentColor" stroke-linecap="round" stroke-linejoin="round" stroke-width="2"><path fill="#000" fill-rule="evenodd" stroke="none" d="M8.67 1.061c-.222.081-.42.248-.542.455-.092.156-.108.229-.107.484 0 .212.022.341.074.44.101.192 3.201 3.299 3.425 3.433.152.091.226.107.48.107s.328-.016.48-.107c.224-.134 3.324-3.241 3.425-3.433.052-.099.074-.228.074-.44.001-.255-.015-.328-.107-.484a1 1 0 0 0-1.215-.45c-.173.058-.345.213-1.427 1.288L12 3.576l-1.23-1.222c-1.082-1.075-1.254-1.23-1.427-1.288a1 1 0 0 0-.673-.005M3.477 7.073c-.671.176-1.239.75-1.417 1.435C2.008 8.706 2 9.521 2 14.5c0 6.281-.011 5.964.225 6.43.136.269.576.709.845.845.446.226.429.225 3.43.225s2.984.001 3.43-.225c.266-.135.708-.575.841-.838.24-.473.229-.156.228-6.423 0-6.222.008-5.987-.218-6.431-.135-.267-.484-.634-.764-.802-.462-.278-.437-.276-3.517-.276-2.48 0-2.787.007-3.023.068m11 0c-.671.176-1.239.75-1.417 1.435-.052.198-.06 1.013-.06 5.992 0 6.281-.011 5.964.225 6.43.136.269.576.709.845.845.446.226.429.225 3.43.225s2.984.001 3.43-.225c.266-.135.708-.575.841-.838.24-.473.229-.156.228-6.423 0-6.222.008-5.987-.218-6.431-.135-.267-.484-.634-.764-.802-.462-.278-.437-.276-3.517-.276-2.48 0-2.787.007-3.023.068M9 14.5V20H4V9h5zm11 0V20h-5V9h5z"/></svg>