<svg xmlns="http://www.w3.org/2000/svg" width="24" height="24" fill="none" stroke="currentColor" stroke-linecap="round" stroke-linejoin="round" stroke-width="2"><path fill="#000" fill-rule="evenodd" stroke="none" d="M9.48 1.026C7.094 1.189 5.207 2.344 3.803 4.5c-1.573 2.416-2.474 6.179-2.72 11.36-.132 2.767-.103 3.092.341 3.807.212.342.476.592.981.928 1.815 1.208 4.819 2.048 8.335 2.331.84.068 3.124.068 3.68 0 4.587-.558 8.035-3.424 8.522-7.083a6.03 6.03 0 0 0-1.975-5.334 5.975 5.975 0 0 0-6.719-.826 5.9 5.9 0 0 0-2.259 2.024l-.191.287-.269.025c-.534.049-1.349.237-1.742.401-.064.027-.07.015-.05-.105.012-.074.041-.594.063-1.155.073-1.83.16-2.565.357-3.024l.087-.203.228.037c.348.057 1.06.01 1.388-.091a3.09 3.09 0 0 0 2.019-2.019c.133-.429.152-1.089.046-1.604-.207-.997-.725-1.839-1.487-2.413-.867-.653-1.757-.899-2.958-.817m1.043 2.047a2.01 2.01 0 0 1 1.444 1.615c.083.544-.081.948-.481 1.183-.168.098-.223.109-.566.108-.526-.001-.743-.102-1.053-.49-.249-.313-.475-.45-.789-.48-.42-.04-.876.253-1.012.65-.131.385-.073.662.219 1.048l.201.265-.121.264c-.351.766-.481 1.608-.564 3.664-.073 1.771-.168 2.543-.377 3.059a4.4 4.4 0 0 1-.341.596c-.285.424-.575.985-.643 1.241-.052.197-.029.385.077.624.096.216.26.372.518.491a.7.7 0 0 0 .443.079c.447-.041.676-.233.98-.822a3.98 3.98 0 0 1 5.31-1.743 7 7 0 0 1 .572.332c.327.214.542.272.832.226.59-.095.973-.747.771-1.313-.087-.243-.235-.401-.604-.647-.351-.234-1.19-.662-1.297-.663-.081 0 .241-.323.559-.56a4.04 4.04 0 0 1 4.61-.136c.358.229.868.745 1.129 1.139.476.72.702 1.577.645 2.451-.083 1.266-.589 2.317-1.602 3.328-1.29 1.287-2.921 2.034-5.123 2.347-.472.067-2.597.065-3.42-.003-2.977-.246-5.509-.9-7.035-1.816-.542-.326-.72-.486-.765-.687-.049-.22.015-2.164.124-3.743.269-3.933 1.046-7.045 2.238-8.966C6.516 3.916 8.014 3.027 9.96 3.008c.165-.002.418.028.563.065"/></svg>