<svg xmlns="http://www.w3.org/2000/svg" width="24" height="24" fill="none" stroke="currentColor" stroke-linecap="round" stroke-linejoin="round" stroke-width="2"><path fill="#000" fill-rule="evenodd" stroke="none" d="M14.477 3.073c-.671.176-1.239.75-1.417 1.435a2.07 2.07 0 0 0 .165 1.422c.136.269.576.709.845.845a2.06 2.06 0 0 0 1.867-.004c.26-.132.702-.574.834-.834a2.05 2.05 0 0 0 .169-1.408 1.8 1.8 0 0 0-.475-.876 1.98 1.98 0 0 0-1.988-.58m-1.788 3.97c-.073.022-1.102.767-2.287 1.656C7.94 10.545 8.02 10.468 8.02 11c0 .254.016.327.107.48.059.099.73.801 1.49 1.56L11 14.42v1.64l.001 1.64.094.2c.181.381.5.588.905.588s.724-.207.905-.588l.094-.2.001-1.923c0-1.682-.008-1.947-.066-2.12s-.21-.342-1.236-1.377l-1.171-1.18.963-.72 1.114-.832.152-.112.757 1.132c.424.634.814 1.173.884 1.224.265.194.373.208 1.618.206 1.253-.002 1.34-.013 1.604-.215.077-.058.189-.191.25-.294.095-.161.111-.233.111-.489 0-.254-.017-.328-.108-.484a1.2 1.2 0 0 0-.254-.295c-.249-.189-.434-.221-1.298-.221h-.786l-.917-1.37c-1.04-1.554-1.061-1.576-1.539-1.61a1.4 1.4 0 0 0-.389.023M4.9 13.045c-1.469.184-2.849 1.2-3.479 2.564a4.5 4.5 0 0 0 .256 4.255c.61.991 1.565 1.686 2.76 2.007.341.092.458.103 1.063.103s.722-.011 1.063-.103c1.987-.534 3.327-2.16 3.425-4.154.138-2.796-2.286-5.022-5.088-4.672m13 0c-1.469.184-2.849 1.2-3.479 2.564a4.5 4.5 0 0 0 .256 4.255c.61.991 1.565 1.686 2.76 2.007.341.092.458.103 1.063.103s.722-.011 1.063-.103c1.987-.534 3.327-2.16 3.425-4.154.138-2.796-2.286-5.022-5.088-4.672M6.02 15.06a2.5 2.5 0 0 1 1.695 1.302c.372.756.375 1.516.008 2.258a2.53 2.53 0 0 1-1.403 1.248c-.268.097-.355.108-.82.108s-.552-.011-.82-.108a2.53 2.53 0 0 1-1.62-2.888c.279-1.336 1.614-2.202 2.96-1.92m13 0a2.5 2.5 0 0 1 1.695 1.302c.372.756.375 1.516.008 2.258a2.53 2.53 0 0 1-1.403 1.248c-.268.097-.355.108-.82.108s-.552-.011-.82-.108a2.53 2.53 0 0 1-1.403-1.248c-.93-1.88.695-3.989 2.743-3.56"/></svg>