<svg xmlns="http://www.w3.org/2000/svg" width="24" height="24" fill="none" stroke="currentColor" stroke-linecap="round" stroke-linejoin="round" stroke-width="2"><path fill="#000" fill-rule="evenodd" stroke="none" d="M7.499 3.04a3.05 3.05 0 0 0-2.385 2.12c-.092.293-.094.337-.094 1.84s.002 1.547.094 1.84a3.09 3.09 0 0 0 2.046 2.046c.252.078.387.093.84.093s.588-.015.84-.093a3.09 3.09 0 0 0 2.046-2.046c.092-.293.094-.337.094-1.84s-.002-1.547-.094-1.84c-.306-.982-1.076-1.753-2.025-2.031-.361-.106-1.029-.149-1.362-.089m6.196.017a1.04 1.04 0 0 0-.567.459c-.091.156-.108.23-.108.484 0 .256.016.328.111.489.125.213.318.375.539.454.098.035.353.054.74.055L15 5v4h-.554c-.798 0-1.079.11-1.318.516-.091.156-.108.23-.108.484 0 .256.016.328.111.489.125.213.318.375.539.454.219.078 4.441.078 4.66 0 .221-.079.414-.241.539-.454.095-.161.111-.233.111-.489 0-.254-.017-.328-.108-.484-.239-.406-.52-.516-1.317-.516h-.553l-.011-2.65-.011-2.65-.108-.184a1.02 1.02 0 0 0-.582-.461c-.251-.076-2.353-.074-2.595.002M8.31 5.061a.9.9 0 0 1 .387.242c.283.284.303.394.303 1.698 0 1.206-.02 1.353-.221 1.617-.061.08-.194.195-.295.254-.156.091-.23.108-.484.108s-.328-.017-.484-.108a1.2 1.2 0 0 1-.291-.249C7.014 8.347 7 8.245 7 7.022c0-1.327.019-1.435.304-1.719q.417-.418 1.006-.242m-2.615 7.996a1.04 1.04 0 0 0-.567.459c-.091.156-.108.23-.108.484 0 .256.016.328.111.489.125.213.318.375.539.454.098.035.353.054.74.055L7 15v4h-.554c-.798 0-1.079.11-1.318.516-.091.156-.108.23-.108.484 0 .256.016.328.111.489.125.213.318.375.539.454.219.078 4.441.078 4.66 0 .221-.079.414-.241.539-.454.095-.161.111-.233.111-.489 0-.254-.017-.328-.108-.484-.239-.406-.52-.516-1.317-.516h-.553l-.011-2.65-.011-2.65-.108-.184a1.02 1.02 0 0 0-.582-.461c-.251-.076-2.353-.074-2.595.002m9.804-.017a3.05 3.05 0 0 0-2.385 2.12c-.092.293-.094.337-.094 1.84s.002 1.547.094 1.84a3.09 3.09 0 0 0 2.046 2.046c.252.078.387.093.84.093s.588-.015.84-.093a3.09 3.09 0 0 0 2.046-2.046c.092-.293.094-.337.094-1.84s-.002-1.547-.094-1.84c-.306-.982-1.076-1.753-2.025-2.031-.361-.106-1.029-.149-1.362-.089m.811 2.021c.279.083.546.35.629.629.084.282.089 2.325.006 2.6a1.02 1.02 0 0 1-.461.582c-.156.091-.23.108-.484.108s-.328-.017-.484-.108a1.2 1.2 0 0 1-.291-.249c-.211-.276-.225-.378-.225-1.601 0-1.324.019-1.435.301-1.716.285-.285.609-.364 1.009-.245"/></svg>