<svg xmlns="http://www.w3.org/2000/svg" width="24" height="24" fill="none" stroke="currentColor" stroke-linecap="round" stroke-linejoin="round" stroke-width="2"><path fill="#000" fill-rule="evenodd" stroke="none" d="M5.477 2.073c-.671.176-1.239.75-1.417 1.435-.047.179-.06.502-.06 1.497v1.268l-.138.086c-.193.119-.528.496-.644.726-.202.397-.218.547-.219 2.033 0 1.099-.013 1.435-.061 1.642-.087.368-.374.944-.898 1.8-.533.872-.752 1.296-.906 1.76l-.114.34v4.88l.094.3a3.09 3.09 0 0 0 2.046 2.046l.3.094h5.08l.3-.094a3.11 3.11 0 0 0 2.044-2.026c.085-.263.092-.358.107-1.57l.016-1.29h1.986l.016 1.29c.015 1.212.022 1.307.107 1.57a3.11 3.11 0 0 0 2.044 2.026l.3.094h5.08l.3-.094a3.09 3.09 0 0 0 2.046-2.046l.094-.3v-4.88l-.114-.34c-.154-.464-.373-.888-.906-1.76-.524-.856-.811-1.432-.898-1.8-.048-.206-.061-.543-.062-1.62-.001-1.466-.023-1.671-.218-2.055-.116-.23-.451-.607-.644-.726L20 6.273l-.001-1.246c0-1.346-.025-1.563-.218-1.944-.23-.455-.759-.88-1.258-1.01-.389-.101-2.657-.101-3.046 0-.671.176-1.239.75-1.417 1.435-.047.179-.06.502-.06 1.497v1.268l-.138.086c-.193.119-.528.496-.644.726-.174.342-.218.602-.218 1.283V9h-2l-.001-.61c0-.666-.053-.982-.217-1.305-.116-.23-.451-.607-.644-.726L10 6.273l-.001-1.246c0-1.346-.025-1.563-.218-1.944-.23-.455-.759-.88-1.258-1.01-.389-.101-2.657-.101-3.046 0M8 5v1H6V4h2zm10 0v1h-2V4h2zm-9 6.5V15H3.031l.028-.11c.044-.182.271-.6.745-1.375.5-.818.864-1.546.995-1.987.182-.619.201-.828.201-2.212V8h4zm10-2.184c0 1.385.023 1.639.206 2.236.13.426.505 1.169.99 1.963.474.775.701 1.193.745 1.375l.028.11H15V8h4zM13 13v2h-2v-4h2zm-4 5.054c0 1.149-.022 1.302-.221 1.564-.061.08-.194.195-.295.254l-.184.108H3.7l-.184-.108a1.2 1.2 0 0 1-.291-.249C3.016 19.349 3 19.241 3 18.075V17h6zm12 0c0 1.149-.022 1.302-.221 1.564-.061.08-.194.195-.295.254l-.184.108h-4.6l-.184-.108a1.2 1.2 0 0 1-.291-.249c-.209-.274-.225-.382-.225-1.548V17h6z"/></svg>