<svg xmlns="http://www.w3.org/2000/svg" width="24" height="24" fill="none" stroke="currentColor" stroke-linecap="round" stroke-linejoin="round" stroke-width="2"><path fill="#000" fill-rule="evenodd" stroke="none" d="M6.44 2.435c-.394.129-.596.358-.755.857-.255.794-.303 1.124-.304 2.068-.001.757.011.91.093 1.28.109.491.338 1.173.538 1.605l.142.305-.444.049a6.9 6.9 0 0 0-2.903.994c-.601.373-1.455 1.147-1.673 1.515-.357.604.055 1.407.759 1.48.389.04.575-.055 1.063-.543a7 7 0 0 1 .735-.638c1.474-1.012 3.447-1.121 4.995-.276l.345.189-.021.411c-.046.904.27 1.715.901 2.317.271.258.653.517.912.615l.177.068v.384c0 .687-.183 1.496-.464 2.054-.314.626-.879 1.311-1.416 1.72-.357.272-1.062.609-1.5.716-.198.048-.451.111-.563.14-.702.183-.969.969-.535 1.577.106.149.397.321.612.361.274.051 1.016-.113 1.718-.38 1.092-.416 2.241-1.328 2.914-2.313.086-.127.17-.23.185-.229.016.001.092.094.169.208a6.6 6.6 0 0 0 4.073 2.753c.462.102.663.098.907-.017.379-.18.587-.499.59-.904a.9.9 0 0 0-.251-.656c-.173-.198-.348-.282-.759-.365-.945-.192-1.677-.585-2.326-1.248-.94-.959-1.353-1.996-1.354-3.397v-.404l.177-.068c.451-.172 1.021-.649 1.328-1.111.359-.539.51-1.1.488-1.807l-.013-.434.44-.235c.755-.401 1.398-.567 2.2-.568.781-.001 1.408.142 2.058.468.485.244.763.455 1.267.966.267.27.546.523.62.564.096.051.222.073.435.073.258.001.327-.015.492-.112a.99.99 0 0 0 .495-.979c-.028-.274-.145-.466-.548-.898-1.098-1.179-2.532-1.89-4.174-2.069a4 4 0 0 1-.366-.05 3 3 0 0 1 .143-.356c.205-.466.371-.972.484-1.476.083-.369.094-.522.093-1.279-.001-.944-.049-1.274-.304-2.068-.197-.616-.493-.87-1.015-.87-.331 0-.529.088-.748.33-.268.297-.309.625-.143 1.148a4.67 4.67 0 0 1-.269 3.546 4.53 4.53 0 0 1-1.813 1.942l-.372.22-.237-.167C13.202 9.08 12.675 8.92 12 8.92s-1.202.16-1.718.521l-.237.167-.372-.22A4.53 4.53 0 0 1 7.86 7.446 4.68 4.68 0 0 1 7.59 3.9c.114-.363.128-.655.04-.863a1.2 1.2 0 0 0-.483-.524c-.176-.089-.548-.13-.707-.078m4.92 1.847c-.559.041-1.139.145-1.316.237a.98.98 0 0 0-.534.881.93.93 0 0 0 .33.733c.307.276.51.311 1.16.204.23-.038.625-.063 1-.063s.77.025 1 .063c.512.084.665.079.9-.032.381-.181.588-.5.588-.905a.97.97 0 0 0-.532-.881c-.185-.096-.747-.193-1.389-.24-.562-.041-.607-.041-1.207.003m1.031 6.7c.188.078.341.225.48.457.143.239.153.655.021.901-.19.357-.492.54-.892.54s-.702-.183-.892-.54c-.126-.236-.122-.663.008-.88.237-.393.472-.538.875-.539a1.3 1.3 0 0 1 .4.061m-7.269 2.001a1.04 1.04 0 0 0-.62.803c-.057.342.459 1.575.972 2.32.343.5.817 1.034 1.025 1.156.471.276 1.086.11 1.368-.37.097-.165.113-.234.112-.492-.001-.361-.043-.451-.398-.845a5.7 5.7 0 0 1-1.078-1.823c-.148-.392-.293-.58-.547-.707-.246-.122-.607-.141-.834-.042m12.922.042c-.254.127-.399.315-.547.707a5.7 5.7 0 0 1-1.078 1.823c-.355.394-.397.484-.398.845-.001.258.015.327.112.492.282.48.897.646 1.368.37.359-.211 1.141-1.234 1.492-1.953.36-.735.545-1.308.502-1.548a1.008 1.008 0 0 0-1.451-.736"/></svg>