<svg xmlns="http://www.w3.org/2000/svg" width="24" height="24" fill="none" stroke="currentColor" stroke-linecap="round" stroke-linejoin="round" stroke-width="2"><path fill="#000" fill-rule="evenodd" stroke="none" d="M15.38 2.027a5.13 5.13 0 0 0-3.21 1.753c-.258.31-10.962 15.588-11.069 15.8-.059.116-.081.238-.081.443 0 .245.016.31.121.48.222.36.616.542 1.038.479.345-.051.505-.209 1.151-1.132l.595-.85h5.07l.013 1.153.012 1.154.121.196a.998.998 0 0 0 1.718 0l.121-.196.012-1.154.013-1.153h.727c.401 0 .848-.012.996-.026l.267-.025.013 1.179.012 1.178.121.197a.998.998 0 0 0 1.718 0l.121-.197.012-1.406.012-1.406.328-.132a9.04 9.04 0 0 0 5.609-7.354c.035-.299.059-.862.059-1.369v-.862l.55-.134c.832-.204.922-.236 1.095-.393.493-.445.461-1.147-.07-1.552-.13-.099-.293-.157-.76-.274-.327-.081-.66-.165-.74-.186-.132-.035-.146-.053-.168-.213a5.02 5.02 0 0 0-4.204-3.982 8 8 0 0 0-1.323-.016m1.348 2.069c.883.224 1.547.755 1.949 1.558.305.61.303.588.303 2.906 0 2.147-.015 2.4-.185 3.1-.605 2.49-2.595 4.499-5.07 5.117a6.7 6.7 0 0 1-1.395.208l-.43.025.183-.195a6.8 6.8 0 0 0 1.217-1.784c.734-1.534.894-3.193.461-4.812a6.8 6.8 0 0 0-1.37-2.685l-.235-.285.751-1.075c.465-.665.851-1.173 1.014-1.334a2.94 2.94 0 0 1 2.807-.744m-1.033 1.959a1.05 1.05 0 0 0-.567.461c-.091.156-.108.23-.108.484 0 .257.016.327.113.492.518.882 1.865.526 1.865-.492a.99.99 0 0 0-.535-.888 1.17 1.17 0 0 0-.768-.057M11.481 9.82a4.83 4.83 0 0 1 .488 2.65 4.8 4.8 0 0 1-.489 1.715c-.684 1.406-1.876 2.338-3.48 2.722-.193.046-.571.067-1.471.081l-1.21.02 2.726-3.894a1129 1129 0 0 1 2.825-4.027l.099-.134.139.194c.076.106.244.409.373.673"/></svg>