<svg xmlns="http://www.w3.org/2000/svg" width="24" height="24" fill="none" stroke="currentColor" stroke-linecap="round" stroke-linejoin="round" stroke-width="2"><path fill="#000" fill-rule="evenodd" stroke="none" d="M10.305 1.679a1.2 1.2 0 0 0-.525.401c-.076.11-.134.289-.202.627-.052.26-.096.509-.097.553-.005.185-.039.192-.533.103a5 5 0 0 0-.687-.083.97.97 0 0 0-.919.687c-.077.26-.077.327.001.591s.37.574.602.64c.085.024.375.083.645.13.27.048.49.106.491.129.002.093-2.054 11.725-2.077 11.75-.013.014-.267-.018-.564-.072-.605-.11-.809-.102-1.06.045-.34.198-.507.48-.511.859-.003.361.222.741.535.903.086.044 1.105.258 1.231.258.017 0-.015.269-.071.597-.09.526-.096.62-.052.79a.99.99 0 0 0 .878.761.9.9 0 0 0 .684-.188c.256-.186.348-.389.462-1.015.055-.305.107-.562.116-.571.015-.014 1.911.307 1.941.329.007.005-.026.222-.073.483-.118.654-.115.842.018 1.113.374.764 1.468.727 1.797-.061.032-.076.096-.354.142-.618.047-.264.094-.52.105-.57.017-.081.044-.09.249-.09.608-.001 1.458-.236 2.026-.561 1.362-.779 2.184-2.152 2.251-3.759.019-.452.008-.613-.063-.987a4.25 4.25 0 0 0-.749-1.773 7 7 0 0 1-.225-.326c-.006-.014.124-.116.289-.226 1.632-1.094 2.372-3.225 1.774-5.108a4.46 4.46 0 0 0-2.446-2.703 9 9 0 0 1-.324-.143c-.008-.007.034-.299.094-.65.104-.608.106-.648.047-.852-.068-.234-.285-.519-.467-.613a1.03 1.03 0 0 0-1.062.063c-.264.182-.368.397-.478.987-.053.281-.096.534-.097.561 0 .028-.041.05-.091.049-.13-.001-1.834-.309-1.861-.337-.013-.013.016-.245.064-.517.107-.609.108-.795.004-1.025a.94.94 0 0 0-.856-.584 1.3 1.3 0 0 0-.356.023m2.435 4.383c1.668.293 1.793.323 2.24.537a2.4 2.4 0 0 1 1.241 1.413c.129.406.137.987.02 1.444-.301 1.175-1.39 1.914-2.661 1.806a43 43 0 0 1-1.84-.298l-1.52-.271.013-.117c.013-.126.793-4.578.828-4.727.016-.069.041-.085.11-.069.049.012.755.139 1.569.282m-1.2 6.896c.858.153 1.677.317 1.82.364.859.282 1.509.958 1.7 1.768.105.447.053 1.102-.123 1.55a2.44 2.44 0 0 1-1.734 1.463c-.473.106-.941.064-2.663-.242a59 59 0 0 1-1.535-.283c-.008-.008.177-1.099.411-2.426s.425-2.425.425-2.442c-.001-.051.098-.037 1.699.248"/></svg>