<svg xmlns="http://www.w3.org/2000/svg" width="24" height="24" fill="none" stroke="currentColor" stroke-linecap="round" stroke-linejoin="round" stroke-width="2"><path fill="#000" fill-rule="evenodd" stroke="none" d="M8.207 1.043A8.06 8.06 0 0 0 3.9 2.847a7.9 7.9 0 0 0-2.1 2.682 7.99 7.99 0 0 0 .989 8.511c.286.354.972 1.027 1.311 1.286a8.6 8.6 0 0 0 2.929 1.432c.153.04.173.06.213.213A8.6 8.6 0 0 0 8.674 19.9c.259.339.932 1.025 1.286 1.311a7.99 7.99 0 0 0 8.514.988 7.6 7.6 0 0 0 2.267-1.645 7.4 7.4 0 0 0 1.459-2.083 7.94 7.94 0 0 0 0-6.942 7.5 7.5 0 0 0-1.399-2.025 7.8 7.8 0 0 0-2.302-1.687c-.496-.243-1.412-.577-1.581-.577-.093 0-.097-.01-.315-.7-.45-1.426-1.31-2.696-2.503-3.693-1.617-1.353-3.763-2.01-5.893-1.804m1.357 1.996c2.144.209 3.95 1.486 4.871 3.443.087.186.17.378.184.426.028.098-.003.108-.517.152-1.419.122-3.032.808-4.202 1.787-1.684 1.408-2.662 3.283-2.88 5.525-.032.326.009.327-.687-.014a6 6 0 0 1-3.004-3.418c-.497-1.457-.397-3.191.261-4.52a5.8 5.8 0 0 1 1.141-1.615 5.92 5.92 0 0 1 4.833-1.766m5.435 6.051a7 7 0 0 1-.328 1.85c-.773 2.268-2.873 3.876-5.281 4.045l-.39.027.001-.096a7 7 0 0 1 .328-1.856c.749-2.197 2.752-3.79 5.051-4.017.581-.058.62-.055.619.047m2.519.475c1.281.603 2.25 1.56 2.892 2.855.658 1.329.758 3.063.261 4.52-.683 2.004-2.38 3.488-4.511 3.945-.606.13-1.714.13-2.32 0-1.924-.413-3.451-1.616-4.275-3.367-.251-.535-.255-.507.063-.538 1.681-.164 3.159-.756 4.412-1.769a11 11 0 0 0 1.286-1.311c.949-1.243 1.497-2.656 1.654-4.272.031-.318.003-.314.538-.063"/></svg>