<svg xmlns="http://www.w3.org/2000/svg" width="24" height="24" fill="none" stroke="currentColor" stroke-linecap="round" stroke-linejoin="round" stroke-width="2"><path fill="#000" fill-rule="evenodd" stroke="none" d="M2.695 2.057a1.04 1.04 0 0 0-.567.459c-.092.156-.108.23-.108.487 0 .268.014.326.121.5.147.239.437.443.68.479L3 4.009v12.136l-.33.168a3.1 3.1 0 0 0-1.556 1.847c-.135.434-.135 1.246 0 1.68a3.09 3.09 0 0 0 2.046 2.046c.434.135 1.246.135 1.68 0a3.09 3.09 0 0 0 2.046-2.046c.135-.434.135-1.246 0-1.68a3.1 3.1 0 0 0-1.556-1.847L5 16.145V4l8.09-.002c6.654-.001 8.117-.011 8.24-.055.221-.079.414-.241.539-.454.095-.161.111-.233.111-.489 0-.254-.017-.328-.108-.484a1.02 1.02 0 0 0-.582-.461c-.263-.079-18.343-.077-18.595.002m5 4a1.04 1.04 0 0 0-.567.459c-.091.156-.108.23-.108.484 0 .256.016.328.111.489.125.213.318.375.539.454s12.438.079 12.66 0 .414-.241.539-.454c.095-.161.111-.233.111-.489 0-.254-.017-.328-.108-.484a1.02 1.02 0 0 0-.582-.461c-.262-.079-12.343-.077-12.595.002m0 4a1.04 1.04 0 0 0-.567.459c-.091.156-.108.23-.108.484 0 .256.016.328.111.489.125.213.318.375.539.454.123.044 1.268.053 6.33.053s6.207-.009 6.33-.053c.221-.079.414-.241.539-.454.095-.161.111-.233.111-.489 0-.254-.017-.328-.108-.484a1.02 1.02 0 0 0-.582-.461c-.262-.079-12.343-.077-12.595.002m0 4a1.04 1.04 0 0 0-.567.459c-.091.156-.108.23-.108.484 0 .256.016.328.111.489.125.213.318.375.539.454.123.044 1.268.053 6.33.053s6.207-.009 6.33-.053c.221-.079.414-.241.539-.454.095-.161.111-.233.111-.489 0-.254-.017-.328-.108-.484a1.02 1.02 0 0 0-.582-.461c-.262-.079-12.343-.077-12.595.002M4.31 18.061c.378.112.69.537.69.94 0 .33-.216.695-.516.871-.156.091-.23.108-.484.108s-.328-.017-.484-.108c-.581-.342-.683-1.098-.212-1.569q.417-.418 1.006-.242m5.385-.004a1.04 1.04 0 0 0-.567.459c-.091.156-.108.23-.108.484 0 .256.016.328.111.489.125.213.318.375.539.454s10.438.079 10.66 0 .414-.241.539-.454c.095-.161.111-.233.111-.489 0-.254-.017-.328-.108-.484a1.02 1.02 0 0 0-.582-.461c-.262-.079-10.344-.077-10.595.002"/></svg>