<svg xmlns="http://www.w3.org/2000/svg" width="24" height="24" fill="none" stroke="currentColor" stroke-linecap="round" stroke-linejoin="round" stroke-width="2"><path fill="#000" fill-rule="evenodd" stroke="none" d="M1.67 1.061c-.222.081-.42.248-.542.455-.092.156-.108.229-.107.484 0 .212.022.341.074.44.04.077 2.19 2.259 4.779 4.85L10.579 12l-2.205 2.21c-1.213 1.215-2.239 2.273-2.279 2.35-.052.099-.074.228-.074.44-.001.258.015.327.112.492.13.222.369.409.603.473.203.054.531.024.709-.066.074-.037.905-.835 1.845-1.773L11 14.421v3.865c0 4.205-.009 4.03.225 4.337.059.077.19.19.291.249.156.092.229.108.484.107.212 0 .341-.022.44-.074.077-.04 1.134-1.066 2.35-2.279L17 18.421l2.21 2.205c1.215 1.213 2.273 2.239 2.35 2.279.099.052.228.074.44.074.258.001.327-.015.492-.112.476-.28.647-.9.373-1.359-.055-.092-4.65-4.715-10.212-10.273C3.3 1.889 2.525 1.125 2.343 1.065a1 1 0 0 0-.673-.004m9.98.006c-.094.033-.25.139-.346.236-.312.311-.304.232-.304 2.974l.001 2.423.094.2c.181.381.5.588.905.588s.724-.207.905-.588c.092-.196.094-.224.095-1.34V4.42l1.29 1.29L15.58 7l-.924.93c-.509.511-.961.984-1.005 1.05-.191.283-.182.764.019 1.068.297.448.951.577 1.385.273.245-.17 2.764-2.718 2.85-2.881.052-.099.074-.227.074-.44.001-.255-.015-.327-.106-.48-.061-.102-1.241-1.31-2.72-2.785-2.37-2.363-2.631-2.611-2.81-2.67a1.03 1.03 0 0 0-.693.002m2.64 17.223L13 19.58v-5.16l1.29 1.29L15.58 17z"/></svg>