<svg xmlns="http://www.w3.org/2000/svg" width="24" height="24" fill="none" stroke="currentColor" stroke-linecap="round" stroke-linejoin="round" stroke-width="2"><path fill="#000" fill-rule="evenodd" stroke="none" d="M11.695 1.055a1.05 1.05 0 0 0-.567.461l-.108.184-.011 3.938-.011 3.938-1.729-1.724C7.616 6.203 7.53 6.125 7.323 6.064c-.266-.078-.377-.08-.613-.009a1.02 1.02 0 0 0-.582.461c-.092.156-.108.229-.107.484 0 .212.022.341.074.44.04.077 1.066 1.135 2.279 2.35L10.579 12l-2.205 2.21c-1.213 1.216-2.239 2.273-2.279 2.35-.052.099-.074.228-.074.44-.001.258.015.327.112.492.13.222.369.409.603.473.203.054.531.024.709-.066.074-.037.905-.835 1.845-1.773L11 14.421v3.865c0 4.205-.009 4.03.225 4.337.059.077.19.19.291.249.156.091.23.108.484.108s.328-.016.48-.107c.226-.135 5.325-5.241 5.425-5.433.102-.194.102-.686 0-.88-.04-.077-1.066-1.134-2.279-2.35L13.421 12l2.205-2.21c1.213-1.215 2.239-2.273 2.279-2.35.052-.099.074-.228.074-.44.001-.255-.015-.327-.106-.48-.154-.258-5.251-5.328-5.446-5.417a1.16 1.16 0 0 0-.732-.048M14.29 8.29 13 9.58V4.42l1.29 1.29L15.58 7zm6.317-.087c-.41.08-.767.514-.767.932.001.334.065.482.364.834.335.394.53.728.669 1.144.09.273.102.372.102.887s-.012.614-.102.887c-.139.416-.334.75-.669 1.144-.315.371-.382.538-.356.895a.99.99 0 0 0 .792.88c.185.039.258.035.46-.023.209-.06.279-.109.542-.376.618-.63 1.058-1.48 1.265-2.447.101-.471.101-1.449 0-1.92-.202-.944-.634-1.79-1.24-2.428-.353-.372-.655-.488-1.06-.409m-2.912 2.852a1.05 1.05 0 0 0-.567.461c-.091.156-.108.23-.108.484 0 .257.016.327.113.492.518.882 1.865.526 1.865-.492a.99.99 0 0 0-.535-.888 1.17 1.17 0 0 0-.768-.057M14.29 18.29 13 19.58v-5.16l1.29 1.29L15.58 17z"/></svg>