<svg xmlns="http://www.w3.org/2000/svg" width="24" height="24" fill="none" stroke="currentColor" stroke-linecap="round" stroke-linejoin="round" stroke-width="2"><path fill="#000" fill-rule="evenodd" stroke="none" d="M6.477 3.073c-.671.176-1.239.75-1.417 1.435-.09.346-.09 14.638 0 14.984.186.714.815 1.322 1.519 1.468.14.029 1.624.038 4.663.029 4.109-.012 4.481-.018 4.758-.084 1.543-.366 2.756-1.291 3.433-2.617.229-.449.372-.849.474-1.328.101-.471.101-1.449 0-1.92-.283-1.325-1.04-2.458-2.12-3.177l-.353-.234.199-.205c.606-.622 1.073-1.525 1.274-2.464.053-.246.073-.512.073-.96 0-.899-.142-1.494-.547-2.287a5.02 5.02 0 0 0-3.193-2.551c-.582-.149-.973-.162-4.788-.16-3.375.002-3.736.009-3.975.071m8.384 2.049a3.07 3.07 0 0 1 2.014 2.017c.083.273.098.403.098.861s-.015.588-.098.861c-.29.95-1.031 1.695-2.015 2.025l-.28.094-3.79.011-3.79.012V4.997l3.77.012 3.77.012zm1 7.999a3.08 3.08 0 0 1 2.014 2.018c.083.273.098.403.098.861s-.015.588-.098.861c-.289.95-1.031 1.695-2.015 2.025l-.28.094-4.29.011-4.29.011v-6.004l4.27.011 4.27.011z"/></svg>