<svg xmlns="http://www.w3.org/2000/svg" width="24" height="24" fill="none" stroke="currentColor" stroke-linecap="round" stroke-linejoin="round" stroke-width="2"><path fill="#000" fill-rule="evenodd" stroke="none" d="M11.541 1.042a3 3 0 0 0-.841.268c-.11.054-1.825 1.027-3.811 2.161-2.252 1.286-3.691 2.131-3.822 2.246A3.13 3.13 0 0 0 2.114 7.2l-.094.3v9l.094.3c.236.756.681 1.35 1.307 1.746.43.272 6.978 3.996 7.279 4.139.48.23.765.294 1.3.294s.82-.064 1.3-.294c.301-.143 6.849-3.867 7.279-4.139a2.9 2.9 0 0 0 1.084-1.206c.339-.69.317-.312.317-5.34s.022-4.65-.317-5.34a2.8 2.8 0 0 0-.73-.943c-.207-.18-7.143-4.177-7.694-4.433a3.5 3.5 0 0 0-.496-.182 3.8 3.8 0 0 0-1.202-.06m.715 2.002c.264.073 7.3 4.113 7.473 4.291.283.29.271.086.271 4.665 0 4.584.012 4.374-.274 4.669-.108.111-1.203.758-3.707 2.189-1.955 1.117-3.625 2.056-3.712 2.086a.9.9 0 0 1-.614 0c-.087-.03-1.757-.969-3.712-2.086-2.504-1.431-3.599-2.078-3.707-2.189C3.988 16.374 4 16.584 4 12c0-4.579-.012-4.375.271-4.665.104-.107 1.266-.792 3.736-2.203 1.972-1.126 3.646-2.065 3.719-2.086a.9.9 0 0 1 .53-.002m-.856 4c-1.639.185-3.139 1.246-3.874 2.741-.368.748-.506 1.351-.506 2.215 0 .67.058 1.044.248 1.6.578 1.691 1.985 2.925 3.772 3.307.471.101 1.449.101 1.92 0 1.528-.327 2.788-1.277 3.473-2.619.405-.794.547-1.389.547-2.288s-.142-1.494-.547-2.287a5.02 5.02 0 0 0-3.193-2.551 5.2 5.2 0 0 0-1.84-.118m1.461 2.085c.943.276 1.723 1.054 2.014 2.01.083.273.098.403.098.861s-.015.588-.098.861a3.07 3.07 0 0 1-2.035 2.025c-.434.135-1.246.135-1.68 0a3.07 3.07 0 0 1-2.035-2.025c-.083-.273-.098-.403-.098-.861s.015-.588.098-.861a3.04 3.04 0 0 1 2.374-2.099c.333-.06 1.001-.017 1.362.089"/></svg>