<svg xmlns="http://www.w3.org/2000/svg" width="24" height="24" fill="none" stroke="currentColor" stroke-linecap="round" stroke-linejoin="round" stroke-width="2"><path fill="#000" fill-rule="evenodd" stroke="none" d="M17.466 1.039a4.4 4.4 0 0 0-.965.31c-.423.213-.669.416-1.527 1.262l-.885.874-.355-.104c-2.061-.601-4.478-.466-6.514.365-1.248.509-2.31 1.221-3.301 2.212a9.85 9.85 0 0 0-2.906 7.362c.071 2.119.739 4.008 2.02 5.72.397.53 1.272 1.424 1.767 1.807 1.442 1.114 2.987 1.777 4.8 2.06.647.101 2.153.101 2.8 0 2.238-.35 4.104-1.287 5.662-2.845s2.495-3.424 2.845-5.662c.101-.647.101-2.154-.001-2.8a11 11 0 0 0-.311-1.415l-.081-.275.855-.865c.891-.9 1.061-1.104 1.261-1.505.623-1.254.454-2.675-.446-3.745l-.256-.305.419-.415c.553-.548.633-.684.633-1.075 0-.254-.017-.328-.108-.484a1 1 0 0 0-1.212-.45c-.153.052-.298.166-.677.535l-.483.469-.295-.25a3.3 3.3 0 0 0-2.085-.801 4.4 4.4 0 0 0-.654.02m1.152 2.117c.198.098.414.293 1.19 1.072 1.118 1.123 1.172 1.205 1.172 1.773 0 .517-.114.717-.797 1.397-.297.296-.547.53-.556.52a26 26 0 0 1-.266-.398 9 9 0 0 0-1.299-1.581 9 9 0 0 0-1.582-1.297 12 12 0 0 1-.398-.267c-.034-.034 1.019-1.061 1.195-1.166a1.4 1.4 0 0 1 1.341-.053M12.34 5.119c1.904.326 3.544 1.274 4.812 2.781 2.45 2.914 2.45 7.272.001 10.2a7.9 7.9 0 0 1-2.682 2.1 7.94 7.94 0 0 1-6.942 0 7.9 7.9 0 0 1-2.682-2.1c-1.999-2.389-2.407-5.798-1.031-8.6a8.01 8.01 0 0 1 6.391-4.46c.517-.054 1.584-.015 2.133.079"/></svg>