<svg xmlns="http://www.w3.org/2000/svg" width="24" height="24" fill="none" stroke="currentColor" stroke-linecap="round" stroke-linejoin="round" stroke-width="2"><path fill="#000" fill-rule="evenodd" stroke="none" d="M5.873 1.063a3.5 3.5 0 0 0-1.915 1.042c-.396.419-.64.844-.828 1.443l-.11.352v16.2l.11.352c.381 1.214 1.204 2.037 2.418 2.418l.352.11 6.66.011c4.547.007 6.724-.003 6.862-.031.516-.108 1.116-.562 1.349-1.023.244-.482.229.19.228-9.923 0-10.04.012-9.478-.218-9.931-.135-.267-.484-.634-.764-.802-.49-.295-.001-.277-7.297-.275-5.398.001-6.594.011-6.847.057M19 9.5V16h-6.375c-6.926 0-6.729-.006-7.329.22a4 4 0 0 1-.282.1c-.008 0-.011-2.74-.005-6.09l.011-6.09.112-.24c.198-.425.624-.776 1.042-.858.091-.018 3.015-.035 6.496-.038L19 3zm-7.42-3.404c-.156.075-.551.449-1.806 1.71-.883.888-1.639 1.677-1.679 1.754-.052.099-.074.228-.074.44-.001.258.015.327.112.492.13.222.369.409.603.473.203.054.531.024.709-.066.074-.038.454-.385.844-.771l.708-.702.012 1.94.011 1.94.121.197a.998.998 0 0 0 1.718 0l.121-.197.011-1.94.012-1.94.708.702c.39.386.772.736.849.776.1.053.227.075.44.075.258.001.327-.015.492-.112.222-.13.409-.369.473-.603a1.2 1.2 0 0 0-.066-.709c-.037-.074-.79-.861-1.673-1.749C12.472 6.043 12.42 6.001 12 6.001a.95.95 0 0 0-.42.095M19 19.5v1.501l-6.43-.011-6.43-.01-.24-.112a1.68 1.68 0 0 1-.765-.764c-.095-.208-.111-.296-.111-.604-.001-.309.015-.394.11-.6.194-.423.621-.776 1.04-.858.091-.018 3.015-.035 6.496-.038L19 18z"/></svg>