<svg xmlns="http://www.w3.org/2000/svg" width="24" height="24" fill="none" stroke="currentColor" stroke-linecap="round" stroke-linejoin="round" stroke-width="2"><path fill="#000" fill-rule="evenodd" stroke="none" d="M5.873 1.063a3.5 3.5 0 0 0-1.915 1.042c-.396.419-.64.844-.828 1.443l-.11.352v16.2l.11.352c.381 1.214 1.204 2.037 2.418 2.418l.352.11 6.66.011c4.547.007 6.724-.003 6.862-.031.516-.108 1.116-.562 1.349-1.023.244-.482.229.19.228-9.923 0-10.04.012-9.478-.218-9.931-.135-.267-.484-.634-.764-.802-.49-.295-.001-.277-7.297-.275-5.398.001-6.594.011-6.847.057M19 9.5V16h-6.375c-6.926 0-6.729-.006-7.329.22a4 4 0 0 1-.282.1c-.008 0-.011-2.74-.005-6.09l.011-6.09.112-.24c.198-.425.624-.776 1.042-.858.091-.018 3.015-.035 6.496-.038L19 3zM7.695 5.057a1.04 1.04 0 0 0-.567.459L7.02 5.7v2.606l.121.197a.998.998 0 0 0 1.718 0c.12-.195.121-.203.134-.85L9.007 7H11v5h-.554c-.798 0-1.079.11-1.318.516-.091.156-.108.23-.108.484 0 .256.016.328.111.489.125.213.318.375.539.454.219.078 4.441.078 4.66 0 .221-.079.414-.241.539-.454.095-.161.111-.233.111-.489 0-.254-.017-.328-.108-.484-.239-.406-.52-.516-1.318-.516H13V7h1.993l.014.653c.013.647.014.655.134.85a.998.998 0 0 0 1.718 0l.121-.197V5.7l-.108-.184a1.02 1.02 0 0 0-.582-.461c-.261-.079-8.344-.076-8.595.002M19 19.5v1.501l-6.43-.011-6.43-.01-.24-.112a1.68 1.68 0 0 1-.765-.764c-.095-.208-.111-.296-.111-.604-.001-.309.015-.394.11-.6.194-.423.621-.776 1.04-.858.091-.018 3.015-.035 6.496-.038L19 18z"/></svg>