<svg xmlns="http://www.w3.org/2000/svg" width="24" height="24" fill="none" stroke="currentColor" stroke-linecap="round" stroke-linejoin="round" stroke-width="2"><path fill="#000" fill-rule="evenodd" stroke="none" d="M5.873 1.063a3.5 3.5 0 0 0-1.915 1.042c-.396.419-.64.844-.828 1.443l-.11.352v16.2l.11.352c.381 1.214 1.204 2.037 2.418 2.418l.352.11 6.66.011c4.547.007 6.724-.003 6.862-.031.516-.108 1.116-.562 1.349-1.023.244-.482.229.19.228-9.923 0-10.04.012-9.478-.218-9.931-.135-.267-.484-.634-.764-.802-.49-.295-.001-.277-7.297-.275-5.398.001-6.594.011-6.847.057M19 9.5V16h-6.375c-6.926 0-6.729-.006-7.329.22a4 4 0 0 1-.282.1c-.008 0-.011-2.74-.005-6.09l.011-6.09.112-.24c.198-.425.624-.776 1.042-.858.091-.018 3.015-.035 6.496-.038L19 3zm-7.501-4.46a3.05 3.05 0 0 0-2.385 2.12c-.135.434-.135 1.247 0 1.679.106.338.248.639.395.834.054.073.093.136.085.141-.137.084-.511.443-.68.653a3.95 3.95 0 0 0-.835 1.775c-.12.584-.099.999.065 1.266a.998.998 0 0 0 1.707.007c.092-.149.121-.257.15-.56.046-.482.121-.725.313-1.018.496-.756 1.347-1.089 2.209-.864.524.137 1.029.556 1.274 1.056.114.233.148.393.224 1.036.03.247.215.529.444.674a1 1 0 0 0 1.391-.331q.244-.397.068-1.252a4 4 0 0 0-1.518-2.442c-.008-.005.031-.068.085-.141.147-.195.289-.496.395-.834.135-.432.135-1.245 0-1.679-.305-.981-1.076-1.753-2.025-2.031-.361-.106-1.029-.149-1.362-.089m.811 2.021c.378.112.69.537.69.94 0 .33-.216.695-.516.871-.156.091-.23.108-.484.108s-.328-.017-.484-.108c-.581-.342-.683-1.098-.212-1.569q.417-.418 1.006-.242M19 19.5v1.501l-6.43-.011-6.43-.01-.24-.112a1.68 1.68 0 0 1-.765-.764c-.095-.208-.111-.296-.111-.604-.001-.309.015-.394.11-.6.194-.423.621-.776 1.04-.858.091-.018 3.015-.035 6.496-.038L19 18z"/></svg>