<svg xmlns="http://www.w3.org/2000/svg" width="24" height="24" fill="none" stroke="currentColor" stroke-linecap="round" stroke-linejoin="round" stroke-width="2"><path fill="#000" fill-rule="evenodd" stroke="none" d="M6.499 2.043c-1.109.188-2.011.981-2.385 2.097l-.094.28-.011 8.358c-.012 9.388-.037 8.596.289 8.922.27.27.666.366 1.009.244.087-.03 1.628-.895 3.425-1.922L12 18.154l3.29 1.878c1.809 1.033 3.36 1.901 3.446 1.928.485.155 1.09-.182 1.225-.683.027-.1.037-2.955.03-8.504L19.98 4.42l-.094-.28c-.33-.982-1.065-1.715-2.025-2.019l-.321-.101-5.42-.006c-2.981-.003-5.511.01-5.621.029M17.31 4.061a1 1 0 0 1 .63.632c.053.183.059 1.084.05 7.392l-.01 7.184-2.72-1.557a213 213 0 0 0-2.86-1.619 1.1 1.1 0 0 0-.4-.064c-.152 0-.318.027-.4.064-.077.035-1.364.764-2.86 1.619l-2.72 1.557-.01-7.184c-.011-8.084-.035-7.453.293-7.782.318-.318-.07-.297 5.68-.3 4.475-.003 5.148.005 5.327.058M9.044 6.625a.99.99 0 0 0-.515.664c-.047.238.006.562.12.73.045.066.498.54 1.006 1.051l.924.93-.924.93c-.508.512-.96.984-1.004 1.05-.275.409-.138 1.046.289 1.34.298.205.8.22 1.077.032.068-.046.541-.499 1.053-1.007l.93-.924.93.924c.512.508.985.961 1.051 1.006.281.19.781.174 1.084-.034.413-.284.553-.941.286-1.336-.045-.066-.498-.539-1.006-1.051l-.924-.929.948-.951c.705-.707.968-.998 1.029-1.136.297-.673-.168-1.396-.896-1.393-.413.001-.505.067-1.552 1.11l-.95.947-.95-.947c-.679-.677-1.001-.97-1.13-1.028a1.06 1.06 0 0 0-.876.022"/></svg>