<svg xmlns="http://www.w3.org/2000/svg" width="24" height="24" fill="none" stroke="currentColor" stroke-linecap="round" stroke-linejoin="round" stroke-width="2"><path fill="#000" fill-rule="evenodd" stroke="none" d="M5.873 1.063a3.5 3.5 0 0 0-1.915 1.042c-.396.419-.64.844-.828 1.443l-.11.352v16.2l.11.352c.381 1.214 1.204 2.037 2.418 2.418l.352.11 6.66.011c4.547.007 6.724-.003 6.862-.031.516-.108 1.116-.562 1.349-1.023.244-.482.229.19.228-9.923 0-10.04.012-9.478-.218-9.931-.135-.267-.484-.634-.764-.802-.49-.295-.001-.277-7.297-.275-5.398.001-6.594.011-6.847.057M19 7.145v4.144l-.373-.354c-.426-.406-.75-.611-1.207-.764-.29-.097-.376-.107-.92-.107s-.63.01-.92.107c-.659.22-.618.184-3.561 3.117L9.299 16H7.775c-1.653 0-1.969.028-2.479.22a4 4 0 0 1-.282.1c-.008 0-.011-2.74-.005-6.09l.011-6.09.112-.24c.198-.425.624-.776 1.042-.858.091-.018 3.015-.035 6.496-.038L19 3zM9.499 5.04a3.05 3.05 0 0 0-2.385 2.12c-.135.434-.135 1.246 0 1.68a3.09 3.09 0 0 0 2.046 2.046c.434.135 1.246.135 1.68 0a3.09 3.09 0 0 0 2.046-2.046c.135-.434.135-1.246 0-1.68-.305-.981-1.076-1.753-2.025-2.031-.361-.106-1.029-.149-1.362-.089m.811 2.021c.378.112.69.537.69.94 0 .33-.216.695-.516.871-.156.091-.23.108-.484.108s-.328-.017-.484-.108c-.581-.342-.683-1.098-.212-1.569q.417-.418 1.006-.242m6.608 5.062c.126.057.458.358 1.13 1.027l.952.946V16h-3.45l-3.45-.001 1.9-1.897c1.434-1.432 1.944-1.918 2.08-1.979.24-.108.6-.108.838 0M19 19.5v1.501l-6.43-.011-6.43-.01-.24-.112a1.68 1.68 0 0 1-.765-.764c-.095-.208-.111-.296-.111-.604-.001-.309.015-.394.11-.6.194-.423.621-.776 1.04-.858.091-.018 3.015-.035 6.496-.038L19 18z"/></svg>