<svg xmlns="http://www.w3.org/2000/svg" width="24" height="24" fill="none" stroke="currentColor" stroke-linecap="round" stroke-linejoin="round" stroke-width="2"><path fill="#000" fill-rule="evenodd" stroke="none" d="M5.873 1.063a3.5 3.5 0 0 0-1.915 1.042c-.396.419-.64.844-.828 1.443l-.11.352v16.2l.11.352c.381 1.214 1.204 2.037 2.418 2.418l.352.11 6.66.011c4.547.007 6.724-.003 6.862-.031.516-.108 1.116-.562 1.349-1.023.244-.482.229.19.228-9.923 0-10.04.012-9.478-.218-9.931-.135-.267-.484-.634-.764-.802-.49-.295-.001-.277-7.297-.275-5.398.001-6.594.011-6.847.057M9.002 6.59c.001 2.894.012 3.619.055 3.74a1 1 0 0 0 1.268.609c.198-.065.314-.168 1.446-1.293l1.23-1.223 1.21 1.204c.665.662 1.272 1.237 1.349 1.278.099.052.227.074.44.074.255.001.328-.015.484-.107.101-.059.232-.172.291-.249.233-.306.225-.159.225-4.048V3h2v13h-6.375c-6.926 0-6.729-.006-7.329.22a4 4 0 0 1-.282.1c-.008 0-.011-2.74-.005-6.09l.011-6.09.112-.24c.198-.425.624-.776 1.042-.858.091-.018.765-.035 1.496-.038L9 3zM15 5.287v2.287l-.733-.723c-.664-.656-.752-.729-.947-.787-.269-.08-.371-.08-.64 0-.195.058-.283.131-.947.787L11 7.574V3h4zM19 19.5v1.501l-6.43-.011-6.43-.01-.24-.112a1.68 1.68 0 0 1-.765-.764c-.095-.208-.111-.296-.111-.604-.001-.309.015-.394.11-.6.194-.423.621-.776 1.04-.858.091-.018 3.015-.035 6.496-.038L19 18z"/></svg>