<svg xmlns="http://www.w3.org/2000/svg" width="24" height="24" fill="none" stroke="currentColor" stroke-linecap="round" stroke-linejoin="round" stroke-width="2"><path fill="#000" fill-rule="evenodd" stroke="none" d="M5.873 1.063a3.52 3.52 0 0 0-2.507 1.885c-.3.596-.449 1.504-.306 1.877a1 1 0 0 0 .937.663c.582 0 .959-.401 1.019-1.085a1.52 1.52 0 0 1 .884-1.27c.239-.111.244-.111 1.32-.132L8.3 2.98l.192-.113c.756-.444.631-1.561-.202-1.812-.252-.076-1.987-.07-2.417.008m5.822-.007c-.23.074-.44.244-.567.46-.091.156-.108.23-.108.484 0 .256.016.328.111.489.061.103.173.236.25.294.256.196.368.213 1.379.215.907.001.947-.002 1.14-.093.381-.181.588-.5.588-.905 0-.385-.195-.703-.548-.894-.15-.081-.221-.087-1.12-.095-.708-.006-1.003.006-1.125.045m5.545-.019c-.446.136-.728.509-.728.963 0 .405.207.724.588.905.191.09.239.094 1.05.095H19v.85c.001.811.005.859.095 1.05.181.381.5.588.905.588s.724-.207.905-.588c.091-.193.094-.233.094-1.16 0-1.039-.034-1.294-.218-1.657-.135-.267-.484-.634-.764-.802-.398-.24-.628-.277-1.717-.275-.528 0-1.005.015-1.06.031M3.58 7.595c-.204.092-.429.342-.517.572-.059.154-.067.31-.056 1.159l.013.981.121.196a.998.998 0 0 0 1.718 0l.121-.196.013-.981c.014-1.106-.004-1.205-.269-1.498-.196-.219-.404-.306-.724-.306-.166 0-.318.026-.42.073m16 0c-.204.092-.429.342-.517.572-.059.154-.067.31-.056 1.159l.013.981.121.196a.998.998 0 0 0 1.718 0l.121-.196.013-.981c.014-1.106-.004-1.205-.269-1.498-.196-.219-.404-.306-.724-.306-.166 0-.318.026-.42.073M3.695 13.057a1.04 1.04 0 0 0-.567.459l-.108.184v6.4l.11.352c.381 1.215 1.215 2.048 2.418 2.414.337.103.398.108 1.454.125.722.011 1.158.001 1.264-.027.231-.063.471-.251.601-.472.097-.165.113-.235.113-.492 0-.254-.017-.328-.108-.484a1.13 1.13 0 0 0-.499-.444c-.074-.031-.482-.056-1.173-.07-1.057-.022-1.061-.022-1.304-.135a1.68 1.68 0 0 1-.762-.767c-.095-.206-.111-.291-.11-.6 0-.308.016-.396.111-.604.14-.309.448-.617.765-.763.239-.111.244-.111 1.32-.132l1.08-.021.192-.113c.756-.444.631-1.561-.202-1.812-.132-.04-.44-.055-1.111-.055-1.017 0-1.425.048-1.883.22-.146.055-.271.1-.279.1-.007 0-.018-.59-.025-1.31L4.98 13.7l-.108-.184a1.005 1.005 0 0 0-1.177-.459m16 0a1.04 1.04 0 0 0-.567.459l-.108.184-.012 1.147-.012 1.148-.888.012c-.821.012-.9.02-1.048.099-.353.191-.548.509-.548.894 0 .405.207.724.588.905.199.094.207.094 1.64.093 1.549-.002 1.609-.008 1.879-.215.077-.058.189-.191.25-.294l.111-.189v-3.6l-.108-.184a1.005 1.005 0 0 0-1.177-.459m-8 2.999c-.23.074-.44.244-.567.46-.091.156-.108.23-.108.484 0 .256.016.328.111.489.061.103.173.236.25.294.256.196.368.213 1.379.215.907.001.947-.002 1.14-.093.381-.181.588-.5.588-.905 0-.385-.195-.703-.548-.894-.15-.081-.221-.087-1.12-.095-.708-.006-1.003.006-1.125.045m8 4.001a1.01 1.01 0 0 0-.678.77l-.026.168-.886.012c-.818.012-.897.02-1.045.099-.353.191-.548.509-.548.894 0 .405.207.724.588.905.193.091.233.094 1.182.095 1.064 0 1.255-.026 1.648-.225.266-.135.708-.575.841-.838.256-.504.295-1.089.097-1.428a1.005 1.005 0 0 0-1.173-.452m-8 .999c-.23.074-.44.244-.567.46-.091.156-.108.23-.108.484 0 .256.016.328.111.489.061.103.173.236.25.294.256.196.368.213 1.379.215.907.001.947-.002 1.14-.093.381-.181.588-.5.588-.905 0-.385-.195-.703-.548-.894-.15-.081-.221-.087-1.12-.095-.708-.006-1.003.006-1.125.045"/></svg>