<svg xmlns="http://www.w3.org/2000/svg" width="24" height="24" fill="none" stroke="currentColor" stroke-linecap="round" stroke-linejoin="round" stroke-width="2"><path fill="#000" fill-rule="evenodd" stroke="none" d="M5.873 1.063a3.5 3.5 0 0 0-1.915 1.042c-.396.419-.64.844-.828 1.443l-.11.352v16.2l.11.352c.381 1.214 1.204 2.037 2.418 2.418l.352.11 6.66.011c4.547.007 6.724-.003 6.862-.031.516-.108 1.116-.562 1.349-1.023.244-.48.231-.047.219-7.465L20.98 7.7l-.109-.186a1.01 1.01 0 0 0-1.085-.479c-.271.061-.516.24-.657.479l-.109.186-.011 4.15-.01 4.15h-6.374c-6.926 0-6.729-.006-7.329.22a4 4 0 0 1-.282.1c-.008 0-.011-2.74-.005-6.09l.011-6.09.113-.244c.143-.309.452-.617.767-.764l.24-.112L10.22 3l4.08-.02.192-.113c.756-.444.631-1.561-.202-1.812-.27-.081-7.965-.074-8.417.008m13.767.005c-.154.053-.485.366-2.26 2.134L15.3 5.274l-.283-.095c-1.66-.562-3.384.312-3.903 1.981-.135.434-.135 1.246 0 1.68a3.09 3.09 0 0 0 2.046 2.046c.434.135 1.246.135 1.68 0a3.09 3.09 0 0 0 2.046-2.046c.08-.257.094-.381.092-.86-.002-.521-.011-.585-.127-.92l-.125-.36 1.135-1.138 1.135-1.138.214.203c.267.252.422.334.685.361a.99.99 0 0 0 .972-.496c.097-.165.113-.234.112-.492-.001-.354-.055-.476-.35-.788L20.428 3l.201-.212c.295-.312.349-.434.35-.788.001-.255-.015-.328-.107-.484a1.016 1.016 0 0 0-1.232-.448m-5.33 5.993c.378.112.69.537.69.94 0 .33-.216.695-.516.871-.156.091-.23.108-.484.108s-.328-.017-.484-.108c-.581-.342-.683-1.098-.212-1.569q.417-.418 1.006-.242M19 19.5v1.501l-6.43-.011-6.43-.01-.24-.112a1.68 1.68 0 0 1-.765-.764c-.095-.208-.111-.296-.111-.604-.001-.309.015-.394.11-.6.194-.423.621-.776 1.04-.858.091-.018 3.015-.035 6.496-.038L19 18z"/></svg>