<svg xmlns="http://www.w3.org/2000/svg" width="24" height="24" fill="none" stroke="currentColor" stroke-linecap="round" stroke-linejoin="round" stroke-width="2"><path fill="#000" fill-rule="evenodd" stroke="none" d="M2.477 2.073c-.671.176-1.239.75-1.417 1.435C1.008 3.706 1 4.634 1 10.5c0 7.375-.013 6.961.225 7.43.136.269.576.709.845.845.451.229.385.225 3.928.227 3.637.003 3.551-.003 4.019.279.277.167.601.506.755.79.126.233.226.65.228.949a1 1 0 0 0 1 .978c.563 0 .995-.44 1.002-1.018.008-.701.385-1.34 1.012-1.715.445-.267.418-.265 4.015-.265 3.515 0 3.449.004 3.901-.225.266-.135.708-.575.841-.838.196-.385.229-.614.229-1.563-.001-.836-.005-.883-.095-1.074q-.276-.58-.905-.58-.63 0-.905.58c-.089.188-.094.245-.095.95V17h-3.11c-2.512 0-3.184.012-3.495.058a3.6 3.6 0 0 0-1.124.348 2 2 0 0 1-.251.114c-.012 0-.017-2.488-.011-5.53l.011-5.53.101-.321a3.09 3.09 0 0 1 2.018-2.017l.321-.1 2.768-.013 2.767-.013.013 1.155.012 1.156.121.196a.998.998 0 0 0 1.718 0l.121-.197.012-1.248c.013-1.358-.011-1.58-.21-1.975-.136-.267-.485-.634-.765-.802-.461-.277-.444-.276-3.469-.279-2.787-.002-3.227.016-3.788.16a5.05 5.05 0 0 0-2.404 1.431L12 3.969l-.355-.374A5.07 5.07 0 0 0 9.24 2.161C8.677 2.018 8.237 2 5.452 2.002c-2.43.002-2.739.01-2.975.071m6.384 2.049a3.09 3.09 0 0 1 2.018 2.017l.101.321.011 5.53c.006 3.042.001 5.53-.011 5.53s-.125-.051-.251-.114a3.6 3.6 0 0 0-1.124-.348C9.294 17.012 8.622 17 6.11 17H3V3.996l2.77.013 2.77.013zM21.64 9.068c-.152.053-.444.326-1.909 1.785l-1.729 1.722-.734-.724c-.665-.656-.753-.729-.948-.787-.263-.078-.374-.08-.61-.009a1.02 1.02 0 0 0-.582.461c-.092.156-.108.229-.107.484 0 .213.022.341.074.44.102.193 2.202 2.3 2.425 2.433.153.091.225.107.48.106.212 0 .341-.022.44-.074.192-.1 4.299-4.2 4.433-4.425.091-.152.107-.226.107-.48s-.017-.328-.108-.484a1.016 1.016 0 0 0-1.232-.448"/></svg>