<svg xmlns="http://www.w3.org/2000/svg" width="24" height="24" fill="none" stroke="currentColor" stroke-linecap="round" stroke-linejoin="round" stroke-width="2"><path fill="#000" fill-rule="evenodd" stroke="none" d="M5.873 1.063a3.5 3.5 0 0 0-1.915 1.042c-.396.419-.64.844-.828 1.443l-.11.352v16.2l.11.352c.381 1.214 1.204 2.037 2.418 2.418l.352.11 6.66.011c4.547.007 6.724-.003 6.862-.031.516-.108 1.116-.562 1.349-1.023.244-.482.229.19.228-9.923 0-10.04.012-9.478-.218-9.931-.135-.267-.484-.634-.764-.802-.49-.295-.001-.277-7.297-.275-5.398.001-6.594.011-6.847.057M19 9.5V16h-6.375c-6.926 0-6.729-.006-7.329.22a4 4 0 0 1-.282.1c-.008 0-.011-2.74-.005-6.09l.011-6.09.112-.24c.198-.425.624-.776 1.042-.858.091-.018 3.015-.035 6.496-.038L19 3zM9.685 5.046c-.985.141-1.976.901-2.403 1.842-.206.455-.258.72-.259 1.312 0 .506.008.564.13.92.228.663.392.903 1.127 1.654.997 1.019 3.064 2.993 3.253 3.106.139.083.218.1.467.1s.328-.017.466-.1c.092-.055.65-.552 1.24-1.106 2.567-2.403 2.618-2.456 2.904-3.001.08-.152.194-.437.254-.634.095-.315.109-.428.111-.919.003-.581-.018-.702-.203-1.194-.295-.789-1.093-1.556-1.919-1.844-.817-.286-1.873-.21-2.623.187l-.23.122-.23-.122c-.582-.309-1.349-.428-2.085-.323m1.101 2.087c.114.058.284.202.412.348.258.298.481.412.802.412.324 0 .541-.113.814-.425.315-.359.503-.447.946-.447.392 0 .623.091.875.344.25.25.344.485.342.861-.001.284-.018.358-.131.588-.117.238-.249.375-1.413 1.474a69 69 0 0 1-1.362 1.266c-.088.063-.03.115-1.8-1.622-1.078-1.058-1.195-1.206-1.251-1.58-.082-.547.341-1.176.88-1.309.257-.064.665-.022.886.09M19 19.5v1.501l-6.43-.011-6.43-.01-.24-.112a1.68 1.68 0 0 1-.765-.764c-.095-.208-.111-.296-.111-.604-.001-.309.015-.394.11-.6.194-.423.621-.776 1.04-.858.091-.018 3.015-.035 6.496-.038L19 18z"/></svg>