<svg xmlns="http://www.w3.org/2000/svg" width="24" height="24" fill="none" stroke="currentColor" stroke-linecap="round" stroke-linejoin="round" stroke-width="2"><path fill="#000" fill-rule="evenodd" stroke="none" d="M5.873 1.063a3.5 3.5 0 0 0-1.915 1.042c-.396.419-.64.844-.828 1.443l-.11.352v16.2l.11.352c.381 1.214 1.204 2.037 2.418 2.418l.352.11 6.66.011c4.547.007 6.724-.003 6.862-.031.516-.108 1.116-.562 1.349-1.023.236-.464.232-.394.22-3.966L20.98 14.7l-.109-.186a1.01 1.01 0 0 0-1.085-.479c-.271.061-.516.24-.657.479-.105.179-.11.212-.122.836l-.014.65h-6.371c-6.923 0-6.726-.006-7.326.22a4 4 0 0 1-.282.1c-.008 0-.011-2.74-.005-6.09l.011-6.09.113-.244c.143-.309.452-.617.767-.764l.24-.112L8.22 3l2.08-.02.192-.113c.756-.444.631-1.561-.202-1.812-.264-.079-3.972-.073-4.417.008m9.626-.023a3.06 3.06 0 0 0-2.381 2.1c-.076.238-.092.396-.108 1.062l-.019.781-.306.049a1.88 1.88 0 0 0-1.089.565c-.286.285-.442.55-.536.911-.088.336-.088 3.648 0 3.984.093.36.25.626.536.912s.552.443.912.536c.342.089 6.642.089 6.984 0 .36-.093.626-.25.912-.536.29-.29.437-.541.533-.913.09-.347.092-3.582.003-3.962-.088-.373-.241-.638-.536-.932a1.88 1.88 0 0 0-1.089-.565l-.306-.049-.019-.781c-.016-.666-.032-.824-.108-1.062-.311-.97-1.081-1.736-2.021-2.011-.361-.106-1.029-.149-1.362-.089m.811 2.021a.9.9 0 0 1 .387.242c.251.251.303.448.303 1.144V5h-2v-.573c0-.692.048-.869.307-1.128q.414-.413 1.003-.238M19 8.5V10h-6V7h6zm0 11v1.501l-6.43-.011-6.43-.01-.24-.112a1.68 1.68 0 0 1-.765-.764c-.095-.208-.111-.296-.111-.604-.001-.309.015-.394.11-.6.194-.423.621-.776 1.04-.858.091-.018 3.015-.035 6.496-.038L19 18z"/></svg>