<svg xmlns="http://www.w3.org/2000/svg" width="24" height="24" fill="none" stroke="currentColor" stroke-linecap="round" stroke-linejoin="round" stroke-width="2"><path fill="#000" fill-rule="evenodd" stroke="none" d="M2.477 2.073c-.671.176-1.239.75-1.417 1.435C1.008 3.706 1 4.634 1 10.5c0 7.375-.013 6.961.225 7.43.136.269.576.709.845.845.451.229.385.225 3.928.227 3.637.003 3.551-.003 4.019.279.277.167.601.506.755.79.126.233.226.65.228.949a1 1 0 0 0 1 .978c.563 0 .995-.44 1.002-1.018.008-.701.385-1.34 1.012-1.715.445-.267.418-.265 4.015-.265 3.515 0 3.449.004 3.901-.225.266-.135.708-.575.841-.838.242-.477.229-.057.228-7.423 0-7.313.009-6.983-.218-7.431-.135-.267-.484-.634-.764-.802-.461-.277-.444-.276-3.469-.279-2.787-.002-3.227.016-3.788.16a5.05 5.05 0 0 0-2.404 1.431L12 3.969l-.355-.374A5.07 5.07 0 0 0 9.24 2.161C8.677 2.018 8.237 2 5.452 2.002c-2.43.002-2.739.01-2.975.071m6.384 2.049a3.09 3.09 0 0 1 2.018 2.017l.101.321.011 5.53c.006 3.042.001 5.53-.011 5.53s-.125-.051-.251-.114a3.6 3.6 0 0 0-1.124-.348C9.294 17.012 8.622 17 6.11 17H3V3.996l2.77.013 2.77.013zM21 10.5V17h-3.11c-2.512 0-3.184.012-3.495.058a3.6 3.6 0 0 0-1.124.348 2 2 0 0 1-.251.114c-.012 0-.017-2.488-.011-5.53l.011-5.53.101-.321c.347-1.096 1.27-1.91 2.378-2.096.11-.018 1.394-.036 2.851-.038L21 4z"/></svg>