<svg xmlns="http://www.w3.org/2000/svg" width="24" height="24" fill="none" stroke="currentColor" stroke-linecap="round" stroke-linejoin="round" stroke-width="2"><path fill="#000" fill-rule="evenodd" stroke="none" d="M6.499 2.043c-1.109.188-2.011.981-2.385 2.097l-.094.28-.011 8.358c-.012 9.388-.037 8.596.289 8.922.27.27.666.366 1.009.244.087-.03 1.628-.895 3.425-1.922L12 18.154l3.29 1.878c1.809 1.033 3.36 1.901 3.446 1.928.485.155 1.09-.182 1.225-.683.027-.1.037-2.955.03-8.504L19.98 4.42l-.094-.28c-.33-.982-1.065-1.715-2.025-2.019l-.321-.101-5.42-.006c-2.981-.003-5.511.01-5.621.029M17.31 4.061a1 1 0 0 1 .63.632c.053.183.059 1.084.05 7.392l-.01 7.184-2.72-1.557a213 213 0 0 0-2.86-1.619 1.1 1.1 0 0 0-.4-.064c-.152 0-.318.027-.4.064-.077.035-1.364.764-2.86 1.619l-2.72 1.557-.01-7.184c-.011-8.084-.035-7.453.293-7.782.318-.318-.07-.297 5.68-.3 4.475-.003 5.148.005 5.327.058m-5.615 1.996a1.04 1.04 0 0 0-.567.459l-.108.184-.012 1.15L10.995 9H9.944c-1.147 0-1.301.022-1.562.221-.08.061-.195.194-.254.295-.091.156-.108.23-.108.484 0 .256.016.328.111.489.061.103.173.236.25.294.261.2.357.213 1.527.215l1.087.002.013 1.153.012 1.154.121.196a.998.998 0 0 0 1.718 0l.121-.196.012-1.154.013-1.153 1.087-.002c1.17-.002 1.266-.015 1.527-.215.077-.058.189-.191.25-.294.095-.161.111-.233.111-.489 0-.254-.017-.328-.108-.484a1.2 1.2 0 0 0-.254-.295C15.357 9.022 15.203 9 14.056 9h-1.051l-.013-1.15-.012-1.15-.108-.184a1.005 1.005 0 0 0-1.177-.459"/></svg>