<svg xmlns="http://www.w3.org/2000/svg" width="24" height="24" fill="none" stroke="currentColor" stroke-linecap="round" stroke-linejoin="round" stroke-width="2"><path fill="#000" fill-rule="evenodd" stroke="none" d="M5.873 1.063a3.5 3.5 0 0 0-1.915 1.042c-.396.419-.64.844-.828 1.443l-.11.352v16.2l.11.352c.381 1.214 1.204 2.037 2.418 2.418l.352.11 6.66.011c4.547.007 6.724-.003 6.862-.031.516-.108 1.116-.562 1.349-1.023.244-.482.229.19.228-9.923 0-10.04.012-9.478-.218-9.931-.135-.267-.484-.634-.764-.802-.49-.295-.001-.277-7.297-.275-5.398.001-6.594.011-6.847.057M19 9.5V16h-6.375c-6.926 0-6.729-.006-7.329.22a4 4 0 0 1-.282.1c-.008 0-.011-2.74-.005-6.09l.011-6.09.112-.24c.198-.425.624-.776 1.042-.858.091-.018 3.015-.035 6.496-.038L19 3zM9.24 6.035c-.456.149-.728.511-.728.968 0 .391.072.49 1.104 1.517.519.517.944.958.944.98s-.425.463-.944.98c-.662.659-.968.992-1.024 1.115a1.12 1.12 0 0 0-.014.787c.145.348.548.618.922.617.368-.001.486-.088 1.53-1.13l.97-.968.97.968c1.044 1.042 1.162 1.129 1.53 1.13.374.001.777-.269.922-.617a1.12 1.12 0 0 0-.014-.787c-.056-.123-.362-.456-1.024-1.115-.519-.517-.944-.958-.944-.98s.425-.463.944-.98c1.032-1.027 1.104-1.126 1.104-1.517a.98.98 0 0 0-.548-.895c-.211-.113-.656-.119-.86-.013-.077.04-.577.507-1.11 1.039l-.97.965-.97-.965c-.533-.532-1.031-.997-1.106-1.034-.156-.078-.535-.114-.684-.065M19 19.5v1.501l-6.43-.011-6.43-.01-.24-.112a1.68 1.68 0 0 1-.765-.764c-.095-.208-.111-.296-.111-.604-.001-.309.015-.394.11-.6.194-.423.621-.776 1.04-.858.091-.018 3.015-.035 6.496-.038L19 18z"/></svg>