<svg xmlns="http://www.w3.org/2000/svg" width="24" height="24" fill="none" stroke="currentColor" stroke-linecap="round" stroke-linejoin="round" stroke-width="2"><path fill="#000" fill-rule="evenodd" stroke="none" d="M5.873 1.063a3.5 3.5 0 0 0-1.915 1.042c-.396.419-.64.844-.828 1.443l-.11.352v16.2l.11.352c.381 1.214 1.204 2.037 2.418 2.418l.352.11 6.66.011c4.547.007 6.724-.003 6.862-.031.516-.108 1.116-.562 1.349-1.023.244-.482.229.19.228-9.923 0-10.04.012-9.478-.218-9.931-.135-.267-.484-.634-.764-.802-.49-.295-.001-.277-7.297-.275-5.398.001-6.594.011-6.847.057M19 9.5V16h-6.375c-6.926 0-6.729-.006-7.329.22a4 4 0 0 1-.282.1c-.008 0-.011-2.74-.005-6.09l.011-6.09.112-.24c.198-.425.624-.776 1.042-.858.091-.018 3.015-.035 6.496-.038L19 3zm-4.4-2.917c-.088.038-.784.703-1.87 1.788L11 10.099l-.73-.728c-.461-.46-.785-.751-.879-.79-.191-.079-.592-.078-.782.001-.5.208-.743.834-.513 1.318.137.287 2.334 2.468 2.559 2.54.197.063.493.063.69 0 .227-.072 4.419-4.247 4.559-4.54.231-.484-.013-1.109-.513-1.318-.187-.078-.607-.078-.791.001M19 19.5v1.501l-6.43-.011-6.43-.01-.24-.112a1.68 1.68 0 0 1-.765-.764c-.095-.208-.111-.296-.111-.604-.001-.309.015-.394.11-.6.194-.423.621-.776 1.04-.858.091-.018 3.015-.035 6.496-.038L19 18z"/></svg>