<svg xmlns="http://www.w3.org/2000/svg" width="24" height="24" fill="none" stroke="currentColor" stroke-linecap="round" stroke-linejoin="round" stroke-width="2"><path fill="#000" fill-rule="evenodd" stroke="none" d="M5.873 1.063a3.5 3.5 0 0 0-1.915 1.042c-.396.419-.64.844-.828 1.443l-.11.352v16.2l.11.352c.381 1.214 1.204 2.037 2.418 2.418l.352.11 6.66.011c4.547.007 6.724-.003 6.862-.031.516-.108 1.116-.562 1.349-1.023.244-.482.229.19.228-9.923 0-10.04.012-9.478-.218-9.931-.135-.267-.484-.634-.764-.802-.49-.295-.001-.277-7.297-.275-5.398.001-6.594.011-6.847.057M19 9.5V16h-6.375c-6.926 0-6.729-.006-7.329.22a4 4 0 0 1-.282.1c-.008 0-.011-2.74-.005-6.09l.011-6.09.112-.24c.198-.425.624-.776 1.042-.858.091-.018 3.015-.035 6.496-.038L19 3zm-7.353-4.433c-.095.034-.24.127-.323.207-.099.097-.603.94-1.484 2.486-.734 1.287-1.412 2.455-1.507 2.595s-.173.274-.173.298-.253.488-.562 1.031c-.484.848-.566 1.019-.586 1.206-.094.913 1.012 1.468 1.665.835.083-.081.347-.492.599-.935l.45-.79h4.548l.45.79c.252.443.516.854.599.935.654.634 1.759.078 1.664-.836-.02-.2-.21-.549-2.091-3.845-1.364-2.388-2.119-3.672-2.216-3.766-.257-.249-.68-.335-1.033-.211m.922 3.944.55.969-.56.011c-.307.006-.811.006-1.118 0l-.56-.011.55-.969c.302-.533.558-.969.569-.969s.267.436.569.969M19 19.5v1.501l-6.43-.011-6.43-.01-.24-.112a1.68 1.68 0 0 1-.765-.764c-.095-.208-.111-.296-.111-.604-.001-.309.015-.394.11-.6.194-.423.621-.776 1.04-.858.091-.018 3.015-.035 6.496-.038L19 18z"/></svg>