<svg xmlns="http://www.w3.org/2000/svg" width="24" height="24" fill="none" stroke="currentColor" stroke-linecap="round" stroke-linejoin="round" stroke-width="2"><path fill="#000" fill-rule="evenodd" stroke="none" d="M3.499 1.043C2.383 1.23 1.461 2.048 1.114 3.16l-.094.3v13.08l.094.3a3.1 3.1 0 0 0 2.026 2.042c.243.078.391.092 1.12.108.545.012.898.003 1.004-.026.233-.063.473-.25.603-.472.097-.165.113-.235.113-.492 0-.254-.017-.328-.108-.484a1.1 1.1 0 0 0-.499-.443c-.066-.028-.439-.057-.893-.07-.756-.022-.786-.026-.964-.131-.581-.342-.683-1.098-.213-1.569.258-.258.44-.303 1.234-.305.693-.002.841-.031 1.082-.215.077-.058.189-.191.25-.294.095-.161.111-.233.111-.489 0-.255-.016-.328-.109-.486a1.04 1.04 0 0 0-.65-.477c-.299-.067-1.69-.026-1.981.058l-.23.065c-.005 0-.01-2.085-.01-4.633 0-5.229-.019-4.902.303-5.224.325-.325-.122-.303 6.234-.305 4.61-.001 5.67-.011 5.793-.055.221-.079.414-.241.539-.454.095-.161.111-.233.111-.489 0-.254-.017-.328-.108-.484a1.02 1.02 0 0 0-.582-.461c-.152-.046-1.159-.054-5.886-.05-3.137.002-5.795.02-5.905.038m7 4c-1.119.19-2.038 1.005-2.385 2.117l-.094.3v13.08l.094.3a3.09 3.09 0 0 0 2.046 2.046l.3.094h11.4l.244-.113c.309-.143.617-.452.764-.767l.112-.24V6.14l-.113-.244a1.7 1.7 0 0 0-.767-.764l-.24-.112-5.58-.006c-3.069-.003-5.671.01-5.781.029M21 11.999v4.999l-5.27.012c-4.837.011-5.288.018-5.49.081l-.23.069c-.005 0-.01-2.085-.01-4.633 0-5.23-.019-4.902.304-5.224.317-.317-.064-.297 5.626-.3L21 7zm0 8.002v1l-5.15-.01-5.15-.011-.184-.108c-.581-.342-.683-1.098-.212-1.569.317-.317-.064-.297 5.626-.3L21 19z"/></svg>