<svg xmlns="http://www.w3.org/2000/svg" width="24" height="24" fill="none" stroke="currentColor" stroke-linecap="round" stroke-linejoin="round" stroke-width="2"><path fill="#000" fill-rule="evenodd" stroke="none" d="M5.499 2.043c-1.109.188-2.017.986-2.384 2.097-.09.274-.092.323-.106 2.144l-.014 1.864-.327.166a3.1 3.1 0 0 0-1.554 1.846l-.094.3v9.08l.094.3a3.09 3.09 0 0 0 2.046 2.046l.3.094h17.08l.3-.094a3.09 3.09 0 0 0 2.046-2.046l.094-.3v-9.08l-.094-.3a3.1 3.1 0 0 0-1.554-1.846l-.327-.166-.014-1.864c-.014-1.821-.016-1.87-.106-2.144a3.11 3.11 0 0 0-2.024-2.019l-.321-.101-6.42-.006c-3.531-.003-6.511.01-6.621.029M18.31 4.061a.9.9 0 0 1 .387.242c.296.296.303.347.303 2.144V8h-1.99l-.027-.17a1 1 0 0 0-.769-.795c-.548-.122-1.11.25-1.197.795L14.99 8h-1.98l-.027-.17a1 1 0 0 0-.769-.795c-.548-.122-1.11.25-1.197.795L10.99 8H9.01l-.027-.17a1 1 0 0 0-.769-.795c-.548-.122-1.11.25-1.197.795L6.99 8H5V6.447c0-1.798.007-1.848.304-2.144.319-.32-.184-.297 6.679-.3 5.37-.003 6.148.004 6.327.058m2 6c.279.083.546.35.629.629.053.177.061.751.061 4.311 0 4.457.007 4.318-.221 4.617-.061.08-.194.195-.295.254l-.184.108H3.7l-.184-.108a1.05 1.05 0 0 1-.458-.556c-.089-.254-.087-8.324.003-8.626.079-.269.351-.547.612-.627.16-.049 1.357-.058 8.31-.06 7.161-.003 8.147.004 8.327.058M7.499 12.04a3.05 3.05 0 0 0-2.385 2.12c-.135.434-.135 1.246 0 1.68a3.09 3.09 0 0 0 2.046 2.046c.434.135 1.246.135 1.68 0a3.09 3.09 0 0 0 2.046-2.046c.135-.434.135-1.246 0-1.68-.305-.981-1.076-1.753-2.025-2.031-.361-.106-1.029-.149-1.362-.089m8 0a3.05 3.05 0 0 0-2.385 2.12c-.135.434-.135 1.246 0 1.68a3.09 3.09 0 0 0 2.046 2.046c.434.135 1.246.135 1.68 0a3.09 3.09 0 0 0 2.046-2.046c.135-.434.135-1.246 0-1.68-.305-.981-1.076-1.753-2.025-2.031-.361-.106-1.029-.149-1.362-.089M8.31 14.061c.378.112.69.537.69.94 0 .33-.216.695-.516.871-.156.091-.23.108-.484.108s-.328-.017-.484-.108c-.581-.342-.683-1.098-.212-1.569q.417-.418 1.006-.242m8 0c.378.112.69.537.69.94 0 .33-.216.695-.516.871-.156.091-.23.108-.484.108s-.328-.017-.484-.108c-.584-.344-.685-1.097-.209-1.573q.414-.413 1.003-.238"/></svg>