<svg xmlns="http://www.w3.org/2000/svg" width="24" height="24" fill="none" stroke="currentColor" stroke-linecap="round" stroke-linejoin="round" stroke-width="2"><path fill="#000" fill-rule="evenodd" stroke="none" d="M1.67 1.061c-.222.081-.42.248-.542.455-.091.156-.108.23-.108.484s.016.327.107.48c.06.099 1.085 1.156 2.288 2.357l2.18 2.177-.359.091c-.985.249-1.785 1.017-2.12 2.035-.09.273-.093.327-.107 2.07L2.995 13h-.551c-.796 0-1.078.111-1.316.516-.091.156-.108.23-.108.484 0 .256.016.328.111.489.125.213.318.375.539.454.098.035.352.054.737.055l.588.002.014 1.79c.014 1.743.017 1.797.107 2.07a3.1 3.1 0 0 0 2.044 2.026l.3.094h13.12l.36-.127.36-.127 1.06 1.053c.583.578 1.123 1.085 1.2 1.126.099.052.227.074.44.074.258.001.327-.015.492-.112.476-.28.647-.9.373-1.359-.055-.092-4.65-4.715-10.212-10.273C3.3 1.889 2.525 1.125 2.343 1.065a1 1 0 0 0-.673-.004M9.4 3.037c-.865.263-.977 1.426-.18 1.857.146.078.23.087.967.099l.807.013.013.807c.012.737.021.821.099.967.182.336.517.538.894.538s.712-.202.894-.538c.084-.156.086-.2.086-1.62V3.7l-.108-.184a1.2 1.2 0 0 0-.254-.295c-.271-.206-.395-.221-1.814-.218-.717.002-1.349.018-1.404.034m4 3.999a1.008 1.008 0 0 0-.18 1.858c.158.085.195.086 2.6.106 2.715.022 2.586.009 2.879.301.292.293.279.164.301 2.879.02 2.405.021 2.442.106 2.6.258.477.83.672 1.314.446a1 1 0 0 0 .255-.16c.047-.057.155-.066.78-.068.781-.002.918-.027 1.164-.215.077-.058.189-.191.25-.294.095-.161.111-.233.111-.489 0-.254-.017-.328-.108-.484-.238-.405-.52-.516-1.316-.516h-.551l-.014-1.79c-.014-1.743-.017-1.797-.107-2.07a3.1 3.1 0 0 0-2.023-2.018l-.321-.1-2.52-.009c-1.386-.004-2.565.006-2.62.023M12.58 14l5 5.001-5.94-.011-5.94-.01-.184-.108a1.2 1.2 0 0 1-.291-.249C4.99 18.315 5 18.515 5 14.022c0-4.666-.017-4.398.304-4.719.269-.27.397-.297 1.416-.3L7.58 9zm-3.885-1.943a1.04 1.04 0 0 0-.567.459l-.108.184v2.606l.121.197a.998.998 0 0 0 1.718 0l.121-.197V12.7l-.108-.184a1.005 1.005 0 0 0-1.177-.459"/></svg>