<svg xmlns="http://www.w3.org/2000/svg" width="24" height="24" fill="none" stroke="currentColor" stroke-linecap="round" stroke-linejoin="round" stroke-width="2"><path fill="#000" fill-rule="evenodd" stroke="none" d="M11.691 1.365a3 3 0 0 0-1.091.325c-.876.488-3.397 2.038-3.579 2.199a3.1 3.1 0 0 0-.721.96c-.282.598-.276.538-.29 2.932l-.013 2.161-1.853 1.112c-1.02.612-1.955 1.197-2.078 1.299-.262.219-.59.619-.723.882a5 5 0 0 0-.208.525l-.115.34-.012 2.016c-.01 1.693-.002 2.063.05 2.313.129.624.379 1.084.842 1.551.298.3.437.392 2.049 1.356 1.217.729 1.824 1.068 2.05 1.148.433.154.91.21 1.331.157.637-.08.82-.168 2.813-1.363L12 20.164l1.857 1.114c1.993 1.195 2.176 1.283 2.813 1.363a3 3 0 0 0 1.331-.157c.226-.08.833-.419 2.05-1.148 1.612-.964 1.751-1.056 2.049-1.356.463-.467.713-.927.842-1.551.052-.25.06-.62.05-2.313L22.98 14.1l-.115-.34a5 5 0 0 0-.208-.525c-.133-.263-.461-.663-.723-.882-.123-.102-1.059-.687-2.079-1.3L18 9.94V7.893c0-2.204-.011-2.351-.216-2.86a2.8 2.8 0 0 0-.684-1.012c-.294-.295-.447-.397-1.9-1.267a80 80 0 0 0-1.86-1.091 3.03 3.03 0 0 0-1.649-.298m.638 2.036C12.47 3.445 15 4.961 15 5.002c0 .016-.675.436-1.5.933l-1.5.903-1.5-.903C9.675 5.438 9 5.018 9 5.001c0-.016.59-.384 1.312-.816 1.484-.89 1.572-.924 2.017-.784M11 10.144c0 1.492-.004 1.577-.07 1.539-.038-.021-.709-.423-1.49-.893l-1.42-.854-.01-1.587-.011-1.586 1.501.901 1.5.9zm4.95-.201c-.027.025-.662.412-1.41.858-.748.447-1.401.839-1.45.871l-.09.057V8.564l1.49-.894 1.49-.894.01 1.56c.009 1.216 0 1.57-.04 1.607m-7.496 2.604c.795.476 1.478.888 1.517.914.06.041-.138.172-1.45.959L7 15.331l-1.521-.911c-.836-.502-1.512-.921-1.501-.931a227 227 0 0 1 3.016-1.809c.007 0 .664.39 1.46.867m10.08.039c.795.476 1.46.878 1.478.893.017.016-.654.438-1.49.94L17 15.331l-1.523-.913c-1.002-.6-1.504-.923-1.47-.943l1.513-.912c.803-.484 1.484-.871 1.514-.861s.705.408 1.5.884M4.529 16.18l1.468.88.002 1.588L6 20.237l-1.298-.78c-.714-.428-1.355-.837-1.426-.907-.253-.253-.255-.266-.268-1.844-.007-.789.002-1.428.02-1.42s.693.41 1.501.894m6.471.678v1.578l-1.5.9-1.5.9.001-1.588.001-1.588 1.489-.89c.819-.489 1.494-.89 1.499-.89s.01.71.01 1.578m3.693-.578 1.305.78.001 1.588.001 1.588-1.5-.9-1.5-.9v-3.163l.194.114c.107.062.782.464 1.499.893m6.299.43c-.013 1.574-.015 1.587-.268 1.84-.071.07-.712.479-1.426.907l-1.298.78.002-1.589.001-1.588 1.469-.886a65 65 0 0 1 1.5-.89c.018-.002.027.639.02 1.426"/></svg>