<svg xmlns="http://www.w3.org/2000/svg" width="24" height="24" fill="none" stroke="currentColor" stroke-linecap="round" stroke-linejoin="round" stroke-width="2"><path fill="#000" fill-rule="evenodd" stroke="none" d="M6.499 2.043c-1.106.185-2.015.985-2.384 2.097l-.093.28-.021 2.92c-.016 2.212-.033 2.947-.071 3.033-.163.367-.453.569-.896.625-.354.045-.472.086-.659.228-.409.312-.489.934-.177 1.365.171.236.41.362.774.408.383.049.537.113.727.302.295.296.279.109.302 3.359l.02 2.92.104.307c.17.499.371.816.771 1.217.403.403.724.605 1.217.768.279.091.384.102 1.147.119.543.011.898.002 1.004-.027.233-.063.473-.25.603-.472.097-.165.113-.235.113-.492 0-.254-.017-.328-.108-.484C8.627 20.1 8.359 20 7.481 20c-.727 0-.914-.045-1.151-.275-.329-.319-.307-.102-.331-3.385l-.021-2.92-.094-.28a3 3 0 0 0-.482-.932L5.238 12l.164-.208c.199-.251.357-.556.482-.932l.094-.28.021-2.92c.024-3.272.004-3.068.322-3.377.244-.236.441-.283 1.216-.285.693-.002.841-.031 1.082-.215.077-.058.189-.191.25-.294.095-.161.111-.233.111-.489 0-.254-.017-.328-.108-.484a1.02 1.02 0 0 0-.582-.461c-.206-.062-1.445-.07-1.791-.012m9.196.012a1.05 1.05 0 0 0-.567.461c-.091.156-.108.23-.108.484 0 .256.016.328.111.489.061.103.173.236.25.294.241.184.389.213 1.082.215.775.002.972.049 1.216.285.318.309.298.105.322 3.377l.021 2.92.094.28c.125.376.283.681.482.933l.166.209-.138.169a3.4 3.4 0 0 0-.512.969c-.092.28-.092.285-.113 3.2-.016 2.212-.033 2.947-.071 3.033a1.15 1.15 0 0 1-.446.499c-.178.105-.208.109-.964.131-.454.013-.827.042-.893.07a1.1 1.1 0 0 0-.499.443c-.091.156-.108.23-.108.484 0 .257.016.327.113.492.13.222.37.409.603.472.106.029.459.038 1.004.026.729-.016.877-.03 1.12-.108a3.12 3.12 0 0 0 2.025-2.022l.093-.28.021-2.92c.02-2.784.025-2.927.098-3.076.175-.352.447-.524.927-.584.368-.047.607-.172.778-.409.312-.431.232-1.053-.177-1.365-.187-.142-.305-.183-.659-.228-.443-.056-.733-.258-.896-.625-.038-.086-.055-.82-.071-3.033l-.021-2.92-.093-.28c-.326-.981-1.076-1.727-2.024-2.015-.287-.086-.41-.098-1.161-.11-.628-.011-.882 0-1.005.04"/></svg>