<svg xmlns="http://www.w3.org/2000/svg" width="24" height="24" fill="none" stroke="currentColor" stroke-linecap="round" stroke-linejoin="round" stroke-width="2"><path fill="#000" fill-rule="evenodd" stroke="none" d="M4.695 2.057a1.04 1.04 0 0 0-.567.459L4.02 2.7l-.01 9.214c-.007 6.084.003 9.266.03 9.364.059.22.251.461.468.589l.192.113 1.71.012c1.092.007 1.765-.004 1.864-.03.224-.061.464-.251.593-.47.097-.165.113-.235.113-.492 0-.254-.017-.328-.108-.484a1.2 1.2 0 0 0-.254-.295C8.356 20.022 8.203 20 7.054 20H6V4l1.09-.002c1.172-.002 1.267-.015 1.529-.215.077-.058.189-.191.25-.294.095-.161.111-.233.111-.489 0-.254-.017-.328-.108-.484a1.02 1.02 0 0 0-.582-.461c-.255-.077-3.349-.075-3.595.002m11 0a1.04 1.04 0 0 0-.567.459c-.091.156-.108.23-.108.484 0 .256.016.328.111.489.061.103.173.236.25.294.262.2.357.213 1.529.215L18 4v16h-1.054c-1.149 0-1.302.022-1.564.221-.08.061-.195.194-.254.295-.091.156-.108.23-.108.484 0 .257.016.327.113.492.129.219.369.409.593.47.099.026.772.037 1.864.03l1.71-.012.192-.113c.217-.128.409-.369.468-.589.027-.098.037-3.28.03-9.364L19.98 2.7l-.108-.184a1.02 1.02 0 0 0-.582-.461c-.255-.077-3.349-.075-3.595.002"/></svg>