<svg xmlns="http://www.w3.org/2000/svg" width="24" height="24" fill="none" stroke="currentColor" stroke-linecap="round" stroke-linejoin="round" stroke-width="2"><path fill="#000" fill-rule="evenodd" stroke="none" d="M8.52 1.028a4.1 4.1 0 0 0-1.422.456c-1.087.607-1.78 1.562-2.036 2.802-.017.086-.096.146-.407.313-1.33.71-2.239 1.932-2.562 3.441-.054.252-.072.506-.071.98.002.638.045.946.201 1.425l.06.184-.278.37a5 5 0 0 0-.744 4.586c.26.778.624 1.349 1.259 1.98l.468.466.028.366c.087 1.164.668 2.384 1.517 3.191 1.384 1.315 3.34 1.746 5.1 1.125.779-.275 1.333-.629 1.937-1.238l.43-.434.43.434c.237.239.565.524.73.634 2.02 1.346 4.563 1.136 6.307-.521.844-.802 1.43-2.033 1.517-3.189l.028-.368.468-.466c.979-.975 1.452-2.037 1.509-3.389a4.93 4.93 0 0 0-.994-3.177l-.278-.37.06-.184c.156-.479.199-.787.201-1.425.001-.474-.017-.728-.071-.98-.325-1.521-1.24-2.738-2.599-3.461-.278-.148-.353-.207-.37-.292-.256-1.241-.949-2.196-2.036-2.803-.501-.281-1.038-.431-1.68-.47-1.087-.067-2.128.309-2.952 1.065l-.27.248-.27-.248a4.03 4.03 0 0 0-3.21-1.051m.981 2.034c.721.188 1.324.832 1.456 1.555.057.315.058 4.346.001 4.703-.2 1.247-1.067 2.282-2.298 2.743a1.01 1.01 0 0 0-.648 1.044.99.99 0 0 0 1.082.882c.357-.037 1.206-.445 1.683-.809.101-.077.193-.14.205-.14s.016 1.228.008 2.73c-.015 3.025-.004 2.895-.288 3.497-.521 1.105-1.669 1.796-2.855 1.719-1.062-.069-2.013-.674-2.478-1.576-.257-.499-.259-.483.06-.439.449.061.849.021 1.067-.107a1.07 1.07 0 0 0 .469-.6c.099-.367-.048-.815-.34-1.038-.204-.155-.32-.189-.781-.23-1.303-.116-2.276-.871-2.695-2.094-.112-.328-.124-.409-.125-.862-.001-.598.059-.865.314-1.38.266-.54.563-.861 1.15-1.248.408-.269.569-.527.569-.912a.984.984 0 0 0-.829-.974c-.152-.026-.167-.04-.2-.187-.045-.204-.006-.815.07-1.099.082-.305.386-.902.575-1.129.087-.104.264-.279.393-.389l.234-.2.134.269c.244.49.54.704.967.7a.99.99 0 0 0 .894-1.411c-.263-.557-.337-.966-.258-1.425a2.04 2.04 0 0 1 1.454-1.593c.28-.076.719-.076 1.01 0m5.991-.002c.941.245 1.59 1.167 1.492 2.121-.027.27-.114.55-.279.899a.99.99 0 0 0 .894 1.411c.427.004.723-.21.967-.7l.134-.269.234.2c.129.11.306.285.393.389.183.218.524.901.589 1.178s.096.866.056 1.05c-.033.147-.048.161-.2.187a.96.96 0 0 0-.826.954c-.008.398.149.657.566.932.587.387.884.709 1.15 1.248.386.782.435 1.558.15 2.354-.403 1.122-1.407 1.871-2.656 1.982-.461.041-.577.075-.781.23-.292.223-.439.671-.34 1.038.063.232.251.473.469.6.218.128.618.168 1.067.107.319-.044.317-.06.06.439a3.1 3.1 0 0 1-1.295 1.265 2.983 2.983 0 0 1-4.038-1.408c-.284-.602-.273-.472-.288-3.497-.008-1.502-.004-2.73.008-2.73s.104.063.205.14c.476.363 1.326.772 1.681.809.44.045.89-.238 1.03-.649.196-.577-.067-1.068-.714-1.329-.505-.204-.812-.405-1.179-.773a3.53 3.53 0 0 1-.999-1.918C13.017 9.163 13 8.213 13 6.928c0-1.788.01-2.176.062-2.406.152-.669.744-1.276 1.419-1.458a2.3 2.3 0 0 1 1.011-.004"/></svg>