<svg xmlns="http://www.w3.org/2000/svg" width="24" height="24" fill="none" stroke="currentColor" stroke-linecap="round" stroke-linejoin="round" stroke-width="2"><path fill="#000" fill-rule="evenodd" stroke="none" d="M8.58 1.039a4 4 0 0 0-2.228.988 4.08 4.08 0 0 0-1.27 2.182c-.043.211-.05.218-.273.321-.737.34-1.562 1.075-2.022 1.799a5.04 5.04 0 0 0-.746 3.299c.037.292.152.811.217.974.015.038-.055.16-.19.33-.828 1.039-1.215 2.499-1.013 3.821.181 1.177.815 2.328 1.678 3.047l.257.214.027.36a4.99 4.99 0 0 0 6.57 4.366c.858-.286 1.536-.737 2.177-1.445.117-.129.224-.235.236-.235s.115.102.227.226C13.257 22.423 14.535 23 16.024 23a4.96 4.96 0 0 0 4.112-2.193c.501-.738.78-1.539.847-2.433l.027-.36.257-.214c.86-.716 1.498-1.874 1.678-3.047.202-1.322-.185-2.782-1.013-3.821-.135-.169-.205-.292-.19-.33.013-.034.059-.197.101-.362a5.04 5.04 0 0 0-.631-3.911c-.46-.725-1.278-1.453-2.016-1.794l-.23-.106-.061-.273a4.03 4.03 0 0 0-3.025-3.042c-.432-.103-1.195-.112-1.672-.019a4.06 4.06 0 0 0-1.98 1.039l-.232.223-.228-.224c-.516-.508-1.275-.907-1.956-1.03a4.8 4.8 0 0 0-1.232-.064m1 2.062c.493.137.954.534 1.201 1.033.137.277.165.398.241 1.035.03.252.226.537.475.69.174.107.232.121.503.121s.329-.014.503-.121c.249-.153.445-.438.475-.69.076-.641.104-.757.246-1.046.724-1.465 2.831-1.467 3.549-.003.314.639.294 1.192-.068 1.96a1.1 1.1 0 0 0-.105.372c-.001.577.439 1.035.999 1.038.422.002.712-.2.945-.66.075-.148.152-.27.17-.27s.144.101.28.224c.697.631 1.082 1.596.987 2.476-.027.259-.028.26-.154.26-.07.001-.218.043-.329.095-.344.16-.543.473-.552.865-.008.403.149.657.583.943q1.044.686 1.358 1.805c.115.406.124 1.145.019 1.525-.355 1.287-1.378 2.121-2.75 2.243-.461.041-.577.075-.781.23-.292.223-.439.671-.34 1.038.063.232.251.473.469.6.218.128.618.168 1.066.107.212-.029.27-.026.27.014 0 .094-.306.643-.498.893-.542.704-1.426 1.126-2.359 1.126-.496 0-.825-.082-1.336-.332-.73-.357-1.239-.958-1.487-1.754-.084-.27-.16-.43-.26-.547-.334-.391-.955-.511-1.429-.279-.333.164-.489.368-.631.826a2.8 2.8 0 0 1-.763 1.247 2.3 2.3 0 0 1-.724.507c-.511.25-.84.332-1.336.332-.933 0-1.817-.422-2.359-1.126-.192-.25-.498-.799-.498-.893 0-.04.058-.043.27-.014.448.061.848.021 1.066-.107a1.07 1.07 0 0 0 .469-.6c.099-.367-.048-.815-.34-1.038-.204-.155-.32-.189-.781-.23-.77-.069-1.458-.371-1.948-.855a2.99 2.99 0 0 1-.775-2.935c.2-.722.659-1.328 1.35-1.783.425-.28.586-.533.586-.923 0-.239-.067-.423-.232-.635-.135-.174-.456-.344-.652-.345-.126 0-.127-.001-.154-.26-.095-.88.29-1.845.987-2.476.136-.123.262-.224.28-.224s.095.121.17.27c.233.46.523.662.945.66.56-.003 1-.461.999-1.038a1.1 1.1 0 0 0-.105-.372c-.359-.762-.381-1.309-.075-1.952a1.98 1.98 0 0 1 1.92-1.102c.132.011.33.044.44.075m.437 4.276a1.036 1.036 0 0 0-.56 1.253l.067.202-.383.388c-.377.382-.384.387-.507.344a1.3 1.3 0 0 0-.341-.044.94.94 0 0 0-.884.552c-.224.49-.039 1.069.415 1.3l.179.091.009.587.008.587-.151.068c-.196.088-.444.36-.511.558a1.3 1.3 0 0 0-.052.337c0 .676.677 1.158 1.324.943l.202-.067.384.379.385.379-.06.227c-.181.695.452 1.362 1.15 1.213.275-.059.549-.257.672-.486l.104-.191.585-.009.585-.008.066.146c.086.191.317.413.517.498.202.085.555.084.761-.002.472-.197.725-.761.562-1.252l-.067-.202.379-.384.379-.385.227.06c.707.184 1.385-.476 1.204-1.174a1 1 0 0 0-.467-.639l-.201-.115-.009-.584-.008-.584.146-.066c.596-.269.755-1.097.302-1.571a.99.99 0 0 0-1.043-.266l-.224.071-.271-.28a5 5 0 0 0-.384-.364l-.114-.085.063-.246a.94.94 0 0 0-.148-.825c-.398-.591-1.36-.535-1.681.097l-.093.183-.584.007-.584.007-.067-.148a1.1 1.1 0 0 0-.507-.495c-.181-.076-.606-.079-.774-.005m2.506 2.696a2.01 2.01 0 0 1 1.444 1.617 1.94 1.94 0 0 1-.564 1.714c-.401.403-.857.596-1.403.596q-.771 0-1.347-.535c-1.33-1.236-.464-3.46 1.347-3.46.143 0 .378.031.523.068"/></svg>