<svg xmlns="http://www.w3.org/2000/svg" width="24" height="24" fill="none" stroke="currentColor" stroke-linecap="round" stroke-linejoin="round" stroke-width="2"><path fill="#000" fill-rule="evenodd" stroke="none" d="M9.499 1.042A3.06 3.06 0 0 0 7.118 3.14c-.076.239-.092.396-.108 1.067l-.019.788-1.766.014c-1.748.014-1.768.015-2.086.114A3.08 3.08 0 0 0 1.114 7.16l-.094.3v11.08l.094.3a3.09 3.09 0 0 0 2.046 2.046l.3.094h17.08l.3-.094a3.09 3.09 0 0 0 2.046-2.046l.094-.3V7.46l-.094-.3a3.08 3.08 0 0 0-2.025-2.037c-.318-.099-.338-.1-2.086-.114l-1.766-.014-.019-.788c-.016-.671-.032-.828-.108-1.067a3.1 3.1 0 0 0-2.021-2.018l-.321-.1-2.42-.007c-1.331-.004-2.511.008-2.621.027m4.811 2.019a.9.9 0 0 1 .387.242c.251.251.303.448.303 1.144V5H9v-.553c0-.697.052-.893.304-1.144.3-.301.265-.297 2.679-.3 1.789-.003 2.155.007 2.327.058M5 13.003v6.004l-.65-.014c-.622-.012-.658-.018-.834-.121a1.2 1.2 0 0 1-.291-.249C2.988 18.312 3 18.608 3 13.022c0-5.782-.021-5.395.304-5.719.25-.251.423-.297 1.126-.3L5 7zM17 13v6H7V7h10zm3.31-5.939c.279.083.546.35.629.629.053.178.061.856.061 5.311 0 4.211-.01 5.138-.055 5.289a1.02 1.02 0 0 1-.461.582c-.176.103-.212.109-.834.121l-.65.014V7h.553c.378 0 .617.019.757.061m-8.615 2.996a1.04 1.04 0 0 0-.567.459c-.103.176-.109.212-.121.834l-.014.65h-.55c-.795 0-1.077.111-1.315.516-.091.156-.108.23-.108.484 0 .256.016.328.111.489.125.213.318.375.539.454.098.035.352.054.737.055l.586.002.014.653c.013.647.014.655.134.85.068.11.205.253.311.325.471.316 1.102.171 1.407-.325.12-.195.121-.203.134-.85l.014-.653.586-.002c.385-.001.639-.02.737-.055.221-.079.414-.241.539-.454.095-.161.111-.233.111-.489 0-.254-.017-.328-.108-.484-.238-.405-.52-.516-1.315-.516h-.55l-.014-.65c-.012-.622-.018-.658-.121-.834a1.005 1.005 0 0 0-1.177-.459"/></svg>