<svg xmlns="http://www.w3.org/2000/svg" width="24" height="24" fill="none" stroke="currentColor" stroke-linecap="round" stroke-linejoin="round" stroke-width="2"><path fill="#000" fill-rule="evenodd" stroke="none" d="M9.499 1.042A3.06 3.06 0 0 0 7.118 3.14c-.076.239-.092.396-.108 1.067l-.019.788-1.766.014c-1.748.014-1.768.015-2.086.114A3.08 3.08 0 0 0 1.114 7.16l-.094.3v11.08l.094.3a3.09 3.09 0 0 0 2.046 2.046l.3.094h17.08l.3-.094a3.09 3.09 0 0 0 2.046-2.046l.094-.3V7.46l-.094-.3a3.08 3.08 0 0 0-2.025-2.037c-.318-.099-.338-.1-2.086-.114l-1.766-.014-.019-.788c-.016-.671-.032-.828-.108-1.067a3.1 3.1 0 0 0-2.021-2.018l-.321-.1-2.42-.007c-1.331-.004-2.511.008-2.621.027m4.811 2.019a.9.9 0 0 1 .387.242c.251.251.303.448.303 1.144V5H9v-.553c0-.697.052-.893.304-1.144.3-.301.265-.297 2.679-.3 1.789-.003 2.155.007 2.327.058M7 13.002v6.001l-1.65-.011-1.65-.012-.184-.108a1.2 1.2 0 0 1-.291-.249C2.988 18.312 3 18.608 3 13.022c0-5.782-.021-5.395.304-5.719.292-.292.325-.297 2.126-.3L7 7zM15 13v6H9V7h6zm5.31-5.939c.279.083.546.35.629.629.053.178.061.856.061 5.311 0 4.211-.01 5.138-.055 5.289a1.02 1.02 0 0 1-.461.582l-.184.108-1.65.012-1.65.011V7h1.553c1.273 0 1.589.011 1.757.061"/></svg>