<svg xmlns="http://www.w3.org/2000/svg" width="24" height="24" fill="none" stroke="currentColor" stroke-linecap="round" stroke-linejoin="round" stroke-width="2"><path fill="#000" fill-rule="evenodd" stroke="none" d="M9.499 1.042A3.06 3.06 0 0 0 7.118 3.14c-.076.239-.092.396-.108 1.067l-.019.788-1.766.014c-1.748.014-1.768.015-2.086.114A3.08 3.08 0 0 0 1.114 7.16l-.094.3v11.08l.094.3a3.09 3.09 0 0 0 2.046 2.046l.3.094h17.08l.3-.094a3.09 3.09 0 0 0 2.046-2.046l.094-.3V7.46l-.094-.3a3.08 3.08 0 0 0-2.025-2.037c-.318-.099-.338-.1-2.086-.114l-1.766-.014-.019-.788c-.016-.671-.032-.828-.108-1.067a3.1 3.1 0 0 0-2.021-2.018l-.321-.1-2.42-.007c-1.331-.004-2.511.008-2.621.027m4.811 2.019a.9.9 0 0 1 .387.242c.251.251.303.448.303 1.144V5H9v-.553c0-.697.052-.893.304-1.144.3-.301.265-.297 2.679-.3 1.789-.003 2.155.007 2.327.058m6 4a.9.9 0 0 1 .387.242c.307.308.303.266.303 2.874v2.283l-.47.267c-5.34 3.034-11.74 3.034-17.06.001L3 12.46v-2.283c0-2.609-.005-2.566.304-2.874a.9.9 0 0 1 .369-.24c.16-.049 1.357-.058 8.31-.06 7.161-.003 8.147.004 8.327.058m-8.615 3.994a1.05 1.05 0 0 0-.567.461c-.091.156-.108.23-.108.484 0 .257.016.327.113.492.518.882 1.865.526 1.865-.492a.99.99 0 0 0-.535-.888 1.17 1.17 0 0 0-.768-.057m-7.183 4.422c1.882.805 4.082 1.332 6.175 1.481 3.327.237 6.857-.466 9.834-1.959l.479-.24v1.674c0 1.818-.009 1.907-.221 2.185-.061.08-.194.195-.295.254l-.184.108H3.7l-.184-.108a1.2 1.2 0 0 1-.291-.249c-.221-.29-.225-.329-.225-2.168v-1.696l.479.24c.263.133.728.347 1.033.478"/></svg>