<svg xmlns="http://www.w3.org/2000/svg" width="24" height="24" fill="none" stroke="currentColor" stroke-linecap="round" stroke-linejoin="round" stroke-width="2"><path fill="#000" fill-rule="evenodd" stroke="none" d="M9.499 1.042A3.06 3.06 0 0 0 7.118 3.14c-.076.239-.092.396-.108 1.065l-.019.786-.766.019c-.658.017-.81.033-1.086.116A3.07 3.07 0 0 0 3.114 7.16l-.094.3v7.08l.094.3a3.09 3.09 0 0 0 2.046 2.046l.3.094h13.08l.3-.094a3.09 3.09 0 0 0 2.046-2.046l.094-.3V7.46l-.094-.3a3.07 3.07 0 0 0-2.025-2.034c-.276-.083-.428-.099-1.086-.116l-.766-.019-.019-.786c-.016-.669-.032-.826-.108-1.065a3.1 3.1 0 0 0-2.021-2.018l-.321-.1-2.42-.007c-1.331-.004-2.511.008-2.621.027m4.811 2.019a.9.9 0 0 1 .387.242c.251.251.303.448.303 1.144V5H9v-.553c0-.697.052-.893.304-1.144.3-.301.265-.297 2.679-.3 1.789-.003 2.155.007 2.327.058M7 11.003v4.004l-.65-.014c-.622-.012-.658-.018-.834-.121a1.2 1.2 0 0 1-.295-.254C4.997 14.324 5 14.372 5 11.001c0-3.527-.012-3.383.304-3.698.25-.251.423-.297 1.126-.3L7 7zM15 11v4H9V7h6zm3.31-3.939c.279.083.546.35.629.629.086.29.092 6.314.006 6.6a1.02 1.02 0 0 1-.461.582c-.176.103-.212.109-.834.121l-.65.014V7h.553c.378 0 .617.019.757.061M2.695 19.057a1.04 1.04 0 0 0-.567.459c-.091.156-.108.23-.108.484 0 .256.016.328.111.489.061.103.173.236.25.294.261.2.357.213 1.526.215L4.993 21l.014.653c.013.647.014.655.134.85.068.11.205.253.311.325.471.316 1.102.171 1.407-.325.12-.195.121-.203.134-.85L7.007 21h1.986l.014.653c.013.647.014.655.134.85.068.11.205.253.311.325.471.316 1.102.171 1.407-.325.12-.195.121-.203.134-.85l.014-.653h1.986l.014.653c.013.647.014.655.134.85a.998.998 0 0 0 1.718 0c.12-.195.121-.203.134-.85l.014-.653h1.986l.014.653c.013.647.014.655.134.85.068.11.205.253.311.325.471.316 1.102.171 1.407-.325.12-.195.121-.203.134-.85l.014-.653 1.086-.002c1.169-.002 1.265-.015 1.526-.215.077-.058.189-.191.25-.294.095-.161.111-.233.111-.489 0-.254-.017-.328-.108-.484a1.02 1.02 0 0 0-.582-.461c-.263-.079-18.343-.077-18.595.002"/></svg>