<svg xmlns="http://www.w3.org/2000/svg" width="24" height="24" fill="none" stroke="currentColor" stroke-linecap="round" stroke-linejoin="round" stroke-width="2"><path fill="#000" fill-rule="evenodd" stroke="none" d="M3.499 1.042A3.05 3.05 0 0 0 1.114 3.16l-.094.3v5.08l.094.3a3.08 3.08 0 0 0 2.023 2.037c.344.105.903.149 1.127.088.234-.064.473-.251.603-.473.097-.165.113-.235.113-.492 0-.254-.017-.328-.108-.484a1.1 1.1 0 0 0-.497-.438 2.6 2.6 0 0 0-.409-.08c-.344-.043-.579-.163-.741-.375C3 8.327 3 8.332 3 6.022c0-2.436-.003-2.413.303-2.719C3.609 2.998 3.589 3 6 3c2.384 0 2.387 0 2.679.283.207.202.272.353.322.748.048.379.183.616.451.797.471.316 1.102.17 1.407-.325.115-.188.121-.218.119-.62-.001-.324-.023-.493-.093-.723a3.08 3.08 0 0 0-2.024-2.038l-.321-.1-2.42-.007c-1.331-.004-2.511.008-2.621.027m6 6A3.05 3.05 0 0 0 7.114 9.16l-.094.3v5.08l.094.3a3.09 3.09 0 0 0 2.046 2.046l.3.094h5.08l.3-.094a3.09 3.09 0 0 0 2.046-2.046l.094-.3V9.46l-.094-.3a3.08 3.08 0 0 0-2.025-2.038l-.321-.1-2.42-.007c-1.331-.004-2.511.008-2.621.027m4.811 2.019c.279.083.546.35.629.629.086.288.091 4.317.006 4.6a1.02 1.02 0 0 1-.461.582l-.184.108H9.7l-.184-.108a1.02 1.02 0 0 1-.461-.582c-.085-.283-.08-4.312.006-4.6.079-.269.351-.547.612-.627.285-.088 4.342-.09 4.637-.002m5.36 3.997c-.636.245-.865.99-.472 1.533.172.237.415.365.768.405.378.043.549.117.751.325.283.292.283.295.283 2.68 0 2.286-.004 2.332-.221 2.617-.061.08-.194.195-.295.254l-.184.108h-4.6l-.184-.108a1.08 1.08 0 0 1-.44-.499 2 2 0 0 1-.079-.407c-.041-.352-.164-.585-.402-.761a1.01 1.01 0 0 0-1.466.309c-.1.172-.109.219-.107.606.001.32.023.491.093.72a3.08 3.08 0 0 0 2.045 2.046l.3.094h5.08l.3-.094a3.09 3.09 0 0 0 2.046-2.046l.094-.3v-5.08l-.094-.3c-.306-.983-1.078-1.756-2.025-2.03-.408-.118-.981-.153-1.191-.072"/></svg>