<svg xmlns="http://www.w3.org/2000/svg" width="24" height="24" fill="none" stroke="currentColor" stroke-linecap="round" stroke-linejoin="round" stroke-width="2"><path fill="#000" fill-rule="evenodd" stroke="none" d="M18.78 2.004c-.605.058-1.271.307-1.84.687-.262.175-8.505 8.371-8.698 8.649-.403.578-.065 1.407.623 1.529.244.043.55-.007.712-.117.068-.046 1.995-1.951 4.283-4.234s4.239-4.198 4.335-4.257c.716-.442 1.692-.33 2.283.261.25.25.47.691.517 1.038.056.415-.037.891-.241 1.236-.047.079-1.973 2.034-4.278 4.344-3.465 3.471-4.207 4.234-4.278 4.395a.994.994 0 0 0 1.34 1.308c.213-.097 8.535-8.43 8.771-8.783.48-.718.706-1.437.704-2.24-.002-1.066-.406-2.023-1.159-2.743-.85-.813-1.913-1.184-3.074-1.073M6.393 14.001c-1.189.201-2.324 1.03-2.858 2.089-.267.53-.406 1.012-.443 1.536-.023.319-.031.342-.158.454-.073.064-.408.256-.744.426-.723.367-.964.574-1.108.955a1.16 1.16 0 0 0 .038.899c.156.307 1.047 1.108 1.745 1.571 1.589 1.053 3.21 1.329 4.762.809a4.95 4.95 0 0 0 2.952-2.627c.338-.715.478-1.364.474-2.193-.002-.45-.02-.607-.108-.94-.404-1.534-1.567-2.638-3.113-2.957-.326-.067-1.103-.079-1.439-.022m1.498 2.128c.52.248.911.683 1.078 1.201.06.186.08.357.079.67-.001.52-.081.879-.29 1.303-.667 1.351-2.161 1.999-3.578 1.551-.466-.148-1.115-.485-1.434-.744l-.115-.093.246-.152c.32-.197.683-.536.855-.797.212-.322.305-.622.347-1.121.046-.53.087-.694.252-.987.238-.423.779-.85 1.214-.958.085-.021.353-.034.595-.03.416.008.457.017.751.157"/></svg>