<svg xmlns="http://www.w3.org/2000/svg" width="24" height="24" fill="none" stroke="currentColor" stroke-linecap="round" stroke-linejoin="round" stroke-width="2"><path fill="#000" fill-rule="evenodd" stroke="none" d="M7.67 1.061c-.222.081-.42.248-.542.455-.091.156-.108.23-.108.484 0 .41.07.516.872 1.314l.658.655-.097.172C8.178 4.633 8 5.37 8 6.016v.406l-.29.145c-.431.214-.947.6-1.312.98l-.324.337-.147-.046c-.425-.134-1.025-.605-1.35-1.059-.357-.501-.511-.95-.573-1.669-.03-.348-.057-.465-.14-.607-.383-.654-1.347-.65-1.732.007-.194.331-.161 1.086.084 1.933.383 1.319 1.397 2.511 2.639 3.101.308.146.312.15.286.272-.103.479-.141.879-.141 1.494V12H3.446c-1.688 0-1.788.011-2.064.221-.08.061-.195.194-.254.295-.091.156-.108.23-.108.484 0 .256.016.328.111.489.061.103.173.236.25.294.273.208.319.213 2.029.215L5 14l.001.23c.001.465.136 1.237.341 1.953.021.073-.017.101-.287.219a5.08 5.08 0 0 0-2.791 3.038c-.179.536-.276 1.123-.255 1.548.014.276.035.357.135.52a1 1 0 0 0 1.708.006c.097-.158.12-.251.152-.617.045-.519.121-.83.284-1.154.368-.736.986-1.307 1.693-1.565.165-.06.307-.102.315-.094l.259.325c.348.44.836.909 1.04 1.001.609.272 1.313-.138 1.393-.812.041-.347-.041-.526-.425-.935-.496-.527-.733-.86-1.002-1.403-.263-.532-.367-.825-.471-1.336-.061-.301-.07-.597-.07-2.384 0-2.01.001-2.045.092-2.362a3.08 3.08 0 0 1 2.066-2.066C9.499 8.02 9.51 8.02 12 8.02c2.496 0 2.501 0 2.82.093.97.281 1.774 1.072 2.047 2.016.049.17.107.509.128.754.033.381.055.471.153.631a1 1 0 0 0 1.708-.006c.1-.163.121-.244.135-.52.014-.284-.038-.739-.136-1.194-.021-.099-.002-.116.291-.26 1.446-.712 2.471-2.096 2.754-3.719.162-.93.018-1.442-.48-1.707-.223-.119-.656-.119-.881-.001-.387.205-.535.469-.581 1.031-.039.479-.087.706-.216 1.026-.234.576-.837 1.25-1.362 1.522-.454.235-.412.242-.778-.139a5.2 5.2 0 0 0-1.3-.972L16 6.42v-.385c0-.657-.179-1.403-.453-1.894l-.097-.172.658-.655c.802-.798.872-.904.872-1.314 0-.254-.017-.328-.108-.484a1 1 0 0 0-1.215-.449c-.165.056-.311.179-.906.766l-.71.699-.272-.125c-1.186-.547-2.352-.547-3.538 0l-.272.125-.71-.699c-.595-.587-.741-.71-.906-.766a1 1 0 0 0-.673-.006m4.829 3c.536.14 1.037.545 1.273 1.029.136.28.228.608.228.812V6h-4v-.098c0-.204.092-.532.228-.812a2.07 2.07 0 0 1 1.256-1.027 2.3 2.3 0 0 1 1.015-.002m-.382 7.391a1.63 1.63 0 0 0-.991.861l-.106.227v8.92l.107.229c.15.319.431.605.748.761.238.118.298.13.624.13.288 0 .4-.018.553-.088.105-.049 1.554-.94 3.22-1.98 3.346-2.089 3.378-2.113 3.632-2.648a1.9 1.9 0 0 0 0-1.728c-.253-.534-.284-.556-3.664-2.664-1.683-1.05-3.127-1.936-3.21-1.971-.209-.087-.689-.112-.913-.049M18.08 17c0 .011-.993.641-2.206 1.4l-2.54 1.59-.334.21v-6.395l2.54 1.587c1.397.874 2.54 1.597 2.54 1.608"/></svg>