<svg xmlns="http://www.w3.org/2000/svg" width="24" height="24" fill="none" stroke="currentColor" stroke-linecap="round" stroke-linejoin="round" stroke-width="2"><path fill="#000" fill-rule="evenodd" stroke="none" d="M1.67 1.061c-.222.081-.42.248-.542.455-.092.156-.108.229-.107.484 0 .212.022.341.074.44.04.077 1.214 1.283 2.609 2.68l2.535 2.54-.24.32a5.1 5.1 0 0 0-.737 1.426C5.064 9.998 5 10.455 5 11.29V12H3.446c-1.688 0-1.788.011-2.064.221-.08.061-.195.194-.254.295-.091.156-.108.23-.108.484 0 .256.016.328.111.489.061.103.173.236.25.294.273.208.319.213 2.029.215L5 14v.238c0 .477.19 1.578.339 1.966.019.049-.045.094-.285.199a5.07 5.07 0 0 0-2.79 3.037c-.179.536-.276 1.123-.255 1.548.014.276.035.357.135.52a1 1 0 0 0 1.708.006c.097-.158.12-.251.152-.617.045-.519.121-.83.284-1.154.368-.736.986-1.307 1.693-1.565.165-.06.307-.102.315-.094l.221.276c1.216 1.531 2.927 2.446 4.942 2.641 1.93.187 4.08-.61 5.49-2.034l.297-.3 2.087 2.082c1.148 1.146 2.15 2.116 2.227 2.156.099.052.228.074.44.074.258.001.327-.015.492-.112.476-.28.647-.9.373-1.359-.055-.092-4.65-4.715-10.212-10.273C3.3 1.889 2.525 1.125 2.343 1.065a1 1 0 0 0-.673-.004m5.98.005c-.524.186-.803.885-.549 1.375.082.159 2.021 2.163 2.22 2.295.204.135.493.188.739.136.217-.046.347-.122.612-.362.398-.359 1.057-.559 1.592-.482a2.02 2.02 0 0 1 1.719 1.759l.026.207-.794.013c-.725.012-.809.021-.955.099-.353.191-.548.509-.548.894s.195.703.548.893c.148.08.235.088 1.2.11.911.02 1.08.034 1.36.113a3.05 3.05 0 0 1 2.056 2.023c.093.307.099.383.121 1.741l.023 1.42.111.189c.125.213.318.375.539.454.219.078 4.441.078 4.66 0 .221-.079.414-.241.539-.454.095-.161.111-.233.111-.489 0-.254-.017-.328-.108-.484a1.2 1.2 0 0 0-.254-.295c-.276-.21-.376-.221-2.064-.221H19v-.69c0-.615-.038-1.014-.141-1.496-.027-.124-.023-.127.287-.28 1.446-.712 2.471-2.096 2.754-3.719.162-.93.018-1.442-.48-1.707-.223-.119-.656-.119-.881-.001-.387.205-.535.469-.581 1.031-.039.479-.087.706-.216 1.026-.234.576-.837 1.25-1.362 1.522-.454.235-.412.242-.778-.139a5.2 5.2 0 0 0-1.3-.972L16 6.42l-.001-.36a4.04 4.04 0 0 0-.412-1.826l-.135-.266.656-.654c.802-.798.872-.904.872-1.314 0-.254-.017-.328-.108-.484a1 1 0 0 0-1.215-.449c-.166.056-.312.18-.917.776l-.72.709-.22-.115c-.345-.18-.903-.346-1.351-.402a4.04 4.04 0 0 0-2.225.393l-.276.139-.704-.72c-.653-.669-.72-.725-.921-.784-.265-.077-.449-.076-.673.003m1.7 9.704L11 12.42v3.25c0 1.787-.005 3.25-.011 3.25s-.14-.036-.298-.08c-1.842-.51-3.179-1.938-3.596-3.84-.068-.308-.075-.539-.075-2.42 0-1.858.007-2.108.07-2.34.109-.404.482-1.12.583-1.12.015 0 .769.742 1.677 1.65m6.45 6.486c0 .069-.623.643-.922.849a5.7 5.7 0 0 1-1.768.791l-.11.026V14.42l1.4 1.4c.77.77 1.4 1.416 1.4 1.436"/></svg>