<svg xmlns="http://www.w3.org/2000/svg" width="24" height="24" fill="none" stroke="currentColor" stroke-linecap="round" stroke-linejoin="round" stroke-width="2"><path fill="#000" fill-rule="evenodd" stroke="none" d="M7.67 1.061c-.222.081-.42.248-.542.455-.091.156-.108.23-.108.484 0 .41.07.516.872 1.314l.658.655-.097.172C8.178 4.633 8 5.37 8 6.016v.406l-.29.145c-.431.214-.947.6-1.312.98l-.324.337-.147-.046c-.425-.134-1.025-.605-1.35-1.059-.357-.501-.511-.95-.573-1.669-.03-.348-.057-.465-.14-.607-.383-.654-1.347-.65-1.732.007-.194.331-.161 1.086.084 1.933.383 1.319 1.397 2.511 2.639 3.101.308.146.312.15.286.272-.103.479-.141.879-.141 1.494V12H3.446c-1.688 0-1.788.011-2.064.221-.08.061-.195.194-.254.295-.091.156-.108.23-.108.484 0 .256.016.328.111.489.061.103.173.236.25.294.273.208.319.213 2.023.215L4.989 14l.027.399q.053.769.244 1.477c.056.207.097.38.091.386a9 9 0 0 1-.367.174c-.855.394-1.487.914-2.053 1.687-.573.783-.965 2-.922 2.865.014.276.035.357.135.52a1 1 0 0 0 1.708.006c.097-.158.12-.251.152-.617.02-.236.065-.538.099-.67.168-.645.669-1.328 1.292-1.757.189-.131.777-.389.885-.388.033 0 .132.1.219.222.088.122.329.393.536.601a7 7 0 0 0 3.945 2.021c.413.066 1.627.066 2.04 0a7 7 0 0 0 3.945-2.021c.207-.208.448-.479.536-.601.087-.122.181-.223.208-.223.027-.001.169.044.315.099a3.13 3.13 0 0 1 1.712 1.626c.166.363.216.578.262 1.108.03.349.054.443.15.6a1 1 0 0 0 1.708-.006c.1-.163.121-.244.135-.52.043-.865-.349-2.083-.923-2.865a5.05 5.05 0 0 0-2.052-1.687 9 9 0 0 1-.367-.174 3 3 0 0 1 .091-.386q.191-.708.244-1.477l.027-.399 1.585-.002c1.704-.002 1.75-.007 2.023-.215.077-.058.189-.191.25-.294.095-.161.111-.233.111-.489 0-.254-.017-.328-.108-.484a1.2 1.2 0 0 0-.254-.295c-.276-.21-.376-.221-2.064-.221H19v-.69c0-.615-.038-1.014-.141-1.496-.027-.124-.023-.127.287-.28 1.446-.712 2.471-2.096 2.754-3.719.162-.93.018-1.442-.48-1.707-.223-.119-.656-.119-.881-.001-.387.205-.535.469-.581 1.031-.039.479-.087.706-.216 1.026-.234.576-.837 1.25-1.362 1.522-.454.235-.412.242-.778-.139a5.2 5.2 0 0 0-1.3-.972L16 6.42v-.385c0-.657-.179-1.403-.453-1.894l-.097-.172.658-.655c.802-.798.872-.904.872-1.314 0-.254-.017-.328-.108-.484a1 1 0 0 0-1.215-.449c-.165.056-.311.179-.906.766l-.71.699-.272-.125c-1.186-.547-2.352-.547-3.538 0l-.272.125-.71-.699c-.595-.587-.741-.71-.906-.766a1 1 0 0 0-.673-.006m4.829 3c.536.14 1.037.545 1.273 1.029.136.28.228.608.228.812V6h-4v-.098c0-.204.092-.532.228-.812a2.07 2.07 0 0 1 1.256-1.027 2.3 2.3 0 0 1 1.015-.002m2.341 4.055a3.09 3.09 0 0 1 2.048 2.062c.091.317.092.353.092 2.342 0 2.225-.009 2.337-.242 3.035a5.05 5.05 0 0 1-3.587 3.306l-.15.028-.01-4.095-.011-4.094-.109-.186a1.01 1.01 0 0 0-1.742 0l-.109.186-.011 4.094-.01 4.095-.15-.028a5.09 5.09 0 0 1-3.704-3.681c-.124-.487-.152-1.086-.136-2.92.014-1.785.015-1.803.114-2.121a3.04 3.04 0 0 1 2.376-2.097c.11-.019 1.29-.03 2.621-.025 2.378.009 2.425.011 2.72.099"/></svg>