<svg xmlns="http://www.w3.org/2000/svg" width="24" height="24" fill="none" stroke="currentColor" stroke-linecap="round" stroke-linejoin="round" stroke-width="2"><path fill="#000" fill-rule="evenodd" stroke="none" d="M7.499 1.043c-1.11.189-2.011.981-2.385 2.097l-.094.28-.011 3.785-.012 3.786-.768.019c-.662.017-.813.033-1.09.116a3.07 3.07 0 0 0-2.025 2.034l-.094.3v7.08l.094.3a3.09 3.09 0 0 0 2.046 2.046l.3.094h17.08l.3-.094a3.09 3.09 0 0 0 2.046-2.046l.094-.3V10.46l-.094-.3a3.07 3.07 0 0 0-2.025-2.034c-.277-.083-.428-.099-1.089-.116l-.768-.019-.013-2.286c-.013-2.267-.014-2.287-.106-2.565a3.11 3.11 0 0 0-2.024-2.019l-.321-.101-4.42-.006c-2.431-.003-4.511.01-4.621.029m8.811 2.018c.279.083.546.35.629.629.054.18.061 1.217.061 8.757V21H7v-8.553c0-9.609-.026-8.814.304-9.144.314-.314.042-.297 4.679-.3 3.58-.003 4.149.005 4.327.058M9.695 5.057a1.04 1.04 0 0 0-.567.459c-.091.156-.108.23-.108.484 0 .256.016.328.111.489.125.213.318.375.539.454.219.078 4.441.078 4.66 0 .221-.079.414-.241.539-.454.095-.161.111-.233.111-.489 0-.254-.017-.328-.108-.484a1.02 1.02 0 0 0-.582-.461c-.257-.077-4.347-.076-4.595.002m0 4a1.04 1.04 0 0 0-.567.459c-.091.156-.108.23-.108.484 0 .256.016.328.111.489.125.213.318.375.539.454.219.078 4.441.078 4.66 0 .221-.079.414-.241.539-.454.095-.161.111-.233.111-.489 0-.254-.017-.328-.108-.484a1.02 1.02 0 0 0-.582-.461c-.257-.077-4.347-.076-4.595.002m10.615 1.004c.279.083.546.35.629.629.053.178.061.804.061 4.811 0 5 .008 4.817-.221 5.117-.061.08-.194.195-.295.254-.176.103-.212.109-.834.121l-.65.014V10h.553c.378 0 .617.019.757.061M5 17.003v4.004l-.65-.014c-.622-.012-.658-.018-.834-.121a1.2 1.2 0 0 1-.291-.249c-.231-.303-.225-.2-.225-3.601 0-3.55-.012-3.404.304-3.719.25-.251.423-.297 1.126-.3L5 13zm4.695-3.946a1.04 1.04 0 0 0-.567.459c-.091.156-.108.23-.108.484 0 .256.016.328.111.489.125.213.318.375.539.454.219.078 4.441.078 4.66 0 .221-.079.414-.241.539-.454.095-.161.111-.233.111-.489 0-.254-.017-.328-.108-.484a1.02 1.02 0 0 0-.582-.461c-.257-.077-4.347-.076-4.595.002m0 4a1.04 1.04 0 0 0-.567.459c-.091.156-.108.23-.108.484 0 .256.016.328.111.489.125.213.318.375.539.454.219.078 4.441.078 4.66 0 .221-.079.414-.241.539-.454.095-.161.111-.233.111-.489 0-.254-.017-.328-.108-.484a1.02 1.02 0 0 0-.582-.461c-.257-.077-4.347-.076-4.595.002"/></svg>