<svg xmlns="http://www.w3.org/2000/svg" width="24" height="24" fill="none" stroke="currentColor" stroke-linecap="round" stroke-linejoin="round" stroke-width="2"><path fill="#000" fill-rule="evenodd" stroke="none" d="M5.499 2.043A3.04 3.04 0 0 0 3.121 4.14c-.06.192-.095.432-.11.764l-.022.483-.763.377c-.535.263-.812.425-.928.539A1.04 1.04 0 0 0 1 7c0 .406.293.811.678.939.296.099.529.066.944-.133.19-.091.352-.166.361-.166.008 0 .02 2.236.026 4.97l.011 4.97.094.28c.27.804.826 1.46 1.546 1.824l.32.161.02.731c.02.728.02.731.141.927a.998.998 0 0 0 1.718 0c.12-.195.121-.203.134-.85L7.007 20h9.986l.014.653c.013.647.014.655.134.85a.998.998 0 0 0 1.718 0c.121-.196.121-.199.141-.927l.02-.731.32-.161a3.15 3.15 0 0 0 1.546-1.824l.094-.28.011-4.97c.006-2.733.018-4.97.026-4.97s.171.075.361.166c.415.199.648.232.944.133A1.03 1.03 0 0 0 23 7a1.08 1.08 0 0 0-.275-.678c-.1-.104-.387-.272-.93-.544l-.784-.393-.022-.483c-.015-.33-.05-.57-.11-.762a3.09 3.09 0 0 0-2.018-2.019l-.321-.101-6.42-.006c-3.531-.003-6.511.01-6.621.029M18.31 4.061a.9.9 0 0 1 .387.242c.31.311.303.235.303 3.144V10H5V7.447c0-2.909-.007-2.833.304-3.144.319-.32-.184-.297 6.679-.3 5.37-.003 6.148.004 6.327.058m-8.615.996a1.04 1.04 0 0 0-.567.459c-.091.156-.108.23-.108.484 0 .256.016.328.111.489.125.213.318.375.539.454.219.078 4.441.078 4.66 0 .221-.079.414-.241.539-.454.095-.161.111-.233.111-.489 0-.254-.017-.328-.108-.484a1.02 1.02 0 0 0-.582-.461c-.257-.077-4.347-.076-4.595.002M19 14.554c0 2.771 0 2.774-.221 3.064-.061.08-.194.195-.295.254l-.184.108H5.7l-.184-.108a1.2 1.2 0 0 1-.291-.249c-.229-.3-.225-.25-.225-3.048V12h14zm-11.305-.499a1.05 1.05 0 0 0-.567.461c-.091.156-.108.23-.108.484 0 .257.016.327.113.492.518.882 1.865.526 1.865-.492a.99.99 0 0 0-.535-.888 1.17 1.17 0 0 0-.768-.057m8 0a1.05 1.05 0 0 0-.567.461c-.091.156-.108.23-.108.484 0 .257.016.327.113.492.518.882 1.865.526 1.865-.492a.99.99 0 0 0-.535-.888 1.17 1.17 0 0 0-.768-.057"/></svg>