<svg xmlns="http://www.w3.org/2000/svg" width="24" height="24" fill="none" stroke="currentColor" stroke-linecap="round" stroke-linejoin="round" stroke-width="2"><path fill="#000" fill-rule="evenodd" stroke="none" d="M3.499 5.043c-1.106.185-2.011.981-2.385 2.097l-.094.28-.011 5.352c-.007 3.552.003 5.403.03 5.504.06.222.251.463.469.591l.192.113 1.227.02 1.228.02.161.32a3.1 3.1 0 0 0 1.844 1.546c.434.135 1.246.135 1.68 0a3.1 3.1 0 0 0 1.848-1.556l.165-.33h3.294l.165.33a3.1 3.1 0 0 0 1.848 1.556c.252.078.387.093.84.093s.588-.015.84-.093a3.1 3.1 0 0 0 1.848-1.556l.165-.33h1.144c.664 0 1.205-.018 1.292-.042.217-.06.473-.272.578-.478.114-.226.858-2.807.995-3.457.202-.953.18-1.359-.144-2.652a17 17 0 0 0-.212-.802 103 103 0 0 1-.583-2.043c-.31-1.105-.617-2.149-.683-2.318-.169-.437-.401-.776-.8-1.168-.553-.544-1.239-.897-1.941-.998-.344-.05-14.704-.049-15 .001M7 9v2H3V9.447c0-1.798.007-1.848.304-2.144.292-.292.325-.297 2.126-.3L7 7zm7 0v2H9V7h5zm4.612-1.844c.307.156.635.478.747.734.059.134.74 2.502.863 3l.027.11H16V6.995l1.172.012 1.172.013zm2.311 6.333c.091.484.091.493.022.901-.039.227-.209.902-.378 1.501l-.308 1.089-.703.011-.702.011-.166-.331a3.08 3.08 0 0 0-1.827-1.546c-.273-.083-.403-.098-.861-.098s-.588.015-.861.098a3.08 3.08 0 0 0-1.827 1.545l-.165.33H9.853l-.165-.33a3.08 3.08 0 0 0-1.827-1.545c-.273-.083-.403-.098-.861-.098s-.588.015-.861.098a3.08 3.08 0 0 0-1.827 1.545l-.165.33H3v-4h17.832zM7.31 17.061c.378.112.69.537.69.94 0 .33-.216.695-.516.871-.156.091-.23.108-.484.108s-.328-.017-.484-.108c-.581-.342-.683-1.098-.212-1.569q.417-.418 1.006-.242m9 0c.378.112.69.537.69.94 0 .33-.216.695-.516.871-.156.091-.23.108-.484.108s-.328-.017-.484-.108c-.584-.344-.685-1.097-.209-1.573q.414-.413 1.003-.238"/></svg>