<svg xmlns="http://www.w3.org/2000/svg" width="24" height="24" fill="none" stroke="currentColor" stroke-linecap="round" stroke-linejoin="round" stroke-width="2"><path fill="#000" fill-rule="evenodd" stroke="none" d="M13.695 1.055a1.05 1.05 0 0 0-.567.461c-.091.156-.108.23-.108.484 0 .257.016.327.113.492.518.882 1.865.526 1.865-.492a.99.99 0 0 0-.535-.888 1.17 1.17 0 0 0-.768-.057m-4 1a1.05 1.05 0 0 0-.567.461c-.091.156-.108.23-.108.484 0 .257.016.327.113.492.518.882 1.865.526 1.865-.492a.99.99 0 0 0-.535-.888 1.17 1.17 0 0 0-.768-.057m7.065 2.224C.755 8.281 1.597 8.067 1.424 8.188c-.585.412-.545 1.31.075 1.674.369.216.162.255 5.011-.958A557 557 0 0 1 10.96 7.8c.026 0 .04.553.04 1.6V11H8.89c-2.255 0-2.608.023-3.135.204-1.387.475-2.383 1.601-2.672 3.023C3.005 14.61 3 14.765 3 17s.005 2.39.083 2.773a4.03 4.03 0 0 0 1.873 2.663c.329.199.854.396 1.287.485.377.076.559.079 5.757.079s5.38-.003 5.757-.079c1.627-.332 2.832-1.537 3.164-3.164.074-.363.079-.552.079-2.757s-.005-2.394-.079-2.757a4.02 4.02 0 0 0-2.676-3.039c-.527-.181-.88-.204-3.135-.204H13V7.283l.15-.04c.082-.021 2.2-.552 4.707-1.178 5.005-1.251 4.763-1.176 4.994-1.551.397-.641-.097-1.52-.848-1.513-.079.001-2.438.576-5.243 1.278M8 14.5V16H5v-.602c0-.927.134-1.342.583-1.8.445-.454.859-.592 1.787-.596L8 13zm6 0V16h-4v-3h4zm3.523-1.427c.343.09.675.293.931.569.429.463.544.837.545 1.768L19 16h-3v-3l.63.002c.46.002.701.021.893.071m1.476 5.517c-.001.968-.12 1.329-.599 1.814a1.83 1.83 0 0 1-.908.536c-.344.09-10.64.09-10.984 0-.685-.178-1.259-.746-1.435-1.417-.05-.192-.069-.433-.071-.893L5 18h14z"/></svg>