<svg xmlns="http://www.w3.org/2000/svg" width="24" height="24" fill="none" stroke="currentColor" stroke-linecap="round" stroke-linejoin="round" stroke-width="2"><path fill="#000" fill-rule="evenodd" stroke="none" d="M13.727 2.037c-.16.041-.174.051-1.927 1.317l-1.379.998-.148-.075a3 3 0 0 0-.46-.165c-.455-.131-1.22-.124-1.674.013A3.07 3.07 0 0 0 6.114 6.16c-.077.25-.093.389-.093.835l-.001.534L4.149 8.91c-1.029.759-1.907 1.43-1.951 1.492-.205.289-.198.098-.197 5.153 0 5.118-.006 4.96.224 5.415.135.267.538.67.805.805.466.236-.033.224 8.962.224 9.159.001 8.563.018 9.034-.264a1.93 1.93 0 0 0 .901-1.172c.063-.241.069-.658.071-5.048.002-5.297.011-5.091-.259-5.878-.815-2.368-3.416-5.253-6.279-6.964-1.02-.61-1.353-.732-1.733-.636m.648 2.31c.458.274 1.243.823 1.725 1.206.597.474 1.808 1.681 2.275 2.267.69.866 1.28 1.865 1.512 2.56l.093.28.011 4.67.011 4.67H4v-2l6.09-.002c4.983-.001 6.117-.011 6.24-.055.221-.079.414-.241.539-.454.095-.161.111-.233.111-.489 0-.254-.017-.328-.108-.484a1.02 1.02 0 0 0-.582-.461c-.151-.046-1.223-.055-6.236-.055H4v-2l6.09-.002c4.983-.001 6.117-.011 6.24-.055.221-.079.414-.241.539-.454.095-.161.111-.233.111-.489 0-.254-.017-.328-.108-.484a1.02 1.02 0 0 0-.582-.461c-.151-.046-1.223-.055-6.236-.055H4l.001-.25.001-.25 1.384-1.02 1.516-1.114.131-.094.214.16c.274.204.54.337.914.454.432.135 1.245.135 1.679 0a3.09 3.09 0 0 0 2.046-2.046c.079-.252.093-.386.093-.84 0-.455-.015-.589-.096-.851-.052-.171-.088-.317-.079-.325.096-.09 2.256-1.624 2.285-1.624.022 0 .151.066.286.147M9.307 6.06c.294.087.586.405.655.713.097.436-.091.872-.476 1.098-.158.093-.231.109-.486.109-.254 0-.328-.017-.484-.108-.581-.342-.683-1.098-.212-1.569q.417-.417 1.003-.243"/></svg>