<svg xmlns="http://www.w3.org/2000/svg" width="24" height="24" fill="none" stroke="currentColor" stroke-linecap="round" stroke-linejoin="round" stroke-width="2"><path fill="#000" fill-rule="evenodd" stroke="none" d="M6.695 3.055a1.05 1.05 0 0 0-.567.461c-.091.156-.108.23-.108.484 0 .257.016.327.113.492.518.882 1.865.526 1.865-.492a.99.99 0 0 0-.535-.888 1.17 1.17 0 0 0-.768-.057m5 0a1.05 1.05 0 0 0-.567.461c-.091.156-.108.23-.108.484 0 .257.016.327.113.492.518.882 1.865.526 1.865-.492a.99.99 0 0 0-.535-.888 1.17 1.17 0 0 0-.768-.057m5 0a1.05 1.05 0 0 0-.567.461c-.091.156-.108.23-.108.484 0 .257.016.327.113.492.518.882 1.865.526 1.865-.492a.99.99 0 0 0-.535-.888 1.17 1.17 0 0 0-.768-.057m-10 4.002a1.04 1.04 0 0 0-.567.459L6.02 7.7l-.012 1.145-.012 1.145-.284.028c-1.206.119-2.198.929-2.598 2.122l-.094.28-.011 3.79L2.997 20h-.552c-.797 0-1.078.11-1.317.516-.091.156-.108.23-.108.484 0 .256.016.328.111.489.125.213.318.375.539.454.223.08 20.437.08 20.66 0 .221-.079.414-.241.539-.454.095-.161.111-.233.111-.489 0-.254-.017-.328-.108-.484-.239-.406-.52-.516-1.317-.516h-.552l-.012-3.79-.011-3.79-.094-.28a3.16 3.16 0 0 0-.975-1.445 2.97 2.97 0 0 0-1.623-.677l-.284-.028-.012-1.145L17.98 7.7l-.109-.186a1.01 1.01 0 0 0-1.742 0l-.109.186-.012 1.15-.013 1.15h-2.99l-.013-1.15-.012-1.15-.109-.186a1.01 1.01 0 0 0-1.085-.479c-.271.061-.516.24-.657.479l-.109.186-.012 1.15-.013 1.15h-2.99l-.013-1.15L7.98 7.7l-.108-.184a1.005 1.005 0 0 0-1.177-.459m11.615 5.004a.9.9 0 0 1 .387.242c.292.292.303.364.303 1.984v1.392l-.15.099c-.202.133-.616.235-.873.213-.281-.023-.557-.167-1.07-.56-.908-.694-1.179-.879-1.567-1.072-.527-.262-.817-.334-1.34-.334-.892 0-1.369.231-2.907 1.406-.554.424-.803.549-1.093.549s-.539-.125-1.093-.549C7.74 14.539 7.236 14.235 6.7 14.1a3.64 3.64 0 0 0-1.603.004L5 14.129v-.617c0-.767.046-.952.304-1.209.319-.32-.184-.297 6.679-.3 5.37-.003 6.148.004 6.327.058M6.328 16.08c.209.079.498.279 1.406.971.554.423.979.664 1.43.812.288.095.405.111.816.114.397.002.531-.013.778-.091.47-.147.942-.407 1.476-.812.974-.738 1.229-.915 1.438-.994.488-.185.639-.114 2.062.971.824.628 1.429.895 2.13.938.321.019.917-.033 1.08-.096.047-.018.056.146.056 1.043V20H5v-3.679l.15-.094c.356-.224.822-.282 1.178-.147"/></svg>