<svg xmlns="http://www.w3.org/2000/svg" width="24" height="24" fill="none" stroke="currentColor" stroke-linecap="round" stroke-linejoin="round" stroke-width="2"><path fill="#000" fill-rule="evenodd" stroke="none" d="M7.695 1.057a1.04 1.04 0 0 0-.567.459c-.103.176-.109.212-.121.831l-.014.646-1.266.016c-1.209.016-1.282.021-1.588.115A3.08 3.08 0 0 0 2.114 5.16l-.094.3v15.08l.094.3c.304.976 1.035 1.714 2.026 2.046l.28.094 3.851.011c2.553.008 3.902-.002 4.004-.03.223-.06.464-.25.592-.469.097-.165.113-.235.113-.492 0-.254-.017-.328-.108-.484a1.15 1.15 0 0 0-.499-.446c-.087-.038-.99-.055-3.893-.07l-3.78-.02-.184-.108a1.2 1.2 0 0 1-.291-.249C3.989 20.314 4 20.557 4 15.575V11l8.59-.002c7.072-.001 8.617-.011 8.74-.055.221-.079.414-.241.539-.454l.111-.189V5.46l-.094-.3a3.08 3.08 0 0 0-2.025-2.036c-.306-.094-.379-.099-1.588-.115l-1.266-.016-.014-.646c-.012-.621-.017-.654-.122-.833a1.01 1.01 0 0 0-1.742 0c-.105.179-.11.212-.122.836l-.014.65H9.007l-.014-.65c-.012-.622-.018-.658-.121-.834a1.005 1.005 0 0 0-1.177-.459m-.688 4.596c.013.647.014.655.134.85a.998.998 0 0 0 1.718 0c.12-.195.121-.203.134-.85L9.007 5h5.986l.014.653c.013.647.014.655.134.85a.998.998 0 0 0 1.718 0c.12-.195.121-.203.134-.85L17.007 5h1.049c1.241 0 1.36.022 1.641.303.296.296.303.347.303 2.144V9H4V7.447c0-1.798.007-1.848.304-2.144.278-.279.377-.297 1.623-.3L6.993 5zm7.933 7.373c-1.178.189-2.207.981-2.659 2.047-.201.472-.254.742-.258 1.307-.005.785.176 1.413.593 2.06.286.444 4.178 4.324 4.477 4.463.259.12.541.125.786.014.214-.097.325-.202 2.524-2.382 1.776-1.761 1.988-2.004 2.258-2.589.243-.525.319-.892.318-1.526-.001-.454-.018-.618-.089-.866a3.4 3.4 0 0 0-.917-1.565 3.2 3.2 0 0 0-1.441-.856c-.316-.096-.415-.107-.972-.108-.59 0-.638.006-1 .126-.209.07-.533.215-.72.324l-.34.196-.12-.077a3.5 3.5 0 0 0-1.84-.574 6 6 0 0 0-.6.006m1.07 2.104c.142.065.355.225.574.432.41.386.584.476.916.476s.506-.09.916-.476c.469-.442.684-.542 1.164-.542.306 0 .394.016.587.107.271.127.558.413.693.691.194.399.169.899-.067 1.382-.113.231-.305.436-1.71 1.826l-1.581 1.565-1.421-1.401a72 72 0 0 1-1.591-1.6c-.223-.258-.435-.71-.469-1-.065-.557.187-1.071.679-1.382.366-.232.904-.264 1.31-.078"/></svg>