<svg xmlns="http://www.w3.org/2000/svg" width="24" height="24" fill="none" stroke="currentColor" stroke-linecap="round" stroke-linejoin="round" stroke-width="2"><path fill="#000" fill-rule="evenodd" stroke="none" d="M7.695 1.057a1.04 1.04 0 0 0-.567.459c-.103.176-.109.212-.121.831l-.014.646-1.266.016c-1.209.016-1.282.021-1.588.115A3.08 3.08 0 0 0 2.114 5.16l-.094.3v15.08l.094.3c.304.976 1.036 1.715 2.026 2.046l.28.093 3.35.012c2.22.008 3.402-.002 3.504-.029.224-.061.465-.251.593-.47.097-.165.113-.235.113-.492 0-.254-.017-.328-.108-.484a1.15 1.15 0 0 0-.499-.446c-.086-.038-.89-.055-3.393-.07l-3.28-.02-.184-.108a1.2 1.2 0 0 1-.291-.249C3.989 20.314 4 20.557 4 15.575V11h16.12l.15.166a.98.98 0 0 0 1.454.007c.291-.323.281-.207.267-3.134l-.012-2.619-.094-.28c-.326-.981-1.072-1.723-2.024-2.016-.306-.094-.379-.099-1.588-.115l-1.266-.016-.014-.646c-.012-.621-.017-.654-.122-.833a1.01 1.01 0 0 0-1.742 0c-.105.179-.11.212-.122.836l-.014.65H9.007l-.014-.65c-.012-.622-.018-.658-.121-.834a1.005 1.005 0 0 0-1.177-.459m-.688 4.596c.013.647.014.655.134.85a.998.998 0 0 0 1.718 0c.12-.195.121-.203.134-.85L9.007 5h5.986l.014.653c.013.647.014.655.134.85a.998.998 0 0 0 1.718 0c.12-.195.121-.203.134-.85L17.007 5h1.049c1.241 0 1.36.022 1.641.303.296.296.303.347.303 2.144V9H4V7.447c0-1.798.007-1.848.304-2.144.278-.279.377-.297 1.623-.3L6.993 5zm9.028 7.778a.97.97 0 0 0-.49 1.125l.063.246-.114.085a6 6 0 0 0-.421.404c-.303.316-.308.319-.436.274a1.3 1.3 0 0 0-.344-.045.94.94 0 0 0-.884.552c-.224.491-.039 1.069.417 1.301l.182.092v1.064l-.204.116a1 1 0 0 0-.469.64c-.136.523.224 1.071.781 1.19.153.033.247.03.422-.016l.225-.059.418.419.419.418-.059.225c-.181.694.452 1.361 1.15 1.212a1.05 1.05 0 0 0 .673-.488l.105-.194h1.062l.105.194c.339.629 1.273.676 1.671.084.178-.266.226-.522.152-.808l-.059-.225.419-.418.418-.419.225.059c.706.184 1.384-.477 1.203-1.174a1 1 0 0 0-.469-.64l-.204-.116v-1.064l.182-.092c.733-.372.669-1.469-.105-1.792-.172-.072-.523-.08-.706-.016-.128.045-.133.042-.436-.274a6 6 0 0 0-.421-.404l-.114-.085.063-.246a.94.94 0 0 0-.148-.825c-.399-.592-1.36-.535-1.682.099l-.094.185-.53.002-.53.003-.095-.188c-.239-.471-.853-.654-1.341-.401m2.488 2.642c.965.252 1.599 1.233 1.444 2.232-.07.449-.243.779-.585 1.118-.373.369-.749.538-1.262.567a1.87 1.87 0 0 1-1.467-.525c-1.33-1.236-.464-3.46 1.347-3.46.143 0 .378.031.523.068"/></svg>