<svg xmlns="http://www.w3.org/2000/svg" width="24" height="24" fill="none" stroke="currentColor" stroke-linecap="round" stroke-linejoin="round" stroke-width="2"><path fill="#000" fill-rule="evenodd" stroke="none" d="M1.67 1.061c-.222.081-.42.248-.542.455-.092.156-.108.229-.107.484 0 .213.022.34.074.44.041.077.416.484.834.905l.759.766-.144.209c-.19.276-.36.638-.451.96-.07.248-.073.612-.073 7.76v7.5l.094.3c.304.976 1.035 1.714 2.026 2.046l.28.094 7.36.012c5.473.009 7.437.001 7.66-.034.483-.076 1.018-.298 1.356-.563l.096-.076.264.254c.363.35.477.405.844.406.258.001.327-.015.492-.112.476-.28.647-.9.373-1.359-.055-.092-4.65-4.715-10.212-10.273C3.3 1.889 2.525 1.125 2.343 1.065a1 1 0 0 0-.673-.004m14.025-.004a1.04 1.04 0 0 0-.567.459c-.103.176-.109.212-.121.833l-.014.649-2.886.011c-2.873.011-2.888.011-3.047.097-.353.191-.548.509-.548.894 0 .405.207.724.588.905l.2.094L12.147 5h2.846l.014.653c.013.647.014.655.134.85a.998.998 0 0 0 1.718 0c.12-.195.121-.203.134-.85L17.007 5h1.049c1.241 0 1.36.022 1.641.303.296.296.303.347.303 2.143v1.552l-2.39.011c-2.363.011-2.392.012-2.55.097-.353.191-.548.509-.548.894 0 .405.207.724.588.905l.2.094 2.35.001H20v2.35l.001 2.35.094.2c.181.382.5.588.908.588a.94.94 0 0 0 .721-.315c.3-.333.28.082.267-5.633l-.011-5.12-.094-.28c-.33-.984-1.073-1.723-2.025-2.016-.306-.094-.379-.099-1.588-.115l-1.266-.016-.014-.646c-.012-.619-.018-.655-.121-.831a1.005 1.005 0 0 0-1.177-.459M5.86 7.28 7.58 9H3.997l.011-1.63c.009-1.237.024-1.652.063-1.72a.4.4 0 0 1 .061-.09c.004 0 .782.774 1.728 1.72m8.65 8.65c2.711 2.711 4.93 4.941 4.93 4.955 0 .111-.483.118-7.54.106l-7.2-.011-.184-.108a1.2 1.2 0 0 1-.291-.249C3.989 20.314 4 20.557 4 15.575V11h5.58z"/></svg>