<svg xmlns="http://www.w3.org/2000/svg" width="24" height="24" fill="none" stroke="currentColor" stroke-linecap="round" stroke-linejoin="round" stroke-width="2"><path fill="#000" fill-rule="evenodd" stroke="none" d="M7.695 1.057a1.04 1.04 0 0 0-.567.459c-.103.176-.109.212-.121.831l-.014.646-1.266.016c-1.209.016-1.282.021-1.588.115A3.08 3.08 0 0 0 2.114 5.16l-.094.3v15.08l.094.3c.304.976 1.035 1.714 2.026 2.046l.28.094 4.62.011c5.157.013 4.801.032 5.133-.267a.94.94 0 0 0 .315-.721c0-.388-.194-.705-.548-.897l-.16-.086L9.24 21l-4.54-.02-.184-.108a1.2 1.2 0 0 1-.291-.249C3.989 20.314 4 20.557 4 15.575V11h15.997l.012 2.153.011 2.153.121.197a.998.998 0 0 0 1.718 0l.121-.197V5.46l-.094-.3a3.08 3.08 0 0 0-2.025-2.036c-.306-.094-.379-.099-1.588-.115l-1.266-.016-.014-.646c-.012-.621-.017-.654-.122-.833a1.01 1.01 0 0 0-1.742 0c-.105.179-.11.212-.122.836l-.014.65H9.007l-.014-.65c-.012-.622-.018-.658-.121-.834a1.005 1.005 0 0 0-1.177-.459m-.688 4.596c.013.647.014.655.134.85a.998.998 0 0 0 1.718 0c.12-.195.121-.203.134-.85L9.007 5h5.986l.014.653c.013.647.014.655.134.85a.998.998 0 0 0 1.718 0c.12-.195.121-.203.134-.85L17.007 5h1.049c1.241 0 1.36.022 1.641.303.296.296.303.347.303 2.144V9H4V7.447c0-1.798.007-1.848.304-2.144.278-.279.377-.297 1.623-.3L6.993 5zm8.688 12.404a1.04 1.04 0 0 0-.567.459c-.091.156-.108.23-.108.484 0 .256.016.328.111.489.125.213.318.375.539.454s6.439.079 6.66 0 .414-.241.539-.454c.095-.161.111-.233.111-.489 0-.254-.017-.328-.108-.484a1.02 1.02 0 0 0-.582-.461c-.26-.078-6.345-.076-6.595.002"/></svg>