<svg xmlns="http://www.w3.org/2000/svg" width="24" height="24" fill="none" stroke="currentColor" stroke-linecap="round" stroke-linejoin="round" stroke-width="2"><path fill="#000" fill-rule="evenodd" stroke="none" d="M7.695 1.057a1.04 1.04 0 0 0-.567.459c-.103.176-.109.212-.121.831l-.014.646-1.266.016c-1.209.016-1.282.021-1.588.115A3.08 3.08 0 0 0 2.114 5.16l-.094.3v15.08l.094.3a3.09 3.09 0 0 0 2.046 2.046l.3.094h15.08l.3-.094a3.09 3.09 0 0 0 2.046-2.046l.094-.3V5.46l-.094-.3a3.08 3.08 0 0 0-2.025-2.036c-.306-.094-.379-.099-1.588-.115l-1.266-.016-.014-.646c-.012-.621-.017-.654-.122-.833a1.01 1.01 0 0 0-1.742 0c-.105.179-.11.212-.122.836l-.014.65H9.007l-.014-.65c-.012-.622-.018-.658-.121-.834a1.005 1.005 0 0 0-1.177-.459m-.688 4.596c.013.647.014.655.134.85a.998.998 0 0 0 1.718 0c.12-.195.121-.203.134-.85L9.007 5h5.986l.014.653c.013.647.014.655.134.85a.998.998 0 0 0 1.718 0c.12-.195.121-.203.134-.85L17.007 5h1.049c1.241 0 1.36.022 1.641.303.296.296.303.347.303 2.144V9H4V7.447c0-1.798.007-1.848.304-2.144.278-.279.377-.297 1.623-.3L6.993 5zM20 15.554c0 4.943.008 4.764-.221 5.064-.061.08-.194.195-.295.254l-.184.108H4.7l-.184-.108a1.2 1.2 0 0 1-.291-.249C3.989 20.314 4 20.557 4 15.575V11h16zm-8.305-2.497a1.04 1.04 0 0 0-.567.459c-.103.176-.109.212-.121.834l-.014.65h-.55c-.795 0-1.077.111-1.315.516-.091.156-.108.23-.108.484 0 .256.016.328.111.489.125.213.318.375.539.454.098.035.352.054.737.055l.586.002.014.653c.013.647.014.655.134.85.068.11.205.253.311.325.471.316 1.102.171 1.407-.325.12-.195.121-.203.134-.85l.014-.653.586-.002c.385-.001.639-.02.737-.055.221-.079.414-.241.539-.454.095-.161.111-.233.111-.489 0-.254-.017-.328-.108-.484-.238-.405-.52-.516-1.315-.516h-.55l-.014-.65c-.012-.622-.018-.658-.121-.834a1.005 1.005 0 0 0-1.177-.459"/></svg>