<svg xmlns="http://www.w3.org/2000/svg" width="24" height="24" fill="none" stroke="currentColor" stroke-linecap="round" stroke-linejoin="round" stroke-width="2"><path fill="#000" fill-rule="evenodd" stroke="none" d="M7.695 1.057a1.04 1.04 0 0 0-.567.459c-.103.176-.109.212-.121.831l-.014.646-1.266.016c-1.209.016-1.282.021-1.588.115A3.08 3.08 0 0 0 2.114 5.16l-.094.3v15.08l.094.3a3.11 3.11 0 0 0 2.026 2.045c.279.093.285.093 2.799.106 2.815.014 2.711.024 3.034-.267a.94.94 0 0 0 .315-.721c0-.388-.194-.705-.548-.897-.158-.085-.194-.086-2.6-.106l-2.44-.02-.184-.108a1.2 1.2 0 0 1-.291-.249C3.989 20.314 4 20.557 4 15.575V11l1.59-.002c1.71-.002 1.756-.007 2.029-.215.077-.058.189-.191.25-.294.095-.161.111-.233.111-.489 0-.254-.017-.328-.108-.484a1.2 1.2 0 0 0-.254-.295C7.342 9.011 7.242 9 5.554 9H4V7.447c0-1.797.007-1.848.303-2.144.281-.281.4-.303 1.641-.303h1.049l.014.653c.013.647.014.655.134.85a.998.998 0 0 0 1.718 0c.12-.195.121-.203.134-.85L9.007 5h5.986l.014.653c.013.647.014.655.134.85a.998.998 0 0 0 1.718 0c.12-.195.121-.203.134-.85L17.007 5h1.049c1.241 0 1.36.022 1.641.303.292.292.303.363.303 1.994.001 1.392.002 1.405.095 1.603.181.382.5.588.908.588a.94.94 0 0 0 .721-.315c.282-.313.283-.324.267-2.136-.014-1.559-.018-1.627-.107-1.897-.321-.977-1.07-1.723-2.023-2.016-.306-.094-.379-.099-1.588-.115l-1.266-.016-.014-.646c-.012-.621-.017-.654-.122-.833a1.01 1.01 0 0 0-1.742 0c-.105.179-.11.212-.122.836l-.014.65H9.007l-.014-.65c-.012-.622-.018-.658-.121-.834a1.005 1.005 0 0 0-1.177-.459m3 8a1.04 1.04 0 0 0-.567.459l-.108.184-.011 2.24c-.011 2.008-.005 2.258.054 2.414.092.241.28.442.517.552l.2.093 2.2-.001c1.734-.001 2.232-.013 2.35-.055.221-.079.414-.241.539-.454.095-.161.111-.233.111-.489 0-.254-.017-.328-.108-.484a1.2 1.2 0 0 0-.254-.295c-.253-.193-.429-.221-1.369-.221-.968 0-.953.008-.531-.279 1.238-.839 2.77-.943 4.092-.276.764.385 1.326.959 1.807 1.844.08.148.205.314.277.369.684.522 1.622.086 1.632-.759.002-.182-.028-.286-.165-.571-.802-1.671-2.437-2.89-4.341-3.237-.564-.103-1.644-.091-2.18.024-.999.213-1.925.652-2.647 1.252l-.188.156-.012-.912c-.013-.907-.013-.912-.121-1.095a1.005 1.005 0 0 0-1.177-.459m6 8a1.04 1.04 0 0 0-.567.459c-.091.156-.108.23-.108.484 0 .256.016.328.111.489.061.103.173.236.25.294.254.195.371.213 1.334.215 1.008.002.99-.007.567.281-1.237.839-2.753.948-4.061.292-.794-.398-1.35-.961-1.839-1.863-.235-.432-.542-.61-1.002-.581a.96.96 0 0 0-.906.968c-.002.189.026.288.165.577.724 1.51 2.167 2.688 3.829 3.129 1.798.476 3.786.065 5.227-1.079l.3-.239.012.912.013.912.121.196a.998.998 0 0 0 1.718 0l.121-.197.011-2.243c.011-2.01.005-2.261-.054-2.417a1 1 0 0 0-.517-.552l-.2-.093-2.18.002c-1.666.002-2.219.015-2.345.054"/></svg>