<svg xmlns="http://www.w3.org/2000/svg" width="24" height="24" fill="none" stroke="currentColor" stroke-linecap="round" stroke-linejoin="round" stroke-width="2"><path fill="#000" fill-rule="evenodd" stroke="none" d="M7.695 1.057a1.04 1.04 0 0 0-.567.459c-.103.176-.109.212-.121.831l-.014.646-1.266.016c-1.209.016-1.282.021-1.588.115A3.08 3.08 0 0 0 2.114 5.16l-.094.3v15.08l.094.3c.304.976 1.035 1.714 2.026 2.046l.28.094 4.852.011c3.219.007 4.903-.003 5.004-.03.222-.06.463-.251.591-.469.097-.165.113-.235.113-.492 0-.254-.017-.328-.108-.484a1.15 1.15 0 0 0-.499-.446c-.088-.039-1.189-.055-4.893-.07l-4.78-.02-.184-.108a1.2 1.2 0 0 1-.291-.249C3.989 20.314 4 20.557 4 15.575V11h16v.245c0 .343.067.532.269.756a.98.98 0 0 0 1.104.264c.234-.09.518-.397.583-.633.036-.128.045-.939.036-3.192l-.013-3.02-.093-.28c-.328-.982-1.073-1.723-2.025-2.016-.306-.094-.379-.099-1.588-.115l-1.266-.016-.014-.646c-.012-.621-.017-.654-.122-.833a1.01 1.01 0 0 0-1.742 0c-.105.179-.11.212-.122.836l-.014.65H9.007l-.014-.65c-.012-.622-.018-.658-.121-.834a1.005 1.005 0 0 0-1.177-.459m-.688 4.596c.013.647.014.655.134.85a.998.998 0 0 0 1.718 0c.12-.195.121-.203.134-.85L9.007 5h5.986l.014.653c.013.647.014.655.134.85a.998.998 0 0 0 1.718 0c.12-.195.121-.203.134-.85L17.007 5h1.049c1.241 0 1.36.022 1.641.303.296.296.303.347.303 2.144V9H4V7.447c0-1.798.007-1.848.304-2.144.278-.279.377-.297 1.623-.3L6.993 5zm10.573 7.443c-.158.076-.64.538-2.306 2.21-1.158 1.163-2.136 2.175-2.173 2.249-.229.455-.045 1.046.407 1.312.165.097.234.113.492.112.213 0 .341-.022.44-.074.077-.041.684-.615 1.349-1.277l1.209-1.204.011 2.941.011 2.941.121.197a.998.998 0 0 0 1.718 0l.121-.197.011-2.941.011-2.941 1.209 1.204c.665.662 1.272 1.236 1.349 1.277.099.052.227.074.44.074.258.001.327-.015.492-.112.222-.13.409-.369.473-.603a1.2 1.2 0 0 0-.066-.709c-.037-.074-1.015-1.086-2.173-2.249-2.293-2.302-2.297-2.305-2.726-2.305a.95.95 0 0 0-.42.095"/></svg>