<svg xmlns="http://www.w3.org/2000/svg" width="24" height="24" fill="none" stroke="currentColor" stroke-linecap="round" stroke-linejoin="round" stroke-width="2"><path fill="#000" fill-rule="evenodd" stroke="none" d="M7.695 1.057a1.04 1.04 0 0 0-.567.459c-.103.176-.109.212-.121.831l-.014.646-1.266.016c-1.209.016-1.282.021-1.588.115A3.08 3.08 0 0 0 2.114 5.16l-.094.3v15.08l.094.3a3.11 3.11 0 0 0 2.026 2.045c.276.091.308.093 2.398.106 2.369.015 2.316.021 2.635-.267a.94.94 0 0 0 .315-.721c0-.388-.194-.705-.548-.897-.157-.084-.204-.086-2.2-.106l-2.04-.02-.184-.108a1.2 1.2 0 0 1-.291-.249C3.989 20.314 4 20.557 4 15.575V11l2.09-.002c1.641-.001 2.122-.013 2.24-.055.221-.079.414-.241.539-.454.095-.161.111-.233.111-.489 0-.254-.017-.328-.108-.484a1.2 1.2 0 0 0-.254-.295C8.334 9.004 8.283 9 6.054 9H4V7.447c0-1.797.007-1.848.303-2.144.281-.281.4-.303 1.641-.303h1.049l.014.653c.013.647.014.655.134.85a.998.998 0 0 0 1.718 0c.12-.195.121-.203.134-.85L9.007 5h5.986l.014.653c.013.647.014.655.134.85a.998.998 0 0 0 1.718 0c.12-.195.121-.203.134-.85L17.007 5h1.049c1.241 0 1.36.022 1.641.303.274.275.303.415.303 1.494.001.866.005.911.095 1.103.181.382.5.588.908.588a.94.94 0 0 0 .721-.315c.273-.303.286-.384.267-1.639-.016-1.023-.024-1.137-.108-1.394a3.1 3.1 0 0 0-2.022-2.016c-.306-.094-.379-.099-1.588-.115l-1.266-.016-.014-.646c-.012-.621-.017-.654-.122-.833a1.01 1.01 0 0 0-1.742 0c-.105.179-.11.212-.122.836l-.014.65H9.007l-.014-.65c-.012-.622-.018-.658-.121-.834a1.005 1.005 0 0 0-1.177-.459m7.845 7.966c-1.062.102-1.848.312-2.63.703-2.072 1.036-3.462 2.94-3.836 5.254-.066.413-.066 1.627 0 2.04.5 3.092 2.814 5.406 5.906 5.906.412.066 1.627.066 2.04 0 3.089-.498 5.408-2.817 5.906-5.906.028-.176.051-.635.051-1.02 0-.944-.101-1.538-.404-2.38-.858-2.383-2.992-4.147-5.471-4.522-.376-.057-1.289-.101-1.562-.075m1.012 2.02a5.01 5.01 0 0 1 4.128 3.205c.412 1.072.405 2.472-.017 3.545a5.08 5.08 0 0 1-3.063 2.939c-.556.19-.93.248-1.6.248s-1.044-.058-1.6-.248a5.04 5.04 0 0 1-3.239-3.492c-.241-.933-.178-2.115.159-2.992a5 5 0 0 1 5.232-3.205m-.857 2.014a1.04 1.04 0 0 0-.567.459l-.108.184-.012 1.379c-.013 1.509-.005 1.576.226 1.851.153.181 1.72 1.425 1.886 1.496.183.079.544.087.72.016.62-.249.849-1.001.466-1.53-.043-.059-.353-.327-.69-.595l-.611-.487-.013-1.065-.012-1.065-.108-.184a1.005 1.005 0 0 0-1.177-.459"/></svg>