<svg xmlns="http://www.w3.org/2000/svg" width="24" height="24" fill="none" stroke="currentColor" stroke-linecap="round" stroke-linejoin="round" stroke-width="2"><path fill="#000" fill-rule="evenodd" stroke="none" d="M7.695 1.057a1.04 1.04 0 0 0-.567.459c-.103.176-.109.212-.121.831l-.014.646-1.266.016c-1.209.016-1.282.021-1.588.115A3.08 3.08 0 0 0 2.114 5.16l-.094.3v15.08l.094.3c.304.976 1.035 1.714 2.026 2.046l.28.094 4.02.012c3.017.009 4.063 0 4.192-.036.236-.065.543-.349.633-.583a1.01 1.01 0 0 0-.482-1.266l-.163-.087L8.66 21l-3.96-.02-.184-.108a1.2 1.2 0 0 1-.291-.249C3.989 20.314 4 20.557 4 15.575V11h16v.253c0 .348.093.593.304.805.406.406 1.012.394 1.422-.029.287-.296.279-.181.265-3.574l-.012-3.035-.093-.28c-.328-.982-1.073-1.723-2.025-2.016-.306-.094-.379-.099-1.588-.115l-1.266-.016-.014-.646c-.012-.621-.017-.654-.122-.833a1.01 1.01 0 0 0-1.742 0c-.105.179-.11.212-.122.836l-.014.65H9.007l-.014-.65c-.012-.622-.018-.658-.121-.834a1.005 1.005 0 0 0-1.177-.459m-.688 4.596c.013.647.014.655.134.85a.998.998 0 0 0 1.718 0c.12-.195.121-.203.134-.85L9.007 5h5.986l.014.653c.013.647.014.655.134.85a.998.998 0 0 0 1.718 0c.12-.195.121-.203.134-.85L17.007 5h1.049c1.241 0 1.36.022 1.641.303.296.296.303.347.303 2.144V9H4V7.447c0-1.798.007-1.848.304-2.144.278-.279.377-.297 1.623-.3L6.993 5zm10.688 7.404a1.04 1.04 0 0 0-.567.459l-.108.184-.011 2.937-.011 2.937-1.229-1.221c-1.081-1.074-1.253-1.229-1.426-1.287a1 1 0 0 0-1.215.45c-.092.156-.108.229-.107.484 0 .212.022.341.074.44.04.077 1.021 1.091 2.179 2.254 2.293 2.302 2.297 2.305 2.726 2.305s.433-.003 2.726-2.305c1.158-1.163 2.139-2.177 2.179-2.254.052-.099.074-.228.074-.44.001-.255-.015-.328-.107-.484a1 1 0 0 0-1.215-.45c-.173.058-.345.213-1.426 1.287l-1.229 1.221-.011-2.937-.011-2.937-.108-.184a1.005 1.005 0 0 0-1.177-.459"/></svg>