<svg xmlns="http://www.w3.org/2000/svg" width="24" height="24" fill="none" stroke="currentColor" stroke-linecap="round" stroke-linejoin="round" stroke-width="2"><path fill="#000" fill-rule="evenodd" stroke="none" d="M9.26 3.037c-.334.083-.329.078-1.68 1.703L6.549 5.98l-1.544.022c-1.498.022-1.555.026-1.866.122A3.08 3.08 0 0 0 1.114 8.16l-.094.3v10.08l.094.3a3.09 3.09 0 0 0 2.046 2.046l.3.094h17.08l.3-.094a3.09 3.09 0 0 0 2.046-2.046l.094-.3V8.46l-.094-.3a3.08 3.08 0 0 0-2.025-2.036c-.311-.096-.368-.1-1.866-.122l-1.544-.022-1.031-1.24c-1.202-1.446-1.268-1.519-1.48-1.633-.159-.087-.173-.087-2.86-.094-1.485-.003-2.754.007-2.82.024m5.937 3.36c.986 1.183 1.193 1.411 1.354 1.49.187.092.206.093 1.949.113 1.974.022 1.919.014 2.217.321.299.309.283.021.283 5.18 0 5 .008 4.817-.221 5.117-.061.08-.194.195-.295.254l-.184.108H3.7l-.184-.108a1.2 1.2 0 0 1-.291-.249C2.989 18.314 3 18.562 3 13.522c0-5.183-.016-4.892.283-5.201.298-.307.243-.299 2.217-.321 1.743-.02 1.762-.021 1.949-.113.161-.079.368-.307 1.354-1.49L9.967 5h4.066zm-3.839 2.664c-1.128.176-2.215.913-2.789 1.892a3.992 3.992 0 0 0 1.943 5.751 3.99 3.99 0 0 0 5.192-2.216 3.96 3.96 0 0 0 .001-2.972 3.98 3.98 0 0 0-3.1-2.458 3.7 3.7 0 0 0-1.247.003m1.165 2.012a2.01 2.01 0 0 1 1.444 1.617c.1.653-.094 1.243-.564 1.714-.401.403-.856.596-1.403.596q-.771 0-1.347-.535c-1.33-1.236-.464-3.46 1.347-3.46.143 0 .378.031.523.068"/></svg>