<svg xmlns="http://www.w3.org/2000/svg" width="24" height="24" fill="none" stroke="currentColor" stroke-linecap="round" stroke-linejoin="round" stroke-width="2"><path fill="#000" fill-rule="evenodd" stroke="none" d="M1.67 1.061c-.222.081-.42.248-.542.455-.092.156-.108.229-.107.484 0 .212.022.341.074.44.04.077.838.907 1.773 1.844l1.699 1.705-.553.021c-.418.017-.633.046-.875.117-.953.283-1.719 1.052-2.025 2.033l-.094.3v10.08l.094.3c.304.976 1.035 1.714 2.026 2.046l.28.094 8.08.011 8.079.01.921.915c.506.503.983.948 1.06.989.099.052.227.074.44.074.258.001.327-.015.492-.112.476-.28.647-.9.373-1.359-.055-.092-4.65-4.715-10.212-10.273C3.3 1.889 2.525 1.125 2.343 1.065a1 1 0 0 0-.673-.004m7.57 1.976c-.448.139-.728.509-.728.963 0 .405.207.724.588.905l.2.094L11.667 5h2.366l1.164 1.397c.986 1.183 1.193 1.411 1.354 1.49.187.092.206.093 1.949.113 1.974.022 1.919.014 2.217.321.296.306.283.099.283 4.476l.001 3.903.094.2c.181.382.5.588.908.588a.94.94 0 0 0 .721-.315c.297-.33.28-.034.267-4.633l-.011-4.12-.094-.28c-.33-.983-1.072-1.722-2.025-2.016-.311-.096-.368-.1-1.866-.122l-1.544-.022-1.031-1.24c-1.202-1.446-1.268-1.519-1.48-1.633-.159-.087-.173-.087-2.88-.094-1.496-.004-2.765.007-2.82.024M7.77 9.19l1.19 1.19-.227.3a3.97 3.97 0 0 0-.778 2.351c.005 1.141.386 2.074 1.163 2.851A3.98 3.98 0 0 0 13 16.916c.366-.1 1.03-.42 1.296-.625l.261-.2c.057-.042.265.151 1.544 1.43l1.479 1.48-6.94-.011-6.94-.01-.184-.108a1.2 1.2 0 0 1-.291-.249C2.989 18.314 3 18.562 3 13.522c0-5.224-.019-4.897.304-5.219.287-.288.347-.297 1.916-.3L6.581 8zm5.337 5.491c-.433.338-1.184.459-1.75.282a2 2 0 0 1-1.112-2.946l.133-.219 1.408 1.408c1.395 1.395 1.407 1.408 1.321 1.475"/></svg>