<svg xmlns="http://www.w3.org/2000/svg" width="24" height="24" fill="none" stroke="currentColor" stroke-linecap="round" stroke-linejoin="round" stroke-width="2"><path fill="#000" fill-rule="evenodd" stroke="none" d="M16.65 1.064c-.242.089-.505.36-.582.599-.035.108-.22.989-.412 1.957s-.36 1.774-.374 1.79-.16-.016-.324-.072c-1.484-.511-3.189-.39-4.608.325-.751.379-1.025.608-2.534 2.115-.772.771-1.485 1.51-1.583 1.642a6.2 6.2 0 0 0-.975 1.947 5.9 5.9 0 0 0 .062 3.532c.066.196.107.369.09.383-.016.014-.857.191-1.867.392-1.32.262-1.889.392-2.02.46a1.05 1.05 0 0 0-.486.597c-.087.323-.036.496.417 1.421.234.478.453.975.486 1.106.044.174.06.468.062 1.08.002.906.022 1.029.215 1.281.058.077.191.189.294.25l.189.111 1 .022c1.17.027 1.063-.001 2.257.596.792.397.99.452 1.311.365.234-.063.49-.27.6-.483.064-.126.203-.736.458-2.02.201-1.012.378-1.854.392-1.87s.186.024.382.09c1.742.589 3.619.326 5.212-.729.374-.248.613-.468 1.892-1.747s1.499-1.518 1.747-1.892c1.054-1.591 1.317-3.472.729-5.212-.066-.196-.107-.368-.09-.382.016-.014.867-.192 1.89-.395 2.022-.401 2.1-.426 2.316-.724.145-.2.22-.471.194-.702q-.021-.184-.461-1.09a46 46 0 0 1-.472-.987c-.016-.044-.041-.539-.054-1.1-.023-1.017-.023-1.021-.131-1.204a1.2 1.2 0 0 0-.254-.295c-.25-.19-.433-.221-1.316-.221-.585 0-.87-.016-1.044-.06-.131-.033-.63-.253-1.11-.488-.96-.47-1.143-.518-1.498-.388m2.11 2.813c.193.05.535.098.79.111l.45.024v.304c0 .56.128 1.107.394 1.694.067.149.118.27.113.27-.006 0-.684.135-1.507.3s-1.528.3-1.565.3c-.089 0-.315-.226-.315-.315 0-.037.135-.742.3-1.565l.3-1.505c0-.005.158.059.35.143s.503.191.69.239M13 11.713v4.714l-.35.163c-.516.24-.853.331-1.44.386l-.21.02V7.573l.35-.166a4 4 0 0 1 1.31-.364 7 7 0 0 0 .33-.038c.005-.003.01 2.116.01 4.708m2.315-3.964c1.755 1.252 2.178 3.661.96 5.459-.094.139-.419.504-.722.812l-.551.56-.001-3.51c-.001-1.931.01-3.51.024-3.51s.144.085.29.189m-6.332 8.682c-.062.061-.798-.567-1.086-.927-.592-.739-.863-1.53-.86-2.504a3.66 3.66 0 0 1 .36-1.628c.242-.504.452-.783 1.041-1.386l.542-.554.01 3.49c.006 1.92.002 3.499-.007 3.509m-2.226.812c.068.068.123.154.123.192 0 .037-.135.742-.3 1.565l-.3 1.505c0 .005-.157-.059-.35-.141A4.4 4.4 0 0 0 4.217 20h-.205l-.024-.45a4.1 4.1 0 0 0-.35-1.48c-.084-.192-.14-.351-.125-.352s.675-.134 1.467-.296a39 39 0 0 1 1.547-.298c.07-.003.15.039.23.119"/></svg>