<svg xmlns="http://www.w3.org/2000/svg" width="24" height="24" fill="none" stroke="currentColor" stroke-linecap="round" stroke-linejoin="round" stroke-width="2"><path fill="#000" fill-rule="evenodd" stroke="none" d="M1.67 1.061c-.222.081-.42.248-.542.455-.091.156-.108.23-.108.484s.016.327.107.48c.061.101 1.383 1.454 3.028 3.097l2.919 2.917-.349.383c-.406.446-.609.715-.833 1.103a5.9 5.9 0 0 0-.78 3.47 7 7 0 0 0 .358 1.615l.079.205-1.845.367c-1.014.202-1.932.396-2.04.43a1 1 0 0 0-.603.611c-.121.362-.083.501.41 1.513.246.504.463 1.003.486 1.121.024.117.044.585.045 1.04.002.891.023 1.016.215 1.267.058.077.191.189.294.25l.189.111 1 .023c1.175.026 1.06-.003 2.197.565.855.428 1.046.483 1.371.395.234-.063.49-.27.6-.483.064-.126.208-.76.477-2.104l.385-1.925.205.079a7 7 0 0 0 1.595.357c1.37.128 2.882-.289 3.99-1.102.121-.089.392-.319.603-.51l.383-.349 2.917 2.919c1.643 1.645 2.996 2.967 3.097 3.028.153.091.226.107.48.107.257 0 .327-.016.492-.113.476-.28.647-.9.373-1.359-.055-.092-4.65-4.715-10.212-10.273C3.3 1.889 2.525 1.125 2.343 1.065a1 1 0 0 0-.673-.004m14.997-.001c-.228.087-.45.28-.544.475-.051.104-.231.907-.458 2.04a68 68 0 0 1-.393 1.887c-.011.011-.183-.034-.382-.099a5.86 5.86 0 0 0-2.976-.202c-.212.04-.457.11-.545.154a.978.978 0 0 0-.281 1.505c.298.338.563.417 1.095.325.197-.033.46-.069.587-.08l.23-.019v.722c0 .443.018.784.048.881.026.088.125.246.221.352.486.541 1.325.408 1.637-.261.081-.174.093-.262.094-.671v-.472l.25.169c.812.547 1.426 1.501 1.633 2.534.067.337.057 1.051-.022 1.499-.097.554-.024.811.319 1.113a.99.99 0 0 0 1.368-.079c.257-.275.388-.904.387-1.853-.001-.751-.071-1.195-.299-1.876-.065-.195-.109-.364-.098-.375s.862-.189 1.891-.394 1.925-.397 1.991-.424c.2-.082.442-.357.519-.589.12-.361.083-.501-.41-1.513-.243-.5-.455-.954-.471-1.009s-.04-.55-.053-1.1c-.025-.994-.026-1.001-.133-1.184a1.2 1.2 0 0 0-.254-.295c-.249-.19-.434-.221-1.302-.221-.436 0-.887-.019-1.004-.042-.12-.024-.606-.235-1.123-.488-.789-.385-.942-.447-1.14-.457a1.1 1.1 0 0 0-.382.047m1.86 2.76c.345.105.831.18 1.163.18H20v.31c0 .542.134 1.134.379 1.671l.134.295-.206.042-1.587.32-1.38.277-.127-.128-.128-.127.277-1.38.32-1.587.042-.206.295.134c.162.073.39.163.508.199M9 13.369c0 1.623-.015 2.951-.034 2.951-.057 0-.411-.277-.66-.516a3.94 3.94 0 0 1-.555-5.02c.104-.156.313-.415.466-.576l.277-.292.253.251.253.251zm4 2.043v.993l-.305.141a4.6 4.6 0 0 1-1.377.359l-.318.027v-4.511l1 .999 1 .999zm-6.164 1.764.09.096-.306 1.534c-.168.844-.315 1.573-.326 1.62-.02.084-.027.083-.367-.064A4.4 4.4 0 0 0 4.211 20H4v-.31c0-.536-.143-1.155-.392-1.7-.067-.149-.111-.271-.095-.272.015-.001.72-.143 1.567-.316a78 78 0 0 1 1.603-.318c.035-.002.104.039.153.092"/></svg>