<svg xmlns="http://www.w3.org/2000/svg" width="24" height="24" fill="none" stroke="currentColor" stroke-linecap="round" stroke-linejoin="round" stroke-width="2"><path fill="#000" fill-rule="evenodd" stroke="none" d="M15.214 1.041c-1.646.208-3.207.988-4.297 2.147-.296.316-.833 1.008-.935 1.207-.038.075-.674 1.119-1.413 2.32-.739 1.202-1.581 2.572-1.87 3.045s-1.621 2.642-2.96 4.82-2.493 4.095-2.564 4.26c-.144.334-.255.816-.255 1.108.001.663.282 1.465.684 1.953.638.774 1.692 1.215 2.626 1.098q1.203-.15 1.918-.937c.128-.14.428-.576.668-.968a5534 5534 0 0 0 4.747-7.751c1.989-3.254 3.678-5.978 3.753-6.054a.98.98 0 0 1 1.589.289c.146.313.13.573-.059.964-.223.463-.325.786-.36 1.143a2.96 2.96 0 0 0 .806 2.38 2.97 2.97 0 0 0 4.312.029c.272-.283.413-.49.631-.924a6.8 6.8 0 0 0 .751-2.89c.127-2.957-1.616-5.648-4.388-6.778a7.7 7.7 0 0 0-1.358-.387c-.481-.092-1.568-.132-2.026-.074M17 3.102c.481.074 1.252.401 1.818.771.343.224 1.019.89 1.274 1.254.379.54.657 1.195.813 1.915.089.414.1 1.391.019 1.838-.118.654-.502 1.572-.771 1.841a.93.93 0 0 1-.693.277c-.562 0-.977-.417-.979-.984-.001-.211.025-.301.179-.62.269-.56.353-.943.331-1.511-.028-.732-.102-.904-1.275-2.993L16.69 3.066c-.011-.019.014-.025.055-.013s.156.034.255.049m-2.008 1.024c.271.485.485.89.476.899a2 2 0 0 1-.252.077 2.8 2.8 0 0 0-.883.409c-.431.294-.685.593-1.164 1.367-.06.095-.073.074-.573-.92a32 32 0 0 1-.514-1.048c-.001-.017.136-.175.305-.352a5.3 5.3 0 0 1 1.143-.904c.256-.145.858-.411.93-.411.022 0 .262.397.532.883m-4.023 6.351c-.5.816-.918 1.483-.929 1.482-.03-.001-.981-2.129-.975-2.183.002-.025.398-.687.88-1.471l.875-1.424.529 1.056.528 1.057zM8.76 14.048c0 .029-1.609 2.687-1.662 2.746-.03.033-1.061-2.088-1.041-2.14.012-.031.403-.677.869-1.434l.847-1.378.494 1.085c.271.596.493 1.101.493 1.121m-3.428 5.643c-.562.927-.774 1.182-1.049 1.264-.399.118-.889-.011-1.102-.29-.216-.283-.292-.713-.179-1.01.024-.063.433-.751.909-1.527l.866-1.413.533 1.066.533 1.065z"/></svg>