<svg xmlns="http://www.w3.org/2000/svg" width="24" height="24" fill="none" stroke="currentColor" stroke-linecap="round" stroke-linejoin="round" stroke-width="2"><path fill="#000" fill-rule="evenodd" stroke="none" d="M4.499 4.043C3.38 4.232 2.461 5.048 2.114 6.16l-.094.3v11.08l.094.3a3.09 3.09 0 0 0 2.046 2.046l.3.094h15.08l.3-.094a3.09 3.09 0 0 0 2.046-2.046l.094-.3V6.46l-.094-.3a3.09 3.09 0 0 0-2.025-2.039l-.321-.101-7.42-.006c-4.081-.003-7.511.01-7.621.029M19.31 6.061c.279.083.546.35.629.629.053.178.061.856.061 5.311 0 4.211-.01 5.138-.055 5.289a1.02 1.02 0 0 1-.461.582l-.184.108H4.7l-.184-.108a1.05 1.05 0 0 1-.458-.556c-.089-.255-.087-10.323.003-10.626.079-.269.351-.547.612-.627.291-.089 14.336-.092 14.637-.002M6.695 10.057a1.04 1.04 0 0 0-.567.459c-.091.156-.108.23-.108.484 0 .256.016.328.111.489.125.213.318.375.539.454.215.077 2.445.077 2.66 0 .221-.079.414-.241.539-.454.095-.161.111-.233.111-.489 0-.254-.017-.328-.108-.484a1.02 1.02 0 0 0-.582-.461c-.251-.076-2.353-.074-2.595.002m6 0a1.04 1.04 0 0 0-.567.459c-.091.156-.108.23-.108.484 0 .256.016.328.111.489.125.213.318.375.539.454.219.078 4.441.078 4.66 0 .221-.079.414-.241.539-.454.095-.161.111-.233.111-.489 0-.254-.017-.328-.108-.484a1.02 1.02 0 0 0-.582-.461c-.257-.077-4.347-.076-4.595.002m-6 4a1.04 1.04 0 0 0-.567.459c-.091.156-.108.23-.108.484 0 .256.016.328.111.489.125.213.318.375.539.454.219.078 4.441.078 4.66 0 .221-.079.414-.241.539-.454.095-.161.111-.233.111-.489 0-.254-.017-.328-.108-.484a1.02 1.02 0 0 0-.582-.461c-.257-.077-4.347-.076-4.595.002m8 0a1.04 1.04 0 0 0-.567.459c-.091.156-.108.23-.108.484 0 .256.016.328.111.489.125.213.318.375.539.454.215.077 2.445.077 2.66 0 .221-.079.414-.241.539-.454.095-.161.111-.233.111-.489 0-.254-.017-.328-.108-.484a1.02 1.02 0 0 0-.582-.461c-.251-.076-2.353-.074-2.595.002"/></svg>