<svg xmlns="http://www.w3.org/2000/svg" width="24" height="24" fill="none" stroke="currentColor" stroke-linecap="round" stroke-linejoin="round" stroke-width="2"><path fill="#000" fill-rule="evenodd" stroke="none" d="M1.67 1.061c-.222.081-.42.248-.542.455-.092.156-.108.229-.107.484 0 .213.022.341.074.44.041.077.526.595 1.079 1.151l1.005 1.01-.21.202c-.442.424-.681.802-.855 1.358l-.094.299v11.08l.094.3c.304.976 1.035 1.714 2.026 2.046l.28.094 7.08.011 7.08.01L20 21.416c.781.779 1.483 1.448 1.56 1.489.099.052.228.074.44.074.258.001.327-.015.492-.112.476-.28.647-.9.373-1.359-.055-.092-4.65-4.715-10.212-10.273C3.3 1.889 2.525 1.125 2.343 1.065a1 1 0 0 0-.673-.004m8.57 2.976c-.448.139-.728.509-.728.963 0 .405.207.724.588.905l.2.094L14.703 6c4.972 0 4.673-.018 4.994.303s.303.022.303 4.994l.001 4.403.094.2c.181.382.5.588.908.588a.94.94 0 0 0 .721-.315c.299-.332.28.024.267-5.133l-.011-4.62-.094-.28c-.33-.982-1.065-1.715-2.025-2.019l-.321-.101-4.6-.007c-2.53-.004-4.645.007-4.7.024M6.62 8.04 8.58 10h-.844c-.924 0-1.102.029-1.354.221-.08.061-.195.194-.254.295-.091.156-.108.23-.108.484 0 .256.016.328.111.489.125.213.318.375.539.454.117.042.564.054 2.03.055l1.88.002 3 3 3 3.001-5.94-.011-5.94-.01-.184-.108a1.2 1.2 0 0 1-.291-.249C3.988 17.312 4 17.608 4 12.021c0-5.496-.005-5.347.198-5.609.1-.129.356-.332.419-.332.024 0 .925.882 2.003 1.96m9.62 1.997c-.446.136-.728.509-.728.963 0 .405.207.724.588.905.173.082.258.094.64.093.633-.002.902-.123 1.129-.509.095-.161.111-.233.111-.489 0-.254-.017-.328-.108-.484a1.02 1.02 0 0 0-.582-.461c-.194-.058-.879-.07-1.05-.018m-9.545 4.019c-.23.073-.44.243-.567.46-.091.156-.108.23-.108.484 0 .256.016.328.111.489.061.103.173.236.25.294.27.207.33.213 1.879.215 1.433.001 1.441.001 1.64-.093.381-.181.588-.5.588-.905 0-.385-.195-.703-.548-.894-.155-.083-.208-.086-1.62-.094-1.116-.007-1.499.004-1.625.044"/></svg>