<svg xmlns="http://www.w3.org/2000/svg" width="24" height="24" fill="none" stroke="currentColor" stroke-linecap="round" stroke-linejoin="round" stroke-width="2"><path fill="#000" fill-rule="evenodd" stroke="none" d="M7.9 4.044c-.879.125-1.762.74-2.176 1.516-.089.168-.741 1.755-1.049 2.555-.035.091-.063.069-.587-.443-.445-.436-.588-.551-.746-.605a1 1 0 0 0-1.214.449c-.092.156-.108.229-.107.484 0 .214.022.34.075.44.041.077.301.37.578.651l.504.511-.21.201c-.441.424-.68.803-.854 1.358l-.094.299v5.08l.094.3c.25.801.815 1.475 1.546 1.844l.32.161.02.731c.02.728.02.731.141.927a.998.998 0 0 0 1.718 0c.12-.195.121-.203.134-.85L6.007 19h11.986l.014.653c.013.647.014.655.134.85a.998.998 0 0 0 1.718 0c.121-.196.121-.199.141-.927l.02-.731.32-.161a3.1 3.1 0 0 0 1.546-1.844l.094-.3v-5.08l-.094-.299c-.174-.555-.413-.934-.854-1.358l-.21-.201.504-.511c.277-.281.537-.574.578-.651.053-.1.075-.226.075-.44.001-.255-.015-.328-.107-.484a1 1 0 0 0-1.214-.449c-.158.054-.3.169-.743.602-.301.295-.557.52-.568.502a52 52 0 0 1-.46-1.113 81 81 0 0 0-.539-1.305c-.401-.9-1.326-1.584-2.317-1.713-.362-.047-7.797-.044-8.131.004m8.16 2.062c.335.182.395.285.937 1.62l.51 1.254-2.754.01c-1.514.006-3.993.006-5.509 0l-2.756-.01.491-1.227c.27-.674.53-1.281.578-1.348.106-.149.286-.281.478-.35.116-.042.918-.051 4.005-.044l3.86.009zm3.25 4.955c.279.083.546.35.629.629.086.288.091 4.317.006 4.6a1.02 1.02 0 0 1-.461.582l-.184.108H4.7l-.184-.108a1.05 1.05 0 0 1-.458-.556c-.088-.251-.086-4.328.003-4.626.079-.269.351-.547.612-.627.291-.089 14.336-.092 14.637-.002M6.695 13.055a1.05 1.05 0 0 0-.567.461c-.091.156-.108.23-.108.484 0 .257.016.327.113.492.518.882 1.865.526 1.865-.492a.99.99 0 0 0-.535-.888 1.17 1.17 0 0 0-.768-.057m10 0a1.05 1.05 0 0 0-.567.461c-.091.156-.108.23-.108.484 0 .257.016.327.113.492.518.882 1.865.526 1.865-.492a.99.99 0 0 0-.535-.888 1.17 1.17 0 0 0-.768-.057"/></svg>