<svg xmlns="http://www.w3.org/2000/svg" width="24" height="24" fill="none" stroke="currentColor" stroke-linecap="round" stroke-linejoin="round" stroke-width="2"><path fill="#000" fill-rule="evenodd" stroke="none" d="M4.536 6.058c-.651.12-1.294.574-1.713 1.21-.147.223-1.537 3.101-1.609 3.332-.188.603-.186.575-.203 3.164-.017 2.692-.012 2.759.214 3.205.135.268.538.671.805.806.351.178.641.224 1.413.224l.704.001.165.33a3.1 3.1 0 0 0 1.848 1.556c.434.135 1.246.135 1.68 0a3.1 3.1 0 0 0 1.848-1.556l.165-.33h4.294l.165.33a3.1 3.1 0 0 0 1.848 1.556c.252.078.387.093.84.093s.588-.015.84-.093a3.1 3.1 0 0 0 1.848-1.556l.165-.33.724-.002c.549-.002.786-.019.986-.071a1.94 1.94 0 0 0 1.378-1.424c.054-.245.062-.56.051-2.165l-.012-1.878-.125-.35c-.18-.501-.346-.759-.755-1.169-.395-.396-.666-.576-1.094-.724-.343-.119-2.149-.583-3.495-.897l-.989-.23-.389-.415c-.893-.952-1.769-1.811-2.013-1.974a4.6 4.6 0 0 0-1.183-.569l-.357-.111-3.88-.008c-3.052-.006-3.941.004-4.164.045m8.167 2.137c.393.193.539.33 2.008 1.896.432.46.723.738.828.788.088.042.638.187 1.221.321.583.135 1.483.351 2 .481 1.751.441 1.809.463 2.034.779.202.284.206.324.206 1.986V16h-1.147l-.165-.33a3.08 3.08 0 0 0-1.827-1.545c-.273-.083-.403-.098-.861-.098s-.588.015-.861.098a3.08 3.08 0 0 0-1.827 1.545l-.165.33H9.853l-.165-.33a3.08 3.08 0 0 0-1.827-1.545c-.273-.083-.403-.098-.861-.098s-.588.015-.861.098a3.08 3.08 0 0 0-1.827 1.545l-.165.33H2.996l.014-2.25c.011-1.713.027-2.288.067-2.41.09-.275 1.438-3.029 1.533-3.132.197-.214.046-.207 4.033-.197l3.703.009zm-5.369 7.869c.364.124.666.549.666.937 0 .33-.216.695-.516.871-.156.091-.23.108-.484.108s-.328-.017-.484-.108c-.579-.341-.683-1.098-.215-1.566a.96.96 0 0 1 1.033-.242m10 0c.364.124.666.549.666.937 0 .33-.216.695-.516.871-.156.091-.23.108-.484.108s-.328-.017-.484-.108c-.582-.343-.685-1.097-.212-1.569a.96.96 0 0 1 1.03-.239"/></svg>