<svg xmlns="http://www.w3.org/2000/svg" width="24" height="24" fill="none" stroke="currentColor" stroke-linecap="round" stroke-linejoin="round" stroke-width="2"><path fill="#000" fill-rule="evenodd" stroke="none" d="M5.4 4.044c-1.639.185-3.139 1.246-3.874 2.741a5.4 5.4 0 0 0-.433 1.255c-.068.318-.073.642-.073 4.92v4.58l.094.3a3.1 3.1 0 0 0 2.026 2.042c.245.079.389.092 1.146.108l.865.019.163.325a3.1 3.1 0 0 0 1.846 1.552c.434.135 1.246.135 1.68 0a3.1 3.1 0 0 0 1.848-1.556l.165-.33h5.205c5.67 0 5.408.01 5.872-.225.266-.135.708-.575.841-.838.199-.392.236-.639.222-1.474-.013-.748-.015-.767-.122-.949a1.01 1.01 0 0 0-1.742 0c-.105.179-.11.212-.122.836l-.014.65h-1.991l-.013-4.85c-.011-4.488-.018-4.872-.084-5.15-.317-1.333-1.058-2.434-2.105-3.126-.754-.499-1.404-.739-2.248-.831-.468-.052-8.697-.05-9.152.001m9.461 2.077a3.09 3.09 0 0 1 2.018 2.018l.101.321.011 4.77.011 4.77H15l-.001-4.11c0-4.453.003-4.371-.218-4.807-.23-.455-.759-.88-1.258-1.01-.389-.101-2.657-.101-3.046 0-.671.176-1.239.75-1.417 1.435-.051.194-.06.723-.06 3.443 0 3.042-.004 3.213-.07 3.194l-.25-.071c-.106-.03-.393-.05-.7-.049-.432.002-.574.019-.841.1a3.08 3.08 0 0 0-1.828 1.548l-.167.333-.722-.013c-.701-.013-.727-.016-.906-.121a1.2 1.2 0 0 1-.291-.249c-.219-.287-.225-.34-.225-2.048V14h1.132c1.226 0 1.396-.021 1.798-.225.266-.135.708-.575.841-.838.208-.41.229-.585.228-1.923 0-1.329-.025-1.551-.215-1.927-.21-.414-.717-.849-1.161-.995-.162-.053-.43-.071-1.337-.089L3.153 7.98l.164-.32a3.04 3.04 0 0 1 2.182-1.617c.11-.019 2.19-.032 4.621-.029l4.42.006zM5 11v1H3v-2h2zm8 3v4h-2v-8h2zm-4.69 4.061c.378.112.69.537.69.94 0 .33-.216.695-.516.871-.156.091-.23.108-.484.108s-.328-.017-.484-.108c-.581-.342-.683-1.098-.212-1.569q.417-.418 1.006-.242"/></svg>