<svg xmlns="http://www.w3.org/2000/svg" width="24" height="24" fill="none" stroke="currentColor" stroke-linecap="round" stroke-linejoin="round" stroke-width="2"><path fill="#000" fill-rule="evenodd" stroke="none" d="M14.666 1.062c-.373.137-1.181.882-1.659 1.53-.704.954-1.048 2.03-.994 3.105.014.266.05.594.081.73l.055.248-.447.002A5.46 5.46 0 0 0 8.633 7.68C7.24 8.674 5.736 11 3.942 14.934c-1.151 2.526-2.618 6.238-2.654 6.715a.96.96 0 0 0 .981 1.037c.183-.001.376-.055.931-.26 2.676-.989 5.299-2.103 7.46-3.167 2.519-1.242 4.12-2.276 5.144-3.326.91-.933 1.443-2.194 1.504-3.557l.023-.524.244.055c.417.094 1.192.111 1.625.037 1.074-.186 1.973-.661 2.868-1.519 1.221-1.171 1.229-1.658.045-2.807-.975-.947-1.958-1.446-3.115-1.58a4.4 4.4 0 0 0-.719-.023l-.305.026.017-.431c.041-1.008-.32-2.099-.998-3.018-.484-.655-1.294-1.398-1.669-1.531a1 1 0 0 0-.658.001m.534 2.481c.629.767.917 1.662.746 2.326-.105.408-.336.832-.8 1.467l-.202.276-.153-.173a3.8 3.8 0 0 1-.645-1.111c-.109-.309-.123-.4-.124-.808-.002-.401.013-.505.112-.809.063-.192.198-.484.3-.649.178-.286.524-.738.566-.738.011 0 .101.099.2.219m4.113 4.6c.181.059.463.191.627.293.286.177.734.521.738.566.003.037-.54.448-.805.608-.138.084-.396.2-.572.258-.274.09-.392.106-.801.107-.416.001-.523-.013-.8-.106a3.5 3.5 0 0 1-1.093-.621l-.214-.18.114-.093c.453-.375 1.272-.841 1.641-.934.26-.066.801-.019 1.165.102m-6.551.637c.436.111.794.309 1.171.648.528.474.899.907 1.052 1.23.352.743.426 1.713.189 2.508l-.061.206-.846-.844c-.546-.545-.9-.867-.996-.907-.191-.079-.592-.078-.782.001-.339.141-.608.548-.608.918s.108.518 1.095 1.5c.497.494.904.917.904.94-.001.061-.762.615-1.365.993-1.473.924-3.692 2.013-6.515 3.197-1.311.55-1.958.805-1.981.782-.067-.066 1.546-3.813 2.406-5.589l.376-.778.63.622c.346.343.69.654.764.691.073.038.229.079.345.091a.993.993 0 0 0 1.039-1.314c-.063-.193-.155-.3-.905-1.057-.459-.463-.834-.855-.834-.871 0-.053.48-.792.768-1.183.76-1.03 1.454-1.575 2.272-1.785.535-.137 1.344-.137 1.882.001"/></svg>