<svg xmlns="http://www.w3.org/2000/svg" width="24" height="24" fill="none" stroke="currentColor" stroke-linecap="round" stroke-linejoin="round" stroke-width="2"><path fill="#000" fill-rule="evenodd" stroke="none" d="M6.643 6.069c-.376.132-.347.082-2.558 4.514-2.247 4.504-2.166 4.314-2.024 4.739.128.385.533.678.939.678.243 0 .521-.119.697-.298.115-.116.276-.394.542-.934L4.618 14h4.764l.379.768c.266.54.427.818.542.934.176.179.454.298.697.298.406 0 .811-.293.939-.678.142-.425.223-.235-2.024-4.739-2.253-4.515-2.185-4.398-2.599-4.52-.259-.077-.442-.076-.673.006m10.715 1.992c-1.128.176-2.215.913-2.789 1.892a3.992 3.992 0 0 0 1.943 5.751 3.96 3.96 0 0 0 2.986-.004c.193-.078.389-.168.435-.201.122-.085.155-.074.274.099.059.086.194.206.3.269.166.097.236.113.493.113s.327-.016.492-.113c.218-.128.409-.369.469-.591.027-.099.037-1.271.03-3.364L21.98 8.7l-.108-.184c-.176-.3-.541-.516-.871-.516-.308 0-.732.243-.871.498-.041.076-.056.073-.396-.087-.471-.22-.676-.284-1.132-.353a3.7 3.7 0 0 0-1.244.003M7.69 10.62c.369.737.67 1.349.67 1.36S7.748 12 7 12s-1.36-.009-1.36-.02c0-.04 1.34-2.7 1.36-2.7.011 0 .322.603.69 1.34m10.833-.547a2.01 2.01 0 0 1 1.444 1.617c.1.653-.094 1.243-.564 1.714-.401.403-.856.596-1.403.596q-.771 0-1.347-.535c-1.33-1.236-.464-3.46 1.347-3.46.143 0 .378.031.523.068"/></svg>