<svg xmlns="http://www.w3.org/2000/svg" width="24" height="24" fill="none" stroke="currentColor" stroke-linecap="round" stroke-linejoin="round" stroke-width="2"><path fill="#000" fill-rule="evenodd" stroke="none" d="M6.643 6.069c-.376.132-.347.082-2.558 4.514-2.247 4.504-2.166 4.314-2.024 4.739.128.385.533.678.939.678.243 0 .521-.119.697-.298.115-.116.276-.394.542-.934L4.618 14h4.764l.379.768c.266.54.427.818.542.934.176.179.454.298.697.298.406 0 .811-.293.939-.678.142-.425.223-.235-2.024-4.739-2.253-4.515-2.185-4.398-2.599-4.52-.259-.077-.442-.076-.673.006m8.052-.013c-.23.073-.44.244-.567.46l-.108.184-.011 4.213c-.007 2.759.004 4.265.03 4.364.06.221.251.462.469.59l.192.113 2.54.011c2.749.013 2.876.005 3.401-.208.86-.35 1.571-1.184 1.783-2.094.082-.349.082-1.029 0-1.378a3 3 0 0 0-.753-1.376l-.193-.205.158-.295c.27-.505.343-.811.343-1.435 0-.453-.015-.588-.093-.84a3.08 3.08 0 0 0-2.025-2.038l-.321-.1-2.34-.009c-1.849-.008-2.375.001-2.505.043m4.615 2.005c.378.112.69.537.69.94 0 .33-.216.695-.516.871l-.184.108-1.65.012-1.65.011V8h1.553c1.273 0 1.589.011 1.757.061M7.69 10.62c.369.737.67 1.349.67 1.36S7.748 12 7 12s-1.36-.009-1.36-.02c0-.04 1.34-2.7 1.36-2.7.011 0 .322.603.69 1.34m12.254 1.488c.19.102.403.33.481.518.071.169.071.579 0 .748-.087.207-.307.43-.525.532l-.2.093-1.85.001H16v-2.003l1.89.012c1.857.011 1.893.013 2.054.099"/></svg>