<svg xmlns="http://www.w3.org/2000/svg" width="24" height="24" fill="none" stroke="currentColor" stroke-linecap="round" stroke-linejoin="round" stroke-width="2"><path fill="#000" fill-rule="evenodd" stroke="none" d="M3.499 3.043C2.38 3.232 1.461 4.048 1.114 5.16l-.094.3v13.08l.094.3a3.09 3.09 0 0 0 2.046 2.046l.3.094h17.08l.3-.094a3.09 3.09 0 0 0 2.046-2.046l.094-.3V5.46l-.094-.3a3.09 3.09 0 0 0-2.025-2.039l-.321-.101-8.42-.006c-4.631-.003-8.511.01-8.621.029M20.31 5.061c.279.083.546.35.629.629.053.179.061.961.061 6.311 0 5.058-.009 6.138-.055 6.289a1.02 1.02 0 0 1-.461.582c-.179.105-.203.108-.93.121-.695.012-.748.008-.769-.06a63 63 0 0 1-.284-1.189c-.317-1.354-.413-1.585-.837-2.007a2.45 2.45 0 0 0-.984-.624l-.26-.093h-4.36c-3.587 0-4.399.01-4.58.056-.466.117-1.024.48-1.308.848-.308.4-.324.449-.864 2.676l-.092.38h-.758c-.751 0-.76-.001-.942-.108a1.05 1.05 0 0 1-.458-.556c-.09-.256-.087-12.323.003-12.626.079-.269.351-.547.612-.627.16-.049 1.357-.058 8.31-.06 7.161-.003 8.147.004 8.327.058M7.499 7.04a3.05 3.05 0 0 0-2.385 2.12c-.135.434-.135 1.246 0 1.68a3.09 3.09 0 0 0 2.046 2.046l.3.094h9.08l.3-.094a3.09 3.09 0 0 0 2.046-2.046c.135-.434.135-1.246 0-1.68a3.07 3.07 0 0 0-2.025-2.035c-.273-.083-.403-.098-.861-.098s-.588.015-.861.098a3.07 3.07 0 0 0-2.025 2.035c-.146.468-.129 1.361.032 1.783C13.165 10.992 13 11 12 11s-1.165-.008-1.146-.057c.094-.246.123-.467.124-.943.001-.456-.013-.587-.092-.84-.305-.981-1.076-1.753-2.025-2.031-.361-.106-1.029-.149-1.362-.089m.811 2.021c.378.112.69.537.69.94 0 .33-.216.695-.516.871-.156.091-.23.108-.484.108s-.328-.017-.484-.108c-.581-.342-.683-1.098-.212-1.569q.417-.418 1.006-.242m8 0c.378.112.69.537.69.94 0 .33-.216.695-.516.871-.156.091-.23.108-.484.108s-.328-.017-.484-.108c-.584-.344-.685-1.097-.209-1.573q.414-.413 1.003-.238m-.109 8.049c.113.101.139.179.321.961.109.468.198.868.198.89 0 .025-1.652.039-4.72.039-2.596 0-4.72-.009-4.72-.019 0-.051.399-1.655.435-1.749.092-.24-.113-.229 4.314-.23l4.05-.002z"/></svg>