<svg xmlns="http://www.w3.org/2000/svg" width="24" height="24" fill="none" stroke="currentColor" stroke-linecap="round" stroke-linejoin="round" stroke-width="2"><path fill="#000" fill-rule="evenodd" stroke="none" d="M5.695 1.057a1.04 1.04 0 0 0-.567.459L5.02 1.7l-.011 4.15-.01 4.15H3.007l-.014-.65c-.012-.624-.017-.657-.122-.836a1.01 1.01 0 0 0-1.742 0L1.02 8.7v11.84l.094.3a3.09 3.09 0 0 0 2.046 2.046l.3.094h17.08l.3-.094a3.09 3.09 0 0 0 2.046-2.046l.094-.3V8.7l-.109-.186a1.01 1.01 0 0 0-1.742 0c-.105.179-.11.212-.122.836l-.014.65h-1.992l-.01-4.15-.011-4.15-.109-.186a1.01 1.01 0 0 0-1.742 0c-.105.179-.11.212-.122.836l-.014.65h-1.986l-.014-.65c-.012-.624-.017-.657-.122-.836a1.01 1.01 0 0 0-1.742 0c-.105.179-.11.212-.122.836l-.014.65h-1.986l-.014-.65c-.012-.624-.017-.657-.122-.836a1.01 1.01 0 0 0-1.742 0c-.105.179-.11.212-.122.836L8.993 3H7.007l-.014-.65c-.012-.622-.018-.658-.121-.834a1.005 1.005 0 0 0-1.177-.459M17 7.5V10H7V5h10zm4 8.554c0 4.399.006 4.266-.221 4.564-.061.08-.194.195-.295.254l-.184.108-2.15.011-2.15.012v-1.685c0-1.893-.026-2.135-.295-2.802a3.98 3.98 0 0 0-3.1-2.458 3.4 3.4 0 0 0-1.21 0 3.99 3.99 0 0 0-3.312 3.169c-.076.372-.083.545-.083 2.091v1.685l-2.15-.012-2.15-.011-.184-.108a1.2 1.2 0 0 1-.291-.249C2.99 20.315 3 20.511 3 16.075V12h18zm-8.477.019c.499.13.993.526 1.249.998.205.38.227.597.227 2.339L14 21h-4v-1.602c0-1.801.019-1.975.265-2.384.381-.636 1.023-1.009 1.735-1.009.143 0 .378.031.523.068"/></svg>