<svg xmlns="http://www.w3.org/2000/svg" width="24" height="24" fill="none" stroke="currentColor" stroke-linecap="round" stroke-linejoin="round" stroke-width="2"><path fill="#000" fill-rule="evenodd" stroke="none" d="M3.499 3.043C2.38 3.232 1.461 4.048 1.114 5.16c-.091.291-.094.343-.094 1.723v1.423l.121.197a.998.998 0 0 0 1.718 0l.121-.196L3 7.023c.023-1.442.025-1.452.321-1.74C3.636 4.978 2.95 5 12 5c9.108 0 8.368-.026 8.697.303.326.326.303-.177.303 6.698 0 5.058-.009 6.138-.055 6.289a1.02 1.02 0 0 1-.461.582l-.184.108-3.28.02c-2.503.015-3.307.032-3.393.07a1.15 1.15 0 0 0-.499.446c-.091.156-.108.23-.108.484 0 .257.016.327.113.492.128.219.369.409.593.47.102.027 1.284.037 3.504.029l3.35-.012.28-.093c.99-.331 1.722-1.07 2.026-2.046l.094-.3V5.46l-.094-.3a3.09 3.09 0 0 0-2.025-2.039l-.321-.101-8.42-.006c-4.631-.003-8.511.01-8.621.029M1.67 11.057a1.003 1.003 0 0 0-.472 1.534c.192.265.396.357.985.449 1.799.278 3.293 1.031 4.545 2.29 1.213 1.221 1.963 2.732 2.236 4.507.087.568.183.775.445.965a.997.997 0 0 0 1.552-.546c.064-.229.012-.747-.145-1.453-.903-4.048-4.219-7.14-8.301-7.74-.51-.075-.648-.076-.845-.006m-.02 4.009c-.357.127-.65.548-.65.936 0 .314.196.675.453.834.074.046.313.129.53.186.811.211 1.363.52 1.919 1.076.557.557.867 1.11 1.076 1.923.12.462.245.668.508.83.521.322 1.252.064 1.448-.511.085-.25.083-.407-.012-.8a5.96 5.96 0 0 0-2.542-3.629 5.6 5.6 0 0 0-1.932-.834c-.388-.09-.566-.093-.798-.011m.045 3.989a1.05 1.05 0 0 0-.567.461c-.091.156-.108.23-.108.484 0 .257.016.327.113.492.518.882 1.865.526 1.865-.492a.99.99 0 0 0-.535-.888 1.17 1.17 0 0 0-.768-.057"/></svg>