<svg xmlns="http://www.w3.org/2000/svg" width="24" height="24" fill="none" stroke="currentColor" stroke-linecap="round" stroke-linejoin="round" stroke-width="2"><path fill="#000" fill-rule="evenodd" stroke="none" d="M3.833 1.881c-.997.168-1.5.62-1.737 1.559-.114.45-.104 1.876.019 2.68.128.843.376 2.062.608 2.989l.203.81-.221.517c-.436 1.016-.656 1.907-.694 2.805-.078 1.854.563 3.758 1.765 5.239 2.549 3.141 7.607 4.368 12.021 2.915C19.579 20.15 22 17.057 22 13.471c0-.976-.221-1.937-.709-3.081l-.217-.511.141-.569c.551-2.225.825-4.269.708-5.289-.176-1.546-.793-2.111-2.37-2.17-.91-.034-1.631.079-2.622.409-1.118.372-2.353 1.071-3.055 1.727l-.188.177-.454-.069c-.569-.086-1.703-.096-2.4-.02l-.506.055-.294-.247C8.835 2.872 7.157 2.122 5.595 1.9c-.436-.062-1.444-.073-1.762-.019M5.68 3.939c1.269.281 2.556.953 3.39 1.772.554.544.703.583 1.609.418.97-.176 1.822-.162 2.835.048.367.076.507.089.657.061.269-.051.325-.087.729-.474.607-.583 1.103-.921 1.901-1.297.877-.414 1.537-.585 2.381-.615.732-.027.715-.036.753.435.07.871-.245 2.928-.739 4.833-.147.567-.198.83-.186.964.011.117.113.388.279.74.531 1.125.692 1.758.688 2.696-.004.957-.185 1.729-.597 2.552-1.015 2.029-3.186 3.425-5.96 3.831-.665.098-1.787.116-2.495.04-3.51-.374-6.077-2.289-6.744-5.031-.123-.504-.198-1.24-.169-1.67.046-.7.218-1.296.67-2.322.169-.384.298-.735.308-.84.013-.131-.033-.366-.166-.858-.374-1.379-.683-2.932-.785-3.944-.062-.615-.041-1.346.041-1.402.091-.061 1.244-.016 1.6.063m2.015 9.118a1.04 1.04 0 0 0-.567.459c-.098.166-.109.229-.122.657-.017.549.034.738.27 1a.98.98 0 0 0 1.448 0c.236-.262.287-.451.27-1-.013-.428-.024-.491-.122-.657a1.005 1.005 0 0 0-1.177-.459m8 0a1.04 1.04 0 0 0-.567.459c-.098.166-.109.229-.122.657-.017.549.034.738.27 1a.98.98 0 0 0 1.448 0c.236-.262.287-.451.27-1-.013-.428-.024-.491-.122-.657a1.005 1.005 0 0 0-1.177-.459m-4.643 2.223c-.222.046-.322.101-.502.273-.157.15-.31.486-.31.681 0 .061.028.206.063.322.054.182.129.28.549.711.614.631.745.713 1.148.713.253 0 .328-.017.48-.106.228-.135 1.082-1.007 1.17-1.197a1.01 1.01 0 0 0-.49-1.332c-.162-.075-.266-.084-1.06-.092-.484-.004-.956.008-1.048.027"/></svg>