<svg xmlns="http://www.w3.org/2000/svg" width="24" height="24" fill="none" stroke="currentColor" stroke-linecap="round" stroke-linejoin="round" stroke-width="2"><path fill="#000" fill-rule="evenodd" stroke="none" d="M5.513 3.076c-1.105.242-2.03.9-2.574 1.829-.088.151-.506.977-.929 1.835-.844 1.712-.949 1.997-.995 2.7-.091 1.374.606 2.777 1.747 3.519.142.092 1.297.688 2.568 1.325 1.27.636 2.31 1.166 2.31 1.177 0 .073-1.069 2.142-1.154 2.233a1.3 1.3 0 0 1-.266.2c-.155.083-.21.086-1.687.098l-1.526.012-.014-.652c-.012-.627-.017-.659-.122-.838a1.01 1.01 0 0 0-1.742 0l-.109.186v4.606l.121.197a.998.998 0 0 0 1.718 0c.12-.194.121-.203.134-.847l.014-.651 1.646-.015c1.839-.016 1.849-.017 2.447-.311a3 3 0 0 0 1.04-.849c.126-.166.417-.695.752-1.37.3-.605.555-1.1.565-1.1.011 0 .79.383 1.731.852.984.49 1.803.872 1.925.9.312.07.629.059.968-.035.593-.163.973-.481 1.268-1.062.105-.206.203-.37.218-.365s.29.379.611.83.688.919.814 1.04c.53.507 1.296.678 1.979.443.336-.115.55-.255.818-.534.225-.235.312-.395 1.343-2.453.606-1.211 1.133-2.308 1.173-2.439.146-.489.052-1.155-.225-1.591a2.2 2.2 0 0 0-.755-.7c-.404-.215-.623-.245-1.835-.245-.6-.001-1.09-.011-1.09-.022 0-.012.045-.127.099-.257.162-.385.202-.734.128-1.101-.094-.458-.262-.783-.558-1.08-.252-.251-.271-.262-5.311-2.777C8.791 3.783 7.622 3.217 7.34 3.136c-.502-.143-1.325-.17-1.827-.06M6.78 5.055c.146.039 9.773 4.813 9.852 4.885.007.006-.685 1.406-1.538 3.112l-1.55 3.1-4.869-2.435c-4.508-2.254-4.885-2.451-5.087-2.648-.389-.38-.616-.972-.573-1.496.033-.399.114-.592.962-2.288.617-1.232.783-1.532.945-1.704.453-.478 1.224-.697 1.858-.526m-.085 3a1.05 1.05 0 0 0-.567.461c-.091.156-.108.23-.108.484 0 .257.016.327.113.492.518.882 1.865.526 1.865-.492a.99.99 0 0 0-.535-.888 1.17 1.17 0 0 0-.768-.057M20.36 13.02c0 .011-.451.923-1.003 2.026-.831 1.662-1.012 1.996-1.054 1.95a158 158 0 0 1-1.681-2.352c-.023-.038.092-.309.361-.85l.395-.794h1.491c.82 0 1.491.009 1.491.02"/></svg>