<svg xmlns="http://www.w3.org/2000/svg" width="24" height="24" fill="none" stroke="currentColor" stroke-linecap="round" stroke-linejoin="round" stroke-width="2"><path fill="#000" fill-rule="evenodd" stroke="none" d="M2.695 2.057a1.04 1.04 0 0 0-.567.459L2.02 2.7v16.84l.094.3c.304.976 1.035 1.714 2.026 2.046l.28.094 8.353.011c5.549.007 8.404-.003 8.504-.03.221-.06.462-.251.59-.469.097-.165.113-.235.113-.492 0-.254-.017-.328-.108-.484a1.15 1.15 0 0 0-.499-.446c-.089-.039-1.887-.054-8.393-.07l-8.28-.02-.184-.108a1.15 1.15 0 0 1-.446-.499c-.039-.089-.054-1.887-.07-8.393L3.98 2.7l-.108-.184a1.005 1.005 0 0 0-1.177-.459M18.05 6.778c-.093.03-.255.109-.36.176-.104.068-1.09 1.024-2.189 2.124l-1.999 2.001-1.561-1.554C10.113 7.706 10.159 7.74 9.5 7.74c-.635 0-.666.021-1.973 1.316-.601.596-1.157 1.17-1.235 1.276-.296.401-.292.357-.292 3.303 0 2.853 0 2.85.225 3.295.136.269.576.709.845.845.464.235.197.225 5.93.225s5.466.01 5.93-.225c.266-.135.708-.575.841-.838.236-.465.229-.315.229-4.809 0-3.941-.003-4.132-.076-4.366a1.52 1.52 0 0 0-.987-.981 1.85 1.85 0 0 0-.887-.003M18 12.72V16H8v-4.579l.749-.75.749-.75 1.562 1.558c1.826 1.82 1.773 1.781 2.44 1.781.676 0 .587.068 2.68-2.022.99-.988 1.805-1.797 1.81-1.798.005 0 .01 1.476.01 3.28"/></svg>