<svg xmlns="http://www.w3.org/2000/svg" width="24" height="24" fill="none" stroke="currentColor" stroke-linecap="round" stroke-linejoin="round" stroke-width="2"><path fill="#000" fill-rule="evenodd" stroke="none" d="M2.695 2.057a1.04 1.04 0 0 0-.567.459L2.02 2.7v16.84l.094.3c.304.976 1.035 1.714 2.026 2.046l.28.094 8.353.011c5.549.007 8.404-.003 8.504-.03.221-.06.462-.251.59-.469.097-.165.113-.235.113-.492 0-.254-.017-.328-.108-.484a1.15 1.15 0 0 0-.499-.446c-.089-.039-1.887-.054-8.393-.07l-8.28-.02-.184-.108a1.15 1.15 0 0 1-.446-.499c-.039-.089-.054-1.887-.07-8.393L3.98 2.7l-.108-.184a1.005 1.005 0 0 0-1.177-.459m10 2a1.04 1.04 0 0 0-.567.459l-.108.184v12.606l.121.197a.998.998 0 0 0 1.718 0l.121-.197V4.7l-.108-.184a1.005 1.005 0 0 0-1.177-.459m5 4a1.04 1.04 0 0 0-.567.459l-.108.184v8.606l.121.197c.068.11.205.253.311.325.471.316 1.102.171 1.407-.325l.121-.197V8.7l-.108-.184a1.005 1.005 0 0 0-1.177-.459m-10 5a1.04 1.04 0 0 0-.567.459l-.108.184v3.606l.121.197a.998.998 0 0 0 1.718 0l.121-.197V13.7l-.108-.184a1.005 1.005 0 0 0-1.177-.459"/></svg>