<svg xmlns="http://www.w3.org/2000/svg" width="24" height="24" fill="none" stroke="currentColor" stroke-linecap="round" stroke-linejoin="round" stroke-width="2"><path fill="#000" fill-rule="evenodd" stroke="none" d="M2.695 2.057a1.04 1.04 0 0 0-.567.459L2.02 2.7v16.84l.094.3c.304.976 1.035 1.714 2.026 2.046l.28.094 8.353.011c5.549.007 8.404-.003 8.504-.03.221-.06.462-.251.59-.469.097-.165.113-.235.113-.492 0-.254-.017-.328-.108-.484a1.15 1.15 0 0 0-.499-.446c-.089-.039-1.887-.054-8.393-.07l-8.28-.02-.184-.108a1.15 1.15 0 0 1-.446-.499c-.039-.089-.054-1.887-.07-8.393L3.98 2.7l-.108-.184a1.005 1.005 0 0 0-1.177-.459m14 0a1.04 1.04 0 0 0-.567.459c-.103.176-.109.212-.121.826l-.014.641-.306.048a1.9 1.9 0 0 0-1.091.566c-.286.285-.442.55-.536.911-.089.342-.089 6.642 0 6.984.093.36.25.626.536.912.362.362.861.596 1.27.596h.129l.013 1.153.012 1.154.121.196a.998.998 0 0 0 1.718 0l.121-.196.012-1.154.013-1.153h.129c.409 0 .908-.234 1.27-.596.29-.29.437-.541.533-.913.092-.353.094-6.575.003-6.962-.088-.373-.241-.638-.536-.932a1.9 1.9 0 0 0-1.091-.566l-.306-.048-.014-.641c-.012-.614-.018-.65-.121-.826a1.005 1.005 0 0 0-1.177-.459m-8 2a1.04 1.04 0 0 0-.567.459L8.02 4.7l-.012 1.641-.011 1.641-.309.049c-.43.068-.769.244-1.092.566-.286.285-.442.55-.536.911-.089.339-.089 4.645 0 4.984.093.36.25.626.536.912.361.361.861.596 1.269.596h.128l.014.653c.013.647.014.655.134.85a.998.998 0 0 0 1.718 0c.12-.195.121-.203.134-.85l.014-.653h.128c.408 0 .908-.235 1.269-.596.29-.29.437-.541.533-.913.091-.35.093-4.579.003-4.962-.088-.373-.241-.638-.536-.932a1.9 1.9 0 0 0-1.092-.566l-.309-.049-.011-1.641L9.98 4.7l-.108-.184a1.005 1.005 0 0 0-1.177-.459M18 9v3h-2V6h2zm-8 3v2H8v-4h2z"/></svg>