<svg xmlns="http://www.w3.org/2000/svg" width="24" height="24" fill="none" stroke="currentColor" stroke-linecap="round" stroke-linejoin="round" stroke-width="2"><path fill="#000" fill-rule="evenodd" stroke="none" d="M2.695 2.057a1.04 1.04 0 0 0-.567.459L2.02 2.7v16.84l.094.3c.304.976 1.035 1.714 2.026 2.046l.28.094 8.353.011c5.549.007 8.404-.003 8.504-.03.221-.06.462-.251.59-.469.097-.165.113-.235.113-.492 0-.254-.017-.328-.108-.484a1.15 1.15 0 0 0-.499-.446c-.089-.039-1.887-.054-8.393-.07l-8.28-.02-.184-.108a1.15 1.15 0 0 1-.446-.499c-.039-.089-.054-1.887-.07-8.393L3.98 2.7l-.108-.184a1.005 1.005 0 0 0-1.177-.459m8.804.983a3.05 3.05 0 0 0-2.385 2.12c-.135.434-.135 1.246 0 1.68a3.08 3.08 0 0 0 2.046 2.045c.24.073.396.092.78.093.264.001.554-.011.644-.028l.164-.029.427.641.427.641-.097.128c-.268.358-.456.919-.497 1.485l-.028.39-.885.379-.885.38-.115-.107c-.406-.379-.8-.609-1.275-.745-.463-.132-1.225-.126-1.681.012a3.07 3.07 0 0 0-2.025 2.035c-.135.434-.135 1.246 0 1.68a3.09 3.09 0 0 0 2.046 2.046c.434.135 1.246.135 1.68 0a3 3 0 0 0 1.051-.565c.689-.59 1.038-1.266 1.101-2.137l.028-.39.885-.379.885-.38.115.108c.399.375.755.586 1.256.743.432.135 1.245.135 1.679 0a3.09 3.09 0 0 0 2.046-2.046c.135-.434.135-1.246 0-1.68-.309-.992-1.105-1.78-2.064-2.044-.343-.094-.972-.125-1.365-.066l-.204.031-.426-.64-.426-.639.103-.151c.225-.329.455-.916.457-1.165 0-.058.015-.13.034-.159.019-.03 1.195-.344 2.727-.728 2.957-.74 2.905-.722 3.129-1.085.393-.635-.093-1.514-.836-1.514-.072 0-1.32.297-2.774.66s-2.665.66-2.693.66-.134-.098-.235-.219c-.583-.694-1.302-1.048-2.193-1.082a4 4 0 0 0-.621.021m.811 2.021c.378.112.69.537.69.939 0 .22-.12.51-.278.673-.241.248-.375.305-.722.306-.255.001-.328-.015-.484-.107-.581-.342-.683-1.098-.212-1.569q.417-.418 1.006-.242m4 6c.378.112.69.537.69.94 0 .33-.216.695-.516.871-.156.091-.23.108-.484.108s-.328-.017-.484-.108c-.584-.344-.685-1.097-.209-1.573q.414-.413 1.003-.238m-7 3c.378.112.69.537.69.94 0 .33-.216.695-.516.871-.156.091-.23.108-.484.108s-.328-.017-.484-.108c-.581-.342-.683-1.098-.212-1.569q.417-.418 1.006-.242"/></svg>