<svg xmlns="http://www.w3.org/2000/svg" width="24" height="24" fill="none" stroke="currentColor" stroke-linecap="round" stroke-linejoin="round" stroke-width="2"><path fill="#000" fill-rule="evenodd" stroke="none" d="M2.695 2.057a1.04 1.04 0 0 0-.567.459L2.02 2.7v16.84l.094.3c.304.976 1.035 1.714 2.026 2.046l.28.094 8.353.011c5.549.007 8.404-.003 8.504-.03.221-.06.462-.251.59-.469.097-.165.113-.235.113-.492 0-.254-.017-.328-.108-.484a1.15 1.15 0 0 0-.499-.446c-.089-.039-1.887-.054-8.393-.07l-8.28-.02-.184-.108a1.15 1.15 0 0 1-.446-.499c-.039-.089-.054-1.887-.07-8.393L3.98 2.7l-.108-.184a1.005 1.005 0 0 0-1.177-.459m4.782 2.016c-.671.176-1.239.75-1.417 1.435C6.013 5.687 6 6.009 6 7c0 1.368.018 1.521.225 1.93.136.269.576.709.845.845.464.235.197.225 5.93.225s5.466.01 5.93-.225c.266-.135.708-.575.841-.838.208-.41.229-.585.228-1.923 0-1.332-.025-1.551-.218-1.931-.135-.267-.484-.634-.764-.802-.484-.292-.15-.276-6.017-.276-4.843 0-5.281.005-5.523.068M14 7v1H8V6h6zm4 0v1h-2V6h2zM7.477 12.073c-.671.176-1.239.75-1.417 1.435-.047.179-.06.501-.06 1.492 0 1.368.018 1.521.225 1.93.136.269.576.709.845.845.456.231.338.225 4.423.225 4.094 0 3.981.006 4.444-.229.26-.132.702-.574.834-.834.208-.41.229-.585.228-1.923 0-1.332-.025-1.551-.218-1.931-.135-.267-.484-.634-.764-.802-.474-.286-.324-.276-4.517-.276-3.425 0-3.783.006-4.023.068M10 15v1H8v-2h2zm5 0v1h-3v-2h3z"/></svg>