<svg xmlns="http://www.w3.org/2000/svg" width="24" height="24" fill="none" stroke="currentColor" stroke-linecap="round" stroke-linejoin="round" stroke-width="2"><path fill="#000" fill-rule="evenodd" stroke="none" d="M21.64 2.068c-.157.053-.731.612-4.409 4.286l-4.23 4.224-1.552-1.547c-1.418-1.414-1.574-1.558-1.822-1.674-.24-.112-.312-.127-.624-.127-.297 0-.391.018-.607.112-.241.105-.458.313-3.709 3.555-1.987 1.981-3.498 3.519-3.56 3.623-.091.152-.107.226-.107.48 0 .257.016.327.113.492.13.222.369.409.603.473.202.054.53.024.709-.066.074-.037 1.579-1.509 3.344-3.272l3.21-3.205 1.57 1.56c1.149 1.141 1.621 1.585 1.759 1.651.416.2.926.2 1.344.001.145-.069 1.209-1.108 4.641-4.532 2.582-2.576 4.498-4.518 4.56-4.622.091-.152.107-.226.107-.48s-.017-.328-.108-.484a1.016 1.016 0 0 0-1.232-.448m-1.945 6.989a1.04 1.04 0 0 0-.567.459l-.108.184v11.606l.121.197a.998.998 0 0 0 1.718 0l.121-.197V9.7l-.108-.184a1.005 1.005 0 0 0-1.177-.459m-12 4a1.04 1.04 0 0 0-.567.459l-.108.184v7.606l.121.197a.998.998 0 0 0 1.718 0l.121-.197V13.7l-.108-.184a1.005 1.005 0 0 0-1.177-.459m8 0a1.04 1.04 0 0 0-.567.459l-.108.184v7.606l.121.197a.998.998 0 0 0 1.718 0l.121-.197V13.7l-.108-.184a1.005 1.005 0 0 0-1.177-.459m-4 2a1.04 1.04 0 0 0-.567.459l-.108.184v5.606l.121.197a.998.998 0 0 0 1.718 0l.121-.197V15.7l-.108-.184a1.005 1.005 0 0 0-1.177-.459m-8 2a1.04 1.04 0 0 0-.567.459l-.108.184v3.606l.121.197c.068.11.205.253.311.325.471.316 1.102.171 1.407-.325l.121-.197V17.7l-.108-.184a1.005 1.005 0 0 0-1.177-.459"/></svg>