<svg xmlns="http://www.w3.org/2000/svg" width="24" height="24" fill="none" stroke="currentColor" stroke-linecap="round" stroke-linejoin="round" stroke-width="2"><path fill="#000" fill-rule="evenodd" stroke="none" d="M2.695 2.057a1.04 1.04 0 0 0-.567.459L2.02 2.7v16.84l.094.3c.304.976 1.035 1.714 2.026 2.046l.28.094 8.353.011c5.549.007 8.404-.003 8.504-.03.221-.06.462-.251.59-.469.097-.165.113-.235.113-.492 0-.254-.017-.328-.108-.484a1.15 1.15 0 0 0-.499-.446c-.089-.039-1.887-.054-8.393-.07l-8.28-.02-.184-.108a1.15 1.15 0 0 1-.446-.499c-.039-.089-.054-1.887-.07-8.393L3.98 2.7l-.108-.184a1.005 1.005 0 0 0-1.177-.459m12.782 2.016c-.671.176-1.239.75-1.417 1.435-.052.197-.06.956-.06 5.492 0 5.733-.01 5.466.225 5.93.136.269.576.709.845.845.409.207.562.225 1.93.225s1.521-.018 1.93-.225c.266-.135.708-.575.841-.838.239-.471.229-.205.228-5.923 0-5.677.007-5.489-.218-5.931-.23-.455-.759-.88-1.258-1.01-.389-.101-2.657-.101-3.046 0M18 11v5h-2V6h2zM7.477 7.073c-.671.176-1.239.75-1.417 1.435-.051.195-.06.785-.06 3.992 0 4.093-.006 3.974.225 4.43.136.269.576.709.845.845.409.207.562.225 1.93.225s1.521-.018 1.93-.225c.266-.135.708-.575.841-.838.235-.463.229-.352.228-4.423 0-4.043.002-3.998-.218-4.431-.23-.455-.759-.88-1.258-1.01-.389-.101-2.657-.101-3.046 0M10 12.5V16H8V9h2z"/></svg>