<svg xmlns="http://www.w3.org/2000/svg" width="24" height="24" fill="none" stroke="currentColor" stroke-linecap="round" stroke-linejoin="round" stroke-width="2"><path fill="#000" fill-rule="evenodd" stroke="none" d="M2.695 2.057a1.04 1.04 0 0 0-.567.459L2.02 2.7v16.84l.094.3c.304.976 1.035 1.714 2.026 2.046l.28.094 8.353.011c5.549.007 8.404-.003 8.504-.03.221-.06.462-.251.59-.469.097-.165.113-.235.113-.492 0-.254-.017-.328-.108-.484a1.15 1.15 0 0 0-.499-.446c-.089-.039-1.887-.054-8.393-.07l-8.28-.02-.184-.108a1.15 1.15 0 0 1-.446-.499c-.039-.089-.054-1.887-.07-8.393L3.98 2.7l-.108-.184a1.005 1.005 0 0 0-1.177-.459m15.479 1.982c-.424.09-.845.438-1.042.861-.097.207-.112.29-.112.6 0 .311.015.394.113.604.143.309.452.617.767.764.207.097.29.112.6.112s.393-.015.6-.112c.315-.147.624-.455.767-.764.098-.21.113-.293.113-.604s-.015-.394-.113-.604a1.68 1.68 0 0 0-.748-.753 1.8 1.8 0 0 0-.945-.104m-11 2c-.424.09-.845.438-1.042.861-.097.207-.112.29-.112.6 0 .311.015.394.113.604.143.309.452.617.767.764.207.097.29.112.6.112s.393-.015.6-.112c.315-.147.624-.455.767-.764.098-.21.113-.293.113-.604s-.015-.394-.113-.604a1.68 1.68 0 0 0-.748-.753 1.8 1.8 0 0 0-.945-.104m4 4c-.424.09-.845.438-1.042.861-.097.207-.112.29-.112.6 0 .311.015.394.113.604.143.309.452.617.767.764.207.097.29.112.6.112s.393-.015.6-.112c.315-.147.624-.455.767-.764.098-.21.113-.293.113-.604s-.015-.394-.113-.604a1.68 1.68 0 0 0-.748-.753 1.8 1.8 0 0 0-.945-.104m6 3c-.424.09-.845.438-1.042.861-.097.207-.112.29-.112.6 0 .311.015.394.113.604.143.309.452.617.767.764.207.097.29.112.6.112s.393-.015.6-.112c.315-.147.624-.455.767-.764.098-.21.113-.293.113-.604s-.015-.394-.113-.604a1.68 1.68 0 0 0-.748-.753 1.8 1.8 0 0 0-.945-.104m-10 2c-.424.09-.845.438-1.042.861-.097.207-.112.29-.112.6 0 .311.015.394.113.604.143.309.452.617.767.764.207.097.29.112.6.112s.393-.015.6-.112c.315-.147.624-.455.767-.764.098-.21.113-.293.113-.604s-.015-.394-.113-.604a1.68 1.68 0 0 0-.748-.753 1.8 1.8 0 0 0-.945-.104"/></svg>