<svg xmlns="http://www.w3.org/2000/svg" width="24" height="24" fill="none" stroke="currentColor" stroke-linecap="round" stroke-linejoin="round" stroke-width="2"><path fill="#000" fill-rule="evenodd" stroke="none" d="M2.695 2.057a1.04 1.04 0 0 0-.567.459L2.02 2.7v16.84l.094.3c.304.976 1.035 1.714 2.026 2.046l.28.094 8.353.011c5.549.007 8.404-.003 8.504-.03.221-.06.462-.251.59-.469.097-.165.113-.235.113-.492 0-.254-.017-.328-.108-.484a1.15 1.15 0 0 0-.499-.446c-.089-.039-1.887-.054-8.393-.07l-8.28-.02-.184-.108a1.15 1.15 0 0 1-.446-.499c-.039-.089-.054-1.887-.07-8.393L3.98 2.7l-.108-.184a1.005 1.005 0 0 0-1.177-.459M19.65 4.066a1.2 1.2 0 0 0-.347.233c-.151.147-.194.226-.284.527-.569 1.91-1.327 3.558-2.193 4.774-.35.492-.944 1.069-1.266 1.23-.52.26-.85.211-1.197-.178-.108-.122-.36-.459-.56-.749-.458-.667-.815-1.085-1.133-1.326a2.77 2.77 0 0 0-2.779-.347c-1.435.603-2.5 2.374-3.387 5.63-.344 1.264-.512 2.034-.49 2.252a.99.99 0 0 0 1.308.827 1 1 0 0 0 .516-.396c.049-.08.221-.666.401-1.371.173-.678.389-1.472.48-1.766.575-1.862 1.348-3.149 2.009-3.345.536-.159.753-.006 1.472 1.042.654.952 1.066 1.359 1.66 1.642.739.352 1.649.33 2.487-.062.86-.403 1.763-1.32 2.571-2.61.578-.924 1.248-2.365 1.677-3.608.314-.908.418-1.326.392-1.576-.065-.636-.722-1.04-1.337-.823"/></svg>