<svg xmlns="http://www.w3.org/2000/svg" width="24" height="24" fill="none" stroke="currentColor" stroke-linecap="round" stroke-linejoin="round" stroke-width="2"><path fill="#000" fill-rule="evenodd" stroke="none" d="M12.572 1.078c-.501.078-1.113.529-1.347.991S11 2.36 11 7s-.008 4.471.225 4.93c.136.269.576.709.845.845.459.233.29.225 4.93.225 4.655 0 4.488.008 4.937-.23.278-.148.699-.581.833-.857.184-.381.217-.701.137-1.321a11.06 11.06 0 0 0-2.487-5.667 15 15 0 0 0-1.56-1.522c-1.159-.932-2.662-1.679-4.14-2.058-.806-.207-1.768-.326-2.148-.267m-5.095.895c-1.906.832-3.7 2.415-4.851 4.279a11 11 0 0 0-1.261 8.546 11 11 0 0 0 2.048 4.062c.425.533 1.305 1.401 1.842 1.817a10.96 10.96 0 0 0 9.483 1.965 11.02 11.02 0 0 0 6.363-4.479c.623-.912 1.097-1.894 1.098-2.274a.974.974 0 0 0-.956-.983c-.513-.004-.761.192-1.074.85-.531 1.113-1.098 1.901-1.977 2.747-1.006.969-2.123 1.63-3.498 2.072-2.792.897-5.885.333-8.238-1.502a11 11 0 0 1-1.46-1.433c-2.012-2.513-2.539-5.931-1.375-8.91.819-2.095 2.346-3.757 4.42-4.809.614-.311.8-.467.896-.752a.94.94 0 0 0-.017-.7c-.214-.573-.803-.775-1.443-.496m6.383 1.234c2.82.57 5.278 2.594 6.417 5.284.296.7.544 1.603.625 2.279l.027.23H13V3.071l.23.027c.127.015.41.064.63.109"/></svg>