<svg xmlns="http://www.w3.org/2000/svg" width="24" height="24" fill="none" stroke="currentColor" stroke-linecap="round" stroke-linejoin="round" stroke-width="2"><path fill="#000" fill-rule="evenodd" stroke="none" d="M2.695 2.057a1.04 1.04 0 0 0-.567.459L2.02 2.7v16.84l.094.3c.304.976 1.035 1.714 2.026 2.046l.28.094 8.353.011c5.549.007 8.404-.003 8.504-.03.221-.06.462-.251.59-.469.097-.165.113-.235.113-.492 0-.254-.017-.328-.108-.484a1.15 1.15 0 0 0-.499-.446c-.089-.039-1.887-.054-8.393-.07l-8.28-.02-.184-.108a1.15 1.15 0 0 1-.446-.499c-.039-.089-.054-1.887-.07-8.393L3.98 2.7l-.108-.184a1.005 1.005 0 0 0-1.177-.459M18.64 8.068c-.154.053-.502.383-2.41 2.286L14 12.577l-1.73-1.723c-1.549-1.542-1.751-1.73-1.927-1.788a.98.98 0 0 0-.686 0c-.176.058-.371.239-1.81 1.67-.887.882-1.658 1.68-1.713 1.772-.272.46-.102 1.079.374 1.359.165.097.234.113.492.112.213 0 .341-.022.44-.074.077-.041.685-.616 1.35-1.279L10 11.422l1.71 1.705c.941.937 1.773 1.738 1.85 1.778.194.102.686.102.88 0 .192-.1 5.298-5.199 5.433-5.425.091-.152.107-.226.107-.48s-.017-.328-.108-.484a1.016 1.016 0 0 0-1.232-.448"/></svg>