<svg xmlns="http://www.w3.org/2000/svg" width="24" height="24" fill="none" stroke="currentColor" stroke-linecap="round" stroke-linejoin="round" stroke-width="2"><path fill="#000" fill-rule="evenodd" stroke="none" d="M17.64 5.068c-.157.053-.847.727-5.41 5.286l-5.229 5.224-2.231-2.225c-2.148-2.144-2.238-2.228-2.447-2.289-.266-.078-.378-.08-.613-.009a1.02 1.02 0 0 0-.582.461c-.091.156-.108.23-.108.484s.016.328.107.48c.135.226 5.241 5.325 5.433 5.425.099.052.228.074.44.074.255.001.327-.015.48-.106.228-.136 11.325-11.24 11.425-11.433.052-.099.074-.228.074-.44.001-.255-.015-.328-.107-.484a1.016 1.016 0 0 0-1.232-.448m4 4c-.156.053-.646.527-3.66 3.535l-3.48 3.473-.482-.472c-.382-.373-.523-.485-.677-.538a1 1 0 0 0-1.213.45c-.092.156-.108.229-.107.484 0 .213.022.34.074.44.087.164 1.61 1.715 1.848 1.88.313.219.801.219 1.112.001.251-.175 7.766-7.721 7.85-7.881.052-.099.074-.228.074-.44.001-.255-.015-.328-.107-.484a1.016 1.016 0 0 0-1.232-.448"/></svg>