<svg xmlns="http://www.w3.org/2000/svg" width="24" height="24" fill="none" stroke="currentColor" stroke-linecap="round" stroke-linejoin="round" stroke-width="2"><path fill="#000" fill-rule="evenodd" stroke="none" d="M11.264 2.04c-1.734.219-3.352 1.23-4.295 2.684l-.17.264-.39.047a5.01 5.01 0 0 0-4.136 3.323c-.251.727-.34 1.727-.216 2.44.177 1.016.687 2.016 1.385 2.714.374.375.674.599 1.168.874l.37.207.02 2.933.02 2.934.091.224a2.09 2.09 0 0 0 1.397 1.256c.197.052.956.06 5.492.06 5.733 0 5.466.01 5.93-.225.266-.135.708-.575.841-.838.23-.453.229-.44.229-3.511v-2.822l.27-.147c1.131-.616 1.891-1.436 2.339-2.524.261-.634.356-1.067.38-1.74.034-.914-.117-1.609-.531-2.453-.246-.5-.454-.792-.863-1.213a5 5 0 0 0-3.004-1.492l-.39-.047-.17-.264c-.856-1.32-2.28-2.286-3.843-2.607-.461-.095-1.466-.135-1.924-.077m1.712 2.078a4 4 0 0 1 2.602 2.108c.097.194.245.421.329.502.243.235.387.276 1.028.289.642.013.934.074 1.365.286.625.307 1.095.77 1.38 1.357.237.489.297.76.298 1.34 0 .568-.059.848-.276 1.299-.297.617-.719 1.042-1.389 1.4-.458.245-.917.681-1.084 1.028-.196.41-.229.621-.229 1.481V16H7v-.792c0-.86-.033-1.071-.229-1.481-.164-.343-.627-.783-1.071-1.021-.675-.361-1.099-.787-1.398-1.406-.553-1.141-.315-2.549.578-3.423.618-.604 1.385-.888 2.353-.871.625.012.877-.154 1.189-.78a4.02 4.02 0 0 1 2.958-2.184c.382-.06 1.231-.02 1.596.076M17 19v1H7v-2h10z"/></svg>