<svg xmlns="http://www.w3.org/2000/svg" width="24" height="24" fill="none" stroke="currentColor" stroke-linecap="round" stroke-linejoin="round" stroke-width="2"><path fill="#000" fill-rule="evenodd" stroke="none" d="M11.572 1.099a.98.98 0 0 0-.504.547 25 25 0 0 0-.309 1.334c-.422 1.978-.936 3.911-1.337 5.029q-1.058 2.944-2.398 4.518l-.159.187-.151-.077a4.7 4.7 0 0 0-.834-.302c-.405-.109-1.324-.101-1.726.015-1.135.326-2.07 1.15-2.614 2.301-.392.828-.518 1.409-.517 2.389.001.574.017.775.092 1.12.522 2.425 2.302 4.205 4.725 4.725.606.13 1.714.13 2.32 0 1.464-.314 2.737-1.106 3.59-2.235.121-.159.233-.29.25-.29s.129.13.249.29c.843 1.119 2.134 1.923 3.591 2.235.606.13 1.714.13 2.32 0 1.237-.265 2.252-.817 3.109-1.69.84-.855 1.358-1.828 1.616-3.035.118-.553.13-1.636.023-2.167-.371-1.85-1.537-3.222-3.108-3.658-.364-.101-1.308-.1-1.693.001-.15.04-.281.064-.291.053a6 6 0 0 1-.159-.554 30 30 0 0 0-.913-2.733c-.122-.307-.215-.564-.207-.573.009-.008.166.07.349.174 1.373.779 2.93 1.209 4.654 1.283.631.027.8-.002 1.051-.184.467-.338.528-.977.19-1.988-.658-1.967-2.716-4.105-5.193-5.395-1.68-.874-3.374-1.334-5.168-1.402-.636-.024-.641-.024-.848.082m2.864 2.22c.884.226 2.211.806 2.984 1.305.906.585 1.792 1.345 2.366 2.028.289.344.854 1.157.854 1.227 0 .018-.212-.012-.47-.067a8.2 8.2 0 0 1-3.43-1.613c-.432-.343-1.227-1.123-1.682-1.651-.329-.382-.912-1.12-.993-1.258-.04-.067.008-.064.371.029M13.315 6.36c.817 1.641 1.371 2.912 1.868 4.29.201.554.497 1.494.497 1.574 0 .02-.274.037-.61.037-.51 0-.66.014-.916.088a4.1 4.1 0 0 0-2.007 1.328l-.147.177-.147-.177c-.528-.635-1.436-1.224-2.063-1.339l-.15-.027.142-.245c.972-1.686 1.824-3.968 2.461-6.586.067-.275.141-.571.163-.657l.041-.158.14.258c.077.141.405.788.728 1.437m-7.661 7.999c.128.049.344.169.48.266.381.272.614.374.857.375.264 0 .396-.055.8-.332.473-.323.707-.405 1.169-.406.337-.002.406.011.61.111.777.381 1.278 1.194 1.397 2.269.108.969-.179 1.958-.81 2.796a3.98 3.98 0 0 1-3.93 1.479c-1.424-.29-2.547-1.284-3.025-2.677a5 5 0 0 1-.153-.714c-.203-1.442.448-2.811 1.528-3.212.271-.101.75-.081 1.077.045m10 0c.129.049.378.189.555.309.404.277.536.332.8.332.243-.001.476-.103.857-.375.386-.276.644-.362 1.094-.363.337-.002.406.011.61.111.777.381 1.278 1.194 1.397 2.269.108.969-.179 1.958-.81 2.796a3.98 3.98 0 0 1-3.93 1.479c-1.424-.29-2.547-1.284-3.025-2.677a5 5 0 0 1-.153-.714c-.203-1.442.448-2.811 1.528-3.212.271-.101.75-.081 1.077.045"/></svg>