<svg xmlns="http://www.w3.org/2000/svg" width="24" height="24" fill="none" stroke="currentColor" stroke-linecap="round" stroke-linejoin="round" stroke-width="2"><path fill="#000" fill-rule="evenodd" stroke="none" d="M6.67 3.061c-.222.081-.42.248-.542.455-.091.156-.108.23-.108.484s.016.328.107.48c.135.226 5.241 5.325 5.433 5.425.1.052.227.073.44.073s.34-.021.44-.073c.192-.1 5.298-5.199 5.433-5.425.091-.152.107-.226.107-.48s-.017-.328-.108-.484a1 1 0 0 0-1.215-.451c-.178.059-.413.281-2.427 2.289L12 7.578 9.77 5.354c-2.014-2.008-2.249-2.23-2.427-2.289a1 1 0 0 0-.673-.004m4.97 11.007c-.155.053-.547.427-2.793 2.667-1.479 1.474-2.659 2.683-2.72 2.785-.091.152-.107.226-.107.48 0 .257.016.327.113.492.13.222.369.409.603.473.203.054.531.024.709-.066.074-.037 1.13-1.06 2.345-2.273L12 16.421l2.21 2.205c1.215 1.213 2.273 2.239 2.35 2.279.099.052.228.074.44.074.258.001.327-.015.492-.112.476-.28.646-.899.374-1.359-.055-.092-1.276-1.34-2.713-2.773-2.37-2.363-2.631-2.611-2.81-2.67a1.05 1.05 0 0 0-.703.003"/></svg>