<svg xmlns="http://www.w3.org/2000/svg" width="24" height="24" fill="none" stroke="currentColor" stroke-linecap="round" stroke-linejoin="round" stroke-width="2"><path fill="#000" fill-rule="evenodd" stroke="none" d="M5.64 7.068c-.154.053-.489.37-2.293 2.167-1.181 1.176-2.16 2.184-2.22 2.285-.09.152-.107.226-.107.48s.016.328.107.48c.134.225 4.241 4.325 4.433 4.425.099.052.228.074.44.074.258.001.327-.015.492-.112.222-.13.409-.369.473-.603a1.2 1.2 0 0 0-.066-.709c-.037-.074-.835-.905-1.773-1.845L3.421 12l1.705-1.71c.938-.94 1.739-1.773 1.779-1.85.052-.099.074-.228.074-.44.001-.255-.015-.328-.107-.484a1.016 1.016 0 0 0-1.232-.448m12.03-.007c-.222.081-.42.248-.542.455-.092.156-.108.229-.107.484 0 .212.022.341.074.44.04.077.841.91 1.779 1.85L20.579 12l-1.705 1.71c-.938.94-1.736 1.771-1.773 1.845-.229.455-.045 1.046.407 1.312.165.097.235.113.492.113.254 0 .328-.016.48-.107.225-.134 4.325-4.241 4.425-4.433.052-.099.074-.228.074-.44.001-.255-.015-.327-.106-.48-.06-.101-1.039-1.108-2.22-2.285-1.905-1.897-2.132-2.111-2.31-2.17a1 1 0 0 0-.673-.004m-9.975 3.994a1.05 1.05 0 0 0-.567.461c-.091.156-.108.23-.108.484 0 .257.016.327.113.492.518.882 1.865.526 1.865-.492a.99.99 0 0 0-.535-.888 1.17 1.17 0 0 0-.768-.057m4 0a1.05 1.05 0 0 0-.567.461c-.091.156-.108.23-.108.484 0 .257.016.327.113.492.518.882 1.865.526 1.865-.492a.99.99 0 0 0-.535-.888 1.17 1.17 0 0 0-.768-.057m4 0a1.05 1.05 0 0 0-.567.461c-.091.156-.108.23-.108.484 0 .257.016.327.113.492.518.882 1.865.526 1.865-.492a.99.99 0 0 0-.535-.888 1.17 1.17 0 0 0-.768-.057"/></svg>