<svg xmlns="http://www.w3.org/2000/svg" width="24" height="24" fill="none" stroke="currentColor" stroke-linecap="round" stroke-linejoin="round" stroke-width="2"><path fill="#000" fill-rule="evenodd" stroke="none" d="M3.695 6.057a1.04 1.04 0 0 0-.567.459c-.092.156-.108.229-.107.484 0 .212.022.341.074.44.04.077 1.066 1.134 2.279 2.35L7.579 12l-2.205 2.21c-1.213 1.215-2.239 2.273-2.279 2.35-.052.099-.074.228-.074.44-.001.258.015.327.112.492.28.476.9.647 1.359.373.216-.128 5.316-5.24 5.413-5.425.052-.099.074-.228.074-.44.001-.255-.015-.327-.106-.48-.061-.102-1.243-1.313-2.72-2.786-2.526-2.52-2.62-2.609-2.83-2.67-.257-.076-.404-.077-.628-.007m15.965.009c-.186.056-.381.241-2.813 2.667-1.476 1.473-2.659 2.685-2.72 2.787-.091.153-.107.225-.106.48 0 .212.022.341.074.44.097.185 5.197 5.297 5.413 5.425.459.274 1.079.103 1.359-.373.097-.165.113-.234.112-.492 0-.212-.022-.341-.074-.44-.04-.077-1.066-1.135-2.279-2.35L16.421 12l2.205-2.21c1.213-1.216 2.239-2.273 2.279-2.35.052-.099.074-.228.074-.44.001-.255-.015-.328-.107-.484a1.02 1.02 0 0 0-.582-.461c-.228-.069-.375-.066-.63.011"/></svg>