<svg xmlns="http://www.w3.org/2000/svg" width="24" height="24" fill="none" stroke="currentColor" stroke-linecap="round" stroke-linejoin="round" stroke-width="2"><path fill="#000" fill-rule="evenodd" stroke="none" d="M11.382 1.304c-.402.089-.523.146-3.148 1.46C6 3.882 5.834 3.973 5.614 4.19 5.165 4.633 5 5.087 5 5.878v.502l-1.577.79c-1.443.723-1.596.81-1.814 1.024a2.2 2.2 0 0 0-.567 1.016c-.031.149-.041 1.857-.033 5.791l.011 5.579.094.28c.332.991 1.07 1.722 2.046 2.026l.3.094h17.08l.3-.094c.976-.304 1.714-1.035 2.046-2.026l.094-.28.011-5.579c.008-3.934-.002-5.642-.033-5.791a2.2 2.2 0 0 0-.567-1.016c-.218-.214-.371-.301-1.814-1.024L19 6.38v-.502c0-.792-.165-1.245-.616-1.69-.223-.22-.38-.305-2.78-1.504-1.753-.875-2.631-1.293-2.824-1.342-.383-.099-1.045-.117-1.398-.038m3.262 3.138L17 5.619V21h-1.995l-.014-1.79c-.014-1.743-.017-1.797-.107-2.07-.322-.978-1.073-1.725-2.023-2.015-.273-.083-.403-.098-.861-.098s-.588.015-.861.098c-.95.29-1.701 1.037-2.023 2.015-.09.273-.093.327-.107 2.07L8.995 21H7V5.619l2.35-1.168a229 229 0 0 1 2.41-1.188c.033-.012.165-.016.294-.009.216.011.408.099 2.59 1.188m-2.949 1.615a1.04 1.04 0 0 0-.567.459c-.103.176-.109.212-.121.834l-.014.65h-.55c-.795 0-1.077.111-1.315.516-.091.156-.108.23-.108.484 0 .256.016.328.111.489.125.213.318.375.539.454.098.035.352.054.738.055l.587.002.013 1.153.012 1.154.121.196a.998.998 0 0 0 1.718 0l.121-.196.012-1.154.013-1.153.587-.002c.386-.001.64-.02.738-.055.221-.079.414-.241.539-.454.095-.161.111-.233.111-.489 0-.254-.017-.328-.108-.484-.238-.405-.52-.516-1.315-.516h-.55l-.014-.65c-.012-.622-.018-.658-.121-.834a1.005 1.005 0 0 0-1.177-.459M5 14.823v6.184l-.65-.014c-.622-.012-.658-.018-.834-.121a1.2 1.2 0 0 1-.291-.249C2.988 20.312 3 20.621 3 14.885V9.619l.97-.487c.534-.268.984-.488 1-.49.016-.001.03 2.781.03 6.181M20.02 9.13l.98.489v5.244c0 4.328-.01 5.276-.055 5.427a1.02 1.02 0 0 1-.461.582c-.176.103-.212.109-.834.121l-.65.014v-6.184c0-3.4.009-6.183.02-6.183s.461.22 1 .49m-7.71 7.931a.9.9 0 0 1 .387.242c.296.296.303.347.303 2.144V21h-2v-1.553c0-1.798.007-1.848.304-2.144q.417-.418 1.006-.242"/></svg>