<svg xmlns="http://www.w3.org/2000/svg" width="24" height="24" fill="none" stroke="currentColor" stroke-linecap="round" stroke-linejoin="round" stroke-width="2"><path fill="#000" fill-rule="evenodd" stroke="none" d="M15.695 2.057a1.03 1.03 0 0 0-.563.453c-.248.422-.124 1.515.267 2.355.174.373.348.64.867 1.323.564.743.667.984.73 1.709.032.366.055.459.152.617a1 1 0 0 0 1.707-.004c.341-.554.053-2.022-.578-2.955-.095-.14-.339-.475-.543-.743-.563-.742-.667-.985-.73-1.705-.03-.342-.057-.462-.138-.601a1.005 1.005 0 0 0-1.171-.449m4 0a1.03 1.03 0 0 0-.563.453c-.248.422-.124 1.515.267 2.355.174.373.348.64.867 1.323.564.743.667.984.73 1.709.032.366.055.459.152.617a1 1 0 0 0 1.707-.004c.341-.554.053-2.022-.578-2.955-.095-.14-.339-.475-.543-.743-.563-.742-.667-.985-.73-1.705-.03-.342-.057-.462-.138-.601a1.005 1.005 0 0 0-1.171-.449M2.477 11.073c-.671.176-1.239.75-1.417 1.435-.047.179-.06.501-.06 1.492 0 1.368.018 1.521.225 1.93.136.269.576.709.845.845.47.238.011.225 7.888.223 5.929-.001 7.249-.011 7.372-.055.221-.079.414-.241.539-.454.095-.161.111-.233.111-.489 0-.254-.017-.328-.108-.484a1.2 1.2 0 0 0-.254-.295c-.3-.229-.121-.221-5.064-.221H8v-2l4.59-.002c3.73-.001 4.618-.012 4.74-.055.221-.079.414-.241.539-.454.095-.161.111-.233.111-.489 0-.254-.017-.328-.108-.484a1.02 1.02 0 0 0-.582-.461c-.152-.046-1.39-.055-7.366-.053-6.658.002-7.203.008-7.447.071m18.218-.016a1.04 1.04 0 0 0-.567.459c-.092.156-.108.23-.108.487 0 .268.014.326.121.5.147.239.437.443.68.479l.179.027v1.978l-.214.048c-.883.198-1.065 1.37-.285 1.828.349.204.922.169 1.428-.088.267-.135.709-.575.842-.838.208-.41.229-.585.228-1.923 0-1.332-.025-1.551-.218-1.931-.135-.267-.484-.634-.764-.802-.407-.245-.957-.338-1.322-.224M6 14v1H3v-2h3z"/></svg>