<svg xmlns="http://www.w3.org/2000/svg" width="24" height="24" fill="none" stroke="currentColor" stroke-linecap="round" stroke-linejoin="round" stroke-width="2"><path fill="#000" fill-rule="evenodd" stroke="none" d="M1.67 1.061c-.222.081-.42.248-.542.455-.092.156-.108.229-.107.484 0 .212.022.341.074.44.04.077 1.966 2.034 4.279 4.35L9.579 11l-3.419.002c-3.813.003-3.707-.004-4.177.279-.28.168-.629.535-.764.802C1.019 12.478 1 12.64 1 14c0 1.368.018 1.521.225 1.93.136.269.576.709.845.845.468.237.087.225 7.089.225h6.421l2.88 2.883c1.621 1.622 2.959 2.929 3.06 2.99.153.091.226.107.48.107.257 0 .327-.016.492-.113.476-.28.647-.9.373-1.359-.055-.092-4.65-4.715-10.212-10.273C3.3 1.889 2.525 1.125 2.343 1.065a1 1 0 0 0-.673-.004m14.025.996a1.03 1.03 0 0 0-.563.453c-.248.422-.124 1.515.267 2.355.174.373.348.64.867 1.323.564.743.667.984.73 1.709.032.366.055.459.152.617a1 1 0 0 0 1.707-.004c.341-.554.053-2.022-.578-2.955-.095-.14-.339-.475-.543-.743-.563-.742-.667-.985-.73-1.705-.03-.342-.057-.462-.138-.601a1.005 1.005 0 0 0-1.171-.449m4 0a1.03 1.03 0 0 0-.563.453c-.248.422-.124 1.515.267 2.355.174.373.348.64.867 1.323.564.743.667.984.73 1.709.032.366.055.459.152.617a1 1 0 0 0 1.707-.004c.341-.554.053-2.022-.578-2.955-.095-.14-.339-.475-.543-.743-.563-.742-.667-.985-.73-1.705-.03-.342-.057-.462-.138-.601a1.005 1.005 0 0 0-1.171-.449m1 9a1.04 1.04 0 0 0-.567.459c-.092.156-.108.23-.108.487 0 .268.014.326.121.5.147.239.437.443.68.479l.179.027v1.984l-.155.123c-.449.356-.445 1.119.009 1.507.312.267.702.31 1.106.124.247-.114.682-.557.812-.827.209-.435.228-.594.227-1.918 0-1.597-.054-1.832-.534-2.349-.48-.516-1.224-.767-1.77-.596M6 14v1H3v-2h3zm6.58 0 .999 1H8v-2h3.581z"/></svg>