<svg xmlns="http://www.w3.org/2000/svg" width="24" height="24" fill="none" stroke="currentColor" stroke-linecap="round" stroke-linejoin="round" stroke-width="2"><path fill="#000" fill-rule="evenodd" stroke="none" d="m11.28 1.023-.56.06c-1.888.2-3.729.94-5.36 2.152-.609.453-1.676 1.52-2.134 2.132C.728 8.714.301 13.032 2.097 16.78a11.07 11.07 0 0 0 5.153 5.139 11.01 11.01 0 0 0 11.09-.928c.805-.563 1.828-1.556 2.43-2.357 2.973-3.958 2.973-9.287 0-13.271-.454-.608-1.523-1.677-2.13-2.128-1.595-1.186-3.275-1.875-5.217-2.139C13 1.038 11.574.99 11.28 1.023m2.04 2.078c2.563.387 4.804 1.83 6.24 4.019.303.463.743 1.359.932 1.9.346.993.485 1.845.485 2.98 0 .888-.058 1.397-.244 2.16a9.1 9.1 0 0 1-1.702 3.45c-.153.193-.291.35-.306.35s-.088-.167-.162-.37a7.04 7.04 0 0 0-2.947-3.574 15 15 0 0 1-.332-.202c-.008-.006.136-.171.32-.365a5.04 5.04 0 0 0 1.303-2.489c.101-.471.101-1.449 0-1.92-.368-1.72-1.537-3.099-3.154-3.72-1.054-.405-2.451-.405-3.505 0a5.3 5.3 0 0 0-1.864 1.243c-.661.694-1.083 1.504-1.291 2.477-.101.471-.101 1.449 0 1.92.209.977.63 1.783 1.298 2.485.187.196.333.363.325.369s-.158.098-.332.202a7.08 7.08 0 0 0-2.966 3.617c-.064.18-.129.327-.144.327s-.152-.157-.305-.35a9.1 9.1 0 0 1-1.702-3.45c-.186-.763-.244-1.272-.244-2.16 0-1.493.257-2.621.897-3.94a8.98 8.98 0 0 1 5.24-4.594c.705-.233 1.272-.348 2.18-.442.322-.033 1.571.015 1.98.077m-.459 4.028c.943.276 1.723 1.054 2.014 2.01.083.273.098.403.098.861s-.015.588-.098.861a3.07 3.07 0 0 1-2.035 2.025c-.434.135-1.246.135-1.68 0a3.07 3.07 0 0 1-2.035-2.025c-.083-.273-.098-.403-.098-.861s.015-.588.098-.861a3.04 3.04 0 0 1 2.374-2.099c.333-.06 1.001-.017 1.362.089m-.309 7.914a4.83 4.83 0 0 1 2.368.912c1.08.77 1.871 2.074 2.021 3.329l.027.225-.234.149c-.429.272-1.348.698-1.894.877-1.897.622-3.782.621-5.692-.004-.549-.179-1.435-.591-1.882-.874l-.234-.148.027-.225c.151-1.262.946-2.565 2.041-3.345a4.9 4.9 0 0 1 3.452-.896"/></svg>