<svg xmlns="http://www.w3.org/2000/svg" width="24" height="24" fill="none" stroke="currentColor" stroke-linecap="round" stroke-linejoin="round" stroke-width="2"><path fill="#000" fill-rule="evenodd" stroke="none" d="M11.34 1.023c-.858.085-1.105.117-1.533.203-3.363.674-6.271 2.95-7.746 6.064-.445.94-.782 2.047-.947 3.116-.072.47-.089.751-.091 1.554-.003 1.023.028 1.359.198 2.209.799 3.977 3.807 7.262 7.667 8.373 2.627.757 5.246.567 7.714-.559 1.263-.576 2.313-1.328 3.343-2.394A10.95 10.95 0 0 0 23 12c0-.969-.148-2.104-.32-2.461-.147-.302-.532-.539-.878-.539-.417 0-.821.3-.949.705-.066.209-.066.242.004.707.202 1.343.178 2.384-.081 3.545a9 9 0 0 1-7.096 6.876 9 9 0 0 1-7.06-1.627A9.02 9.02 0 0 1 3.304 9.72a9.02 9.02 0 0 1 5.187-6 9.07 9.07 0 0 1 5.533-.485c.757.171 1.375.402 2.219.83.544.275.736.312 1.083.209.326-.098.61-.446.66-.81.063-.464-.17-.822-.739-1.132A11.2 11.2 0 0 0 13.6 1.118c-.515-.077-1.865-.134-2.26-.095m10.3 2.045c-.157.053-.789.67-4.909 4.785l-4.73 4.724-1.23-1.222c-1.083-1.076-1.255-1.231-1.428-1.289a1 1 0 0 0-1.215.45c-.091.156-.108.23-.108.484s.016.328.107.48c.134.224 3.241 3.324 3.433 3.425.194.101.686.102.88 0 .193-.1 10.297-10.197 10.433-10.425.091-.153.107-.226.107-.48s-.017-.328-.108-.484a1.016 1.016 0 0 0-1.232-.448"/></svg>