<svg xmlns="http://www.w3.org/2000/svg" width="24" height="24" fill="none" stroke="currentColor" stroke-linecap="round" stroke-linejoin="round" stroke-width="2"><path fill="#000" fill-rule="evenodd" stroke="none" d="M10.7 1.102C8.197 1.425 6.088 2.43 4.325 4.14 2.716 5.701 1.68 7.581 1.204 9.804c-.334 1.563-.28 3.525.139 5.028.229.824.577 1.713.928 2.368.274.512.88 1.413 1.24 1.84.403.48 1.246 1.301 1.689 1.646a11.01 11.01 0 0 0 9.32 2.032 10.8 10.8 0 0 0 5.095-2.798c.956-.928 1.64-1.863 2.207-3.02.377-.769.56-1.243.762-1.974.593-2.147.51-4.452-.236-6.563-.249-.705-.512-.941-1.048-.941-.331 0-.529.088-.748.33-.296.328-.314.624-.081 1.328.384 1.161.467 1.689.467 2.96 0 1.077-.055 1.518-.299 2.398a9.03 9.03 0 0 1-5.509 6.007 9.04 9.04 0 0 1-5.13.35 9.03 9.03 0 0 1-5.638-3.993 12 12 0 0 1-.874-1.803c-.147-.42-.317-1.1-.394-1.579-.085-.523-.115-1.799-.056-2.347a9.004 9.004 0 0 1 7.997-7.995c.564-.061 1.828-.028 2.365.063a10 10 0 0 1 1.56.401c.473.164.766.187 1.021.08.493-.205.746-.812.539-1.293-.137-.319-.349-.487-.84-.664a11.6 11.6 0 0 0-2.6-.584c-.519-.054-1.892-.042-2.38.021m7.94 2.966c-.155.053-.543.423-2.76 2.634L13.3 9.275l-.283-.096c-1.66-.563-3.384.312-3.903 1.981-.135.434-.135 1.246 0 1.68a3.09 3.09 0 0 0 2.046 2.046c.434.135 1.246.135 1.68 0a3.09 3.09 0 0 0 2.046-2.046c.08-.257.094-.381.092-.86-.002-.521-.011-.585-.127-.92l-.125-.36 2.553-2.56c1.404-1.408 2.586-2.623 2.626-2.7.052-.099.074-.228.074-.44.001-.255-.015-.328-.107-.484a1.016 1.016 0 0 0-1.232-.448m-6.333 6.992c.294.087.586.405.655.713.097.436-.091.872-.476 1.098-.158.093-.231.109-.486.109-.254 0-.328-.017-.484-.108-.581-.342-.683-1.098-.212-1.569q.417-.417 1.003-.243"/></svg>