<svg xmlns="http://www.w3.org/2000/svg" width="24" height="24" fill="none" stroke="currentColor" stroke-linecap="round" stroke-linejoin="round" stroke-width="2"><path fill="#000" fill-rule="evenodd" stroke="none" d="m11.28 1.023-.56.06c-1.888.2-3.729.94-5.36 2.152-.609.453-1.676 1.52-2.134 2.132C.728 8.714.301 13.032 2.097 16.78c.546 1.138 1.179 2.021 2.141 2.982.961.962 1.762 1.54 2.902 2.098 2.764 1.352 5.827 1.506 8.727.439a14 14 0 0 0 1.953-.962c1.047-.664 2.257-1.771 2.95-2.7 2.974-3.985 2.974-9.289 0-13.274-.454-.608-1.523-1.677-2.13-2.128-1.595-1.186-3.275-1.875-5.217-2.139C13 1.038 11.574.99 11.28 1.023m2.04 2.078c2.563.387 4.804 1.83 6.24 4.019.303.463.743 1.359.932 1.9.346.993.485 1.845.485 2.98 0 .888-.058 1.397-.244 2.16a9.1 9.1 0 0 1-1.716 3.466c-.365.456-.966 1.066-1.018 1.033-.021-.013-.039-.075-.039-.137s-.038-.237-.084-.388a3.08 3.08 0 0 0-2.054-2.022l-.322-.092h-7l-.322.092a3.08 3.08 0 0 0-2.054 2.022 2 2 0 0 0-.084.388c0 .062-.018.124-.039.137-.052.033-.653-.577-1.018-1.033a9.1 9.1 0 0 1-1.716-3.466c-.186-.763-.244-1.272-.244-2.16 0-1.493.257-2.621.897-3.94a8.98 8.98 0 0 1 5.24-4.594c.705-.233 1.272-.348 2.18-.442.322-.033 1.571.015 1.98.077m-1.962 2.96c-1.128.176-2.215.913-2.789 1.892a3.992 3.992 0 0 0 1.943 5.751 3.99 3.99 0 0 0 5.192-2.216 3.96 3.96 0 0 0 .001-2.972 3.98 3.98 0 0 0-3.1-2.458 3.7 3.7 0 0 0-1.247.003m1.165 2.012a2.01 2.01 0 0 1 1.444 1.617c.1.653-.094 1.243-.564 1.714-.401.403-.856.596-1.403.596q-.771 0-1.347-.535c-1.33-1.236-.464-3.46 1.347-3.46.143 0 .378.031.523.068m2.787 9.988a.9.9 0 0 1 .387.242c.254.254.303.445.303 1.18v.588l-.411.181a9.1 9.1 0 0 1-5.497.545 11 11 0 0 1-1.762-.577L8 20.069v-.587c0-.735.049-.925.304-1.179.309-.31.155-.297 3.679-.3 2.685-.003 3.151.006 3.327.058"/></svg>