<svg xmlns="http://www.w3.org/2000/svg" width="24" height="24" fill="none" stroke="currentColor" stroke-linecap="round" stroke-linejoin="round" stroke-width="2"><path fill="#000" fill-rule="evenodd" stroke="none" d="M11 1.046c-.656.061-1.226.178-1.422.293-.333.195-.534.647-.454 1.021.059.274.237.534.454.661.303.178.437.19 1.011.092.735-.126 2.087-.126 2.822 0 .574.098.708.086 1.011-.092.217-.127.395-.387.454-.661.08-.374-.121-.825-.453-1.02-.442-.26-2.182-.409-3.423-.294M5.978 2.82c-.626.316-1.845 1.411-2.56 2.3-.57.709-.696.94-.696 1.28a.99.99 0 0 0 1.303.944c.262-.09.348-.17.735-.683.626-.833 1.099-1.3 1.982-1.96.376-.281.464-.368.553-.546a.975.975 0 0 0-.129-1.081.996.996 0 0 0-1.188-.254m11.202-.005a.98.98 0 0 0-.521 1.223c.087.245.175.338.667.71.845.637 1.312 1.11 1.973 1.994.281.376.368.464.546.553.676.337 1.435-.146 1.435-.914 0-.267-.11-.485-.516-1.021a11.2 11.2 0 0 0-2.15-2.145c-.245-.185-.524-.371-.62-.414a1 1 0 0 0-.814.014M1.691 9.24c-.36.207-.47.442-.599 1.28-.1.65-.1 2.31 0 2.96.131.849.248 1.089.628 1.296.574.312 1.294-.03 1.433-.682.031-.146.022-.295-.044-.69-.119-.72-.119-2.088 0-2.808.098-.589.077-.769-.122-1.065-.275-.408-.861-.54-1.296-.291m19.664-.009a.9.9 0 0 0-.342.3c-.198.294-.218.471-.123 1.062.065.402.081.693.081 1.407s-.016 1.005-.081 1.407c-.063.391-.073.548-.043.69.098.459.528.805.992.799.435-.006.815-.31.941-.753.143-.507.199-1.106.199-2.143 0-1.353-.112-2.129-.359-2.49-.261-.381-.828-.506-1.265-.279m-9.878.842c-.671.176-1.239.75-1.417 1.435a2.07 2.07 0 0 0 .165 1.422c.136.269.576.709.845.845a2.05 2.05 0 0 0 1.86 0c.266-.135.708-.575.841-.838a2.05 2.05 0 0 0 .169-1.408 1.8 1.8 0 0 0-.475-.876A1.97 1.97 0 0 0 12 10.005c-.143 0-.378.031-.523.068m-8.11 6.575c-.215.073-.511.366-.583.58-.084.246-.08.554.011.752.263.571 1.351 1.801 2.225 2.517.797.652 1.026.781 1.38.781a.99.99 0 0 0 .944-1.303c-.088-.257-.172-.349-.624-.685-.833-.619-1.366-1.155-2.01-2.021-.39-.525-.547-.634-.943-.653a1.4 1.4 0 0 0-.4.032m16.626.006c-.274.102-.391.208-.738.668-.635.843-1.191 1.39-2.06 2.028-.317.233-.403.32-.49.494-.189.38-.129.792.163 1.116.276.307.75.411 1.112.245.204-.094.709-.457 1.12-.806.826-.7 1.866-1.89 2.099-2.404.215-.475 0-1.047-.49-1.301-.169-.087-.536-.108-.716-.04M9.61 20.961c-.512.294-.652.929-.317 1.429.223.332.602.458 1.701.568 1.174.118 2.86-.017 3.366-.27a.97.97 0 0 0 .505-1.083 1 1 0 0 0-.475-.644c-.253-.145-.473-.156-1.06-.053-.294.052-.623.069-1.33.069s-1.036-.017-1.33-.069c-.587-.103-.807-.092-1.06.053"/></svg>