<svg xmlns="http://www.w3.org/2000/svg" width="24" height="24" fill="none" stroke="currentColor" stroke-linecap="round" stroke-linejoin="round" stroke-width="2"><path fill="#000" fill-rule="evenodd" stroke="none" d="m11.28 1.023-.56.06c-1.888.2-3.729.94-5.36 2.152-.609.453-1.676 1.52-2.134 2.132C.728 8.714.301 13.032 2.097 16.78c.546 1.138 1.179 2.021 2.141 2.982.961.962 1.844 1.595 2.982 2.141 3.747 1.796 8.068 1.367 11.417-1.133.609-.454 1.679-1.524 2.133-2.133 2.974-3.985 2.974-9.289 0-13.274-.454-.608-1.523-1.677-2.13-2.128-1.595-1.186-3.275-1.875-5.217-2.139C13 1.038 11.574.99 11.28 1.023m2.04 2.078c2.563.387 4.804 1.83 6.24 4.019.303.463.743 1.359.932 1.9.346.993.485 1.845.485 2.98 0 1.493-.257 2.621-.897 3.94-.705 1.454-1.769 2.667-3.153 3.592-.789.528-2.051 1.056-3.019 1.265a9.05 9.05 0 0 1-7.538-1.778c-1.513-1.212-2.648-2.99-3.103-4.859-.186-.763-.244-1.272-.244-2.16 0-1.493.257-2.621.897-3.94a8.98 8.98 0 0 1 5.24-4.594c.705-.233 1.272-.348 2.18-.442.322-.033 1.571.015 1.98.077m-1.625 2.956a1.04 1.04 0 0 0-.567.459l-.108.184v4.606l.121.197c.068.11.205.253.311.325.471.316 1.102.171 1.407-.325l.121-.197V6.7l-.108-.184a1.005 1.005 0 0 0-1.177-.459m-4 2c-.251.079-.421.231-.664.593a6.05 6.05 0 0 0-.971 2.53c-.217 1.454.176 3.053 1.055 4.3.248.352.919 1.038 1.281 1.311A6.1 6.1 0 0 0 12 17.999c.415 0 1.07-.076 1.38-.16.842-.229 1.442-.5 2.085-.945.397-.274 1.232-1.128 1.501-1.534 1.229-1.857 1.365-4.121.367-6.096-.247-.49-.601-.978-.801-1.105-.607-.385-1.434.002-1.518.71-.036.304.007.452.234.798.445.679.646 1.202.722 1.883a4.04 4.04 0 0 1-.825 2.914 4 4 0 0 1-3.835 1.477 4.03 4.03 0 0 1-3.176-2.921c-.094-.354-.107-.473-.107-1.04.001-.524.016-.695.084-.946a4.3 4.3 0 0 1 .565-1.245c.297-.459.359-.663.293-.976-.126-.599-.696-.937-1.274-.756"/></svg>