<svg xmlns="http://www.w3.org/2000/svg" width="24" height="24" fill="none" stroke="currentColor" stroke-linecap="round" stroke-linejoin="round" stroke-width="2"><path fill="#000" fill-rule="evenodd" stroke="none" d="m11.28 1.023-.56.06c-1.888.2-3.729.94-5.36 2.152-.609.453-1.676 1.52-2.134 2.132C.728 8.714.301 13.032 2.097 16.78c.546 1.138 1.179 2.021 2.141 2.982.961.962 1.844 1.595 2.982 2.141 3.747 1.796 8.068 1.367 11.417-1.133.609-.454 1.679-1.524 2.133-2.133 2.974-3.985 2.974-9.289 0-13.274-.454-.608-1.523-1.677-2.13-2.128-1.595-1.186-3.275-1.875-5.217-2.139C13 1.038 11.574.99 11.28 1.023m2.04 2.078c2.563.387 4.804 1.83 6.24 4.019.303.463.743 1.359.932 1.9.346.993.485 1.845.485 2.98 0 1.493-.257 2.621-.897 3.94-.705 1.454-1.769 2.667-3.153 3.592-.789.528-2.051 1.056-3.019 1.265a9.05 9.05 0 0 1-7.538-1.778c-1.513-1.212-2.648-2.99-3.103-4.859-.186-.763-.244-1.272-.244-2.16 0-1.493.257-2.621.897-3.94a8.98 8.98 0 0 1 5.24-4.594c.705-.233 1.272-.348 2.18-.442.322-.033 1.571.015 1.98.077m-1.625 1.956a1.04 1.04 0 0 0-.567.459c-.103.176-.109.212-.121.829l-.014.646-.766.019c-.66.017-.812.033-1.088.116A3.07 3.07 0 0 0 7.114 9.16c-.135.434-.135 1.246 0 1.68a3.1 3.1 0 0 0 2.026 2.042c.239.076.396.092 1.07.108l.79.019V15H9.446c-1.688 0-1.788.011-2.064.221-.08.061-.195.194-.254.295-.091.156-.108.23-.108.484 0 .256.016.328.111.489.061.103.173.236.25.294.273.208.319.213 2.026.215l1.586.002.014.653c.013.647.014.655.134.85a.998.998 0 0 0 1.718 0c.12-.194.121-.203.134-.845l.014-.649.786-.019c.671-.016.828-.032 1.067-.108a3.1 3.1 0 0 0 2.026-2.042c.135-.434.135-1.246 0-1.68a3.07 3.07 0 0 0-2.025-2.034c-.277-.083-.428-.099-1.091-.116l-.77-.019V9l1.59-.002c1.71-.002 1.756-.007 2.029-.215.077-.058.189-.191.25-.294.095-.161.111-.233.111-.489 0-.254-.017-.328-.108-.484a1.2 1.2 0 0 0-.254-.295c-.276-.21-.377-.221-2.061-.221h-1.55l-.014-.65c-.012-.622-.018-.658-.121-.834a1.005 1.005 0 0 0-1.177-.459M11 10.003v1.004l-.65-.014c-.622-.012-.658-.018-.834-.121-.581-.342-.683-1.098-.212-1.569.25-.251.423-.297 1.126-.3L11 9zm3.31 3.058c.378.112.69.537.69.94 0 .33-.216.695-.516.871-.176.103-.212.109-.834.121l-.65.014V13h.553c.378 0 .617.019.757.061"/></svg>