<svg xmlns="http://www.w3.org/2000/svg" width="24" height="24" fill="none" stroke="currentColor" stroke-linecap="round" stroke-linejoin="round" stroke-width="2"><path fill="#000" fill-rule="evenodd" stroke="none" d="M1.58 1.094c-.237.11-.425.311-.516.552-.06.158-.065.48-.055 3.417l.011 3.243.121.197a.998.998 0 0 0 1.718 0l.121-.197.011-1.941.012-1.942 4.208 4.205c2.315 2.312 4.272 4.237 4.349 4.277.099.052.228.074.44.074.258.001.327-.015.492-.112.222-.13.409-.369.473-.603.054-.202.024-.53-.066-.709-.037-.074-1.96-2.029-4.273-4.345L4.421 3 6.3 2.998c1.466-.001 1.913-.013 2.03-.055.221-.079.414-.241.539-.454.095-.161.111-.233.111-.489 0-.254-.017-.328-.108-.484a1.2 1.2 0 0 0-.254-.295C8.324.997 8.377 1 4.944 1l-3.164.001zm10.115-.04a.998.998 0 0 0-.497 1.537c.065.09.202.212.304.272.167.098.24.112.751.142 1.074.063 1.745.182 2.587.461a8.98 8.98 0 0 1 5.24 4.594c.64 1.319.897 2.447.897 3.94s-.257 2.621-.897 3.94c-.705 1.454-1.769 2.667-3.153 3.592-.789.528-2.051 1.056-3.019 1.265a9.05 9.05 0 0 1-7.538-1.778 9.07 9.07 0 0 1-3.289-5.859 18 18 0 0 1-.076-.907c-.03-.506-.045-.585-.139-.746-.385-.658-1.348-.656-1.734.003-.135.23-.16.602-.095 1.387.173 2.08.919 4.033 2.189 5.736.46.615 1.526 1.681 2.141 2.141a11 11 0 0 0 4.671 2.046c3.044.548 6.093-.179 8.599-2.05.609-.454 1.679-1.524 2.133-2.133 2.974-3.985 2.974-9.289 0-13.274-.454-.608-1.523-1.677-2.13-2.128q-2.816-2.094-6.22-2.216c-.412-.014-.604-.005-.725.035"/></svg>