<svg xmlns="http://www.w3.org/2000/svg" width="24" height="24" fill="none" stroke="currentColor" stroke-linecap="round" stroke-linejoin="round" stroke-width="2"><path fill="#000" fill-rule="evenodd" stroke="none" d="M11.28 1.026c-1.663.153-2.773.45-4.1 1.094-1.135.551-1.987 1.165-2.942 2.119-.961.959-1.595 1.841-2.141 2.981a10.95 10.95 0 0 0 0 9.56c.546 1.138 1.179 2.021 2.141 2.982.961.962 1.844 1.595 2.982 2.141 3.747 1.796 8.068 1.367 11.417-1.133.609-.454 1.679-1.524 2.133-2.133a11.04 11.04 0 0 0 2.192-5.746c.067-.785.042-1.15-.094-1.382a1.01 1.01 0 0 0-1.734-.002c-.094.161-.109.24-.139.746-.063 1.074-.182 1.745-.461 2.587-.627 1.899-1.895 3.547-3.607 4.692-.789.528-2.051 1.056-3.019 1.265a9.05 9.05 0 0 1-7.538-1.778c-1.513-1.212-2.648-2.99-3.103-4.859-.186-.763-.244-1.272-.244-2.16 0-1.493.257-2.621.897-3.94a8.98 8.98 0 0 1 5.24-4.594c.842-.279 1.513-.398 2.587-.461.511-.03.584-.044.751-.142.75-.439.621-1.559-.208-1.808-.166-.05-.638-.064-1.01-.029m4.415.031a1.04 1.04 0 0 0-.567.459c-.091.156-.108.23-.108.484 0 .256.016.328.111.489.125.213.318.375.539.454.117.042.564.054 2.03.055L19.579 3l-4.205 4.21c-2.313 2.316-4.239 4.273-4.279 4.35-.052.099-.074.228-.074.44-.001.258.015.327.112.492.13.222.369.409.603.473.202.054.53.024.709-.066.074-.037 2.029-1.959 4.344-4.271l4.208-4.205.012 1.942.011 1.941.121.197a.998.998 0 0 0 1.718 0l.121-.197.011-3.243c.01-2.937.005-3.259-.055-3.417a1 1 0 0 0-.516-.552l-.2-.093-3.18.002c-2.483.002-3.216.014-3.345.054"/></svg>