<svg xmlns="http://www.w3.org/2000/svg" width="24" height="24" fill="none" stroke="currentColor" stroke-linecap="round" stroke-linejoin="round" stroke-width="2"><path fill="#000" fill-rule="evenodd" stroke="none" d="m11.28 1.023-.56.06c-1.888.2-3.729.94-5.36 2.152-.609.453-1.676 1.52-2.134 2.132a11.1 11.1 0 0 0-2.045 4.65c-.55 2.98.176 6.106 1.981 8.525.178.239.333.45.346.47s-.509.57-1.159 1.222c-.649.652-1.211 1.247-1.248 1.321-.229.454-.045 1.046.407 1.312.165.097.234.113.492.112.213 0 .341-.022.44-.074.077-.041.674-.605 1.326-1.254.652-.65 1.202-1.171 1.222-1.159s.231.168.47.346c3.557 2.653 8.43 2.879 12.239.567.779-.473 1.347-.924 2.065-1.643 1.395-1.394 2.28-2.891 2.821-4.773.931-3.234.268-6.847-1.75-9.537a17 17 0 0 1-.328-.446c-.025-.04.28-.37 1.146-1.241.649-.652 1.213-1.248 1.254-1.325.052-.099.074-.227.074-.44.001-.255-.015-.328-.107-.484a1 1 0 0 0-1.215-.45c-.173.058-.343.211-1.404 1.265-.854.849-1.222 1.188-1.26 1.165a16 16 0 0 1-.433-.318c-1.482-1.114-3.232-1.823-5.137-2.082C13 1.038 11.574.99 11.28 1.023m2.04 2.078c.943.143 1.735.39 2.622.819.53.256 1.436.82 1.587.987.066.073-.159.303-6.245 6.389l-6.312 6.312-.141-.174c-.448-.552-1.046-1.661-1.323-2.454-.346-.993-.485-1.845-.485-2.98 0-1.493.257-2.621.897-3.94a8.98 8.98 0 0 1 5.24-4.594c.705-.233 1.272-.348 2.18-.442.322-.033 1.571.015 1.98.077m6.169 3.917a9.3 9.3 0 0 1 1.244 2.822c.186.763.244 1.272.244 2.16 0 1.493-.257 2.621-.897 3.94-.705 1.454-1.769 2.667-3.153 3.592-.789.528-2.051 1.056-3.019 1.265a9.07 9.07 0 0 1-6.547-1.086 12 12 0 0 1-.959-.658c-.01-.009 2.824-2.859 6.298-6.333 6.09-6.09 6.32-6.315 6.393-6.249.042.038.22.284.396.547"/></svg>