<svg xmlns="http://www.w3.org/2000/svg" width="24" height="24" fill="none" stroke="currentColor" stroke-linecap="round" stroke-linejoin="round" stroke-width="2"><path fill="#000" fill-rule="evenodd" stroke="none" d="m11.28 1.023-.56.06c-1.888.2-3.729.94-5.36 2.152-.609.453-1.676 1.52-2.134 2.132C.728 8.714.301 13.032 2.097 16.78c.546 1.138 1.179 2.021 2.141 2.982.961.962 1.844 1.595 2.982 2.141 3.747 1.796 8.068 1.367 11.417-1.133.609-.454 1.679-1.524 2.133-2.133 2.974-3.985 2.974-9.289 0-13.274-.454-.608-1.523-1.677-2.13-2.128-1.595-1.186-3.275-1.875-5.217-2.139C13 1.038 11.574.99 11.28 1.023m2.04 2.078c2.563.387 4.804 1.83 6.24 4.019.303.463.743 1.359.932 1.9.346.993.485 1.845.485 2.98s-.139 1.987-.485 2.98c-.277.793-.875 1.902-1.323 2.454l-.141.174-2.052-2.052-2.052-2.052.168-.098c.471-.275 1.032-.841 1.332-1.342A4.3 4.3 0 0 0 17 10c0-.673-.224-1.475-.579-2.068-.587-.983-1.665-1.7-2.816-1.874-.482-.072-4.604-.085-4.865-.014a1.05 1.05 0 0 0-.58.423l-.106.167-.831-.831-.831-.831.174-.141c.604-.49 1.712-1.074 2.594-1.365.705-.233 1.272-.348 2.18-.442.322-.033 1.571.015 1.98.077m4.279 15.939c-.001.011-.14.12-.31.243a9.02 9.02 0 0 1-10.919-.264c-1.513-1.212-2.648-2.99-3.103-4.859-.186-.763-.244-1.272-.244-2.16 0-1.135.139-1.987.485-2.98.277-.793.875-1.902 1.323-2.454l.141-.174 6.314 6.314c3.473 3.473 6.314 6.323 6.313 6.334M13.523 8.073c.967.253 1.598 1.231 1.444 2.237a2.04 2.04 0 0 1-1.4 1.613l-.172.051-1.698-1.697L10 8.58V8l1.63.002c1.407.002 1.666.012 1.893.071M8.58 13.755c-.203.092-.429.342-.516.57-.06.156-.067.34-.056 1.579l.012 1.402.121.197a.998.998 0 0 0 1.718 0l.121-.197.012-1.402c.013-1.572.008-1.611-.268-1.916-.196-.219-.404-.306-.724-.306-.166 0-.318.026-.42.073"/></svg>