<svg xmlns="http://www.w3.org/2000/svg" width="24" height="24" fill="none" stroke="currentColor" stroke-linecap="round" stroke-linejoin="round" stroke-width="2"><path fill="#000" fill-rule="evenodd" stroke="none" d="M4.499 2.043C3.38 2.232 2.461 3.048 2.114 4.16l-.094.3v15.08l.094.3a3.09 3.09 0 0 0 2.046 2.046l.3.094h15.08l.3-.094a3.09 3.09 0 0 0 2.046-2.046l.094-.3V4.46l-.094-.3a3.09 3.09 0 0 0-2.025-2.039l-.321-.101-7.42-.006c-4.081-.003-7.511.01-7.621.029M16 5.554c0 1.688-.011 1.788-.221 2.064-.061.08-.194.195-.295.254l-.184.108-1.723.012-1.722.011-.166-.331a3.08 3.08 0 0 0-1.828-1.547c-.273-.083-.403-.098-.861-.098s-.588.015-.861.098A3.07 3.07 0 0 0 6.114 8.16c-.135.434-.135 1.246 0 1.68.184.59.495 1.053.995 1.481.282.242.652.441 1.051.565.434.135 1.246.135 1.68 0a3.1 3.1 0 0 0 1.844-1.546l.161-.32 1.868-.022c1.812-.021 1.875-.024 2.147-.114a3.13 3.13 0 0 0 2.024-2.024c.09-.273.093-.327.107-2.07L18.005 4h.55c.694 0 .891.052 1.142.303.327.328.303-.294.303 7.698 0 5.906-.009 7.137-.055 7.289a1.02 1.02 0 0 1-.461.582l-.184.108-5.65.011-5.65.01v-1.553c0-1.795.008-1.849.3-2.142.304-.304.322-.306 2.201-.306h1.646l.165.33a3.1 3.1 0 0 0 1.848 1.556c.434.135 1.246.135 1.68 0a3.09 3.09 0 0 0 2.046-2.046c.135-.434.135-1.246 0-1.68a3.07 3.07 0 0 0-2.025-2.035c-.273-.083-.403-.098-.861-.098s-.588.015-.861.098a3.1 3.1 0 0 0-1.823 1.535l-.161.32-1.848.022c-1.825.021-1.851.023-2.168.121a3.1 3.1 0 0 0-2.023 2.017c-.09.273-.093.327-.107 2.073l-.014 1.794-.648-.014c-.619-.012-.655-.018-.831-.121a1.2 1.2 0 0 1-.291-.249c-.239-.314-.225.172-.225-7.601 0-8.017-.025-7.391.304-7.719.318-.319-.121-.297 6.126-.3L16 4zM9.31 8.061c.378.112.69.537.69.94 0 .33-.216.695-.516.871-.156.091-.23.108-.484.108s-.328-.017-.484-.108c-.581-.342-.683-1.098-.212-1.569q.417-.418 1.006-.242m6 6c.378.112.69.537.69.94 0 .33-.216.695-.516.871-.156.091-.23.108-.484.108s-.328-.017-.484-.108c-.581-.342-.683-1.098-.212-1.569q.417-.418 1.006-.242"/></svg>