<svg xmlns="http://www.w3.org/2000/svg" width="24" height="24" fill="none" stroke="currentColor" stroke-linecap="round" stroke-linejoin="round" stroke-width="2"><path fill="#000" fill-rule="evenodd" stroke="none" d="M1.67 1.061c-.222.081-.42.248-.542.455-.092.156-.108.229-.107.484 0 .213.022.341.074.44.041.077.605.673 1.253 1.325l1.18 1.185-.271.355C1.769 7.252 1 9.532 1 12c0 1.943.481 3.788 1.411 5.414a11.05 11.05 0 0 0 6.666 5.205c1.83.513 4.019.512 5.853-.002a11 11 0 0 0 3.689-1.82l.431-.325 1.185 1.179c.652.649 1.248 1.213 1.325 1.254.099.052.227.074.44.074.258.001.327-.015.492-.112.476-.28.647-.9.373-1.359-.055-.092-4.65-4.715-10.212-10.273C3.3 1.889 2.525 1.125 2.343 1.065a1 1 0 0 0-.673-.004m9.49-.036c-1.233.115-2.78.501-3.328.829a.972.972 0 0 0-.153 1.557c.346.311.665.344 1.262.128.489-.177 1.2-.359 1.743-.446.597-.095 1.944-.095 2.55 0 1.209.189 2.409.606 3.317 1.153 2.294 1.381 3.823 3.583 4.288 6.174.281 1.57.148 3.115-.403 4.68-.149.423-.162.684-.048.942a.94.94 0 0 0 .813.587.99.99 0 0 0 .933-.434c.102-.157.374-.951.526-1.537.78-3.02.149-6.41-1.672-8.978a11.7 11.7 0 0 0-2.946-2.858c-.568-.381-1.743-.965-2.382-1.183a13.5 13.5 0 0 0-2.14-.522c-.524-.079-1.918-.133-2.36-.092m.14 11.695 6.32 6.321-.12.099c-.288.238-.96.659-1.44.902a9.2 9.2 0 0 1-2.912.897c-.605.078-1.691.078-2.296 0a9.03 9.03 0 0 1-7.509-6.448c-.258-.896-.321-1.388-.321-2.491 0-.849.012-1.049.093-1.5a9.1 9.1 0 0 1 1.679-3.91c.078-.104.152-.19.164-.19s2.866 2.844 6.342 6.32"/></svg>