<svg xmlns="http://www.w3.org/2000/svg" width="24" height="24" fill="none" stroke="currentColor" stroke-linecap="round" stroke-linejoin="round" stroke-width="2"><path fill="#000" fill-rule="evenodd" stroke="none" d="m11.28 1.023-.56.06c-1.888.2-3.729.94-5.36 2.152-.609.453-1.676 1.52-2.134 2.132a11.06 11.06 0 0 0-2.189 5.736c-.068.812-.041 1.164.107 1.405a.998.998 0 0 0 1.71.002c.109-.176.119-.229.151-.76.063-1.077.182-1.747.461-2.59A8.98 8.98 0 0 1 8.06 3.92c1.319-.64 2.447-.897 3.94-.897s2.621.257 3.94.897a8.9 8.9 0 0 1 4.14 4.14c.64 1.319.897 2.447.897 3.94s-.257 2.621-.897 3.94a8.87 8.87 0 0 1-4.1 4.121c-1.168.579-2.617.939-3.783.939-.532 0-.858.158-1.069.516-.091.156-.108.23-.108.484 0 .256.016.328.111.489.283.481.647.575 1.829.47a11.1 11.1 0 0 0 5.677-2.189c.609-.454 1.679-1.524 2.133-2.133 2.974-3.985 2.974-9.289 0-13.274-.454-.608-1.523-1.677-2.13-2.128-1.595-1.186-3.275-1.875-5.217-2.139C13 1.038 11.574.99 11.28 1.023m.38 10.043c-.188.057-.456.316-4.429 4.285l-4.228 4.225-.012-1.938L2.98 15.7l-.109-.186a1.01 1.01 0 0 0-1.742 0l-.109.186-.011 3.24c-.01 2.934-.005 3.256.055 3.414.091.241.279.442.516.552l.2.093 3.2-.001c2.569-.001 3.23-.012 3.35-.055.221-.079.414-.241.539-.454.095-.161.111-.233.111-.489 0-.254-.017-.328-.108-.484a1.2 1.2 0 0 0-.254-.295C8.337 21.007 8.265 21 6.264 21H4.421l4.205-4.21c2.313-2.316 4.239-4.273 4.279-4.35.052-.099.074-.228.074-.44.001-.255-.015-.328-.107-.484a1.02 1.02 0 0 0-.582-.461c-.228-.069-.375-.066-.63.011"/></svg>