<svg xmlns="http://www.w3.org/2000/svg" width="24" height="24" fill="none" stroke="currentColor" stroke-linecap="round" stroke-linejoin="round" stroke-width="2"><path fill="#000" fill-rule="evenodd" stroke="none" d="m11.28 1.023-.56.06c-1.888.2-3.729.94-5.36 2.152-.609.453-1.676 1.52-2.134 2.132C.728 8.714.301 13.032 2.097 16.78c.546 1.138 1.179 2.021 2.141 2.982.961.962 1.844 1.595 2.982 2.141 3.747 1.796 8.068 1.367 11.417-1.133.609-.454 1.679-1.524 2.133-2.133 2.974-3.985 2.974-9.289 0-13.274-.454-.608-1.523-1.677-2.13-2.128-1.595-1.186-3.275-1.875-5.217-2.139C13 1.038 11.574.99 11.28 1.023m2.04 2.078c2.563.387 4.804 1.83 6.24 4.019.303.463.743 1.359.932 1.9.346.993.485 1.845.485 2.98 0 1.493-.257 2.621-.897 3.94-.705 1.454-1.769 2.667-3.153 3.592-.789.528-2.051 1.056-3.019 1.265a9.05 9.05 0 0 1-7.538-1.778c-1.513-1.212-2.648-2.99-3.103-4.859-.186-.763-.244-1.272-.244-2.16 0-1.493.257-2.621.897-3.94a8.98 8.98 0 0 1 5.24-4.594c.705-.233 1.272-.348 2.18-.442.322-.033 1.571.015 1.98.077M8.695 6.057a1.04 1.04 0 0 0-.567.459L8.02 6.7v10.606l.121.197a.998.998 0 0 0 1.718 0l.121-.197.012-1.653.011-1.653h1.682c1.521 0 1.72-.008 2.072-.079 1.36-.278 2.436-1.166 2.947-2.433a3.96 3.96 0 0 0 .001-2.972 3.98 3.98 0 0 0-3.1-2.458c-.528-.079-4.657-.08-4.91-.001m4.828 2.016a2.01 2.01 0 0 1 1.27 2.807c-.155.318-.566.745-.863.895-.423.215-.531.225-2.298.225H10V8l1.63.002c1.407.002 1.666.012 1.893.071"/></svg>