<svg xmlns="http://www.w3.org/2000/svg" width="24" height="24" fill="none" stroke="currentColor" stroke-linecap="round" stroke-linejoin="round" stroke-width="2"><path fill="#000" fill-rule="evenodd" stroke="none" d="M11.695 1.057c-.644.201-.896.983-.497 1.534.065.09.201.212.302.271.17.1.24.111.979.163 1.358.094 2.363.354 3.461.893 1.829.898 3.229 2.292 4.12 4.102.581 1.181.875 2.314.927 3.58.094 2.273-.674 4.518-2.129 6.22-.169.198-.343.439-.387.535-.109.241-.105.589.009.824.176.364.62.617.993.565.332-.045.509-.166.88-.599 1.439-1.681 2.248-3.513 2.572-5.825.084-.594.072-2.262-.021-2.86-.366-2.376-1.459-4.571-3.084-6.19-1.932-1.927-4.36-3.044-7.02-3.229-.731-.051-.9-.048-1.105.016M5.087 3.486c-.261.129-1.219 1.072-1.344 1.324-.413.828.48 1.724 1.321 1.326.079-.038.418-.34.753-.672.49-.486.618-.636.656-.769.058-.204.06-.428.004-.629-.054-.194-.328-.496-.537-.591-.229-.105-.63-.1-.853.011m6.608 3.571a1.04 1.04 0 0 0-.567.459l-.108.184-.012 1.65-.011 1.65H9.445c-1.687 0-1.787.011-2.063.221-.08.061-.195.194-.254.295-.091.156-.108.23-.108.484 0 .256.016.328.111.489.061.103.173.236.25.294.273.208.319.213 2.027.215l1.589.002.011 1.653.012 1.653.121.197c.068.11.205.253.311.325.471.316 1.102.171 1.407-.325l.121-.197.012-1.653.011-1.653 1.589-.002c1.708-.002 1.754-.007 2.027-.215.077-.058.189-.191.25-.294.095-.161.111-.233.111-.489 0-.254-.017-.328-.108-.484a1.2 1.2 0 0 0-.254-.295c-.276-.21-.376-.221-2.063-.221h-1.552l-.011-1.65-.012-1.65-.108-.184a1.005 1.005 0 0 0-1.177-.459m-9.526.873c-.157.05-.47.316-.546.465-.079.153-.29.895-.385 1.352a9.3 9.3 0 0 0-.212 1.853c-.007.655.014.723.298.999.389.378.983.368 1.375-.025.229-.229.286-.427.339-1.178.059-.826.115-1.13.403-2.196.117-.435.041-.751-.248-1.028a1.04 1.04 0 0 0-1.024-.242m.294 7.151c-.409.159-.644.536-.615.986.014.219.057.336.321.863a10.8 10.8 0 0 0 2.046 2.843c.295.295.501.466.64.531.371.172.75.111 1.065-.171a.92.92 0 0 0 .329-.716c.003-.362-.063-.476-.589-1.021-.804-.831-1.247-1.453-1.753-2.461-.296-.591-.385-.701-.677-.836a.91.91 0 0 0-.767-.018m13.297 5.105c-2.204.934-4.286 1.06-6.463.39-.67-.206-.988-.179-1.318.11-.227.2-.317.407-.317.734 0 .535.255.818.936 1.037 2.339.755 4.844.716 7.122-.111 1.09-.395 1.364-.58 1.499-1.009a.98.98 0 0 0-.604-1.227c-.287-.103-.471-.087-.855.076"/></svg>