<svg xmlns="http://www.w3.org/2000/svg" width="24" height="24" fill="none" stroke="currentColor" stroke-linecap="round" stroke-linejoin="round" stroke-width="2"><path fill="#000" fill-rule="evenodd" stroke="none" d="M5.181 1.045a2.24 2.24 0 0 0-1.001.479c-.454.418-1.32 1.682-1.778 2.592A13.02 13.02 0 0 0 4.154 18.48c3.702 4.303 9.745 5.698 14.986 3.459 1.486-.635 3.128-1.739 3.542-2.382.276-.43.381-1.064.261-1.573-.147-.624.406-.041-8.24-8.69-7.837-7.84-7.926-7.928-8.225-8.069a2.3 2.3 0 0 0-.58-.183c-.317-.046-.386-.046-.717.003M6.28 3.7c.533.534.69.713.66.755-.945 1.301-1.522 2.73-1.723 4.265-.083.641-.061 2.028.042 2.6.292 1.614.963 3.082 1.948 4.26a11 11 0 0 0 1.553 1.483 9.1 9.1 0 0 0 4.36 1.737c.513.062 1.674.051 2.202-.021 1.421-.195 2.875-.758 3.948-1.528.162-.116.307-.211.323-.211.015 0 .341.314.724.697.614.615.691.706.643.763-.096.116-.77.603-1.205.872a11.2 11.2 0 0 1-4.475 1.555c-.617.078-2.138.067-2.74-.021-1.945-.283-3.614-.972-5.18-2.139-.531-.395-1.611-1.455-2.005-1.967-.949-1.233-1.623-2.591-1.991-4.011-.784-3.023-.248-6.278 1.451-8.823C5.182 3.415 5.5 3 5.554 3c.015 0 .342.315.726.7m3.114 5.29a90 90 0 0 1-2.181-.003c-.027-.027.106-.693.208-1.047a7.4 7.4 0 0 1 .821-1.838l.17-.27 1.574 1.574L11.56 8.98zm.666 3.53-1.52 1.52-.071-.09c-.118-.15-.451-.712-.609-1.029a7.6 7.6 0 0 1-.595-1.791L7.242 11h4.338zm2.925 4.229c-.029.029-.76-.158-1.165-.298a8 8 0 0 1-1.555-.775l-.314-.207 1.514-1.514 1.515-1.515.01 2.146c.006 1.181.004 2.154-.005 2.163m5.105-1.116c-.168.128-.815.488-1.09.608-.569.248-1.297.464-1.81.537l-.19.027V12.42L16.58 14c1.43 1.429 1.574 1.585 1.51 1.633"/></svg>