<svg xmlns="http://www.w3.org/2000/svg" width="24" height="24" fill="none" stroke="currentColor" stroke-linecap="round" stroke-linejoin="round" stroke-width="2"><path fill="#000" fill-rule="evenodd" stroke="none" d="M8.477 1.073c-.671.176-1.239.75-1.417 1.435-.033.126-.06.286-.06.356v.127l-.77.019c-.663.017-.814.033-1.091.116A3.07 3.07 0 0 0 3.114 5.16l-.094.3v15.08l.094.3a3.09 3.09 0 0 0 2.046 2.046l.3.094h13.08l.3-.094a3.09 3.09 0 0 0 2.046-2.046c.091-.291.094-.343.094-1.72V17.7l-.109-.186a1.01 1.01 0 0 0-1.742 0l-.109.186-.021 1.28c-.015.874-.037 1.316-.07 1.393a1.14 1.14 0 0 1-.445.499l-.184.108H5.7l-.184-.108a1.2 1.2 0 0 1-.291-.249c-.239-.314-.225.172-.225-7.601 0-8.016-.025-7.391.303-7.719C5.554 5.052 5.751 5 6.447 5H7v.132c0 .191.104.558.225.798.136.269.576.709.845.845.452.229.384.225 3.923.225 3.546 0 3.486.003 3.944-.229.26-.132.702-.574.834-.834.117-.23.229-.628.229-.813V5h.553c.678 0 .888.053 1.126.283.313.304.299.181.321 2.74l.02 2.283.121.197a.998.998 0 0 0 1.718 0l.121-.197V5.46l-.094-.3a3.07 3.07 0 0 0-2.025-2.034c-.276-.083-.428-.099-1.083-.116l-.761-.019-.049-.304a2.4 2.4 0 0 0-.162-.546c-.141-.302-.485-.677-.789-.86-.469-.282-.381-.276-4.017-.276-2.953 0-3.285.006-3.523.068M15 4v1H9V3h6zm-.36 5.068c-.154.053-.492.373-2.314 2.187-2.325 2.314-2.325 2.314-2.325 2.745 0 .429.003.433 2.305 2.726 1.163 1.158 2.177 2.139 2.254 2.179.099.052.228.074.44.074.258.001.327-.015.492-.112.222-.13.409-.369.473-.603a1.2 1.2 0 0 0-.066-.709c-.037-.074-.61-.68-1.273-1.345L13.422 15l3.879-.002c3.136-.001 3.908-.012 4.029-.055.221-.079.414-.241.539-.454.095-.161.111-.233.111-.489 0-.254-.017-.328-.108-.484a1.2 1.2 0 0 0-.254-.295c-.298-.227-.183-.221-4.353-.221h-3.843l1.204-1.21c.663-.665 1.238-1.273 1.279-1.35.052-.099.074-.227.074-.44.001-.255-.015-.328-.107-.484a1.016 1.016 0 0 0-1.232-.448"/></svg>