<svg xmlns="http://www.w3.org/2000/svg" width="24" height="24" fill="none" stroke="currentColor" stroke-linecap="round" stroke-linejoin="round" stroke-width="2"><path fill="#000" fill-rule="evenodd" stroke="none" d="M8.477 1.073c-.671.176-1.239.75-1.417 1.435-.033.126-.06.286-.06.356v.127l-.77.019c-.663.017-.814.033-1.091.116-.947.285-1.695 1.029-2.025 2.014l-.094.28-.011 4.12c-.013 4.599-.03 4.303.267 4.633a.94.94 0 0 0 .721.315c.408 0 .727-.206.908-.588l.094-.2L5 9.797c0-4.414-.016-4.175.303-4.494C5.554 5.052 5.751 5 6.447 5H7v.132c0 .191.104.558.225.798.136.269.576.709.845.845.452.229.384.225 3.923.225 3.546 0 3.486.003 3.944-.229.26-.132.702-.574.834-.834.117-.23.229-.628.229-.813V5h.553c.696 0 .893.052 1.144.303.327.328.303-.294.303 7.698 0 5.906-.009 7.137-.055 7.289a1.02 1.02 0 0 1-.461.582l-.184.108-3.04.02c-3.021.02-3.041.021-3.2.106-.354.192-.548.509-.548.897 0 .289.107.533.315.721.326.294.149.281 3.633.267l3.12-.012.28-.093c.989-.331 1.722-1.07 2.026-2.046l.094-.3V5.46l-.094-.3a3.07 3.07 0 0 0-2.025-2.034c-.276-.083-.428-.099-1.083-.116l-.761-.019-.049-.304a2.4 2.4 0 0 0-.162-.546c-.141-.302-.485-.677-.789-.86-.469-.282-.381-.276-4.017-.276-2.953 0-3.285.006-3.523.068M15 4v1H9V3h6zm-3.67 7.044c-.481.08-.951.293-1.37.618-.314.245-5.484 5.441-5.631 5.661-.263.392-.382.716-.851 2.319-.467 1.598-.484 1.669-.464 1.948.038.545.357 1.012.861 1.26.235.116.299.13.604.129.315-.002.458-.036 1.881-.454 1.761-.517 2.094-.654 2.56-1.057.578-.5 5.421-5.399 5.58-5.645.661-1.021.662-2.403.002-3.397a3.4 3.4 0 0 0-1.463-1.203c-.478-.195-1.175-.268-1.709-.179m1.023 2.072c.241.123.38.258.507.491.158.289.169.717.025.998-.118.232-5.321 5.446-5.505 5.517-.159.062-2.115.637-2.126.625-.024-.024.584-2.028.657-2.167.086-.164 5.215-5.309 5.414-5.431.27-.165.739-.18 1.028-.033"/></svg>