<svg xmlns="http://www.w3.org/2000/svg" width="24" height="24" fill="none" stroke="currentColor" stroke-linecap="round" stroke-linejoin="round" stroke-width="2"><path fill="#000" fill-rule="evenodd" stroke="none" d="M8.477 1.073c-.671.176-1.239.75-1.417 1.435-.033.126-.06.286-.06.356v.127l-.77.019c-.663.017-.814.033-1.091.116A3.07 3.07 0 0 0 3.114 5.16l-.094.3v15.08l.094.3a3.09 3.09 0 0 0 2.046 2.046l.3.094h13.08l.3-.094a3.09 3.09 0 0 0 2.04-2.026c.069-.218.093-.415.11-.89.024-.7-.014-.863-.266-1.142-.194-.216-.405-.306-.715-.307-.428-.002-.729.189-.914.579-.08.169-.094.263-.095.604 0 .635-.137.945-.516 1.168l-.184.108H5.7l-.184-.108a1.2 1.2 0 0 1-.291-.249c-.239-.314-.225.172-.225-7.601 0-8.016-.025-7.391.303-7.719C5.554 5.052 5.751 5 6.447 5H7v.132c0 .191.104.558.225.798.136.269.576.709.845.845.452.229.384.225 3.923.225 3.546 0 3.486.003 3.944-.229.26-.132.702-.574.834-.834.117-.23.229-.628.229-.813V5h.55c.302 0 .622.02.71.044q.353.095.603.458c.402.583 1.097.663 1.577.181.202-.203.28-.401.28-.711 0-.522-.629-1.266-1.38-1.635-.532-.261-.73-.302-1.582-.326l-.742-.021-.048-.303a2.4 2.4 0 0 0-.162-.546c-.141-.302-.485-.677-.789-.86-.469-.282-.381-.276-4.017-.276-2.953 0-3.285.006-3.523.068M15 4v1H9V3h6zm4.33 4.044a3.06 3.06 0 0 0-1.37.618c-.312.243-4.483 4.44-4.631 4.661-.263.392-.382.715-.851 2.319-.467 1.598-.484 1.669-.464 1.948.038.545.357 1.012.861 1.26.235.116.299.13.604.129.315-.002.458-.036 1.881-.454 1.761-.517 2.094-.654 2.56-1.057.565-.488 4.42-4.398 4.58-4.645.661-1.02.662-2.403.002-3.397a3.4 3.4 0 0 0-1.463-1.203c-.478-.195-1.175-.268-1.709-.179m1.023 2.072c.241.123.38.258.507.491.158.289.169.717.025.998-.118.231-4.322 4.446-4.505 4.517-.159.062-2.115.637-2.126.625-.024-.024.584-2.028.657-2.167.086-.164 4.216-4.31 4.414-4.431.27-.165.739-.18 1.028-.033M7.695 17.057a1.04 1.04 0 0 0-.567.459c-.091.156-.108.23-.108.484 0 .256.016.328.111.489.125.213.318.375.539.454.208.074 1.452.074 1.66 0 .221-.079.414-.241.539-.454.095-.161.111-.233.111-.489 0-.254-.017-.328-.108-.484a1.02 1.02 0 0 0-.582-.461c-.24-.072-1.362-.071-1.595.002"/></svg>