<svg xmlns="http://www.w3.org/2000/svg" width="24" height="24" fill="none" stroke="currentColor" stroke-linecap="round" stroke-linejoin="round" stroke-width="2"><path fill="#000" fill-rule="evenodd" stroke="none" d="M8.477 1.073c-.671.176-1.239.75-1.417 1.435-.033.126-.06.286-.06.356v.127l-.77.019c-.663.017-.814.033-1.091.116A3.07 3.07 0 0 0 3.114 5.16l-.094.3v15.08l.094.3a3.09 3.09 0 0 0 2.046 2.046l.3.094h13.08l.3-.094a3.08 3.08 0 0 0 2.045-2.046c.07-.229.092-.4.093-.72.002-.387-.007-.434-.107-.606a1.01 1.01 0 0 0-1.466-.309c-.236.174-.358.404-.403.761a2.6 2.6 0 0 1-.08.409 1.1 1.1 0 0 1-.438.497l-.184.108H5.7l-.184-.108a1.2 1.2 0 0 1-.291-.249c-.239-.314-.225.172-.225-7.601 0-8.016-.025-7.391.303-7.719C5.554 5.052 5.751 5 6.447 5H7l.001.13c.001.207.109.613.224.84.135.267.538.67.805.805.443.225.43.224 3.962.224 3.619.001 3.589.003 4.034-.264.301-.18.522-.398.695-.682.146-.241.273-.655.277-.903L17 5h.553c.678 0 .888.053 1.126.283.296.288.298.298.321 1.74l.02 1.284.121.196a.998.998 0 0 0 1.718 0l.121-.197V6.883c0-1.38-.003-1.432-.094-1.723a3.07 3.07 0 0 0-2.025-2.034c-.277-.083-.428-.099-1.091-.116L17 2.991l-.002-.146c-.01-.616-.446-1.3-1.029-1.617-.414-.224-.456-.227-3.989-.225-2.931.001-3.265.008-3.503.07M15 4v1H9V3h6zm1.67 5.061c-.222.081-.42.248-.542.455-.092.156-.108.229-.107.484 0 .213.022.341.074.44.041.077.616.685 1.279 1.35L18.578 13h-3.843c-4.17 0-4.055-.006-4.353.221-.08.061-.195.194-.254.295-.091.156-.108.23-.108.484 0 .256.016.328.111.489.125.213.318.375.539.454.121.043.893.054 4.029.055l3.879.002-1.204 1.21c-.663.665-1.236 1.271-1.273 1.345-.229.454-.045 1.046.407 1.312.165.097.234.113.492.112.212 0 .341-.022.44-.074.077-.04 1.091-1.021 2.254-2.179 2.302-2.293 2.305-2.297 2.305-2.726 0-.431 0-.431-2.325-2.745-1.924-1.915-2.153-2.131-2.331-2.19a1 1 0 0 0-.673-.004"/></svg>