<svg xmlns="http://www.w3.org/2000/svg" width="24" height="24" fill="none" stroke="currentColor" stroke-linecap="round" stroke-linejoin="round" stroke-width="2"><path fill="#000" fill-rule="evenodd" stroke="none" d="M8.477 1.073c-.671.176-1.239.75-1.417 1.435-.033.126-.06.286-.06.356v.127l-.77.019c-.663.017-.814.033-1.091.116A3.07 3.07 0 0 0 3.114 5.16l-.094.3v15.08l.094.3a3.09 3.09 0 0 0 2.046 2.046l.3.094h13.08l.3-.094a3.09 3.09 0 0 0 2.046-2.046l.094-.3V5.46l-.094-.3a3.07 3.07 0 0 0-2.025-2.034c-.276-.083-.428-.099-1.083-.116l-.761-.019-.049-.304a2.4 2.4 0 0 0-.162-.546c-.141-.302-.485-.677-.789-.86-.469-.282-.381-.276-4.017-.276-2.953 0-3.285.006-3.523.068M15 4v1H9V3h6zM7 5.132c0 .191.104.558.225.798.136.269.576.709.845.845.452.229.384.225 3.923.225 3.546 0 3.486.003 3.944-.229.26-.132.702-.574.834-.834.117-.23.229-.628.229-.813V5h.553c.696 0 .893.052 1.144.303.327.328.303-.294.303 7.698 0 5.906-.009 7.137-.055 7.289a1.02 1.02 0 0 1-.461.582l-.184.108H5.7l-.184-.108a1.2 1.2 0 0 1-.291-.249c-.239-.314-.225.172-.225-7.601 0-8.017-.025-7.391.304-7.719.25-.251.423-.297 1.126-.3L7 5zm1.67 4.929c-.222.081-.42.248-.542.455-.092.156-.108.229-.107.484 0 .213.022.341.074.44.041.077.616.685 1.279 1.35L10.578 14l-1.204 1.21c-.663.666-1.236 1.271-1.273 1.345-.229.454-.045 1.046.407 1.312.165.097.234.113.492.112.213 0 .341-.022.44-.074.077-.041.685-.616 1.35-1.279L12 15.422l1.21 1.204c.666.663 1.271 1.236 1.345 1.273.454.229 1.046.045 1.312-.407.097-.165.113-.234.112-.492 0-.213-.022-.341-.074-.44-.041-.077-.616-.684-1.279-1.35L13.422 14l1.204-1.21c.663-.665 1.238-1.273 1.279-1.35.052-.099.074-.227.074-.44.001-.255-.015-.328-.107-.484a1 1 0 0 0-1.215-.45c-.173.058-.345.213-1.427 1.288L12 12.576l-1.23-1.222c-1.082-1.075-1.254-1.23-1.427-1.288a1 1 0 0 0-.673-.005"/></svg>