<svg xmlns="http://www.w3.org/2000/svg" width="24" height="24" fill="none" stroke="currentColor" stroke-linecap="round" stroke-linejoin="round" stroke-width="2"><path fill="#000" fill-rule="evenodd" stroke="none" d="M11.1 1.042c-2.034.187-3.84.849-5.48 2.01-1.563 1.107-2.9 2.739-3.661 4.468-1.186 2.697-1.268 5.636-.235 8.375.875 2.318 2.495 4.248 4.67 5.562 1.606.971 3.654 1.539 5.554 1.542.642.001.881-.069 1.113-.325.193-.214.263-.391.264-.671.002-.41-.202-.726-.585-.908-.179-.084-.256-.094-.74-.095a8.7 8.7 0 0 1-3.94-.918 8.86 8.86 0 0 1-4.036-3.935c-1.092-2.127-1.31-4.417-.642-6.731.673-2.332 2.395-4.368 4.638-5.487 1.815-.904 4.055-1.161 6.04-.692 2.161.51 4.173 1.891 5.366 3.683.797 1.197 1.31 2.521 1.497 3.86.053.38.07 1.436.037 2.24-.018.438-.012.494.066.64.167.307.448.51.777.56.23.034.449-.024.69-.184.405-.268.484-.604.484-2.056.001-1.043-.045-1.465-.26-2.42a11.01 11.01 0 0 0-6.037-7.507 11.4 11.4 0 0 0-3.24-.954c-.522-.075-1.807-.106-2.34-.057m.595 4.015a1.04 1.04 0 0 0-.567.459l-.108.184-.011 3.217c-.012 3.632-.024 3.472.288 3.779.236.233 2.323 1.266 2.613 1.294.437.042.885-.242 1.024-.65a.95.95 0 0 0 .001-.676c-.11-.323-.279-.454-1.144-.888l-.789-.396-.011-2.84-.011-2.84-.108-.184a1.005 1.005 0 0 0-1.177-.459m6 8a1.04 1.04 0 0 0-.567.459l-.108.184-.011 2.937-.011 2.937-1.229-1.221c-1.081-1.074-1.253-1.229-1.426-1.287a1 1 0 0 0-1.215.45c-.092.156-.108.229-.107.484 0 .212.022.341.074.44.04.077 1.021 1.091 2.179 2.254 2.293 2.302 2.297 2.305 2.726 2.305s.433-.003 2.726-2.305c1.158-1.163 2.139-2.177 2.179-2.254.052-.099.074-.228.074-.44.001-.255-.015-.328-.107-.484a1 1 0 0 0-1.215-.45c-.173.058-.345.213-1.426 1.287l-1.229 1.221-.011-2.937-.011-2.937-.108-.184a1.005 1.005 0 0 0-1.177-.459"/></svg>