<svg xmlns="http://www.w3.org/2000/svg" width="24" height="24" fill="none" stroke="currentColor" stroke-linecap="round" stroke-linejoin="round" stroke-width="2"><path fill="#000" fill-rule="evenodd" stroke="none" d="M11.08 1.041c-2.554.243-4.849 1.277-6.656 3.003A10.8 10.8 0 0 0 1.325 9.38c-.534 2.176-.4 4.408.39 6.5 1.499 3.97 5.103 6.691 9.382 7.084.571.052 1.797.028 2.223-.044.563-.096.895-.467.895-1a.89.89 0 0 0-.301-.706c-.305-.286-.335-.29-1.594-.235-.834.037-1.395-.005-2.142-.16-1.397-.29-2.9-1.026-4.022-1.971-1.594-1.342-2.744-3.416-3.055-5.507-.265-1.786.038-3.736.828-5.321 1.152-2.31 3.204-4.009 5.656-4.681.928-.254 1.405-.316 2.435-.316.78 0 .998.014 1.432.091 2.998.533 5.424 2.377 6.708 5.099.527 1.117.779 2.207.824 3.567.013.396.041.789.063.874.049.197.323.496.546.595.208.093.578.101.779.017.233-.098.457-.331.546-.571.175-.467.064-2.071-.224-3.235-.527-2.13-1.522-3.877-3.047-5.347a10.6 10.6 0 0 0-2.227-1.672 11.1 11.1 0 0 0-4.16-1.361c-.492-.061-1.717-.082-2.18-.039m.615 4.016a1.04 1.04 0 0 0-.567.459l-.108.184-.011 3.217c-.01 2.906-.004 3.236.055 3.416.114.342.292.475 1.325.984.864.425.943.456 1.159.455a.93.93 0 0 0 .747-.334.97.97 0 0 0-.076-1.394c-.081-.07-.387-.248-.682-.395l-.535-.267-.011-2.841L12.98 5.7l-.108-.184a1.005 1.005 0 0 0-1.177-.459m5.885 8.039c-.158.076-.64.538-2.306 2.21-1.158 1.163-2.136 2.175-2.173 2.249-.229.455-.045 1.046.407 1.312.165.097.234.113.492.112.213 0 .341-.022.44-.074.077-.041.684-.615 1.349-1.277l1.209-1.204.011 2.941.011 2.941.121.197a.998.998 0 0 0 1.718 0l.121-.197.011-2.941.011-2.941 1.209 1.204c.665.662 1.272 1.236 1.349 1.277.099.052.227.074.44.074.258.001.327-.015.492-.112.222-.13.409-.369.473-.603a1.2 1.2 0 0 0-.066-.709c-.037-.074-1.015-1.086-2.173-2.249-2.293-2.302-2.297-2.305-2.726-2.305a.95.95 0 0 0-.42.095"/></svg>