<svg xmlns="http://www.w3.org/2000/svg" width="24" height="24" fill="none" stroke="currentColor" stroke-linecap="round" stroke-linejoin="round" stroke-width="2"><path fill="#000" fill-rule="evenodd" stroke="none" d="M10.98 1.043c-4.94.464-8.964 4.187-9.823 9.088-.13.741-.169 1.321-.145 2.169.033 1.182.185 2.052.546 3.14.581 1.75 1.461 3.151 2.788 4.441 1.089 1.059 2.204 1.782 3.594 2.331a10.5 10.5 0 0 0 3.76.776c1.501.047 2.856-.191 4.316-.758.415-.161.55-.234.684-.368a.984.984 0 0 0 .001-1.403 1.06 1.06 0 0 0-.706-.299c-.084 0-.402.094-.723.214a10.5 10.5 0 0 1-1.972.533c-.602.099-1.974.099-2.6.001-2.996-.473-5.461-2.279-6.781-4.968-1.501-3.06-1.146-6.636.937-9.42.367-.49 1.179-1.303 1.667-1.668 2.169-1.621 4.815-2.204 7.417-1.632 2.483.545 4.657 2.15 5.869 4.332.382.688.473.815.68.942.147.091.25.12.46.133.237.015.298.003.489-.096a.99.99 0 0 0 .552-.977c-.033-.352-.577-1.329-1.219-2.191-.45-.605-1.521-1.675-2.134-2.133a11.2 11.2 0 0 0-5.022-2.111c-.643-.097-1.996-.136-2.635-.076m.715 4.014a1.04 1.04 0 0 0-.567.459l-.108.184-.011 3.217c-.012 3.632-.024 3.472.288 3.779.245.241 4.315 2.265 4.611 2.294.439.042.887-.241 1.026-.65a.95.95 0 0 0 .001-.676c-.125-.366-.209-.421-2.144-1.389l-1.789-.894-.011-2.841-.011-2.84-.108-.184a1.005 1.005 0 0 0-1.177-.459m7.905 5.527a1.08 1.08 0 0 0-.505.516l-.094.2v6.4l.094.2c.181.381.5.588.905.588s.724-.207.905-.588l.094-.2v-6.4l-.094-.2a1.06 1.06 0 0 0-.514-.518c-.188-.079-.608-.078-.791.002m0 10c-.333.144-.599.551-.599.916 0 .245.135.549.324.728a1.014 1.014 0 0 0 1.387-.026c.186-.187.256-.343.279-.63a.96.96 0 0 0-.568-.976c-.201-.092-.625-.098-.823-.012"/></svg>