<svg xmlns="http://www.w3.org/2000/svg" width="24" height="24" fill="none" stroke="currentColor" stroke-linecap="round" stroke-linejoin="round" stroke-width="2"><path fill="#000" fill-rule="evenodd" stroke="none" d="M8.207 2.043c-2.346.226-4.592 1.582-5.876 3.546A8.6 8.6 0 0 0 1.094 8.72c-.098.531-.098 1.935-.001 2.5.262 1.519.836 2.787 1.755 3.88.557.664.739.788 1.152.788.405 0 .724-.207.905-.588.201-.426.098-.783-.383-1.32A5.98 5.98 0 0 1 3.287 8.2a6 6 0 0 1 3.155-3.616c.867-.41 1.531-.557 2.518-.558 1.022-.002 1.746.151 2.56.539a6 6 0 0 1 1.78 1.257c.651.662 1.053 1.344 1.479 2.512.087.239.261.443.477.558.156.083.23.089 1.484.114.726.014 1.401.044 1.5.067a3.6 3.6 0 0 1 2.418 1.931c.239.503.314.856.317 1.496.003.469-.011.611-.087.876-.242.841-.655 1.438-1.374 1.988-.389.297-.494.488-.494.899 0 .245.016.31.121.48.222.361.616.542 1.039.479.264-.04.727-.366 1.22-.861.779-.781 1.269-1.7 1.504-2.821.105-.498.107-1.577.003-2.06a6.7 6.7 0 0 0-.551-1.56c-.677-1.296-1.951-2.32-3.383-2.722-.46-.129-1.095-.196-1.86-.197-.699-.001-.708-.002-.735-.091a8.03 8.03 0 0 0-5.139-4.585 8.3 8.3 0 0 0-3.032-.282M6.695 16.057a1.04 1.04 0 0 0-.567.459c-.091.156-.108.23-.108.484 0 .256.016.328.111.489.125.213.318.375.539.454s9.438.079 9.66 0 .414-.241.539-.454c.095-.161.111-.233.111-.489 0-.254-.017-.328-.108-.484a1.02 1.02 0 0 0-.582-.461c-.261-.079-9.344-.077-9.595.002m2 4a1.04 1.04 0 0 0-.567.459c-.091.156-.108.23-.108.484 0 .256.016.328.111.489.125.213.318.375.539.454s8.438.079 8.66 0 .414-.241.539-.454c.095-.161.111-.233.111-.489 0-.254-.017-.328-.108-.484a1.02 1.02 0 0 0-.582-.461c-.261-.079-8.344-.076-8.595.002"/></svg>