<svg xmlns="http://www.w3.org/2000/svg" width="24" height="24" fill="none" stroke="currentColor" stroke-linecap="round" stroke-linejoin="round" stroke-width="2"><path fill="#000" fill-rule="evenodd" stroke="none" d="M8.207 2.043c-2.346.226-4.592 1.582-5.876 3.546A8.6 8.6 0 0 0 1.094 8.72c-.098.531-.098 1.935-.001 2.5.262 1.519.836 2.787 1.755 3.88.557.664.739.788 1.152.788.405 0 .724-.207.905-.588.201-.426.098-.783-.383-1.32A5.98 5.98 0 0 1 3.287 8.2a6 6 0 0 1 3.155-3.616c.867-.41 1.531-.557 2.518-.558 1.022-.002 1.746.151 2.56.539a6 6 0 0 1 1.78 1.257c.651.662 1.053 1.344 1.479 2.512.087.239.261.443.477.558.156.083.23.089 1.484.114.726.014 1.401.044 1.5.067a3.6 3.6 0 0 1 2.418 1.931c.239.503.314.856.317 1.496.003.469-.011.611-.087.876-.242.841-.655 1.438-1.374 1.988-.389.297-.494.488-.494.899 0 .245.016.31.121.48.222.361.616.542 1.039.479.264-.04.727-.366 1.22-.861.779-.781 1.269-1.7 1.504-2.821.105-.498.107-1.577.003-2.06a6.7 6.7 0 0 0-.551-1.56c-.677-1.296-1.951-2.32-3.383-2.722-.46-.129-1.095-.196-1.86-.197-.699-.001-.708-.002-.735-.091a8.03 8.03 0 0 0-5.139-4.585 8.3 8.3 0 0 0-3.032-.282m.436 10.024c-.407.148-.353.042-2.059 4.029-1.096 2.56-1.562 3.692-1.575 3.826C4.956 20.477 5.437 21 6 21c.241 0 .521-.119.697-.296.146-.147.324-.541 1.719-3.8 1.096-2.56 1.562-3.692 1.575-3.826a1.07 1.07 0 0 0-.226-.72c-.246-.297-.748-.428-1.122-.291m8 0c-.407.148-.353.042-2.059 4.029-1.096 2.56-1.562 3.692-1.575 3.826-.053.555.428 1.078.991 1.078.241 0 .521-.119.697-.296.146-.147.324-.541 1.719-3.8 1.096-2.56 1.562-3.692 1.575-3.826a1.07 1.07 0 0 0-.226-.72c-.246-.297-.748-.428-1.122-.291m-4.8 2c-.407.148-.353.042-2.059 4.029-1.096 2.56-1.562 3.692-1.575 3.826-.053.555.428 1.078.991 1.078.241 0 .521-.119.697-.296.146-.147.324-.541 1.719-3.8 1.096-2.56 1.562-3.692 1.575-3.826a1.07 1.07 0 0 0-.226-.72c-.246-.297-.748-.428-1.122-.291"/></svg>