<svg xmlns="http://www.w3.org/2000/svg" width="24" height="24" fill="none" stroke="currentColor" stroke-linecap="round" stroke-linejoin="round" stroke-width="2"><path fill="#000" fill-rule="evenodd" stroke="none" d="M15.28 3.045a7.04 7.04 0 0 0-4.99 2.907c-.513.712-1.09 2.064-1.09 2.557 0 .551.439.984.998.984q.73 0 .988-.852c.397-1.307 1.19-2.314 2.354-2.991.154-.089.319-.174.366-.188l.087-.025-.074.285a5 5 0 0 0-.149 1.486 5.2 5.2 0 0 0 1.81 3.756c1.285 1.111 3.069 1.535 4.696 1.117.156-.04.284-.065.284-.056 0 .053-.279.557-.451.815-.289.433-.928 1.051-1.419 1.372-.423.278-.557.426-.651.724-.109.345.045.821.336 1.043.33.252.727.277 1.127.073.671-.344 1.676-1.249 2.187-1.972.762-1.078 1.233-2.42 1.298-3.701.031-.601-.026-.812-.289-1.075-.405-.405-.954-.401-1.422.009-.509.447-.803.623-1.316.791-.312.102-.391.111-.96.111s-.648-.009-.96-.111c-1.815-.593-2.748-2.561-2.046-4.316.141-.35.342-.663.665-1.034.365-.419.437-.855.206-1.25-.264-.449-.634-.556-1.585-.459m-8.86 7.98a8.6 8.6 0 0 0-1.283.277 6.06 6.06 0 0 0-3.835 3.835c-.213.655-.275 1.066-.277 1.843-.003.772.024.974.22 1.68.272.976.774 1.812 1.55 2.58.851.843 1.677 1.309 2.825 1.594.631.156.892.166 4.37.166 3.212 0 3.397-.004 3.767-.079 1.627-.332 2.832-1.537 3.164-3.164.19-.934.005-1.979-.5-2.825-.46-.771-1.279-1.421-2.176-1.728-.316-.108-.93-.203-1.312-.204h-.287l-.049-.15a6 6 0 0 0-.225-.509c-.816-1.66-2.37-2.845-4.229-3.225-.394-.08-1.352-.131-1.723-.091m1.546 2.089c.844.222 1.687.769 2.19 1.42.366.475.562.905.784 1.718.078.286.282.524.56.654.187.087.25.093.98.096.893.003 1.159.051 1.537.279a2.023 2.023 0 0 1 .776 2.599c-.155.318-.566.745-.863.895-.452.229-.379.225-3.973.225-3.608 0-3.66-.003-4.307-.232-.866-.306-1.693-1.009-2.15-1.825-.675-1.207-.652-2.817.058-3.968.655-1.061 1.586-1.706 2.765-1.913.455-.08 1.234-.055 1.643.052"/></svg>