<svg xmlns="http://www.w3.org/2000/svg" width="24" height="24" fill="none" stroke="currentColor" stroke-linecap="round" stroke-linejoin="round" stroke-width="2"><path fill="#000" fill-rule="evenodd" stroke="none" d="M1.67 1.061c-.222.081-.42.248-.542.455-.092.156-.108.229-.107.484 0 .212.022.341.074.44.04.077.751.821 1.579 1.652L4.18 5.605l-.2.167C2.056 7.379 1 9.597 1 12.029c0 3.723 2.637 6.973 6.32 7.79.786.175.988.181 5.886.181q4.667 0 4.977-.043l.31-.043 1.463 1.459c.805.802 1.527 1.492 1.604 1.532.099.052.228.074.44.074.258.001.327-.015.492-.112.476-.28.647-.9.373-1.359-.055-.092-4.65-4.715-10.212-10.273C3.3 1.889 2.525 1.125 2.343 1.065a1 1 0 0 0-.673-.004M9.6 4.16a.97.97 0 0 0-.588.819c-.04.38.168.773.502.952.102.055.384.139.626.187 1.791.353 3.342 1.503 4.152 3.078.2.389.289.596.487 1.138.087.24.262.443.477.558.156.082.232.088 1.484.112 1.153.022 1.358.036 1.624.108a3.5 3.5 0 0 1 2.354 4.743c-.203.506-.223.638-.14.924a.993.993 0 0 0 1.402.603c.332-.163.519-.468.772-1.263.412-1.291.287-2.849-.326-4.066a5.6 5.6 0 0 0-3.246-2.784c-.643-.206-1.121-.268-2.079-.271l-.681-.002-.267-.548a7.1 7.1 0 0 0-1.56-2.151 6.8 6.8 0 0 0-1.153-.944 8 8 0 0 0-2.53-1.115c-.67-.165-1.072-.189-1.31-.078m6.41 13.831c-.302.007-2.188.006-4.19-.002-3.578-.013-3.647-.015-4.025-.101-.782-.178-1.404-.432-1.995-.814-.97-.627-1.723-1.464-2.185-2.429-.391-.815-.566-1.541-.601-2.485-.038-1.023.133-1.809.606-2.78.422-.868.955-1.541 1.633-2.065l.362-.28 5.472 5.472 5.473 5.473z"/></svg>