<svg xmlns="http://www.w3.org/2000/svg" width="24" height="24" fill="none" stroke="currentColor" stroke-linecap="round" stroke-linejoin="round" stroke-width="2"><path fill="#000" fill-rule="evenodd" stroke="none" d="M8.42 4.023c-.066.009-.291.037-.5.061-.763.088-1.74.387-2.49.762a8.04 8.04 0 0 0-3.604 3.643 7.94 7.94 0 0 0 .015 7.054c1.132 2.305 3.278 3.888 5.919 4.367.29.053 1.045.064 5.18.079 3.522.012 4.938.004 5.2-.029q1.872-.242 3.2-1.54c1.619-1.585 2.095-3.925 1.23-6.044-.537-1.314-1.675-2.43-3.031-2.973-.738-.295-1.4-.402-2.487-.404l-.632-.001-.2-.428a7.5 7.5 0 0 0-1.426-2.07 7.96 7.96 0 0 0-4.614-2.403c-.362-.057-1.536-.106-1.76-.074m1.228 2.021c1.899.203 3.632 1.341 4.56 2.993.19.34.318.627.532 1.198.126.335.28.531.516.657.156.083.229.088 1.504.112 1.182.022 1.376.034 1.645.107a3.58 3.58 0 0 1 2.273 1.935c.228.486.3.835.3 1.454s-.072.968-.3 1.454c-.446.953-1.219 1.615-2.258 1.938-.28.086-.286.087-5 .1-3.343.009-4.831 0-5.1-.033a6.2 6.2 0 0 1-2.68-.994c-.499-.33-1.283-1.123-1.617-1.634-1.027-1.57-1.284-3.44-.716-5.191.298-.916.766-1.665 1.488-2.38.564-.558.936-.826 1.585-1.14 1.066-.515 2.113-.7 3.268-.576"/></svg>