<svg xmlns="http://www.w3.org/2000/svg" width="24" height="24" fill="none" stroke="currentColor" stroke-linecap="round" stroke-linejoin="round" stroke-width="2"><path fill="#000" fill-rule="evenodd" stroke="none" d="M8.26 2.044a8 8 0 0 0-4.409 1.849C2.388 5.113 1.422 6.833 1.094 8.8c-.097.582-.097 1.864 0 2.42.197 1.134.623 2.252 1.189 3.121.764 1.175 1.921 2.21 3.134 2.807.342.168.378.177.63.161.686-.046 1.11-.675.89-1.32-.089-.26-.299-.454-.76-.703-1.656-.893-2.733-2.388-3.102-4.306-.082-.426-.071-1.51.021-2 .308-1.655 1.18-3.003 2.547-3.94a5.97 5.97 0 0 1 6.717.003c1.104.754 1.842 1.71 2.301 2.977.172.476.222.573.365.705.272.253.272.253 1.734.279 1.512.027 1.685.053 2.279.351.41.205.678.408 1.026.775.477.502.757 1.058.875 1.736.202 1.159-.107 2.189-.912 3.04-.543.573-1.155.905-1.913 1.035a3.4 3.4 0 0 0-.528.129c-.21.089-.483.403-.547.629-.142.508.17 1.084.663 1.222.497.139 1.676-.163 2.517-.645 1.376-.789 2.305-2.056 2.665-3.636.102-.444.141-1.348.078-1.813-.294-2.203-1.825-3.994-3.936-4.604-.549-.159-.782-.187-1.73-.211l-.883-.023-.17-.369a7.7 7.7 0 0 0-1.463-2.132 8.04 8.04 0 0 0-4.327-2.347 8.4 8.4 0 0 0-2.194-.097m4.411 9.02a1 1 0 0 0-.344.207c-.159.154-3.178 5.141-3.273 5.409-.121.338-.021.755.245 1.021.281.282.382.299 1.728.299.645 0 1.173.011 1.173.024s-.472.809-1.048 1.77c-.577.96-1.071 1.809-1.098 1.886-.153.427.042.946.445 1.182.341.199.8.166 1.125-.082.094-.072.592-.867 1.709-2.731.867-1.446 1.599-2.699 1.627-2.785.112-.348-.04-.812-.342-1.043-.266-.203-.406-.221-1.682-.221h-1.172l1.1-1.834c1.003-1.672 1.103-1.854 1.123-2.055a.97.97 0 0 0-.292-.814c-.284-.276-.629-.355-1.024-.233"/></svg>