<svg xmlns="http://www.w3.org/2000/svg" width="24" height="24" fill="none" stroke="currentColor" stroke-linecap="round" stroke-linejoin="round" stroke-width="2"><path fill="#000" fill-rule="evenodd" stroke="none" d="M11.695 1.057a1.04 1.04 0 0 0-.567.459l-.108.184v2.606l.121.197a.998.998 0 0 0 1.718 0l.121-.197V1.7l-.108-.184a1.005 1.005 0 0 0-1.177-.459M4.78 3.947q-.59.136-.779.638c-.098.263-.101.374-.017.656.058.197.132.284.85 1.011.432.438.859.847.949.909.317.22.799.218 1.122-.004.434-.299.554-.945.256-1.374-.176-.254-1.644-1.681-1.801-1.751-.155-.069-.456-.114-.58-.085m14.069.015a1 1 0 0 0-.3.122c-.186.126-1.574 1.506-1.707 1.696-.403.577-.065 1.407.623 1.529.264.047.552-.009.75-.147.091-.062.519-.472.951-.91.718-.727.792-.814.85-1.011.079-.268.08-.334.002-.596a1.006 1.006 0 0 0-1.169-.683M11.2 7.063c-.662.107-1.528.451-1.854.737-.437.384-.42 1.072.037 1.474.343.302.699.316 1.28.053.546-.248.799-.304 1.357-.302.548.002.847.067 1.275.277.6.295 1.08.771 1.367 1.355.279.569.319.769.308 1.562-.01.782.02.891.328 1.175.514.474 1.375.236 1.598-.442.109-.331.132-1.196.046-1.713-.307-1.832-1.507-3.287-3.253-3.945-.674-.253-1.737-.352-2.489-.231m-4.78 3.962a8.6 8.6 0 0 0-1.283.277 6.06 6.06 0 0 0-3.835 3.835c-.213.655-.275 1.066-.277 1.843-.003.772.024.974.22 1.68.272.976.774 1.812 1.55 2.58.851.843 1.677 1.309 2.825 1.594.631.156.892.166 4.37.166 3.212 0 3.397-.004 3.767-.079 1.627-.332 2.832-1.537 3.164-3.164.19-.934.005-1.979-.5-2.825-.46-.771-1.279-1.421-2.176-1.728-.316-.108-.93-.203-1.312-.204h-.287l-.049-.15a6 6 0 0 0-.225-.509c-.816-1.66-2.37-2.845-4.229-3.225-.394-.08-1.352-.131-1.723-.091m13.275.032a1.04 1.04 0 0 0-.567.459c-.091.156-.108.23-.108.484 0 .256.016.328.111.489.125.213.318.375.539.454.215.077 2.445.077 2.66 0 .221-.079.414-.241.539-.454.095-.161.111-.233.111-.489 0-.254-.017-.328-.108-.484a1.02 1.02 0 0 0-.582-.461c-.251-.076-2.353-.074-2.595.002M7.966 13.114c.844.222 1.687.769 2.19 1.42.366.475.562.905.784 1.718.078.286.282.524.56.654.187.087.25.093.98.096.893.003 1.159.051 1.537.279a2.023 2.023 0 0 1 .776 2.599c-.155.318-.566.745-.863.895-.452.229-.379.225-3.973.225-3.608 0-3.66-.003-4.307-.232-.866-.306-1.693-1.009-2.15-1.825-.675-1.207-.652-2.817.058-3.968.655-1.061 1.586-1.706 2.765-1.913.455-.08 1.234-.055 1.643.052"/></svg>