<svg xmlns="http://www.w3.org/2000/svg" width="24" height="24" fill="none" stroke="currentColor" stroke-linecap="round" stroke-linejoin="round" stroke-width="2"><path fill="#000" fill-rule="evenodd" stroke="none" d="M8.18 2.045c-1.475.14-3.024.781-4.22 1.744a8 8 0 0 0-2.949 5.937 7.88 7.88 0 0 0 2.444 6.024c.352.339.457.416.631.468.26.077.328.077.589 0a.987.987 0 0 0 .667-1.238c-.06-.206-.113-.277-.489-.656-.546-.548-.879-.993-1.17-1.564a6 6 0 0 1-.571-1.647c-.127-.629-.127-1.661.001-2.257.229-1.072.7-2.035 1.373-2.807.853-.977 2.15-1.716 3.434-1.955.586-.109 1.641-.098 2.24.023 1.755.356 3.273 1.47 4.105 3.012.162.3.32.67.514 1.205.087.239.261.443.477.558.156.083.229.088 1.504.112 1.398.026 1.474.035 2.001.232.629.236 1.405.883 1.73 1.444.839 1.448.604 3.219-.576 4.342-.14.134-.338.299-.439.368-.373.255-.531.525-.531.91 0 .649.686 1.142 1.299.934.436-.148 1.399-1.025 1.812-1.651a6 6 0 0 0 .852-2.068c.101-.47.101-1.56-.001-2.035-.378-1.775-1.417-3.133-3.007-3.93-.757-.38-1.399-.513-2.609-.54-.864-.019-.889-.022-.914-.105-.05-.17-.461-.952-.67-1.275-.581-.898-1.479-1.775-2.467-2.411-.43-.277-1.268-.668-1.78-.832a8.3 8.3 0 0 0-3.28-.342m3.515 10.012a1.04 1.04 0 0 0-.567.459l-.108.184-.011 2.937-.011 2.937-1.229-1.221c-1.081-1.074-1.253-1.229-1.426-1.287a1 1 0 0 0-1.215.45c-.092.156-.108.229-.107.484 0 .212.022.341.074.44.04.077 1.021 1.091 2.179 2.254 2.293 2.302 2.297 2.305 2.726 2.305s.433-.003 2.726-2.305c1.158-1.163 2.139-2.177 2.179-2.254.052-.099.074-.228.074-.44.001-.255-.015-.328-.107-.484a1 1 0 0 0-1.215-.45c-.173.058-.345.213-1.426 1.287l-1.229 1.221-.011-2.937-.011-2.937-.108-.184a1.005 1.005 0 0 0-1.177-.459"/></svg>