<svg xmlns="http://www.w3.org/2000/svg" width="24" height="24" fill="none" stroke="currentColor" stroke-linecap="round" stroke-linejoin="round" stroke-width="2"><path fill="#000" fill-rule="evenodd" stroke="none" d="M15.28 3.045a7.04 7.04 0 0 0-4.99 2.907c-.513.712-1.09 2.064-1.09 2.557 0 .551.439.984.998.984q.73 0 .988-.852c.397-1.307 1.19-2.314 2.354-2.991.154-.089.319-.174.366-.188l.087-.025-.074.285a5 5 0 0 0-.149 1.486 5.2 5.2 0 0 0 1.81 3.756c1.285 1.111 3.069 1.535 4.696 1.117.156-.04.284-.065.284-.056 0 .053-.279.557-.451.815-.289.433-.928 1.051-1.419 1.372-.423.278-.557.426-.651.724-.109.345.045.821.336 1.043.33.252.727.277 1.127.073.671-.344 1.676-1.249 2.187-1.972.762-1.078 1.233-2.42 1.298-3.701.031-.601-.026-.812-.289-1.075-.405-.405-.954-.401-1.422.009-.509.447-.803.623-1.316.791-.312.102-.391.111-.96.111s-.648-.009-.96-.111c-1.815-.593-2.748-2.561-2.046-4.316.141-.35.342-.663.665-1.034.365-.419.437-.855.206-1.25-.264-.449-.634-.556-1.585-.459m-8.76 7.981c-1.888.18-3.478 1.116-4.508 2.654a5.98 5.98 0 0 0-.571 5.574c.284.711.758 1.432 1.057 1.607a.998.998 0 0 0 1.49-.753c.029-.284-.028-.45-.305-.888-.498-.787-.657-1.326-.657-2.22 0-.464.017-.652.088-.94.173-.698.67-1.547 1.169-1.995 1.378-1.238 3.381-1.404 4.897-.406a3.93 3.93 0 0 1 1.685 2.33c.123.461.164.549.342.719.267.256.41.29 1.216.291.397.001.829.02.96.044.75.137 1.415.791 1.573 1.549.064.307.054.594-.031.918-.094.359-.227.586-.546.934-.302.329-.401.572-.367.903a.99.99 0 0 0 1.094.881c.286-.03.502-.161.813-.493.472-.505.772-1.056.968-1.776.129-.475.13-1.465.003-1.926-.21-.757-.545-1.341-1.065-1.853a4 4 0 0 0-2.88-1.18h-.289l-.053-.15c-.451-1.28-1.612-2.56-2.907-3.205-.967-.481-2.166-.715-3.176-.619m.175 7.031a1.04 1.04 0 0 0-.567.459l-.108.184v2.606l.121.197a.998.998 0 0 0 1.718 0l.121-.197V18.7l-.108-.184a1.005 1.005 0 0 0-1.177-.459m4 1a1.04 1.04 0 0 0-.567.459l-.108.184v2.606l.121.197a.998.998 0 0 0 1.718 0l.121-.197V19.7l-.108-.184a1.005 1.005 0 0 0-1.177-.459"/></svg>