<svg xmlns="http://www.w3.org/2000/svg" width="24" height="24" fill="none" stroke="currentColor" stroke-linecap="round" stroke-linejoin="round" stroke-width="2"><path fill="#000" fill-rule="evenodd" stroke="none" d="M11.695 1.057a1.04 1.04 0 0 0-.567.459l-.108.184v2.606l.121.197a.998.998 0 0 0 1.718 0l.121-.197V1.7l-.108-.184a1.005 1.005 0 0 0-1.177-.459M4.78 3.947q-.59.136-.779.638c-.098.263-.101.374-.017.656.058.197.132.284.85 1.011.432.438.859.847.949.909.317.22.799.218 1.122-.004.434-.299.554-.945.256-1.374-.176-.254-1.644-1.681-1.801-1.751-.155-.069-.456-.114-.58-.085m14.069.015a1 1 0 0 0-.3.122c-.186.126-1.574 1.506-1.707 1.696-.403.577-.065 1.407.623 1.529.264.047.552-.009.75-.147.091-.062.519-.472.951-.91.718-.727.792-.814.85-1.011.079-.268.08-.334.002-.596a1.006 1.006 0 0 0-1.169-.683M11.2 7.063c-.662.107-1.528.451-1.854.737-.437.384-.42 1.072.037 1.474.343.302.699.316 1.28.053.546-.248.799-.304 1.357-.302.548.002.847.067 1.275.277.6.295 1.08.771 1.367 1.355.279.569.319.769.308 1.562-.01.782.02.891.328 1.175.514.474 1.375.236 1.598-.442.109-.331.132-1.196.046-1.713-.307-1.832-1.507-3.287-3.253-3.945-.674-.253-1.737-.352-2.489-.231m-4.68 3.963c-1.888.18-3.478 1.116-4.508 2.654a5.98 5.98 0 0 0-.571 5.574c.284.711.758 1.432 1.057 1.607a.998.998 0 0 0 1.49-.753c.029-.284-.028-.45-.305-.888-.498-.787-.657-1.326-.657-2.22 0-.464.017-.652.088-.94.173-.698.67-1.547 1.169-1.995 1.378-1.238 3.381-1.404 4.897-.406a3.93 3.93 0 0 1 1.685 2.33c.123.461.164.549.342.719.267.256.41.29 1.216.291.397.001.829.02.96.044.75.137 1.415.791 1.573 1.549.064.307.054.594-.031.918-.094.359-.227.586-.546.934-.302.329-.401.572-.367.903a.99.99 0 0 0 1.094.881c.286-.03.502-.161.813-.493.472-.505.772-1.056.968-1.776.129-.475.13-1.465.003-1.926-.21-.757-.545-1.341-1.065-1.853a4 4 0 0 0-2.88-1.18h-.289l-.053-.15c-.451-1.28-1.612-2.56-2.907-3.205-.967-.481-2.166-.715-3.176-.619m13.175.031a1.04 1.04 0 0 0-.567.459c-.091.156-.108.23-.108.484 0 .256.016.328.111.489.125.213.318.375.539.454.215.077 2.445.077 2.66 0 .221-.079.414-.241.539-.454.095-.161.111-.233.111-.489 0-.254-.017-.328-.108-.484a1.02 1.02 0 0 0-.582-.461c-.251-.076-2.353-.074-2.595.002m-13 7a1.04 1.04 0 0 0-.567.459l-.108.184v2.606l.121.197a.998.998 0 0 0 1.718 0l.121-.197V18.7l-.108-.184a1.005 1.005 0 0 0-1.177-.459m4 1a1.04 1.04 0 0 0-.567.459l-.108.184v2.606l.121.197a.998.998 0 0 0 1.718 0l.121-.197V19.7l-.108-.184a1.005 1.005 0 0 0-1.177-.459"/></svg>