<svg xmlns="http://www.w3.org/2000/svg" width="24" height="24" fill="none" stroke="currentColor" stroke-linecap="round" stroke-linejoin="round" stroke-width="2"><path fill="#000" fill-rule="evenodd" stroke="none" d="M8.42 3.026c-.58.066-.889.113-1.18.179C3.566 4.047.997 7.288 1 11.08c.001.687.158 1.638.394 2.38.637 2.011 2.141 3.754 4.048 4.692.506.249 1.366.568 1.532.568.425 0 .897-.368.987-.77a.95.95 0 0 0-.133-.778c-.165-.245-.296-.329-.797-.512-1.182-.433-2.113-1.115-2.836-2.08-1.139-1.518-1.482-3.553-.908-5.38.951-3.022 4.137-4.793 7.201-4.003a6.03 6.03 0 0 1 3.486 2.46c.272.406.474.808.674 1.339.193.515.236.597.378.729.271.252.273.252 1.734.279 1.182.022 1.376.034 1.645.107a3.58 3.58 0 0 1 2.273 1.935c.228.486.3.835.3 1.454s-.072.968-.3 1.454a3.54 3.54 0 0 1-2.258 1.931c-.202.058-.475.089-.98.112-.385.017-.751.052-.813.077a1.1 1.1 0 0 0-.499.442c-.091.156-.108.23-.108.484 0 .256.016.328.111.489.236.402.488.507 1.219.509 1.59.006 2.959-.543 4.032-1.616 1.584-1.584 2.044-3.909 1.188-6.006-.537-1.314-1.675-2.43-3.031-2.973-.737-.295-1.399-.402-2.487-.404l-.632-.001-.246-.509a7.4 7.4 0 0 0-1.608-2.218c-1.349-1.294-2.962-2.043-4.8-2.229-.387-.039-1.072-.048-1.346-.016m3.275 8.031a1.04 1.04 0 0 0-.567.459l-.108.184v4.606l.121.197c.068.11.205.253.311.325.471.316 1.102.171 1.407-.325l.121-.197V11.7l-.108-.184a1.005 1.005 0 0 0-1.177-.459m0 7.998a1.05 1.05 0 0 0-.567.461c-.091.156-.108.23-.108.484 0 .257.016.327.113.492.518.882 1.865.526 1.865-.492a.99.99 0 0 0-.535-.888 1.17 1.17 0 0 0-.768-.057"/></svg>