<svg xmlns="http://www.w3.org/2000/svg" width="24" height="24" fill="none" stroke="currentColor" stroke-linecap="round" stroke-linejoin="round" stroke-width="2"><path fill="#000" fill-rule="evenodd" stroke="none" d="M8.207 2.043c-2.346.226-4.592 1.582-5.876 3.546A8.6 8.6 0 0 0 1.094 8.72c-.098.531-.098 1.935-.001 2.5.262 1.519.836 2.787 1.755 3.88.557.664.739.788 1.152.788.405 0 .724-.207.905-.588.201-.426.098-.783-.383-1.32A5.98 5.98 0 0 1 3.287 8.2a6 6 0 0 1 3.155-3.616c.867-.41 1.531-.557 2.518-.558 1.022-.002 1.746.151 2.56.539a6 6 0 0 1 1.78 1.257c.651.662 1.053 1.344 1.479 2.512.087.239.261.443.477.558.156.083.23.089 1.484.114.726.014 1.401.044 1.5.067a3.6 3.6 0 0 1 2.418 1.931c.239.503.314.856.317 1.496.003.469-.011.611-.087.876-.242.841-.655 1.438-1.374 1.988-.389.297-.494.488-.494.899 0 .245.016.31.121.48.222.361.616.542 1.039.479.264-.04.727-.366 1.22-.861.779-.781 1.269-1.7 1.504-2.821.105-.498.107-1.577.003-2.06a6.7 6.7 0 0 0-.551-1.56c-.677-1.296-1.951-2.32-3.383-2.722-.46-.129-1.095-.196-1.86-.197-.699-.001-.708-.002-.735-.091a8.03 8.03 0 0 0-5.139-4.585 8.3 8.3 0 0 0-3.032-.282m3.373 10.053c-.158.076-.64.538-2.306 2.21-1.158 1.163-2.136 2.175-2.173 2.249-.229.455-.045 1.046.407 1.312.165.097.234.113.492.112.213 0 .341-.022.44-.074.077-.041.684-.615 1.349-1.277l1.209-1.204.011 2.941.011 2.941.121.197a.998.998 0 0 0 1.718 0l.121-.197.011-2.941.011-2.941 1.209 1.204c.665.662 1.272 1.236 1.349 1.277.099.052.227.074.44.074.258.001.327-.015.492-.112.222-.13.409-.369.473-.603a1.2 1.2 0 0 0-.066-.709c-.037-.074-1.015-1.086-2.173-2.249-2.293-2.302-2.297-2.305-2.726-2.305a.95.95 0 0 0-.42.095"/></svg>