<svg xmlns="http://www.w3.org/2000/svg" width="24" height="24" fill="none" stroke="currentColor" stroke-linecap="round" stroke-linejoin="round" stroke-width="2"><path fill="#000" fill-rule="evenodd" stroke="none" d="M10.824 2.044c-2.547.268-4.687 2.001-5.501 4.453l-.159.478-.292.178a8.1 8.1 0 0 0-3.046 3.336 7.94 7.94 0 0 0 .015 7.054c1.132 2.305 3.278 3.888 5.919 4.367.29.053 1.045.064 5.18.079 3.522.012 4.938.004 5.2-.029q1.872-.242 3.2-1.54c1.619-1.585 2.095-3.925 1.23-6.044-.537-1.314-1.675-2.43-3.031-2.973-.738-.295-1.4-.402-2.487-.404l-.632-.001-.2-.428c-.923-1.976-2.722-3.54-4.82-4.189a7.7 7.7 0 0 0-2.08-.364c-.453-.025-1.367.027-1.576.089-.12.036.218-.416.571-.766.413-.406.71-.622 1.185-.86a4.6 4.6 0 0 1 2.942-.38 4.6 4.6 0 0 1 2.723 1.794c.259.366.411.665.596 1.176.173.475.227.566.418.712.269.205.341.214 1.761.219 1.483.004 1.658.028 2.077.28.302.182.626.535.78.848.114.233.148.393.224 1.036.03.247.215.529.444.674a1 1 0 0 0 1.391-.331c.1-.163.121-.244.135-.52.03-.595-.207-1.448-.57-2.056-.355-.595-.981-1.171-1.617-1.489-.711-.355-1.193-.442-2.447-.443h-.862l-.087-.21c-.245-.59-.824-1.4-1.389-1.944a6.48 6.48 0 0 0-5.195-1.802m-1.176 6c1.899.203 3.632 1.341 4.56 2.993.19.34.318.627.532 1.198.126.335.28.531.516.657.156.083.229.088 1.504.112 1.182.022 1.376.034 1.645.107a3.58 3.58 0 0 1 2.273 1.935c.228.486.3.835.3 1.454s-.072.968-.3 1.454c-.446.953-1.219 1.615-2.258 1.938-.28.086-.286.087-5 .1-3.343.009-4.831 0-5.1-.033a6.2 6.2 0 0 1-2.68-.994c-.499-.33-1.283-1.123-1.617-1.634-1.027-1.57-1.284-3.44-.716-5.191.298-.916.766-1.665 1.488-2.38.564-.558.936-.826 1.585-1.14 1.066-.515 2.113-.7 3.268-.576"/></svg>