<svg xmlns="http://www.w3.org/2000/svg" width="24" height="24" fill="none" stroke="currentColor" stroke-linecap="round" stroke-linejoin="round" stroke-width="2"><path fill="#000" fill-rule="evenodd" stroke="none" d="M8.38 2.04c-1.198.086-2.276.421-3.371 1.048-1.682.963-2.91 2.451-3.56 4.313-.629 1.803-.589 3.735.117 5.552a7.5 7.5 0 0 0 1.643 2.552c.465.483.634.583.988.583a.983.983 0 0 0 .991-.89c.04-.343-.04-.521-.42-.931-.52-.561-.823-.993-1.128-1.607-.886-1.787-.841-3.796.127-5.564.705-1.289 1.944-2.309 3.393-2.792.591-.198 1.101-.274 1.84-.275 1.623-.004 3.005.557 4.181 1.697.761.738 1.142 1.359 1.598 2.608.087.24.261.443.477.558.156.083.229.089 1.464.112 1.163.021 1.334.033 1.62.111a3.54 3.54 0 0 1 2.543 2.783c.077.446.029 1.212-.102 1.622a3.5 3.5 0 0 1-1.18 1.725c-.425.347-.557.536-.589.847a1.004 1.004 0 0 0 1.277 1.066c.312-.086 1.147-.816 1.554-1.357.779-1.037 1.209-2.531 1.081-3.755-.204-1.949-1.272-3.543-2.961-4.421-.864-.449-1.456-.583-2.71-.614l-.848-.021-.048-.125a11 11 0 0 0-.563-1.095c-.734-1.2-1.958-2.296-3.294-2.951-.904-.444-1.798-.685-2.872-.776-.55-.046-.635-.046-1.248-.003M10 12.384c-.325.14-.599.551-.6.899 0 .1.029.267.064.371l.064.188-.278.269a6 6 0 0 0-.398.421l-.12.152-.188-.047a1.02 1.02 0 0 0-1.168.583c-.084.199-.087.554-.007.743.084.198.294.427.477.52l.154.079v.389c.001.214.011.453.024.531.023.136.016.146-.141.217a.99.99 0 0 0-.328 1.553 1.01 1.01 0 0 0 1.099.284l.188-.064.269.278c.148.153.338.332.422.399.15.119.152.125.11.276a1.02 1.02 0 0 0 .577 1.199c.198.083.551.083.749-.001.202-.086.42-.284.514-.469l.079-.154h.389a5 5 0 0 0 .531-.024c.136-.023.146-.016.217.141.04.091.149.234.241.319.497.458 1.273.292 1.566-.336.109-.234.118-.444.032-.735l-.063-.21.276-.267c.152-.148.331-.337.398-.421.119-.15.125-.152.276-.11a1.02 1.02 0 0 0 1.199-.577c.084-.199.087-.554.007-.743a1.2 1.2 0 0 0-.477-.52L16 17.438v-.389a5 5 0 0 0-.024-.531c-.023-.135-.016-.146.136-.214a.99.99 0 0 0 .578-.905c-.004-.683-.634-1.137-1.306-.942l-.23.067-.267-.275a5 5 0 0 0-.421-.394c-.152-.117-.154-.121-.11-.277a.99.99 0 0 0-.291-1.008.92.92 0 0 0-.67-.25c-.382 0-.683.183-.892.541l-.083.144-.526.013-.526.013-.071-.157a1.2 1.2 0 0 0-.52-.498c-.176-.073-.6-.069-.777.008m2.408 2.66c.326.068.688.258.944.495.233.216.26.257.483.745.306.665.155 1.497-.374 2.068a1.6 1.6 0 0 1-.348.296c-.741.358-.653.332-1.131.331-.409-.001-.465-.011-.749-.133a1.9 1.9 0 0 1-.561-.364c-.256-.234-.281-.272-.512-.775-.222-.482-.205-1.048.045-1.577.135-.284.484-.682.682-.779.361-.176.619-.287.73-.313.19-.046.557-.043.791.006"/></svg>