<svg xmlns="http://www.w3.org/2000/svg" width="24" height="24" fill="none" stroke="currentColor" stroke-linecap="round" stroke-linejoin="round" stroke-width="2"><path fill="#000" fill-rule="evenodd" stroke="none" d="M9.34 2.043c-1.839.25-3.19 1.706-3.325 3.581l-.026.365-.365.026c-1.727.124-3.072 1.246-3.508 2.927-.13.506-.132 1.292-.002 1.775.105.393.28.82.448 1.093l.118.192-.197.409c-.535 1.11-.526 2.321.025 3.409.187.369.329.571.616.877.447.479.863.747 1.594 1.029.092.036-.002.137-1.726 1.866-1.003 1.005-1.854 1.889-1.891 1.963-.229.455-.045 1.046.407 1.312.165.097.234.113.492.112.212 0 .341-.022.44-.074.077-.04.945-.876 1.929-1.857l1.788-1.784.062.147c.033.08.061.158.061.173s.065.155.144.311c.675 1.33 2.113 2.171 3.576 2.092a4 4 0 0 0 1.809-.549l.191-.117.191.117c.737.454 1.774.658 2.573.507 1.846-.349 3.089-1.728 3.221-3.575l.027-.37h.224c.915-.002 2.007-.475 2.647-1.147.524-.55.812-1.067 1.001-1.795.13-.506.132-1.292.002-1.775a4.5 4.5 0 0 0-.448-1.092L21.321 12l.117-.191c.168-.272.343-.7.448-1.092.13-.483.128-1.269-.002-1.775-.436-1.681-1.781-2.803-3.508-2.927l-.365-.026-.026-.365c-.129-1.795-1.372-3.21-3.118-3.55-.377-.073-1.153-.062-1.507.021a4.4 4.4 0 0 0-1.127.446l-.24.141-.226-.137a3.9 3.9 0 0 0-2.427-.502m.78 1.998c.379.06.715.241 1.076.577.335.314.507.397.809.394.306-.004.468-.084.799-.394.372-.347.7-.519 1.109-.581a1.74 1.74 0 0 1 1.558.54c.557.598.672 1.361.312 2.083-.127.255-.301.442-1.961 2.1L12 10.58l-1.822-1.82c-1.66-1.658-1.834-1.845-1.961-2.1-.359-.721-.245-1.486.31-2.081.253-.27.564-.45.911-.524.284-.062.366-.063.682-.014M6.165 8.04c.118.022.341.102.495.178.256.127.436.294 2.1 1.96L10.58 12l-1.74 1.742c-.957.958-1.819 1.794-1.916 1.859a1.776 1.776 0 0 1-2.327-.27c-.418-.447-.574-.937-.484-1.517.063-.402.202-.679.514-1.018.299-.327.383-.494.386-.776.003-.316-.077-.485-.395-.824a2.8 2.8 0 0 1-.414-.564c-.353-.727-.205-1.564.374-2.103.465-.434.999-.598 1.587-.489m12.338.004c.945.174 1.613 1.111 1.461 2.051-.065.404-.24.734-.582 1.101-.318.339-.398.508-.395.824.004.286.089.453.407.796.327.353.504.688.57 1.079.211 1.254-.995 2.363-2.222 2.044-.505-.132-.571-.188-2.503-2.12L13.42 12l1.82-1.822c1.66-1.662 1.845-1.834 2.1-1.96.417-.208.729-.254 1.163-.174m-4.639 7.246c1.692 1.699 1.851 1.871 1.952 2.102.318.727.194 1.453-.345 2.031a1.75 1.75 0 0 1-1.582.541c-.408-.072-.706-.23-1.064-.562-.364-.338-.496-.402-.825-.402s-.461.064-.825.402c-.358.332-.656.49-1.064.562a1.75 1.75 0 0 1-1.582-.541c-.539-.578-.663-1.304-.345-2.031.101-.231.26-.403 1.952-2.102A115 115 0 0 1 12 13.44c.012 0 .851.833 1.864 1.85"/></svg>