<svg xmlns="http://www.w3.org/2000/svg" width="24" height="24" fill="none" stroke="currentColor" stroke-linecap="round" stroke-linejoin="round" stroke-width="2"><path fill="#000" fill-rule="evenodd" stroke="none" d="M11.451 1.043C9.09 1.224 6.943 2.769 6.035 4.94c-.385.922-.528 1.635-.529 2.643l-.001.723-.263.093c-1.485.525-2.837 1.748-3.561 3.221a6.44 6.44 0 0 0 .333 6.349c1.217 1.937 3.441 3.112 5.717 3.02 1.048-.043 2.152-.355 2.993-.848.132-.078.247-.141.256-.141.008 0 .021.519.028 1.153l.012 1.154.121.196a.998.998 0 0 0 1.718 0l.121-.196.012-1.148.012-1.148.499.253c.95.481 1.768.691 2.817.724.595.018.773.009 1.188-.062.873-.149 1.846-.521 2.555-.975 1.176-.754 2.164-2.046 2.615-3.42a5.5 5.5 0 0 0 .311-1.741q.087-2.25-1.183-4.05c-.305-.431-1.105-1.228-1.546-1.541-.409-.29-1.127-.668-1.51-.796l-.258-.086.001-.708c.002-1.019-.143-1.746-.528-2.669-.8-1.912-2.605-3.382-4.665-3.796-.283-.057-1.219-.15-1.38-.137zm1.489 2.076c1.407.28 2.657 1.316 3.203 2.655.244.599.305.898.326 1.606.017.585.01.68-.085 1.1a4 4 0 0 0-.103.62c.002.299.253.7.529.844.06.032.285.094.5.137.535.11.85.217 1.253.427a4.58 4.58 0 0 1 2.017 2.103c.552 1.168.555 2.609.008 3.764-.573 1.209-1.495 2.019-2.753 2.419a3.8 3.8 0 0 1-1.32.206 4.44 4.44 0 0 1-3.571-1.76c-.222-.294-.304-.371-.505-.478a.93.93 0 0 0-.692-.067c-.273.084-.419.195-.647.496-.908 1.197-2.353 1.877-3.817 1.797-.476-.026-.798-.093-1.311-.272-1.1-.384-1.964-1.165-2.514-2.271-.828-1.667-.486-3.758.833-5.091.673-.679 1.414-1.077 2.372-1.275.435-.089.644-.185.793-.362.28-.332.308-.539.164-1.214-.1-.469-.108-.565-.09-1.138.015-.459.042-.708.104-.938.259-.962.772-1.783 1.476-2.359 1.104-.903 2.42-1.229 3.83-.949"/></svg>