<svg xmlns="http://www.w3.org/2000/svg" width="24" height="24" fill="none" stroke="currentColor" stroke-linecap="round" stroke-linejoin="round" stroke-width="2"><path fill="#000" fill-rule="evenodd" stroke="none" d="M5.695 1.057a1.04 1.04 0 0 0-.567.459L5.02 1.7v2.606l.121.197a.998.998 0 0 0 1.718 0l.121-.197V1.7l-.108-.184a1.005 1.005 0 0 0-1.177-.459m4 0a1.04 1.04 0 0 0-.567.459L9.02 1.7v2.606l.121.197a.998.998 0 0 0 1.718 0l.121-.197V1.7l-.108-.184a1.005 1.005 0 0 0-1.177-.459m4 0a1.04 1.04 0 0 0-.567.459l-.108.184v2.606l.121.197a.998.998 0 0 0 1.718 0l.121-.197V1.7l-.108-.184a1.005 1.005 0 0 0-1.177-.459M3.477 7.073c-.689.18-1.293.813-1.437 1.506-.029.14-.038 1.624-.029 4.663.014 4.895 0 4.603.257 5.358.576 1.689 1.985 2.925 3.772 3.307.315.068.611.073 3.96.073s3.645-.005 3.96-.073c1.528-.327 2.788-1.277 3.473-2.619a5 5 0 0 0 .555-1.952l.023-.325.325-.023a5.03 5.03 0 0 0 4.097-2.7c.405-.794.547-1.389.547-2.288s-.142-1.494-.547-2.287a5.02 5.02 0 0 0-3.193-2.551c-.615-.157-.863-.162-8.288-.16-6.684.002-7.231.008-7.475.071m12.514 6.197-.011 4.27-.101.321a3.09 3.09 0 0 1-2.039 2.025l-.3.094H6.46l-.3-.094a3.09 3.09 0 0 1-2.039-2.025l-.101-.321-.011-4.27L3.998 9h12.004zm2.885-4.136c.925.268 1.71 1.056 1.999 2.005.083.273.098.403.098.861s-.015.588-.098.861c-.353 1.157-1.393 2.016-2.573 2.123l-.302.027V8.99l.286.028c.157.015.423.068.59.116"/></svg>