<svg xmlns="http://www.w3.org/2000/svg" width="24" height="24" fill="none" stroke="currentColor" stroke-linecap="round" stroke-linejoin="round" stroke-width="2"><path fill="#000" fill-rule="evenodd" stroke="none" d="M11.695 1.057a1.04 1.04 0 0 0-.567.459c-.104.177-.108.209-.121.866l-.013.682-.374.05a8.8 8.8 0 0 0-1.722.444c-.241.09-.453.168-.471.173-.019.005-.16-.207-.314-.471-.314-.538-.455-.705-.694-.82-.2-.097-.585-.107-.793-.02-.448.187-.713.708-.591 1.161.023.088.169.38.324.649s.28.502.279.519c0 .017-.129.13-.286.251-.36.277-1.109 1.027-1.372 1.373-.11.144-.215.263-.233.265-.018.001-.266-.131-.551-.294-.54-.309-.773-.381-1.044-.323-.525.114-.9.652-.795 1.142.024.111.069.251.1.312.064.123.324.371.469.447.052.027.258.145.459.263l.364.213-.132.331a9.3 9.3 0 0 0-.478 1.731c-.039.242-.076.462-.083.49-.01.037-.162.05-.588.05-.822 0-1.099.107-1.34.516-.091.156-.108.23-.108.484 0 .256.016.328.111.489.125.213.318.375.539.454.099.035.356.054.761.055.454.002.615.015.625.052.007.028.044.248.083.49.079.506.285 1.251.478 1.732l.133.332-.085.053a38 38 0 0 1-.485.283c-.598.344-.737.496-.823.897-.112.524.314 1.083.876 1.15.27.031.447-.03.997-.346.269-.155.502-.28.519-.279s.121.121.231.265c.258.337 1.056 1.135 1.393 1.393.144.11.263.214.265.231.001.017-.124.25-.279.519-.316.55-.377.727-.346.997.06.504.477.877.987.882.415.004.688-.184.969-.669.089-.154.223-.382.297-.506l.135-.226.269.113c.552.231 1.655.517 2.19.568l.12.011.02.683c.02.675.021.686.141.88a.998.998 0 0 0 1.718 0c.12-.194.121-.205.141-.88l.02-.683.12-.011c.535-.051 1.638-.337 2.19-.568l.27-.113.225.386c.352.604.362.619.502.754.575.555 1.564.184 1.66-.621.031-.27-.03-.447-.346-.997a6 6 0 0 1-.279-.519c.002-.017.121-.121.265-.231.337-.258 1.135-1.056 1.393-1.393.11-.144.214-.263.231-.265.017-.001.25.124.519.279s.561.301.649.324c.454.123.978-.147 1.172-.602.087-.205.078-.547-.019-.763-.109-.24-.274-.385-.752-.66a38 38 0 0 1-.485-.283l-.085-.053.133-.332a9.3 9.3 0 0 0 .478-1.732c.039-.242.076-.462.083-.49.01-.037.171-.05.625-.052.405-.001.662-.02.761-.055.221-.079.414-.241.539-.454.095-.161.111-.233.111-.489 0-.254-.017-.328-.108-.484-.241-.409-.518-.516-1.34-.516-.426 0-.578-.013-.588-.05a18 18 0 0 1-.083-.49 9.3 9.3 0 0 0-.478-1.731l-.132-.331.364-.213c.201-.118.407-.236.459-.263.144-.075.405-.324.468-.445.37-.717-.21-1.558-1.007-1.458-.158.02-.336.099-.729.324-.286.163-.535.296-.553.295s-.123-.12-.233-.264c-.265-.348-1.016-1.099-1.372-1.374-.157-.121-.286-.234-.286-.251-.001-.017.124-.25.279-.519s.301-.561.324-.649c.122-.453-.143-.974-.591-1.161-.208-.087-.593-.077-.793.02-.239.115-.38.281-.695.82-.155.264-.296.476-.314.471a27 27 0 0 1-.47-.173 8.8 8.8 0 0 0-1.722-.444l-.374-.05-.013-.682c-.013-.657-.017-.689-.121-.866a1.005 1.005 0 0 0-1.177-.459m1.407 4.041c2.479.375 4.613 2.139 5.471 4.522.146.405.278.9.323 1.21l.025.17h-4.068l-.165-.33a3.08 3.08 0 0 0-1.827-1.545c-.268-.081-.413-.098-.875-.103l-.553-.006-1.014-1.757-1.014-1.757.247-.091c.512-.189 1.125-.315 1.888-.388.273-.026 1.186.018 1.562.075M8.715 8.315l1.001 1.734-.154.206a2.8 2.8 0 0 0-.448.906c-.079.252-.093.385-.093.839s.014.587.093.839c.116.371.249.64.448.906l.154.206-1.001 1.734a99 99 0 0 1-1.033 1.768c-.017.018-.165-.085-.329-.228-1.215-1.064-2.042-2.606-2.277-4.245-.066-.463-.066-1.542.001-1.98.215-1.412.771-2.593 1.739-3.692.306-.348.825-.803.866-.761.018.018.482.814 1.033 1.768m3.595 2.746c.378.112.69.537.69.94 0 .33-.216.695-.516.871-.156.091-.23.108-.484.108-.264 0-.324-.015-.494-.12-.631-.39-.666-1.278-.067-1.675.282-.186.539-.223.871-.124m6.586 2.109c-.078.535-.351 1.378-.622 1.92-.922 1.843-2.593 3.198-4.549 3.687-.633.159-.989.2-1.725.2-.899 0-1.648-.123-2.348-.387l-.247-.092 1.013-1.755 1.013-1.756.574-.007c.474-.006.624-.023.855-.098a3.12 3.12 0 0 0 1.828-1.552l.165-.33h4.068z"/></svg>