<svg xmlns="http://www.w3.org/2000/svg" width="24" height="24" fill="none" stroke="currentColor" stroke-linecap="round" stroke-linejoin="round" stroke-width="2"><path fill="#000" fill-rule="evenodd" stroke="none" d="M7.54 1.023c-.825.079-1.29.177-1.92.404C2.247 2.641.338 6.242 1.221 9.724c.69 2.721 2.93 4.745 5.759 5.202.412.066 1.627.066 2.04 0 3.089-.498 5.408-2.817 5.906-5.906.028-.176.051-.635.051-1.02 0-.944-.101-1.538-.404-2.38-.858-2.383-2.992-4.147-5.471-4.522-.376-.057-1.289-.101-1.562-.075m1.012 2.02a5.01 5.01 0 0 1 4.128 3.205c.412 1.072.405 2.472-.017 3.545A5.08 5.08 0 0 1 9.6 12.732c-.556.19-.93.248-1.6.248s-1.044-.058-1.6-.248A5.04 5.04 0 0 1 3.161 9.24c-.241-.933-.178-2.115.159-2.992a5 5 0 0 1 5.232-3.205M6.695 5.057a1.04 1.04 0 0 0-.567.459c-.092.156-.108.23-.108.487 0 .268.014.326.121.5.147.238.436.443.678.479l.178.027.011 1.649.012 1.648.121.197a.998.998 0 0 0 1.718 0l.121-.197V5.7l-.108-.184a1.02 1.02 0 0 0-.582-.461c-.24-.072-1.362-.071-1.595.002m11.174 4.345a.9.9 0 0 0-.517.31c-.283.313-.336.731-.142 1.119.117.234.301.381.669.534 1.197.498 2.075 1.337 2.644 2.53.655 1.372.615 3.025-.107 4.425-.446.864-1.271 1.683-2.136 2.119-1.399.705-3.02.736-4.384.085-1.226-.586-2.062-1.49-2.593-2.803-.192-.475-.5-.699-.963-.699-.329 0-.534.09-.739.323-.376.428-.341.82.159 1.815 1.352 2.69 4.381 4.233 7.34 3.741 2.782-.463 5.001-2.5 5.676-5.213.169-.677.201-.957.199-1.728-.001-.599-.019-.828-.091-1.2-.471-2.413-2.006-4.303-4.264-5.252-.287-.12-.545-.156-.751-.106m-1.429 3.513c-.601.197-.885.829-.624 1.39.053.113.117.219.144.235.032.02-.337.417-1.074 1.155-1.205 1.209-1.284 1.312-1.285 1.685-.001.329.068.5.293.726.226.225.395.293.728.294.384 0 .474-.072 2.123-1.729 1.702-1.709 1.684-1.686 1.646-2.163a1.2 1.2 0 0 0-.084-.37c-.102-.191-.992-1.075-1.162-1.154-.175-.082-.554-.119-.705-.069"/></svg>