<svg xmlns="http://www.w3.org/2000/svg" width="24" height="24" fill="none" stroke="currentColor" stroke-linecap="round" stroke-linejoin="round" stroke-width="2"><path fill="#000" fill-rule="evenodd" stroke="none" d="M4.499 2.043C3.38 2.232 2.461 3.048 2.114 4.16l-.094.3v15.08l.094.3a3.09 3.09 0 0 0 2.046 2.046l.3.094h15.08l.3-.094a3.09 3.09 0 0 0 2.046-2.046l.094-.3V4.46l-.094-.3a3.09 3.09 0 0 0-2.025-2.039l-.321-.101-7.42-.006c-4.081-.003-7.511.01-7.621.029m1.981 9.96v8.002l-.89-.012c-.884-.013-.891-.014-1.074-.121a1.2 1.2 0 0 1-.291-.249c-.239-.314-.225.172-.225-7.601 0-8.017-.025-7.391.304-7.719.267-.267.402-.297 1.366-.3L6.48 4zM11 12v8H8.52V4H11zm4.48 0v8H13V4h2.48zm3.83-7.939c.279.083.546.35.629.629.054.18.061 1.065.061 7.311 0 5.906-.009 7.137-.055 7.289a1.02 1.02 0 0 1-.461.582c-.183.107-.19.108-1.074.121l-.89.012V4h.793c.593 0 .844.015.997.061"/></svg>