<svg xmlns="http://www.w3.org/2000/svg" width="24" height="24" fill="none" stroke="currentColor" stroke-linecap="round" stroke-linejoin="round" stroke-width="2"><path fill="#000" fill-rule="evenodd" stroke="none" d="M3.499 1.042A3.05 3.05 0 0 0 1.114 3.16l-.094.3v5.08l.094.3a3.09 3.09 0 0 0 2.046 2.046l.3.094h5.08l.3-.094a3.09 3.09 0 0 0 2.046-2.046l.094-.3V3.46l-.094-.3a3.08 3.08 0 0 0-2.025-2.038l-.321-.1-2.42-.007c-1.331-.004-2.511.008-2.621.027m10.196.012a.997.997 0 0 0-.497 1.537c.171.236.41.362.774.408.392.05.544.115.745.322.283.292.283.295.283 2.68 0 2.286-.004 2.332-.221 2.617-.166.217-.399.336-.745.38a2.6 2.6 0 0 0-.409.08 1.1 1.1 0 0 0-.497.438c-.091.156-.108.23-.108.484 0 .257.016.327.113.492.13.222.369.409.603.473.224.061.783.017 1.127-.088a3.08 3.08 0 0 0 2.023-2.037l.094-.3V3.46l-.094-.3c-.306-.982-1.078-1.756-2.023-2.03-.4-.115-.941-.151-1.168-.076m6 0a.997.997 0 0 0-.497 1.537c.171.236.41.362.774.408.392.05.544.115.745.322.283.292.283.295.283 2.68 0 2.286-.004 2.332-.221 2.617-.166.217-.399.336-.745.38a2.6 2.6 0 0 0-.409.08 1.1 1.1 0 0 0-.497.438c-.091.156-.108.23-.108.484 0 .257.016.327.113.492.13.222.369.409.603.473.224.061.783.017 1.127-.088a3.08 3.08 0 0 0 2.023-2.037l.094-.3V3.46l-.094-.3c-.306-.982-1.078-1.756-2.023-2.03-.4-.115-.941-.151-1.168-.076M8.31 3.061c.279.083.546.35.629.629.086.288.091 4.317.006 4.6a1.02 1.02 0 0 1-.461.582L8.3 8.98H3.7l-.184-.108a1.05 1.05 0 0 1-.458-.556c-.088-.251-.086-4.328.003-4.626.079-.269.351-.547.612-.627.285-.088 4.342-.09 4.637-.002m-6.615 9.996a1.04 1.04 0 0 0-.567.459c-.106.181-.108.196-.121 1.004-.011.713-.001.875.073 1.239.277 1.36 1.164 2.433 2.432 2.945.656.264.935.296 2.593.296h1.472l-.704.71c-.387.391-.734.771-.772.845-.229.453-.045 1.046.407 1.312.165.097.234.113.492.112.212 0 .341-.022.44-.074.077-.04.866-.796 1.754-1.679 1.763-1.754 1.805-1.806 1.805-2.226 0-.422-.039-.47-1.824-2.244-1.459-1.449-1.656-1.632-1.832-1.69-.48-.16-.961.018-1.215.45-.092.156-.108.229-.107.484 0 .213.022.34.075.44.04.077.39.46.777.85l.704.71h-1.42c-1.526 0-1.673-.015-2.069-.216-.416-.211-.853-.721-.994-1.161-.048-.148-.072-.434-.09-1.063-.023-.842-.026-.864-.132-1.044a1.005 1.005 0 0 0-1.177-.459m13.804-.015a3.05 3.05 0 0 0-2.385 2.118l-.094.3v5.08l.094.3a3.09 3.09 0 0 0 2.046 2.046l.3.094h5.08l.3-.094a3.09 3.09 0 0 0 2.046-2.046l.094-.3v-5.08l-.094-.3a3.08 3.08 0 0 0-2.025-2.038l-.321-.1-2.42-.007c-1.331-.004-2.511.008-2.621.027m4.811 2.019c.279.083.546.35.629.629.086.288.091 4.317.006 4.6a1.02 1.02 0 0 1-.461.582l-.184.108h-4.6l-.184-.108a1.05 1.05 0 0 1-.458-.556c-.088-.251-.086-4.328.003-4.626.075-.252.343-.537.589-.623.256-.091 4.358-.096 4.66-.006"/></svg>