<svg xmlns="http://www.w3.org/2000/svg" width="24" height="24" fill="none" stroke="currentColor" stroke-linecap="round" stroke-linejoin="round" stroke-width="2"><path fill="#000" fill-rule="evenodd" stroke="none" d="M11.58 1.044a2.6 2.6 0 0 0-.46.164c-.232.109-.413.275-1.708 1.567-1.377 1.374-1.455 1.46-1.592 1.75a2.04 2.04 0 0 0-.016 1.685c.124.274.209.368 1.543 1.711.946.952 1.487 1.467 1.639 1.559a2.03 2.03 0 0 0 2.028 0c.152-.092.693-.607 1.639-1.559 1.33-1.339 1.419-1.438 1.541-1.709a2.06 2.06 0 0 0 .001-1.662c-.123-.274-.208-.368-1.513-1.682-.76-.765-1.472-1.454-1.582-1.53a2.3 2.3 0 0 0-.436-.22 2.6 2.6 0 0 0-1.084-.074m1.61 3.166 1.17 1.171-1.18 1.179L12 7.739 10.82 6.56 9.64 5.381l1.17-1.171A50 50 0 0 1 12 3.04c.011 0 .547.527 1.19 1.17M4.84 7.697c-.456.127-.565.217-2.012 1.657-.765.763-1.446 1.47-1.511 1.572-.221.343-.293.608-.293 1.074s.072.731.292 1.074c.066.102.755.817 1.532 1.588 1.33 1.321 1.429 1.41 1.7 1.532a2.07 2.07 0 0 0 1.662.002c.274-.124.368-.209 1.711-1.543.952-.946 1.467-1.487 1.559-1.639a2.03 2.03 0 0 0 .001-2.027c-.091-.149-.611-.697-1.539-1.622C6.471 7.9 6.375 7.822 5.9 7.694c-.247-.066-.818-.064-1.06.003m13.27-.014c-.082.02-.262.092-.4.161-.212.106-.464.338-1.652 1.521-.928.925-1.448 1.473-1.539 1.622a2.03 2.03 0 0 0 .001 2.027c.092.152.607.693 1.559 1.639 1.343 1.334 1.437 1.419 1.711 1.543a2.07 2.07 0 0 0 1.662-.002c.271-.122.37-.211 1.7-1.532.777-.771 1.466-1.486 1.532-1.588.22-.343.292-.608.292-1.074s-.072-.731-.293-1.074c-.065-.102-.746-.809-1.511-1.572-1.461-1.453-1.558-1.533-2.032-1.66-.222-.059-.798-.065-1.03-.011M6.56 13.18l-1.18 1.18-1.18-1.18L3.02 12l1.18-1.18 1.18-1.18 1.18 1.18L7.74 12zm13.24 0-1.18 1.18-1.18-1.18L16.26 12l1.18-1.18 1.18-1.18 1.18 1.18L20.98 12zm-8.22 1.104a2.6 2.6 0 0 0-.46.164c-.231.109-.414.275-1.652 1.507-.766.762-1.453 1.476-1.527 1.587-.209.313-.304.645-.305 1.059 0 .407.043.599.212.938.1.2.356.477 1.506 1.633.762.765 1.47 1.446 1.572 1.511.343.221.608.293 1.074.293s.731-.072 1.074-.292c.102-.066.817-.755 1.588-1.532 1.321-1.33 1.41-1.429 1.532-1.7a2.06 2.06 0 0 0 .001-1.662c-.123-.273-.21-.37-1.513-1.685-1.411-1.425-1.676-1.652-2.059-1.767-.261-.079-.787-.106-1.043-.054m1.61 3.166 1.17 1.171-1.18 1.179L12 20.979 10.82 19.8l-1.18-1.179 1.17-1.171A50 50 0 0 1 12 16.28c.011 0 .547.527 1.19 1.17"/></svg>