<svg xmlns="http://www.w3.org/2000/svg" width="24" height="24" fill="none" stroke="currentColor" stroke-linecap="round" stroke-linejoin="round" stroke-width="2"><path fill="#000" fill-rule="evenodd" stroke="none" d="m11.28 1.023-.56.06c-1.888.2-3.729.94-5.36 2.152-.609.453-1.676 1.52-2.134 2.132C.728 8.714.301 13.032 2.097 16.78c.546 1.138 1.179 2.021 2.141 2.982.961.962 1.844 1.595 2.982 2.141 3.747 1.796 8.068 1.367 11.417-1.133.609-.454 1.679-1.524 2.133-2.133 2.974-3.985 2.974-9.289 0-13.274-.454-.608-1.523-1.677-2.13-2.128-1.595-1.186-3.275-1.875-5.217-2.139C13 1.038 11.574.99 11.28 1.023m2.04 2.078c2.563.387 4.804 1.83 6.24 4.019.303.463.743 1.359.932 1.9.346.993.485 1.845.485 2.98 0 1.493-.257 2.621-.897 3.94-.705 1.454-1.769 2.667-3.153 3.592-.789.528-2.051 1.056-3.019 1.265a9.05 9.05 0 0 1-7.538-1.778c-1.513-1.212-2.648-2.99-3.103-4.859-.186-.763-.244-1.272-.244-2.16 0-1.493.257-2.621.897-3.94a8.98 8.98 0 0 1 5.24-4.594c.705-.233 1.272-.348 2.18-.442.322-.033 1.571.015 1.98.077m-.06 4.592c-1.54.515-2.902.982-3.027 1.038-.574.257-1.157.808-1.427 1.348-.213.424-2.046 5.932-2.046 6.146 0 .55.465 1.015 1.015 1.015.183 0 5.538-1.765 6.01-1.98a3.06 3.06 0 0 0 1.474-1.472c.216-.474 1.981-5.83 1.981-6.013 0-.536-.4-.957-.952-1.001-.213-.018-.408.042-3.028.919m1.38 1.677c0 .082-1.219 3.631-1.282 3.733a1 1 0 0 1-.236.241c-.13.086-3.718 1.314-3.749 1.283s1.197-3.619 1.283-3.749a1 1 0 0 1 .241-.236c.079-.049.939-.356 1.913-.682 1.711-.574 1.83-.612 1.83-.59"/></svg>