<svg xmlns="http://www.w3.org/2000/svg" width="24" height="24" fill="none" stroke="currentColor" stroke-linecap="round" stroke-linejoin="round" stroke-width="2"><path fill="#000" fill-rule="evenodd" stroke="none" d="M9.695 3.057a1.04 1.04 0 0 0-.567.459c-.091.156-.108.23-.108.484 0 .256.016.328.111.489.125.213.318.375.539.454.098.035.353.054.74.055L11 5v2.069l-.239.025c-1.096.114-2.624.679-3.641 1.346a8.95 8.95 0 0 0-3.181 3.58 9.4 9.4 0 0 0-.879 2.9l-.026.22-.347.17a3.08 3.08 0 0 0-1.569 1.83c-.079.246-.092.388-.108 1.163-.02.979.004 1.176.192 1.574.146.309.569.746.868.898.473.24-.182.225 9.93.225s9.457.015 9.93-.225c.266-.135.708-.575.841-.838.209-.411.239-.632.219-1.617-.015-.794-.028-.933-.108-1.18a3.08 3.08 0 0 0-1.569-1.83l-.347-.17-.026-.22c-.058-.48-.23-1.23-.402-1.751a9 9 0 0 0-4.598-5.251c-.86-.418-1.925-.743-2.701-.824L13 7.069V5l.59-.002c.387-.001.642-.02.74-.055.221-.079.414-.241.539-.454.095-.161.111-.233.111-.489 0-.254-.017-.328-.108-.484a1.02 1.02 0 0 0-.582-.461c-.257-.077-4.347-.076-4.595.002m3.407 6.041c2.479.375 4.613 2.139 5.471 4.522.146.405.278.9.323 1.21l.025.17H5.079l.025-.17c.046-.318.215-.939.352-1.299A7.01 7.01 0 0 1 9.62 9.427c.63-.227 1.095-.325 1.92-.404.273-.026 1.186.018 1.562.075m7.208 7.963a.9.9 0 0 1 .387.242c.251.251.303.448.303 1.144V19H3v-.553c0-.697.052-.893.304-1.144a.9.9 0 0 1 .369-.24c.16-.049 1.357-.058 8.31-.06 7.161-.003 8.147.004 8.327.058"/></svg>