<svg xmlns="http://www.w3.org/2000/svg" width="24" height="24" fill="none" stroke="currentColor" stroke-linecap="round" stroke-linejoin="round" stroke-width="2"><path fill="#000" fill-rule="evenodd" stroke="none" d="M11.64 1.045c-.367.061-.777.282-1.064.575-.254.258-.263.277-4.325 8.389-2.238 4.472-4.102 8.221-4.142 8.331-.095.264-.129.741-.074 1.04.149.813.871 1.59 2.005 2.16q2.032 1.02 5.56 1.368c.995.097 3.805.097 4.8 0 1.556-.153 2.648-.355 3.88-.716 1.777-.521 3.027-1.324 3.475-2.235a2.8 2.8 0 0 0 .21-.577c.06-.324.019-.796-.094-1.084-.05-.13-1.914-3.877-4.142-8.326-4.023-8.037-4.052-8.092-4.3-8.344a2.1 2.1 0 0 0-1.109-.585 1.6 1.6 0 0 0-.68.004m3.572 8.379c1.756 3.512 3.186 6.391 3.179 6.398-.007.008-.166-.031-.352-.085-.956-.278-2.319-.514-3.719-.643-1.039-.097-3.601-.097-4.64 0-1.4.129-2.763.365-3.719.643-.186.054-.345.093-.352.085C5.591 15.805 11.974 3.04 12 3.04c.011 0 1.457 2.873 3.212 6.384m-1.832 7.617c2.369.128 4.257.526 5.605 1.18.406.197.58.308.77.488.135.128.245.255.245.282 0 .072-.27.359-.465.492-.956.658-2.872 1.181-5.215 1.424-.939.097-3.701.097-4.64 0-2.306-.239-4.147-.733-5.14-1.378-.248-.16-.54-.452-.54-.538 0-.027.11-.154.245-.282.577-.549 2.164-1.124 3.875-1.404 1.622-.266 3.496-.36 5.26-.264"/></svg>