<svg xmlns="http://www.w3.org/2000/svg" width="24" height="24" fill="none" stroke="currentColor" stroke-linecap="round" stroke-linejoin="round" stroke-width="2"><path fill="#000" fill-rule="evenodd" stroke="none" d="M6.695 2.057a1.04 1.04 0 0 0-.567.459L6.02 2.7l-.012 1.15L5.995 5l-1.627.002c-1.823.003-1.952.018-2.385.279-.28.168-.629.535-.764.802C.997 6.52 1 6.467 1 10c0 3.547-.004 3.478.225 3.93.136.269.576.709.845.845.423.214.531.225 2.297.225h1.631l.011 3.153.011 3.153.121.197a.998.998 0 0 0 1.718 0l.121-.197.011-3.153L8.002 15h7.996l.011 3.153.011 3.153.121.197c.068.11.205.253.311.325.471.316 1.102.171 1.407-.325l.121-.197.011-3.153.011-3.153h1.631c1.766 0 1.874-.011 2.297-.225.266-.135.708-.575.841-.838.232-.458.229-.4.228-3.923 0-3.499 0-3.503-.218-3.931-.135-.267-.484-.634-.764-.802-.433-.261-.562-.276-2.385-.279L18.005 5l-.013-1.15-.012-1.15-.109-.186a1.01 1.01 0 0 0-1.742 0l-.109.186-.012 1.15L15.995 5h-7.99l-.013-1.15L7.98 2.7l-.108-.184a1.005 1.005 0 0 0-1.177-.459M10.58 10l3 3h-3.16l-3-3-3-3h3.16zm6 0 3 3h-3.16l-3-3-3-3h3.16zM21 9.28c0 1.254-.005 2.28-.01 2.28-.006 0-1.036-1.026-2.29-2.28L16.42 7H21zM5.3 10.72 7.58 13H3v-2.28c0-1.254.005-2.28.01-2.28.006 0 1.036 1.026 2.29 2.28"/></svg>