<svg xmlns="http://www.w3.org/2000/svg" width="24" height="24" fill="none" stroke="currentColor" stroke-linecap="round" stroke-linejoin="round" stroke-width="2"><path fill="#000" fill-rule="evenodd" stroke="none" d="M13.563 1.124a4 4 0 0 0-.42.115c-.148.049-2.362 1.313-5.663 3.233-5.079 2.954-5.438 3.169-5.703 3.43-.319.314-.579.723-.685 1.078-.065.221-.072.526-.082 3.889-.013 4.021-.021 3.88.236 4.465.171.388.423.76.702 1.034.179.176.95.672 3.401 2.188 1.742 1.079 3.279 2.017 3.414 2.085.688.348 1.569.365 2.292.045.209-.092 10.354-5.997 10.669-6.209.521-.352.987-1.008 1.174-1.652l.102-.354-.001-3.525c-.001-3.288-.006-3.548-.075-3.854-.1-.441-.379-.935-.756-1.336-.282-.301-.408-.383-3.528-2.315-1.779-1.102-3.349-2.056-3.488-2.121a2.8 2.8 0 0 0-1.589-.196m.795 2.035c.199.102 5.846 3.594 5.912 3.656.038.037-.707.485-3.36 2.023l-4.49 2.604-1.739 1.01-.658.382-.145-.087c-.75-.45-6.078-3.772-6.078-3.789 0-.02 2.756-1.632 8.317-4.868 1.909-1.11 1.899-1.106 2.241-.931M21 11.527c0 2.706-.001 2.729-.086 2.905-.131.271-.287.397-.988.799l-.786.454-.14.083v-5.83l.97-.566c.533-.311.983-.567 1-.569s.03 1.224.03 2.724M6.06 12.732l2.92 1.814.01 2.947c.006 1.621-.003 2.946-.02 2.944-.016-.001-1.296-.789-2.844-1.75L3.312 16.94l-.146-.236-.146-.237-.011-2.815c-.01-2.684-.007-2.814.06-2.775.039.022 1.385.857 2.991 1.855m10.939 1.298v2.91l-.967.56c-.531.308-.981.566-.999.573S15 16.775 15 15.172v-2.914l.97-.566c.533-.311.983-.567 1-.569.016-.002.03 1.307.029 2.907M13 16.352v2.911l-.974.569c-.536.312-.986.568-1 .568S11 19.09 11 17.49v-2.911l.97-.567a26 26 0 0 1 1-.569c.017-.002.03 1.307.03 2.909"/></svg>