<svg xmlns="http://www.w3.org/2000/svg" width="24" height="24" fill="none" stroke="currentColor" stroke-linecap="round" stroke-linejoin="round" stroke-width="2"><path fill="#000" fill-rule="evenodd" stroke="none" d="m11.28 1.023-.56.06c-1.888.2-3.729.94-5.36 2.152-.609.453-1.676 1.52-2.134 2.132C.728 8.714.301 13.032 2.097 16.78c.546 1.138 1.179 2.021 2.141 2.982.961.962 1.844 1.595 2.982 2.141 3.747 1.796 8.068 1.367 11.417-1.133.609-.454 1.679-1.524 2.133-2.133 2.974-3.985 2.974-9.289 0-13.274-.454-.608-1.523-1.677-2.13-2.128-1.595-1.186-3.275-1.875-5.217-2.139C13 1.038 11.574.99 11.28 1.023m2.04 2.078c2.563.387 4.804 1.83 6.24 4.019.303.463.743 1.359.932 1.9.346.993.485 1.845.485 2.98 0 1.493-.257 2.621-.897 3.94-.705 1.454-1.769 2.667-3.153 3.592-.789.528-2.051 1.056-3.019 1.265a9.05 9.05 0 0 1-7.538-1.778c-1.513-1.212-2.648-2.99-3.103-4.859-.186-.763-.244-1.272-.244-2.16 0-1.493.257-2.621.897-3.94a8.98 8.98 0 0 1 5.24-4.594c.705-.233 1.272-.348 2.18-.442.322-.033 1.571.015 1.98.077m-1.625 1.954a1.05 1.05 0 0 0-.567.461l-.108.184-.01 6.214c-.007 4.089.003 6.265.029 6.364.06.22.251.461.469.589.184.108.213.113.692.11 2.795-.02 5.402-1.899 6.373-4.597.303-.842.404-1.436.404-2.38s-.101-1.538-.404-2.38a7.02 7.02 0 0 0-4.913-4.415c-.678-.164-1.688-.241-1.965-.15M13.6 7.268a5.06 5.06 0 0 1 3.239 3.492c.246.953.177 2.135-.176 3.033a5.1 5.1 0 0 1-2.451 2.683c-.337.165-.821.341-1.062.385l-.15.028V7.111l.15.028c.082.015.285.073.45.129"/></svg>