<svg xmlns="http://www.w3.org/2000/svg" width="24" height="24" fill="none" stroke="currentColor" stroke-linecap="round" stroke-linejoin="round" stroke-width="2"><path fill="#000" fill-rule="evenodd" stroke="none" d="M7.695 1.057a1.04 1.04 0 0 0-.567.459c-.103.176-.109.212-.121.831l-.014.646-1.266.016c-1.209.016-1.282.021-1.588.115A3.08 3.08 0 0 0 2.114 5.16l-.094.3v15.08l.094.3a3.09 3.09 0 0 0 2.046 2.046l.3.094h15.08l.3-.094a3.09 3.09 0 0 0 2.046-2.046l.094-.3V5.46l-.094-.3a3.08 3.08 0 0 0-2.025-2.036c-.306-.094-.379-.099-1.588-.115l-1.266-.016-.014-.646c-.012-.621-.017-.654-.122-.833a1.01 1.01 0 0 0-1.742 0c-.105.179-.11.212-.122.836l-.014.65H9.007l-.014-.65c-.012-.622-.018-.658-.121-.834a1.005 1.005 0 0 0-1.177-.459M19.31 5.061c.279.083.546.35.629.629.054.18.061 1.065.061 7.311 0 5.906-.009 7.137-.055 7.289a.97.97 0 0 1-.862.699l-.237.022-.025-.156c-.084-.54-.386-1.47-.64-1.974a7.2 7.2 0 0 0-2.632-2.856l-.312-.192.352-.368a5.03 5.03 0 0 0 1.318-2.505c.053-.246.073-.512.073-.96 0-.899-.142-1.494-.547-2.287a5.02 5.02 0 0 0-3.193-2.552c-.933-.241-2.115-.178-2.992.159a5.3 5.3 0 0 0-1.864 1.243c-.661.694-1.083 1.504-1.291 2.477-.101.471-.101 1.449 0 1.92.208.972.63 1.783 1.288 2.474l.329.346-.283.16c-.933.526-1.933 1.497-2.482 2.409-.404.671-.761 1.587-.894 2.295l-.069.363-.161-.025a1.04 1.04 0 0 1-.596-.359c-.239-.314-.225.172-.225-7.601 0-6.264.007-7.152.061-7.332.079-.269.351-.547.612-.627.291-.089 14.336-.092 14.637-.002m-6.449 4.068c.943.276 1.723 1.054 2.014 2.01.083.273.098.403.098.861s-.015.588-.098.861a3.07 3.07 0 0 1-2.035 2.025c-.434.135-1.246.135-1.68 0a3.07 3.07 0 0 1-2.035-2.025c-.083-.273-.098-.403-.098-.861s.015-.588.098-.861a3.04 3.04 0 0 1 2.374-2.099c.333-.06 1.001-.017 1.362.089m-.389 7.913a4.99 4.99 0 0 1 3.965 2.843c.134.286.363.966.363 1.079 0 .021-2.065.036-4.884.036H7.031l.028-.15c.046-.254.212-.713.381-1.055.749-1.516 2.227-2.564 3.88-2.751a4.6 4.6 0 0 1 1.152-.002"/></svg>