<svg xmlns="http://www.w3.org/2000/svg" width="24" height="24" fill="none" stroke="currentColor" stroke-linecap="round" stroke-linejoin="round" stroke-width="2"><path fill="#000" fill-rule="evenodd" stroke="none" d="M11.72 1.06a51 51 0 0 0-1.32.319c-.772.193-1.147.308-1.38.42-.584.283-1.024.719-1.34 1.327-.369.709-.418 1.33-.182 2.331.078.328.137.6.132.604-.006.003-.918.233-2.028.51-2.218.555-2.235.561-2.453.915a1 1 0 0 0 .35 1.376c.378.221-.205.347 8.757-1.895 8.964-2.243 8.359-2.07 8.595-2.453.393-.635-.093-1.514-.836-1.514-.097 0-4.146.983-4.539 1.102-.052.016-.09-.086-.209-.551-.203-.798-.415-1.218-.82-1.623a3.5 3.5 0 0 0-1.122-.744 3.1 3.1 0 0 0-1.605-.124m.989 2.034c.361.187.476.373.644 1.04l.118.465-.145.039c-1.21.319-3.705.918-3.727.894-.056-.063-.239-.894-.238-1.081.001-.329.217-.692.499-.842.066-.035.606-.186 1.2-.337 1.151-.291 1.381-.316 1.649-.178M1.695 11.057a1.04 1.04 0 0 0-.567.459c-.091.156-.108.23-.108.484 0 .256.016.328.111.489.125.213.318.375.539.454.098.035.352.054.739.055l.588.002.012 3.79.011 3.79.094.28c.332.991 1.07 1.722 2.046 2.026l.3.094h13.08l.3-.094c.976-.304 1.714-1.035 2.046-2.026l.094-.28.011-3.79.012-3.79.588-.002c.387-.001.641-.02.739-.055.221-.079.414-.241.539-.454.095-.161.111-.233.111-.489 0-.254-.017-.328-.108-.484a1.02 1.02 0 0 0-.582-.461c-.263-.079-20.342-.077-20.595.002M19 16.554c0 3.856.005 3.768-.221 4.064-.061.08-.194.195-.295.254l-.184.108H5.7l-.184-.108a1.2 1.2 0 0 1-.291-.249C4.992 20.317 5 20.464 5 16.575V13h14z"/></svg>