<svg xmlns="http://www.w3.org/2000/svg" width="24" height="24" fill="none" stroke="currentColor" stroke-linecap="round" stroke-linejoin="round" stroke-width="2"><path fill="#000" fill-rule="evenodd" stroke="none" d="M11.28 1.026c-1.663.153-2.773.45-4.1 1.094-1.135.551-1.987 1.165-2.942 2.119-.961.959-1.595 1.841-2.141 2.981C.301 10.968.728 15.286 3.226 18.633c.475.636 1.527 1.683 2.174 2.164 3.964 2.948 9.266 2.937 13.237-.027.609-.454 1.679-1.524 2.133-2.133a11.04 11.04 0 0 0 2.192-5.746c.069-.81.042-1.158-.105-1.394a1 1 0 0 0-.663-.464c-.198-.042-.273-.037-.63.044-1.127.256-2.169-.052-2.924-.863a2.76 2.76 0 0 1-.651-1.084 3.2 3.2 0 0 1-.073-1.663A3 3 0 0 0 18 6.984c0-.38-.298-.794-.66-.918-.253-.086-.381-.083-.806.018a3.1 3.1 0 0 1-1.824-.124c-.522-.195-1.162-.742-1.465-1.252-.38-.641-.503-1.489-.326-2.254.107-.46.092-.7-.058-.957-.253-.43-.672-.555-1.581-.471m-.48 2.11c0 .218.098.94.164 1.204.524 2.108 2.268 3.617 4.409 3.813.214.02.399.046.41.057.012.011.039.198.061.415.22 2.17 1.7 3.881 3.816 4.411a9 9 0 0 0 1.232.164c.071 0-.149 1.009-.358 1.64-.627 1.899-1.895 3.547-3.607 4.692-.789.528-2.051 1.056-3.019 1.265a9.05 9.05 0 0 1-7.538-1.778 9.05 9.05 0 0 1-2.45-3.079 8.8 8.8 0 0 1-.826-2.66c-.097-.634-.097-1.926 0-2.56.4-2.615 1.823-4.835 4.026-6.28.824-.54 2.071-1.054 3-1.235l.5-.099c.149-.031.18-.026.18.03M8.044 7.625c-.801.4-.681 1.587.186 1.84a.97.97 0 0 0 .829-.136c.804-.563.419-1.809-.559-1.809a.9.9 0 0 0-.456.105m3.651 3.432a1.04 1.04 0 0 0-.567.459c-.092.156-.108.229-.107.484.001.332.08.533.285.728.479.453 1.274.318 1.587-.268.132-.249.122-.7-.021-.944a1.005 1.005 0 0 0-1.177-.459m-5 2a1.04 1.04 0 0 0-.567.459c-.092.156-.108.229-.107.484.001.332.08.533.285.728.479.453 1.274.318 1.587-.268.132-.249.122-.7-.021-.944a1.005 1.005 0 0 0-1.177-.459m8.905 1.527a1.08 1.08 0 0 0-.505.516c-.228.483-.021 1.046.482 1.312.225.118.621.118.846 0 .503-.266.71-.829.482-1.312a1.06 1.06 0 0 0-.514-.518c-.188-.079-.608-.078-.791.002m-4.905 1.473a1.04 1.04 0 0 0-.567.459c-.092.156-.108.229-.107.484.001.332.08.533.285.728.479.453 1.274.318 1.587-.268.132-.249.122-.7-.021-.944a1.005 1.005 0 0 0-1.177-.459"/></svg>