<svg xmlns="http://www.w3.org/2000/svg" width="24" height="24" fill="none" stroke="currentColor" stroke-linecap="round" stroke-linejoin="round" stroke-width="2"><path fill="#000" fill-rule="evenodd" stroke="none" d="m11.28 1.023-.56.06c-1.888.2-3.729.94-5.36 2.152-.609.453-1.676 1.52-2.134 2.132C.728 8.714.301 13.032 2.097 16.78c.546 1.138 1.179 2.021 2.141 2.982.961.962 1.844 1.595 2.982 2.141 3.747 1.796 8.068 1.367 11.417-1.133.609-.454 1.679-1.524 2.133-2.133 2.974-3.985 2.974-9.289 0-13.274-.454-.608-1.523-1.677-2.13-2.128-1.595-1.186-3.275-1.875-5.217-2.139C13 1.038 11.574.99 11.28 1.023m2.04 2.078c2.563.387 4.804 1.83 6.24 4.019.303.463.743 1.359.932 1.9.346.993.485 1.845.485 2.98 0 1.493-.257 2.621-.897 3.94-.705 1.454-1.769 2.667-3.153 3.592-.789.528-2.051 1.056-3.019 1.265a9.05 9.05 0 0 1-7.538-1.778c-1.513-1.212-2.648-2.99-3.103-4.859-.186-.763-.244-1.272-.244-2.16 0-1.493.257-2.621.897-3.94a8.98 8.98 0 0 1 5.24-4.594c.705-.233 1.272-.348 2.18-.442.322-.033 1.571.015 1.98.077M11.4 7.044c-2.197.246-4.006 2.012-4.34 4.236-.319 2.125.811 4.265 2.751 5.209.342.166.826.331 1.23.418.47.101 1.447.101 1.919 0 .967-.207 1.817-.647 2.447-1.265.267-.263.316-.333.376-.542.127-.44-.044-.869-.445-1.12-.172-.108-.225-.12-.515-.119-.366 0-.383.008-.924.451a2.9 2.9 0 0 1-1.06.574c-.257.081-.378.094-.859.091-.488-.003-.6-.016-.867-.105-.494-.164-.814-.366-1.217-.768-.413-.414-.621-.749-.771-1.243-.082-.272-.097-.404-.097-.861s.015-.589.097-.861c.15-.494.358-.829.771-1.243.413-.413.748-.62 1.243-.771.414-.125 1.211-.142 1.621-.034.398.105.863.36 1.258.691.397.332.553.396.908.37a.99.99 0 0 0 .88-.792c.097-.465-.125-.841-.795-1.346a5.02 5.02 0 0 0-3.611-.97"/></svg>