<svg xmlns="http://www.w3.org/2000/svg" width="24" height="24" fill="none" stroke="currentColor" stroke-linecap="round" stroke-linejoin="round" stroke-width="2"><path fill="#000" fill-rule="evenodd" stroke="none" d="M3.499 1.043c-.642.109-1.104.355-1.603.853-.4.4-.6.717-.771 1.217l-.105.307v11.16l.105.307c.171.5.371.817.771 1.217.405.404.731.61 1.211.762.359.114.924.162 1.157.099.234-.064.473-.251.603-.473.097-.165.113-.235.113-.495 0-.268-.014-.326-.12-.495a.97.97 0 0 0-.68-.465c-.467-.082-.602-.122-.747-.222a1.05 1.05 0 0 1-.393-.582c-.03-.119-.039-1.776-.031-5.333.011-5.011.013-5.165.088-5.316.099-.199.288-.388.487-.487.152-.075.294-.077 5.416-.077s5.264.002 5.416.077c.353.176.524.446.585.93.048.383.182.619.451.801.471.316 1.102.17 1.407-.325.117-.19.121-.213.116-.64-.008-.783-.262-1.358-.871-1.967-.41-.41-.741-.616-1.243-.775l-.321-.101-5.42-.006c-2.981-.003-5.511.01-5.621.029m6 6c-1.12.19-2.038 1.005-2.385 2.117l-.094.3v11.08l.094.3a3.09 3.09 0 0 0 2.046 2.046l.3.094h11.08l.3-.094a3.09 3.09 0 0 0 2.046-2.046l.094-.3V9.46l-.094-.3a3.09 3.09 0 0 0-2.025-2.039l-.321-.101-5.42-.006c-2.981-.003-5.511.01-5.621.029M20.31 9.061c.279.083.546.35.629.629.053.178.061.856.061 5.311 0 4.211-.01 5.138-.055 5.289a1.02 1.02 0 0 1-.461.582l-.184.108H9.7l-.184-.108a1.05 1.05 0 0 1-.458-.556c-.089-.255-.087-10.323.003-10.626.079-.269.351-.547.612-.627.29-.089 10.337-.091 10.637-.002m-8.615 1.996a1.04 1.04 0 0 0-.567.459c-.092.156-.108.229-.107.484 0 .213.022.341.074.44.041.077.616.685 1.279 1.35L13.578 15l-1.204 1.21c-.663.665-1.236 1.271-1.273 1.345-.229.454-.045 1.046.407 1.312.165.097.234.113.492.112.213 0 .341-.022.44-.074.077-.041.685-.616 1.35-1.279L15 16.422l1.21 1.204c.665.663 1.271 1.236 1.345 1.273.454.229 1.046.045 1.312-.407.097-.165.113-.234.112-.492 0-.213-.022-.341-.074-.44-.041-.077-.616-.685-1.279-1.35L16.422 15l1.204-1.21c.663-.665 1.238-1.273 1.279-1.35.052-.099.074-.227.074-.44.001-.255-.015-.328-.107-.484a1.02 1.02 0 0 0-.582-.461c-.236-.071-.347-.069-.613.009-.205.061-.287.135-1.447 1.288L15 13.576l-1.23-1.224c-1.16-1.153-1.242-1.227-1.447-1.288-.257-.076-.404-.077-.628-.007"/></svg>