<svg xmlns="http://www.w3.org/2000/svg" width="24" height="24" fill="none" stroke="currentColor" stroke-linecap="round" stroke-linejoin="round" stroke-width="2"><path fill="#000" fill-rule="evenodd" stroke="none" d="M3.499 1.043c-.642.109-1.104.355-1.603.853-.4.4-.6.717-.771 1.217l-.105.307v11.16l.105.307c.171.5.371.817.771 1.217.405.404.731.61 1.211.762.359.114.924.162 1.157.099.234-.064.473-.251.603-.473.097-.165.113-.235.113-.495 0-.268-.014-.326-.12-.495a.97.97 0 0 0-.68-.465c-.467-.082-.602-.122-.747-.222a1.05 1.05 0 0 1-.393-.582c-.03-.119-.039-1.776-.031-5.333.011-5.011.013-5.165.088-5.316.099-.199.288-.388.487-.487.152-.075.294-.077 5.416-.077s5.264.002 5.416.077c.353.176.524.446.585.93.048.383.182.619.451.801.471.316 1.102.17 1.407-.325.117-.19.121-.213.116-.64-.008-.783-.262-1.358-.871-1.967-.41-.41-.741-.616-1.243-.775l-.321-.101-5.42-.006c-2.981-.003-5.511.01-5.621.029m6 6c-1.12.19-2.038 1.005-2.385 2.117l-.094.3v11.08l.094.3a3.09 3.09 0 0 0 2.046 2.046l.3.094h11.08l.3-.094a3.09 3.09 0 0 0 2.046-2.046l.094-.3V9.46l-.094-.3a3.09 3.09 0 0 0-2.025-2.039l-.321-.101-5.42-.006c-2.981-.003-5.511.01-5.621.029M20.31 9.061c.279.083.546.35.629.629.053.178.061.856.061 5.311 0 4.211-.01 5.138-.055 5.289a1.02 1.02 0 0 1-.461.582l-.184.108H9.7l-.184-.108a1.05 1.05 0 0 1-.458-.556c-.089-.255-.087-10.323.003-10.626.079-.269.351-.547.612-.627.29-.089 10.337-.091 10.637-.002m-5.615 1.996a1.04 1.04 0 0 0-.567.459l-.108.184-.012 1.15-.013 1.15h-1.051c-1.147 0-1.301.022-1.562.221-.08.061-.195.194-.254.295-.091.156-.108.23-.108.484 0 .256.016.328.111.489.061.103.173.236.25.294.261.2.357.213 1.527.215l1.087.002.013 1.153.012 1.154.121.196a.998.998 0 0 0 1.718 0l.121-.196.012-1.154.013-1.153 1.087-.002c1.17-.002 1.266-.015 1.527-.215.077-.058.189-.191.25-.294.095-.161.111-.233.111-.489 0-.254-.017-.328-.108-.484a1.2 1.2 0 0 0-.254-.295c-.261-.199-.415-.221-1.562-.221h-1.051l-.013-1.15-.012-1.15-.108-.184a1.005 1.005 0 0 0-1.177-.459"/></svg>