<svg xmlns="http://www.w3.org/2000/svg" width="24" height="24" fill="none" stroke="currentColor" stroke-linecap="round" stroke-linejoin="round" stroke-width="2"><path fill="#000" fill-rule="evenodd" stroke="none" d="M3.499 1.043c-.642.109-1.104.355-1.603.853-.4.4-.6.717-.771 1.217l-.105.307v11.16l.105.307c.171.5.371.817.771 1.217.405.404.731.61 1.211.762.359.114.924.162 1.157.099.234-.064.473-.251.603-.473.097-.165.113-.235.113-.495 0-.268-.014-.326-.12-.495a.97.97 0 0 0-.68-.465c-.467-.082-.602-.122-.747-.222a1.05 1.05 0 0 1-.393-.582c-.03-.119-.039-1.776-.031-5.333.011-5.011.013-5.165.088-5.316.099-.199.288-.388.487-.487.152-.075.294-.077 5.416-.077s5.264.002 5.416.077c.353.176.524.446.585.93.048.383.182.619.451.801.471.316 1.102.17 1.407-.325.117-.19.121-.213.116-.64-.008-.783-.262-1.358-.871-1.967-.41-.41-.741-.616-1.243-.775l-.321-.101-5.42-.006c-2.981-.003-5.511.01-5.621.029m6 6c-1.12.19-2.038 1.005-2.385 2.117l-.094.3v11.08l.094.3a3.09 3.09 0 0 0 2.046 2.046l.3.094h11.08l.3-.094a3.09 3.09 0 0 0 2.046-2.046l.094-.3V9.46l-.094-.3a3.09 3.09 0 0 0-2.025-2.039l-.321-.101-5.42-.006c-2.981-.003-5.511.01-5.621.029M20.31 9.061c.279.083.546.35.629.629.053.178.061.856.061 5.311 0 4.211-.01 5.138-.055 5.289a1.02 1.02 0 0 1-.461.582l-.184.108H9.7l-.184-.108a1.05 1.05 0 0 1-.458-.556c-.089-.255-.087-10.323.003-10.626.079-.269.351-.547.612-.627.29-.089 10.337-.091 10.637-.002m-2.67 3.007c-.152.053-.444.326-1.909 1.785l-1.729 1.722-.731-.72c-.616-.608-.762-.732-.928-.788a1 1 0 0 0-1.215.449c-.092.156-.108.229-.107.484 0 .213.022.341.074.44.102.193 2.202 2.3 2.425 2.433.153.091.225.107.48.106.212 0 .341-.022.44-.074.192-.1 4.299-4.2 4.433-4.425.091-.152.107-.226.107-.48s-.017-.328-.108-.484a1.016 1.016 0 0 0-1.232-.448"/></svg>