<svg xmlns="http://www.w3.org/2000/svg" width="24" height="24" fill="none" stroke="currentColor" stroke-linecap="round" stroke-linejoin="round" stroke-width="2"><path fill="#000" fill-rule="evenodd" stroke="none" d="M5.46 1.041c-.322.05-.765.21-1.07.386-.357.207-.927.797-1.148 1.188-.348.619-.593 1.443-.688 2.316l-.047.432-.273.181C1.2 6.231.793 7.701 1.116 9.58a8.8 8.8 0 0 0 1.389 3.448l.342.504-.11.324c-.133.394-.178 1.107-.097 1.561.323 1.834 1.978 3.96 4.044 5.195a7 7 0 0 0 1.589.677c.245.067.429.085.907.088.556.003.625-.005.947-.111l.346-.113.436.301c2.481 1.715 5.851 2.049 7.208.713.15-.147.329-.359.398-.472l.126-.206.31-.027c.717-.064 1.676-.314 2.189-.572.553-.278 1.097-.753 1.397-1.222.608-.951.615-2.379.016-3.298-.579-.89-1.77-1.37-3.396-1.37h-.349l-.13-.23c-.167-.297-.557-.679-.905-.885-.151-.09-.751-.372-1.334-.628a63 63 0 0 1-1.07-.475 3 3 0 0 1-.05-.347c-.108-.948-.518-1.761-1.257-2.495-.734-.727-1.623-1.169-2.519-1.251l-.317-.029-.468-1.07c-.258-.589-.546-1.199-.639-1.356-.208-.35-.584-.734-.89-.909L9 5.194v-.407c-.002-2.067-.793-3.376-2.24-3.706-.261-.06-1.021-.083-1.3-.04m.88 2.003c.405.11.591.539.645 1.486l.027.47H4.559l.026-.17c.117-.764.407-1.391.756-1.63.277-.191.654-.25.999-.156M8.28 7.1c.114.103.227.331.68 1.373.204.471.355.867.335.884-.118.106-4.989 2.766-5.01 2.736l-.154-.22c-.187-.267-.547-.964-.689-1.333-.337-.878-.498-1.928-.403-2.617.09-.651.238-.795.921-.898.055-.008 1.03-.013 2.166-.01 2.006.005 2.068.007 2.154.085m3.713 3.781c.701.345 1.273 1.089 1.317 1.715.014.184.001.309-.042.411-.09.215-3.17 5.776-3.335 6.021-.204.303-.401.389-.827.361-.832-.054-1.82-.626-2.849-1.649-.649-.645-1.01-1.127-1.319-1.76-.42-.863-.454-1.453-.102-1.795.086-.085 1.213-.734 2.824-1.628 3.683-2.043 3.38-1.891 3.712-1.867.217.016.346.055.621.191m3.61 4.193c1.069.469 1.193.53 1.297.646.078.086.08.145.08 2.274 0 1.951-.007 2.21-.069 2.407-.138.446-.412.572-1.251.575-.746.003-1.295-.096-2.089-.377a7.3 7.3 0 0 1-1.663-.883c-.034-.025 2.723-5.036 2.771-5.036.015 0 .43.177.924.394m4.588 2.027c.295.069.515.174.636.305.188.202.223.772.069 1.098-.104.217-.335.434-.613.574a4.5 4.5 0 0 1-1.093.339l-.19.028v-2.457l.47.027c.259.015.583.053.721.086"/></svg>