<svg xmlns="http://www.w3.org/2000/svg" width="24" height="24" fill="none" stroke="currentColor" stroke-linecap="round" stroke-linejoin="round" stroke-width="2"><path fill="#000" fill-rule="evenodd" stroke="none" d="M5.695 1.057a1.04 1.04 0 0 0-.567.459L5.02 1.7l-.012 1.65L4.997 5H3.445c-1.687 0-1.787.011-2.063.221-.08.061-.195.194-.254.295-.091.156-.108.23-.108.484 0 .256.016.328.111.489.061.103.173.236.25.294.273.208.319.213 2.028.215L4.998 7l.011 4.79.011 4.79.094.28a3.15 3.15 0 0 0 2.026 2.026l.28.094 4.788.011 4.789.011.011 1.652.012 1.652.121.197c.068.11.205.253.311.325.471.316 1.102.171 1.407-.325l.121-.197.012-1.653.011-1.653 1.589-.002c1.708-.002 1.754-.007 2.027-.215.077-.058.189-.191.25-.294.095-.161.111-.233.111-.489 0-.254-.017-.328-.108-.484a1.2 1.2 0 0 0-.254-.295c-.276-.21-.376-.221-2.063-.221h-1.553l-.011-4.79-.011-4.79-.094-.28c-.33-.982-1.065-1.715-2.025-2.019l-.321-.101-4.768-.011-4.769-.011-.011-1.649L6.98 1.7l-.108-.184a1.005 1.005 0 0 0-1.177-.459M16.31 7.061c.279.083.546.35.629.629.053.178.061.798.061 4.758v4.553l-4.65-.01-4.65-.011-.184-.108a1.2 1.2 0 0 1-.291-.249C6.989 16.314 7 16.557 7 11.575V7h4.553c3.959 0 4.579.008 4.757.061"/></svg>