<svg xmlns="http://www.w3.org/2000/svg" width="24" height="24" fill="none" stroke="currentColor" stroke-linecap="round" stroke-linejoin="round" stroke-width="2"><path fill="#000" fill-rule="evenodd" stroke="none" d="M10.499 1.042c-1.117.195-2.015.986-2.384 2.098-.092.278-.093.298-.106 2.568l-.013 2.288-2.268.013-2.268.013-.321.1a3.08 3.08 0 0 0-2.025 2.038c-.092.293-.094.337-.094 1.84s.002 1.547.094 1.84a3.11 3.11 0 0 0 2.026 2.045c.278.092.298.093 2.568.106l2.288.013.013 2.288c.013 2.27.014 2.29.106 2.568a3.11 3.11 0 0 0 2.045 2.026c.293.092.337.094 1.84.094s1.547-.002 1.84-.094a3.11 3.11 0 0 0 2.035-1.999l.104-.307.013-2.288.012-2.288 2.288-.013c2.27-.013 2.29-.014 2.568-.106a3.11 3.11 0 0 0 2.026-2.045c.092-.293.094-.337.094-1.84s-.002-1.547-.094-1.84a3.08 3.08 0 0 0-2.025-2.038l-.321-.1-2.268-.013-2.268-.013-.013-2.288c-.013-2.27-.014-2.29-.106-2.568-.325-.98-1.07-1.722-2.024-2.016-.313-.097-.357-.1-1.741-.109-.781-.005-1.511.007-1.621.027m2.811 2.019a.9.9 0 0 1 .387.242c.306.307.303.277.303 2.776 0 2.369.004 2.414.225 2.851.136.269.576.709.845.845.437.221.482.225 2.851.225 2.499 0 2.469-.003 2.776.303.283.284.303.394.303 1.698 0 1.206-.02 1.353-.221 1.617-.061.08-.194.195-.295.254l-.184.108-2.36.021c-2.632.024-2.545.015-3.003.311-.281.182-.586.51-.721.776-.211.417-.216.479-.216 2.834 0 2.372-.003 2.41-.221 2.696-.061.08-.194.195-.295.254l-.184.108h-2.6l-.184-.108a1.2 1.2 0 0 1-.291-.249c-.226-.296-.225-.286-.226-2.658 0-2.355-.009-2.47-.215-2.878-.135-.265-.44-.593-.721-.775-.458-.296-.371-.287-3.003-.311L3.7 13.98l-.184-.108a1.2 1.2 0 0 1-.291-.249C3.014 13.347 3 13.245 3 12.022c0-1.327.019-1.435.303-1.719C3.61 9.997 3.58 10 6.079 10c2.369 0 2.414-.004 2.851-.225.266-.135.708-.575.841-.838.224-.442.229-.501.229-2.866 0-2.491-.003-2.461.304-2.768.28-.281.371-.297 1.679-.3.895-.002 1.164.009 1.327.058"/></svg>