<svg xmlns="http://www.w3.org/2000/svg" width="24" height="24" fill="none" stroke="currentColor" stroke-linecap="round" stroke-linejoin="round" stroke-width="2"><path fill="#000" fill-rule="evenodd" stroke="none" d="M11.717 2.039a1.6 1.6 0 0 0-.797.44c-.141.149-.508.815-1.676 3.036C8.421 7.08 7.736 8.36 7.721 8.36s-1.007-.838-2.204-1.862C4.069 5.259 3.266 4.6 3.12 4.528c-.195-.095-.266-.108-.62-.108-.361 0-.422.011-.62.113-.37.191-.542.36-.709.696-.14.285-.151.331-.148.649.002.323.083.633 1.45 5.562.933 3.363 1.492 5.308 1.57 5.469.15.308.506.671.822.839.503.268.06.252 7.135.252s6.632.016 7.135-.252c.316-.168.672-.531.822-.839.165-.34 3.003-10.591 3.031-10.949a1.54 1.54 0 0 0-.271-.945c-.155-.224-.517-.481-.792-.561-.319-.093-.772-.059-1.054.079-.145.071-.948.731-2.393 1.967-1.195 1.023-2.185 1.86-2.199 1.86s-.699-1.28-1.522-2.844c-1.152-2.189-1.539-2.889-1.677-3.038-.322-.346-.878-.525-1.363-.439m1.588 5.024c1.36 2.586 1.453 2.733 1.887 3.012a2.01 2.01 0 0 0 2.004.084c.128-.068.894-.694 1.784-1.456.858-.735 1.565-1.331 1.571-1.325s-.524 1.949-1.178 4.317L18.182 16H5.818l-1.191-4.305a389 389 0 0 1-1.179-4.316c.007-.006.714.59 1.572 1.325.882.755 1.657 1.387 1.784 1.455a2.01 2.01 0 0 0 2.004-.084c.434-.279.527-.426 1.887-3.012C11.396 5.731 11.984 4.64 12 4.64s.604 1.091 1.305 2.423m-8.61 12.994a1.04 1.04 0 0 0-.567.459c-.091.156-.108.23-.108.484 0 .256.016.328.111.489.125.213.318.375.539.454.223.079 14.437.079 14.66 0 .221-.079.414-.241.539-.454.095-.161.111-.233.111-.489 0-.254-.017-.328-.108-.484a1.02 1.02 0 0 0-.582-.461c-.263-.079-14.343-.077-14.595.002"/></svg>