<svg xmlns="http://www.w3.org/2000/svg" width="24" height="24" fill="none" stroke="currentColor" stroke-linecap="round" stroke-linejoin="round" stroke-width="2"><path fill="#000" fill-rule="evenodd" stroke="none" d="M13.36 1.058c-.303.065-.521.14-.757.261-.197.1-9.958 6.097-10.279 6.314a2.95 2.95 0 0 0-1.228 1.758L1 9.77v3.245c.001 3.12.004 3.258.082 3.585.156.658.568 1.31 1.065 1.688.279.212 6.117 4.138 6.398 4.302.84.491 1.887.542 2.759.134.283-.132 10.128-6.175 10.456-6.417.452-.334.875-.877 1.029-1.317.217-.628.211-.506.211-3.994 0-3.512.001-3.501-.227-4.069a3.5 3.5 0 0 0-.246-.486c-.314-.497-.547-.671-3.789-2.843a421 421 0 0 0-3.278-2.183 3.5 3.5 0 0 0-.8-.334c-.27-.072-1.01-.086-1.3-.023m1.047 2.063c.189.102 5.719 3.807 5.702 3.821-.034.029-10.044 5.863-10.071 5.869-.037.01-6.119-3.78-6.116-3.811.003-.03 9.41-5.807 9.628-5.912a.99.99 0 0 1 .857.033m6.584 8.349-.011 2.71-.109.186a1.3 1.3 0 0 1-.26.303c-.083.064-2.095 1.311-4.471 2.771l-4.73 2.907-.41.254v-6.024l4.97-2.906a644 644 0 0 1 5.001-2.908c.018-.002.027 1.216.02 2.707M6.28 12.853l2.7 1.691.01 2.968c.006 1.632.002 2.968-.008 2.968-.04 0-5.569-3.735-5.676-3.834a1.3 1.3 0 0 1-.2-.266c-.085-.159-.086-.18-.097-2.87l-.012-2.71.292.18z"/></svg>