<svg xmlns="http://www.w3.org/2000/svg" width="24" height="24" fill="none" stroke="currentColor" stroke-linecap="round" stroke-linejoin="round" stroke-width="2"><path fill="#000" fill-rule="evenodd" stroke="none" d="M12.67 1.057c-.215.077-.413.24-.527.435-.085.145-.163.549-.541 2.817a545 545 0 0 0-.442 2.67c0 .011-1.41.021-3.134.021-2.539 0-3.168.01-3.316.055a.99.99 0 0 0 .189 1.933c.184.019.226.038.241.108.011.046.379 2.622.82 5.724s.821 5.73.845 5.84c.252 1.136 1.207 2.065 2.346 2.283.433.083 5.305.083 5.738 0a3 3 0 0 0 2.308-2.149c.043-.161.431-2.841.862-5.954s.792-5.698.802-5.744c.015-.07.056-.089.24-.108a.99.99 0 0 0 .189-1.933C19.142 7.011 18.541 7 16.154 7c-2.632 0-2.954-.007-2.954-.062 0-.033.144-.924.32-1.978a289 289 0 0 0 .32-1.938c0-.012.302-.023.67-.024.722-.002.867-.03 1.109-.215.077-.058.189-.191.25-.294.095-.161.111-.233.111-.489 0-.254-.017-.328-.108-.484a1.02 1.02 0 0 0-.582-.461c-.257-.077-2.403-.076-2.62.002m4.17 7.972c0 .051-.724 5.228-.732 5.235-.051.041-.83.183-1.169.212-.853.075-1.618-.049-2.619-.424-1.065-.4-1.765-.532-2.82-.532-.596 0-1.097.046-1.561.141l-.12.025-.314-2.233a255 255 0 0 0-.334-2.343L7.15 9h4.845c2.665 0 4.845.013 4.845.029m-6.2 6.59c.165.037.453.121.64.188 1.056.376 1.278.446 1.689.533a7.3 7.3 0 0 0 2.058.142c.294-.024.588-.055.653-.068.096-.019.12-.01.12.045 0 .038-.118.916-.262 1.951-.282 2.025-.289 2.052-.565 2.318-.287.278-.223.272-2.953.272s-2.666.006-2.953-.272a1.4 1.4 0 0 1-.228-.291c-.053-.103-.165-.785-.397-2.4a214 214 0 0 1-.322-2.304c0-.195 1.79-.275 2.52-.114"/></svg>