<svg xmlns="http://www.w3.org/2000/svg" width="24" height="24" fill="none" stroke="currentColor" stroke-linecap="round" stroke-linejoin="round" stroke-width="2"><path fill="#000" fill-rule="evenodd" stroke="none" d="M2.67 2.061c-.222.081-.42.248-.542.455-.092.156-.108.229-.107.484 0 .212.022.341.074.44.041.077.702.771 1.47 1.541l1.396 1.401-.234.319c-2.293 3.13-2.293 7.468 0 10.598l.234.319-1.396 1.401c-.768.77-1.429 1.464-1.47 1.541-.052.099-.074.228-.074.44-.001.258.015.327.112.492.13.222.369.409.603.473.203.054.531.024.709-.066.074-.037.766-.696 1.537-1.465l1.403-1.397.177.136c.967.738 2.332 1.366 3.53 1.624a9.3 9.3 0 0 0 3.816 0c1.198-.258 2.563-.886 3.53-1.624l.177-.136 1.403 1.397c.771.769 1.465 1.43 1.542 1.471.099.052.228.074.44.074.258.001.327-.015.492-.112.222-.13.409-.369.473-.603a1.2 1.2 0 0 0-.066-.709c-.037-.074-.696-.766-1.465-1.537l-1.397-1.403.136-.177c.738-.967 1.366-2.332 1.624-3.53a9 9 0 0 0-.714-5.848 9.6 9.6 0 0 0-.91-1.498l-.136-.177 1.397-1.403c.769-.771 1.43-1.465 1.471-1.542.052-.099.074-.228.074-.44.001-.255-.015-.328-.107-.484a1 1 0 0 0-1.215-.45c-.175.058-.358.226-1.624 1.485L17.606 4.97l-.173-.14c-.554-.45-1.597-1.014-2.415-1.305-1.01-.36-1.862-.502-3.018-.502-1.135 0-1.987.139-2.98.485-.792.277-1.902.875-2.453 1.322l-.173.14-1.427-1.419C3.701 2.292 3.518 2.124 3.343 2.066a1 1 0 0 0-.673-.005m10.432 3.037c2.997.453 5.389 2.887 5.822 5.922.066.463.066 1.497 0 1.96-.437 3.067-2.798 5.444-5.904 5.946-.413.066-1.627.066-2.04 0-3.107-.502-5.467-2.879-5.904-5.946-.109-.763-.054-1.887.129-2.64A7.02 7.02 0 0 1 9.62 5.427c.63-.227 1.095-.325 1.92-.404.273-.026 1.186.018 1.562.075"/></svg>