<svg xmlns="http://www.w3.org/2000/svg" width="24" height="24" fill="none" stroke="currentColor" stroke-linecap="round" stroke-linejoin="round" stroke-width="2"><path fill="#000" fill-rule="evenodd" stroke="none" d="M6.477 2.073a2 2 0 0 0-.942.58C5.108 3.112 5 3.46 5 4.368V5H3.446c-1.688 0-1.788.011-2.064.221-.08.061-.195.194-.254.295-.091.156-.108.23-.108.484 0 .256.016.328.111.489.061.103.173.236.25.294.273.208.319.213 2.029.215L5 7v2H3.446c-1.688 0-1.788.011-2.064.221-.08.061-.195.194-.254.295-.091.156-.108.23-.108.484 0 .256.016.328.111.489.061.103.173.236.25.294.273.208.319.213 2.029.215L5 11v2H3.446c-1.688 0-1.788.011-2.064.221-.08.061-.195.194-.254.295-.091.156-.108.23-.108.484 0 .256.016.328.111.489.061.103.173.236.25.294.273.208.319.213 2.029.215L5 15v2H3.446c-1.688 0-1.788.011-2.064.221-.08.061-.195.194-.254.295-.091.156-.108.23-.108.484 0 .256.016.328.111.489.061.103.173.236.25.294.273.208.319.213 2.029.215L5 19v.632c0 .942.119 1.295.596 1.772.286.286.552.443.912.536.339.089 4.645.089 4.984 0 .36-.093.626-.25.912-.536.389-.389.596-.865.596-1.372v-.216l.35.073c.474.1 1.348.136 1.775.073a5.3 5.3 0 0 0 1.26-.362c.295-.133.576-.32 1.305-.866.853-.639 1.046-.713 1.85-.71.743.002.961.085 1.69.641.445.339.716.407 1.092.274.631-.222.864-.931.496-1.505-.137-.213-.895-.768-1.358-.995-.479-.234-.881-.343-1.484-.405-.841-.085-1.746.066-2.421.404-.358.179-.6.341-1.255.84-.799.608-1.194.748-2 .708-.513-.025-.975-.134-1.34-.316l-.26-.13-.248-1.98c-.137-1.089-.249-2.02-.25-2.068-.002-.087.004-.086.268.047 1.361.687 3.205.594 4.415-.221.14-.095.502-.357.805-.584.853-.639 1.046-.713 1.85-.71.743.002.961.085 1.69.641.445.339.716.407 1.092.274.631-.222.864-.931.496-1.505-.137-.213-.895-.768-1.358-.995-.479-.234-.881-.343-1.484-.405-.841-.085-1.746.066-2.421.404-.358.179-.6.341-1.255.84-.787.599-1.199.748-1.96.709-.699-.036-.961-.159-1.883-.888a29 29 0 0 0-.512-.399l-.109-.08-.439-3.519c-.241-1.935-.458-3.591-.482-3.679-.114-.422-.483-.891-.898-1.141-.418-.252-.599-.276-2.017-.276-1.062 0-1.301.01-1.523.068M9 4.04c0 .059 1.955 15.72 1.978 15.85l.02.11H7V4h1c.643 0 1 .014 1 .04"/></svg>