<svg xmlns="http://www.w3.org/2000/svg" width="24" height="24" fill="none" stroke="currentColor" stroke-linecap="round" stroke-linejoin="round" stroke-width="2"><path fill="#000" fill-rule="evenodd" stroke="none" d="M10.72 1.025c-4.394.216-7.671 1.383-8.474 3.015a3 3 0 0 0-.206.555C2.014 4.733 2 7.421 2 12.037c0 6.33.008 7.256.061 7.465.196.771.851 1.46 1.894 1.994 1.226.627 2.78 1.055 4.737 1.304.347.044.7.08.785.08.352 0 .713-.234.893-.58.118-.224.118-.622.002-.843-.098-.185-.365-.441-.523-.501-.058-.022-.453-.085-.877-.138-1.689-.215-3.009-.56-3.978-1.038-.43-.212-.656-.366-.846-.577L4 19.04v-4.515l.37.173c.204.094.577.244.83.332.837.292 2.394.651 2.813.649.803-.003 1.259-.907.791-1.566-.149-.21-.373-.341-.7-.409l-.784-.165c-1.49-.317-2.681-.813-3.144-1.307L4 12.043V7.519l.207.105c.894.452 2.552.908 4.133 1.134 1.263.182 1.881.218 3.66.218s2.397-.036 3.66-.218c1.581-.226 3.239-.682 4.133-1.134L20 7.519v.99c.001.959.004.997.095 1.191.181.381.5.588.905.588s.724-.207.905-.588l.094-.2L22 7.155c0-1.383-.016-2.432-.04-2.56a3 3 0 0 0-.206-.555c-.733-1.49-3.502-2.591-7.394-2.941-.666-.059-2.98-.107-3.64-.074m2.66 2.016c2.369.128 4.257.526 5.605 1.18.406.197.58.308.77.488.135.128.245.255.245.282 0 .072-.27.359-.465.492-.956.658-2.872 1.181-5.215 1.424-.939.097-3.701.097-4.64 0-2.306-.239-4.147-.733-5.14-1.378-.248-.16-.54-.452-.54-.538 0-.027.11-.154.245-.282.577-.549 2.164-1.124 3.875-1.404 1.622-.266 3.496-.36 5.26-.264m-1.685 8.016a1.04 1.04 0 0 0-.567.459l-.108.184-.011 2.24c-.011 2.008-.005 2.258.054 2.414.092.241.28.442.517.552l.2.093 2.2-.001c1.734-.001 2.232-.013 2.35-.055.221-.079.414-.241.539-.454.095-.161.111-.233.111-.489 0-.254-.017-.328-.108-.484a1.2 1.2 0 0 0-.254-.295c-.252-.192-.43-.221-1.353-.221h-.843l.299-.303a4.1 4.1 0 0 1 1.787-1.066c.266-.076.41-.09.972-.09.785-.001.99.043 1.58.339a3.55 3.55 0 0 1 1.827 2.22c.131.487.123 1.375-.018 1.905-.315 1.186-1.182 2.199-2.28 2.662a4 4 0 0 1-2.349.254c-.967-.2-1.776-.687-2.363-1.425-.244-.307-.462-.444-.758-.479a.98.98 0 0 0-.986.491c-.095.161-.113.237-.113.472 0 .357.084.529.47.971.861.982 1.909 1.597 3.266 1.917.424.1.532.109 1.244.108.861-.001 1.184-.051 1.92-.298a5.98 5.98 0 0 0 4.069-5.402c.102-2.27-1.202-4.393-3.249-5.289-.739-.324-1.194-.425-2.037-.455-1.043-.037-1.749.105-2.713.545-.543.249-.989.562-1.577 1.106l-.408.378-.012-.931c-.013-.928-.013-.93-.121-1.114a1.005 1.005 0 0 0-1.177-.459"/></svg>