<svg xmlns="http://www.w3.org/2000/svg" width="24" height="24" fill="none" stroke="currentColor" stroke-linecap="round" stroke-linejoin="round" stroke-width="2"><path fill="#000" fill-rule="evenodd" stroke="none" d="M10.72 1.025c-4.394.216-7.671 1.383-8.474 3.015a3 3 0 0 0-.206.555C2.014 4.733 2 7.421 2 12.037c0 7.965-.017 7.424.25 7.963.251.505 1.016 1.173 1.79 1.561 1.459.732 3.727 1.235 6.32 1.402 1.404.09 4.333-.009 4.928-.166.221-.058.474-.272.59-.497.15-.291.145-.686-.011-.952a1.2 1.2 0 0 0-.276-.31c-.276-.2-.406-.215-1.171-.137-.885.091-3.096.125-4.008.062-1.194-.083-2.053-.197-3.042-.406-1.348-.285-2.4-.684-3.005-1.14-.393-.296-.365-.095-.365-2.651v-2.241l.33.154c1.995.933 5.664 1.46 8.93 1.285 1.582-.085 1.732-.113 2.014-.378a.992.992 0 0 0-.333-1.648c-.18-.068-.238-.07-.877-.023-2.053.15-4.005.082-5.764-.199-2.009-.322-3.602-.903-4.157-1.518L4 12.04V7.519l.207.105c.894.452 2.552.908 4.133 1.134 1.263.182 1.881.218 3.66.218s2.397-.036 3.66-.218c1.578-.226 3.24-.682 4.128-1.132l.203-.103.016.394c.014.352.028.414.135.588a.998.998 0 0 0 1.717-.002l.121-.197.012-1.735c.007-1.069-.005-1.823-.03-1.963a2.8 2.8 0 0 0-.208-.568c-.734-1.49-3.502-2.591-7.394-2.941-.666-.059-2.98-.107-3.64-.074m2.66 2.016c2.369.128 4.257.526 5.605 1.18.406.197.58.308.77.488.135.128.245.255.245.282 0 .072-.27.359-.465.492-.956.658-2.872 1.181-5.215 1.424-.939.097-3.701.097-4.64 0-2.306-.239-4.147-.733-5.14-1.378-.248-.16-.54-.452-.54-.538 0-.027.11-.154.245-.282.577-.549 2.164-1.124 3.875-1.404 1.622-.266 3.496-.36 5.26-.264m7.291 8.023a1 1 0 0 0-.344.207c-.159.154-3.178 5.141-3.273 5.409-.121.338-.021.755.245 1.021.281.282.382.299 1.728.299.645 0 1.173.011 1.173.024s-.472.809-1.048 1.77c-.577.96-1.071 1.809-1.098 1.886-.153.427.042.946.445 1.182.341.199.8.166 1.125-.082.094-.072.592-.867 1.709-2.731.867-1.446 1.599-2.699 1.627-2.785.112-.348-.04-.812-.342-1.043-.266-.203-.406-.221-1.682-.221h-1.172l1.1-1.834c1.003-1.672 1.103-1.854 1.123-2.055a.97.97 0 0 0-.292-.814c-.284-.276-.629-.355-1.024-.233"/></svg>