<svg xmlns="http://www.w3.org/2000/svg" width="24" height="24" fill="none" stroke="currentColor" stroke-linecap="round" stroke-linejoin="round" stroke-width="2"><path fill="#000" fill-rule="evenodd" stroke="none" d="M9.485 4.045a3.04 3.04 0 0 0-1.379.635c-.411.347-6.58 5.961-6.679 6.079-.559.665-.565 1.756-.014 2.457.122.155 6.313 5.792 6.767 6.162.273.223.682.428 1.06.531.243.066.615.071 5.78.071h5.52l.3-.094a3.09 3.09 0 0 0 2.046-2.046l.094-.3V6.46l-.094-.3a3.09 3.09 0 0 0-2.025-2.039l-.321-.101-5.42-.006c-3.082-.003-5.513.01-5.635.031M20.31 6.061c.279.083.546.35.629.629.053.178.061.856.061 5.311 0 4.211-.01 5.138-.055 5.289a1.02 1.02 0 0 1-.461.582l-.184.108H9.7l-.166-.1C9.347 17.768 3.04 12.057 3.04 12c0-.033 6.112-5.598 6.374-5.803.256-.2.062-.193 5.549-.195 4.491-.002 5.168.006 5.347.059m-8.64 2c-.222.081-.42.248-.542.455-.092.156-.108.229-.107.484 0 .213.022.341.074.44.041.077.616.685 1.279 1.35L13.578 12l-1.204 1.21c-.663.666-1.236 1.271-1.273 1.345-.229.454-.045 1.046.407 1.312.165.097.234.113.492.112.213 0 .341-.022.44-.074.077-.041.685-.616 1.35-1.279L15 13.422l1.21 1.204c.665.663 1.271 1.236 1.345 1.273.454.229 1.046.045 1.312-.407.097-.165.113-.234.112-.492 0-.213-.022-.341-.074-.44-.041-.077-.616-.684-1.279-1.35L16.422 12l1.204-1.21c.663-.665 1.238-1.273 1.279-1.35.052-.099.074-.227.074-.44.001-.255-.015-.328-.107-.484a1 1 0 0 0-1.215-.45c-.173.058-.345.213-1.427 1.288L15 10.576l-1.23-1.222c-1.082-1.075-1.254-1.23-1.427-1.288a1 1 0 0 0-.673-.005"/></svg>