<svg xmlns="http://www.w3.org/2000/svg" width="24" height="24" fill="none" stroke="currentColor" stroke-linecap="round" stroke-linejoin="round" stroke-width="2"><path fill="#000" fill-rule="evenodd" stroke="none" d="M11.499 1.04a3 3 0 0 0-1.807 1.054l-.178.212-.547.151a11 11 0 0 0-5.531 3.632A11.4 11.4 0 0 0 1.421 9.98c-.396 1.369-.533 3.141-.301 3.88.179.57.497 1.041.983 1.456.223.19.23.203.397.709a9.98 9.98 0 0 0 6.257 6.339 9.96 9.96 0 0 0 8.162-.747c1.719-.973 3.18-2.519 4.039-4.272.257-.524.598-1.397.66-1.691.018-.086.1-.187.264-.326.503-.425.819-.893 1.004-1.488.085-.271.094-.372.092-1.04-.005-1.645-.355-3.105-1.117-4.66a10.83 10.83 0 0 0-6.888-5.7c-.484-.132-.487-.134-.665-.345-.578-.687-1.301-1.043-2.188-1.076a4 4 0 0 0-.621.021m.809 2.02c.269.08.489.297.603.595.103.27.11.384.034.635a1.02 1.02 0 0 1-.461.582c-.156.091-.23.108-.484.108s-.328-.017-.484-.108a1.05 1.05 0 0 1-.458-.556c-.08-.229-.073-.39.031-.661.198-.518.682-.754 1.219-.595M9.353 5.42c.359.671 1.047 1.229 1.807 1.466.434.135 1.246.135 1.68 0 .59-.184 1.054-.495 1.481-.995a2.8 2.8 0 0 0 .557-1.039l.103-.329.379.153a8.7 8.7 0 0 1 3.019 1.986c1.603 1.61 2.474 3.605 2.6 5.958.041.754-.094 1.051-.578 1.27-.221.1-.296.115-.491.098a1.01 1.01 0 0 1-.838-.615c-.029-.069-.058-.471-.074-1.033-.024-.794-.04-.958-.117-1.2a3.08 3.08 0 0 0-2.02-2.015c-.273-.083-.403-.098-.861-.098s-.588.015-.861.098c-.95.29-1.7 1.036-2.024 2.015-.091.277-.092.308-.114 2.7-.016 1.801-.034 2.449-.071 2.533a1.15 1.15 0 0 1-.446.499c-.156.091-.23.108-.484.108s-.328-.017-.484-.108a1.15 1.15 0 0 1-.446-.499c-.037-.085-.055-.722-.071-2.533-.021-2.394-.023-2.423-.114-2.7-.324-.979-1.074-1.725-2.024-2.015-.273-.083-.403-.098-.861-.098s-.588.015-.861.098a3.08 3.08 0 0 0-2.02 2.015c-.077.241-.093.41-.117 1.2-.017.548-.047.966-.075 1.033a1.01 1.01 0 0 1-.837.615c-.195.017-.27.002-.491-.098-.286-.13-.441-.295-.544-.579-.102-.284-.02-1.399.167-2.257a8.8 8.8 0 0 1 2.399-4.392A8.7 8.7 0 0 1 8.64 4.676l.379-.153.103.329c.056.18.16.436.231.568m-1.045 5.64c.13.039.263.119.371.223.314.306.298.165.322 2.877.022 2.393.023 2.423.114 2.7a3.11 3.11 0 0 0 2.045 2.026c.434.135 1.246.135 1.68 0a3.11 3.11 0 0 0 2.045-2.026c.091-.277.092-.307.114-2.7.024-2.712.008-2.571.322-2.877.169-.163.456-.283.679-.283s.51.12.679.283c.277.269.293.34.324 1.377.023.792.039.959.116 1.2a3.09 3.09 0 0 0 1.98 2.005c.18.058.276.109.268.143a8.1 8.1 0 0 1-3.247 3.759c-1.026.628-2.234 1.009-3.543 1.117-1.581.132-3.339-.287-4.697-1.117a8.1 8.1 0 0 1-3.247-3.759c-.008-.034.088-.085.268-.143a3.09 3.09 0 0 0 1.98-2.005c.077-.241.093-.408.116-1.2.031-1.038.047-1.108.325-1.377.266-.259.606-.336.986-.223"/></svg>