<svg xmlns="http://www.w3.org/2000/svg" width="24" height="24" fill="none" stroke="currentColor" stroke-linecap="round" stroke-linejoin="round" stroke-width="2"><path fill="#000" fill-rule="evenodd" stroke="none" d="M11.502 1.042a3.6 3.6 0 0 0-1.41.542c-.27.174-7.962 7.823-8.339 8.291-.942 1.171-1.009 2.758-.17 4.025.302.457 8.135 8.283 8.557 8.55 1.272.805 2.837.722 4-.212.415-.333 8.114-8.078 8.268-8.318a3.6 3.6 0 0 0 .458-.988c.093-.306.107-.425.11-.912.003-.603-.057-.91-.274-1.4-.255-.575-.327-.653-4.498-4.824-3.059-3.059-4.091-4.067-4.304-4.205a4 4 0 0 0-1.124-.493c-.319-.074-.974-.103-1.274-.056m.759 2.002c.13.024.309.079.398.124.225.111 8.063 7.951 8.175 8.176.193.389.195.921.004 1.304-.059.119-1.287 1.375-3.992 4.085-2.148 2.152-3.983 3.967-4.077 4.032a1.3 1.3 0 0 1-.869.226c-.549-.035-.286.2-4.667-4.179-3.307-3.306-4.006-4.023-4.1-4.208-.099-.197-.113-.267-.112-.584.001-.656-.321-.287 4.152-4.767 2.783-2.788 4.018-3.999 4.153-4.072.305-.167.569-.205.935-.137M8.895 8.255a1.05 1.05 0 0 0-.567.461c-.091.156-.108.23-.108.484 0 .257.016.327.113.492.518.882 1.865.526 1.865-.492a.99.99 0 0 0-.535-.888 1.17 1.17 0 0 0-.768-.057m5.185.348c-.138.062-.778.678-2.733 2.629-1.404 1.401-2.603 2.62-2.665 2.708a1.006 1.006 0 0 0 .27 1.39c.316.209.797.205 1.103-.009.091-.063 1.312-1.264 2.713-2.668 2.023-2.027 2.566-2.591 2.63-2.739.297-.674-.168-1.396-.896-1.393-.155 0-.306.03-.422.082m.36 5.232c-.455.149-.728.512-.728.965 0 .405.207.724.588.905.483.228 1.046.021 1.312-.482.117-.224.118-.621.001-.844a1.1 1.1 0 0 0-.47-.467c-.172-.088-.545-.129-.703-.077"/></svg>