<svg xmlns="http://www.w3.org/2000/svg" width="24" height="24" fill="none" stroke="currentColor" stroke-linecap="round" stroke-linejoin="round" stroke-width="2"><path fill="#000" fill-rule="evenodd" stroke="none" d="M14.52 1.026a3.4 3.4 0 0 0-1.453.56c-.303.217-3.814 3.722-3.94 3.934-.091.152-.107.226-.107.48 0 .257.016.327.113.492.13.222.369.409.603.473.203.054.531.024.709-.066.074-.037.963-.892 1.975-1.898 2.054-2.044 1.976-1.982 2.526-1.979.51.002.446-.05 3.276 2.732 2.836 2.79 2.754 2.693 2.756 3.224.003.546.067.465-2.019 2.562-1.028 1.034-1.903 1.943-1.944 2.02-.052.099-.074.227-.074.44-.001.258.015.327.112.492.28.476.899.646 1.359.374.204-.122 3.847-3.772 4.017-4.026.195-.292.364-.655.459-.988.128-.446.128-1.257.001-1.704a3.5 3.5 0 0 0-.525-1.068c-.189-.255-5.179-5.168-5.517-5.434a3.5 3.5 0 0 0-1.131-.545c-.268-.064-.957-.107-1.196-.075m.175 4.029a1.05 1.05 0 0 0-.567.461c-.091.156-.108.23-.108.484 0 .257.016.327.113.492.518.882 1.865.526 1.865-.492a.99.99 0 0 0-.535-.888 1.17 1.17 0 0 0-.768-.057m3 3a1.05 1.05 0 0 0-.567.461c-.091.156-.108.23-.108.484 0 .257.016.327.113.492.518.882 1.865.526 1.865-.492a.99.99 0 0 0-.535-.888 1.17 1.17 0 0 0-.768-.057m-14.196.988c-1.12.191-2.038 1.005-2.385 2.117l-.094.3v9.08l.094.3a3.09 3.09 0 0 0 2.046 2.046l.3.094h9.08l.3-.094a3.09 3.09 0 0 0 2.046-2.046l.094-.3v-9.08l-.094-.3a3.09 3.09 0 0 0-2.025-2.039l-.321-.101-4.42-.006c-2.431-.003-4.511.01-4.621.029m8.811 2.018c.279.083.546.35.629.629.053.177.061.751.061 4.311 0 4.457.007 4.318-.221 4.617-.061.08-.194.195-.295.254l-.184.108H3.7l-.184-.108a1.05 1.05 0 0 1-.458-.556c-.089-.254-.087-8.324.003-8.626.079-.269.351-.547.612-.627.289-.089 8.338-.091 8.637-.002m-2.615 1.994a1.05 1.05 0 0 0-.567.461c-.091.156-.108.23-.108.484 0 .257.016.327.113.492.518.882 1.865.526 1.865-.492a.99.99 0 0 0-.535-.888 1.17 1.17 0 0 0-.768-.057m-4 4a1.05 1.05 0 0 0-.567.461c-.091.156-.108.23-.108.484 0 .257.016.327.113.492.518.882 1.865.526 1.865-.492a.99.99 0 0 0-.535-.888 1.17 1.17 0 0 0-.768-.057"/></svg>