<svg xmlns="http://www.w3.org/2000/svg" width="24" height="24" fill="none" stroke="currentColor" stroke-linecap="round" stroke-linejoin="round" stroke-width="2"><path fill="#000" fill-rule="evenodd" stroke="none" d="m11.28 1.023-.56.06c-1.888.2-3.729.94-5.36 2.152-.609.453-1.676 1.52-2.134 2.132C.728 8.714.301 13.032 2.097 16.78c.546 1.138 1.179 2.021 2.141 2.982.961.962 1.844 1.595 2.982 2.141 3.747 1.796 8.068 1.367 11.417-1.133.609-.454 1.679-1.524 2.133-2.133 2.974-3.985 2.974-9.289 0-13.274-.454-.608-1.523-1.677-2.13-2.128-1.595-1.186-3.275-1.875-5.217-2.139C13 1.038 11.574.99 11.28 1.023m2.04 2.078c2.563.387 4.804 1.83 6.24 4.019.303.463.743 1.359.932 1.9.346.993.485 1.845.485 2.98 0 1.493-.257 2.621-.897 3.94-.705 1.454-1.769 2.667-3.153 3.592-.789.528-2.051 1.056-3.019 1.265a9.05 9.05 0 0 1-7.538-1.778c-1.513-1.212-2.648-2.99-3.103-4.859-.186-.763-.244-1.272-.244-2.16 0-1.493.257-2.621.897-3.94a8.98 8.98 0 0 1 5.24-4.594c.705-.233 1.272-.348 2.18-.442.322-.033 1.571.015 1.98.077M11.4 7.044c-1.639.185-3.139 1.246-3.874 2.741-.368.748-.506 1.351-.506 2.215 0 .67.058 1.044.248 1.6.578 1.691 1.985 2.925 3.772 3.307.471.101 1.449.101 1.92 0 1.528-.327 2.788-1.277 3.473-2.619.405-.794.547-1.389.547-2.288s-.142-1.494-.547-2.287a5.02 5.02 0 0 0-3.193-2.551 5.2 5.2 0 0 0-1.84-.118m1.461 2.085c.943.276 1.723 1.054 2.014 2.01.083.273.098.403.098.861s-.015.588-.098.861a3.07 3.07 0 0 1-2.035 2.025c-.434.135-1.246.135-1.68 0a3.07 3.07 0 0 1-2.035-2.025c-.083-.273-.098-.403-.098-.861s.015-.588.098-.861a3.04 3.04 0 0 1 2.374-2.099c.333-.06 1.001-.017 1.362.089m-1.166 1.926a1.05 1.05 0 0 0-.567.461c-.091.156-.108.23-.108.484 0 .257.016.327.113.492.518.882 1.865.526 1.865-.492a.99.99 0 0 0-.535-.888 1.17 1.17 0 0 0-.768-.057"/></svg>