<svg xmlns="http://www.w3.org/2000/svg" width="24" height="24" fill="none" stroke="currentColor" stroke-linecap="round" stroke-linejoin="round" stroke-width="2"><path fill="#000" fill-rule="evenodd" stroke="none" d="M1.67 1.061c-.222.081-.42.248-.542.455-.092.156-.108.229-.107.484 0 .212.022.341.074.44.04.077 1.972 2.041 4.294 4.365l4.221 4.226-.295.026c-1.665.147-2.552.301-3.495.61-1.642.537-2.901 1.246-4.268 2.405-.433.366-.532.543-.532.948 0 .234.018.311.111.469.204.347.578.54.969.5.259-.027.38-.088.688-.345l.239-.2.157.161q.332.344.704.382a.99.99 0 0 0 .979-.495c.097-.165.113-.235.113-.496 0-.272-.013-.324-.13-.512l-.13-.209.39-.182c.215-.1.55-.244.746-.32l.356-.139.324.317c.407.398.518.473.765.518.449.081.885-.13 1.076-.52.107-.218.143-.519.085-.704-.021-.064-.006-.087.066-.103.196-.045 1.094-.1 2.045-.127l.994-.028 4.926 4.923c2.71 2.707 4.99 4.955 5.067 4.995.099.052.228.074.44.074.258.001.327-.015.492-.112.476-.28.647-.9.373-1.359-.055-.092-4.65-4.715-10.212-10.273C3.3 1.889 2.525 1.125 2.343 1.065a1 1 0 0 0-.673-.004m13.029-.008c-.257.085-.36.172-.734.622-.653.787-1.064 1.389-1.485 2.178-.462.865-.962 2.23-.965 2.632-.003.416.077.53 1.037 1.484.477.474.931.895 1.008.936.099.052.227.074.44.074.258.001.327-.015.492-.112.222-.13.409-.369.473-.603a1.2 1.2 0 0 0-.067-.709c-.037-.074-.338-.408-.668-.741l-.6-.607.111-.293c.061-.162.208-.5.326-.752l.215-.458 1.069 1.064c.588.584 1.132 1.096 1.209 1.137.099.052.227.074.44.074.258.001.327-.015.492-.112.476-.28.647-.9.373-1.359-.055-.092-.622-.689-1.26-1.325l-1.16-1.157.2-.239c.256-.307.317-.428.343-.686a1.04 1.04 0 0 0-.552-1.003c-.171-.088-.537-.11-.737-.045m4.971 7.008c-.222.081-.42.248-.542.455-.092.156-.108.23-.108.488 0 .272.013.324.129.51l.128.207-.308.154c-.17.085-.503.232-.74.326l-.432.171-.352-.345c-.411-.402-.603-.505-.947-.506-.798-.003-1.271.888-.816 1.539.062.088.361.407.665.708.776.77.949.833 1.693.613a11.8 11.8 0 0 0 4.009-2.12c.643-.515.807-.689.89-.938a.977.977 0 0 0-.644-1.266c-.39-.118-.632-.057-1.025.26l-.288.233-.235-.213c-.35-.316-.714-.41-1.077-.276m-10 7c-.222.081-.42.248-.542.455-.092.156-.108.229-.107.484 0 .214.022.34.075.44.04.077.342.411.67.743l.597.603-.107.297c-.058.163-.203.503-.322.754l-.215.457-1.09-1.081c-.951-.944-1.114-1.089-1.286-1.147a1 1 0 0 0-1.215.45c-.091.156-.108.23-.108.484s.016.328.107.48c.059.099.63.701 1.268 1.337l1.16 1.157-.2.239c-.256.307-.317.428-.344.687-.097.948 1.044 1.462 1.716.773.469-.482 1.129-1.376 1.573-2.133.584-.995 1.19-2.559 1.186-3.06-.003-.386-.098-.518-1.059-1.469-.762-.754-.915-.887-1.084-.945a1 1 0 0 0-.673-.005"/></svg>