<svg xmlns="http://www.w3.org/2000/svg" width="24" height="24" fill="none" stroke="currentColor" stroke-linecap="round" stroke-linejoin="round" stroke-width="2"><path fill="#000" fill-rule="evenodd" stroke="none" d="M14.662 1.064c-.236.075-.481.315-1.003.985-1.272 1.63-2.036 3.368-2.396 5.451-.089.512-.081.688.041.932.319.641 1.142.75 1.625.215l.143-.159.134.14c.074.076.215.187.314.245.152.09.227.107.48.107.257 0 .327-.016.492-.113.222-.13.409-.369.473-.603a1.2 1.2 0 0 0-.067-.709c-.037-.074-.339-.409-.67-.744l-.602-.609.153-.391c.084-.215.233-.551.33-.747l.178-.355 1.066 1.061c.587.584 1.13 1.094 1.207 1.135.099.052.227.074.44.074.258.001.327-.015.492-.112.476-.28.647-.9.373-1.359-.055-.092-.622-.689-1.26-1.325l-1.16-1.157.2-.239c.256-.307.317-.428.343-.686a1.04 1.04 0 0 0-.552-1.003c-.182-.094-.536-.11-.774-.034m5.008 6.997c-.222.081-.42.248-.542.455-.092.156-.108.23-.108.488 0 .272.013.324.129.51l.128.207-.286.143c-.157.08-.491.225-.743.323l-.457.179-.35-.342c-.407-.399-.6-.502-.943-.503-.621-.002-1.105.573-.974 1.157a.7.7 0 0 1 .027.183c-.059.055-1.485.11-3.551.138-1.375.019-2.59.044-2.7.057-.11.012-.416.042-.68.066-2.152.195-3.88.773-5.66 1.892-.782.492-1.715 1.269-1.848 1.539-.138.281-.13.682.019.936.204.347.578.54.969.5.259-.027.38-.088.688-.345l.239-.2.157.161c.275.285.472.375.816.375.257 0 .327-.016.492-.113a.996.996 0 0 0 .35-1.395l-.122-.197.39-.182c.215-.1.55-.244.746-.32l.356-.139.324.317c.407.398.518.473.765.518.449.081.885-.13 1.076-.52.107-.218.143-.519.085-.704-.021-.064-.006-.087.066-.103.301-.069 1.345-.11 3.592-.142 1.397-.021 2.612-.046 2.7-.057s.367-.04.62-.064c2.39-.228 4.506-1.025 6.3-2.375.623-.468 1.053-.865 1.145-1.055a.987.987 0 0 0-.786-1.434c-.296-.035-.501.039-.829.3l-.293.232-.232-.211c-.347-.315-.712-.408-1.075-.275m-10 7c-.222.081-.42.248-.542.455-.092.156-.108.229-.107.484 0 .214.022.34.075.44.04.077.343.412.672.744l.598.605-.148.395a9 9 0 0 1-.326.751l-.178.355-1.087-1.079c-.949-.942-1.112-1.087-1.284-1.145a1 1 0 0 0-1.215.45c-.091.156-.108.23-.108.484s.016.328.107.48c.059.099.63.701 1.268 1.337l1.16 1.157-.2.239c-.256.307-.317.428-.344.687-.04.391.153.765.5.969.158.093.235.111.469.111.509 0 .705-.161 1.535-1.26 1.152-1.525 1.879-3.232 2.222-5.22.089-.511.081-.688-.04-.931-.184-.369-.603-.601-.993-.55-.251.033-.403.11-.611.311l-.167.161-.211-.184c-.329-.288-.696-.375-1.045-.246"/></svg>