<svg xmlns="http://www.w3.org/2000/svg" width="24" height="24" fill="none" stroke="currentColor" stroke-linecap="round" stroke-linejoin="round" stroke-width="2"><path fill="#000" fill-rule="evenodd" stroke="none" d="M6.42 2.004c-1.548.224-2.878 1.511-3.861 3.736-.695 1.574-1.193 3.7-1.039 4.44.142.683.64 1.255 1.43 1.641.16.078.29.145.29.15l-.06.349c-.094.525-.18 1.563-.18 2.16.001.915.101 1.572.362 2.37.937 2.862 3.662 4.728 7.434 5.091 2.817.271 5.593-.401 7.472-1.807.407-.305 1.094-.991 1.39-1.39a6.95 6.95 0 0 0 1.24-2.904c.137-.79.12-2.068-.042-3.105-.12-.768-.131-.671.09-.753.735-.274 1.376-.793 1.641-1.328.136-.275.149-.331.165-.727.055-1.35-.771-3.976-1.733-5.507a6.4 6.4 0 0 0-1.04-1.297c-.575-.556-1.123-.878-1.794-1.053-.446-.116-1.52-.125-2.023-.017-1.24.267-2.293.978-2.798 1.89l-.091.163-.246-.039c-.302-.047-1.651-.058-1.93-.017l-.204.031-.108-.199c-.508-.934-1.589-1.642-2.84-1.86a6.3 6.3 0 0 0-1.525-.018m1.308 2c.299.061.818.319 1.044.517.243.214.331.389.382.756.068.492.338.816.775.93.165.043.248.038.64-.04 1.141-.225 2.054-.21 3.057.049.312.081.434.08.699-.005A1.01 1.01 0 0 0 15 5.286c0-.435.549-.954 1.28-1.212.224-.079.338-.092.82-.092.658 0 .834.053 1.26.374.939.709 1.875 2.604 2.296 4.649.057.277.104.576.104.664 0 .141-.018.172-.15.259-.285.189-.603.281-1.035.302-.774.038-1.441-.21-1.958-.727-.304-.303-.487-.597-.739-1.188-.183-.428-.298-.568-.578-.7a.98.98 0 0 0-1.412.814c-.021.252.045.472.315 1.046.7 1.485 1.702 2.289 3.345 2.686.193.047.185.028.289.639.414 2.429-.008 4.105-1.351 5.365-1.258 1.18-3.214 1.834-5.486 1.834s-4.228-.654-5.486-1.834c-1.169-1.097-1.62-2.441-1.477-4.405.035-.49.153-1.458.183-1.51.003-.005.161-.036.35-.069 1.029-.18 1.923-.636 2.624-1.338.429-.43.71-.833.989-1.42.357-.751.389-1.008.176-1.424-.217-.425-.827-.605-1.304-.383-.254.118-.341.235-.646.864-.453.936-.977 1.4-1.871 1.659-.659.192-1.451.1-1.891-.218-.163-.118-.165-.124-.142-.311.084-.669.388-1.822.67-2.543.686-1.752 1.511-2.809 2.381-3.049.231-.064.892-.072 1.172-.014m-.033 9.053a1.04 1.04 0 0 0-.567.459c-.098.166-.109.229-.122.657-.017.549.034.738.27 1a.98.98 0 0 0 1.448 0c.236-.262.287-.451.27-1-.013-.428-.024-.491-.122-.657a1.005 1.005 0 0 0-1.177-.459m8 0a1.04 1.04 0 0 0-.567.459c-.098.166-.109.229-.122.657-.017.549.034.738.27 1a.98.98 0 0 0 1.448 0c.236-.262.287-.451.27-1-.013-.428-.024-.491-.122-.657a1.005 1.005 0 0 0-1.177-.459m-4.643 2.223c-.222.046-.322.101-.502.273-.157.15-.31.486-.31.681 0 .061.028.206.063.322.054.182.129.28.549.711.614.631.745.713 1.148.713.253 0 .328-.017.48-.106.228-.135 1.082-1.007 1.17-1.197a1.01 1.01 0 0 0-.49-1.332c-.162-.075-.266-.084-1.06-.092-.484-.004-.956.008-1.048.027"/></svg>