<svg xmlns="http://www.w3.org/2000/svg" width="24" height="24" fill="none" stroke="currentColor" stroke-linecap="round" stroke-linejoin="round" stroke-width="2"><path fill="#000" fill-rule="evenodd" stroke="none" d="M11.2 1.024c-.077.009-.32.036-.54.059-1.861.201-3.742.958-5.337 2.146-.614.457-1.681 1.526-2.129 2.131-1.155 1.559-1.82 3.161-2.118 5.1-.125.807-.126 2.28-.003 3.08.374 2.436 1.422 4.523 3.124 6.223A10.2 10.2 0 0 0 7.1 21.84c1.778.875 3.625 1.253 5.507 1.126 2.073-.14 3.847-.74 5.519-1.869.668-.45.968-.703 1.636-1.373 1.449-1.455 2.384-3.112 2.882-5.104.356-1.425.413-3.107.154-4.538-.147-.817-.246-1.022-.598-1.232-.3-.18-.608-.182-1.006-.007-.656.288-1.282.166-1.748-.34-.344-.374-.405-.613-.369-1.443.014-.327-.055-.531-.249-.734-.214-.223-.398-.293-.867-.328-.607-.047-.942-.182-1.311-.531a1.85 1.85 0 0 1-.61-1.404 1.87 1.87 0 0 1 .222-.943c.234-.45.125-1.018-.251-1.305-.289-.221-1.412-.544-2.431-.7-.497-.076-2.014-.134-2.38-.091m2.08 2.072c.209.032.476.079.594.105l.214.047-.029.226c-.161 1.268.251 2.487 1.139 3.368.481.478 1.034.814 1.613.98l.258.074.047.255C17.417 9.783 18.896 11 20.58 11h.333l.029.39c.076 1.012-.063 2.179-.389 3.261-.565 1.879-1.836 3.609-3.493 4.753-1.648 1.138-3.793 1.723-5.732 1.563a9.13 9.13 0 0 1-4.768-1.79 9.05 9.05 0 0 1-3.438-5.571A9 9 0 0 1 6.34 4.979c1.277-1.029 2.887-1.706 4.568-1.921.526-.067 1.815-.046 2.372.038m-1.922 4.965c-1.128.176-2.215.913-2.789 1.892a3.992 3.992 0 0 0 1.943 5.751 3.99 3.99 0 0 0 5.192-2.216 3.96 3.96 0 0 0 .001-2.972 3.98 3.98 0 0 0-3.1-2.458 3.7 3.7 0 0 0-1.247.003m1.165 2.012a2.01 2.01 0 0 1 1.444 1.617c.1.653-.094 1.243-.564 1.714-.401.403-.856.596-1.403.596q-.771 0-1.347-.535c-1.33-1.236-.464-3.46 1.347-3.46.143 0 .378.031.523.068"/></svg>