<svg xmlns="http://www.w3.org/2000/svg" width="24" height="24" fill="none" stroke="currentColor" stroke-linecap="round" stroke-linejoin="round" stroke-width="2"><path fill="#000" fill-rule="evenodd" stroke="none" d="M10.56 1.6c-.368.058-4.379 1.073-4.656 1.177-.709.267-1.391.935-1.68 1.646C3.99 4.998 4 4.654 4 12.138V19H2.946c-1.149 0-1.302.022-1.564.221-.08.061-.195.194-.254.295-.091.156-.108.23-.108.484 0 .256.016.328.111.489.061.103.173.236.25.294.272.208.323.213 1.968.215l1.53.002 3.442.86c2.362.59 3.51.86 3.658.86.915 0 1.744-.642 1.95-1.51l.05-.21 4.1-.002c3.321-.001 4.13-.012 4.251-.055.221-.079.414-.241.539-.454.095-.161.111-.233.111-.489 0-.254-.017-.328-.108-.484a1.2 1.2 0 0 0-.254-.295c-.276-.21-.376-.221-2.064-.221h-1.552l-.011-6.79-.011-6.79-.094-.28c-.33-.984-1.071-1.722-2.025-2.017-.313-.096-.36-.099-1.811-.114l-1.49-.015-.118-.171c-.338-.491-1.025-.968-1.643-1.141-.342-.096-.916-.134-1.239-.082m.939 2.097q.332.195.444.568c.08.263.086 16.474.007 16.446-.028-.01-1.378-.35-3-.755l-2.951-.736.011-6.961.01-6.961.102-.197a1 1 0 0 1 .291-.334c.173-.125.381-.185 2.319-.673 2.364-.596 2.415-.603 2.767-.397m4.811 1.364c.279.083.546.35.629.629.054.179.061 1.007.061 6.757V19h-3V5h1.053c.826 0 1.097.013 1.257.061m-6.615 5.996a1.04 1.04 0 0 0-.567.459c-.092.156-.108.229-.107.484.001.332.08.533.285.728.479.453 1.274.318 1.587-.268.132-.249.122-.7-.021-.944a1.005 1.005 0 0 0-1.177-.459"/></svg>