<svg xmlns="http://www.w3.org/2000/svg" width="24" height="24" fill="none" stroke="currentColor" stroke-linecap="round" stroke-linejoin="round" stroke-width="2"><path fill="#000" fill-rule="evenodd" stroke="none" d="M11.499 2.04a3.05 3.05 0 0 0-2.385 2.12c-.135.434-.135 1.247 0 1.679.117.374.25.64.454.914.087.117.15.235.139.263-.032.083-2.912 5.201-2.949 5.24-.044.047-.361-.198-.887-.684-.521-.482-.645-.55-1.011-.55-.338 0-.541.093-.756.344-.161.188-.224.366-.224.634a.9.9 0 0 0 .273.691c.273.294.896.842 1.275 1.122l.33.244-.093.161c-.052.089-.889 1.578-1.862 3.308-1.962 3.49-1.893 3.341-1.743 3.795.239.719 1.237.906 1.702.319.061-.077.924-1.589 1.919-3.36s1.813-3.225 1.817-3.23c.005-.006.139.043.296.108.815.336 1.825.607 2.786.748.669.098 2.171.098 2.84 0 2.454-.36 4.549-1.374 6.207-3.006.442-.435.492-.529.493-.931a.85.85 0 0 0-.241-.624c-.205-.233-.41-.323-.739-.323-.365 0-.486.067-1.02.559-1.001.922-2.008 1.519-3.272 1.94-1.913.637-3.786.634-5.718-.007-.335-.112-.61-.223-.609-.248 0-.026.663-1.223 1.474-2.662l1.473-2.617h1.072l.772 1.376c.425.758.83 1.438.9 1.512.359.38.961.397 1.369.039a1 1 0 0 0 .304-.974c-.023-.088-.394-.788-.824-1.555a74 74 0 0 1-.781-1.412c0-.009.07-.11.156-.225.201-.269.333-.537.45-.909.135-.432.135-1.245 0-1.679-.305-.981-1.076-1.753-2.025-2.031-.361-.106-1.029-.149-1.362-.089m.811 2.021c.378.112.69.537.69.94 0 .33-.211.686-.513.867-.16.096-.23.112-.487.112s-.327-.016-.487-.112c-.58-.347-.68-1.094-.209-1.565q.417-.418 1.006-.242m6.19 12.17c-.419.14-.695.581-.648 1.038.02.194.152.449 1.149 2.225.619 1.103 1.176 2.069 1.237 2.146.465.587 1.463.4 1.702-.319.145-.438.152-.422-1.107-2.672-.76-1.357-1.187-2.078-1.296-2.19-.273-.28-.638-.36-1.037-.228"/></svg>