<svg xmlns="http://www.w3.org/2000/svg" width="24" height="24" fill="none" stroke="currentColor" stroke-linecap="round" stroke-linejoin="round" stroke-width="2"><path fill="#000" fill-rule="evenodd" stroke="none" d="M14.92 1.024c-.428.025-1.425.135-1.794.199-2.195.376-3.54 1.319-3.991 2.797-.107.348-.11.391-.113 1.311l-.002.951-.16.042c-.38.099-1.122.365-1.65.592-1.919.821-3.563 1.875-4.715 3.021-.543.541-.879.99-1.136 1.52-.294.604-.375.94-.377 1.543-.002.869.139 1.23 1.038 2.666 1.912 3.052 4.151 5.27 6.474 6.413 1.342.659 2.382.91 3.606.87.686-.023 1.105-.108 1.597-.326.563-.249 1.193-.806 1.57-1.389.481-.744.877-1.83 1.013-2.774.073-.512.068-.5.193-.5.31 0 1.076-.276 1.587-.571 2.349-1.359 4.051-4.445 4.658-8.449.288-1.903.364-4.163.163-4.86-.337-1.171-1.225-2.02-2.621-2.506-1.049-.364-2.232-.529-3.96-.551a39 39 0 0 0-1.38.001m2.989 2.074c1.666.191 2.632.625 2.963 1.331.108.23.108.235.103 1.091-.02 3.175-.682 6.028-1.846 7.958-.823 1.363-2.049 2.4-2.966 2.509-.214.025-.65-.062-.948-.189-.332-.142-.855-.523-1.237-.898-1.427-1.406-2.405-3.774-2.779-6.735a21 21 0 0 1-.095-.885l-.064-1.06c-.065-1.079-.044-1.497.092-1.793.362-.792 1.535-1.241 3.628-1.389.66-.046 2.528-.011 3.149.06m-4.214 1.957a1.05 1.05 0 0 0-.567.461c-.091.156-.108.23-.108.484 0 .257.016.327.113.492.518.882 1.865.526 1.865-.492a.99.99 0 0 0-.535-.888 1.17 1.17 0 0 0-.768-.057m4 0a1.05 1.05 0 0 0-.567.461c-.091.156-.108.23-.108.484 0 .257.016.327.113.492.518.882 1.865.526 1.865-.492a.99.99 0 0 0-.535-.888 1.17 1.17 0 0 0-.768-.057M9.24 8.67c.027.193.084.539.126.77.139.748.139.697-.001.797a1 1 0 0 0-.235.276c-.094.16-.11.231-.11.49 0 .268.014.326.121.499.15.243.387.413.661.475l.21.047.167.438c.209.548.352.883.526 1.227.074.148.135.287.135.31s-.068.041-.151.041c-.218 0-.693.141-1.002.297a2.96 2.96 0 0 0-1.328 1.323c-.182.373-.29.794-.253.986.095.499.524.856 1.018.846q.64-.011.917-.683c.165-.401.263-.526.52-.666.201-.109.224-.113.535-.083.47.046.62.032.838-.076l.195-.096.389.392a7.3 7.3 0 0 0 1.515 1.16c.25.138.326.2.326.266a6 6 0 0 1-.079.554c-.19 1.114-.667 2.056-1.232 2.434-.545.364-1.731.349-2.812-.037-2.138-.762-4.231-2.626-6.13-5.457-.543-.81-1.021-1.631-1.092-1.875-.269-.926.757-2.173 2.868-3.484a19 19 0 0 1 2.102-1.085c.435-.186 1.09-.431 1.162-.434.028-.001.065.137.094.348m4.96.314c-.333.144-.599.551-.599.916 0 .299.139.558.455.848.882.808 2.219.974 3.303.41.403-.21.822-.589.947-.857a.91.91 0 0 0-.001-.801q-.276-.58-.905-.58c-.297 0-.447.06-.732.292-.24.195-.441.279-.668.279s-.428-.084-.668-.279a2 2 0 0 0-.355-.236c-.175-.073-.599-.069-.777.008m-8.156 3.241c-.832.415-.648 1.68.269 1.847a.99.99 0 0 0 1.173-.792c.166-.8-.692-1.428-1.442-1.055"/></svg>