<svg xmlns="http://www.w3.org/2000/svg" width="24" height="24" fill="none" stroke="currentColor" stroke-linecap="round" stroke-linejoin="round" stroke-width="2"><path fill="#000" fill-rule="evenodd" stroke="none" d="m11.28 1.023-.56.06c-1.888.2-3.729.94-5.36 2.152-.609.453-1.676 1.52-2.134 2.132C.728 8.714.301 13.032 2.097 16.78c.546 1.138 1.179 2.021 2.141 2.982.961.962 1.844 1.595 2.982 2.141 3.747 1.796 8.068 1.367 11.417-1.133.609-.454 1.679-1.524 2.133-2.133 2.974-3.985 2.974-9.289 0-13.274-.454-.608-1.523-1.677-2.13-2.128-1.595-1.186-3.275-1.875-5.217-2.139C13 1.038 11.574.99 11.28 1.023m2.04 2.078c.943.143 1.735.39 2.622.819.515.249 1.326.755 1.651 1.03l.133.113-.413.349c-1.09.921-2.679 1.89-3.937 2.399l-.245.099-.249-.443c-.54-.956-1.662-2.703-2.472-3.847-.184-.26-.267-.409-.236-.426.042-.023.79-.133 1.166-.17.326-.033 1.574.016 1.98.077M8.769 4.77c.342.49.828 1.205 1.081 1.59.43.655 1.287 2.052 1.333 2.174.016.041-.105.088-.469.184A34 34 0 0 1 8 9.297c-1.29.219-2.417.357-4.55.557-.219.021-.219.011.012-.686a9.1 9.1 0 0 1 3.581-4.679c.28-.186 1.026-.607 1.08-.608.013-.001.304.399.646.889M19.48 7.005a9.1 9.1 0 0 1 1.377 3.424c.063.361.152 1.215.13 1.237a7 7 0 0 1-.61-.065c-1.677-.218-3.398-.192-4.957.076a8 8 0 0 1-.446.069c-.004-.003-.146-.33-.315-.726-.17-.396-.37-.841-.444-.989a2 2 0 0 1-.135-.311c0-.023.05-.061.11-.084.312-.117 1.378-.647 1.87-.928a18 18 0 0 0 2.658-1.863c.207-.179.391-.325.407-.325.017 0 .177.218.355.485m-7.146 3.726c.371.795.671 1.519.64 1.547a9 9 0 0 1-.633.262c-2.536.987-4.849 2.675-7.034 5.135-.084.095-.158.166-.163.159l-.232-.294a8.7 8.7 0 0 1-.992-1.6c-.562-1.159-.835-2.227-.905-3.544l-.027-.504.396-.028c3.061-.213 6.345-.747 8.356-1.359.176-.053.347-.098.38-.1.037-.003.118.12.214.326m6.652 2.751c.639.037 1.801.172 1.843.213.028.028-.194.873-.337 1.285a11 11 0 0 1-.932 1.9 9.7 9.7 0 0 1-1.928 2.137l-.328.262-.253-.969c-.407-1.557-1.134-4.03-1.354-4.602-.015-.04.061-.066.291-.099a13.4 13.4 0 0 1 2.998-.127m-5.25.712c.05.08.611 1.855.85 2.686.142.495.403 1.465.58 2.156.256 1.001.31 1.262.267 1.289-.111.069-1.149.391-1.525.472a9 9 0 0 1-5.928-.755c-.543-.274-1.268-.718-1.324-.809-.047-.075 1.111-1.301 1.853-1.962 1.432-1.278 2.916-2.212 4.571-2.876.629-.252.625-.251.656-.201"/></svg>