<svg xmlns="http://www.w3.org/2000/svg" width="24" height="24" fill="none" stroke="currentColor" stroke-linecap="round" stroke-linejoin="round" stroke-width="2"><path fill="#000" fill-rule="evenodd" stroke="none" d="M3.499 1.043C2.383 1.23 1.461 2.048 1.114 3.16l-.094.3v5.08l.094.3a3.08 3.08 0 0 0 2.02 2.036c.151.046.322.084.38.085.058 0 .127.014.153.03.035.022-.16.862-.72 3.097l-.767 3.067-.24.156c-.804.519-1.088 1.333-.857 2.462a4.03 4.03 0 0 0 1.873 2.663c.329.199.854.396 1.287.485.367.074.553.079 3.205.079 3.057 0 3.035.001 3.482-.225.266-.135.708-.575.841-.838.208-.41.229-.585.228-1.923 0-1.332-.025-1.551-.218-1.931-.135-.267-.484-.634-.764-.802-.398-.24-.625-.276-1.751-.279-.778-.001-.991-.013-.976-.052.01-.028.124-.477.253-1l.235-.95h1.335c1.471 0 1.623-.018 2.054-.247.125-.067.325-.217.446-.334.385-.377.436-.505.843-2.127l.367-1.462.159-.081c.223-.114.668-.572.789-.812.117-.23.229-.628.229-.813V9h1.132c1.226 0 1.396-.021 1.798-.225.266-.135.708-.575.841-.838.117-.23.229-.628.229-.813V7l1.59-.002c1.71-.002 1.756-.007 2.029-.215.077-.058.189-.191.25-.294.095-.161.111-.233.111-.489 0-.254-.017-.328-.108-.484a1.2 1.2 0 0 0-.254-.295c-.276-.21-.377-.221-2.055-.221h-1.545l-.049-.308a2.5 2.5 0 0 0-.163-.551c-.141-.302-.485-.677-.789-.86-.408-.246-.613-.276-1.878-.279L15.018 3l-.049-.308a1.9 1.9 0 0 0-.498-1.033 2 2 0 0 0-.948-.586c-.242-.063-.649-.068-5.043-.066-2.629.001-4.871.018-4.981.036M13 6.001v3l-4.65-.01L3.7 8.98l-.184-.108a1.2 1.2 0 0 1-.291-.249C3 8.327 3 8.332 3 6.022c0-2.436-.003-2.413.304-2.719.315-.316-.008-.297 5.126-.3L13 3zM17 6v1h-2V5h2zm-9.29 5.05c-.01.028-.349 1.378-.754 3L6.22 17h-.974c-.763 0-.971-.011-.957-.05.01-.028.35-1.378.754-3L5.779 11h.975c.763 0 .971.011.956.05m4 0c-.01.028-.124.477-.253 1l-.235.95h-.975c-.764 0-.972-.011-.957-.05.01-.028.124-.477.253-1l.235-.95h.975c.764 0 .972.011.957.05M10 20v1H7.368c-2.845 0-2.855-.001-3.285-.219-.267-.135-.634-.484-.802-.764-.143-.237-.275-.657-.279-.887L3 19h7z"/></svg>