<svg xmlns="http://www.w3.org/2000/svg" width="24" height="24" fill="none" stroke="currentColor" stroke-linecap="round" stroke-linejoin="round" stroke-width="2"><path fill="#000" fill-rule="evenodd" stroke="none" d="M13.617 2.097a1.2 1.2 0 0 0-.494.459c-.04.079-.131.378-.202.664A9.5 9.5 0 0 1 11.9 5.739c-.245.431-.31.58-.328.755a.992.992 0 0 0 1.309 1.046c.297-.099.488-.311.819-.911.154-.279.289-.507.3-.507s.119.184.24.408a12.7 12.7 0 0 0 2.94 3.6c1.649 1.389 2.409 2.474 2.712 3.87.11.505.116 1.558.013 2.12-.184 1.005-.658 1.989-1.368 2.843-.815.979-2.156 1.738-3.506 1.984-.506.092-1.477.091-2.011-.003a6.07 6.07 0 0 1-2.96-1.425c-.519-.463-.585-.498-.963-.498-.29-.001-.342.011-.515.119-.4.25-.572.681-.445 1.117.081.278.349.581.903 1.022 1.223.974 2.676 1.558 4.274 1.719 1.409.142 2.852-.13 4.226-.797 1.61-.781 2.889-2.079 3.681-3.736a7.66 7.66 0 0 0 .767-3.665 6.5 6.5 0 0 0-.348-1.96c-.516-1.542-1.408-2.756-3.02-4.107-1.241-1.04-2.137-2.17-2.818-3.553a8.7 8.7 0 0 1-.707-1.9 7 7 0 0 0-.202-.691c-.078-.177-.325-.413-.516-.493-.169-.07-.598-.07-.76.001m-7 2.28c-.179.078-.41.293-.496.462-.041.08-.104.262-.14.403a5.3 5.3 0 0 1-.422 1.165c-.377.759-.817 1.306-1.599 1.986-.705.612-1.142 1.156-1.474 1.832-.424.864-.579 1.869-.428 2.775.187 1.12.652 2.03 1.441 2.823.968.972 2.142 1.461 3.501 1.461 1.357 0 2.534-.491 3.501-1.461.922-.925 1.423-2.052 1.486-3.343.076-1.536-.562-2.856-2.002-4.142-.497-.444-.744-.705-1.036-1.092-.334-.443-.722-1.245-.886-1.83a5 5 0 0 0-.197-.604c-.078-.151-.319-.365-.492-.437-.166-.07-.596-.069-.757.002M7.14 8.15c.333.528.814 1.054 1.668 1.825.582.524.918 1.017 1.097 1.607.086.284.099 1.096.022 1.378a3.35 3.35 0 0 1-1.405 1.915c-.849.549-2.195.549-3.044 0-.544-.351-1.026-.92-1.25-1.475-.175-.433-.205-.596-.203-1.12.002-.426.017-.546.105-.811.208-.633.458-.946 1.563-1.965.488-.449.851-.866 1.128-1.296.087-.136.168-.247.179-.248.011 0 .074.086.14.19"/></svg>