<svg xmlns="http://www.w3.org/2000/svg" width="24" height="24" fill="none" stroke="currentColor" stroke-linecap="round" stroke-linejoin="round" stroke-width="2"><path fill="#000" fill-rule="evenodd" stroke="none" d="M11.664 2.063c-.37.136-.573.402-.682.897-.316 1.435-1.058 2.957-2.049 4.2-.37.465-1.053 1.143-1.653 1.642-1.203 1.001-1.979 1.949-2.538 3.098-.481.988-.686 1.788-.73 2.842-.075 1.814.521 3.664 1.662 5.158.259.339.932 1.025 1.286 1.311A8.1 8.1 0 0 0 12 23a8.1 8.1 0 0 0 5.04-1.789c.354-.286 1.027-.972 1.286-1.311 1.141-1.494 1.737-3.344 1.662-5.158a6.7 6.7 0 0 0-.768-2.922c-.575-1.133-1.329-2.043-2.5-3.018-.6-.499-1.283-1.177-1.653-1.642-.874-1.096-1.608-2.514-1.925-3.72-.246-.933-.255-.956-.444-1.14a.99.99 0 0 0-1.034-.237m.376 4.054c0 .074.535.991.841 1.441a12.6 12.6 0 0 0 2.399 2.643c.708.593 1.082.959 1.455 1.424.947 1.181 1.352 2.438 1.232 3.823-.055.631-.129 1.004-.296 1.492-.683 2.004-2.38 3.488-4.511 3.945-.35.075-.543.09-1.16.09s-.81-.015-1.16-.09c-2.134-.458-3.827-1.938-4.511-3.945-.167-.488-.241-.861-.296-1.492-.12-1.385.285-2.642 1.232-3.823.373-.465.747-.831 1.455-1.424.621-.519 1.297-1.2 1.746-1.756.435-.54 1.056-1.473 1.314-1.975.18-.35.26-.459.26-.353"/></svg>