<svg xmlns="http://www.w3.org/2000/svg" width="24" height="24" fill="none" stroke="currentColor" stroke-linecap="round" stroke-linejoin="round" stroke-width="2"><path fill="#000" fill-rule="evenodd" stroke="none" d="M1.67 1.061c-.222.081-.42.248-.542.455-.092.156-.108.229-.107.484 0 .212.022.341.074.44.04.077 1.46 1.529 3.156 3.227l3.082 3.087-.135.113c-1.548 1.292-2.557 2.786-2.978 4.412-.267 1.033-.286 2.212-.054 3.321A7.98 7.98 0 0 0 8.5 22.181a7.85 7.85 0 0 0 5.08.654c1.813-.362 3.404-1.326 4.648-2.815l.167-.2 1.513 1.506c.831.828 1.575 1.539 1.652 1.579.099.052.228.074.44.074.258.001.327-.015.492-.112.476-.28.647-.9.373-1.359-.055-.092-4.65-4.715-10.212-10.273C3.3 1.889 2.525 1.125 2.343 1.065a1 1 0 0 0-.673-.004m9.994 1.002c-.21.077-.397.225-.504.397-.048.078-.156.407-.24.731-.17.658-.346 1.164-.602 1.729-.106.234-.179.459-.19.586a.99.99 0 0 0 1.258 1.034.87.87 0 0 0 .429-.264c.206-.206.225-.219.225-.159 0 .074.535.991.841 1.441.702 1.034 1.426 1.825 2.519 2.749.341.289.712.621.824.739.704.737 1.155 1.433 1.48 2.284.075.197.174.411.219.474.107.15.368.301.621.36.527.122 1.095-.307 1.163-.877.045-.388-.489-1.633-1.027-2.391-.595-.837-1.017-1.284-2.068-2.187-.712-.611-1.119-1.021-1.553-1.561-.857-1.068-1.601-2.505-1.917-3.708-.246-.933-.255-.956-.444-1.14a.99.99 0 0 0-1.034-.237m1.203 12.224 4.088 4.088-.168.242a6 6 0 0 1-.568.643c-1.281 1.279-3.199 1.935-4.966 1.698-.721-.097-1.694-.425-2.269-.764-1.493-.88-2.605-2.469-2.881-4.113-.31-1.849.157-3.374 1.484-4.838.266-.294 1.093-1.041 1.153-1.042.022-.001 1.879 1.838 4.127 4.086"/></svg>