<svg xmlns="http://www.w3.org/2000/svg" width="24" height="24" fill="none" stroke="currentColor" stroke-linecap="round" stroke-linejoin="round" stroke-width="2"><path fill="#000" fill-rule="evenodd" stroke="none" d="M16.2 1.024c-1.193.148-2.095.396-3.06.845-2.167 1.007-4.117 2.909-5.155 5.028A10.4 10.4 0 0 0 7.094 9.6c-.098.541-.098 1.913 0 2.437l.071.378-.853.853-.853.853-.419-.064c-1.538-.236-2.996.509-3.69 1.883-.394.779-.46 1.849-.167 2.709.286.842.953 1.6 1.745 1.982.264.127.319.172.38.308.193.428.606.954.988 1.258a3.54 3.54 0 0 0 4.089.221c.703-.449 1.274-1.241 1.5-2.078.103-.382.123-1.18.04-1.556l-.053-.235.854-.857c.844-.847.856-.857.994-.832a7.85 7.85 0 0 0 3.706-.198c.43-.125.621-.234.766-.438.257-.361.266-.687.032-1.189a2.3 2.3 0 0 1-.207-1.154c.098-.961.53-1.832 1.281-2.583 1.172-1.172 2.731-1.591 3.836-1.031.378.192.751.166 1.09-.075.204-.145.313-.336.438-.766.565-1.951.403-3.916-.448-5.443-.841-1.508-2.318-2.54-4.094-2.862-.445-.081-1.585-.138-1.92-.097m1.46 2.039c2.01.348 3.228 1.761 3.325 3.857.019.423-.023 1.091-.073 1.141a4 4 0 0 1-.45-.028c-1.213-.118-2.665.327-3.78 1.158-.839.626-1.623 1.535-2.039 2.362a6.5 6.5 0 0 0-.607 1.987c-.044.344-.029 1.094.027 1.288.038.132-.094.153-.943.148-.661-.003-.781-.014-1.123-.105-1.185-.317-1.965-.903-2.491-1.871-.88-1.619-.586-3.972.759-6.065.463-.72 1.312-1.644 2.035-2.215 1.176-.927 2.569-1.523 3.96-1.693a6.8 6.8 0 0 1 1.4.036M8.795 15.33c.177.169.429.387.56.483l.238.175-.84.836c-.57.569-.871.899-.94 1.033-.147.286-.14.556.026.963.105.258.131.378.134.62.005.375-.052.569-.251.868-.281.42-.721.652-1.24.652-.703 0-1.232-.43-1.464-1.189-.148-.485-.312-.642-.844-.807-.787-.245-1.176-.742-1.173-1.501.003-.831.651-1.446 1.519-1.441.299.002.376.018.64.138.374.17.683.186.96.05.119-.058.469-.378 1.035-.945l.855-.856.232.307c.127.168.376.445.553.614"/></svg>