<svg xmlns="http://www.w3.org/2000/svg" width="24" height="24" fill="none" stroke="currentColor" stroke-linecap="round" stroke-linejoin="round" stroke-width="2"><path fill="#000" fill-rule="evenodd" stroke="none" d="M1.67 1.061c-.222.081-.42.248-.542.455-.092.156-.108.229-.107.484 0 .213.022.341.074.44.041.077.625.695 1.299 1.373L3.62 5.047l-.1.066c-.664.444-1.4 1.13-1.771 1.651a4.7 4.7 0 0 0-.616 1.256l-.113.36v9.24l.113.36c.522 1.67 2.072 3.028 4.494 3.94 5.057 1.904 12.161 1.207 15.513-1.522.863-.702 1.446-1.519 1.727-2.418l.113-.36V8.38l-.113-.36a4.7 4.7 0 0 0-.616-1.256c-.371-.521-1.107-1.207-1.771-1.651l-.1-.066 1.226-1.234c.674-.678 1.258-1.296 1.299-1.373.052-.099.074-.227.074-.44.001-.255-.015-.328-.107-.484a1 1 0 0 0-1.215-.45c-.175.058-.365.232-1.697 1.553l-1.5 1.487-.62-.21c-1.947-.661-4.436-.977-6.777-.861-1.868.092-3.465.373-4.903.861l-.62.21-1.5-1.487C2.708 1.298 2.518 1.124 2.343 1.066a1 1 0 0 0-.673-.005m11.396 3.98c1.306.076 2.779.314 3.629.586l.194.063-1.86 1.865c-1.023 1.026-1.891 1.926-1.928 2-.229.455-.045 1.046.407 1.312.165.097.234.113.492.112.212 0 .341-.022.44-.074.077-.04 1.115-1.047 2.308-2.236l2.167-2.163.32.197c.997.615 1.604 1.335 1.73 2.051.176.997-.762 2.128-2.425 2.923-2.735 1.308-6.648 1.678-10.152.961-2.97-.609-5.101-1.96-5.354-3.395-.147-.836.516-1.808 1.739-2.548l.312-.189 2.168 2.163c1.192 1.189 2.23 2.196 2.307 2.236.099.052.228.074.44.074.258.001.327-.015.492-.112.222-.13.409-.369.473-.603a1.2 1.2 0 0 0-.066-.709c-.037-.074-.905-.974-1.928-2L7.111 5.69l.194-.063c.107-.035.429-.117.715-.183a17.9 17.9 0 0 1 5.046-.403M4.1 13.225c.417.229 1.144.558 1.59.72l.31.113v5.86l-.091-.034a10 10 0 0 1-1.203-.62c-.939-.592-1.537-1.303-1.666-1.982-.024-.128-.04-1.126-.04-2.485v-2.271l.37.251c.204.138.532.34.73.448m16.861 4.05c-.126.681-.725 1.395-1.667 1.989-.311.195-.941.52-1.203.62l-.091.034v-5.86l.37-.137c.781-.288 1.671-.738 2.27-1.148l.34-.233.01 2.259c.007 1.384-.005 2.343-.029 2.476M8.492 14.699c.548.1 1.48.213 2.018.244l.49.028v6l-.41-.027a17 17 0 0 1-2.32-.33l-.27-.06v-2.98c0-2.819.004-2.978.07-2.959.039.011.228.049.422.084M16 17.577v2.977l-.27.06c-.693.154-1.595.283-2.32.33l-.41.027v-5.999l.47-.027a19.5 19.5 0 0 0 2.5-.341c.017-.002.03 1.336.03 2.973"/></svg>