<svg xmlns="http://www.w3.org/2000/svg" width="24" height="24" fill="none" stroke="currentColor" stroke-linecap="round" stroke-linejoin="round" stroke-width="2"><path fill="#000" fill-rule="evenodd" stroke="none" d="M6.48.945c-.838.091-1.322.35-2.079 1.112l-.458.461-.424-.417c-.486-.479-.661-.579-1.021-.58-.798-.003-1.27.887-.816 1.539.061.088.274.321.473.518l.362.357-.528.544c-.565.581-.729.815-.887 1.268a2.98 2.98 0 0 0 .321 2.657c.212.319.637.73.966.933l.24.148-.175.266c-.51.777-.604 1.889-.234 2.769.257.61.828 1.221 1.42 1.52.436.22.799.298 1.38.297.48-.002.549-.012.898-.131.646-.222.738-.296 2.263-1.812l1.4-1.393 1.71 1.71L13 14.42l-1.342 1.34c-1.373 1.371-1.6 1.637-1.788 2.103-.168.413-.21.65-.208 1.157.003.732.187 1.287.602 1.808.623.783 1.409 1.171 2.376 1.171.629 0 1.137-.143 1.607-.452l.264-.173.195.297c.229.351.661.775.998.979.739.449 1.704.543 2.549.248.453-.158.687-.322 1.268-.887l.544-.528.357.362c.444.448.628.579.881.624.713.126 1.29-.449 1.167-1.164-.043-.25-.177-.439-.625-.883l-.362-.357.528-.544c.565-.581.729-.815.887-1.268.295-.844.201-1.81-.247-2.547a3.5 3.5 0 0 0-.973-.992l-.306-.2.174-.266c.31-.471.453-.978.453-1.608 0-.808-.262-1.47-.806-2.042-.612-.643-1.285-.932-2.173-.932-.585 0-.861.065-1.38.321-.379.188-.385.193-1.801 1.6l-1.421 1.411-1.709-1.709L11 9.58l1.343-1.34c1.494-1.492 1.645-1.679 1.86-2.311.122-.36.132-.428.133-.909.002-.58-.076-.944-.294-1.377-.278-.549-.843-1.093-1.422-1.367-.909-.431-2.091-.352-2.891.195l-.237.161-.196-.301c-.404-.619-1.062-1.106-1.738-1.286-.301-.08-.82-.128-1.078-.1m.721 2.096c.604.305.723 1.038.259 1.599-.172.209-.3.506-.3.7 0 .186.131.511.265.66a.97.97 0 0 0 .726.331c.418.003.52-.069 1.627-1.165.551-.545 1.055-1.025 1.121-1.065.075-.047.221-.08.4-.091.251-.016.304-.005.5.098.124.065.275.188.347.282.212.279.257.716.105 1.03-.084.173-6.638 6.728-6.824 6.825-.486.253-1.079.045-1.33-.467-.094-.192-.105-.255-.088-.492.012-.163.048-.318.092-.388.041-.065.52-.569 1.065-1.12 1.096-1.107 1.168-1.209 1.165-1.627a.96.96 0 0 0-.321-.714c-.404-.355-.964-.336-1.4.047-.228.2-.368.253-.67.255q-.624.003-.909-.557c-.117-.229-.114-.62.007-.862.109-.217 3.025-3.152 3.242-3.263a1.05 1.05 0 0 1 .921-.016m12.268 8.724c.448.215.657.81.448 1.275-.058.13-.359.46-1.077 1.18-1.097 1.101-1.173 1.207-1.173 1.624 0 .277.118.537.333.731.149.134.474.265.66.265.194 0 .491-.128.7-.3.569-.472 1.291-.346 1.61.279.116.228.112.62-.008.861-.122.243-3.074 3.196-3.302 3.303-.226.106-.629.101-.841-.01-.627-.331-.751-1.043-.279-1.613.172-.209.3-.506.3-.7 0-.182-.131-.511-.259-.654a.94.94 0 0 0-.745-.325c-.429.001-.5.053-1.652 1.195-1.129 1.119-1.135 1.123-1.569 1.124-.691.001-1.173-.79-.866-1.42.073-.15 6.627-6.722 6.791-6.809.278-.149.627-.151.929-.006"/></svg>