<svg xmlns="http://www.w3.org/2000/svg" width="24" height="24" fill="none" stroke="currentColor" stroke-linecap="round" stroke-linejoin="round" stroke-width="2"><path fill="#000" fill-rule="evenodd" stroke="none" d="M1.67 1.061c-.222.081-.42.248-.542.455-.091.156-.108.23-.108.484s.016.327.107.48c.06.099 1.006 1.077 2.105 2.174l1.997 1.994-.057.266a8.6 8.6 0 0 0-.171 1.446c0 .275.018.378.094.54.181.381.5.588.905.588a1 1 0 0 0 .994-.875l.026-.174 1.718 1.719c.945.945 1.71 1.728 1.699 1.738-.023.023-.28.082-.617.141-.906.161-1.116 1.358-.32 1.825.496.291 1.625.06 2.297-.468l.099-.078.832.832c.457.457.832.841.832.853s-.128.166-.285.341c-.829.926-1.272 2.003-1.276 3.098-.002.874-.41 1.66-1.107 2.134-.15.102-.407.234-.572.294-.268.097-.355.108-.82.108s-.552-.011-.82-.108a2.8 2.8 0 0 1-1.044-.703c-.372-.416-.633-1.092-.636-1.645-.002-.392-.262-.794-.609-.938-.203-.085-.611-.079-.811.013-.206.094-.43.343-.52.58-.095.248-.063.854.074 1.388.425 1.663 1.614 2.854 3.303 3.308.341.092.458.103 1.063.103s.722-.011 1.063-.103c.739-.199 1.379-.53 1.869-.967.987-.881 1.474-1.9 1.568-3.283.045-.661.113-.948.307-1.301.143-.262.451-.674.61-.818l.087-.078 3.208 3.204c1.764 1.762 3.271 3.237 3.348 3.277.099.052.228.074.44.074.258.001.327-.015.492-.112.476-.28.647-.9.373-1.359-.055-.092-4.65-4.715-10.212-10.273C3.3 1.889 2.525 1.125 2.343 1.065a1 1 0 0 0-.673-.004m10.01-.018A7.45 7.45 0 0 0 8.6 2.097c-.444.269-.578.386-.687.598-.24.468-.055 1.07.406 1.321.379.206.679.181 1.123-.096.965-.601 1.792-.864 2.858-.908a5.44 5.44 0 0 1 4.763 2.429c.419.63.684 1.269.844 2.039.107.514.098 1.633-.019 2.222a5.2 5.2 0 0 1-.715 1.847c-.309.512-.338.892-.096 1.253.32.477.984.595 1.43.256.311-.238.84-1.212 1.106-2.04.907-2.819.208-5.813-1.831-7.838a7.5 7.5 0 0 0-6.102-2.137m.56 3.992c-.456.151-.728.512-.728.965a.93.93 0 0 0 .276.688c.188.193.443.296.811.328.384.034.681.169.948.432.264.259.403.563.437.955.045.512.265.865.634 1.019.203.085.561.085.764 0 .365-.152.617-.545.617-.962.001-1.529-1.117-2.954-2.621-3.341-.35-.09-.981-.137-1.138-.084"/></svg>