<svg xmlns="http://www.w3.org/2000/svg" width="24" height="24" fill="none" stroke="currentColor" stroke-linecap="round" stroke-linejoin="round" stroke-width="2"><path fill="#000" fill-rule="evenodd" stroke="none" d="M11.72 1.045a7.54 7.54 0 0 0-4.515 2.16 7.48 7.48 0 0 0-2.192 4.923c-.021.433-.015.536.047.696a.995.995 0 0 0 .937.664.93.93 0 0 0 .691-.276c.218-.213.298-.441.328-.945.051-.829.213-1.476.542-2.16a5.53 5.53 0 0 1 3.964-3.013c.508-.092 1.448-.092 1.956 0a5.52 5.52 0 0 1 4.428 4.428c.094.517.093 1.598-.002 2.118a6 6 0 0 1-.528 1.558c-.443.833-1.027 1.461-2.476 2.665-1.423 1.181-1.951 1.746-2.373 2.537-.322.603-.526 1.392-.528 2.037-.002.876-.409 1.662-1.107 2.137-.15.102-.407.234-.572.294-.268.097-.355.108-.82.108s-.552-.011-.82-.108a2.8 2.8 0 0 1-1.044-.703c-.372-.416-.633-1.092-.636-1.645-.002-.392-.262-.794-.609-.938-.203-.085-.611-.079-.811.013-.206.094-.43.343-.52.58-.095.248-.063.854.074 1.388.425 1.663 1.614 2.854 3.303 3.308.341.092.458.103 1.063.103s.722-.011 1.063-.103c.739-.199 1.379-.53 1.869-.967.994-.887 1.478-1.906 1.568-3.304.042-.65.103-.902.308-1.28.294-.544.646-.9 1.996-2.024 1.093-.91 1.731-1.537 2.214-2.176 1.031-1.364 1.534-3.027 1.47-4.86a7.3 7.3 0 0 0-.657-2.84C18.022 2.495 14.93.717 11.72 1.045m.153 4.015a3.54 3.54 0 0 0-1.915 1.045c-.4.423-.646.854-.824 1.443-.097.322-.107.425-.124 1.225-.021.988.001 1.106.266 1.4.175.194.385.291.704.327.349.038.491.092.668.252.242.219.33.417.33.748 0 .319-.082.515-.304.728-.169.162-.35.237-.654.271-.351.04-.491.093-.672.256a.99.99 0 0 0-.023 1.473c.209.199.406.264.782.259.965-.012 1.894-.542 2.435-1.388.623-.973.608-2.282-.037-3.251-.309-.465-.877-.939-1.333-1.113l-.182-.07.026-.279c.051-.55.385-1.023.884-1.252.206-.095.292-.111.6-.111s.394.016.6.111c.507.233.835.703.884 1.269.045.512.265.865.634 1.019.203.085.561.085.764 0 .365-.152.617-.545.617-.962.001-1.529-1.113-2.949-2.621-3.342-.419-.109-1.098-.135-1.505-.058"/></svg>