<svg xmlns="http://www.w3.org/2000/svg" width="24" height="24" fill="none" stroke="currentColor" stroke-linecap="round" stroke-linejoin="round" stroke-width="2"><path fill="#000" fill-rule="evenodd" stroke="none" d="M11.069 1.042c-2.15.191-4.135.973-5.869 2.312-.524.405-1.572 1.476-1.989 2.033a11.02 11.02 0 0 0-2.029 8.596 11.1 11.1 0 0 0 1.829 4.353 11.5 11.5 0 0 0 2.86 2.795 11.02 11.02 0 0 0 9.789 1.242 10.8 10.8 0 0 0 4.015-2.511c1.252-1.223 2.087-2.526 2.709-4.226.237-.648.198-1.008-.147-1.353-.28-.28-.087-.263-3.057-.263-2.678 0-2.68 0-3.002.092-.959.275-1.734 1.037-2.063 2.028-.092.277-.093.304-.106 2.464l-.013 2.184-.268.047c-.453.08-1.212.165-1.474.165h-.249l-.014-1.79c-.014-1.743-.017-1.797-.107-2.07a3.14 3.14 0 0 0-.973-1.445c-.479-.411-1.034-.625-1.79-.69-.497-.042-.704-.131-.895-.38-.184-.241-.199-.326-.228-1.285-.024-.79-.04-.959-.117-1.2a3.09 3.09 0 0 0-2.02-2.016c-.302-.092-.389-.099-1.471-.115q-1.148-.016-1.15-.058c0-.099.253-.904.402-1.281a9.6 9.6 0 0 1 1.361-2.328c.266-.33.951-1.042.977-1.015.008.008.053.203.1.433.277 1.359 1.164 2.432 2.432 2.944.774.312 1.61.38 1.983.161.753-.441.626-1.56-.205-1.81A1.6 1.6 0 0 0 9.922 7c-.81 0-1.635-.659-1.849-1.477-.051-.195-.069-.434-.071-.928L8 3.931l.27-.121c1.104-.492 2.111-.726 3.456-.804.533-.031.604-.044.772-.143.75-.439.621-1.559-.208-1.808-.196-.059-.648-.064-1.221-.013m6.43-.002a3.06 3.06 0 0 0-2.381 2.1c-.076.238-.092.396-.108 1.062l-.019.781-.306.049a1.88 1.88 0 0 0-1.089.565c-.286.285-.442.55-.536.911-.088.336-.088 3.648 0 3.984.093.36.25.626.536.912s.552.443.912.536c.342.089 6.642.089 6.984 0 .36-.093.626-.25.912-.536.29-.29.437-.541.533-.913.09-.347.092-3.582.003-3.962-.088-.373-.241-.638-.536-.932a1.88 1.88 0 0 0-1.089-.565l-.306-.049-.019-.781c-.016-.666-.032-.824-.108-1.062-.311-.97-1.081-1.736-2.021-2.011-.361-.106-1.029-.149-1.362-.089m.811 2.021a.9.9 0 0 1 .387.242c.251.251.303.448.303 1.144V5h-2v-.553c0-.697.052-.893.304-1.144q.417-.418 1.006-.242M21 8.5V10h-6V7h6zM5.308 12.06c.235.07.504.308.603.533.05.114.071.354.092 1.067.023.792.039.959.116 1.2.38 1.194 1.432 2.042 2.636 2.124.521.035.727.105.941.319.294.294.304.359.304 2.029v1.437l-.15-.028c-.341-.063-1.267-.403-1.792-.659a8.97 8.97 0 0 1-4.895-6.422C3.08 13.216 3 12.484 3 12.17V12h1.053c.82 0 1.097.013 1.255.06m14.732 3.972c0 .049-.39.716-.606 1.037a9.1 9.1 0 0 1-3.012 2.766 4 4 0 0 1-.39.205c-.018 0-.032-.717-.032-1.593 0-1.82.003-1.844.307-2.148.289-.288.323-.293 2.143-.296.875-.002 1.59.011 1.59.029"/></svg>