<svg xmlns="http://www.w3.org/2000/svg" width="24" height="24" fill="none" stroke="currentColor" stroke-linecap="round" stroke-linejoin="round" stroke-width="2"><path fill="#000" fill-rule="evenodd" stroke="none" d="m11.28 1.023-.56.06A10.7 10.7 0 0 0 7.18 2.12c-1.135.551-1.987 1.165-2.942 2.119-.961.959-1.595 1.841-2.141 2.981C.301 10.968.728 15.286 3.226 18.633c.46.615 1.526 1.681 2.141 2.141 3.663 2.733 8.487 2.97 12.37.608.741-.451 1.319-.913 2.025-1.62 1.444-1.443 2.364-3.033 2.874-4.962.861-3.26.183-6.692-1.866-9.437-.454-.608-1.523-1.677-2.13-2.128-1.595-1.186-3.275-1.875-5.217-2.139C13 1.038 11.574.99 11.28 1.023m2.04 2.078a9.06 9.06 0 0 1 6.014 3.685l.148.206-1.011.017c-.93.017-1.037.026-1.332.116-.496.151-.83.359-1.243.771-.575.575-.818 1.102-.89 1.93-.042.479-.076.593-.232.799-.338.443-1.04.492-1.443.101-.227-.22-.294-.396-.335-.88-.061-.716-.277-1.273-.675-1.738-.617-.721-1.26-1.032-2.277-1.105-.711-.051-1.074-.201-1.472-.611C8.128 5.936 8 5.526 8 4.566v-.637l.37-.161a9.3 9.3 0 0 1 2.95-.743c.356-.033 1.589.014 2 .076M6.08 5.76c.277 1.359 1.164 2.432 2.432 2.944.398.16 1.02.296 1.357.296.365 0 .617.092.828.304.215.214.284.42.32.945.049.723.32 1.295.879 1.855.403.402.722.604 1.217.769.273.09.372.102.887.102s.614-.012.887-.102c.959-.32 1.711-1.08 1.989-2.013.046-.154.1-.472.12-.706.04-.467.106-.654.305-.853.281-.28.286-.281 1.815-.281h1.376l.073.214c.117.344.265.99.341 1.486.131.855.078 2.475-.103 3.152l-.029.108-2.157.021-2.157.022-.321.1c-.956.298-1.699 1.038-2.024 2.017-.092.277-.093.304-.106 2.464l-.013 2.185-.388.066a10 10 0 0 1-1.355.145h-.248l-.014-1.79c-.014-1.743-.017-1.797-.107-2.07a3.14 3.14 0 0 0-.973-1.445c-.479-.411-1.034-.625-1.79-.69-.497-.042-.704-.131-.895-.38-.184-.241-.199-.326-.228-1.285-.024-.79-.04-.959-.117-1.2a3.09 3.09 0 0 0-2.02-2.016c-.302-.092-.389-.099-1.475-.115l-1.154-.016.027-.147c.063-.338.405-1.265.659-1.786a8.6 8.6 0 0 1 1.065-1.686c.289-.361.969-1.075.997-1.047.008.008.053.203.1.433m-.772 6.3c.235.07.504.308.603.533.05.114.071.354.092 1.067.023.792.039.959.116 1.2.38 1.194 1.432 2.042 2.636 2.124.521.035.727.105.941.319.294.294.304.359.304 2.029v1.437l-.15-.028c-.677-.127-2.08-.741-2.81-1.23a9.04 9.04 0 0 1-3.12-3.571c-.552-1.138-.824-2.189-.904-3.49L2.989 12h1.058c.826 0 1.103.013 1.261.06m14.732 3.967c0 .014-.075.163-.166.33-.658 1.202-1.732 2.367-2.894 3.139-.316.21-.902.544-.953.544-.015 0-.027-.717-.027-1.593 0-1.82.003-1.844.307-2.148.289-.288.323-.293 2.143-.296.875-.002 1.59.009 1.59.024"/></svg>