<svg xmlns="http://www.w3.org/2000/svg" width="24" height="24" fill="none" stroke="currentColor" stroke-linecap="round" stroke-linejoin="round" stroke-width="2"><path fill="#000" fill-rule="evenodd" stroke="none" d="m11.28 1.023-.56.06c-1.888.2-3.729.94-5.36 2.152-.609.453-1.676 1.52-2.134 2.132C.728 8.714.301 13.032 2.097 16.78c.546 1.138 1.179 2.021 2.141 2.982.961.962 1.844 1.595 2.982 2.141 3.747 1.796 8.068 1.367 11.417-1.133.609-.454 1.679-1.524 2.133-2.133 2.974-3.985 2.974-9.289 0-13.274-.454-.608-1.523-1.677-2.13-2.128-1.595-1.186-3.275-1.875-5.217-2.139C13 1.038 11.574.99 11.28 1.023m1.88 2.061c1.577.187 3.181.87 4.471 1.903 1.8 1.442 3.02 3.616 3.285 5.853.084.709.084.705-.031.814-.383.359-1.314.888-1.905 1.08-1.361.443-2.606.443-3.96-.001-.869-.284-1.807-.896-2.454-1.598-1.526-1.656-2.015-3.944-1.301-6.095.212-.64.662-1.446 1.06-1.9.127-.145.1-.143.835-.056m-3.434.426c-.321.64-.625 1.642-.731 2.41-.068.489-.068 1.671 0 2.16a8.14 8.14 0 0 0 6.945 6.927c.463.066 1.657.066 2.12 0a8.6 8.6 0 0 0 2.29-.669c.275-.128.37-.157.37-.114 0 .033-.082.306-.182.608-.636 1.912-1.897 3.554-3.611 4.7-.789.528-2.051 1.056-3.019 1.265a9.05 9.05 0 0 1-7.538-1.778c-1.513-1.212-2.648-2.99-3.103-4.859-.186-.763-.244-1.272-.244-2.16 0-1.493.257-2.621.897-3.94a9 9 0 0 1 5.24-4.597c.716-.24.71-.24.566.047"/></svg>