<svg xmlns="http://www.w3.org/2000/svg" width="24" height="24" fill="none" stroke="currentColor" stroke-linecap="round" stroke-linejoin="round" stroke-width="2"><path fill="#000" fill-rule="evenodd" stroke="none" d="M8.78 1.025c-3.819.317-6.366 2.656-6.743 6.195-.074.695-.03 1.269.177 2.3.1.495.202 1.059.228 1.253.059.447.032 1.191-.05 1.417a10 10 0 0 1-.425.8c-.532.925-.722 1.412-.871 2.234-.102.559-.103 1.853-.003 2.351.355 1.763 1.405 3.176 3.104 4.176 2.028 1.193 4.983 1.59 6.875.923.696-.246 1.147-.523 2.118-1.302.709-.568.993-.741 1.33-.807.121-.024.598-.061 1.06-.084 2.535-.122 4.207-.742 5.5-2.039.831-.833 1.313-1.711 1.639-2.982.205-.803.259-1.297.259-2.4-.001-.87-.012-1.062-.091-1.48-.221-1.172-.623-1.989-1.327-2.702-.467-.473-.843-.741-2.056-1.465-2.065-1.233-2.478-1.574-3.456-2.853-1.014-1.328-1.582-1.946-2.17-2.366A7 7 0 0 0 12.58 1.5a9 9 0 0 0-1.631-.401c-.443-.06-1.78-.106-2.169-.074m1.917 2.056c.778.111 1.444.353 1.987.721.358.244.792.7 1.313 1.381.786 1.027 1.048 1.345 1.442 1.752.703.727 1.292 1.153 3.021 2.183 1.073.64 1.431.893 1.755 1.243.603.651.861 1.766.753 3.252-.076 1.036-.229 1.677-.565 2.367-.566 1.159-1.523 1.881-3 2.261-.455.117-1.135.202-1.923.239-.929.043-1.284.086-1.664.2-.584.176-1.024.439-1.836 1.099-.664.54-.924.721-1.274.882-.44.203-.882.3-1.49.327-1.479.065-3.11-.365-4.279-1.129-.493-.322-1.179-1.017-1.412-1.43-.397-.704-.497-1.111-.499-2.009-.001-.978.121-1.466.56-2.225.768-1.328.905-1.748.901-2.761-.002-.616-.079-1.199-.297-2.229-.146-.691-.166-.847-.165-1.305 0-.286.024-.664.052-.84.252-1.567 1.157-2.779 2.583-3.46.669-.32 1.233-.475 2.04-.558.438-.045 1.563-.023 1.997.039m.203 4.964c-1.469.184-2.849 1.2-3.479 2.564a4.5 4.5 0 0 0 .256 4.255c.61.991 1.565 1.686 2.76 2.007.341.092.458.103 1.063.103s.722-.011 1.063-.103c1.987-.534 3.327-2.16 3.425-4.154.138-2.796-2.286-5.022-5.088-4.672m1.12 2.015a2.5 2.5 0 0 1 1.695 1.302c.372.756.375 1.516.008 2.258a2.53 2.53 0 0 1-1.403 1.248c-.268.097-.355.108-.82.108s-.552-.011-.82-.108a2.53 2.53 0 0 1-1.403-1.248c-.93-1.88.695-3.989 2.743-3.56"/></svg>