<svg xmlns="http://www.w3.org/2000/svg" width="24" height="24" fill="none" stroke="currentColor" stroke-linecap="round" stroke-linejoin="round" stroke-width="2"><path fill="#000" fill-rule="evenodd" stroke="none" d="M1.67 1.061c-.222.081-.42.248-.542.455-.091.156-.108.23-.108.484s.016.327.107.48c.06.099.99 1.061 2.067 2.137l1.96 1.957-.163.323A17.5 17.5 0 0 0 3.942 9.6c-.509 1.752-.624 3.67-.338 5.64.329 2.27 1.212 4.179 2.546 5.504 1.433 1.426 3.277 2.168 5.57 2.242 2.07.068 3.985-.506 5.441-1.631.408-.315.972-.866 1.222-1.193l.154-.203 1.442 1.436c.792.79 1.504 1.47 1.581 1.51.099.052.228.074.44.074.258.001.327-.015.492-.112.476-.28.647-.9.373-1.359-.055-.092-4.65-4.715-10.212-10.273C3.3 1.889 2.525 1.125 2.343 1.065a1 1 0 0 0-.673-.004m9.93-.036c-.954.121-1.724.42-2.614 1.015-.581.389-.882.672-.963.908a.96.96 0 0 0 .204 1.012.9.9 0 0 0 .738.325c.274-.001.43-.062.695-.272.541-.427 1.212-.791 1.7-.921a2.85 2.85 0 0 1 1.358.023c.745.23 1.457.701 2.244 1.485 1.241 1.235 2.224 2.841 2.917 4.76.47 1.304.641 2.317.654 3.88.007.844.012.91.095 1.065.408.763 1.467.748 1.807-.025.11-.252.144-.995.088-1.931-.091-1.532-.419-2.9-1.067-4.456-1.506-3.618-4.132-6.327-6.583-6.792-.346-.066-1.031-.106-1.273-.076m5.33 17.752c-.285.377-.877.939-1.255 1.193-1.082.724-2.472 1.08-3.975 1.017-2.202-.091-3.865-.981-4.925-2.635-.779-1.215-1.213-2.765-1.292-4.612-.085-2.001.206-3.483 1.075-5.478l.086-.198 5.235 5.235 5.235 5.235z"/></svg>