<svg xmlns="http://www.w3.org/2000/svg" width="24" height="24" fill="none" stroke="currentColor" stroke-linecap="round" stroke-linejoin="round" stroke-width="2"><path fill="#000" fill-rule="evenodd" stroke="none" d="M18.64 4.068c-.153.053-.469.35-2.121 1.997L14.577 8H9.735c-3.987 0-4.874.01-5.025.055a1.02 1.02 0 0 0-.582.461c-.091.156-.108.23-.108.484 0 .256.016.328.111.489.125.213.318.375.539.454.121.043.893.054 4.03.055l3.88.002-2 2-2 2H6.737c-2.002 0-2.074.007-2.355.221-.08.061-.195.194-.254.295-.091.156-.108.23-.108.484 0 .256.016.328.111.489.061.103.173.236.25.294.254.194.372.213 1.318.215l.879.002-1.204 1.21c-.663.665-1.238 1.273-1.279 1.35-.052.099-.074.227-.074.44-.001.258.015.327.112.492.28.476.9.647 1.359.373.092-.055 1.014-.947 2.048-1.982L9.42 16l4.88-.002c3.972-.001 4.908-.011 5.03-.055.221-.079.414-.241.539-.454.095-.161.111-.233.111-.489 0-.254-.017-.328-.108-.484a1.2 1.2 0 0 0-.254-.295c-.298-.227-.183-.221-4.354-.221H11.42l2-2 2-2 1.88-.002c1.466-.001 1.913-.013 2.03-.055.221-.079.414-.241.539-.454.095-.161.111-.233.111-.489 0-.254-.017-.328-.108-.484a1.2 1.2 0 0 0-.254-.295c-.252-.192-.43-.221-1.353-.221h-.843l1.204-1.21c.663-.665 1.238-1.273 1.279-1.35.052-.099.074-.227.074-.44.001-.255-.015-.328-.107-.484a1.016 1.016 0 0 0-1.232-.448"/></svg>