<svg xmlns="http://www.w3.org/2000/svg" width="24" height="24" fill="none" stroke="currentColor" stroke-linecap="round" stroke-linejoin="round" stroke-width="2"><path fill="#000" fill-rule="evenodd" stroke="none" d="M7.52 7.044a7.6 7.6 0 0 0-2.779.947c-.412.242-.593.425-.681.69a.99.99 0 0 0 1.044 1.307c.161-.017.308-.074.572-.226C6.647 9.207 7.412 9 8.5 9c1.156 0 1.893.215 3.023.882.634.373 1.033.559 1.623.756a7.5 7.5 0 0 0 6.195-.678c.373-.226.507-.372.605-.659.226-.663-.346-1.37-1.044-1.291-.183.02-.215.035-.862.382-.778.417-1.607.619-2.54.619-.66 0-1.144-.076-1.727-.271-.473-.158-.75-.291-1.343-.647-.975-.585-1.924-.919-2.989-1.051-.391-.048-1.539-.048-1.921.002m0 6a7.6 7.6 0 0 0-2.779.947c-.412.242-.593.425-.681.69a.99.99 0 0 0 1.044 1.307c.161-.017.308-.074.572-.226C6.647 15.207 7.412 15 8.5 15c1.156 0 1.893.215 3.023.882.634.373 1.033.559 1.623.756a7.5 7.5 0 0 0 6.195-.678c.373-.226.507-.372.605-.659.226-.663-.346-1.37-1.044-1.291-.183.02-.215.035-.862.382-.778.417-1.607.619-2.54.619-.66 0-1.144-.076-1.727-.271-.473-.158-.75-.291-1.343-.647-.975-.585-1.924-.919-2.989-1.051-.391-.048-1.539-.048-1.921.002"/></svg>