<svg xmlns="http://www.w3.org/2000/svg" width="24" height="24" fill="none" stroke="currentColor" stroke-linecap="round" stroke-linejoin="round" stroke-width="2"><path fill="#000" fill-rule="evenodd" stroke="none" d="M13.52 1.988a3.8 3.8 0 0 0-1.4.564c-.258.166-10.225 10.096-10.507 10.468a3.03 3.03 0 0 0-.642 1.784c-.035.758.127 1.38.517 1.981.294.453 4.794 4.978 5.092 5.119l.2.095 7.7-.001c6.329-.001 7.727-.011 7.85-.055.221-.079.414-.241.539-.454.095-.161.111-.233.111-.489 0-.254-.017-.328-.108-.484a1.2 1.2 0 0 0-.254-.295c-.295-.225-.226-.221-3.854-.221h-3.343l3.464-3.47c1.905-1.908 3.518-3.551 3.584-3.65.185-.276.354-.632.457-.961.081-.258.094-.381.094-.899 0-.517-.013-.642-.094-.9a3.5 3.5 0 0 0-.625-1.185c-.421-.52-6.2-6.261-6.492-6.448a3.6 3.6 0 0 0-1.137-.464c-.282-.058-.905-.077-1.152-.035m1.045 2.088c.135.068 1.019.928 3.209 3.119 3.429 3.432 3.246 3.215 3.246 3.845 0 .278-.017.373-.094.524-.068.133-1.06 1.151-3.51 3.6L14 18.58l-3.79-3.79L6.42 11l3.3-3.303c1.815-1.816 3.369-3.357 3.453-3.425s.255-.166.38-.219c.302-.127.736-.117 1.012.023M8.8 16.22 12.58 20H7.418l-2.107-2.11c-2.407-2.411-2.331-2.315-2.331-2.93 0-.277.017-.373.093-.52.058-.112.433-.521 1-1.09.498-.5.916-.91.927-.91s1.721 1.701 3.8 3.78"/></svg>