<svg xmlns="http://www.w3.org/2000/svg" width="24" height="24" fill="none" stroke="currentColor" stroke-linecap="round" stroke-linejoin="round" stroke-width="2"><path fill="#000" fill-rule="evenodd" stroke="none" d="M3.499 3.043C2.38 3.232 1.461 4.048 1.114 5.16l-.094.3v10.08l.094.3a3.1 3.1 0 0 0 2.026 2.043c.256.083.372.092 1.36.107l1.08.016 1.44 1.431c1.278 1.27 1.462 1.439 1.637 1.497S9.187 21 12 21s3.167-.007 3.343-.066c.175-.058.359-.227 1.637-1.497l1.44-1.431 1.08-.016c.988-.015 1.104-.024 1.36-.107a3.1 3.1 0 0 0 2.026-2.043l.094-.3V5.46l-.094-.3a3.09 3.09 0 0 0-2.025-2.039l-.321-.101-8.42-.006c-4.631-.003-8.511.01-8.621.029M20.31 5.061c.279.083.546.35.629.629.053.178.061.804.061 4.811 0 5 .008 4.817-.221 5.117-.061.08-.194.195-.295.254l-.184.108-1.28.02c-1.154.018-1.296.028-1.44.097-.102.048-.68.593-1.581 1.49L14.578 19H9.422l-1.421-1.413c-.901-.897-1.479-1.442-1.581-1.49-.144-.069-.286-.079-1.44-.097l-1.28-.02-.184-.108a1.05 1.05 0 0 1-.458-.556c-.089-.255-.087-9.324.003-9.626.079-.269.351-.547.612-.627.16-.049 1.357-.058 8.31-.06 7.161-.003 8.147.004 8.327.058M5.695 7.057a1.04 1.04 0 0 0-.567.459c-.108.183-.108.187-.108.987v.803l.121.197a.998.998 0 0 0 1.718 0l.121-.197v-.803c0-.8 0-.804-.108-.987a1.005 1.005 0 0 0-1.177-.459m4 0a1.04 1.04 0 0 0-.567.459c-.108.183-.108.187-.108.987v.803l.121.197a.998.998 0 0 0 1.718 0l.121-.197v-.803c0-.8 0-.804-.108-.987a1.005 1.005 0 0 0-1.177-.459m4 0a1.04 1.04 0 0 0-.567.459c-.108.183-.108.187-.108.987v.803l.121.197a.998.998 0 0 0 1.718 0l.121-.197v-.803c0-.8 0-.804-.108-.987a1.005 1.005 0 0 0-1.177-.459m4 0a1.04 1.04 0 0 0-.567.459c-.108.183-.108.187-.108.987v.803l.121.197a.998.998 0 0 0 1.718 0l.121-.197v-.803c0-.8 0-.804-.108-.987a1.005 1.005 0 0 0-1.177-.459"/></svg>