<svg xmlns="http://www.w3.org/2000/svg" width="24" height="24" fill="none" stroke="currentColor" stroke-linecap="round" stroke-linejoin="round" stroke-width="2"><path fill="#000" fill-rule="evenodd" stroke="none" d="M13.06 3.042c-3.312.325-6.17 2.454-7.405 5.518l-.169.42-.873.022c-.548.013-.915.039-.986.07a1.13 1.13 0 0 0-.499.444c-.091.156-.108.23-.108.484 0 .256.016.328.111.489.125.213.318.375.539.454.099.035.354.054.75.055l.6.002v2h-.564c-.809 0-1.088.109-1.328.516-.091.156-.108.23-.108.484 0 .256.016.328.111.489.061.103.173.236.25.294.252.193.375.213 1.279.215L5.5 15l.096.25c.949 2.489 2.989 4.467 5.459 5.292 2.871.959 5.861.391 8.349-1.588.422-.335.554-.531.587-.87.051-.534-.341-1.004-.892-1.069-.285-.034-.503.04-.789.266-.448.354-1.162.818-1.55 1.008-1.503.735-3.168.9-4.712.468a6.9 6.9 0 0 1-2.188-1.063c-.405-.295-1.132-1.018-1.441-1.434-.223-.301-.739-1.158-.739-1.228 0-.018 1.238-.033 2.75-.034 2.193-.001 2.78-.012 2.9-.055.221-.079.414-.241.539-.454.095-.161.111-.233.111-.489 0-.254-.017-.328-.108-.484a1.2 1.2 0 0 0-.254-.295c-.293-.223-.254-.221-3.522-.221H7.085l-.031-.19c-.039-.24-.04-1.553-.001-1.7l.029-.11 4.549-.002c3.696-.001 4.577-.012 4.699-.055.221-.079.414-.241.539-.454.095-.161.111-.233.111-.489 0-.254-.017-.328-.108-.484a1.2 1.2 0 0 0-.254-.295C16.319 8.993 16.469 9 11.87 9H7.633l.167-.31c.679-1.264 1.758-2.325 3.005-2.952 1.101-.555 2.407-.809 3.595-.699a6.6 6.6 0 0 1 3.691 1.509c.417.343.546.413.803.44a.992.992 0 0 0 1.045-1.312c-.084-.252-.314-.491-.883-.919-1.714-1.288-3.916-1.918-5.996-1.715"/></svg>