<svg xmlns="http://www.w3.org/2000/svg" width="24" height="24" fill="none" stroke="currentColor" stroke-linecap="round" stroke-linejoin="round" stroke-width="2"><path fill="#000" fill-rule="evenodd" stroke="none" d="M1.67 1.061c-.222.081-.42.248-.542.455-.092.156-.108.229-.107.484 0 .212.022.341.074.44.04.077.921.99 1.957 2.029s1.876 1.895 1.866 1.902c-.437.339-.765.632-1.22 1.087-.978.979-1.664 1.933-2.245 3.122-.595 1.216-.599 1.58-.036 2.76a11.63 11.63 0 0 0 5.363 5.421c1.157.571 2.294.931 3.544 1.125.48.074.749.089 1.616.091.648.002 1.183-.017 1.42-.049 1.312-.18 2.506-.519 3.545-1.008l.405-.19 2.015 2.018c1.108 1.109 2.096 2.065 2.195 2.125.153.091.226.107.48.107.257 0 .327-.016.492-.113.476-.28.647-.9.373-1.359-.055-.092-4.65-4.715-10.212-10.273C3.3 1.889 2.525 1.125 2.343 1.065a1 1 0 0 0-.673-.004m9.39 2.982c-.588.051-.808.119-.996.306-.233.232-.318.428-.319.731 0 .386.194.698.555.894.147.079.202.084.66.066.911-.036 1.883-.013 2.375.057a9.76 9.76 0 0 1 7.384 5.321l.29.585-.285.571c-.156.315-.433.791-.614 1.06-.509.754-.578.873-.606 1.049-.073.458.21.921.67 1.097a1 1 0 0 0 1.03-.246c.345-.377.91-1.265 1.305-2.051.643-1.282.648-1.656.038-2.903a11 11 0 0 0-1.552-2.38c-1.896-2.261-4.529-3.701-7.495-4.1-.588-.079-1.846-.108-2.44-.057M7.464 8.884l1.085 1.084-.131.266a3.96 3.96 0 0 0-.339 2.523c.278 1.36 1.166 2.436 2.433 2.947a3.97 3.97 0 0 0 3.254-.122l.266-.131.889.89.889.889-.329.127c-2.734 1.054-5.907.786-8.435-.712a9.83 9.83 0 0 1-3.773-4.075l-.28-.569.288-.584a9.7 9.7 0 0 1 1.905-2.623c.343-.336 1.117-.991 1.174-.993.011-.001.508.487 1.104 1.083m3.834 3.834c.659.66 1.186 1.212 1.17 1.227-.015.016-.167.036-.338.046a1.92 1.92 0 0 1-1.477-.526 2 2 0 0 1-.65-1.425c-.002-.25.035-.52.072-.52.014 0 .565.539 1.223 1.198"/></svg>