<svg xmlns="http://www.w3.org/2000/svg" width="24" height="24" fill="none" stroke="currentColor" stroke-linecap="round" stroke-linejoin="round" stroke-width="2"><path fill="#000" fill-rule="evenodd" stroke="none" d="M1.643 7.066c-.387.142-.674.599-.634 1.008.034.347.629 1.659 1.079 2.38.501.803 1.255 1.738 1.852 2.297.237.222.337.341.316.377a25 25 0 0 1-.564.684c-.292.347-.56.687-.595.754-.099.191-.118.515-.043.735a1 1 0 0 0 .457.568c.158.093.235.111.469.111.465 0 .555-.065 1.285-.933l.637-.759c.005-.006.105.045.223.115.553.327 1.378.706 2.005.923.214.073.39.153.39.176s-.119.572-.264 1.22c-.293 1.312-.303 1.462-.118 1.779.426.726 1.519.626 1.796-.164.03-.086.169-.675.309-1.308.199-.902.266-1.147.309-1.13.031.012.37.043.752.068a9 9 0 0 0 1.392 0c.382-.025.721-.056.752-.068.043-.017.11.228.309 1.13.14.633.279 1.222.309 1.308.277.79 1.37.89 1.796.164.185-.317.175-.467-.118-1.779a46 46 0 0 1-.264-1.22c0-.023.176-.103.39-.176a12.4 12.4 0 0 0 2.005-.923c.118-.07.218-.121.223-.115l.637.759c.73.868.82.933 1.285.933.234 0 .311-.018.469-.111a1 1 0 0 0 .457-.568c.074-.219.056-.544-.042-.733-.034-.066-.314-.42-.623-.787a14 14 0 0 1-.561-.689c0-.013.155-.168.344-.345.61-.571 1.368-1.516 1.866-2.327.489-.797 1.07-2.105 1.07-2.41 0-.752-.784-1.223-1.467-.882-.244.122-.384.301-.538.689-.285.717-.717 1.52-1.13 2.103a9.68 9.68 0 0 1-5.345 3.734 9.62 9.62 0 0 1-9.154-2.316 9.8 9.8 0 0 1-2.361-3.521 2.2 2.2 0 0 0-.242-.46c-.24-.292-.753-.425-1.12-.291"/></svg>