<svg xmlns="http://www.w3.org/2000/svg" width="24" height="24" fill="none" stroke="currentColor" stroke-linecap="round" stroke-linejoin="round" stroke-width="2"><path fill="#000" fill-rule="evenodd" stroke="none" d="M11.4 4.024a15 15 0 0 0-1.54.182 11.75 11.75 0 0 0-8.378 6.332c-.651 1.326-.647 1.641.035 2.994a11.72 11.72 0 0 0 7.543 6.086 11.73 11.73 0 0 0 13.424-6.088c.687-1.362.687-1.698-.001-3.062A11.74 11.74 0 0 0 13.3 4.082c-.408-.045-1.568-.08-1.9-.058m1.362 2.018c1.694.13 3.203.65 4.616 1.588a9.5 9.5 0 0 1 3.328 3.76l.305.61-.305.61c-.168.336-.424.79-.569 1.01-1.455 2.201-3.787 3.747-6.357 4.215a9.7 9.7 0 0 1-8.04-2.117 9.45 9.45 0 0 1-2.467-3.148L2.991 12l.282-.57c.56-1.133 1.204-2.002 2.08-2.805 2.062-1.892 4.654-2.796 7.409-2.583m-1.404 2.019c-1.128.176-2.215.913-2.789 1.892a3.992 3.992 0 0 0 1.943 5.751 3.99 3.99 0 0 0 5.192-2.216 3.96 3.96 0 0 0 .001-2.972 3.98 3.98 0 0 0-3.1-2.458 3.7 3.7 0 0 0-1.247.003m1.165 2.012a2.01 2.01 0 0 1 1.444 1.617c.1.653-.094 1.243-.564 1.714-.401.403-.856.596-1.403.596q-.771 0-1.347-.535c-1.33-1.236-.464-3.46 1.347-3.46.143 0 .378.031.523.068"/></svg>