<svg xmlns="http://www.w3.org/2000/svg" width="24" height="24" fill="none" stroke="currentColor" stroke-linecap="round" stroke-linejoin="round" stroke-width="2"><path fill="#000" fill-rule="evenodd" stroke="none" d="M3.499 1.042A3.05 3.05 0 0 0 1.114 3.16l-.094.3v17.08l.094.3a3.09 3.09 0 0 0 2.046 2.046l.3.094h17.08l.3-.094a3.09 3.09 0 0 0 2.046-2.046l.094-.3V7.7l-.108-.184a1.016 1.016 0 0 0-1.162-.468c-.097.029-1.235.816-2.925 2.023l-2.765 1.975L16 9.373 15.98 7.7l-.108-.184a1.016 1.016 0 0 0-1.162-.468c-.097.029-1.235.816-2.925 2.023L9.02 11.046 9 7.233 8.98 3.42l-.094-.28c-.329-.983-1.072-1.722-2.025-2.016-.313-.097-.357-.1-1.741-.109-.781-.005-1.511.007-1.621.027M6.31 3.061c.279.083.546.35.629.629.053.178.061.806.061 4.832 0 5.039-.01 4.799.222 5.104.221.29.678.437 1.047.337.119-.032 1.007-.644 2.94-2.024L13.98 9.96l.02 1.65c.021 1.751.022 1.753.224 2.019.219.287.677.433 1.045.334.119-.032 1.007-.644 2.94-2.024L20.98 9.96l.012 5.03c.009 3.528-.001 5.091-.031 5.234-.056.26-.237.507-.475.647l-.186.109H3.7l-.184-.108a1.2 1.2 0 0 1-.291-.249c-.24-.315-.225.265-.225-8.601 0-9.134-.026-8.39.304-8.719.28-.281.371-.297 1.679-.3.895-.002 1.164.009 1.327.058m.385 13.996a1.04 1.04 0 0 0-.567.459c-.091.156-.108.23-.108.484 0 .256.016.328.111.489.125.213.318.375.539.454.208.074 1.452.074 1.66 0 .221-.079.414-.241.539-.454.095-.161.111-.233.111-.489 0-.254-.017-.328-.108-.484a1.02 1.02 0 0 0-.582-.461c-.24-.072-1.362-.071-1.595.002m5 0a1.04 1.04 0 0 0-.567.459c-.091.156-.108.23-.108.484 0 .256.016.328.111.489.125.213.318.375.539.454.208.074 1.452.074 1.66 0 .221-.079.414-.241.539-.454.095-.161.111-.233.111-.489 0-.254-.017-.328-.108-.484a1.02 1.02 0 0 0-.582-.461c-.24-.072-1.362-.071-1.595.002m5 0a1.04 1.04 0 0 0-.567.459c-.091.156-.108.23-.108.484 0 .256.016.328.111.489.125.213.318.375.539.454.208.074 1.452.074 1.66 0 .221-.079.414-.241.539-.454.095-.161.111-.233.111-.489 0-.254-.017-.328-.108-.484a1.02 1.02 0 0 0-.582-.461c-.24-.072-1.362-.071-1.595.002"/></svg>