<svg xmlns="http://www.w3.org/2000/svg" width="24" height="24" fill="none" stroke="currentColor" stroke-linecap="round" stroke-linejoin="round" stroke-width="2"><path fill="#000" fill-rule="evenodd" stroke="none" d="M12.46 1.026c-1.485.177-2.625.613-3.68 1.408-.31.233-1.013.918-1.259 1.226a7.1 7.1 0 0 0-1.543 4.76c.015.286.042.61.06.72s.027.207.02.215c-.008.008-.836-.206-1.841-.474-1.912-.512-2.095-.545-2.387-.423-.184.077-.416.278-.494.429-.088.171-.214.712-.278 1.191-.221 1.655.205 3.418 1.174 4.859.287.427.962 1.158 1.399 1.515a7.1 7.1 0 0 0 4.789 1.571c.286-.015.61-.042.72-.061a1 1 0 0 1 .214-.02c.008.007-.203.829-.47 1.826-.266.996-.495 1.869-.508 1.938-.038.199.082.538.265.745.192.219.382.298 1.039.434.399.082.569.095 1.28.093.737-.001.871-.012 1.329-.11 1.001-.213 1.86-.57 2.648-1.1.427-.287 1.158-.962 1.515-1.399a7.1 7.1 0 0 0 1.57-4.789 10 10 0 0 0-.06-.72 1 1 0 0 1-.02-.214c.007-.008.838.208 1.846.479 1.927.519 2.082.547 2.381.419.187-.08.417-.281.495-.431.088-.171.214-.712.278-1.191.221-1.655-.202-3.406-1.173-4.862-.341-.51-1.232-1.412-1.769-1.79a8.5 8.5 0 0 0-1.622-.863 8.7 8.7 0 0 0-1.518-.373c-.428-.063-1.574-.063-1.938 0-.141.024-.265.037-.274.027s.201-.832.468-1.829c.266-.996.495-1.869.508-1.938.073-.38-.288-.907-.705-1.031-.707-.21-1.8-.315-2.459-.237m.9 2c0 .015-.26 1-.578 2.19s-.589 2.23-.604 2.311c-.062.353.206.821.571.994.312.148.552.128 1.071-.089.547-.23.755-.295 1.16-.368a5.2 5.2 0 0 1 2.097.042c1.787.412 3.243 1.814 3.736 3.596.098.356.186.994.187 1.352v.315l-.11-.027c-.061-.014-1.055-.28-2.21-.589-2.214-.594-2.385-.626-2.689-.496a1 1 0 0 0-.605.903c-.002.178.034.304.188.66.369.851.511 1.683.43 2.518-.074.751-.204 1.219-.51 1.836a5.06 5.06 0 0 1-4.324 2.814c-.292.013-.53.009-.53-.009s.26-1.006.578-2.196.589-2.229.603-2.31a.85.85 0 0 0-.036-.36.966.966 0 0 0-.949-.713c-.2 0-.319.031-.631.165-.793.339-1.333.453-2.145.452-1.37-.001-2.579-.501-3.556-1.473-.703-.698-1.162-1.541-1.388-2.544-.08-.359-.151-1.36-.096-1.36.018 0 1.048.271 2.288.603 2.397.641 2.371.637 2.716.493a1 1 0 0 0 .59-.896c.002-.178-.034-.304-.188-.66-.632-1.457-.604-2.978.08-4.354a5.07 5.07 0 0 1 4.504-2.821c.193-.003.35.007.35.021m-1.665 8.031a1.04 1.04 0 0 0-.567.459c-.092.156-.108.229-.107.484.001.332.08.533.285.728.479.453 1.274.318 1.587-.268.132-.249.122-.7-.021-.944a1.005 1.005 0 0 0-1.177-.459"/></svg>