<svg xmlns="http://www.w3.org/2000/svg" width="24" height="24" fill="none" stroke="currentColor" stroke-linecap="round" stroke-linejoin="round" stroke-width="2"><path fill="#000" fill-rule="evenodd" stroke="none" d="M15.2 1.044a7.04 7.04 0 0 0-3.42 1.369c-.202.15-1.6 1.518-3.803 3.722L4.493 9.62l-.166.34c-.328.668-.306.343-.315 4.718l-.009 3.897-1.417 1.423c-.78.782-1.448 1.483-1.485 1.557-.229.454-.045 1.046.407 1.312.165.097.234.113.492.112.212 0 .341-.022.44-.074.077-.041.781-.712 1.564-1.492l1.423-1.419 3.762.005c4.049.004 4.038.004 4.599-.206.496-.185.678-.353 4.155-3.84 2.017-2.022 3.461-3.502 3.605-3.694 1.672-2.222 1.912-5.107.627-7.538-.938-1.776-2.669-3.103-4.615-3.541a7.4 7.4 0 0 0-2.36-.136m1.646 2.034a4.87 4.87 0 0 1 2.59 1.301c1.244 1.187 1.772 2.84 1.461 4.572a5.4 5.4 0 0 1-.426 1.269c-.315.631-.524.878-1.986 2.35L17.064 14h-5.643l2.705-2.71c1.488-1.49 2.739-2.773 2.779-2.85.052-.099.074-.228.074-.44.001-.255-.015-.328-.107-.484a1 1 0 0 0-1.215-.451c-.181.06-.585.452-4.928 4.79L5.998 16.58l.011-2.76c.01-2.612.015-2.769.087-2.92.051-.108 1.139-1.224 3.38-3.464 2.986-2.986 3.343-3.329 3.705-3.568 1.135-.748 2.366-1.014 3.665-.79M14.619 16.46c-.803.862-1.392 1.403-1.603 1.475-.168.057-.503.065-2.893.065H7.421l.999-1 .999-1h5.629z"/></svg>