<svg xmlns="http://www.w3.org/2000/svg" width="24" height="24" fill="none" stroke="currentColor" stroke-linecap="round" stroke-linejoin="round" stroke-width="2"><path fill="#000" fill-rule="evenodd" stroke="none" d="M3.64 2.068c-.15.052-.372.254-1.345 1.227-1.028 1.029-1.172 1.188-1.23 1.362-.059.18-.065.879-.064 7.9 0 8.394-.012 7.948.224 8.413.135.267.538.67.805.805.398.202.598.224 1.99.222 1.077-.001 1.322-.012 1.543-.07a1.93 1.93 0 0 0 1.172-.901c.203-.338.265-.666.265-1.404V19h2l.001.63c0 .965.12 1.339.575 1.794.278.277.547.429.913.516.371.087 2.643.086 3.029-.002.484-.11.934-.442 1.203-.885.216-.357.274-.652.277-1.403L15 19h2l.001.63c0 .965.12 1.339.575 1.794.278.277.547.429.913.516.389.091 2.711.082 3.074-.013a1.93 1.93 0 0 0 1.172-.901c.282-.469.265.063.265-8.477 0-7.013-.006-7.712-.065-7.892-.058-.174-.202-.333-1.23-1.362-1.029-1.028-1.188-1.172-1.362-1.23a1 1 0 0 0-.686 0c-.174.058-.333.202-1.362 1.23-1.028 1.029-1.172 1.188-1.23 1.362-.054.163-.065.385-.065 1.27V7h-2V5.927c0-.885-.011-1.107-.065-1.27-.058-.174-.202-.333-1.23-1.362-1.029-1.028-1.188-1.172-1.362-1.23a1 1 0 0 0-.686 0c-.174.058-.333.202-1.362 1.23-1.028 1.029-1.172 1.188-1.23 1.362C9.011 4.82 9 5.042 9 5.927V7H7V5.927c0-.885-.011-1.107-.065-1.27-.058-.174-.202-.333-1.23-1.362-1.029-1.028-1.188-1.172-1.362-1.23a1.05 1.05 0 0 0-.703.003m.869 2.861.491.49V20H3V5.421l.489-.49c.27-.27.499-.491.51-.491a9 9 0 0 1 .51.489m8 0 .491.49V20h-2V5.421l.489-.49c.27-.27.499-.491.51-.491a9 9 0 0 1 .51.489m8 0 .491.49V20h-2V5.421l.489-.49c.27-.27.499-.491.51-.491a9 9 0 0 1 .51.489M9 13v4H7V9h2zm8 0v4h-2V9h2z"/></svg>