<svg xmlns="http://www.w3.org/2000/svg" width="24" height="24" fill="none" stroke="currentColor" stroke-linecap="round" stroke-linejoin="round" stroke-width="2"><path fill="#000" fill-rule="evenodd" stroke="none" d="M5.499 1.043c-1.12.19-2.038 1.005-2.385 2.117l-.094.3v17.08l.094.3a3.09 3.09 0 0 0 2.046 2.046l.3.094h13.08l.3-.094a3.08 3.08 0 0 0 2.045-2.046c.07-.229.092-.4.093-.72.002-.387-.007-.434-.107-.606a1.01 1.01 0 0 0-1.085-.479c-.448.1-.72.423-.784.931a2.6 2.6 0 0 1-.08.409 1.1 1.1 0 0 1-.438.497l-.184.108H5.7l-.184-.108a1.2 1.2 0 0 1-.291-.249c-.24-.315-.225.265-.225-8.601 0-9.135-.026-8.39.304-8.719.322-.323.037-.306 4.879-.294 4.075.01 4.284.015 4.417.085.077.041.743.673 1.48 1.406s1.403 1.364 1.48 1.405c.099.052.227.074.44.074.258.001.327-.015.492-.112.476-.28.646-.899.374-1.359-.121-.203-2.731-2.806-2.986-2.977a3.6 3.6 0 0 0-.86-.416l-.28-.095-4.52-.006c-2.486-.003-4.611.01-4.721.029M19.33 8.044a3.06 3.06 0 0 0-1.37.618c-.312.243-4.483 4.44-4.631 4.661-.263.392-.382.715-.851 2.319-.467 1.598-.484 1.669-.464 1.948.038.545.357 1.012.861 1.26.235.116.299.13.604.129.315-.002.458-.036 1.881-.454 1.761-.517 2.094-.654 2.56-1.057.565-.488 4.42-4.398 4.58-4.645.661-1.02.662-2.403.002-3.397a3.4 3.4 0 0 0-1.463-1.203c-.478-.195-1.175-.268-1.709-.179m1.023 2.072c.241.123.38.258.507.491.158.289.169.717.025.998-.118.231-4.322 4.446-4.505 4.517-.159.062-2.115.637-2.126.625-.024-.024.584-2.028.657-2.167.086-.164 4.216-4.31 4.414-4.431.27-.165.739-.18 1.028-.033M7.695 17.057a1.04 1.04 0 0 0-.567.459c-.091.156-.108.23-.108.484 0 .256.016.328.111.489.125.213.318.375.539.454.208.074 1.452.074 1.66 0 .221-.079.414-.241.539-.454.095-.161.111-.233.111-.489 0-.254-.017-.328-.108-.484a1.02 1.02 0 0 0-.582-.461c-.24-.072-1.362-.071-1.595.002"/></svg>