<svg xmlns="http://www.w3.org/2000/svg" width="24" height="24" fill="none" stroke="currentColor" stroke-linecap="round" stroke-linejoin="round" stroke-width="2"><path fill="#000" fill-rule="evenodd" stroke="none" d="M5.499 1.043C4.38 1.232 3.461 2.048 3.114 3.16l-.094.3v17.08l.094.3a3.09 3.09 0 0 0 2.046 2.046l.3.094h13.08l.3-.094c.976-.304 1.714-1.035 2.046-2.026l.094-.28.011-6.857c.01-6.257.005-6.875-.055-7.06-.06-.188-.263-.401-2.711-2.847-1.773-1.773-2.698-2.669-2.805-2.72-.154-.073-.335-.076-4.94-.082-2.629-.003-4.871.01-4.981.029m7.51 3.747c.014 1.743.017 1.797.107 2.07a3.13 3.13 0 0 0 2.024 2.024c.273.09.327.093 2.07.107l1.79.014v5.551c0 4.588-.01 5.583-.055 5.734a1.02 1.02 0 0 1-.461.582l-.184.108H5.7l-.184-.108a1.2 1.2 0 0 1-.291-.249c-.24-.315-.225.265-.225-8.601 0-9.134-.026-8.39.304-8.719.311-.312.105-.297 4.123-.3L12.995 3zm5.241 2.202c-.17.007-.814.007-1.43 0L15.7 6.98l-.184-.108a1.2 1.2 0 0 1-.291-.249C15.009 6.34 15 6.265 15 4.785V3.42l1.78 1.78 1.781 1.78zM7.695 11.057a1.04 1.04 0 0 0-.567.459c-.092.156-.108.229-.107.484 0 .213.022.34.075.44.04.077.39.46.777.85l.704.71-.704.71c-.387.391-.734.771-.772.845-.229.453-.045 1.046.407 1.312.165.097.234.113.492.112.213 0 .341-.022.44-.074.193-.102 2.3-2.202 2.433-2.425.091-.152.107-.226.107-.48 0-.253-.017-.328-.107-.48-.058-.099-.607-.678-1.22-1.286-1.043-1.036-1.127-1.109-1.33-1.17-.257-.076-.403-.077-.628-.007m4 6a1.04 1.04 0 0 0-.567.459c-.091.156-.108.23-.108.484 0 .256.016.328.111.489.125.213.318.375.539.454.219.078 4.441.078 4.66 0 .221-.079.414-.241.539-.454.095-.161.111-.233.111-.489 0-.254-.017-.328-.108-.484a1.02 1.02 0 0 0-.582-.461c-.257-.077-4.347-.076-4.595.002"/></svg>