<svg xmlns="http://www.w3.org/2000/svg" width="24" height="24" fill="none" stroke="currentColor" stroke-linecap="round" stroke-linejoin="round" stroke-width="2"><path fill="#000" fill-rule="evenodd" stroke="none" d="M5.499 1.043c-1.108.187-2.011.981-2.385 2.097l-.094.28-.011 5.12c-.013 5.715-.033 5.3.267 5.633a.94.94 0 0 0 .721.315c.408 0 .727-.206.908-.588l.094-.2L5 8.797c0-5.53-.02-5.171.303-5.494C5.621 2.986 5.424 3 9.445 3h3.55l.014 1.79c.014 1.743.017 1.797.107 2.07a3.13 3.13 0 0 0 2.024 2.024c.273.09.327.093 2.07.107l1.79.014v5.551c0 4.588-.01 5.583-.055 5.734a1.02 1.02 0 0 1-.461.582l-.184.108-3.04.02c-3.021.02-3.041.021-3.2.106-.354.192-.548.509-.548.897 0 .289.107.533.315.721.326.294.149.281 3.633.267l3.12-.012.28-.093a3.15 3.15 0 0 0 2.026-2.026l.094-.28.011-6.857c.01-6.257.005-6.875-.055-7.06-.06-.188-.263-.401-2.711-2.847-1.773-1.773-2.698-2.669-2.805-2.72-.154-.073-.335-.076-4.94-.082-2.629-.003-4.871.01-4.981.029M18.25 6.992c-.17.007-.814.007-1.43 0L15.7 6.98l-.184-.108a1.2 1.2 0 0 1-.291-.249C15.009 6.34 15 6.265 15 4.785V3.42l1.78 1.78 1.781 1.78zm-6.92 4.052c-.481.08-.951.293-1.37.618-.314.245-5.484 5.441-5.631 5.661-.263.392-.382.716-.851 2.319-.467 1.598-.484 1.669-.464 1.948.038.545.357 1.012.861 1.26.235.116.299.13.604.129.315-.002.458-.036 1.881-.454 1.761-.517 2.094-.654 2.56-1.057.578-.5 5.421-5.399 5.58-5.645.661-1.021.662-2.403.002-3.397a3.4 3.4 0 0 0-1.463-1.203c-.478-.195-1.175-.268-1.709-.179m1.023 2.072c.241.123.38.258.507.491.158.289.169.717.025.998-.118.232-5.321 5.446-5.505 5.517-.159.062-2.115.637-2.126.625-.024-.024.584-2.028.657-2.167.086-.164 5.215-5.309 5.414-5.431.27-.165.739-.18 1.028-.033"/></svg>