<svg xmlns="http://www.w3.org/2000/svg" width="24" height="24" fill="none" stroke="currentColor" stroke-linecap="round" stroke-linejoin="round" stroke-width="2"><path fill="#000" fill-rule="evenodd" stroke="none" d="M5.499 1.043C4.38 1.232 3.461 2.048 3.114 3.16c-.093.297-.094.318-.094 2.223v1.923l.121.197a.998.998 0 0 0 1.718 0l.121-.197L5 5.523c.022-2 .014-1.941.321-2.24C5.625 2.989 5.459 3 9.445 3h3.55l.014 1.79c.014 1.743.017 1.797.107 2.07a3.13 3.13 0 0 0 2.024 2.024c.273.09.327.093 2.07.107l1.79.014v5.551c0 4.588-.01 5.583-.055 5.734a1.02 1.02 0 0 1-.461.582l-.184.108-6.218.01c-6.935.012-6.446.032-6.754-.267a1.7 1.7 0 0 1-.226-.268c-.143-.239-.532-.454-.825-.455-.24 0-.526.125-.713.313-.421.422-.375 1.005.124 1.589.431.503.89.797 1.572 1.005.228.069.557.073 6.76.073h6.52l.3-.094c.976-.304 1.714-1.035 2.046-2.026l.094-.28.011-6.857c.01-6.257.005-6.875-.055-7.06-.06-.188-.263-.401-2.711-2.847-1.773-1.773-2.698-2.669-2.805-2.72-.154-.073-.335-.076-4.94-.082-2.629-.003-4.871.01-4.981.029M18.25 6.992c-.17.007-.814.007-1.43 0L15.7 6.98l-.184-.108a1.2 1.2 0 0 1-.291-.249C15.009 6.34 15 6.265 15 4.785V3.42l1.78 1.78 1.781 1.78zM4.358 10.061c-1.128.176-2.215.913-2.789 1.892a3.992 3.992 0 0 0 1.943 5.751 3.97 3.97 0 0 0 2.982-.003c.19-.076.387-.166.438-.199.088-.058.109-.042.749.602.363.364.735.706.827.761.459.274 1.079.103 1.359-.373.097-.165.113-.235.113-.492 0-.411-.07-.516-.876-1.319-.644-.64-.66-.661-.602-.749.125-.192.342-.8.419-1.175a3.94 3.94 0 0 0-.216-2.241 3.98 3.98 0 0 0-3.1-2.458 3.7 3.7 0 0 0-1.247.003m1.165 2.012a2.01 2.01 0 0 1 1.444 1.617c.1.653-.094 1.243-.564 1.714C6.002 15.807 5.547 16 5 16q-.771 0-1.347-.535c-1.33-1.236-.464-3.46 1.347-3.46.143 0 .378.031.523.068"/></svg>