<svg xmlns="http://www.w3.org/2000/svg" width="24" height="24" fill="none" stroke="currentColor" stroke-linecap="round" stroke-linejoin="round" stroke-width="2"><path fill="#000" fill-rule="evenodd" stroke="none" d="M5.499 1.043C4.38 1.232 3.461 2.048 3.114 3.16l-.094.3v17.08l.094.3a3.09 3.09 0 0 0 2.046 2.046l.3.094h13.08l.3-.094c.976-.304 1.714-1.035 2.046-2.026l.094-.28.011-6.857c.01-6.257.005-6.875-.055-7.06-.06-.188-.263-.401-2.711-2.847-1.773-1.773-2.698-2.669-2.805-2.72-.154-.073-.335-.076-4.94-.082-2.629-.003-4.871.01-4.981.029M16.79 5.21 19 7.42v6.344c0 5.259-.009 6.374-.055 6.526a1.02 1.02 0 0 1-.461.582l-.184.108H5.7l-.184-.108a1.2 1.2 0 0 1-.291-.249c-.24-.315-.225.265-.225-8.601 0-9.134-.026-8.39.304-8.719.315-.315.016-.297 4.916-.3L14.58 3zm-5.735.91c-1.036.234-2.023.936-2.541 1.806-.385.647-.489 1.096-.338 1.454.201.474.787.737 1.25.56.294-.112.48-.311.674-.718a2.04 2.04 0 0 1 1-1.008c.264-.126.355-.148.678-.165.659-.034 1.154.16 1.588.623a1.8 1.8 0 0 1 .521 1.115c.04.327.037.37-.046.586-.21.55-1.071 1.219-2.077 1.616-.278.109-.429.196-.548.314a1.05 1.05 0 0 0-.296.697c0 .531.473 1 1.007 1 .423 0 1.638-.59 2.365-1.149 1.158-.89 1.682-1.895 1.614-3.091-.088-1.534-1.145-2.956-2.587-3.483-.661-.241-1.603-.306-2.264-.157m.64 9.935a1.05 1.05 0 0 0-.567.461c-.091.156-.108.23-.108.484 0 .257.016.327.113.492.518.882 1.865.526 1.865-.492a.99.99 0 0 0-.535-.888 1.17 1.17 0 0 0-.768-.057"/></svg>