<svg xmlns="http://www.w3.org/2000/svg" width="24" height="24" fill="none" stroke="currentColor" stroke-linecap="round" stroke-linejoin="round" stroke-width="2"><path fill="#000" fill-rule="evenodd" stroke="none" d="M5.499 1.043C4.38 1.232 3.461 2.048 3.114 3.16l-.094.3v4.846l.121.197a.998.998 0 0 0 1.718 0l.121-.197L5 6.023c.022-2.559.008-2.436.321-2.74C5.625 2.989 5.459 3 9.445 3h3.55l.014 1.79c.014 1.743.017 1.797.107 2.07a3.13 3.13 0 0 0 2.024 2.024c.273.09.327.093 2.07.107l1.79.014v5.551c0 4.588-.01 5.583-.055 5.734a1.02 1.02 0 0 1-.461.582l-.184.108-7.28.02c-5.706.016-7.304.031-7.393.07a1.15 1.15 0 0 0-.499.446c-.091.156-.108.23-.108.484 0 .257.016.327.113.492.128.218.369.409.59.469.1.027 2.62.037 7.504.03l7.353-.011.28-.094a3.15 3.15 0 0 0 2.026-2.026l.094-.28.011-6.857c.01-6.257.005-6.875-.055-7.06-.06-.188-.263-.401-2.711-2.847-1.773-1.773-2.698-2.669-2.805-2.72-.154-.073-.335-.076-4.94-.082-2.629-.003-4.871.01-4.981.029M18.25 6.992c-.17.007-.814.007-1.43 0L15.7 6.98l-.184-.108a1.2 1.2 0 0 1-.291-.249C15.009 6.34 15 6.265 15 4.785V3.42l1.78 1.78 1.781 1.78zM4.66 11.067c-.183.055-.334.194-1.813 1.667-.887.883-1.661 1.687-1.72 1.786-.09.152-.107.226-.107.48s.016.328.107.48c.134.224 3.244 3.327 3.428 3.419.454.229 1.046.045 1.312-.407.097-.165.113-.234.112-.492 0-.213-.022-.341-.074-.44-.041-.077-.616-.685-1.279-1.35L3.422 15l1.204-1.21c.663-.665 1.238-1.273 1.279-1.35.052-.099.074-.227.074-.44.001-.255-.015-.328-.107-.484a1.02 1.02 0 0 0-.582-.461c-.228-.069-.376-.066-.63.012m4.035-.01a1.04 1.04 0 0 0-.567.459c-.092.156-.108.229-.107.484 0 .213.022.341.074.44.041.077.616.685 1.279 1.35L10.578 15l-1.204 1.21c-.663.665-1.236 1.271-1.273 1.345-.229.454-.045 1.046.407 1.312.165.097.234.113.492.112.212 0 .341-.022.44-.074.192-.101 3.299-3.201 3.433-3.425.091-.152.107-.226.107-.48s-.017-.328-.107-.48c-.059-.099-.833-.903-1.72-1.786-1.538-1.531-1.623-1.609-1.83-1.67-.257-.076-.404-.077-.628-.007"/></svg>