<svg xmlns="http://www.w3.org/2000/svg" width="24" height="24" fill="none" stroke="currentColor" stroke-linecap="round" stroke-linejoin="round" stroke-width="2"><path fill="#000" fill-rule="evenodd" stroke="none" d="M5.499 1.043C4.38 1.232 3.461 2.048 3.114 3.16l-.094.3v4.846l.121.197a.998.998 0 0 0 1.718 0l.121-.197L5 6.023c.022-2.559.008-2.436.321-2.74C5.625 2.989 5.459 3 9.445 3h3.55l.014 1.79c.014 1.743.017 1.797.107 2.07a3.13 3.13 0 0 0 2.024 2.024c.273.09.327.093 2.07.107l1.79.014v5.551c0 4.588-.01 5.583-.055 5.734a1.02 1.02 0 0 1-.461.582l-.184.108-7.28.02c-5.706.016-7.304.031-7.393.07a1.15 1.15 0 0 0-.499.446c-.091.156-.108.23-.108.484 0 .257.016.327.113.492.128.218.369.409.59.469.1.027 2.62.037 7.504.03l7.353-.011.28-.094a3.15 3.15 0 0 0 2.026-2.026l.094-.28.011-6.857c.01-6.257.005-6.875-.055-7.06-.06-.188-.263-.401-2.711-2.847-1.773-1.773-2.698-2.669-2.805-2.72-.154-.073-.335-.076-4.94-.082-2.629-.003-4.871.01-4.981.029M18.25 6.992c-.17.007-.814.007-1.43 0L15.7 6.98l-.184-.108a1.2 1.2 0 0 1-.291-.249C15.009 6.34 15 6.265 15 4.785V3.42l1.78 1.78 1.781 1.78zM5.695 11.057a1.04 1.04 0 0 0-.567.459l-.108.184-.012 1.15L4.995 14H3.944c-1.147 0-1.301.022-1.562.221-.08.061-.195.194-.254.295-.091.156-.108.23-.108.484 0 .256.016.328.111.489.061.103.173.236.25.294.261.2.357.213 1.527.215L4.995 16l.013 1.153.012 1.154.121.196a.998.998 0 0 0 1.718 0l.121-.196.012-1.154L7.005 16l1.087-.002c1.17-.002 1.266-.015 1.527-.215.077-.058.189-.191.25-.294.095-.161.111-.233.111-.489 0-.254-.017-.328-.108-.484a1.2 1.2 0 0 0-.254-.295C9.357 14.022 9.203 14 8.056 14H7.005l-.013-1.15-.012-1.15-.108-.184a1.005 1.005 0 0 0-1.177-.459"/></svg>