<svg xmlns="http://www.w3.org/2000/svg" width="24" height="24" fill="none" stroke="currentColor" stroke-linecap="round" stroke-linejoin="round" stroke-width="2"><path fill="#000" fill-rule="evenodd" stroke="none" d="M5.499 1.043C4.38 1.232 3.461 2.048 3.114 3.16l-.094.3v4.846l.121.197a.998.998 0 0 0 1.718 0l.121-.197L5 6.023c.022-2.559.008-2.436.321-2.74C5.625 2.989 5.459 3 9.445 3h3.55l.014 1.79c.014 1.743.017 1.797.107 2.07a3.13 3.13 0 0 0 2.024 2.024c.273.09.327.093 2.07.107l1.79.014v5.551c0 4.588-.01 5.583-.055 5.734a1.02 1.02 0 0 1-.461.582l-.184.108-2.04.02c-1.996.02-2.043.022-2.2.106-.354.192-.548.509-.548.897 0 .289.107.533.315.721.319.288.266.282 2.635.267 2.09-.013 2.122-.015 2.398-.106a3.14 3.14 0 0 0 2.026-2.025l.094-.28.011-6.857c.01-6.257.005-6.875-.055-7.06-.06-.188-.263-.401-2.711-2.847-1.773-1.773-2.698-2.669-2.805-2.72-.154-.073-.335-.076-4.94-.082-2.629-.003-4.871.01-4.981.029M18.25 6.992c-.17.007-.814.007-1.43 0L15.7 6.98l-.184-.108a1.2 1.2 0 0 1-.291-.249C15.009 6.34 15 6.265 15 4.785V3.42l1.78 1.78 1.781 1.78zM6.29 10.103a3 3 0 0 0-.54.19c-.274.127-2.941 1.736-3.445 2.078-.672.455-1.109 1.146-1.268 2.006-.026.141-.036.976-.027 2.273.013 1.952.018 2.062.097 2.31.237.733.572 1.214 1.133 1.625.4.293 3.424 2.081 3.705 2.19.151.059.445.137.653.172.32.055.435.058.734.018.376-.05.726-.155 1.039-.312.244-.122 3.242-1.946 3.429-2.086.453-.339.855-.906 1.05-1.481l.13-.386v-2.16c0-2.007-.005-2.18-.077-2.44-.196-.715-.605-1.317-1.15-1.691-.319-.22-3.331-2.021-3.537-2.115-.527-.243-1.329-.322-1.926-.191m1.043 1.981c.14.07 2.984 1.772 2.975 1.781-.004.004-.751.45-1.659.99l-1.65.983-1.65-.983c-.907-.54-1.653-.986-1.657-.99-.01-.01 2.302-1.423 2.707-1.654.272-.155.324-.171.573-.171.15 0 .313.02.361.044m-2.8 4.611L6 17.569v2.953l-.11-.059c-.06-.032-.659-.389-1.33-.794-1.291-.778-1.425-.886-1.518-1.22-.05-.178-.058-2.662-.009-2.642.018.007.693.407 1.5.888M11 17.05c0 .738-.017 1.311-.042 1.399a1.2 1.2 0 0 1-.17.318c-.132.173-.182.205-1.978 1.298l-.81.493V17.57l1.47-.881a63 63 0 0 1 1.5-.885c.017-.002.03.559.03 1.246"/></svg>