<svg xmlns="http://www.w3.org/2000/svg" width="24" height="24" fill="none" stroke="currentColor" stroke-linecap="round" stroke-linejoin="round" stroke-width="2"><path fill="#000" fill-rule="evenodd" stroke="none" d="M5.499 1.043C4.38 1.232 3.461 2.048 3.114 3.16l-.094.3v17.08l.094.3a3.09 3.09 0 0 0 2.046 2.046l.3.094h13.08l.3-.094c.976-.304 1.714-1.035 2.046-2.026l.094-.28.011-6.857c.01-6.257.005-6.875-.055-7.06-.06-.188-.263-.401-2.711-2.847-1.773-1.773-2.698-2.669-2.805-2.72-.154-.073-.335-.076-4.94-.082-2.629-.003-4.871.01-4.981.029M16.79 5.21 19 7.42v6.344c0 5.259-.009 6.374-.055 6.526a1.02 1.02 0 0 1-.461.582l-.184.108H5.7l-.184-.108a1.2 1.2 0 0 1-.291-.249c-.24-.315-.225.265-.225-8.601 0-9.134-.026-8.39.304-8.719.315-.315.016-.297 4.916-.3L14.58 3zm-5.291 1.83a3.06 3.06 0 0 0-2.381 2.1c-.076.238-.092.396-.108 1.062l-.019.781-.306.049a1.88 1.88 0 0 0-1.089.565c-.286.285-.442.55-.536.911-.089.339-.089 4.645 0 4.984.093.36.25.626.536.912s.552.443.912.536c.352.092 6.628.089 6.983-.003.372-.096.623-.243.913-.533s.437-.541.533-.913c.091-.35.093-4.579.003-4.962-.088-.373-.241-.638-.536-.932a1.88 1.88 0 0 0-1.089-.565l-.306-.049-.019-.781c-.016-.666-.032-.824-.108-1.062-.311-.97-1.081-1.736-2.021-2.011-.361-.106-1.029-.149-1.362-.089m.811 2.021a.9.9 0 0 1 .387.242c.251.251.303.448.303 1.144V11h-2v-.553c0-.697.052-.893.304-1.144q.417-.418 1.006-.242M15 15v2H9v-4h6z"/></svg>