<svg xmlns="http://www.w3.org/2000/svg" width="24" height="24" fill="none" stroke="currentColor" stroke-linecap="round" stroke-linejoin="round" stroke-width="2"><path fill="#000" fill-rule="evenodd" stroke="none" d="M5.499 1.043C4.38 1.232 3.461 2.048 3.114 3.16l-.094.3v4.846l.121.197a.998.998 0 0 0 1.718 0l.121-.197L5 6.023c.022-2.559.008-2.436.321-2.74C5.625 2.989 5.459 3 9.445 3h3.55l.014 1.79c.014 1.743.017 1.797.107 2.07a3.13 3.13 0 0 0 2.024 2.024c.273.09.327.093 2.07.107l1.79.014v5.551c0 4.588-.01 5.583-.055 5.734a1.02 1.02 0 0 1-.461.582l-.184.108-7.28.02c-5.706.016-7.304.031-7.393.07a1.15 1.15 0 0 0-.499.446c-.091.156-.108.23-.108.484 0 .257.016.327.113.492.128.218.369.409.59.469.1.027 2.62.037 7.504.03l7.353-.011.28-.094a3.15 3.15 0 0 0 2.026-2.026l.094-.28.011-6.857c.01-6.257.005-6.875-.055-7.06-.06-.188-.263-.401-2.711-2.847-1.773-1.773-2.698-2.669-2.805-2.72-.154-.073-.335-.076-4.94-.082-2.629-.003-4.871.01-4.981.029M18.25 6.992c-.17.007-.814.007-1.43 0L15.7 6.98l-.184-.108a1.2 1.2 0 0 1-.291-.249C15.009 6.34 15 6.265 15 4.785V3.42l1.78 1.78 1.781 1.78zM2.477 11.073c-.671.176-1.239.75-1.417 1.435-.05.19-.06.615-.06 2.492 0 2.455.003 2.491.225 2.93.136.269.576.709.845.845.452.229.383.225 3.93.225s3.478.004 3.93-.225.935-.851 1.011-1.302c.021-.121.042-.153.089-.135.035.014.613.369 1.286.791.673.421 1.287.789 1.364.817.336.122.755.021 1.022-.246.314-.314.301-.151.289-3.783L14.98 11.7l-.109-.186a1.04 1.04 0 0 0-.658-.479c-.382-.086-.49-.038-1.902.846-.703.439-1.293.799-1.311.799s-.045-.07-.059-.156c-.072-.426-.482-.977-.924-1.243-.469-.282-.381-.276-4.017-.276-2.953 0-3.285.006-3.523.068M9 15v2H3v-4h6zm3.991.594-.011.594-.92-.575c-.506-.316-.924-.588-.93-.604-.005-.016.409-.291.92-.611l.93-.581.011.591c.006.326.006.859 0 1.186"/></svg>