<svg xmlns="http://www.w3.org/2000/svg" width="24" height="24" fill="none" stroke="currentColor" stroke-linecap="round" stroke-linejoin="round" stroke-width="2"><path fill="#000" fill-rule="evenodd" stroke="none" d="M5.499 1.043C4.38 1.232 3.461 2.048 3.114 3.16c-.093.297-.094.318-.094 2.223v1.923l.121.197a.998.998 0 0 0 1.718 0l.121-.197L5 5.523c.022-2 .014-1.941.321-2.24C5.625 2.989 5.459 3 9.445 3h3.55l.014 1.79c.014 1.743.017 1.797.107 2.07a3.13 3.13 0 0 0 2.024 2.024c.273.09.327.093 2.07.107l1.79.014v5.551c0 4.588-.01 5.583-.055 5.734a1.02 1.02 0 0 1-.461.582l-.184.108-1.28.021c-.874.015-1.316.037-1.393.07a1.14 1.14 0 0 0-.499.445c-.091.156-.108.23-.108.484 0 .257.016.327.113.492.13.221.369.409.599.471.105.029.621.038 1.504.028 1.269-.015 1.36-.021 1.624-.107a3.14 3.14 0 0 0 2.026-2.024l.094-.28.011-6.857c.01-6.257.005-6.875-.055-7.06-.06-.188-.263-.401-2.711-2.847-1.773-1.773-2.698-2.669-2.805-2.72-.154-.073-.335-.076-4.94-.082-2.629-.003-4.871.01-4.981.029M18.25 6.992c-.17.007-.814.007-1.43 0L15.7 6.98l-.184-.108a1.2 1.2 0 0 1-.291-.249C15.009 6.34 15 6.265 15 4.785V3.42l1.78 1.78 1.781 1.78zM7.54 9.023c-1.062.102-1.848.312-2.63.703-2.072 1.036-3.462 2.94-3.836 5.254-.066.413-.066 1.627 0 2.04.5 3.092 2.814 5.406 5.906 5.906.412.066 1.627.066 2.04 0 3.089-.498 5.408-2.817 5.906-5.906.028-.176.051-.635.051-1.02 0-.944-.101-1.538-.404-2.38-.858-2.383-2.992-4.147-5.471-4.522-.376-.057-1.289-.101-1.562-.075m1.012 2.02a5.01 5.01 0 0 1 4.128 3.205c.412 1.072.405 2.472-.017 3.545A5.08 5.08 0 0 1 9.6 20.732c-.556.19-.93.248-1.6.248s-1.044-.058-1.6-.248a5.04 5.04 0 0 1-3.239-3.492c-.241-.933-.178-2.115.159-2.992a5 5 0 0 1 5.232-3.205m-.857 2.014a1.04 1.04 0 0 0-.567.459l-.108.184v2.802l.102.199c.083.162.253.326.92.887.969.815 1.11.902 1.453.902a.97.97 0 0 0 .997-.99c-.003-.425-.094-.553-.829-1.166l-.643-.538L9 14.748 8.98 13.7l-.108-.184a1.005 1.005 0 0 0-1.177-.459"/></svg>