<svg xmlns="http://www.w3.org/2000/svg" width="24" height="24" fill="none" stroke="currentColor" stroke-linecap="round" stroke-linejoin="round" stroke-width="2"><path fill="#000" fill-rule="evenodd" stroke="none" d="M5.499 1.043C4.38 1.232 3.461 2.048 3.114 3.16l-.094.3v17.08l.094.3a3.09 3.09 0 0 0 2.046 2.046l.3.094h13.08l.3-.094c.976-.304 1.714-1.035 2.046-2.026l.094-.28.011-6.857c.01-6.257.005-6.875-.055-7.06-.06-.188-.263-.401-2.711-2.847-1.773-1.773-2.698-2.669-2.805-2.72-.154-.073-.335-.076-4.94-.082-2.629-.003-4.871.01-4.981.029m7.51 3.747c.014 1.743.017 1.797.107 2.07a3.13 3.13 0 0 0 2.024 2.024c.273.09.327.093 2.07.107l1.79.014v5.551c0 4.588-.01 5.583-.055 5.734a1.02 1.02 0 0 1-.461.582l-.184.108H5.7l-.184-.108a1.2 1.2 0 0 1-.291-.249c-.24-.315-.225.265-.225-8.601 0-9.134-.026-8.39.304-8.719.311-.312.105-.297 4.123-.3L12.995 3zm5.241 2.202c-.17.007-.814.007-1.43 0L15.7 6.98l-.184-.108a1.2 1.2 0 0 1-.291-.249C15.009 6.34 15 6.265 15 4.785V3.42l1.78 1.78 1.781 1.78zm-9.206 4.633a.99.99 0 0 0-.515.664c-.047.238.006.562.12.73.045.066.498.539 1.006 1.051l.924.93-.924.93c-.508.512-.96.984-1.004 1.05-.275.409-.138 1.046.289 1.34.298.205.8.22 1.077.032.068-.046.541-.499 1.053-1.007l.93-.924.93.924c.512.508.985.961 1.051 1.006.281.19.781.174 1.084-.034.413-.284.553-.941.286-1.336-.045-.066-.498-.539-1.006-1.051l-.924-.929.948-.951c.705-.707.968-.998 1.029-1.136.297-.673-.168-1.396-.896-1.393-.413.001-.505.067-1.552 1.11l-.95.947-.95-.947c-.679-.677-1.001-.97-1.13-1.028a1.06 1.06 0 0 0-.876.022"/></svg>