<svg xmlns="http://www.w3.org/2000/svg" width="24" height="24" fill="none" stroke="currentColor" stroke-linecap="round" stroke-linejoin="round" stroke-width="2"><path fill="#000" fill-rule="evenodd" stroke="none" d="M11.96 1.062c-.443.096-.816.312-1.201.697-.388.389-.561.68-.68 1.145C10.002 3.203 10 3.364 10 8s.002 4.797.079 5.096c.119.465.292.756.68 1.145.389.388.68.561 1.145.68.297.076.455.079 4.096.079s3.799-.003 4.096-.079c.465-.119.756-.292 1.145-.68.388-.389.561-.68.68-1.145.076-.296.079-.454.079-3.775 0-3.096-.007-3.488-.065-3.664-.059-.178-.27-.401-2.21-2.341-1.423-1.423-2.199-2.17-2.305-2.22-.151-.072-.296-.076-2.68-.083-2.039-.006-2.57.003-2.78.049m3.049 3.228c.015 1.212.022 1.307.107 1.57a3.13 3.13 0 0 0 2.024 2.024c.263.085.358.092 1.57.107l1.29.016v2.306c-.001 2.193-.004 2.313-.076 2.421a.8.8 0 0 1-.19.19c-.11.073-.255.075-3.734.075s-3.624-.002-3.734-.075a.8.8 0 0 1-.19-.19c-.073-.11-.075-.275-.075-4.734s.002-4.624.075-4.734a.8.8 0 0 1 .19-.19c.106-.07.208-.075 1.421-.076h1.306zm4.362 1.703c-.105.007-.524.007-.931 0-.721-.013-.745-.016-.924-.121a1.2 1.2 0 0 1-.291-.249C17.022 5.357 17 5.224 17 4.285V3.42l1.281 1.28 1.28 1.28zM6.695 7.057a1.04 1.04 0 0 0-.567.459L6.02 7.7l-.011 4.656c-.012 5.178-.025 4.893.259 5.401.186.333.641.788.973.974.5.279.336.269 4.337.267 2.904-.001 3.631-.012 3.752-.055.221-.079.414-.241.539-.454.095-.161.111-.233.111-.489 0-.254-.017-.328-.108-.484a1.2 1.2 0 0 0-.254-.295c-.296-.225-.217-.221-3.957-.221H8.215l-.107-.111-.107-.112-.01-4.538L7.98 7.7l-.108-.184a1.005 1.005 0 0 0-1.177-.459m-4 4a1.04 1.04 0 0 0-.567.459l-.108.184-.011 4.656c-.012 5.178-.025 4.893.259 5.401.186.333.641.788.973.974.5.279.336.269 4.337.267 2.904-.001 3.631-.012 3.752-.055.221-.079.414-.241.539-.454.095-.161.111-.233.111-.489 0-.254-.017-.328-.108-.484a1.2 1.2 0 0 0-.254-.295c-.296-.225-.217-.221-3.957-.221H4.215l-.107-.111-.107-.112-.01-4.538L3.98 11.7l-.108-.184a1.005 1.005 0 0 0-1.177-.459"/></svg>