<svg xmlns="http://www.w3.org/2000/svg" width="24" height="24" fill="none" stroke="currentColor" stroke-linecap="round" stroke-linejoin="round" stroke-width="2"><path fill="#000" fill-rule="evenodd" stroke="none" d="M5.499 1.043C4.39 1.23 3.481 2.03 3.116 3.14c-.09.272-.093.331-.107 2.006-.01 1.167 0 1.778.029 1.888.109.405.535.726.962.726.42 0 .849-.318.958-.711.025-.09.042-.74.042-1.652 0-1.742.008-1.799.303-2.094C5.621 2.986 5.424 3 9.445 3h3.55l.014 1.79c.014 1.743.017 1.797.107 2.07a3.13 3.13 0 0 0 2.024 2.024c.273.09.327.093 2.07.107l1.79.014v5.551c0 4.588-.01 5.583-.055 5.734a1.02 1.02 0 0 1-.461.582l-.184.108-6.22.011-6.22.011-.3-.11c-.646-.236-1.156-.059-1.405.488-.163.356-.075.783.224 1.083.164.165.265.226.549.328.191.069.461.145.6.169.175.03 2.207.04 6.652.032l6.4-.012.28-.094a3.15 3.15 0 0 0 2.026-2.026l.094-.28.011-6.857c.01-6.257.005-6.875-.055-7.06-.06-.188-.263-.401-2.711-2.847-1.773-1.773-2.698-2.669-2.805-2.72-.154-.073-.335-.076-4.94-.082-2.629-.003-4.871.01-4.981.029M18.25 6.992c-.17.007-.814.007-1.43 0L15.7 6.98l-.184-.108a1.2 1.2 0 0 1-.291-.249C15.009 6.34 15 6.265 15 4.785V3.42l1.78 1.78 1.781 1.78zM6.202 9.042c-.331.068-.579.241-1.573 1.096l-.991.853-.749.016c-.718.015-.759.02-.993.127a1.7 1.7 0 0 0-.764.766l-.112.24v3.72l.112.24c.147.315.455.624.764.767.236.109.269.113.992.126l.748.013.932.804c1.14.983 1.18 1.012 1.524 1.116.687.209 1.427-.128 1.757-.798l.131-.266V10.14l-.105-.225c-.178-.378-.506-.685-.87-.813a1.9 1.9 0 0 0-.803-.06m4.468 1.013a1.01 1.01 0 0 0-.658.837c-.029.285.028.451.307.888.488.763.657 1.332.657 2.22s-.169 1.457-.657 2.22c-.28.438-.336.602-.306.891.075.732.925 1.129 1.533.717.339-.23.85-1.081 1.13-1.88.367-1.048.42-2.323.143-3.414-.249-.984-.885-2.142-1.314-2.393-.219-.129-.613-.169-.835-.086M6 14v2.401l-.606-.518c-.333-.285-.711-.574-.839-.643-.303-.161-.68-.238-1.165-.239L3 15v-2h.432c.795 0 1.098-.137 1.959-.883.324-.282.594-.513.599-.514S6 12.68 6 14"/></svg>