<svg xmlns="http://www.w3.org/2000/svg" width="24" height="24" fill="none" stroke="currentColor" stroke-linecap="round" stroke-linejoin="round" stroke-width="2"><path fill="#000" fill-rule="evenodd" stroke="none" d="M5.499 1.043C4.38 1.232 3.461 2.048 3.114 3.16c-.091.291-.094.343-.094 1.723v1.423l.121.197a.998.998 0 0 0 1.718 0l.121-.196L5 5.023c.023-1.442.025-1.452.321-1.74C5.625 2.989 5.459 3 9.445 3h3.55l.014 1.79c.014 1.743.017 1.797.107 2.07a3.13 3.13 0 0 0 2.024 2.024c.273.09.327.093 2.07.107l1.79.014v5.551c0 4.588-.01 5.583-.055 5.734a1.02 1.02 0 0 1-.461.582l-.184.108-7.28.02c-5.706.016-7.304.031-7.393.07a1.15 1.15 0 0 0-.499.446c-.091.156-.108.23-.108.484 0 .257.016.327.113.492.128.218.369.409.59.469.1.027 2.62.037 7.504.03l7.353-.011.28-.094a3.15 3.15 0 0 0 2.026-2.026l.094-.28.011-6.857c.01-6.257.005-6.875-.055-7.06-.06-.188-.263-.401-2.711-2.847-1.773-1.773-2.698-2.669-2.805-2.72-.154-.073-.335-.076-4.94-.082-2.629-.003-4.871.01-4.981.029M18.25 6.992c-.17.007-.814.007-1.43 0L15.7 6.98l-.184-.108a1.2 1.2 0 0 1-.291-.249C15.009 6.34 15 6.265 15 4.785V3.42l1.78 1.78 1.781 1.78zM5.4 9.044c-1.639.185-3.139 1.246-3.874 2.741A5.8 5.8 0 0 0 1.096 13c-.06.258-.072.573-.085 2.252-.017 2.108-.01 2.2.191 2.625.146.309.569.746.868.898a2.05 2.05 0 0 0 1.86 0c.266-.135.708-.575.841-.838a2.05 2.05 0 0 0 .169-1.408c-.088-.373-.241-.638-.536-.932a1.9 1.9 0 0 0-1.099-.567l-.314-.049.019-.761c.017-.653.033-.805.116-1.081a3.06 3.06 0 0 1 2.013-2.014c.273-.083.403-.098.861-.098s.588.015.861.098a3.06 3.06 0 0 1 2.013 2.014c.083.276.099.428.116 1.081l.019.761-.314.049c-.187.03-.421.102-.575.177-.318.155-.745.567-.895.863a2.05 2.05 0 0 0 0 1.86c.136.269.576.709.845.845a2.05 2.05 0 0 0 1.86 0c.266-.135.708-.575.841-.838.229-.451.235-.526.218-2.672-.013-1.691-.025-2.007-.085-2.265-.362-1.552-1.32-2.789-2.691-3.475A5 5 0 0 0 5.4 9.044"/></svg>