<svg xmlns="http://www.w3.org/2000/svg" width="24" height="24" fill="none" stroke="currentColor" stroke-linecap="round" stroke-linejoin="round" stroke-width="2"><path fill="#000" fill-rule="evenodd" stroke="none" d="M5.499 1.043c-1.109.187-2.018.988-2.383 2.097-.089.27-.093.338-.107 1.897-.016 1.812-.015 1.823.267 2.136a.94.94 0 0 0 .721.315c.408 0 .727-.206.908-.588.093-.198.094-.211.095-1.603 0-1.631.011-1.702.303-1.994C5.621 2.986 5.424 3 9.445 3h3.55l.014 1.79c.014 1.743.017 1.797.107 2.07a3.13 3.13 0 0 0 2.024 2.024c.273.09.327.093 2.07.107l1.79.014v5.551c0 4.588-.01 5.583-.055 5.734a1.02 1.02 0 0 1-.461.582l-.184.108-6.16.012c-3.388.006-6.236.001-6.33-.013-.111-.015-.276-.096-.476-.231-.289-.195-.324-.208-.599-.222-.358-.018-.577.073-.808.335a.97.97 0 0 0-.201.945c.125.416.798.906 1.514 1.103.245.067.647.071 6.78.071h6.52l.3-.094c.976-.304 1.714-1.035 2.046-2.026l.094-.28.011-6.857c.01-6.257.005-6.875-.055-7.06-.06-.188-.263-.401-2.711-2.847-1.773-1.773-2.698-2.669-2.805-2.72-.154-.073-.335-.076-4.94-.082-2.629-.003-4.871.01-4.981.029M18.25 6.992c-.17.007-.814.007-1.43 0L15.7 6.98l-.184-.108a1.2 1.2 0 0 1-.291-.249C15.009 6.34 15 6.265 15 4.785V3.42l1.78 1.78 1.781 1.78zM4.035 9.431a.97.97 0 0 0-.49 1.125l.063.246-.114.085a6 6 0 0 0-.421.404c-.303.316-.308.319-.436.274a1.3 1.3 0 0 0-.344-.045.94.94 0 0 0-.884.552c-.224.491-.039 1.069.417 1.301l.182.092v1.064l-.204.116a1 1 0 0 0-.469.64c-.136.523.224 1.071.781 1.19.153.033.247.03.422-.016l.225-.059.418.419.419.418-.059.225c-.181.694.452 1.361 1.15 1.212a1.05 1.05 0 0 0 .673-.488l.105-.194h1.062l.105.194c.339.629 1.273.676 1.671.084.178-.266.226-.522.152-.808l-.059-.225.419-.418.418-.419.225.059c.706.184 1.384-.477 1.203-1.174a1 1 0 0 0-.469-.64l-.204-.116v-1.064l.182-.092c.733-.372.669-1.469-.105-1.792-.172-.072-.523-.08-.706-.016-.128.045-.133.042-.436-.274a6 6 0 0 0-.421-.404l-.114-.085.063-.246a.94.94 0 0 0-.148-.825c-.399-.592-1.36-.535-1.682.099l-.094.185-.53.002-.53.003-.095-.188c-.239-.471-.853-.654-1.341-.401m2.488 2.642c.965.252 1.599 1.233 1.444 2.232-.07.449-.243.779-.585 1.118-.373.369-.749.538-1.262.567a1.87 1.87 0 0 1-1.467-.525c-1.33-1.236-.464-3.46 1.347-3.46.143 0 .378.031.523.068"/></svg>