<svg xmlns="http://www.w3.org/2000/svg" width="24" height="24" fill="none" stroke="currentColor" stroke-linecap="round" stroke-linejoin="round" stroke-width="2"><path fill="#000" fill-rule="evenodd" stroke="none" d="M5.499 1.043C4.38 1.232 3.461 2.048 3.114 3.16l-.094.3v9.246l.121.197a.998.998 0 0 0 1.718 0l.121-.197L5 8.223c.022-5.024-.004-4.624.321-4.94.308-.298.05-.283 4.916-.283h4.343l2.21 2.21L19 7.42v6.344c0 5.259-.009 6.374-.055 6.526a1.02 1.02 0 0 1-.461.582l-.184.108-4.04.02-4.04.02-.16.086c-.354.192-.548.509-.548.897 0 .289.107.533.315.721.33.297.034.28 4.633.267l4.12-.011.28-.094a3.15 3.15 0 0 0 2.026-2.026l.094-.28.011-6.857c.01-6.257.005-6.875-.055-7.06-.06-.188-.263-.401-2.711-2.847-1.773-1.773-2.698-2.669-2.805-2.72-.154-.073-.335-.076-4.94-.082-2.629-.003-4.871.01-4.981.029m6.321 7.62c-2.2.359-4.064.672-4.142.694-.207.06-.475.309-.583.541l-.094.202L7 12.633c0 2.393-.004 2.531-.07 2.512l-.25-.071c-.106-.03-.393-.05-.7-.049-.432.002-.574.019-.841.1a3.07 3.07 0 0 0-2.025 2.035c-.135.434-.135 1.246 0 1.68a3.09 3.09 0 0 0 2.046 2.046c.434.135 1.246.135 1.68 0 .975-.303 1.714-1.035 2.046-2.026l.094-.28.011-3.71.012-3.709.088-.021c.162-.037 5.772-.94 5.841-.94.063 0 .068.113.068 1.483 0 1.393-.004 1.481-.07 1.462l-.25-.071c-.106-.03-.393-.05-.7-.049-.432.002-.574.019-.841.1a3.07 3.07 0 0 0-2.025 2.035c-.135.434-.135 1.246 0 1.68a3.09 3.09 0 0 0 2.046 2.046c.434.135 1.246.135 1.68 0a3.09 3.09 0 0 0 2.046-2.046l.094-.3V8.7l-.108-.184c-.186-.316-.542-.521-.887-.511-.091.002-1.965.298-4.165.658m2.514 6.401c.364.124.666.549.666.937 0 .33-.216.695-.516.871-.156.091-.23.108-.484.108s-.328-.017-.484-.108c-.579-.341-.683-1.098-.215-1.566a.96.96 0 0 1 1.033-.242M6.31 17.061c.378.112.69.537.69.94 0 .33-.216.695-.516.871-.156.091-.23.108-.484.108s-.328-.017-.484-.108c-.581-.342-.683-1.098-.212-1.569q.417-.418 1.006-.242"/></svg>