<svg xmlns="http://www.w3.org/2000/svg" width="24" height="24" fill="none" stroke="currentColor" stroke-linecap="round" stroke-linejoin="round" stroke-width="2"><path fill="#000" fill-rule="evenodd" stroke="none" d="M5.499 1.043C4.38 1.232 3.461 2.048 3.114 3.16l-.094.3v17.08l.094.3a3.09 3.09 0 0 0 2.046 2.046l.3.094h13.08l.3-.094c.976-.304 1.714-1.035 2.046-2.026l.094-.28.011-6.857c.01-6.257.005-6.875-.055-7.06-.06-.188-.263-.401-2.711-2.847-1.773-1.773-2.698-2.669-2.805-2.72-.154-.073-.335-.076-4.94-.082-2.629-.003-4.871.01-4.981.029m7.51 3.747c.014 1.743.017 1.797.107 2.07a3.13 3.13 0 0 0 2.024 2.024c.273.09.327.093 2.07.107l1.79.014v5.551c0 4.588-.01 5.583-.055 5.734a1.02 1.02 0 0 1-.461.582l-.184.108H5.7l-.184-.108a1.2 1.2 0 0 1-.291-.249c-.24-.315-.225.265-.225-8.601 0-9.134-.026-8.39.304-8.719.311-.312.105-.297 4.123-.3L12.995 3zm5.241 2.202c-.17.007-.814.007-1.43 0L15.7 6.98l-.184-.108a1.2 1.2 0 0 1-.291-.249C15.009 6.34 15 6.265 15 4.785V3.42l1.78 1.78 1.781 1.78zm-3.58 4.063a1.01 1.01 0 0 0-.658.837c-.029.285.028.451.307.888.488.763.657 1.332.657 2.22s-.169 1.457-.657 2.22c-.28.438-.336.602-.306.891.075.732.925 1.129 1.533.717.339-.23.85-1.081 1.13-1.88.367-1.048.42-2.323.143-3.414-.249-.984-.885-2.142-1.314-2.393-.219-.129-.613-.169-.835-.086m-3.621 1.567c-.344.173-.537.499-.537.904 0 .185.025.276.13.462.246.44.281.521.326.766.035.184.035.308 0 .492-.045.245-.08.326-.326.766-.105.186-.13.277-.13.462 0 .576.418 1.011.975 1.017.479.004.816-.274 1.152-.951a3.5 3.5 0 0 0-.209-3.442c-.277-.419-.483-.552-.886-.57-.244-.011-.314.002-.495.094m-3.354 1.433a1.05 1.05 0 0 0-.567.461c-.091.156-.108.23-.108.484 0 .257.016.327.113.492.518.882 1.865.526 1.865-.492a.99.99 0 0 0-.535-.888 1.17 1.17 0 0 0-.768-.057"/></svg>