<svg xmlns="http://www.w3.org/2000/svg" width="24" height="24" fill="none" stroke="currentColor" stroke-linecap="round" stroke-linejoin="round" stroke-width="2"><path fill="#000" fill-rule="evenodd" stroke="none" d="M5.499 1.043C4.38 1.232 3.461 2.048 3.114 3.16l-.094.3V20.5l.094.298c.138.44.339.813.524.971.56.479 1.443.177 1.605-.549.057-.252.03-.409-.138-.8l-.103-.24-.001-8.143c-.001-9.15-.027-8.405.302-8.734C5.621 2.986 5.424 3 9.445 3h3.55l.014 1.79c.014 1.743.017 1.797.107 2.07a3.13 3.13 0 0 0 2.024 2.024c.273.09.327.093 2.07.107l1.79.014v5.551c0 4.588-.01 5.583-.055 5.734a1.02 1.02 0 0 1-.461.582l-.184.108-1.54.02c-1.483.019-1.546.023-1.7.106-.354.192-.548.509-.548.897 0 .289.107.533.315.721.313.282.324.283 2.136.267 1.559-.014 1.627-.018 1.897-.107a3.14 3.14 0 0 0 2.026-2.024l.094-.28.011-6.857c.01-6.257.005-6.875-.055-7.06-.06-.188-.263-.401-2.711-2.847-1.773-1.773-2.698-2.669-2.805-2.72-.154-.073-.335-.076-4.94-.082-2.629-.003-4.871.01-4.981.029M18.25 6.992c-.17.007-.814.007-1.43 0L15.7 6.98l-.184-.108a1.2 1.2 0 0 1-.291-.249C15.009 6.34 15 6.265 15 4.785V3.42l1.78 1.78 1.781 1.78zM9.695 5.057a1.04 1.04 0 0 0-.567.459c-.108.183-.108.187-.108.987v.803l.121.197a.998.998 0 0 0 1.718 0l.121-.197v-.803c0-.8 0-.804-.108-.987a1.005 1.005 0 0 0-1.177-.459m0 5a1.04 1.04 0 0 0-.567.459c-.108.183-.108.187-.108.987v.803l.121.197a.998.998 0 0 0 1.718 0l.121-.197v-.803c0-.8 0-.804-.108-.987a1.005 1.005 0 0 0-1.177-.459m0 5a1.04 1.04 0 0 0-.567.459c-.105.179-.108.205-.121.908l-.013.724-.327.167a3.1 3.1 0 0 0-1.553 1.845c-.135.434-.135 1.246 0 1.68a3.09 3.09 0 0 0 2.046 2.046c.252.078.387.093.84.093s.588-.015.84-.093a3.1 3.1 0 0 0 2.032-1.999c.089-.267.102-.379.105-.867.003-.481-.01-.602-.091-.86a3.1 3.1 0 0 0-1.553-1.845l-.327-.167-.013-.724c-.013-.703-.016-.729-.121-.908a1.005 1.005 0 0 0-1.177-.459m.615 4.004c.378.112.69.537.69.94 0 .33-.216.695-.516.871-.156.091-.23.108-.484.108s-.328-.017-.484-.108c-.581-.342-.683-1.098-.212-1.569q.417-.418 1.006-.242"/></svg>