<svg xmlns="http://www.w3.org/2000/svg" width="24" height="24" fill="none" stroke="currentColor" stroke-linecap="round" stroke-linejoin="round" stroke-width="2"><path fill="#000" fill-rule="evenodd" stroke="none" d="M5.499 1.043C4.38 1.232 3.461 2.048 3.114 3.16c-.093.297-.094.318-.094 2.223v1.923l.121.197a.998.998 0 0 0 1.718 0l.121-.197L5 5.523c.022-2 .014-1.941.321-2.24C5.625 2.989 5.459 3 9.445 3h3.55l.014 1.79c.014 1.743.017 1.797.107 2.07a3.13 3.13 0 0 0 2.024 2.024c.273.09.327.093 2.07.107l1.79.014v5.551c0 4.588-.01 5.583-.055 5.734a1.02 1.02 0 0 1-.458.58c-.164.096-.234.108-.724.131-.44.02-.573.041-.703.108a.98.98 0 0 0-.548.894c0 .419.256.782.662.937.271.103 1.283.068 1.686-.06.959-.302 1.696-1.037 2.026-2.02l.094-.28.011-6.857c.01-6.257.005-6.875-.055-7.06-.06-.188-.263-.401-2.711-2.847-1.773-1.773-2.698-2.669-2.805-2.72-.154-.073-.335-.076-4.94-.082-2.629-.003-4.871.01-4.981.029M18.25 6.992c-.17.007-.814.007-1.43 0L15.7 6.98l-.184-.108a1.2 1.2 0 0 1-.291-.249C15.009 6.34 15 6.265 15 4.785V3.42l1.78 1.78 1.781 1.78zM7.54 9.023c-.825.079-1.29.177-1.92.404a7.01 7.01 0 0 0-4.398 4.848c-.195.779-.202.9-.202 3.665v2.6l.094.3a3.09 3.09 0 0 0 2.046 2.046c.434.135 1.246.135 1.68 0a3.09 3.09 0 0 0 2.046-2.046c.088-.282.094-.361.094-1.34s-.006-1.058-.094-1.34a3.07 3.07 0 0 0-2.025-2.035c-.409-.124-1.217-.142-1.599-.035-.131.037-.247.058-.258.047-.038-.037.078-1.079.15-1.357a5.05 5.05 0 0 1 3.606-3.619c.933-.241 2.115-.178 2.992.159a5.08 5.08 0 0 1 3.094 3.46c.072.278.188 1.32.15 1.357-.011.011-.127-.01-.258-.047-.382-.107-1.19-.089-1.599.035a3.07 3.07 0 0 0-2.025 2.035c-.088.282-.094.361-.094 1.34s.006 1.058.094 1.34a3.09 3.09 0 0 0 2.046 2.046c.252.078.387.093.84.093s.588-.015.84-.093a3.09 3.09 0 0 0 2.046-2.046l.094-.3v-2.6c0-2.719-.009-2.886-.184-3.6-.671-2.727-2.952-4.827-5.694-5.242-.376-.057-1.289-.101-1.562-.075m-3.23 9.038c.279.083.546.35.629.629.081.271.085 1.338.006 1.6a1.02 1.02 0 0 1-.461.582c-.156.091-.23.108-.484.108s-.328-.017-.484-.108a1.05 1.05 0 0 1-.458-.556c-.082-.235-.081-1.345.003-1.626.112-.377.516-.678.922-.687a1.3 1.3 0 0 1 .327.058m8 0c.279.083.546.35.629.629.081.271.085 1.338.006 1.6a1.02 1.02 0 0 1-.461.582c-.156.091-.23.108-.484.108s-.328-.017-.484-.108a1.05 1.05 0 0 1-.458-.556c-.082-.235-.081-1.345.003-1.626.112-.377.516-.678.922-.687a1.3 1.3 0 0 1 .327.058"/></svg>