<svg xmlns="http://www.w3.org/2000/svg" width="24" height="24" fill="none" stroke="currentColor" stroke-linecap="round" stroke-linejoin="round" stroke-width="2"><path fill="#000" fill-rule="evenodd" stroke="none" d="M5.499 1.043C4.38 1.232 3.461 2.048 3.114 3.16l-.094.3v17.08l.094.3a3.09 3.09 0 0 0 2.046 2.046l.3.094h13.08l.3-.094c.976-.304 1.714-1.035 2.046-2.026l.094-.28.011-6.857c.01-6.257.005-6.875-.055-7.06-.06-.188-.263-.401-2.711-2.847-1.773-1.773-2.698-2.669-2.805-2.72-.154-.073-.335-.076-4.94-.082-2.629-.003-4.871.01-4.981.029m7.51 3.747c.014 1.743.017 1.797.107 2.07a3.13 3.13 0 0 0 2.024 2.024c.273.09.327.093 2.07.107l1.79.014v5.551c0 4.588-.01 5.583-.055 5.734a1.02 1.02 0 0 1-.461.582l-.184.108H5.7l-.184-.108a1.2 1.2 0 0 1-.291-.249c-.24-.315-.225.265-.225-8.601 0-9.134-.026-8.39.304-8.719.311-.312.105-.297 4.123-.3L12.995 3zm5.241 2.202c-.17.007-.814.007-1.43 0L15.7 6.98l-.184-.108a1.2 1.2 0 0 1-.291-.249C15.009 6.34 15 6.265 15 4.785V3.42l1.78 1.78 1.781 1.78zm-2.61 5.077c-.151.052-.416.297-1.661 1.536l-1.481 1.474-.679-.681c-.774-.775-.929-.879-1.317-.877-.429.001-.477.038-1.935 1.491-.733.73-1.378 1.404-1.433 1.496-.272.46-.102 1.079.374 1.359.165.097.234.113.492.112.213 0 .341-.022.44-.074.077-.041.572-.504 1.101-1.029l.961-.955.639.642c.351.354.712.694.802.757.312.219.8.219 1.112.001.247-.172 3.765-3.719 3.85-3.881.052-.099.074-.228.074-.44.001-.255-.015-.328-.107-.484a1.014 1.014 0 0 0-1.232-.447"/></svg>