<svg xmlns="http://www.w3.org/2000/svg" width="24" height="24" fill="none" stroke="currentColor" stroke-linecap="round" stroke-linejoin="round" stroke-width="2"><path fill="#000" fill-rule="evenodd" stroke="none" d="M5.499 1.043C4.38 1.232 3.461 2.048 3.114 3.16l-.094.3v4.846l.121.197a.998.998 0 0 0 1.718 0l.121-.197L5 6.023c.022-2.559.008-2.436.321-2.74C5.625 2.989 5.459 3 9.445 3h3.55l.014 1.79c.014 1.743.017 1.797.107 2.07a3.13 3.13 0 0 0 2.024 2.024c.273.09.327.093 2.07.107l1.79.014v5.551c0 4.588-.01 5.583-.055 5.734a1.02 1.02 0 0 1-.461.582l-.184.108-7.28.02c-5.706.016-7.304.031-7.393.07a1.15 1.15 0 0 0-.499.446c-.091.156-.108.23-.108.484 0 .257.016.327.113.492.128.218.369.409.59.469.1.027 2.62.037 7.504.03l7.353-.011.28-.094a3.15 3.15 0 0 0 2.026-2.026l.094-.28.011-6.857c.01-6.257.005-6.875-.055-7.06-.06-.188-.263-.401-2.711-2.847-1.773-1.773-2.698-2.669-2.805-2.72-.154-.073-.335-.076-4.94-.082-2.629-.003-4.871.01-4.981.029M18.25 6.992c-.17.007-.814.007-1.43 0L15.7 6.98l-.184-.108a1.2 1.2 0 0 1-.291-.249C15.009 6.34 15 6.265 15 4.785V3.42l1.78 1.78 1.781 1.78zM1.695 11.057a1.04 1.04 0 0 0-.567.459c-.105.178-.108.207-.121.888-.008.421.004.768.03.864.062.23.25.469.471.599.165.097.235.113.495.113.268 0 .326-.014.5-.121.239-.147.443-.437.479-.68L3.009 13H4v3.987l-.214.048c-.271.061-.516.24-.657.479-.093.158-.109.231-.109.486 0 .256.016.328.111.489.125.213.318.375.539.454.215.077 2.445.077 2.66 0 .221-.079.414-.241.539-.454.095-.161.111-.233.111-.489 0-.255-.016-.328-.109-.486a1.04 1.04 0 0 0-.657-.479L6 16.987V13h.991l.027.179c.036.243.24.533.479.68.174.107.232.121.5.121.26 0 .33-.016.495-.113a1.07 1.07 0 0 0 .471-.599c.026-.096.038-.443.03-.864-.013-.681-.016-.71-.121-.888a1.02 1.02 0 0 0-.582-.461c-.26-.078-6.345-.076-6.595.002"/></svg>