<svg xmlns="http://www.w3.org/2000/svg" width="24" height="24" fill="none" stroke="currentColor" stroke-linecap="round" stroke-linejoin="round" stroke-width="2"><path fill="#000" fill-rule="evenodd" stroke="none" d="M5.499 1.043C4.38 1.232 3.461 2.048 3.114 3.16l-.094.3v4.846l.121.197a.998.998 0 0 0 1.718 0l.121-.197L5 6.023c.022-2.559.008-2.436.321-2.74C5.625 2.989 5.459 3 9.445 3h3.55l.014 1.79c.014 1.743.017 1.797.107 2.07a3.13 3.13 0 0 0 2.024 2.024c.273.09.327.093 2.07.107l1.79.014v5.551c0 4.588-.01 5.583-.055 5.734a1.02 1.02 0 0 1-.461.582l-.184.108-7.28.02c-5.706.016-7.304.031-7.393.07a1.15 1.15 0 0 0-.499.446c-.091.156-.108.23-.108.484 0 .257.016.327.113.492.128.218.369.409.59.469.1.027 2.62.037 7.504.03l7.353-.011.28-.094a3.15 3.15 0 0 0 2.026-2.026l.094-.28.011-6.857c.01-6.257.005-6.875-.055-7.06-.06-.188-.263-.401-2.711-2.847-1.773-1.773-2.698-2.669-2.805-2.72-.154-.073-.335-.076-4.94-.082-2.629-.003-4.871.01-4.981.029M18.25 6.992c-.17.007-.814.007-1.43 0L15.7 6.98l-.184-.108a1.2 1.2 0 0 1-.291-.249C15.009 6.34 15 6.265 15 4.785V3.42l1.78 1.78 1.781 1.78zM2.6 11.584c-.333.144-.6.552-.599.916.001.368.088.486 1.13 1.53l.968.97-.968.97c-1.042 1.044-1.129 1.162-1.13 1.53-.001.374.269.777.617.922.218.091.571.085.787-.014.123-.056.456-.362 1.115-1.024.517-.519.958-.944.98-.944s.463.425.98.944c.659.662.992.968 1.115 1.024.216.099.569.105.787.014.348-.145.618-.548.617-.922-.001-.368-.088-.486-1.13-1.53L6.901 15l.968-.97c1.042-1.044 1.129-1.162 1.13-1.53s-.269-.777-.608-.918c-.206-.086-.612-.079-.811.015-.101.047-.505.422-1.1 1.019-.517.519-.958.944-.98.944s-.463-.425-.98-.944c-.595-.597-.999-.972-1.1-1.019-.197-.093-.621-.1-.82-.013"/></svg>