<svg xmlns="http://www.w3.org/2000/svg" width="24" height="24" fill="none" stroke="currentColor" stroke-linecap="round" stroke-linejoin="round" stroke-width="2"><path fill="#000" fill-rule="evenodd" stroke="none" d="M5.499 1.043c-1.109.187-2.016.985-2.384 2.097-.091.276-.093.308-.106 2.398-.015 2.369-.021 2.316.267 2.635a.94.94 0 0 0 .721.315c.408 0 .727-.206.908-.588l.094-.2L5 5.797c0-2.186.001-2.191.303-2.494C5.621 2.986 5.424 3 9.445 3h3.55l.014 1.79c.014 1.743.017 1.797.107 2.07a3.13 3.13 0 0 0 2.024 2.024c.273.09.327.093 2.07.107l1.79.014v5.551c0 4.588-.01 5.583-.055 5.734a1.02 1.02 0 0 1-.461.582l-.184.108-1.28.021c-.874.015-1.316.037-1.393.07a1.14 1.14 0 0 0-.499.445c-.091.156-.108.23-.108.484 0 .257.016.327.113.492.13.221.369.409.599.471.105.029.621.038 1.504.028 1.269-.015 1.36-.021 1.624-.107a3.14 3.14 0 0 0 2.026-2.024l.094-.28.011-6.857c.01-6.257.005-6.875-.055-7.06-.06-.188-.263-.401-2.711-2.847-1.773-1.773-2.698-2.669-2.805-2.72-.154-.073-.335-.076-4.94-.082-2.629-.003-4.871.01-4.981.029M18.25 6.992c-.17.007-.814.007-1.43 0L15.7 6.98l-.184-.108a1.2 1.2 0 0 1-.291-.249C15.009 6.34 15 6.265 15 4.785V3.42l1.78 1.78 1.781 1.78zM8.4 9.137a1.93 1.93 0 0 0-1.34 1.371c-.089.339-.089 4.645 0 4.984.093.36.25.626.536.912s.552.443.912.536c.344.09 4.646.089 4.991-.001.826-.216 1.421-.956 1.421-1.77 0-.336-.118-.895-.307-1.449-.687-2.02-2.336-3.664-4.352-4.339Q9.019 8.966 8.4 9.137m-4.727 1.439c-.35.125-1.052.855-1.523 1.584-1.082 1.672-1.414 3.652-.931 5.555.949 3.745 4.754 6.015 8.494 5.067 1.279-.324 2.518-1.051 3.379-1.98.281-.304.348-.43.377-.705a.987.987 0 0 0-.989-1.096c-.324.001-.524.112-.958.532-.583.565-.996.838-1.662 1.1-.689.271-1.062.342-1.82.345-.708.002-1.053-.049-1.64-.243-1.615-.534-2.881-1.934-3.263-3.61a4.95 4.95 0 0 1 .344-3.238c.276-.578.507-.909.983-1.407.226-.237.439-.498.474-.58.085-.204.078-.6-.013-.802-.093-.203-.392-.469-.597-.531a1.15 1.15 0 0 0-.655.009m5.927.69c1.213.403 2.316 1.364 2.873 2.505.169.346.342.826.388 1.079l.028.15H9v-3.889l.15.028c.082.015.285.072.45.127"/></svg>