<svg xmlns="http://www.w3.org/2000/svg" width="24" height="24" fill="none" stroke="currentColor" stroke-linecap="round" stroke-linejoin="round" stroke-width="2"><path fill="#000" fill-rule="evenodd" stroke="none" d="M5.499 1.043C4.38 1.232 3.461 2.048 3.114 3.16l-.094.3v17.08l.094.3a3.11 3.11 0 0 0 2.026 2.045c.278.093.295.093 2.628.106 1.553.009 2.401-.001 2.504-.029.226-.061.466-.251.595-.47.097-.165.113-.235.113-.492 0-.254-.017-.328-.108-.484a1.15 1.15 0 0 0-.499-.446c-.084-.037-.692-.055-2.393-.07l-2.28-.02-.184-.108a1.2 1.2 0 0 1-.291-.249c-.24-.315-.225.265-.225-8.601 0-9.133-.026-8.39.303-8.719C5.621 2.986 5.424 3 9.445 3h3.55l.014 1.79c.014 1.743.017 1.797.107 2.07a3.13 3.13 0 0 0 2.024 2.024c.273.09.327.093 2.067.107l1.786.014.014.651c.013.644.014.653.134.847a.998.998 0 0 0 1.718 0l.121-.197.012-1.718c.01-1.511.003-1.742-.055-1.923-.062-.191-.251-.39-2.712-2.849-1.773-1.773-2.698-2.669-2.805-2.72-.154-.073-.335-.076-4.94-.082-2.629-.003-4.871.01-4.981.029M18.25 6.992c-.17.007-.814.007-1.43 0L15.7 6.98l-.184-.108a1.2 1.2 0 0 1-.291-.249C15.009 6.34 15 6.265 15 4.785V3.42l1.78 1.78 1.781 1.78zm-2.751 6.051c-1.117.187-2.045 1.011-2.384 2.117-.07.23-.092.399-.093.723-.002.402.004.432.119.62a1 1 0 0 0 1.709.015c.081-.132.122-.266.146-.48.042-.372.114-.545.305-.737.19-.189.344-.253.727-.302.364-.046.603-.172.774-.408a.99.99 0 0 0-.512-1.536c-.2-.06-.479-.064-.791-.012m4.196.011a.997.997 0 0 0-.497 1.537c.171.236.41.362.774.408.383.049.537.113.727.302.19.19.253.344.302.73.048.379.183.616.451.797.471.316 1.102.17 1.407-.325.115-.188.121-.218.119-.62-.001-.324-.023-.493-.093-.723-.299-.976-1.076-1.756-2.022-2.03-.4-.115-.941-.151-1.168-.076m-6 6.003a1.04 1.04 0 0 0-.567.459c-.099.169-.108.218-.106.604.001.32.023.491.093.72a3.08 3.08 0 0 0 2.022 2.037c.344.105.903.149 1.127.088.234-.064.473-.251.603-.473.097-.165.113-.235.113-.492 0-.254-.017-.328-.108-.484a1.1 1.1 0 0 0-.497-.438 2.6 2.6 0 0 0-.409-.08c-.343-.043-.579-.163-.74-.373-.145-.191-.189-.316-.229-.659-.055-.478-.296-.787-.707-.911a.9.9 0 0 0-.595.002m8 0c-.397.124-.633.434-.693.909-.045.354-.086.472-.228.659-.161.21-.397.33-.74.373a2.6 2.6 0 0 0-.409.08 1.1 1.1 0 0 0-.497.438c-.091.156-.108.23-.108.484 0 .257.016.327.113.492.13.222.369.409.603.473.224.061.783.017 1.127-.088a3.08 3.08 0 0 0 2.022-2.037c.07-.229.092-.4.093-.72.002-.386-.007-.435-.106-.604a1.005 1.005 0 0 0-1.177-.459"/></svg>