<svg xmlns="http://www.w3.org/2000/svg" width="24" height="24" fill="none" stroke="currentColor" stroke-linecap="round" stroke-linejoin="round" stroke-width="2"><path fill="#000" fill-rule="evenodd" stroke="none" d="M8.499 1.043C7.38 1.232 6.461 2.048 6.114 3.16l-.094.3v13.08l.094.3a3.09 3.09 0 0 0 2.046 2.046l.3.094h10.08l.3-.094c.976-.304 1.714-1.035 2.046-2.026l.094-.28.011-5.357c.01-4.878.005-5.375-.055-5.56-.06-.187-.234-.371-2.211-2.347-1.423-1.423-2.199-2.17-2.305-2.22-.153-.073-.317-.076-3.94-.082-2.079-.003-3.871.01-3.981.029m5.51 3.247c.015 1.212.022 1.307.107 1.57a3.13 3.13 0 0 0 2.024 2.024c.263.085.358.092 1.57.107l1.29.016v4.05c0 4.396.006 4.263-.221 4.561-.061.08-.194.195-.295.254l-.184.108H8.7l-.184-.108a1.2 1.2 0 0 1-.291-.249c-.238-.312-.225.078-.225-6.601 0-6.899-.023-6.393.304-6.719.305-.306.216-.297 3.123-.3L13.993 3zm4.362 1.703c-.105.007-.524.007-.931 0-.721-.013-.745-.016-.924-.121a1.2 1.2 0 0 1-.291-.249C16.022 5.357 16 5.224 16 4.285V3.42l1.281 1.28 1.28 1.28zm-15.676.664a1.04 1.04 0 0 0-.567.459L2.02 7.3l-.013 6.64c-.009 4.929 0 6.71.035 6.913.098.577.345 1.018.816 1.458.337.314.67.495 1.118.609.309.078.444.08 5.46.078 4.193-.001 5.172-.011 5.294-.055.221-.079.414-.241.539-.454.095-.161.111-.233.111-.489 0-.254-.017-.328-.108-.484a1.02 1.02 0 0 0-.582-.461C14.539 21.01 13.625 21 9.483 21c-4.825 0-5.03-.003-5.164-.075a.7.7 0 0 1-.219-.21c-.079-.133-.08-.225-.1-6.775L3.98 7.3l-.108-.184a1.005 1.005 0 0 0-1.177-.459"/></svg>