<svg xmlns="http://www.w3.org/2000/svg" width="24" height="24" fill="none" stroke="currentColor" stroke-linecap="round" stroke-linejoin="round" stroke-width="2"><path fill="#000" fill-rule="evenodd" stroke="none" d="M5.499 1.043C4.38 1.232 3.461 2.048 3.114 3.16l-.094.3v17.08l.094.3a3.09 3.09 0 0 0 2.046 2.046l.3.094h13.08l.3-.094c.976-.304 1.714-1.035 2.046-2.026l.094-.28.011-6.857c.01-6.257.005-6.875-.055-7.06-.06-.188-.263-.401-2.711-2.847-1.773-1.773-2.698-2.669-2.805-2.72-.154-.073-.335-.076-4.94-.082-2.629-.003-4.871.01-4.981.029M16.79 5.21 19 7.42v6.344c0 5.259-.009 6.374-.055 6.526a1.02 1.02 0 0 1-.461.582l-.184.108H5.7l-.184-.108a1.2 1.2 0 0 1-.291-.249c-.24-.315-.225.265-.225-8.601 0-9.134-.026-8.39.304-8.719.315-.315.016-.297 4.916-.3L14.58 3zm-1.15 3.858c-.154.053-.485.366-2.26 2.134l-2.08 2.072-.283-.095c-1.66-.562-3.384.312-3.903 1.981-.135.434-.135 1.246 0 1.68a3.09 3.09 0 0 0 2.046 2.046c.434.135 1.246.135 1.68 0a3.1 3.1 0 0 0 2.033-1.999c.09-.272.102-.374.103-.887 0-.548-.006-.6-.125-.94l-.125-.36 1.135-1.138 1.135-1.138.214.203c.267.252.422.334.685.361a.99.99 0 0 0 .972-.496c.097-.165.113-.234.112-.492-.001-.354-.055-.476-.35-.788L16.428 11l.201-.212c.295-.312.349-.434.35-.788.001-.255-.015-.328-.107-.484a1.016 1.016 0 0 0-1.232-.448m-5.306 5.996c.364.124.666.549.666.937 0 .33-.216.695-.516.871-.156.091-.23.108-.484.108s-.328-.017-.484-.108c-.579-.341-.683-1.098-.215-1.566a.96.96 0 0 1 1.033-.242"/></svg>