<svg xmlns="http://www.w3.org/2000/svg" width="24" height="24" fill="none" stroke="currentColor" stroke-linecap="round" stroke-linejoin="round" stroke-width="2"><path fill="#000" fill-rule="evenodd" stroke="none" d="M5.499 1.043C4.38 1.232 3.461 2.048 3.114 3.16l-.094.3v17.08l.094.3a3.09 3.09 0 0 0 2.046 2.046l.3.094h13.08l.3-.094c.976-.304 1.714-1.035 2.046-2.026l.094-.28.011-6.857c.01-6.257.005-6.875-.055-7.06-.06-.188-.263-.401-2.711-2.847-1.773-1.773-2.698-2.669-2.805-2.72-.154-.073-.335-.076-4.94-.082-2.629-.003-4.871.01-4.981.029m7.51 3.747c.014 1.743.017 1.797.107 2.07a3.13 3.13 0 0 0 2.024 2.024c.273.09.327.093 2.07.107l1.79.014v5.551c0 4.588-.01 5.583-.055 5.734a1.02 1.02 0 0 1-.461.582l-.184.108H5.7l-.184-.108a1.2 1.2 0 0 1-.291-.249c-.24-.315-.225.265-.225-8.601 0-9.134-.026-8.39.304-8.719.311-.312.105-.297 4.123-.3L12.995 3zm5.241 2.202c-.17.007-.814.007-1.43 0L15.7 6.98l-.184-.108a1.2 1.2 0 0 1-.291-.249C15.009 6.34 15 6.265 15 4.785V3.42l1.78 1.78 1.781 1.78zm-8.773 4.081a2 2 0 0 0-.942.58c-.426.459-.535.807-.535 1.709v.625l-.214.048c-.271.061-.516.24-.657.479-.093.158-.109.231-.109.489 0 .268.014.326.121.5.147.239.437.443.68.479l.179.027v.627c0 .684.044.936.225 1.294.137.27.576.709.846.845.506.257 1.079.292 1.428.088.778-.456.598-1.63-.281-1.827l-.21-.047-.016-.705c-.014-.616-.028-.734-.109-.944-.115-.3-.115-.381.001-.68.082-.212.095-.323.108-.946l.014-.706.176-.026c.241-.036.531-.241.677-.479.107-.174.121-.232.121-.5 0-.257-.016-.331-.108-.487-.267-.454-.757-.609-1.395-.443m4.218-.016a1.04 1.04 0 0 0-.567.459c-.092.156-.108.23-.108.487 0 .268.014.326.121.5.146.237.436.443.676.479l.176.026.015.726c.014.685.021.741.126.996l.111.27-.111.27c-.105.255-.112.311-.126.994l-.015.725-.211.047c-.879.197-1.059 1.371-.281 1.827.349.204.922.169 1.428-.088.267-.135.709-.575.842-.838.181-.356.229-.633.229-1.308v-.62l.179-.027c.243-.036.533-.24.68-.479.107-.174.121-.232.121-.5 0-.258-.016-.331-.109-.489a1.04 1.04 0 0 0-.657-.479L16 13.987l-.001-.603c0-.913-.113-1.278-.534-1.731-.48-.516-1.224-.767-1.77-.596"/></svg>