<svg xmlns="http://www.w3.org/2000/svg" width="24" height="24" fill="none" stroke="currentColor" stroke-linecap="round" stroke-linejoin="round" stroke-width="2"><path fill="#000" fill-rule="evenodd" stroke="none" d="M5.499 1.043C4.38 1.232 3.461 2.048 3.114 3.16l-.094.3v7.846l.121.197a.998.998 0 0 0 1.718 0l.121-.197L5 7.523c.022-4.239-.001-3.927.321-4.24C5.625 2.989 5.459 3 9.445 3h3.55l.014 1.79c.014 1.743.017 1.797.107 2.07a3.13 3.13 0 0 0 2.024 2.024c.273.09.327.093 2.07.107l1.79.014v5.551c0 4.588-.01 5.583-.055 5.734a1.02 1.02 0 0 1-.461.582l-.184.108H5.7l-.184-.108a1.2 1.2 0 0 1-.291-.249c-.22-.288-.225-.335-.225-2.101 0-1.877.006-1.922.3-2.216.314-.314.239-.306 2.916-.306h2.361l-.704.71c-.387.391-.737.773-.777.85-.053.1-.075.227-.075.44-.001.258.015.327.112.492.13.222.369.409.603.473.203.054.531.024.709-.066.074-.037.861-.79 1.749-1.673 1.763-1.754 1.805-1.806 1.805-2.226 0-.422-.039-.47-1.824-2.246-1.559-1.551-1.645-1.629-1.852-1.69-.266-.078-.377-.08-.613-.009a1.02 1.02 0 0 0-.582.461c-.092.156-.108.229-.107.484 0 .213.022.34.075.44.04.077.389.459.775.848l.702.708-2.556.013-2.557.013-.321.1a3.08 3.08 0 0 0-2.025 2.038c-.093.298-.094.313-.094 2.34s.001 2.042.094 2.34a3.09 3.09 0 0 0 2.046 2.046l.3.094h13.08l.3-.094c.976-.304 1.714-1.035 2.046-2.026l.094-.28.011-6.857c.01-6.257.005-6.875-.055-7.06-.06-.188-.263-.401-2.711-2.847-1.773-1.773-2.698-2.669-2.805-2.72-.154-.073-.335-.076-4.94-.082-2.629-.003-4.871.01-4.981.029M18.25 6.992c-.17.007-.814.007-1.43 0L15.7 6.98l-.184-.108a1.2 1.2 0 0 1-.291-.249C15.009 6.34 15 6.265 15 4.785V3.42l1.78 1.78 1.781 1.78z"/></svg>