<svg xmlns="http://www.w3.org/2000/svg" width="24" height="24" fill="none" stroke="currentColor" stroke-linecap="round" stroke-linejoin="round" stroke-width="2"><path fill="#000" fill-rule="evenodd" stroke="none" d="M5.499 1.043C4.38 1.232 3.461 2.048 3.114 3.16l-.094.3v17.08l.094.3a3.09 3.09 0 0 0 2.046 2.046l.3.094h13.08l.3-.094c.976-.304 1.714-1.035 2.046-2.026l.094-.28.011-6.857c.01-6.257.005-6.875-.055-7.06-.06-.188-.263-.401-2.711-2.847-1.773-1.773-2.698-2.669-2.805-2.72-.154-.073-.335-.076-4.94-.082-2.629-.003-4.871.01-4.981.029m7.51 3.747c.014 1.743.017 1.797.107 2.07a3.13 3.13 0 0 0 2.024 2.024c.273.09.327.093 2.07.107l1.79.014v5.551c0 4.588-.01 5.583-.055 5.734a1.02 1.02 0 0 1-.461.582l-.184.108H5.7l-.184-.108a1.2 1.2 0 0 1-.291-.249c-.24-.315-.225.265-.225-8.601 0-9.134-.026-8.39.304-8.719.311-.312.105-.297 4.123-.3L12.995 3zm5.241 2.202c-.17.007-.814.007-1.43 0L15.7 6.98l-.184-.108a1.2 1.2 0 0 1-.291-.249C15.009 6.34 15 6.265 15 4.785V3.42l1.78 1.78 1.781 1.78zm-8.609 4.573a1.2 1.2 0 0 0-.232.141c-.142.108-2.155 2.598-2.302 2.847-.124.209-.124.685 0 .894.103.175 2.12 2.695 2.258 2.821.232.213.7.289.998.163.2-.085.426-.294.528-.487.103-.199.119-.613.03-.824-.032-.077-.415-.585-.85-1.13L9.28 15l.791-.99c.435-.544.818-1.053.85-1.13.089-.211.073-.625-.03-.824-.1-.19-.328-.402-.517-.481-.15-.063-.586-.069-.733-.01m3.976.01c-.475.214-.732.792-.557 1.251.045.117.367.556.866 1.18l.794.994-.794.994c-.499.624-.821 1.063-.866 1.18-.177.463.086 1.049.56 1.25.315.133.777.062 1.015-.156.138-.126 2.155-2.646 2.258-2.821.135-.229.124-.686-.022-.927-.215-.355-2.168-2.737-2.344-2.859-.151-.105-.213-.122-.48-.131-.198-.007-.351.009-.43.045"/></svg>