<svg xmlns="http://www.w3.org/2000/svg" width="24" height="24" fill="none" stroke="currentColor" stroke-linecap="round" stroke-linejoin="round" stroke-width="2"><path fill="#000" fill-rule="evenodd" stroke="none" d="M5.499 1.043C4.38 1.232 3.461 2.048 3.114 3.16l-.094.3v17.08l.094.3a3.09 3.09 0 0 0 2.046 2.046l.3.094h13.08l.3-.094c.976-.304 1.714-1.035 2.046-2.026l.094-.28.011-6.857c.01-6.257.005-6.875-.055-7.06-.06-.188-.263-.401-2.711-2.847-1.773-1.773-2.698-2.669-2.805-2.72-.154-.073-.335-.076-4.94-.082-2.629-.003-4.871.01-4.981.029m7.51 3.747c.014 1.743.017 1.797.107 2.07a3.13 3.13 0 0 0 2.024 2.024c.273.09.327.093 2.07.107l1.79.014v5.551c0 4.588-.01 5.583-.055 5.734a1.02 1.02 0 0 1-.461.582l-.184.108H5.7l-.184-.108a1.2 1.2 0 0 1-.291-.249c-.24-.315-.225.265-.225-8.601 0-9.134-.026-8.39.304-8.719.311-.312.105-.297 4.123-.3L12.995 3zm5.241 2.202c-.17.007-.814.007-1.43 0L15.7 6.98l-.184-.108a1.2 1.2 0 0 1-.291-.249C15.009 6.34 15 6.265 15 4.785V3.42l1.78 1.78 1.781 1.78zm-7.377 4.068a3.54 3.54 0 0 0-1.915 1.045c-.399.422-.644.852-.825 1.443-.095.315-.107.415-.107.952s.012.637.107.952c.368 1.204 1.212 2.049 2.415 2.414.309.094.423.107.932.11.628.003.951-.06 1.452-.285l.232-.104.628.622c.345.342.691.655.768.695.1.053.226.075.44.075.258.001.327-.015.492-.112.222-.13.409-.369.473-.603a1.2 1.2 0 0 0-.067-.709c-.037-.074-.347-.418-.689-.763l-.622-.628.104-.232a3.505 3.505 0 0 0-1.089-4.22 3.8 3.8 0 0 0-1.224-.594c-.419-.109-1.098-.135-1.505-.058m1.246 2.083c.298.136.608.449.746.753.095.209.111.296.111.604s-.016.395-.111.604c-.14.309-.448.616-.765.764-.207.097-.29.112-.6.112s-.393-.015-.6-.112a1.68 1.68 0 0 1-.765-.764c-.095-.208-.111-.296-.111-.604-.001-.309.015-.394.11-.6.193-.422.615-.771 1.04-.861.267-.057.696-.009.945.104"/></svg>