<svg xmlns="http://www.w3.org/2000/svg" width="24" height="24" fill="none" stroke="currentColor" stroke-linecap="round" stroke-linejoin="round" stroke-width="2"><path fill="#000" fill-rule="evenodd" stroke="none" d="M4.499 2.043C3.38 2.232 2.461 3.048 2.114 4.16l-.094.3v15.08l.094.3a3.09 3.09 0 0 0 2.046 2.046l.3.094h15.08l.3-.094a3.09 3.09 0 0 0 2.046-2.046l.094-.3V4.46l-.094-.3a3.09 3.09 0 0 0-2.025-2.039l-.321-.101-7.42-.006c-4.081-.003-7.511.01-7.621.029M6 5.26v1.26H4v-.813c0-.981.033-1.134.304-1.404.25-.251.423-.297 1.126-.3L6 4zM16 7.5V11H8V4h8zm3.31-3.439a.9.9 0 0 1 .387.242c.27.27.303.424.303 1.404v.813h-2V4h.553c.378 0 .617.019.757.061M6 9.76V11H4V8.52h2zm14 0V11h-2V8.52h2zm-14 4.5v1.26H4V13h2zm10 2.24V20H8v-7h8zm4-2.24v1.26h-2V13h2zM6 18.763v1.244l-.65-.014c-.622-.012-.658-.018-.834-.121a1.2 1.2 0 0 1-.291-.249C4.024 19.36 4 19.22 4 18.335v-.815h2zm14-.449c0 .871-.031 1.055-.221 1.304-.061.08-.194.195-.295.254-.176.103-.212.109-.834.121l-.65.014V17.52h2z"/></svg>