<svg xmlns="http://www.w3.org/2000/svg" width="24" height="24" fill="none" stroke="currentColor" stroke-linecap="round" stroke-linejoin="round" stroke-width="2"><path fill="#000" fill-rule="evenodd" stroke="none" d="M1.695 2.057a.99.99 0 0 0-.638 1.255c.057.171.675.92 4.004 4.855l3.937 4.653.001 3.163c.001 3.563-.011 3.409.299 3.714.244.24 4.315 2.264 4.61 2.293a1 1 0 0 0 .792-.288c.318-.318.3-.036.301-4.719l.001-4.163.364-.42c.421-.486.522-.678.524-.995.002-.375-.175-.671-.523-.875-.153-.09-.232-.108-.467-.108-.417 0-.551.095-1.184.83-.288.334-.562.68-.61.768-.086.16-.086.161-.097 3.75-.006 1.975-.019 3.59-.03 3.59s-.459-.22-.998-.489l-.979-.489-.011-3.101c-.011-3.099-.011-3.101-.098-3.261-.048-.088-1.579-1.924-3.403-4.08L4.173 4.02 8.737 4l4.563-.02.166-.089c.564-.301.716-1.05.31-1.525a1.3 1.3 0 0 0-.31-.257L13.3 2.02l-5.72-.008c-4.599-.006-5.752.003-5.885.045m14.975.004c-.222.081-.42.248-.542.455-.091.156-.108.23-.108.484s.016.328.107.48c.059.099.523.594 1.03 1.099l.922.92-.955.96c-.525.529-.986 1.022-1.023 1.096-.229.454-.045 1.046.407 1.312.165.097.235.113.492.113.254 0 .328-.016.48-.107.099-.059.594-.523 1.099-1.03l.92-.922.96.955c.529.525 1.024.988 1.101 1.029.099.052.227.074.44.074.258.001.327-.015.492-.112.222-.13.409-.369.473-.603a1.2 1.2 0 0 0-.066-.709c-.037-.074-.498-.567-1.023-1.096l-.955-.96.922-.92c.507-.505.971-1 1.03-1.099.091-.152.107-.226.107-.48s-.017-.328-.108-.484a1 1 0 0 0-1.215-.45c-.171.058-.327.196-1.177 1.038l-.98.972-.98-.972c-.849-.842-1.006-.98-1.177-1.038a1 1 0 0 0-.673-.005"/></svg>