<svg xmlns="http://www.w3.org/2000/svg" width="24" height="24" fill="none" stroke="currentColor" stroke-linecap="round" stroke-linejoin="round" stroke-width="2"><path fill="#000" fill-rule="evenodd" stroke="none" d="M11.38 1.023c-2.461.181-4.565 1.009-6.4 2.518-2.42 1.991-3.94 5.126-3.957 8.162l-.003.603.121.197a.998.998 0 0 0 1.712.009c.11-.178.119-.228.17-.931.076-1.067.191-1.68.464-2.481C5.01 4.633 9.712 2.115 14.3 3.308c1.825.475 3.465 1.541 4.714 3.065.364.444.561.582.874.614a.99.99 0 0 0 1.056-1.293c-.141-.426-1.368-1.746-2.229-2.398-1.613-1.221-3.327-1.929-5.323-2.196-.432-.058-1.641-.104-2.012-.077m-.18 4.021a7.1 7.1 0 0 0-2.336.703c-.512.257-.704.432-.805.736a.99.99 0 0 0 .679 1.276c.28.079.497.033.992-.209.556-.273.973-.406 1.519-.487a4.95 4.95 0 0 1 4.187 1.316 5.1 5.1 0 0 1 1.468 2.641c.056.258.074.605.093 1.803l.023 1.484.121.196a.998.998 0 0 0 1.718 0l.121-.197-.001-1.583c-.002-1.567-.003-1.588-.11-2.09A7.6 7.6 0 0 0 17.69 7.92c-.341-.484-1.119-1.262-1.61-1.609a8.5 8.5 0 0 0-1.784-.924 7.3 7.3 0 0 0-3.096-.343M6.08 9.037c-.394.12-.598.357-.753.87-.238.791-.325 1.354-.327 2.113-.004 2.241-.345 5-.838 6.787-.187.679-.196.82-.067 1.093.181.381.507.593.905.589.372-.004.72-.214.883-.536.33-.647.817-3.212.993-5.233.079-.912.089-1.077.124-2.24.037-1.228.055-1.357.3-2.24.197-.71-.519-1.416-1.22-1.203m5.419.006a3.05 3.05 0 0 0-2.378 2.097c-.073.233-.094.434-.123 1.2a48 48 0 0 1-.196 2.954c-.09.938-.067 1.074.233 1.4a1 1 0 0 0 1.031.246c.24-.092.487-.316.581-.526.118-.267.297-2.215.337-3.673.027-.998.065-1.179.299-1.419.201-.208.353-.273.745-.323.364-.046.603-.172.774-.408a.99.99 0 0 0-.512-1.536c-.2-.06-.479-.064-.791-.012m9.965.02a1 1 0 0 0-.532.447c-.131.224-.135.321-.056 1.53.062.947.041 3.488-.038 4.46-.054.679-.033.824.16 1.091.065.09.205.214.31.276.165.097.235.113.492.113.256 0 .328-.016.489-.111.557-.327.611-.689.61-4.029 0-2.833-.041-3.19-.404-3.543a.99.99 0 0 0-1.031-.234m-7.769 3.114a1.04 1.04 0 0 0-.567.459c-.103.175-.108.213-.118.784-.071 4.313-.263 6.168-.811 7.838-.109.334-.199.671-.199.748 0 .522.475.994 1.002.994.317 0 .675-.197.838-.46.132-.214.416-1.098.575-1.788.386-1.677.551-3.536.56-6.292l.005-1.64-.108-.184a1.005 1.005 0 0 0-1.177-.459m-12 2.878a1.05 1.05 0 0 0-.567.461c-.091.156-.108.23-.108.484 0 .257.016.327.113.492.518.882 1.865.526 1.865-.492a.99.99 0 0 0-.535-.888 1.17 1.17 0 0 0-.768-.057m15.775 2.002a1.17 1.17 0 0 0-.502.373c-.113.162-.158.334-.229.887-.056.436-.148.982-.406 2.393-.064.351-.064.382.003.593a1 1 0 0 0 1.349.628c.195-.087.406-.279.496-.453.161-.311.657-3.323.599-3.634-.112-.596-.757-.984-1.31-.787m-8.51 1.978c-.259.085-.526.299-.631.505a6 6 0 0 0-.165.58c-.068.275-.215.788-.327 1.14-.225.706-.236.869-.08 1.175.306.599 1.036.743 1.555.306.175-.148.245-.294.465-.98.26-.807.43-1.501.432-1.761a.97.97 0 0 0-.546-.888c-.172-.088-.544-.129-.703-.077"/></svg>