<svg xmlns="http://www.w3.org/2000/svg" width="24" height="24" fill="none" stroke="currentColor" stroke-linecap="round" stroke-linejoin="round" stroke-width="2"><path fill="#000" fill-rule="evenodd" stroke="none" d="M11.477 1.073c-.444.116-.757.344-1.198.873-.086.104-.138.126-.36.15-.352.039-.819.158-1.299.331a7.01 7.01 0 0 0-4.398 4.848c-.207.826-.202.647-.202 7.048v5.983l.121.197a.998.998 0 0 0 1.718 0l.121-.197.011-3.153L6.002 14h1.995l.012 3.29.012 3.29.093.28c.331.99 1.07 1.722 2.046 2.026l.3.094h5.08l.3-.094a3.09 3.09 0 0 0 2.046-2.046l.094-.3v-5.58c0-5.245-.004-5.6-.073-5.92A5.4 5.4 0 0 0 17 7.009c-.229-.306-.886-.969-.963-.969-.022 0-.037-.415-.037-1.02V4l1.09-.002c1.172-.002 1.267-.015 1.529-.215.077-.058.189-.191.25-.294.095-.161.111-.233.111-.489 0-.254-.017-.328-.108-.484a1.2 1.2 0 0 0-.254-.295C18.352 2.018 18.213 2 16.924 2l-1.184-.001-.088-.129c-.256-.375-.741-.709-1.174-.808-.414-.094-2.629-.086-3.001.011M14 4.043v1.042l-.33-.032A8 8 0 0 0 13 5.02c-.187 0-.488.015-.67.033l-.33.032V3h2zM10 5.07l-.001.95-.14.096c-.217.147-.786.764-.993 1.075A5.5 5.5 0 0 0 8.097 9c-.055.242-.072.562-.086 1.65L7.994 12H6v-1.582c0-1.636.031-2.146.162-2.658A5.04 5.04 0 0 1 8.76 4.541c.407-.204.965-.403 1.17-.416.065-.005.07.065.07.945m3.861 2.059c.941.275 1.713 1.045 2.017 2.01l.101.321.012 3.77.012 3.77H9.997l.012-3.77.012-3.77.101-.321a3.05 3.05 0 0 1 2.377-2.099c.333-.06 1.001-.017 1.362.089M16 19.554c0 .798-.11 1.079-.516 1.318l-.184.108h-4.6l-.184-.108a1.2 1.2 0 0 1-.291-.249c-.187-.246-.225-.421-.225-1.048V19h6z"/></svg>