<svg xmlns="http://www.w3.org/2000/svg" width="24" height="24" fill="none" stroke="currentColor" stroke-linecap="round" stroke-linejoin="round" stroke-width="2"><path fill="#000" fill-rule="evenodd" stroke="none" d="M13.08 6.999c-2.532.169-4.982 1.257-7.445 3.307l-.349.291-.231-.249a23 23 0 0 1-2.036-2.611c-.307-.473-.436-.594-.728-.682a.9.9 0 0 0-.624.009c-.497.169-.787.769-.611 1.262.154.431 1.338 2.032 2.355 3.184l.433.49-.433.49c-1.017 1.152-2.201 2.753-2.355 3.184-.211.59.209 1.249.836 1.314.468.048.737-.124 1.124-.72a23 23 0 0 1 2.041-2.618l.232-.25.225.193c2.267 1.94 4.596 3.055 7.046 3.372.576.075 1.885.065 2.46-.019 2.511-.363 4.765-1.536 7.129-3.708.742-.682.831-.814.831-1.238 0-.254-.017-.328-.108-.484-.152-.259-1.184-1.21-2.012-1.855-2.459-1.914-5.157-2.837-7.78-2.662m1.82 2.064c1.628.242 3.3 1.031 4.9 2.312.231.185.492.401.58.481l.16.144-.16.144c-.779.703-1.931 1.49-2.835 1.936-3.131 1.548-6.266 1.2-9.505-1.053-.431-.3-1.28-.978-1.28-1.023 0-.088 1.156-.964 1.869-1.415 2.076-1.315 4.205-1.834 6.271-1.526"/></svg>