<svg xmlns="http://www.w3.org/2000/svg" width="24" height="24" fill="none" stroke="currentColor" stroke-linecap="round" stroke-linejoin="round" stroke-width="2"><path fill="#000" fill-rule="evenodd" stroke="none" d="M7.673 2.062c-.413.129-.708.591-.661 1.039.029.283.09.388.491.846.651.742 1.139 1.461 1.517 2.233.32.653.324.601-.067.882-.329.237-1.104.889-1.249 1.052-.09.101-.144.11-.144.025 0-.099-.488-1.02-.678-1.279q-1.269-1.734-3.52-2.244c-.543-.123-.802-.123-1.065-.001-.259.121-.411.307-.657.805-.832 1.686-.841 4.482-.018 6.286l.133.294-.133.294c-.893 1.958-.806 4.996.189 6.605.209.339.382.48.682.558.208.054.268.054.56-.001.614-.116 1.358-.358 1.834-.6.733-.37 1.479-1.012 1.995-1.716.19-.259.678-1.18.678-1.279 0-.034.011-.061.024-.061s.161.127.327.283c.464.433.896.769 1.498 1.168l.55.363-.023.163c-.117.828-.507 1.706-1.071 2.417-.289.363-.356.522-.354.829.003.271.115.52.316.701.323.291.219.281 3.034.267l2.519-.013.28-.093c.966-.324 1.668-1.004 1.987-1.924.063-.181.233-1.032.233-1.165 0-.02.032-.036.07-.037.038 0 .286-.073.55-.162 1.987-.668 3.665-2.202 4.695-4.292.384-.779.805-1.986.805-2.308 0-.176-.24-.967-.473-1.557-1.002-2.539-2.998-4.467-5.307-5.125l-.328-.094a8 8 0 0 1-.074-.422c-.117-.733-.284-1.159-.641-1.635-.348-.463-.997-.899-1.597-1.072-.218-.063-.539-.071-3.48-.079-2.742-.008-3.269 0-3.427.049m6.63 2.079c.231.142.438.429.477.661.015.09.018.173.006.185s-.227.037-.479.056c-1.068.08-1.982.305-3.155.776-.054.023-.104-.051-.265-.392a13 13 0 0 0-.73-1.298l-.087-.132 2.018.012 2.018.011zM3.718 6.819c1.323.566 2.065 1.637 2.243 3.234l.044.391-.18.451c-.1.248-.219.598-.266.778L5.475 12l.084.327c.047.18.166.53.266.778l.18.451-.044.391c-.185 1.664-.996 2.775-2.417 3.31l-.262.099-.062-.208c-.141-.47-.196-.957-.195-1.728.001-1.27.2-2.05.714-2.801.299-.436.296-.806-.008-1.25-.484-.706-.704-1.581-.705-2.809-.001-.727.084-1.388.234-1.83.027-.077.106-.062.458.089m10.377.431c-.195.384-.522 1.244-.666 1.75a10.7 10.7 0 0 0 0 6c.143.505.471 1.366.664 1.747l.106.208-.15-.02c-2.348-.318-4.738-1.818-5.918-3.715-.288-.463-.547-1.041-.547-1.22.001-.261.377-1.004.831-1.64.318-.445 1.107-1.236 1.585-1.588 1.234-.909 2.714-1.53 4.06-1.704.066-.009.125-.019.131-.022a2 2 0 0 1-.096.204m2.793.054c1.804.641 3.214 2.185 3.949 4.326l.127.37-.127.37c-.405 1.18-.98 2.129-1.777 2.928-.502.504-.926.82-1.477 1.1-.391.199-.938.402-1.085.402-.164 0-.763-1.175-1.059-2.08a8.8 8.8 0 0 1 .732-7.09c.282-.493.266-.486.717-.326m.807 3.753a1.04 1.04 0 0 0-.567.459c-.098.166-.109.229-.122.657-.017.549.034.738.27 1a.98.98 0 0 0 1.448 0c.236-.262.287-.451.27-1-.013-.428-.024-.491-.122-.657a1.005 1.005 0 0 0-1.177-.459m-4.455 7.761c.275.054.74.12 1.034.148l.534.049-.026.163c-.034.213-.19.474-.363.605-.267.204-.34.213-1.754.215-1.234.002-1.313-.002-1.292-.068.012-.038.088-.241.169-.45s.184-.525.228-.703l.08-.323.445.133c.245.073.67.177.945.231"/></svg>