<svg xmlns="http://www.w3.org/2000/svg" width="24" height="24" fill="none" stroke="currentColor" stroke-linecap="round" stroke-linejoin="round" stroke-width="2"><path fill="#000" fill-rule="evenodd" stroke="none" d="M1.67 1.061c-.222.081-.42.248-.542.455-.092.156-.108.229-.107.484 0 .213.022.341.074.44.041.077.514.583 1.053 1.124l.978.984-.294-.019c-.563-.036-.836.168-1.191.889-.833 1.69-.842 4.483-.019 6.288l.133.294-.133.294c-.893 1.958-.806 4.996.189 6.605.209.339.382.48.682.558.208.054.268.054.56-.001.614-.116 1.358-.358 1.834-.6.733-.37 1.479-1.012 1.995-1.716.19-.259.678-1.18.678-1.279 0-.034.011-.061.024-.061s.161.127.327.283c.464.433.896.769 1.498 1.168l.55.363-.023.163c-.117.828-.507 1.706-1.071 2.417-.289.363-.356.522-.354.829.003.271.115.52.316.701.323.291.219.281 3.034.267l2.519-.013.28-.093c.966-.324 1.668-1.004 1.987-1.924.062-.178.233-1.031.233-1.16 0-.017.084-.053.187-.079l.187-.047 2.083 2.078c1.146 1.144 2.146 2.112 2.223 2.152.099.052.228.074.44.074.258.001.327-.015.492-.112.476-.28.647-.9.373-1.359-.055-.092-4.65-4.715-10.212-10.273C3.3 1.889 2.525 1.125 2.343 1.065a1 1 0 0 0-.673-.004m6.559.996c-.593.215-.864.844-.593 1.375.043.084.138.212.211.285.277.276.104.261 3.336.283l2.923.02.197.121c.109.067.253.205.323.309.12.179.21.487.157.54-.013.013-.217.038-.454.054a9.4 9.4 0 0 0-2.149.403c-.682.208-.864.331-1.022.688-.285.645.19 1.385.89 1.385.116 0 .388-.058.646-.138.464-.144 1.18-.302 1.367-.302q.107 0 .085.05c-.463 1.043-.666 1.597-.666 1.823 0 .534.469 1.007 1 1.007q.691-.001.995-.82c.2-.539.466-1.114.718-1.55.259-.448.249-.445.695-.286 1.809.646 3.212 2.181 3.945 4.317l.124.361-.074.239c-.186.595-.601 1.483-.893 1.913a6 6 0 0 0-.274.454.99.99 0 0 0 .482 1.384c.33.146.81.065 1.072-.181.154-.145.629-.906.884-1.416.425-.85.846-2.031.846-2.373 0-.18-.238-.966-.473-1.562-.986-2.499-2.9-4.375-5.199-5.096a3 3 0 0 0-.39-.104c-.032 0-.058-.016-.058-.036 0-.133-.17-.984-.233-1.165a3.04 3.04 0 0 0-1.537-1.736c-.597-.292-.436-.279-3.75-.291-2.444-.008-3.007 0-3.131.045M3.718 6.819c.627.269 1.114.643 1.478 1.137.451.612.696 1.313.783 2.244.023.239.012.291-.13.64a7 7 0 0 0-.346 1.06c-.033.159.097.645.322 1.207l.18.449-.044.391c-.185 1.664-.996 2.775-2.417 3.31l-.262.099-.062-.208c-.141-.47-.196-.957-.195-1.728.001-1.27.2-2.05.714-2.801.299-.436.296-.806-.008-1.25-.484-.706-.704-1.581-.705-2.809-.001-.727.084-1.388.234-1.83.027-.077.106-.062.458.089m7.291 5.611 2.348 2.35.139.44c.178.568.302.891.519 1.356l.177.378-.146-.021c-2.374-.332-4.733-1.813-5.915-3.713-.233-.374-.515-.967-.554-1.166-.044-.22.388-1.092.859-1.734.096-.132.186-.24.2-.24.013 0 1.081 1.058 2.373 2.35m6.686-1.373a1.04 1.04 0 0 0-.567.459c-.098.166-.109.229-.122.657-.017.549.034.738.27 1a.98.98 0 0 0 1.448 0c.236-.262.287-.451.27-1-.013-.428-.024-.491-.122-.657a1.005 1.005 0 0 0-1.177-.459m-4.455 7.761c.275.054.74.12 1.034.148l.534.049-.026.163c-.034.213-.19.474-.363.605-.267.204-.34.213-1.754.215-1.234.002-1.313-.002-1.292-.068.012-.038.088-.241.169-.45s.184-.525.228-.703l.08-.323.445.133c.245.073.67.177.945.231"/></svg>