<svg xmlns="http://www.w3.org/2000/svg" width="24" height="24" fill="none" stroke="currentColor" stroke-linecap="round" stroke-linejoin="round" stroke-width="2"><path fill="#000" fill-rule="evenodd" stroke="none" d="M1.67 1.061c-.222.081-.42.248-.542.455-.092.156-.108.229-.107.484 0 .213.022.341.074.44.041.077.486.554.989 1.061l.915.92.011 8.943.01 8.942.121.197a.998.998 0 0 0 1.718 0l.121-.197.011-3.39.011-3.39.269-.101c.77-.291 1.479-.399 2.609-.4.742 0 .87.01 1.34.109.62.131 1.153.305 2.28.747 1.864.729 2.615.947 3.72 1.079l.36.043 2.92 2.915c1.606 1.602 2.983 2.947 3.06 2.987.099.052.228.074.44.074.258.001.327-.015.492-.112.476-.28.647-.9.373-1.359-.055-.092-4.65-4.715-10.212-10.273C3.3 1.889 2.525 1.125 2.343 1.065a1 1 0 0 0-.673-.004m6.025-.007a.997.997 0 0 0-.497 1.537c.065.09.201.212.302.271.161.095.249.112.712.145 1.022.072 1.703.253 3.288.874 1.611.63 2.309.849 3.28 1.025.544.099 2.101.1 2.8.002.43-.06 1.165-.218 1.349-.289.066-.026.07.24.08 4.83l.011 4.857.121.197a.998.998 0 0 0 1.718 0l.121-.197.011-5.721c.011-6.437.034-5.954-.293-6.281-.277-.276-.658-.371-1.004-.249a2 2 0 0 0-.389.218c-.599.42-1.595.668-2.865.714-1.311.048-2.055-.121-4.1-.928-1.883-.742-2.805-.981-4.02-1.038-.331-.015-.506-.006-.625.033m1.225 9.288c3.715 3.717 3.89 3.898 3.68 3.817-1.9-.739-2.47-.915-3.422-1.058-1.115-.168-2.643-.094-3.745.182a6 6 0 0 0-.37.101c-.057.022-.063-.302-.063-3.46 0-1.916.005-3.484.01-3.484.006 0 1.765 1.756 3.91 3.902"/></svg>