<svg xmlns="http://www.w3.org/2000/svg" width="24" height="24" fill="none" stroke="currentColor" stroke-linecap="round" stroke-linejoin="round" stroke-width="2"><path fill="#000" fill-rule="evenodd" stroke="none" d="M16.7 1.056c-.088.029-2.437 1.191-5.22 2.582-4.093 2.048-5.088 2.56-5.205 2.683a.985.985 0 0 0 .023 1.376c.135.132 1.07.614 4.933 2.543l4.768 2.379.01 4.844.011 4.843.121.197a.998.998 0 0 0 1.718 0l.121-.197V1.7l-.108-.184a1 1 0 0 0-1.172-.46M16 7c0 1.848-.009 3.36-.02 3.36-.039 0-6.7-3.34-6.7-3.36 0-.022 6.639-3.354 6.69-3.358.017-.001.03 1.51.03 3.358"/></svg>