<svg xmlns="http://www.w3.org/2000/svg" width="24" height="24" fill="none" stroke="currentColor" stroke-linecap="round" stroke-linejoin="round" stroke-width="2"><path fill="#000" fill-rule="evenodd" stroke="none" d="M6.695 1.055a1.05 1.05 0 0 0-.567.461L6.02 1.7v20.606l.121.197a.998.998 0 0 0 1.718 0l.121-.197.011-4.843.01-4.844 4.768-2.379c3.863-1.929 4.798-2.411 4.933-2.543a.985.985 0 0 0 .023-1.376c-.117-.123-1.124-.64-5.285-2.719C6.842.805 7.104.921 6.695 1.055M11.38 5.31c1.837.918 3.34 1.679 3.34 1.69 0 .02-6.661 3.36-6.7 3.36C8.009 10.36 8 8.848 8 7s.009-3.36.02-3.36 1.523.751 3.36 1.67"/></svg>