<svg xmlns="http://www.w3.org/2000/svg" width="24" height="24" fill="none" stroke="currentColor" stroke-linecap="round" stroke-linejoin="round" stroke-width="2"><path fill="#000" fill-rule="evenodd" stroke="none" d="M11.54 1.064c-.796.192-1.812.99-2.387 1.875-.457.704-.644 1.305-.647 2.081-.001.445.014.577.106.914.177.644.511 1.234 1.018 1.8.309.343.382.523.363.889-.012.247-.033.319-.135.463-.263.375-.693.54-1.098.421-.333-.097-.496-.257-.7-.686-.257-.537-.529-.722-1.023-.694-.487.028-.793.31-.945.873-.111.409-.098 1.601.022 2.16.524 2.427 2.303 4.205 4.726 4.725.35.075.543.09 1.16.09.822 0 1.248-.066 1.94-.303 2.809-.962 4.519-3.895 3.939-6.757-.285-1.413-1.001-2.588-2.164-3.553-.993-.825-1.115-.932-1.382-1.214-.501-.527-.971-1.337-1.315-2.268-.121-.326-.192-.456-.319-.583-.281-.281-.65-.355-1.159-.233m.115 2.696c.541 1.1 1.147 1.802 2.528 2.928.818.666 1.166 1.09 1.473 1.789.891 2.026-.087 4.376-2.177 5.234-1.89.776-4.114-.072-5.045-1.922l-.161-.32.154.024c.413.066.627.073.942.031 1.014-.135 1.867-.723 2.303-1.588.466-.923.46-1.913-.016-2.816a5 5 0 0 0-.478-.658 4 4 0 0 1-.488-.694c-.126-.255-.148-.342-.162-.642-.02-.412.048-.683.255-1.03.125-.208.599-.739.656-.734.011.001.109.18.216.398M4.667 17.065c-.574.176-.842.926-.518 1.449.205.333.27.36 2.281.934 1.017.291 1.85.539 1.85.552s-.833.261-1.85.552c-2.011.574-2.076.601-2.281.934-.398.642.091 1.514.848 1.514.079 0 1.687-.441 3.573-.98l3.43-.98 3.43.98c1.886.539 3.494.98 3.573.98.239 0 .519-.12.698-.299a.984.984 0 0 0-.003-1.405c-.2-.2-.139-.179-2.388-.819-.874-.249-1.59-.464-1.59-.477s.715-.228 1.59-.477c2.249-.64 2.188-.619 2.388-.819a.984.984 0 0 0 .006-1.402 1.15 1.15 0 0 0-.719-.302c-.069 0-1.669.441-3.555.98l-3.43.98-3.43-.98c-1.886-.539-3.493-.979-3.57-.977a1.5 1.5 0 0 0-.333.062"/></svg>