<svg xmlns="http://www.w3.org/2000/svg" width="24" height="24" fill="none" stroke="currentColor" stroke-linecap="round" stroke-linejoin="round" stroke-width="2"><path fill="#000" fill-rule="evenodd" stroke="none" d="M11.67 2.057c-.196.07-.432.264-.973.802C9.143 4.406 8.42 6.005 8.565 7.58c.041.438.175.995.341 1.412.058.148.29.628.514 1.068.282.551.429.889.474 1.084.167.737.122 1.263-.142 1.659a2 2 0 0 1-.34.377c-.896.684-2.214.162-2.373-.94-.072-.495-.116-.652-.231-.819-.349-.504-1.09-.554-1.523-.104-.399.415-.827 1.257-1.058 2.083-.578 2.059-.015 4.585 1.447 6.5.259.339.932 1.025 1.286 1.311A8.1 8.1 0 0 0 12 23a8.1 8.1 0 0 0 5.04-1.789c.354-.286 1.027-.972 1.286-1.311 1.141-1.494 1.737-3.344 1.662-5.158a6.7 6.7 0 0 0-.768-2.922c-.575-1.133-1.329-2.043-2.5-3.018-1.265-1.052-2.125-2.105-2.822-3.454a9.7 9.7 0 0 1-.899-2.468c-.095-.434-.332-.712-.704-.823a.96.96 0 0 0-.625 0m-.012 3.238a12.7 12.7 0 0 0 3.622 4.906c.708.593 1.082.959 1.455 1.424.947 1.181 1.352 2.438 1.232 3.823-.055.631-.129 1.004-.296 1.492-.683 2.004-2.38 3.488-4.511 3.945-.606.13-1.714.13-2.32 0-2.874-.616-4.856-3.062-4.836-5.965.003-.425.022-.44.278-.221.917.787 2.325 1.013 3.482.559a3.54 3.54 0 0 0 2.069-2.204c.132-.408.181-.818.156-1.326-.043-.907-.204-1.435-.778-2.563-.529-1.04-.615-1.291-.64-1.865-.024-.541.041-.848.285-1.358.139-.29.622-1.041.649-1.01.003.005.072.168.153.363"/></svg>