<svg xmlns="http://www.w3.org/2000/svg" width="24" height="24" fill="none" stroke="currentColor" stroke-linecap="round" stroke-linejoin="round" stroke-width="2"><path fill="#000" fill-rule="evenodd" stroke="none" d="M1.67 1.061c-.222.081-.42.248-.542.455-.092.156-.108.229-.107.484 0 .212.022.341.074.44.04.077.942 1.013 2.005 2.08 1.765 1.773 1.934 1.954 1.958 2.1.038.236.178.649.303.9.161.322.408.638.939 1.2q.473.5.576.72l.104.22.02 5.46.02 5.46.094.28c.332.991 1.07 1.722 2.046 2.026l.3.094h5.08l.3-.094a3.1 3.1 0 0 0 2.043-2.026c.083-.256.092-.373.108-1.356l.017-1.075 2.206 2.201c1.213 1.211 2.269 2.235 2.346 2.275.099.052.228.074.44.074.258.001.327-.015.492-.112.476-.28.647-.9.373-1.359-.055-.092-4.65-4.715-10.212-10.273C3.3 1.889 2.525 1.125 2.343 1.065a1 1 0 0 0-.673-.004m5.025-.004a1.04 1.04 0 0 0-.567.459c-.091.156-.108.23-.108.484 0 .256.016.328.111.489.125.213.318.375.539.454.122.044 1.092.054 5.24.055L17 3v2h-3.054c-3.313 0-3.271-.003-3.564.221-.08.061-.195.194-.254.295-.091.156-.108.23-.108.484 0 .256.016.328.111.489.125.213.318.375.539.454.12.043.728.054 3.024.055L16.568 7l-.371.39c-.599.631-.829.979-1.019 1.537-.149.436-.186.791-.172 1.616l.014.764.121.196a.998.998 0 0 0 1.718 0l.121-.197.02-.823c.026-1.04.032-1.056.698-1.763.722-.768.928-1.069 1.124-1.647.172-.504.184-.725.171-3.113L18.98 1.7l-.108-.184a1.02 1.02 0 0 0-.582-.461C18.028.976 6.947.978 6.695 1.057M15 18.264c0 2.001-.007 2.073-.221 2.354-.061.08-.194.195-.295.254l-.184.108H9.7l-.184-.108a1.2 1.2 0 0 1-.291-.249c-.236-.31-.225-.039-.225-5.338V10.42l3 3 3 3z"/></svg>