<svg xmlns="http://www.w3.org/2000/svg" width="24" height="24" fill="none" stroke="currentColor" stroke-linecap="round" stroke-linejoin="round" stroke-width="2"><path fill="#000" fill-rule="evenodd" stroke="none" d="M5.695 1.057a1.04 1.04 0 0 0-.567.459L5.02 1.7l-.013 2.26c-.013 2.388-.001 2.609.171 3.113.197.579.411.893 1.122 1.647q.473.5.576.72l.104.22.02 5.46.02 5.46.094.28c.332.991 1.07 1.722 2.046 2.026l.3.094h5.08l.3-.094c.976-.304 1.714-1.035 2.046-2.026l.094-.28.02-5.46.02-5.46.104-.22q.104-.22.574-.72c.722-.768.928-1.069 1.124-1.647.172-.504.184-.725.171-3.113L18.98 1.7l-.108-.184a1.02 1.02 0 0 0-.582-.461C18.028.976 5.947.978 5.695 1.057M17 4v1H7V3h10zm-.803 3.39c-.73.769-1.016 1.28-1.155 2.067-.028.158-.042 1.982-.042 5.444 0 4.296-.01 5.238-.055 5.389a1.02 1.02 0 0 1-.461.582l-.184.108H9.7l-.184-.108a1.2 1.2 0 0 1-.291-.249C8.988 20.312 9 20.618 9 14.922c0-3.477-.014-5.307-.042-5.465-.143-.806-.464-1.362-1.252-2.167L7.422 7h9.146zm-4.502 3.667a1.04 1.04 0 0 0-.567.459c-.092.156-.108.23-.108.487 0 .268.014.326.121.5a.998.998 0 0 0 1.718 0c.107-.174.121-.232.121-.5 0-.257-.016-.331-.108-.487a1.005 1.005 0 0 0-1.177-.459"/></svg>