<svg xmlns="http://www.w3.org/2000/svg" width="24" height="24" fill="none" stroke="currentColor" stroke-linecap="round" stroke-linejoin="round" stroke-width="2"><path fill="#000" fill-rule="evenodd" stroke="none" d="M11.695 1.057a1.04 1.04 0 0 0-.567.459l-.108.184v2.606l.121.197a.998.998 0 0 0 1.718 0l.121-.197V1.7l-.108-.184a1.005 1.005 0 0 0-1.177-.459m-9 5a1.04 1.04 0 0 0-.567.459L2.02 6.7l-.011 5.219c-.011 5.69-.022 5.392.215 5.702.059.079.191.192.292.251.156.091.23.108.484.108s.328-.016.48-.107c.226-.135 5.325-5.241 5.425-5.433.052-.099.074-.228.074-.44.001-.255-.015-.327-.106-.48-.061-.102-1.243-1.313-2.72-2.786-2.526-2.52-2.62-2.609-2.83-2.67-.257-.076-.404-.077-.628-.007m17.965.009c-.186.056-.381.241-2.813 2.667-1.476 1.473-2.659 2.685-2.72 2.787-.091.153-.107.225-.106.48 0 .212.022.341.074.44.1.192 5.199 5.298 5.425 5.433.152.091.226.107.48.107s.328-.017.484-.108c.101-.059.233-.172.292-.251.237-.31.226-.012.215-5.702L21.98 6.7l-.108-.184a1.02 1.02 0 0 0-.582-.461c-.228-.069-.375-.066-.63.011m-8.965.991a1.04 1.04 0 0 0-.567.459l-.108.184v2.606l.121.197a.998.998 0 0 0 1.718 0l.121-.197V7.7l-.108-.184a1.005 1.005 0 0 0-1.177-.459M5.29 13.29 4 14.58V9.42l1.29 1.29L6.58 12zM20 12.01v2.57l-1.29-1.29L17.42 12l1.28-1.28c.704-.704 1.284-1.28 1.29-1.28.005 0 .01 1.156.01 2.57m-8.305 1.047a1.04 1.04 0 0 0-.567.459l-.108.184v2.606l.121.197a.998.998 0 0 0 1.718 0l.121-.197V13.7l-.108-.184a1.005 1.005 0 0 0-1.177-.459m0 6a1.04 1.04 0 0 0-.567.459l-.108.184v2.606l.121.197a.998.998 0 0 0 1.718 0l.121-.197V19.7l-.108-.184a1.005 1.005 0 0 0-1.177-.459"/></svg>