<svg xmlns="http://www.w3.org/2000/svg" width="24" height="24" fill="none" stroke="currentColor" stroke-linecap="round" stroke-linejoin="round" stroke-width="2"><path fill="#000" fill-rule="evenodd" stroke="none" d="M6.723 2.047a1.13 1.13 0 0 0-.592.464c-.095.161-.111.233-.111.489 0 .254.016.328.107.48.135.226 5.241 5.325 5.433 5.425.194.102.686.102.88 0 .192-.1 5.298-5.199 5.433-5.425.091-.152.107-.226.107-.48s-.017-.328-.108-.484a1.2 1.2 0 0 0-.249-.291c-.311-.237-.011-.225-5.618-.221-3.246.002-5.196.018-5.282.043M13.29 5.29 12 6.58l-1.29-1.29L9.42 4h5.16zM1.695 11.057a1.04 1.04 0 0 0-.567.459c-.091.156-.108.23-.108.484 0 .256.016.328.111.489.125.213.318.375.539.454.215.077 2.445.077 2.66 0 .221-.079.414-.241.539-.454.095-.161.111-.233.111-.489 0-.254-.017-.328-.108-.484a1.02 1.02 0 0 0-.582-.461c-.251-.076-2.353-.074-2.595.002m6 0a1.04 1.04 0 0 0-.567.459c-.091.156-.108.23-.108.484 0 .256.016.328.111.489.125.213.318.375.539.454.215.077 2.445.077 2.66 0 .221-.079.414-.241.539-.454.095-.161.111-.233.111-.489 0-.254-.017-.328-.108-.484a1.02 1.02 0 0 0-.582-.461c-.251-.076-2.353-.074-2.595.002m6 0a1.04 1.04 0 0 0-.567.459c-.091.156-.108.23-.108.484 0 .256.016.328.111.489.125.213.318.375.539.454.215.077 2.445.077 2.66 0 .221-.079.414-.241.539-.454.095-.161.111-.233.111-.489 0-.254-.017-.328-.108-.484a1.02 1.02 0 0 0-.582-.461c-.251-.076-2.353-.074-2.595.002m6 0a1.04 1.04 0 0 0-.567.459c-.091.156-.108.23-.108.484 0 .256.016.328.111.489.125.213.318.375.539.454.215.077 2.445.077 2.66 0 .221-.079.414-.241.539-.454.095-.161.111-.233.111-.489 0-.254-.017-.328-.108-.484a1.02 1.02 0 0 0-.582-.461c-.251-.076-2.353-.074-2.595.002m-8.055 4.011c-.155.053-.547.427-2.793 2.667-1.479 1.474-2.659 2.683-2.72 2.785-.091.152-.107.226-.107.48s.017.328.108.484c.125.213.322.375.556.458.237.083 10.412.084 10.646.001.221-.079.414-.241.539-.454.095-.161.111-.233.111-.489 0-.254-.016-.328-.107-.48-.061-.102-1.241-1.31-2.72-2.785-2.37-2.363-2.631-2.611-2.81-2.67a1.05 1.05 0 0 0-.703.003m1.66 3.652L14.58 20H9.42l1.28-1.28a60 60 0 0 1 1.3-1.28c.011 0 .596.576 1.3 1.28"/></svg>