<svg xmlns="http://www.w3.org/2000/svg" width="24" height="24" fill="none" stroke="currentColor" stroke-linecap="round" stroke-linejoin="round" stroke-width="2"><path fill="#000" fill-rule="evenodd" stroke="none" d="M4.499 2.043C3.38 2.232 2.461 3.048 2.114 4.16c-.093.297-.094.318-.094 2.223v1.923l.121.197a.998.998 0 0 0 1.718 0l.121-.197L4 6.523c.022-2 .014-1.941.321-2.24C4.635 3.979 4.062 4 12 4s7.365-.021 7.679.283c.307.299.299.24.321 2.24l.02 1.783.121.197a.998.998 0 0 0 1.718 0l.121-.197V6.383c0-1.905-.001-1.926-.094-2.223a3.09 3.09 0 0 0-2.025-2.039l-.321-.101-7.42-.006c-4.081-.003-7.511.01-7.621.029m-2.804 9.014a1.04 1.04 0 0 0-.567.459c-.091.156-.108.23-.108.484 0 .256.016.328.111.489.125.213.318.375.539.454.215.077 2.445.077 2.66 0 .221-.079.414-.241.539-.454.095-.161.111-.233.111-.489 0-.254-.017-.328-.108-.484a1.02 1.02 0 0 0-.582-.461c-.251-.076-2.353-.074-2.595.002m6 0a1.04 1.04 0 0 0-.567.459c-.091.156-.108.23-.108.484 0 .256.016.328.111.489.125.213.318.375.539.454.215.077 2.445.077 2.66 0 .221-.079.414-.241.539-.454.095-.161.111-.233.111-.489 0-.254-.017-.328-.108-.484a1.02 1.02 0 0 0-.582-.461c-.251-.076-2.353-.074-2.595.002m6 0a1.04 1.04 0 0 0-.567.459c-.091.156-.108.23-.108.484 0 .256.016.328.111.489.125.213.318.375.539.454.215.077 2.445.077 2.66 0 .221-.079.414-.241.539-.454.095-.161.111-.233.111-.489 0-.254-.017-.328-.108-.484a1.02 1.02 0 0 0-.582-.461c-.251-.076-2.353-.074-2.595.002m6 0a1.04 1.04 0 0 0-.567.459c-.091.156-.108.23-.108.484 0 .256.016.328.111.489.125.213.318.375.539.454.215.077 2.445.077 2.66 0 .221-.079.414-.241.539-.454.095-.161.111-.233.111-.489 0-.254-.017-.328-.108-.484a1.02 1.02 0 0 0-.582-.461c-.251-.076-2.353-.074-2.595.002m-17 4a1.04 1.04 0 0 0-.567.459l-.108.184v1.92c0 1.901.001 1.923.094 2.22a3.09 3.09 0 0 0 2.046 2.046l.3.094h15.08l.3-.094a3.09 3.09 0 0 0 2.046-2.046c.093-.297.094-.319.094-2.22V15.7l-.109-.186a1.01 1.01 0 0 0-1.742 0l-.109.186-.021 1.78c-.014 1.288-.034 1.811-.07 1.893a1.14 1.14 0 0 1-.445.499l-.184.108H4.7l-.184-.108a1.15 1.15 0 0 1-.446-.499c-.036-.082-.055-.595-.07-1.893l-.02-1.78-.108-.184a1.005 1.005 0 0 0-1.177-.459"/></svg>