<svg xmlns="http://www.w3.org/2000/svg" width="24" height="24" fill="none" stroke="currentColor" stroke-linecap="round" stroke-linejoin="round" stroke-width="2"><path fill="#000" fill-rule="evenodd" stroke="none" d="M11.695 1.057a1.04 1.04 0 0 0-.567.459l-.108.184v2.606l.121.197a.998.998 0 0 0 1.718 0l.121-.197V1.7l-.108-.184a1.005 1.005 0 0 0-1.177-.459m-7.196.986C3.383 2.23 2.461 3.048 2.114 4.16l-.094.3v15.12l.105.307c.171.5.371.817.771 1.217.401.401.719.602 1.217.77l.307.104 1.846.013c1.217.009 1.9 0 2.004-.028.228-.062.468-.251.597-.471.097-.165.113-.235.113-.492 0-.254-.017-.328-.108-.484a1.2 1.2 0 0 0-.254-.295C8.341 20.01 8.248 20 6.481 20c-1.824 0-1.874-.006-2.151-.275a1.4 1.4 0 0 1-.232-.307c-.076-.155-.078-.296-.088-7.336-.012-8.08-.036-7.45.293-7.778.298-.298.337-.304 2.234-.306 1.768-.002 1.808-.006 2.082-.215.077-.058.189-.191.25-.294.095-.161.111-.233.111-.489 0-.254-.017-.328-.108-.484a1.2 1.2 0 0 0-.254-.295c-.28-.213-.362-.221-2.214-.216-.937.002-1.795.02-1.905.038m11.196.013c-.23.074-.44.244-.567.46-.091.156-.108.23-.108.484 0 .256.016.328.111.489.061.103.173.236.25.294.274.209.314.213 2.082.215 1.897.002 1.936.008 2.234.305.327.328.303-.294.303 7.698 0 5.906-.009 7.137-.055 7.289a1.02 1.02 0 0 1-.461.582l-.184.108-1.78.021c-1.288.014-1.811.034-1.893.07a1.14 1.14 0 0 0-.499.445c-.091.156-.108.23-.108.484 0 .257.016.327.113.492.129.22.369.409.597.471.104.028.785.037 2.004.028 1.802-.014 1.853-.016 2.126-.106a3.11 3.11 0 0 0 2.026-2.045l.094-.3V4.46l-.094-.3a3.08 3.08 0 0 0-2.025-2.037c-.32-.099-.326-.1-2.161-.11-1.441-.008-1.876.001-2.005.043m-4 5.001a1.04 1.04 0 0 0-.567.459l-.108.184v2.606l.121.197a.998.998 0 0 0 1.718 0l.121-.197V7.7l-.108-.184a1.005 1.005 0 0 0-1.177-.459m0 6a1.04 1.04 0 0 0-.567.459l-.108.184v2.606l.121.197a.998.998 0 0 0 1.718 0l.121-.197V13.7l-.108-.184a1.005 1.005 0 0 0-1.177-.459m0 6a1.04 1.04 0 0 0-.567.459l-.108.184v2.606l.121.197a.998.998 0 0 0 1.718 0l.121-.197V19.7l-.108-.184a1.005 1.005 0 0 0-1.177-.459"/></svg>