<svg xmlns="http://www.w3.org/2000/svg" width="24" height="24" fill="none" stroke="currentColor" stroke-linecap="round" stroke-linejoin="round" stroke-width="2"><path fill="#000" fill-rule="evenodd" stroke="none" d="M6.86 2.047a5.7 5.7 0 0 0-2.08.68c-2.843 1.66-3.64 5.285-1.752 7.964.249.354.811.938 1.102 1.147.105.074.19.147.19.162s-.086.088-.19.163a6 6 0 0 0-.531.476c-2.116 2.117-2.128 5.553-.026 7.694 1.597 1.627 3.928 2.103 6.051 1.237.805-.329 1.75-1.055 2.216-1.703.073-.103.146-.187.161-.187s.074.069.13.153c.162.246.741.813 1.102 1.08a5.46 5.46 0 0 0 6.53.002c2.043-1.514 2.775-4.166 1.807-6.539-.329-.805-1.055-1.75-1.703-2.216-.103-.073-.187-.145-.187-.16s.084-.087.187-.16c.102-.074.324-.271.492-.437a5.466 5.466 0 0 0 .556-7.166c-1.145-1.545-3.032-2.389-4.917-2.2-1.07.107-1.944.443-2.798 1.076-.343.254-.907.808-1.064 1.046-.059.088-.119.161-.135.161-.015 0-.088-.084-.161-.187a6 6 0 0 0-.437-.492A5.48 5.48 0 0 0 6.86 2.047m1.545 2.068c.97.251 1.827.979 2.273 1.931.229.488.296.828.299 1.507l.003.573-.26.091c-.143.05-.368.146-.5.213l-.24.122-.72-.709c-.605-.596-.751-.72-.917-.776a1 1 0 0 0-1.215.449c-.091.156-.108.23-.108.484 0 .41.07.516.872 1.314l.657.654-.12.241c-.066.133-.162.36-.213.506l-.093.265-.611-.003c-.664-.004-.907-.048-1.401-.258-.929-.395-1.73-1.321-2-2.314-.119-.437-.119-1.373 0-1.81.356-1.309 1.504-2.344 2.831-2.553.355-.056 1.108-.018 1.463.073m9 0c.97.251 1.827.979 2.273 1.931.228.486.3.835.3 1.454s-.072.968-.3 1.454a3.56 3.56 0 0 1-2.318 1.949c-.191.052-.422.071-.873.074l-.613.003-.096-.275a5 5 0 0 0-.212-.506l-.115-.231.657-.654c.802-.798.872-.904.872-1.314 0-.254-.017-.328-.108-.484a1 1 0 0 0-1.215-.449c-.166.056-.312.18-.917.776l-.72.709-.24-.122a5 5 0 0 0-.5-.213l-.26-.091.002-.573c.003-.69.074-1.044.303-1.518.522-1.081 1.487-1.815 2.617-1.993.355-.056 1.108-.018 1.463.073m-4.882 5.958a2.01 2.01 0 0 1 1.444 1.617c.1.653-.094 1.243-.564 1.714-.401.403-.856.596-1.403.596q-.771 0-1.347-.535c-1.33-1.236-.464-3.46 1.347-3.46.143 0 .378.031.523.068m-4.307 3.212c.051.146.147.373.213.506l.12.241-.657.654c-.802.798-.872.904-.872 1.314 0 .257.016.327.113.492.28.476.9.647 1.359.373.092-.055.462-.395.822-.757l.654-.657.231.115c.128.064.355.159.506.212l.275.096-.003.573c-.003.679-.07 1.019-.299 1.507a3.57 3.57 0 0 1-2.318 1.951c-.367.102-1.353.102-1.72 0-1.228-.34-2.203-1.304-2.529-2.5-.119-.437-.119-1.373 0-1.81.356-1.309 1.519-2.357 2.831-2.551.131-.02.45-.033.71-.03l.472.006zm9.189-.171c.975.257 1.827.981 2.273 1.932.228.486.3.835.3 1.454s-.072.968-.3 1.454a3.57 3.57 0 0 1-2.318 1.951c-.197.054-.405.072-.86.072s-.663-.018-.86-.072a3.58 3.58 0 0 1-2.315-1.94c-.229-.474-.3-.828-.303-1.518l-.002-.573.275-.096c.151-.053.378-.148.506-.212l.231-.115.654.657c.36.362.73.702.822.757.459.274 1.079.103 1.359-.373.097-.165.113-.235.113-.492 0-.411-.07-.516-.876-1.318l-.661-.658.074-.122c.062-.104.261-.594.34-.838.023-.071.061-.074.634-.053.419.016.704.048.914.103"/></svg>