<svg xmlns="http://www.w3.org/2000/svg" width="24" height="24" fill="none" stroke="currentColor" stroke-linecap="round" stroke-linejoin="round" stroke-width="2"><path fill="#000" fill-rule="evenodd" stroke="none" d="M8.358 1.061c-2.208.344-3.722 2.521-3.276 4.711.161.79.484 1.402 1.073 2.038l.176.19-.176.19c-.419.452-.642.793-.854 1.305-.841 2.031.157 4.381 2.211 5.209a3.95 3.95 0 0 0 2.245.217c.363-.074 1.054-.319 1.141-.404.021-.02.052-.037.07-.037s.032.719.032 1.598v1.597l-.39-.26c-1.24-.829-2.741-1.261-4.799-1.381-.925-.054-1.134-.029-1.406.171-.368.271-.462.65-.368 1.479.153 1.342.653 2.375 1.588 3.275 1.396 1.345 3.567 2.039 6.375 2.039 2.785 0 4.961-.689 6.348-2.011a4.8 4.8 0 0 0 1.1-1.492 5.6 5.6 0 0 0 .514-1.812c.096-.825.001-1.207-.367-1.478-.273-.2-.481-.225-1.406-.171-2.067.122-3.556.55-4.799 1.381l-.39.26v-1.597c0-.879.014-1.598.032-1.598s.049.017.07.037c.021.021.198.102.394.181a3.984 3.984 0 0 0 5.209-2.214 3.96 3.96 0 0 0-.001-2.972c-.209-.517-.433-.863-.859-1.322L17.669 8l.176-.19c.426-.459.65-.805.859-1.322a3.96 3.96 0 0 0 .001-2.972 3.98 3.98 0 0 0-3.1-2.458 3.4 3.4 0 0 0-1.21 0c-.814.123-1.563.494-2.203 1.093l-.192.18-.192-.18c-.64-.599-1.389-.97-2.203-1.093a3.7 3.7 0 0 0-1.247.003m1.165 2.012c.499.13.993.526 1.249.998.12.222.226.648.227.912l.001.162-.33.168A3.13 3.13 0 0 0 9.312 6.67L9.147 7h-.205c-.83 0-1.653-.65-1.869-1.477a2 2 0 0 1 2.45-2.45m6 0a2.01 2.01 0 0 1 1.444 1.617c.1.653-.094 1.243-.564 1.714-.385.386-.858.596-1.345.596h-.205l-.165-.33a3.13 3.13 0 0 0-1.358-1.357L13 5.145v-.174c0-.29.116-.709.265-.957.48-.802 1.37-1.173 2.258-.941M12.31 7.061c.378.112.69.537.69.94 0 .33-.216.695-.516.871-.156.091-.23.108-.484.108s-.328-.017-.484-.108c-.581-.342-.683-1.098-.212-1.569q.417-.418 1.006-.242M9.312 9.33c.285.57.788 1.073 1.358 1.358l.33.165-.001.164a2.4 2.4 0 0 1-.227.914c-.147.277-.581.712-.842.844a1.98 1.98 0 0 1-2.277-.31 1.99 1.99 0 0 1 .334-3.186c.26-.157.661-.273.956-.277L9.147 9zm6.211-.257a2.01 2.01 0 0 1 1.444 1.617c.1.653-.094 1.243-.564 1.714-.401.403-.856.596-1.403.596q-.771 0-1.347-.535c-.403-.374-.645-.898-.651-1.408L13 10.853l.33-.165a3.13 3.13 0 0 0 1.358-1.358l.165-.33.204.002c.111.002.321.034.466.071M6.58 18.1c.692.067 1.773.356 2.28.609.588.294 1.122.699 1.412 1.071.281.358.633 1.088.561 1.16-.011.011-.217-.006-.459-.038-2.09-.276-3.454-1.067-4.055-2.352a2.3 2.3 0 0 1-.144-.385c-.024-.119-.018-.132.049-.113.042.012.202.034.356.048m11.245.07c-.039.204-.324.753-.526 1.014-.696.897-1.97 1.493-3.673 1.718-.242.032-.448.049-.459.038-.074-.074.284-.808.572-1.175.664-.844 1.992-1.452 3.637-1.664l.439-.057c.019-.002.024.054.01.126"/></svg>