<svg xmlns="http://www.w3.org/2000/svg" width="24" height="24" fill="none" stroke="currentColor" stroke-linecap="round" stroke-linejoin="round" stroke-width="2"><path fill="#000" fill-rule="evenodd" stroke="none" d="M3.499 2.043C2.383 2.23 1.461 3.048 1.114 4.16l-.094.3v14.08l.094.3a3.09 3.09 0 0 0 2.046 2.046l.3.094h17.08l.3-.094a3.09 3.09 0 0 0 2.046-2.046l.094-.3V7.46l-.094-.3a3.09 3.09 0 0 0-2.025-2.038l-.321-.101L16.18 5c-4.589-.021-4.44-.015-4.699-.199-.06-.043-.359-.443-.664-.889-.306-.447-.646-.903-.756-1.014a3.3 3.3 0 0 0-.978-.659C8.56 2.016 8.336 2 5.905 2.005c-1.213.002-2.296.02-2.406.038m4.678 1.995c.302.07.457.228.968.984.789 1.166 1.205 1.544 2.015 1.826l.38.132L15.9 7c4.886.022 4.502-.003 4.817.321.3.31.283-.035.283 5.68 0 4.211-.01 5.138-.055 5.289a1.02 1.02 0 0 1-.461.582l-.184.108H3.7l-.184-.108a1.2 1.2 0 0 1-.291-.249C2.986 18.31 3 18.748 3 11.522c0-7.458-.024-6.892.304-7.219.3-.301.269-.297 2.636-.299 1.144-.001 2.151.014 2.237.034m3.322 6.002a3.05 3.05 0 0 0-2.187 1.63l-.165.33H8.02c-1.228 0-1.374.02-1.638.221-.08.061-.195.194-.254.295-.091.156-.108.23-.108.484 0 .256.016.328.111.489.061.103.173.236.25.294.264.202.351.213 1.602.215L9.147 14l.165.33a3.1 3.1 0 0 0 1.848 1.556c.258.081.379.094.86.091.488-.003.6-.016.867-.105a3.12 3.12 0 0 0 1.801-1.542l.165-.33 1.164-.002c1.251-.002 1.338-.013 1.602-.215.077-.058.189-.191.25-.294.095-.161.111-.233.111-.489 0-.254-.017-.328-.108-.484a1.2 1.2 0 0 0-.254-.295c-.264-.201-.41-.221-1.638-.221h-1.127l-.165-.33a3.06 3.06 0 0 0-1.827-1.541c-.361-.106-1.029-.149-1.362-.089m.811 2.021c.378.112.69.537.69.94 0 .33-.216.695-.516.871-.156.091-.23.108-.484.108s-.328-.017-.484-.108c-.581-.342-.683-1.098-.212-1.569q.417-.418 1.006-.242"/></svg>