<svg xmlns="http://www.w3.org/2000/svg" width="24" height="24" fill="none" stroke="currentColor" stroke-linecap="round" stroke-linejoin="round" stroke-width="2"><path fill="#000" fill-rule="evenodd" stroke="none" d="M3.499 2.043C2.383 2.23 1.461 3.048 1.114 4.16l-.094.3v14.08l.094.3c.304.976 1.037 1.716 2.026 2.046l.28.093 2.92.012c3.261.014 3.108.026 3.433-.267a.94.94 0 0 0 .315-.721c0-.388-.194-.705-.548-.897-.159-.085-.184-.086-3-.106l-2.84-.02-.184-.108a1.2 1.2 0 0 1-.291-.249C2.986 18.31 3 18.748 3 11.522c0-7.457-.024-6.892.303-7.219.305-.305.29-.303 2.654-.302 1.135 0 2.134.017 2.22.037.302.07.457.228.968.984.789 1.166 1.205 1.544 2.015 1.826l.38.132L15.9 7c4.886.022 4.502-.003 4.817.321.3.31.283-.037.283 5.696 0 3.309-.015 5.174-.041 5.268a1 1 0 0 1-.399.541c-.514.37-.654.579-.652.974.001.529.392.94.94.99.211.019.263.007.523-.123.791-.393 1.385-1.179 1.571-2.076.052-.254.059-1.008.049-5.732L22.98 7.42l-.094-.28c-.33-.983-1.066-1.716-2.025-2.018l-.321-.101L16.18 5c-4.589-.021-4.44-.015-4.699-.199-.06-.043-.359-.443-.664-.889-.306-.447-.646-.903-.756-1.014a3.3 3.3 0 0 0-.978-.659C8.56 2.016 8.336 2 5.905 2.005c-1.213.002-2.296.02-2.406.038m11.196 7.014a1.04 1.04 0 0 0-.567.459c-.108.183-.108.187-.108.987v.803l.121.197a.998.998 0 0 0 1.718 0l.121-.197v-.803c0-.8 0-.804-.108-.987a1.005 1.005 0 0 0-1.177-.459m0 5a1.04 1.04 0 0 0-.567.459c-.105.179-.108.205-.121.908l-.013.724-.327.167a3.1 3.1 0 0 0-1.553 1.845c-.135.434-.135 1.246 0 1.68a3.09 3.09 0 0 0 2.046 2.046c.252.078.387.093.84.093s.588-.015.84-.093a3.09 3.09 0 0 0 2.046-2.046c.135-.434.135-1.246 0-1.68a3.1 3.1 0 0 0-1.553-1.845l-.327-.167-.013-.724c-.013-.703-.016-.729-.121-.908a1.005 1.005 0 0 0-1.177-.459m.615 4.004c.378.112.69.537.69.94 0 .33-.216.695-.516.871-.156.091-.23.108-.484.108s-.328-.017-.484-.108c-.581-.342-.683-1.098-.212-1.569q.417-.418 1.006-.242"/></svg>