<svg xmlns="http://www.w3.org/2000/svg" width="24" height="24" fill="none" stroke="currentColor" stroke-linecap="round" stroke-linejoin="round" stroke-width="2"><path fill="#000" fill-rule="evenodd" stroke="none" d="M3.499 2.043C2.383 2.23 1.461 3.048 1.114 4.16l-.094.3v14.08l.094.3a3.09 3.09 0 0 0 2.046 2.046l.3.094h17.08l.3-.094a3.09 3.09 0 0 0 2.046-2.046l.094-.3V7.46l-.094-.3a3.09 3.09 0 0 0-2.025-2.038l-.321-.101L16.18 5c-4.589-.021-4.44-.015-4.699-.199-.06-.043-.359-.443-.664-.889-.306-.447-.646-.903-.756-1.014a3.3 3.3 0 0 0-.978-.659C8.56 2.016 8.336 2 5.905 2.005c-1.213.002-2.296.02-2.406.038m4.678 1.995c.302.07.457.228.968.984.789 1.166 1.205 1.544 2.015 1.826l.38.132L15.9 7c4.886.022 4.502-.003 4.817.321.3.31.283-.035.283 5.68 0 4.211-.01 5.138-.055 5.289a1.02 1.02 0 0 1-.461.582l-.184.108H3.7l-.184-.108a1.2 1.2 0 0 1-.291-.249C2.986 18.31 3 18.748 3 11.522c0-7.458-.024-6.892.304-7.219.3-.301.269-.297 2.636-.299 1.144-.001 2.151.014 2.237.034m.867 5.587c-.504.251-.698.942-.393 1.395.044.066.496.538 1.004 1.05l.924.93-.924.93c-.508.512-.96.984-1.004 1.05-.275.409-.138 1.046.289 1.34.298.205.8.22 1.077.032.068-.046.541-.499 1.053-1.007l.93-.924.93.924c.512.508.985.961 1.051 1.006.281.19.781.174 1.084-.034.413-.284.553-.941.286-1.336-.045-.066-.498-.539-1.006-1.051l-.924-.929.948-.951c.705-.707.968-.998 1.029-1.136.297-.673-.168-1.396-.896-1.393-.413.001-.505.067-1.552 1.11l-.95.947-.95-.947c-.679-.677-1.001-.97-1.13-1.028a1.06 1.06 0 0 0-.876.022"/></svg>