<svg xmlns="http://www.w3.org/2000/svg" width="24" height="24" fill="none" stroke="currentColor" stroke-linecap="round" stroke-linejoin="round" stroke-width="2"><path fill="#000" fill-rule="evenodd" stroke="none" d="M3.499 2.042A3.05 3.05 0 0 0 1.114 4.16l-.094.3v14.08l.094.3a3.11 3.11 0 0 0 2.026 2.045c.273.09.324.092 2.126.106 1.219.009 1.9 0 2.004-.028.228-.062.468-.251.597-.471.097-.165.113-.235.113-.492 0-.254-.017-.328-.108-.484a1.14 1.14 0 0 0-.499-.445c-.082-.036-.605-.056-1.893-.07L3.7 18.98l-.184-.108a1.05 1.05 0 0 1-.458-.556c-.09-.256-.087-13.323.003-13.626.083-.279.35-.546.629-.629.289-.086 4.238-.091 4.521-.006.296.089.399.192.835.835.638.939.845 1.203 1.12 1.426.331.267.809.501 1.234.602.33.079.461.081 4.523.082 4.688 0 4.449-.014 4.756.283.207.202.272.353.322.748.048.379.183.616.451.797.471.316 1.102.17 1.407-.325.115-.188.121-.218.119-.62-.001-.324-.023-.493-.093-.723a3.08 3.08 0 0 0-2.024-2.038l-.321-.101L16.16 5l-4.38-.02-.167-.089c-.204-.11-.328-.262-.854-1.051-.555-.833-.954-1.235-1.481-1.494-.682-.335-.555-.322-3.218-.331-1.298-.004-2.451.008-2.561.027M15.54 9.023c-1.062.102-1.848.312-2.63.703-2.072 1.036-3.462 2.94-3.836 5.254-.066.413-.066 1.627 0 2.04.5 3.092 2.814 5.406 5.906 5.906.412.066 1.627.066 2.04 0 3.089-.498 5.408-2.817 5.906-5.906.028-.176.051-.635.051-1.02 0-.944-.101-1.538-.404-2.38-.858-2.383-2.992-4.147-5.471-4.522-.376-.057-1.289-.101-1.562-.075m1.012 2.02a5.01 5.01 0 0 1 4.128 3.205c.412 1.072.405 2.472-.017 3.545a5.08 5.08 0 0 1-3.063 2.939c-.556.19-.93.248-1.6.248s-1.044-.058-1.6-.248a5.04 5.04 0 0 1-3.239-3.492c-.241-.933-.178-2.115.159-2.992a5 5 0 0 1 5.232-3.205m-.857 2.014a1.04 1.04 0 0 0-.567.459l-.108.184-.012 1.213c-.011 1.059-.004 1.239.056 1.419.058.174.16.299.672.821.332.338.68.659.772.714.462.271 1.08.1 1.359-.375.097-.165.113-.234.112-.492-.001-.391-.05-.478-.562-1l-.412-.42-.012-.94c-.013-.939-.013-.94-.121-1.124a1.005 1.005 0 0 0-1.177-.459"/></svg>