<svg xmlns="http://www.w3.org/2000/svg" width="24" height="24" fill="none" stroke="currentColor" stroke-linecap="round" stroke-linejoin="round" stroke-width="2"><path fill="#000" fill-rule="evenodd" stroke="none" d="M3.499 2.042A3.05 3.05 0 0 0 1.114 4.16l-.094.3v4.846l.121.197a.998.998 0 0 0 1.718 0l.121-.197L3 7.023c.022-2.559.008-2.436.321-2.74.291-.282.3-.283 2.64-.283 2.197 0 2.288.007 2.552.195.066.047.306.359.533.695.638.939.845 1.203 1.12 1.426.331.267.809.501 1.234.602.33.079.461.081 4.523.082 4.726 0 4.453-.017 4.774.303.323.324.303-.06.303 5.698 0 4.211-.01 5.138-.055 5.289a1.02 1.02 0 0 1-.461.582l-.184.108H3.7l-.184-.108a1.13 1.13 0 0 1-.444-.499c-.029-.068-.057-.426-.07-.893-.021-.759-.025-.785-.131-.966a1.01 1.01 0 0 0-1.742 0l-.109.186v.92c0 .853.007.942.094 1.22a3.09 3.09 0 0 0 2.046 2.046l.3.094h17.08l.3-.094a3.09 3.09 0 0 0 2.046-2.046l.094-.3V7.46l-.094-.3a3.09 3.09 0 0 0-2.025-2.038l-.321-.101L16.16 5l-4.38-.02-.167-.089c-.204-.11-.328-.262-.854-1.051-.555-.833-.954-1.235-1.481-1.494-.682-.335-.555-.322-3.218-.331-1.298-.004-2.451.008-2.561.027M8.67 9.061c-.222.081-.42.248-.542.455-.092.156-.108.229-.107.484 0 .213.022.34.075.44.04.077.39.46.777.85l.704.71H5.735c-4.17 0-4.055-.006-4.353.221-.08.061-.195.194-.254.295-.091.156-.108.23-.108.484 0 .256.016.328.111.489.125.213.318.375.539.454.121.043.893.054 4.029.055L9.577 14l-.704.71c-.387.391-.734.771-.772.845-.229.453-.045 1.046.407 1.312.165.097.234.113.492.112.212 0 .341-.022.44-.074.077-.04.866-.796 1.754-1.679 1.763-1.754 1.805-1.806 1.805-2.226 0-.422-.039-.47-1.824-2.244-1.459-1.449-1.656-1.632-1.832-1.69a1 1 0 0 0-.673-.005"/></svg>