<svg xmlns="http://www.w3.org/2000/svg" width="24" height="24" fill="none" stroke="currentColor" stroke-linecap="round" stroke-linejoin="round" stroke-width="2"><path fill="#000" fill-rule="evenodd" stroke="none" d="M3.499 2.043C2.383 2.23 1.461 3.048 1.114 4.16l-.094.3v14.08l.094.3a3.09 3.09 0 0 0 2.046 2.046l.3.094h17.08l.3-.094a3.09 3.09 0 0 0 2.046-2.046l.094-.3V7.46l-.094-.3a3.09 3.09 0 0 0-2.025-2.038l-.321-.101L16.18 5c-4.589-.021-4.44-.015-4.699-.199-.06-.043-.359-.443-.664-.889-.306-.447-.646-.903-.756-1.014a3.3 3.3 0 0 0-.978-.659C8.56 2.016 8.336 2 5.905 2.005c-1.213.002-2.296.02-2.406.038m4.678 1.995c.302.07.457.228.968.984.789 1.166 1.205 1.544 2.015 1.826l.38.132L15.9 7c4.886.022 4.502-.003 4.817.321.23.238.283.448.283 1.126V9H3V6.947c0-2.353-.002-2.339.304-2.644.3-.301.269-.297 2.636-.299 1.144-.001 2.151.014 2.237.034M21 14.554c0 3.856.005 3.768-.221 4.064-.061.08-.194.195-.295.254l-.184.108H3.7l-.184-.108a1.2 1.2 0 0 1-.291-.249C2.992 18.317 3 18.464 3 14.575V11h18z"/></svg>