<svg xmlns="http://www.w3.org/2000/svg" width="24" height="24" fill="none" stroke="currentColor" stroke-linecap="round" stroke-linejoin="round" stroke-width="2"><path fill="#000" fill-rule="evenodd" stroke="none" d="M3.499 2.042A3.05 3.05 0 0 0 1.114 4.16l-.094.3v14.08l.094.3c.304.976 1.037 1.716 2.026 2.045l.28.094 2.849.012c1.887.008 2.902-.002 3.004-.029.225-.061.465-.251.594-.47.097-.165.113-.235.113-.492 0-.254-.017-.328-.108-.484a1.15 1.15 0 0 0-.499-.446c-.086-.038-.791-.055-2.893-.07l-2.78-.02-.184-.108a1.05 1.05 0 0 1-.458-.556c-.09-.256-.087-13.323.003-13.626.083-.279.35-.546.629-.629.289-.086 4.238-.091 4.521-.006.296.089.399.192.835.835.638.939.845 1.203 1.12 1.426.331.267.809.501 1.234.602.33.079.461.081 4.523.082 4.688 0 4.449-.014 4.756.283.317.308.299.121.321 3.24l.02 2.783.121.197a.998.998 0 0 0 1.718 0l.121-.197V7.46l-.094-.3a3.09 3.09 0 0 0-2.025-2.038l-.321-.101L16.16 5l-4.38-.02-.167-.089c-.204-.11-.328-.262-.854-1.051-.555-.833-.954-1.235-1.481-1.494-.682-.335-.555-.322-3.218-.331-1.298-.004-2.451.008-2.561.027m9 6.998a3.05 3.05 0 0 0-2.385 2.12c-.135.434-.135 1.246 0 1.68.249.8.814 1.474 1.546 1.844l.32.161.02 3.731.02 3.73.121.197a.998.998 0 0 0 1.718 0l.121-.197.02-1.891.02-1.891.28.219c.703.549 1.712 1.003 2.542 1.146l.278.047.178.362a3.08 3.08 0 0 0 1.862 1.588c.434.135 1.246.135 1.68 0a3 3 0 0 0 1.051-.565c.5-.428.811-.891.995-1.481.135-.434.135-1.246 0-1.68a3.07 3.07 0 0 0-2.025-2.035c-.273-.083-.403-.098-.861-.098s-.588.015-.861.098a3.1 3.1 0 0 0-1.805 1.495 7 7 0 0 1-.158.295c-.028.034-.733-.213-1.015-.355a3.9 3.9 0 0 1-1.981-2.384 3 3 0 0 1-.09-.356c.005-.005.136-.074.29-.154a3.14 3.14 0 0 0 1.506-1.826c.135-.434.135-1.246 0-1.68-.305-.981-1.076-1.753-2.025-2.031-.361-.106-1.029-.149-1.362-.089m.811 2.021c.378.112.69.537.69.94 0 .33-.216.695-.516.871-.156.091-.23.108-.484.108s-.328-.017-.484-.108c-.581-.342-.683-1.098-.212-1.569q.417-.418 1.006-.242m7 7c.378.112.69.537.69.94 0 .33-.216.695-.516.871-.156.091-.23.108-.484.108s-.328-.017-.484-.108c-.581-.342-.683-1.098-.212-1.569q.417-.418 1.006-.242"/></svg>