<svg xmlns="http://www.w3.org/2000/svg" width="24" height="24" fill="none" stroke="currentColor" stroke-linecap="round" stroke-linejoin="round" stroke-width="2"><path fill="#000" fill-rule="evenodd" stroke="none" d="M3.499 2.043C2.383 2.23 1.461 3.048 1.114 4.16l-.094.3v14.08l.094.3a3.09 3.09 0 0 0 2.046 2.046l.3.094h17.08l.3-.094a3.09 3.09 0 0 0 2.046-2.046l.094-.3V7.46l-.094-.3a3.09 3.09 0 0 0-2.025-2.038l-.321-.101L16.18 5c-4.589-.021-4.44-.015-4.699-.199-.06-.043-.359-.443-.664-.889-.306-.447-.646-.903-.756-1.014a3.3 3.3 0 0 0-.978-.659C8.56 2.016 8.336 2 5.905 2.005c-1.213.002-2.296.02-2.406.038m4.678 1.995c.302.07.457.228.968.984.789 1.166 1.205 1.544 2.015 1.826l.38.132L15.9 7c4.886.022 4.502-.003 4.817.321.3.31.283-.035.283 5.68 0 4.211-.01 5.138-.055 5.289a1.02 1.02 0 0 1-.461.582l-.184.108H3.7l-.184-.108a1.2 1.2 0 0 1-.291-.249C2.986 18.31 3 18.748 3 11.522c0-7.458-.024-6.892.304-7.219.3-.301.269-.297 2.636-.299 1.144-.001 2.151.014 2.237.034m2.696 5.022a3.54 3.54 0 0 0-1.915 1.045c-.399.422-.644.852-.825 1.443-.095.315-.107.415-.107.952s.012.637.107.952c.368 1.204 1.212 2.049 2.415 2.414.309.094.423.107.932.11.628.003.951-.06 1.452-.285l.232-.104.628.622c.345.342.691.655.768.695.1.053.226.075.44.075.258.001.327-.015.492-.112.222-.13.409-.369.473-.603a1.2 1.2 0 0 0-.067-.709c-.037-.074-.347-.418-.689-.763l-.622-.628.104-.232a3.505 3.505 0 0 0-1.089-4.22 3.8 3.8 0 0 0-1.224-.594c-.419-.109-1.098-.135-1.505-.058m1.246 2.083c.298.136.608.449.746.753.095.209.111.296.111.604s-.016.395-.111.604c-.14.309-.448.616-.765.764-.207.097-.29.112-.6.112s-.393-.015-.6-.112a1.68 1.68 0 0 1-.765-.764c-.095-.208-.111-.296-.111-.604-.001-.309.015-.394.11-.6.193-.422.615-.771 1.04-.861.267-.057.696-.009.945.104"/></svg>