<svg xmlns="http://www.w3.org/2000/svg" width="24" height="24" fill="none" stroke="currentColor" stroke-linecap="round" stroke-linejoin="round" stroke-width="2"><path fill="#000" fill-rule="evenodd" stroke="none" d="M3.499 2.042A3.05 3.05 0 0 0 1.114 4.16l-.094.3v14.08l.094.3c.304.976 1.036 1.714 2.026 2.046l.28.094 3.72.011c4.153.013 3.904.029 4.233-.267a.94.94 0 0 0 .315-.721c0-.388-.194-.705-.548-.897-.16-.086-.163-.086-3.8-.106l-3.64-.02-.184-.108a1.05 1.05 0 0 1-.458-.556c-.09-.256-.087-13.323.003-13.626.083-.279.35-.546.629-.629.289-.086 4.238-.091 4.521-.006.296.089.399.192.835.835.638.939.845 1.203 1.12 1.426.331.267.809.501 1.234.602.33.079.461.081 4.523.082 4.726 0 4.453-.017 4.774.303.306.307.303.275.303 2.794l.001 2.203.094.2c.181.382.5.588.908.588a.94.94 0 0 0 .721-.315c.29-.322.282-.231.267-2.934-.013-2.408-.013-2.42-.106-2.699a3.11 3.11 0 0 0-2.024-2.018l-.321-.101L16.16 5l-4.38-.02-.167-.089c-.204-.11-.328-.262-.854-1.051-.555-.833-.954-1.235-1.481-1.494-.682-.335-.555-.322-3.218-.331-1.298-.004-2.451.008-2.561.027m12.859 11.019c-1.128.176-2.215.913-2.789 1.892a3.992 3.992 0 0 0 1.943 5.751 3.97 3.97 0 0 0 2.982-.003c.19-.076.387-.166.438-.199.088-.058.109-.042.749.602.363.364.735.706.827.761.459.274 1.079.103 1.359-.373.097-.165.113-.235.113-.492 0-.411-.07-.516-.876-1.319-.644-.64-.66-.661-.602-.749.125-.192.342-.8.419-1.175a3.94 3.94 0 0 0-.216-2.241 3.98 3.98 0 0 0-3.1-2.458 3.7 3.7 0 0 0-1.247.003m1.165 2.012c.967.253 1.598 1.231 1.444 2.237-.067.435-.234.754-.572 1.092-.413.414-.844.598-1.395.598q-.771 0-1.347-.535c-1.33-1.236-.464-3.46 1.347-3.46.143 0 .378.031.523.068"/></svg>