<svg xmlns="http://www.w3.org/2000/svg" width="24" height="24" fill="none" stroke="currentColor" stroke-linecap="round" stroke-linejoin="round" stroke-width="2"><path fill="#000" fill-rule="evenodd" stroke="none" d="M3.499 2.042c-1.114.192-2.018.989-2.383 2.098-.089.27-.093.338-.107 1.897-.016 1.812-.015 1.823.267 2.136a.94.94 0 0 0 .721.315c.408 0 .727-.206.908-.588.093-.198.094-.211.095-1.603 0-1.631.011-1.702.303-1.994.305-.305.29-.303 2.658-.303 2.197 0 2.288.007 2.552.195.066.047.306.359.533.695.638.939.845 1.203 1.12 1.426.331.267.809.501 1.234.602.33.079.461.081 4.523.082 4.726 0 4.453-.017 4.774.303.323.324.303-.06.303 5.698 0 4.211-.01 5.138-.055 5.289a1.02 1.02 0 0 1-.461.582l-.184.108-8.24.011c-6.407.009-8.28.001-8.419-.037-.268-.074-.572-.388-.665-.688-.144-.462-.514-.746-.97-.746-.29 0-.455.06-.661.241-.329.289-.412.672-.254 1.166.148.46.364.814.706 1.157.469.472.945.734 1.553.856.276.055 1.236.061 8.77.051l8.46-.011.28-.094c.991-.332 1.722-1.07 2.026-2.046l.094-.3V7.46l-.094-.3a3.09 3.09 0 0 0-2.025-2.038l-.321-.101L16.16 5l-4.38-.02-.167-.089c-.204-.11-.328-.262-.854-1.051-.555-.833-.954-1.235-1.481-1.494-.682-.335-.555-.322-3.218-.331-1.298-.004-2.451.008-2.561.027M4.64 9.069c-.152.052-.435.315-1.815 1.686C1.04 12.53 1.001 12.578 1.001 13c0 .42.042.472 1.805 2.226.888.883 1.675 1.636 1.749 1.673.455.229 1.046.045 1.312-.407.097-.165.113-.234.112-.492 0-.213-.022-.34-.075-.44-.04-.077-.39-.459-.777-.85L4.423 14l3.878-.002c3.136-.001 3.908-.012 4.029-.055.221-.079.414-.241.539-.454.095-.161.111-.233.111-.489 0-.254-.017-.328-.108-.484a1.2 1.2 0 0 0-.254-.295c-.298-.227-.183-.221-4.353-.221H4.423l.704-.71c.387-.39.737-.773.777-.85.053-.1.075-.227.075-.44.001-.255-.015-.328-.107-.484a1.01 1.01 0 0 0-1.232-.447"/></svg>