<svg xmlns="http://www.w3.org/2000/svg" width="24" height="24" fill="none" stroke="currentColor" stroke-linecap="round" stroke-linejoin="round" stroke-width="2"><path fill="#000" fill-rule="evenodd" stroke="none" d="M3.499 2.042A3.05 3.05 0 0 0 1.114 4.16l-.094.3v14.08l.094.3c.304.976 1.035 1.714 2.026 2.046l.28.094 7.66.011c8.559.013 7.984.031 8.629-.271.732-.342 1.294-.941 1.553-1.652.084-.234 1.502-5.691 1.664-6.408a3.02 3.02 0 0 0-1.732-3.41l-.185-.082-.018-.874c-.017-.765-.03-.909-.109-1.154a3.1 3.1 0 0 0-2.021-2.018l-.321-.1-3.38-.021-3.38-.021-.167-.089c-.204-.11-.328-.262-.854-1.051-.555-.833-.954-1.235-1.481-1.494-.682-.335-.555-.322-3.218-.331-1.298-.004-2.451.008-2.561.027m4.712 2.013c.296.089.399.192.835.835.638.939.845 1.203 1.12 1.426.331.267.809.501 1.234.602.327.078.466.081 3.523.082 3.611 0 3.458-.012 3.774.303.251.251.303.448.303 1.143v.552l-5.11.012c-5.75.013-5.253-.015-5.954.329a3.2 3.2 0 0 0-1.075.9c-.148.201-1.603 2.969-1.767 3.361-.167.398-.091.805.205 1.101a.98.98 0 0 0 1.398 0c.12-.122.373-.574.962-1.721.477-.928.85-1.606.924-1.68.069-.069.195-.16.281-.203.152-.075.308-.077 5.694-.087 6.086-.012 5.784-.023 6.089.229.082.068.196.222.256.343.091.187.105.256.087.449-.025.267-1.56 6.276-1.647 6.442-.085.166-.346.386-.547.462-.162.062-.756.066-7.636.056L3.7 18.98l-.184-.108a1.05 1.05 0 0 1-.458-.556c-.09-.256-.087-13.323.003-13.626.079-.269.351-.547.612-.627.27-.083 4.264-.09 4.538-.008"/></svg>