<svg xmlns="http://www.w3.org/2000/svg" width="24" height="24" fill="none" stroke="currentColor" stroke-linecap="round" stroke-linejoin="round" stroke-width="2"><path fill="#000" fill-rule="evenodd" stroke="none" d="M3.499 2.042A3.05 3.05 0 0 0 1.114 4.16l-.094.3v14.08l.094.3c.304.976 1.035 1.714 2.026 2.046l.28.094 3.851.011c2.553.008 3.902-.002 4.004-.03.223-.06.464-.25.592-.469.097-.165.113-.235.113-.492 0-.254-.017-.328-.108-.484a1.15 1.15 0 0 0-.499-.446c-.087-.038-.99-.055-3.893-.07l-3.78-.02-.184-.108a1.05 1.05 0 0 1-.458-.556c-.09-.256-.087-13.323.003-13.626.083-.279.35-.546.629-.629.289-.086 4.238-.091 4.521-.006.296.089.399.192.835.835.638.939.845 1.203 1.12 1.426.331.267.809.501 1.234.602.33.079.461.081 4.523.082 4.726 0 4.453-.017 4.774.303.274.275.303.415.303 1.494.001.866.005.911.095 1.103.181.382.5.588.908.588a.94.94 0 0 0 .721-.315c.273-.303.286-.384.267-1.639-.016-1.023-.024-1.137-.108-1.394a3.1 3.1 0 0 0-2.022-2.018l-.321-.101L16.16 5l-4.38-.02-.167-.089c-.204-.11-.328-.262-.854-1.051-.555-.833-.954-1.235-1.481-1.494-.682-.335-.555-.322-3.218-.331-1.298-.004-2.451.008-2.561.027m11.488 9.999a3.405 3.405 0 0 0-2.976 3.535c.04.872.351 1.637.942 2.312.107.122 1.038 1.055 2.069 2.073 2.025 1.999 2.073 2.038 2.478 2.038.415 0 .442-.022 2.651-2.225 2.152-2.146 2.281-2.294 2.539-2.905.601-1.427.294-2.942-.801-3.951-1.163-1.073-2.944-1.214-4.229-.336l-.16.109-.14-.087c-.307-.19-.796-.407-1.08-.479a4.1 4.1 0 0 0-1.293-.084m1.033 2.117c.148.068.366.227.568.414.475.44.724.543 1.111.461.248-.053.358-.127.747-.5.349-.335.625-.481.982-.518.561-.059 1.093.219 1.389.723.122.209.194.598.16.871-.034.274-.252.732-.467.981a73 73 0 0 1-1.591 1.599l-1.42 1.403-1.582-1.566c-1.406-1.391-1.597-1.595-1.71-1.826-.321-.655-.248-1.313.195-1.753a1.41 1.41 0 0 1 1.618-.289"/></svg>