<svg xmlns="http://www.w3.org/2000/svg" width="24" height="24" fill="none" stroke="currentColor" stroke-linecap="round" stroke-linejoin="round" stroke-width="2"><path fill="#000" fill-rule="evenodd" stroke="none" d="M3.499 2.042A3.05 3.05 0 0 0 1.114 4.16l-.094.3v14.08l.094.3c.304.976 1.036 1.714 2.026 2.046l.28.093 3.52.012c3.93.013 3.705.028 4.033-.267a.94.94 0 0 0 .315-.721c0-.388-.194-.705-.548-.897-.16-.086-.168-.086-3.6-.106l-3.44-.02-.184-.108a1.05 1.05 0 0 1-.458-.556c-.09-.256-.087-13.323.003-13.626.083-.279.35-.546.629-.629.289-.086 4.238-.091 4.521-.006.296.089.399.192.835.835.638.939.845 1.203 1.12 1.426.331.267.809.501 1.234.602.33.079.461.081 4.523.082 4.726 0 4.453-.017 4.774.303.301.301.303.32.303 2.394l.001 1.803.094.2c.181.382.5.588.908.588a.94.94 0 0 0 .721-.315c.287-.318.282-.277.267-2.535-.013-1.984-.015-2.023-.106-2.298a3.11 3.11 0 0 0-2.024-2.018l-.321-.101L16.16 5l-4.38-.02-.167-.089c-.204-.11-.328-.262-.854-1.051-.555-.833-.954-1.235-1.481-1.494-.682-.335-.555-.322-3.218-.331-1.298-.004-2.451.008-2.561.027M16 13.384c-.325.14-.599.551-.6.899 0 .1.029.267.064.371l.064.188-.278.269a6 6 0 0 0-.398.421l-.12.152-.188-.047a1.02 1.02 0 0 0-1.168.583c-.084.199-.087.554-.007.743.084.198.294.427.477.52l.154.079v.389c.001.214.011.453.024.531.023.136.016.146-.141.217a.99.99 0 0 0-.328 1.553 1.01 1.01 0 0 0 1.099.284l.188-.064.269.278c.148.153.338.332.422.399.15.119.152.125.11.276a1.02 1.02 0 0 0 .577 1.199c.198.083.551.083.749-.001.202-.086.42-.284.514-.469l.079-.154h.389a5 5 0 0 0 .531-.024c.136-.023.146-.016.217.141.04.091.149.234.241.319.497.458 1.273.292 1.566-.336.109-.234.118-.444.032-.735l-.063-.21.276-.267c.152-.148.331-.337.398-.421.119-.15.125-.152.276-.11a1.02 1.02 0 0 0 1.199-.577c.084-.199.087-.554.007-.743a1.2 1.2 0 0 0-.477-.52L22 18.438v-.389a5 5 0 0 0-.024-.531c-.023-.135-.016-.146.136-.214a.99.99 0 0 0 .578-.905c-.004-.683-.634-1.137-1.306-.942l-.23.067-.267-.275a5 5 0 0 0-.421-.394c-.152-.117-.154-.121-.11-.277a.99.99 0 0 0-.291-1.008.92.92 0 0 0-.67-.25c-.382 0-.683.183-.892.541l-.083.144-.526.013-.526.013-.071-.157a1.2 1.2 0 0 0-.52-.498c-.176-.073-.6-.069-.777.008m2.408 2.66c.326.068.688.258.944.495.233.216.26.257.483.745.306.665.155 1.497-.374 2.068a1.6 1.6 0 0 1-.348.296c-.741.358-.653.332-1.131.331-.409-.001-.465-.011-.749-.133a1.9 1.9 0 0 1-.561-.364c-.256-.234-.281-.272-.512-.775-.222-.482-.205-1.048.045-1.577.135-.284.484-.682.682-.779.361-.176.619-.287.73-.313.19-.046.557-.043.791.006"/></svg>