<svg xmlns="http://www.w3.org/2000/svg" width="24" height="24" fill="none" stroke="currentColor" stroke-linecap="round" stroke-linejoin="round" stroke-width="2"><path fill="#000" fill-rule="evenodd" stroke="none" d="M3.499 2.043c-1.106.185-2.011.982-2.385 2.097l-.094.28-.011 3.62c-.013 4.041-.029 3.805.267 4.133a.94.94 0 0 0 .721.315c.408 0 .727-.206.908-.588l.094-.2L3 8.297c0-3.856-.014-3.677.303-3.994C3.608 3.999 3.597 4 5.925 4c1.294 0 2.104.016 2.231.043.34.073.469.204 1.046 1.063.715 1.065 1.067 1.403 1.747 1.675.551.221.5.219 5.002.219 4.695 0 4.425-.017 4.746.303.323.324.303-.06.303 5.698 0 4.211-.01 5.138-.055 5.289a1.02 1.02 0 0 1-.461.582l-.184.108-5.04.02-5.04.02-.16.086c-.354.192-.548.509-.548.897 0 .289.107.533.315.721.333.3-.082.28 5.633.267l5.12-.011.28-.094c.991-.332 1.722-1.07 2.026-2.046l.094-.3V7.46l-.094-.3a3.09 3.09 0 0 0-2.025-2.038l-.321-.101L16.18 5c-4.665-.021-4.45-.011-4.726-.222-.07-.053-.366-.452-.658-.887-.715-1.064-1.058-1.39-1.753-1.673-.495-.201-.75-.218-3.138-.213-1.213.002-2.296.02-2.406.038M9.33 9.044c-.481.08-.951.293-1.37.618-.314.245-5.484 5.441-5.631 5.661-.263.392-.382.716-.851 2.319-.467 1.598-.484 1.669-.464 1.948.038.545.357 1.012.861 1.26.235.116.299.13.604.129.315-.002.458-.036 1.881-.454 1.761-.517 2.094-.654 2.56-1.057.578-.5 5.421-5.399 5.58-5.645.661-1.021.662-2.403.002-3.397a3.4 3.4 0 0 0-1.463-1.203c-.478-.195-1.175-.268-1.709-.179m1.023 2.072c.241.123.38.258.507.491.158.289.169.717.025.998-.118.232-5.321 5.446-5.505 5.517-.159.062-2.115.637-2.126.625-.024-.024.584-2.028.657-2.167.086-.164 5.215-5.309 5.414-5.431.27-.165.739-.18 1.028-.033"/></svg>