<svg xmlns="http://www.w3.org/2000/svg" width="24" height="24" fill="none" stroke="currentColor" stroke-linecap="round" stroke-linejoin="round" stroke-width="2"><path fill="#000" fill-rule="evenodd" stroke="none" d="M7.499 3.043C6.383 3.23 5.461 4.048 5.114 5.16l-.094.3v10.08l.094.3a3.09 3.09 0 0 0 2.046 2.046l.3.094h13.08l.3-.094a3.09 3.09 0 0 0 2.046-2.046l.094-.3V8.46l-.094-.3a3.08 3.08 0 0 0-2.025-2.037l-.321-.1-2.36-.022c-2.465-.022-2.447-.021-2.699-.2-.06-.043-.359-.443-.664-.889-.306-.447-.646-.903-.756-1.014a3.3 3.3 0 0 0-.978-.659c-.523-.223-.747-.239-3.178-.234-1.213.002-2.296.02-2.406.038m4.678 1.995c.302.07.457.228.968.984.789 1.166 1.205 1.544 2.015 1.826l.38.132L17.9 8c2.645.022 2.512.007 2.817.321.292.301.283.187.283 3.68 0 3.371.003 3.323-.221 3.617-.061.08-.194.195-.295.254l-.184.108H7.7l-.184-.108a1.2 1.2 0 0 1-.291-.249C6.989 15.314 7 15.564 7 10.502c0-5.235-.021-4.874.307-5.203.296-.296.27-.293 2.633-.295 1.144-.001 2.151.014 2.237.034M1.695 7.057a1.04 1.04 0 0 0-.567.459L1.02 7.7v11.84l.094.3c.304.976 1.035 1.714 2.026 2.046l.28.094 7.353.011c4.884.007 7.404-.003 7.504-.03.221-.06.462-.251.59-.469.097-.165.113-.235.113-.492 0-.254-.017-.328-.108-.484a1.15 1.15 0 0 0-.499-.446c-.089-.039-1.687-.054-7.393-.07l-7.28-.02-.184-.108a1.15 1.15 0 0 1-.446-.499c-.039-.088-.054-1.388-.07-5.893L2.98 7.7l-.108-.184a1.005 1.005 0 0 0-1.177-.459"/></svg>