<svg xmlns="http://www.w3.org/2000/svg" width="24" height="24" fill="none" stroke="currentColor" stroke-linecap="round" stroke-linejoin="round" stroke-width="2"><path fill="#000" fill-rule="evenodd" stroke="none" d="M3.499 2.042A3.05 3.05 0 0 0 1.114 4.16l-.094.3v4.846l.121.197a.998.998 0 0 0 1.718 0l.121-.197L3 7.023c.022-2.559.008-2.436.321-2.74.291-.282.3-.283 2.64-.283 2.197 0 2.288.007 2.552.195.066.047.306.359.533.695.638.939.845 1.203 1.12 1.426.331.267.809.501 1.234.602.33.079.461.081 4.523.082 4.726 0 4.453-.017 4.774.303.323.324.303-.06.303 5.698 0 4.211-.01 5.138-.055 5.289a1.02 1.02 0 0 1-.461.582l-.184.108H3.7l-.184-.108a1.2 1.2 0 0 1-.291-.249c-.22-.288-.225-.335-.225-2.101 0-1.88.006-1.921.303-2.219.308-.308.259-.303 2.933-.303h2.341l-.704.71c-.387.391-.737.773-.777.85-.053.1-.075.227-.075.44-.001.258.015.327.112.492.13.222.369.409.603.473.203.054.531.024.709-.066.074-.037.861-.79 1.749-1.673 1.763-1.754 1.805-1.806 1.805-2.226 0-.422-.039-.47-1.824-2.244-1.459-1.449-1.656-1.632-1.832-1.69-.48-.16-.961.018-1.215.45-.092.156-.108.229-.107.484 0 .213.022.34.075.44.04.077.389.459.775.848l.702.708-2.556.013-2.557.013-.321.1a3.08 3.08 0 0 0-2.025 2.038c-.093.298-.094.313-.094 2.34s.001 2.042.094 2.34a3.09 3.09 0 0 0 2.046 2.046l.3.094h17.08l.3-.094a3.09 3.09 0 0 0 2.046-2.046l.094-.3V7.46l-.094-.3a3.09 3.09 0 0 0-2.025-2.038l-.321-.101L16.16 5l-4.38-.02-.167-.089c-.204-.11-.328-.262-.854-1.051-.555-.833-.954-1.235-1.481-1.494-.682-.335-.555-.322-3.218-.331-1.298-.004-2.451.008-2.561.027"/></svg>