<svg xmlns="http://www.w3.org/2000/svg" width="24" height="24" fill="none" stroke="currentColor" stroke-linecap="round" stroke-linejoin="round" stroke-width="2"><path fill="#000" fill-rule="evenodd" stroke="none" d="M2.695 2.057a1.04 1.04 0 0 0-.567.459L2.02 2.7v13.84l.094.3a3.11 3.11 0 0 0 2.026 2.045c.273.09.324.092 2.126.106 1.219.009 1.9 0 2.004-.028.228-.062.468-.251.597-.471.097-.165.113-.235.113-.492 0-.254-.017-.328-.108-.484a1.14 1.14 0 0 0-.499-.445c-.082-.036-.605-.056-1.893-.07L4.7 16.98l-.184-.108a1.2 1.2 0 0 1-.291-.249C3.99 16.315 4 16.518 4 11.995c0-2.285.005-4.155.01-4.155.006.001.1.031.21.069.174.058.442.069 2.046.082 1.22.009 1.9 0 2.004-.028.228-.062.468-.251.597-.471.097-.165.113-.235.113-.492 0-.254-.017-.328-.108-.484a1.14 1.14 0 0 0-.499-.445c-.082-.036-.605-.056-1.893-.07L4.7 5.98l-.184-.108a1.14 1.14 0 0 1-.445-.499c-.034-.078-.056-.508-.07-1.393L3.98 2.7l-.108-.184a1.005 1.005 0 0 0-1.177-.459m9.782.015a2.05 2.05 0 0 0-1.417 1.436C11.01 3.7 11 4.18 11 6.5c0 3.001-.001 2.984.225 3.43.136.269.576.709.845.845.456.231.337.225 4.43.225s3.974.006 4.43-.225c.266-.135.708-.575.841-.838.219-.431.229-.541.228-2.423 0-1.872-.014-2.03-.218-2.431-.135-.267-.484-.634-.764-.802-.423-.255-.587-.276-2.138-.279L17.498 4l-.439-.59c-.683-.918-.857-1.079-1.399-1.293-.233-.092-.276-.095-1.58-.105-1.172-.009-1.373-.001-1.603.06m3.071 2.656c.596.785.791.962 1.278 1.157.228.092.27.095 1.704.107l1.47.013V9h-7V4h1.996zm-3.071 8.345c-.671.176-1.239.75-1.417 1.435-.05.192-.06.672-.06 2.992 0 3.001-.001 2.984.225 3.43.136.269.576.709.845.845.456.231.337.225 4.43.225s3.974.006 4.43-.225c.266-.135.708-.575.841-.838.219-.431.229-.541.228-2.423 0-1.872-.014-2.03-.218-2.431-.135-.267-.484-.634-.764-.802-.431-.26-.568-.276-2.327-.279L17.121 15l-.285-.569c-.242-.483-.325-.608-.551-.831a1.96 1.96 0 0 0-1.022-.557c-.137-.025-.724-.042-1.38-.041-.946.002-1.188.014-1.406.071m2.702 2.523c.267.526.333.625.57.846q.427.4.963.513c.136.029.767.045 1.75.045H20v3h-7v-5h1.877z"/></svg>