<svg xmlns="http://www.w3.org/2000/svg" width="24" height="24" fill="none" stroke="currentColor" stroke-linecap="round" stroke-linejoin="round" stroke-width="2"><path fill="#000" fill-rule="evenodd" stroke="none" d="M3.499 2.042c-.646.112-1.105.356-1.603.854-.4.4-.6.717-.771 1.217l-.105.307v14.12l.094.3a3.09 3.09 0 0 0 2.046 2.046l.3.094h15.52l.3-.094c.97-.302 1.707-1.008 2.012-1.926.07-.21 1.527-5.828 1.634-6.3a3.024 3.024 0 0 0-1.732-3.41l-.185-.082-.018-.874c-.017-.765-.03-.909-.109-1.154a3.1 3.1 0 0 0-2.021-2.018l-.321-.1-3.36-.021-3.36-.021-.189-.093c-.22-.109-.274-.173-.853-1.027-.584-.86-.978-1.258-1.5-1.514-.68-.334-.555-.321-3.218-.33-1.298-.005-2.451.007-2.561.026m4.736 2.02c.283.084.41.223.994 1.08.698 1.026 1.044 1.354 1.714 1.622.593.237.548.235 4 .235 3.588.001 3.439-.011 3.754.304.251.251.303.448.303 1.144V9h-4.937c-3.339 0-5.038.014-5.25.044a3.02 3.02 0 0 0-1.96 1.142c-.112.144-.498.866-1.002 1.876-.905 1.808-.923 1.861-.79 2.26.128.385.533.678.939.678.227 0 .512-.116.679-.275.116-.111.336-.515.941-1.725.855-1.711.922-1.812 1.284-1.935.172-.059.72-.065 5.696-.065 6.043 0 5.743-.012 6.047.24.082.067.196.221.256.342.091.187.105.256.087.449-.025.276-1.561 6.235-1.654 6.419a1.05 1.05 0 0 1-.436.444l-.16.086H3.7l-.184-.108a1.2 1.2 0 0 1-.291-.249C2.986 18.31 3 18.748 3 11.525c0-4.64.013-6.672.044-6.781a1.03 1.03 0 0 1 .682-.698c.078-.023 1.008-.04 2.217-.042 1.775-.003 2.113.005 2.292.058m5.242 9.011c-.671.176-1.239.75-1.417 1.435a2.07 2.07 0 0 0 .165 1.422c.136.269.576.709.845.845a2.05 2.05 0 0 0 1.86 0c.266-.135.708-.575.841-.838a2.05 2.05 0 0 0 .169-1.408 1.8 1.8 0 0 0-.475-.876A1.97 1.97 0 0 0 14 13.005c-.143 0-.378.031-.523.068"/></svg>