<svg xmlns="http://www.w3.org/2000/svg" width="24" height="24" fill="none" stroke="currentColor" stroke-linecap="round" stroke-linejoin="round" stroke-width="2"><path fill="#000" fill-rule="evenodd" stroke="none" d="M3.499 2.042A3.05 3.05 0 0 0 1.114 4.16l-.094.3v14.08l.094.3c.304.976 1.036 1.715 2.026 2.046l.28.093 3.35.012c2.22.008 3.402-.002 3.504-.029.224-.061.465-.251.593-.47.097-.165.113-.235.113-.492 0-.254-.017-.328-.108-.484a1.15 1.15 0 0 0-.499-.446c-.086-.038-.89-.055-3.393-.07l-3.28-.02-.184-.108a1.05 1.05 0 0 1-.458-.556c-.09-.256-.087-13.323.003-13.626.083-.279.35-.546.629-.629.289-.086 4.238-.091 4.521-.006.296.089.399.192.835.835.638.939.845 1.203 1.12 1.426.331.267.809.501 1.234.602.33.079.461.081 4.523.082 4.726 0 4.453-.017 4.774.303.292.292.303.363.303 1.994.001 1.392.002 1.405.095 1.603.181.382.5.588.908.588a.94.94 0 0 0 .721-.315c.282-.313.283-.324.267-2.136-.014-1.559-.018-1.627-.107-1.897a3.1 3.1 0 0 0-2.023-2.018l-.321-.101L16.16 5l-4.38-.02-.167-.089c-.204-.11-.328-.262-.854-1.051-.555-.833-.954-1.235-1.481-1.494-.682-.335-.555-.322-3.218-.331-1.298-.004-2.451.008-2.561.027m14 9.998a3.06 3.06 0 0 0-2.381 2.1c-.076.238-.092.396-.108 1.062l-.019.781-.306.049a1.88 1.88 0 0 0-1.089.565c-.286.285-.442.55-.536.911-.088.336-.088 3.648 0 3.984.093.36.25.626.536.912s.552.443.912.536c.342.089 6.642.089 6.984 0 .36-.093.626-.25.912-.536.29-.29.437-.541.533-.913.09-.347.092-3.582.003-3.962-.088-.373-.241-.638-.536-.932a1.88 1.88 0 0 0-1.089-.565l-.306-.049-.019-.781c-.016-.666-.032-.824-.108-1.062-.311-.97-1.081-1.736-2.021-2.011-.361-.106-1.029-.149-1.362-.089m.811 2.021a.9.9 0 0 1 .387.242c.251.251.303.448.303 1.144V16h-2v-.553c0-.697.052-.893.304-1.144q.417-.418 1.006-.242M21 19.5V21h-6v-3h6z"/></svg>