<svg xmlns="http://www.w3.org/2000/svg" width="24" height="24" fill="none" stroke="currentColor" stroke-linecap="round" stroke-linejoin="round" stroke-width="2"><path fill="#000" fill-rule="evenodd" stroke="none" d="M3.499 2.043C2.383 2.23 1.461 3.048 1.114 4.16l-.094.3v14.08l.094.3a3.09 3.09 0 0 0 2.046 2.046l.3.094h17.08l.3-.094a3.09 3.09 0 0 0 2.046-2.046l.094-.3V7.46l-.094-.3a3.09 3.09 0 0 0-2.025-2.038l-.321-.101L16.18 5c-4.589-.021-4.44-.015-4.699-.199-.06-.043-.359-.443-.664-.889-.306-.447-.646-.903-.756-1.014a3.3 3.3 0 0 0-.978-.659C8.56 2.016 8.336 2 5.905 2.005c-1.213.002-2.296.02-2.406.038m4.678 1.995c.302.07.457.228.968.984.789 1.166 1.205 1.544 2.015 1.826l.38.132L15.9 7c4.886.022 4.502-.003 4.817.321.3.31.283-.035.283 5.68 0 4.211-.01 5.138-.055 5.289a1.02 1.02 0 0 1-.461.582l-.184.108H3.7l-.184-.108a1.2 1.2 0 0 1-.291-.249C2.986 18.31 3 18.748 3 11.522c0-7.458-.024-6.892.304-7.219.3-.301.269-.297 2.636-.299 1.144-.001 2.151.014 2.237.034m1.464 5.527a1.2 1.2 0 0 0-.232.141c-.142.108-2.155 2.598-2.302 2.847-.124.209-.124.685 0 .894.103.175 2.12 2.695 2.258 2.821.232.213.7.289.998.163.2-.085.426-.294.528-.487.103-.199.119-.613.03-.824-.032-.077-.415-.585-.85-1.13L9.28 13l.791-.99c.435-.544.818-1.053.85-1.13.089-.211.073-.625-.03-.824-.1-.19-.328-.402-.517-.481-.15-.063-.586-.069-.733-.01m3.976.01c-.475.214-.732.792-.557 1.251.045.117.367.556.866 1.18l.794.994-.794.994c-.499.624-.821 1.063-.866 1.18-.177.463.086 1.049.56 1.25.315.133.777.062 1.015-.156.138-.126 2.155-2.646 2.258-2.821.135-.229.124-.686-.022-.927-.215-.355-2.168-2.737-2.344-2.859-.151-.105-.213-.122-.48-.131-.198-.007-.351.009-.43.045"/></svg>