<svg xmlns="http://www.w3.org/2000/svg" width="24" height="24" fill="none" stroke="currentColor" stroke-linecap="round" stroke-linejoin="round" stroke-width="2"><path fill="#000" fill-rule="evenodd" stroke="none" d="M3.499 2.042A3.05 3.05 0 0 0 1.114 4.16l-.094.3v14.08l.094.3c.304.976 1.036 1.715 2.026 2.046l.28.093 3.35.012c2.22.008 3.402-.002 3.504-.029.224-.061.465-.251.593-.47.097-.165.113-.235.113-.492 0-.254-.017-.328-.108-.484a1.15 1.15 0 0 0-.499-.446c-.086-.038-.89-.055-3.393-.07l-3.28-.02-.184-.108a1.05 1.05 0 0 1-.458-.556c-.09-.256-.087-13.323.003-13.626.083-.279.35-.546.629-.629.289-.086 4.238-.091 4.521-.006.296.089.399.192.835.835.638.939.845 1.203 1.12 1.426.331.267.809.501 1.234.602.33.079.461.081 4.523.082 4.688 0 4.449-.014 4.756.283.296.288.298.298.321 1.74l.02 1.284.121.196a.998.998 0 0 0 1.718 0l.121-.197V8.883c0-1.38-.003-1.432-.094-1.723a3.09 3.09 0 0 0-2.025-2.038l-.321-.101L16.16 5l-4.38-.02-.167-.089c-.204-.11-.328-.262-.854-1.051-.555-.833-.954-1.235-1.481-1.494-.682-.335-.555-.322-3.218-.331-1.298-.004-2.451.008-2.561.027M21.64 13.068c-.154.053-.485.366-2.26 2.134l-2.08 2.072-.283-.095c-1.66-.562-3.384.312-3.903 1.981-.135.434-.135 1.246 0 1.68a3.09 3.09 0 0 0 2.046 2.046c.434.135 1.246.135 1.68 0a3.09 3.09 0 0 0 2.046-2.046c.08-.257.094-.381.092-.86-.002-.521-.011-.585-.127-.92l-.125-.36 1.135-1.138 1.135-1.138.214.203c.267.252.422.334.685.361a.99.99 0 0 0 .972-.496c.097-.165.113-.234.112-.492-.001-.354-.055-.476-.35-.788L22.428 15l.201-.212c.295-.312.349-.434.35-.788.001-.255-.015-.328-.107-.484a1.016 1.016 0 0 0-1.232-.448m-5.33 5.993c.378.112.69.537.69.94 0 .33-.216.695-.516.871-.156.091-.23.108-.484.108s-.328-.017-.484-.108c-.584-.344-.685-1.097-.209-1.573q.414-.413 1.003-.238"/></svg>