<svg xmlns="http://www.w3.org/2000/svg" width="24" height="24" fill="none" stroke="currentColor" stroke-linecap="round" stroke-linejoin="round" stroke-width="2"><path fill="#000" fill-rule="evenodd" stroke="none" d="M3.499 2.042A3.05 3.05 0 0 0 1.114 4.16l-.094.3v14.12l.105.307c.171.5.371.817.771 1.217s.717.6 1.217.771l.307.105h17.12l.3-.094a3.09 3.09 0 0 0 2.046-2.046l.094-.3V7.46l-.094-.3a3.09 3.09 0 0 0-2.025-2.038l-.321-.101L16.16 5l-4.38-.02-.189-.111c-.19-.112-.324-.283-.984-1.252-.485-.714-.79-1.003-1.347-1.279-.659-.325-.543-.314-3.2-.323-1.298-.004-2.451.008-2.561.027M8.228 4.06c.28.083.432.246.972 1.041.7 1.031 1.087 1.4 1.743 1.663.604.242.455.235 5 .235 4.704.001 4.433-.016 4.754.304.323.324.303-.06.303 5.698 0 4.211-.01 5.138-.055 5.289a1.02 1.02 0 0 1-.461.582l-.184.108-8.219.01c-9.153.012-8.444.033-8.75-.264a1.4 1.4 0 0 1-.233-.308c-.076-.155-.078-.292-.088-6.836-.012-7.523-.035-6.95.293-7.279.301-.301.27-.297 2.64-.3C7.686 4 8.058 4.01 8.228 4.06m3.249 7.013c-.671.176-1.239.75-1.417 1.435a2.07 2.07 0 0 0 .165 1.422c.136.269.576.709.845.845a2.05 2.05 0 0 0 1.86 0c.266-.135.708-.575.841-.838a2.05 2.05 0 0 0 .169-1.408 1.8 1.8 0 0 0-.475-.876A1.97 1.97 0 0 0 12 11.005c-.143 0-.378.031-.523.068"/></svg>