<svg xmlns="http://www.w3.org/2000/svg" width="24" height="24" fill="none" stroke="currentColor" stroke-linecap="round" stroke-linejoin="round" stroke-width="2"><path fill="#000" fill-rule="evenodd" stroke="none" d="M3.499 2.043C2.383 2.23 1.461 3.048 1.114 4.16l-.094.3v14.08l.094.3a3.09 3.09 0 0 0 2.046 2.046l.3.094h17.08l.3-.094a3.09 3.09 0 0 0 2.046-2.046l.094-.3V7.46l-.094-.3a3.09 3.09 0 0 0-2.025-2.038l-.321-.101L16.18 5c-4.589-.021-4.44-.015-4.699-.199-.06-.043-.359-.443-.664-.889-.306-.447-.646-.903-.756-1.014a3.3 3.3 0 0 0-.978-.659C8.56 2.016 8.336 2 5.905 2.005c-1.213.002-2.296.02-2.406.038m4.678 1.995c.302.07.457.228.968.984.789 1.166 1.205 1.544 2.015 1.826l.38.132L15.9 7c4.886.022 4.502-.003 4.817.321.3.31.283-.035.283 5.68 0 4.211-.01 5.138-.055 5.289a1.02 1.02 0 0 1-.461.582l-.184.108H3.7l-.184-.108a1.2 1.2 0 0 1-.291-.249C2.986 18.31 3 18.748 3 11.522c0-7.458-.024-6.892.304-7.219.3-.301.269-.297 2.636-.299 1.144-.001 2.151.014 2.237.034m6.463 6.03c-.152.053-.444.326-1.909 1.785l-1.729 1.722-.731-.72c-.616-.608-.762-.732-.928-.788a1 1 0 0 0-1.215.449c-.092.156-.108.229-.107.484 0 .213.022.341.074.44.102.193 2.202 2.3 2.425 2.433.153.091.225.107.48.106.212 0 .341-.022.44-.074.192-.1 4.299-4.2 4.433-4.425.091-.152.107-.226.107-.48s-.017-.328-.108-.484a1.016 1.016 0 0 0-1.232-.448"/></svg>