<svg xmlns="http://www.w3.org/2000/svg" width="24" height="24" fill="none" stroke="currentColor" stroke-linecap="round" stroke-linejoin="round" stroke-width="2"><path fill="#000" fill-rule="evenodd" stroke="none" d="M3.499 2.042A3.05 3.05 0 0 0 1.114 4.16l-.094.3v14.08l.094.3c.304.976 1.037 1.716 2.026 2.045l.28.094 2.849.012c1.887.008 2.902-.002 3.004-.029.225-.061.465-.251.594-.47.097-.165.113-.235.113-.492 0-.254-.017-.328-.108-.484a1.15 1.15 0 0 0-.499-.446c-.086-.038-.791-.055-2.893-.07l-2.78-.02-.184-.108a1.05 1.05 0 0 1-.458-.556c-.09-.256-.087-13.323.003-13.626.083-.279.35-.546.629-.629.289-.086 4.238-.091 4.521-.006.296.089.399.192.835.835.638.939.845 1.203 1.12 1.426.331.267.809.501 1.234.602.33.079.461.081 4.523.082 4.726 0 4.453-.017 4.774.303.234.234.303.46.303.994.001.34.016.434.095.603.181.382.5.588.908.588a1 1 0 0 0 .937-.662c.103-.271.068-1.283-.06-1.686a3.09 3.09 0 0 0-2.019-2.018l-.321-.101L16.16 5l-4.38-.02-.167-.089c-.204-.11-.328-.262-.854-1.051-.555-.833-.954-1.235-1.481-1.494-.682-.335-.555-.322-3.218-.331-1.298-.004-2.451.008-2.561.027m8.196 7.015a1.04 1.04 0 0 0-.567.459l-.108.184-.011 2.24c-.011 2.008-.005 2.258.054 2.414.092.241.28.442.517.552l.2.093 2.2-.001c1.734-.001 2.232-.013 2.35-.055.221-.079.414-.241.539-.454.095-.161.111-.233.111-.489 0-.254-.017-.328-.108-.484a1.2 1.2 0 0 0-.254-.295c-.253-.193-.429-.221-1.369-.221-.968 0-.953.008-.531-.279 1.238-.839 2.77-.943 4.092-.276.764.385 1.326.959 1.807 1.844.08.148.205.314.277.369.684.522 1.622.086 1.632-.759.002-.182-.028-.286-.165-.571-.802-1.671-2.437-2.89-4.341-3.237-.564-.103-1.644-.091-2.18.024-.999.213-1.925.652-2.647 1.252l-.188.156-.012-.912c-.013-.907-.013-.912-.121-1.095a1.005 1.005 0 0 0-1.177-.459m6 8a1.04 1.04 0 0 0-.567.459c-.091.156-.108.23-.108.484 0 .256.016.328.111.489.061.103.173.236.25.294.254.195.371.213 1.334.215 1.008.002.99-.007.567.281-1.237.839-2.753.948-4.061.292-.794-.398-1.35-.961-1.839-1.863-.235-.432-.542-.61-1.002-.581a.96.96 0 0 0-.906.968c-.002.189.026.288.165.577.724 1.51 2.167 2.688 3.829 3.129 1.798.476 3.786.065 5.227-1.079l.3-.239.012.912.013.912.121.196a.998.998 0 0 0 1.718 0l.121-.197.011-2.243c.011-2.01.005-2.261-.054-2.417a1 1 0 0 0-.517-.552l-.2-.093-2.18.002c-1.666.002-2.219.015-2.345.054"/></svg>