<svg xmlns="http://www.w3.org/2000/svg" width="24" height="24" fill="none" stroke="currentColor" stroke-linecap="round" stroke-linejoin="round" stroke-width="2"><path fill="#000" fill-rule="evenodd" stroke="none" d="M6.865 1.043c-2.029.281-3.614 1.785-4.4 4.177a8.8 8.8 0 0 0-.452 3.14c.036 1.083.126 1.557.602 3.168.348 1.177.351 1.198.383 3.252.027 1.72.033 1.812.119 2.08a3.1 3.1 0 0 0 2.043 2.026c.434.135 1.246.135 1.68 0a3.1 3.1 0 0 0 2.042-2.026c.085-.263.092-.373.119-1.84.04-2.175.061-2.276 1.078-5.22.44-1.272.71-2.258.827-3.02.099-.642.1-1.955.003-2.485-.314-1.707-1.221-2.84-2.543-3.179-.361-.092-1.104-.128-1.501-.073m1.2 2.09c.847.429 1.146 1.976.754 3.897-.119.585-.335 1.291-.795 2.604-.31.884-.588 1.751-.703 2.196l-.044.17H6.038c-1.044 0-1.238-.009-1.238-.057 0-.031-.133-.522-.296-1.09-.365-1.271-.411-1.486-.471-2.2-.179-2.098.643-4.293 1.942-5.187.627-.432 1.592-.586 2.09-.333m7.943 1.907c-1.524.215-2.573 1.386-2.917 3.255-.097.53-.096 1.843.003 2.485.118.769.388 1.75.847 3.08.996 2.889 1.016 2.986 1.057 5.16.028 1.464.035 1.577.12 1.84a3.1 3.1 0 0 0 2.042 2.026c.434.135 1.246.135 1.68 0a3.1 3.1 0 0 0 2.043-2.026c.086-.268.092-.36.119-2.08.032-2.054.035-2.075.383-3.252.47-1.59.563-2.077.602-3.128.085-2.297-.703-4.554-2.066-5.922-.762-.764-1.505-1.181-2.458-1.377-.386-.079-1.112-.109-1.455-.061m.994 2.017c.586.104 1.031.346 1.499.815 1.032 1.032 1.645 3.081 1.462 4.888-.064.629-.124.897-.467 2.092-.163.569-.296 1.06-.296 1.091 0 .048-.194.057-1.238.057h-1.239l-.043-.17c-.087-.343-.519-1.678-.876-2.706a30 30 0 0 1-.484-1.5c-.632-2.375-.269-4.31.86-4.586.19-.047.495-.04.822.019M7 15.054c0 1.149-.022 1.302-.221 1.564-.061.08-.194.195-.295.254-.156.091-.23.108-.484.108s-.328-.017-.484-.108a1.2 1.2 0 0 1-.291-.249C5.016 16.349 5 16.241 5 15.075V14h2zm12 4c0 1.149-.022 1.302-.221 1.564-.061.08-.194.195-.295.254-.156.091-.23.108-.484.108s-.328-.017-.484-.108a1.2 1.2 0 0 1-.291-.249c-.209-.274-.225-.382-.225-1.548V18h2z"/></svg>