<svg xmlns="http://www.w3.org/2000/svg" width="24" height="24" fill="none" stroke="currentColor" stroke-linecap="round" stroke-linejoin="round" stroke-width="2"><path fill="#000" fill-rule="evenodd" stroke="none" d="M15.695 1.057a1.04 1.04 0 0 0-.567.459l-.108.184-.011 2.938-.011 2.938-1.709-1.702c-1.104-1.098-1.766-1.728-1.869-1.777-.151-.072-.271-.077-2.04-.077-1.843 0-1.886.002-2.202.092-.501.144-.864.365-1.282.784-.4.401-.601.718-.771 1.217l-.104.307-.013 2.285-.012 2.285-.284.028c-1.216.12-2.227.953-2.598 2.142l-.094.3v6.08l.094.3a3.09 3.09 0 0 0 2.046 2.046c.434.135 1.246.135 1.68 0a3.1 3.1 0 0 0 1.848-1.556l.165-.33h2.294l.165.33a3.1 3.1 0 0 0 1.848 1.556c.434.135 1.246.135 1.68 0a3.1 3.1 0 0 0 1.848-1.556l.165-.33 3.164-.002c2.538-.001 3.193-.012 3.313-.055.221-.079.414-.241.539-.454.095-.161.111-.233.111-.489 0-.254-.017-.328-.108-.484a1.2 1.2 0 0 0-.254-.295C22.328 18 22.325 18 19.554 18h-2.553l-.011-8.15-.01-8.15-.108-.184a1.005 1.005 0 0 0-1.177-.459M12.79 8.21 15 10.42v6.345l-.17-.138a3.1 3.1 0 0 0-1.01-.514c-.463-.132-1.225-.126-1.681.012-.78.237-1.46.812-1.827 1.545l-.165.33H7.853l-.165-.33a3.08 3.08 0 0 0-1.827-1.545c-.267-.081-.409-.098-.841-.1-.307-.001-.594.019-.7.049l-.25.071c-.065.019-.07-.053-.07-1.115 0-1.336.019-1.442.303-1.727.318-.318.111-.303 4.234-.305 2.939-.001 3.672-.012 3.793-.055.221-.079.414-.241.539-.454.095-.161.111-.233.111-.489 0-.254-.017-.328-.108-.484a1.2 1.2 0 0 0-.254-.295C12.328 11 12.325 11 9.554 11H7V8.95c0-1.338.015-2.106.044-2.21.086-.322.362-.602.682-.694.074-.021.746-.04 1.494-.042L10.58 6zm-7.48 9.851c.378.112.69.537.69.94 0 .33-.216.695-.516.871-.156.091-.23.108-.484.108s-.328-.017-.484-.108c-.581-.342-.683-1.098-.212-1.569q.417-.418 1.006-.242m8 0c.378.112.69.537.69.94 0 .33-.216.695-.516.871-.156.091-.23.108-.484.108s-.328-.017-.484-.108c-.581-.342-.683-1.098-.212-1.569q.417-.418 1.006-.242"/></svg>