<svg xmlns="http://www.w3.org/2000/svg" width="24" height="24" fill="none" stroke="currentColor" stroke-linecap="round" stroke-linejoin="round" stroke-width="2"><path fill="#000" fill-rule="evenodd" stroke="none" d="M14.695 6.057a1.04 1.04 0 0 0-.567.459c-.092.156-.108.229-.107.484 0 .212.022.341.074.44.04.077.841.91 1.779 1.85L17.579 11h-4.871c-5.006 0-5.352.009-5.948.162a5.04 5.04 0 0 0-3.667 3.878c-.063.294-.073.539-.073 1.803v1.463l.121.197a.998.998 0 0 0 1.718 0l.121-.196.023-1.424c.022-1.361.028-1.437.121-1.744a3.08 3.08 0 0 1 2.015-2.018l.321-.101 5.06-.011 5.06-.011-1.706 1.711c-.938.941-1.739 1.774-1.779 1.851-.052.099-.074.228-.074.44-.001.258.015.327.112.492.13.222.369.409.603.473.202.054.53.024.709-.066.074-.037 1.311-1.24 2.749-2.673 2.842-2.833 2.805-2.791 2.805-3.226s.04-.391-2.825-3.246c-2.546-2.539-2.641-2.629-2.851-2.69-.257-.076-.404-.077-.628-.007"/></svg>