<svg xmlns="http://www.w3.org/2000/svg" width="24" height="24" fill="none" stroke="currentColor" stroke-linecap="round" stroke-linejoin="round" stroke-width="2"><path fill="#000" fill-rule="evenodd" stroke="none" d="M5.695 1.057a1.04 1.04 0 0 0-.567.459L5.02 1.7l-.012 1.65L4.997 5H3.445c-1.687 0-1.787.011-2.063.221-.08.061-.195.194-.254.295-.091.156-.108.23-.108.484 0 .256.016.328.111.489.061.103.173.236.25.294.273.208.319.213 2.029.215L5 7v10H3.446c-1.688 0-1.788.011-2.064.221-.08.061-.195.194-.254.295-.091.156-.108.23-.108.484 0 .256.016.328.111.489.061.103.173.236.25.294.273.208.319.213 2.027.215L4.997 19l.011 1.653.012 1.653.121.197a.998.998 0 0 0 1.718 0l.121-.197.012-1.653L7.003 19h9.994l.011 1.653.012 1.653.121.197a.998.998 0 0 0 1.718 0l.121-.197.012-1.653.011-1.653 1.589-.002c1.708-.002 1.754-.007 2.027-.215.077-.058.189-.191.25-.294.095-.161.111-.233.111-.489 0-.254-.017-.328-.108-.484a1.2 1.2 0 0 0-.254-.295c-.276-.21-.376-.221-2.064-.221H19V7l1.59-.002c1.71-.002 1.756-.007 2.029-.215.077-.058.189-.191.25-.294.095-.161.111-.233.111-.489 0-.254-.017-.328-.108-.484a1.2 1.2 0 0 0-.254-.295c-.276-.21-.376-.221-2.063-.221h-1.552l-.011-1.65-.012-1.65-.109-.186a1.01 1.01 0 0 0-1.742 0l-.109.186-.012 1.65L16.997 5H7.003l-.011-1.65L6.98 1.7l-.108-.184a1.005 1.005 0 0 0-1.177-.459M17 12v5H7V7h10z"/></svg>