<svg xmlns="http://www.w3.org/2000/svg" width="24" height="24" fill="none" stroke="currentColor" stroke-linecap="round" stroke-linejoin="round" stroke-width="2"><path fill="#000" fill-rule="evenodd" stroke="none" d="M5.499 1.042c-1.111.191-2.011.982-2.385 2.098l-.094.28-.011 8.784-.01 8.784-.214.047c-.27.061-.515.24-.656.479-.093.158-.109.231-.109.486 0 .256.016.328.111.489.125.213.318.375.539.454s12.438.079 12.66 0 .414-.241.539-.454c.095-.161.111-.233.111-.489 0-.255-.016-.328-.109-.486a1.04 1.04 0 0 0-.657-.479L15 20.987V14h.553c.678 0 .888.053 1.126.283.298.29.297.284.323 1.877.023 1.332.03 1.437.115 1.7a3.1 3.1 0 0 0 2.043 2.026c.252.078.387.093.84.093s.588-.015.84-.093c.975-.303 1.714-1.035 2.046-2.026l.094-.28.011-4.02c.013-4.397.016-4.337-.22-4.89-.211-.496-.392-.701-2.326-2.635-1.717-1.716-1.924-1.911-2.102-1.97a1 1 0 0 0-1.215.451c-.092.156-.108.229-.107.484 0 .212.022.341.074.44.04.077.898.968 1.905 1.98s1.865 1.903 1.906 1.98c.07.133.075.331.086 3.88.009 2.614 0 3.801-.031 3.944-.056.26-.237.507-.475.647-.158.093-.231.109-.486.109-.254 0-.328-.017-.484-.108a1.14 1.14 0 0 1-.445-.499c-.034-.078-.056-.551-.073-1.533-.022-1.333-.029-1.437-.115-1.7-.317-.974-1.074-1.728-2.022-2.014-.277-.083-.428-.099-1.09-.116l-.769-.019-.011-4.286-.011-4.285-.094-.28c-.33-.983-1.066-1.717-2.025-2.018l-.321-.101-3.42-.007c-1.881-.003-3.511.009-3.621.028m6.811 2.019a.9.9 0 0 1 .387.242c.305.305.303.292.303 2.644V8H5V5.947c0-2.353-.002-2.339.304-2.644.309-.31.155-.297 3.679-.3 2.685-.003 3.151.006 3.327.058M13 15.5V21H5V10h8z"/></svg>