<svg xmlns="http://www.w3.org/2000/svg" width="24" height="24" fill="none" stroke="currentColor" stroke-linecap="round" stroke-linejoin="round" stroke-width="2"><path fill="#000" fill-rule="evenodd" stroke="none" d="M1.695 2.057a1.04 1.04 0 0 0-.567.459L1.02 2.7v18.606l.121.197a.998.998 0 0 0 1.718 0l.121-.197V2.7l-.108-.184a1.005 1.005 0 0 0-1.177-.459m5.804-.014c-1.12.191-2.038 1.005-2.385 2.117l-.094.3v15.08l.094.3a3.09 3.09 0 0 0 2.046 2.046l.3.094h9.08l.3-.094a3.09 3.09 0 0 0 2.046-2.046l.094-.3V4.46l-.094-.3a3.09 3.09 0 0 0-2.025-2.039l-.321-.101-4.42-.006c-2.431-.003-4.511.01-4.621.029m14.196.014a1.04 1.04 0 0 0-.567.459l-.108.184v18.606l.121.197a.998.998 0 0 0 1.718 0l.121-.197V2.7l-.108-.184a1.005 1.005 0 0 0-1.177-.459M16.31 4.061c.279.083.546.35.629.629.054.18.061 1.065.061 7.311 0 5.906-.009 7.137-.055 7.289a1.02 1.02 0 0 1-.461.582l-.184.108H7.7l-.184-.108a1.2 1.2 0 0 1-.291-.249c-.239-.314-.225.172-.225-7.601 0-8.017-.025-7.391.304-7.719.314-.314.042-.297 4.679-.3 3.58-.003 4.149.005 4.327.058"/></svg>