<svg xmlns="http://www.w3.org/2000/svg" width="24" height="24" fill="none" stroke="currentColor" stroke-linecap="round" stroke-linejoin="round" stroke-width="2"><path fill="#000" fill-rule="evenodd" stroke="none" d="M5.96 4.061c-.708.097-1.473.397-2.12.831-.375.252-1.04.918-1.287 1.29a5.3 5.3 0 0 0-.77 1.839c-.074.373-.367 2.868-.542 4.619C1.083 14.226 1 15.349 1 15.914c0 1.709.966 3.166 2.512 3.79 1.228.495 2.509.36 3.488-.368.143-.107.71-.637 1.26-1.18s1.063-1.02 1.14-1.061c.132-.071.272-.075 2.6-.075s2.468.004 2.6.075c.077.041.59.52 1.14 1.063.55.544 1.117 1.075 1.26 1.18.798.586 1.751.788 2.757.583 1.93-.394 3.243-2.016 3.243-4.007 0-.799-.146-2.491-.443-5.154s-.329-2.861-.541-3.455c-.248-.695-.603-1.25-1.156-1.808A4.9 4.9 0 0 0 18 4.058c-.595-.08-11.462-.077-12.04.003M17.8 6.043c.654.105 1.109.346 1.62.857.557.557.775 1.006.88 1.813.233 1.782.591 5.286.665 6.511.075 1.243-.029 1.646-.567 2.186-.421.422-.926.62-1.481.581-.502-.036-.608-.112-1.793-1.285-1.265-1.251-1.428-1.373-2.125-1.592l-.299-.094H9.3l-.299.094c-.697.219-.86.341-2.125 1.592-1.185 1.173-1.291 1.249-1.793 1.285-.555.039-1.06-.159-1.48-.581-.318-.319-.494-.647-.566-1.054-.088-.488.043-2.207.427-5.616.295-2.628.304-2.673.605-3.22.174-.316.772-.922 1.098-1.113.266-.156.695-.312.998-.362.316-.052 11.311-.055 11.635-.002M7.695 8.057a1.04 1.04 0 0 0-.567.459c-.103.176-.109.212-.121.834l-.014.65h-.55c-.795 0-1.077.111-1.315.516-.091.156-.108.23-.108.484 0 .256.016.328.111.489.125.213.318.375.539.454.098.035.352.054.737.055l.586.002.014.653c.013.647.014.655.134.85.068.11.205.253.311.325.471.316 1.102.171 1.407-.325.12-.195.121-.203.134-.85L9.007 12l.586-.002c.385-.001.639-.02.737-.055.221-.079.414-.241.539-.454.095-.161.111-.233.111-.489 0-.254-.017-.328-.108-.484-.238-.405-.52-.516-1.315-.516h-.55l-.014-.65c-.012-.622-.018-.658-.121-.834a1.005 1.005 0 0 0-1.177-.459m10 .998a1.05 1.05 0 0 0-.567.461c-.091.156-.108.23-.108.484 0 .257.016.327.113.492.518.882 1.865.526 1.865-.492a.99.99 0 0 0-.535-.888 1.17 1.17 0 0 0-.768-.057m-3 2a1.05 1.05 0 0 0-.567.461c-.091.156-.108.23-.108.484 0 .257.016.327.113.492.518.882 1.865.526 1.865-.492a.99.99 0 0 0-.535-.888 1.17 1.17 0 0 0-.768-.057"/></svg>