<svg xmlns="http://www.w3.org/2000/svg" width="24" height="24" fill="none" stroke="currentColor" stroke-linecap="round" stroke-linejoin="round" stroke-width="2"><path fill="#000" fill-rule="evenodd" stroke="none" d="M11.04 3.045c-.504.041-1.397.199-1.92.34-2.97.801-5.567 2.925-6.956 5.687-.519 1.032-.888 2.227-1.071 3.468-.099.673-.099 2.247 0 2.92a11.3 11.3 0 0 0 1.136 3.59c.381.735.611.928 1.111.928.319 0 .515-.082.728-.304a.96.96 0 0 0 .264-.687c.001-.21-.027-.289-.284-.8a18 18 0 0 1-.4-.847c-.245-.593-.466-1.448-.573-2.22-.063-.454-.063-1.766.001-2.24.268-2.004 1.148-3.813 2.529-5.196 1.456-1.46 3.223-2.333 5.275-2.608.209-.028.713-.051 1.12-.051s.911.023 1.12.051c2.957.396 5.417 2.098 6.829 4.724.491.913.828 1.977.975 3.08.064.474.064 1.786.001 2.24-.107.772-.328 1.627-.573 2.22-.064.154-.245.537-.402.851-.248.493-.287.598-.286.78.001.281.077.488.248.677.219.242.417.33.748.33.474 0 .7-.172 1.035-.786.571-1.049.993-2.322 1.191-3.598.119-.767.13-2.317.021-3.054-.357-2.413-1.353-4.467-2.983-6.151-2.345-2.422-5.517-3.616-8.884-3.344m4.6 6.023c-.154.053-.489.37-2.293 2.167-1.162 1.158-2.158 2.181-2.213 2.273-.272.46-.102 1.079.374 1.359.165.097.234.113.492.112.212 0 .341-.022.44-.074.192-.1 4.299-4.2 4.433-4.425.091-.152.107-.226.107-.48s-.017-.328-.108-.484a1.016 1.016 0 0 0-1.232-.448"/></svg>