<svg xmlns="http://www.w3.org/2000/svg" width="24" height="24" fill="none" stroke="currentColor" stroke-linecap="round" stroke-linejoin="round" stroke-width="2"><path fill="#000" fill-rule="evenodd" stroke="none" d="M13.64 1.068c-.155.053-.604.485-3.293 3.167C8.57 6.008 7.188 7.417 7.127 7.52c-.091.152-.107.226-.107.48 0 .257.016.327.113.492a.99.99 0 0 0 .972.496c.263-.027.418-.109.685-.361l.214-.202.538.537.538.537-3.773 3.78c-2.488 2.493-3.826 3.862-3.927 4.018a3.03 3.03 0 0 0-.487 1.861c.012.232.052.53.088.662.278 1.024 1.175 1.921 2.199 2.199.132.036.43.076.662.088a3.03 3.03 0 0 0 1.861-.487c.156-.101 1.525-1.439 4.018-3.927l3.78-3.773.537.538.537.538-.202.214c-.297.314-.351.436-.352.79-.001.258.015.327.112.492.13.222.369.409.603.473.202.054.53.024.709-.066.185-.092 6.292-6.192 6.428-6.419.091-.152.107-.226.107-.48s-.017-.328-.108-.484a1.05 1.05 0 0 0-.556-.458c-.372-.131-.711-.039-1.075.291l-.248.224-3.284-3.284-3.285-3.285.203-.214c.297-.314.351-.436.352-.79.001-.255-.015-.328-.107-.484a1.016 1.016 0 0 0-1.232-.448M16.3 7.72 19.58 11l-1.29 1.29L17 13.58l-3.29-3.29L10.42 7l1.28-1.28A60 60 0 0 1 13 4.44c.011 0 1.496 1.476 3.3 3.28m-6.93 8.491c-2.722 2.722-3.758 3.734-3.889 3.798-.537.261-1.204.029-1.481-.514-.129-.251-.14-.708-.023-.955.051-.109 1.258-1.345 3.799-3.89l3.723-3.73.791.79.79.79z"/></svg>