<svg xmlns="http://www.w3.org/2000/svg" width="24" height="24" fill="none" stroke="currentColor" stroke-linecap="round" stroke-linejoin="round" stroke-width="2"><path fill="#000" fill-rule="evenodd" stroke="none" d="M5.697 2.056c-.09.029-.223.095-.295.148-.134.097-4.129 6.022-4.311 6.394a.91.91 0 0 0 .019.836c.061.114 2.317 3.074 5.015 6.577l5.041 6.548c.075.099.225.234.332.3.173.107.232.121.499.121.553 0 .072.57 5.732-6.781 2.778-3.606 5.1-6.651 5.161-6.765a.91.91 0 0 0 .019-.836c-.049-.1-1.009-1.558-2.133-3.241-2.177-3.256-2.155-3.227-2.536-3.314-.287-.066-12.332-.053-12.543.013M9.36 4.02c0 .011-.445.911-.99 2L7.38 8H3.871l.071-.11 1.332-2L6.533 4h1.414c.777 0 1.413.009 1.413.02m4.01 1.96c.545 1.089.99 1.989.99 2S13.298 8 12 8s-2.36-.009-2.36-.02.445-.911.99-2L11.62 4h.76zm5.356-.09 1.332 2 .071.11H16.62l-.99-1.98c-.545-1.089-.99-1.989-.99-2S15.276 4 16.053 4h1.414zM8.329 13.469a327 327 0 0 1 1.059 3.477c-.007.006-4.966-6.424-5.281-6.847L4.033 10h3.229zm6.302-3.419c-.01.028-.601 1.944-1.312 4.26S12.014 18.52 12 18.52s-.607-1.894-1.319-4.21c-.711-2.315-1.302-4.232-1.312-4.26-.014-.04.529-.05 2.631-.05s2.645.01 2.631.05m5.262.049c-.315.423-5.274 6.853-5.281 6.847-.004-.005.472-1.57 1.059-3.477L16.738 10h3.229z"/></svg>