<svg xmlns="http://www.w3.org/2000/svg" width="24" height="24" fill="none" stroke="currentColor" stroke-linecap="round" stroke-linejoin="round" stroke-width="2"><path fill="#000" fill-rule="evenodd" stroke="none" d="M11.34 1.024c-1.314.136-2.249.391-3.28.894A8.87 8.87 0 0 0 3.939 6.02a8.9 8.9 0 0 0-.88 2.972c-.084.719-.086 13.103-.002 13.338a1 1 0 0 0 1.268.609c.198-.065.314-.168 1.446-1.293l1.231-1.224.929.923c.511.508.984.961 1.05 1.006.258.175.779.175 1.036.001.068-.046.541-.499 1.053-1.007l.93-.924.93.924c.512.508.985.961 1.051 1.006.258.175.779.175 1.036.001.068-.046.541-.499 1.053-1.007l.929-.924 1.211 1.205c.665.663 1.273 1.238 1.35 1.279.099.052.227.074.44.074.255.001.328-.015.484-.107.213-.125.375-.322.458-.556.088-.251.087-12.569-.001-13.324a9 9 0 0 0-2.562-5.329 9 9 0 0 0-5.059-2.562c-.409-.062-1.658-.11-1.98-.077m1.762 2.074c2.716.411 5.001 2.495 5.681 5.182.192.761.187.624.205 6.119l.016 5.178-.732-.722c-.617-.608-.763-.732-.929-.788a.96.96 0 0 0-.686-.001c-.171.058-.328.196-1.177 1.038l-.98.972-.98-.972c-.85-.842-1.006-.98-1.177-1.038a.97.97 0 0 0-.686 0c-.171.058-.327.196-1.177 1.038l-.98.972-.98-.972c-.849-.842-1.006-.98-1.177-1.038a.96.96 0 0 0-.686.001c-.166.056-.312.18-.929.788l-.732.722.015-5.178c.015-5.584.006-5.325.225-6.185.556-2.175 2.242-4.016 4.384-4.787.63-.227 1.095-.325 1.92-.404.273-.026 1.186.018 1.562.075M8.695 9.055a1.05 1.05 0 0 0-.567.461c-.091.156-.108.23-.108.484 0 .257.016.327.113.492.518.882 1.865.526 1.865-.492a.99.99 0 0 0-.535-.888 1.17 1.17 0 0 0-.768-.057m6 0a1.05 1.05 0 0 0-.567.461c-.091.156-.108.23-.108.484 0 .257.016.327.113.492.518.882 1.865.526 1.865-.492a.99.99 0 0 0-.535-.888 1.17 1.17 0 0 0-.768-.057"/></svg>