<svg xmlns="http://www.w3.org/2000/svg" width="24" height="24" fill="none" stroke="currentColor" stroke-linecap="round" stroke-linejoin="round" stroke-width="2"><path fill="#000" fill-rule="evenodd" stroke="none" d="M5.358 2.061c-1.627.254-2.941 1.523-3.275 3.166-.383 1.878.673 3.804 2.457 4.484.176.067.351.132.389.144.066.021.071.352.08 5.737l.011 5.714.121.197a.998.998 0 0 0 1.718 0l.121-.197.011-5.714c.009-5.385.014-5.716.08-5.737 1.27-.404 2.166-1.209 2.633-2.367a3.96 3.96 0 0 0 .001-2.972 3.98 3.98 0 0 0-3.1-2.458 3.7 3.7 0 0 0-1.247.003m9.312 0c-.222.081-.42.248-.542.455-.092.156-.108.229-.107.484 0 .213.022.341.074.44.041.077.616.685 1.279 1.35L16.578 6l-1.204 1.21c-.663.665-1.236 1.271-1.273 1.345-.229.454-.045 1.046.407 1.312.165.097.234.113.492.112.213 0 .341-.022.44-.074.077-.041.685-.616 1.35-1.279L18 7.422l1.21 1.204c.665.663 1.271 1.236 1.345 1.273.454.229 1.046.045 1.312-.407.097-.165.113-.234.112-.492 0-.213-.022-.341-.074-.44-.041-.077-.616-.685-1.279-1.35L19.422 6l1.204-1.21c.663-.665 1.238-1.273 1.279-1.35.052-.099.074-.227.074-.44.001-.255-.015-.328-.107-.484a1 1 0 0 0-1.215-.45c-.173.058-.345.213-1.427 1.288L18 4.576l-1.23-1.222c-1.082-1.075-1.254-1.23-1.427-1.288a1 1 0 0 0-.673-.005M6.523 4.073a2.01 2.01 0 0 1 1.27 2.807c-.155.318-.566.745-.863.895a2.07 2.07 0 0 1-1.422.165c-.685-.178-1.259-.746-1.435-1.417a2 2 0 0 1 2.45-2.45M17.6 10.584a1.16 1.16 0 0 0-.494.476c-.082.153-.087.22-.106 1.613l-.02 1.453-.26.091c-.895.314-1.696.96-2.151 1.736a3.992 3.992 0 0 0 1.943 5.751 3.986 3.986 0 0 0 5.193-2.22c.855-2.117-.243-4.502-2.425-5.267l-.26-.091-.02-1.453c-.019-1.393-.024-1.46-.106-1.613a1.13 1.13 0 0 0-.503-.478c-.188-.079-.608-.078-.791.002m.923 5.489a2.01 2.01 0 0 1 1.444 1.617c.1.653-.094 1.243-.564 1.714-.401.403-.856.596-1.403.596q-.771 0-1.347-.535c-1.33-1.236-.464-3.46 1.347-3.46.143 0 .378.031.523.068"/></svg>