<svg xmlns="http://www.w3.org/2000/svg" width="24" height="24" fill="none" stroke="currentColor" stroke-linecap="round" stroke-linejoin="round" stroke-width="2"><path fill="#000" fill-rule="evenodd" stroke="none" d="M4.358 2.061c-1.627.254-2.941 1.523-3.275 3.166C.7 7.105 1.756 9.031 3.54 9.711c.176.067.351.132.389.144.066.021.071.352.08 5.737l.011 5.714.121.197a.998.998 0 0 0 1.718 0l.121-.197.011-5.714c.009-5.385.014-5.716.08-5.737 1.27-.404 2.166-1.209 2.633-2.367a3.96 3.96 0 0 0 .001-2.972 3.98 3.98 0 0 0-3.1-2.458 3.7 3.7 0 0 0-1.247.003m10.282.008c-.152.052-.435.315-1.815 1.686C11.04 5.53 11.001 5.578 11.001 6c0 .42.042.472 1.805 2.226.888.883 1.675 1.636 1.749 1.673.455.229 1.046.045 1.312-.407.097-.165.113-.234.112-.492 0-.213-.022-.34-.075-.44-.04-.077-.39-.459-.777-.85L14.423 7h1.341c1.54 0 1.638.014 1.915.283.307.299.299.24.321 2.24l.02 1.783.121.197a.998.998 0 0 0 1.718 0l.121-.197V9.383c0-1.905-.001-1.926-.094-2.223a3.08 3.08 0 0 0-2.025-2.037c-.314-.097-.355-.099-1.877-.114l-1.555-.015.701-.707c.385-.389.734-.77.774-.847.053-.1.075-.227.075-.44.001-.255-.015-.328-.107-.484a1.01 1.01 0 0 0-1.232-.447M5.523 4.073a2.01 2.01 0 0 1 1.27 2.807c-.155.318-.566.745-.863.895a2.07 2.07 0 0 1-1.422.165c-.685-.178-1.259-.746-1.435-1.417a2 2 0 0 1 2.45-2.45m13.172 9.984a1.04 1.04 0 0 0-.567.459l-.108.184-.012 1.15-.013 1.15h-1.051c-1.147 0-1.301.022-1.562.221-.08.061-.195.194-.254.295-.091.156-.108.23-.108.484 0 .256.016.328.111.489.061.103.173.236.25.294.261.2.357.213 1.527.215l1.087.002.013 1.153.012 1.154.121.196a.998.998 0 0 0 1.718 0l.121-.196.012-1.154.013-1.153 1.087-.002c1.17-.002 1.266-.015 1.527-.215.077-.058.189-.191.25-.294.095-.161.111-.233.111-.489 0-.254-.017-.328-.108-.484a1.2 1.2 0 0 0-.254-.295c-.261-.199-.415-.221-1.562-.221h-1.051l-.013-1.15-.012-1.15-.108-.184a1.005 1.005 0 0 0-1.177-.459"/></svg>