<svg xmlns="http://www.w3.org/2000/svg" width="24" height="24" fill="none" stroke="currentColor" stroke-linecap="round" stroke-linejoin="round" stroke-width="2"><path fill="#000" fill-rule="evenodd" stroke="none" d="M5.358 2.061c-1.627.254-2.941 1.523-3.275 3.166-.383 1.878.673 3.804 2.457 4.484.176.067.351.132.39.144.063.02.07.091.071.714 0 .76.047 1.052.224 1.401.135.267.538.67.805.805.426.216.529.224 2.841.224l2.131.001-.011.563-.011.563-.26.091c-.895.314-1.696.96-2.151 1.736a3.992 3.992 0 0 0 1.943 5.751 3.99 3.99 0 0 0 5.192-2.216c.856-2.123-.24-4.506-2.424-5.271l-.26-.091-.011-.563-.011-.563h2.123c2.373 0 2.48-.01 2.905-.265.301-.18.522-.398.695-.682.221-.365.274-.647.277-1.464.002-.641.009-.714.072-.734 1.272-.405 2.167-1.209 2.634-2.367a3.96 3.96 0 0 0 .001-2.972 3.98 3.98 0 0 0-3.1-2.458 3.4 3.4 0 0 0-1.21 0c-2.239.338-3.763 2.505-3.313 4.714.277 1.356 1.199 2.459 2.458 2.939.176.067.352.132.39.144.062.02.07.084.07.584V11H7v-.561c0-.5.008-.564.07-.584 1.272-.405 2.167-1.209 2.634-2.367a3.96 3.96 0 0 0 .001-2.972 3.98 3.98 0 0 0-3.1-2.458 3.7 3.7 0 0 0-1.247.003m1.165 2.012a2.01 2.01 0 0 1 1.27 2.807c-.155.318-.566.745-.863.895a2.07 2.07 0 0 1-1.422.165c-.685-.178-1.259-.746-1.435-1.417a2 2 0 0 1 2.45-2.45m12 0a2.01 2.01 0 0 1 1.27 2.807c-.155.318-.566.745-.863.895a2.07 2.07 0 0 1-1.422.165c-.685-.178-1.259-.746-1.435-1.417a2 2 0 0 1 2.45-2.45m-6 12a2.01 2.01 0 0 1 1.444 1.617c.1.653-.094 1.243-.564 1.714-.401.403-.856.596-1.403.596q-.771 0-1.347-.535c-1.33-1.236-.464-3.46 1.347-3.46.143 0 .378.031.523.068"/></svg>