<svg xmlns="http://www.w3.org/2000/svg" width="24" height="24" fill="none" stroke="currentColor" stroke-linecap="round" stroke-linejoin="round" stroke-width="2"><path fill="#000" fill-rule="evenodd" stroke="none" d="M5.358 2.061c-1.627.254-2.941 1.523-3.275 3.166-.383 1.878.673 3.804 2.457 4.484.176.067.351.132.389.144.066.021.071.352.08 5.737l.011 5.714.121.197a.998.998 0 0 0 1.718 0l.121-.197.011-5.714c.009-5.385.014-5.716.08-5.737 1.27-.404 2.166-1.209 2.633-2.367a3.96 3.96 0 0 0 .001-2.972 3.98 3.98 0 0 0-3.1-2.458 3.7 3.7 0 0 0-1.247.003m1.165 2.012a2.01 2.01 0 0 1 1.27 2.807c-.155.318-.566.745-.863.895a2.07 2.07 0 0 1-1.422.165c-.685-.178-1.259-.746-1.435-1.417a2 2 0 0 1 2.45-2.45m6.172.983c-.23.074-.44.244-.567.46-.091.156-.108.23-.108.484 0 .256.016.328.111.489.061.103.173.236.25.294.274.209.314.213 2.082.215 1.871.002 1.932.01 2.216.285.307.299.299.24.321 2.24l.02 1.783.121.197a.998.998 0 0 0 1.718 0l.121-.197V9.383c0-1.905-.001-1.926-.094-2.223a3.08 3.08 0 0 0-2.025-2.037c-.32-.099-.326-.1-2.161-.11-1.441-.008-1.876.001-2.005.043m5 9.001a1.04 1.04 0 0 0-.567.459l-.108.184-.012 1.15-.013 1.15h-1.051c-1.147 0-1.301.022-1.562.221-.08.061-.195.194-.254.295-.091.156-.108.23-.108.484 0 .256.016.328.111.489.061.103.173.236.25.294.261.2.357.213 1.527.215l1.087.002.013 1.153.012 1.154.121.196a.998.998 0 0 0 1.718 0l.121-.196.012-1.154.013-1.153 1.087-.002c1.17-.002 1.266-.015 1.527-.215.077-.058.189-.191.25-.294.095-.161.111-.233.111-.489 0-.254-.017-.328-.108-.484a1.2 1.2 0 0 0-.254-.295c-.261-.199-.415-.221-1.562-.221h-1.051l-.013-1.15-.012-1.15-.108-.184a1.005 1.005 0 0 0-1.177-.459"/></svg>