<svg xmlns="http://www.w3.org/2000/svg" width="24" height="24" fill="none" stroke="currentColor" stroke-linecap="round" stroke-linejoin="round" stroke-width="2"><path fill="#000" fill-rule="evenodd" stroke="none" d="M5.358 2.061c-1.627.254-2.941 1.523-3.275 3.166-.383 1.878.673 3.804 2.457 4.484.176.067.351.132.388.144.064.02.07.25.081 3.373l.012 3.352.093.28a3.14 3.14 0 0 0 2.026 2.025c.273.09.324.092 2.126.106 1.219.009 1.9 0 2.004-.028.228-.062.468-.251.597-.471.097-.165.113-.235.113-.492 0-.254-.017-.328-.108-.484a1.14 1.14 0 0 0-.499-.445c-.082-.036-.605-.056-1.893-.07L7.7 16.98l-.184-.108a1.2 1.2 0 0 1-.291-.249C6.993 16.319 7 16.424 7 13.014c0-2.952.004-3.138.07-3.159 1.272-.405 2.167-1.209 2.634-2.367a3.96 3.96 0 0 0 .001-2.972 3.98 3.98 0 0 0-3.1-2.458 3.7 3.7 0 0 0-1.247.003m1.165 2.012a2.01 2.01 0 0 1 1.27 2.807c-.155.318-.566.745-.863.895a2.07 2.07 0 0 1-1.422.165c-.685-.178-1.259-.746-1.435-1.417a2 2 0 0 1 2.45-2.45m6.172.983c-.23.074-.44.244-.567.46-.091.156-.108.23-.108.484 0 .256.016.328.111.489.061.103.173.236.25.294.274.209.314.213 2.082.215 1.897.002 1.936.008 2.234.306.316.316.305.171.293 3.71l-.01 3.112-.26.091c-.896.314-1.696.96-2.151 1.736a3.992 3.992 0 0 0 1.943 5.751 3.99 3.99 0 0 0 5.192-2.216c.856-2.123-.24-4.505-2.424-5.271l-.26-.091-.02-3.353-.021-3.353-.093-.28c-.328-.982-1.07-1.72-2.025-2.017-.32-.099-.326-.1-2.161-.11-1.441-.008-1.876.001-2.005.043m5.828 11.017a2.01 2.01 0 0 1 1.444 1.617c.1.653-.094 1.243-.564 1.714-.401.403-.856.596-1.403.596q-.771 0-1.347-.535c-1.33-1.236-.464-3.46 1.347-3.46.143 0 .378.031.523.068"/></svg>