<svg xmlns="http://www.w3.org/2000/svg" width="24" height="24" fill="none" stroke="currentColor" stroke-linecap="round" stroke-linejoin="round" stroke-width="2"><path fill="#000" fill-rule="evenodd" stroke="none" d="M11.695 2.057a1.04 1.04 0 0 0-.567.459l-.108.184L11 5.413l-.02 2.713-.26.091a4 4 0 0 0-2.637 3.01c-.383 1.878.673 3.804 2.457 4.484.176.067.351.132.389.144.064.02.07.208.08 2.737l.011 2.714.121.197a.998.998 0 0 0 1.718 0l.121-.197.011-2.714c.01-2.529.016-2.717.08-2.737 1.269-.403 2.166-1.21 2.633-2.367.856-2.123-.24-4.505-2.424-5.271l-.26-.091L13 5.413 12.98 2.7l-.108-.184a1.005 1.005 0 0 0-1.177-.459m.828 8.016a2.01 2.01 0 0 1 1.444 1.617c.1.653-.094 1.243-.564 1.714-.401.403-.856.596-1.403.596q-.771 0-1.347-.535c-1.33-1.236-.464-3.46 1.347-3.46.143 0 .378.031.523.068"/></svg>