<svg xmlns="http://www.w3.org/2000/svg" width="24" height="24" fill="none" stroke="currentColor" stroke-linecap="round" stroke-linejoin="round" stroke-width="2"><path fill="#000" fill-rule="evenodd" stroke="none" d="M11.358 8.061c-1.507.235-2.761 1.354-3.215 2.869-.019.066-.18.07-2.635.07-2.838 0-2.836 0-3.126.221-.08.061-.195.194-.254.295-.091.156-.108.23-.108.484 0 .256.016.328.111.489.125.213.318.375.539.454.119.043.691.054 2.801.055 2.49.002 2.653.006 2.672.072.367 1.222 1.219 2.17 2.369 2.634a3.97 3.97 0 0 0 2.976 0 3.94 3.94 0 0 0 2.223-2.244c.067-.176.132-.351.144-.39.021-.066.185-.07 2.674-.072 2.11-.001 2.682-.012 2.801-.055.221-.079.414-.241.539-.454.095-.161.111-.233.111-.489 0-.254-.017-.328-.108-.484a1.2 1.2 0 0 0-.254-.295C21.328 11 21.33 11 18.492 11c-2.455 0-2.616-.004-2.637-.07a14 14 0 0 0-.144-.39c-.498-1.308-1.703-2.27-3.106-2.482a3.7 3.7 0 0 0-1.247.003m1.165 2.012a2.01 2.01 0 0 1 1.444 1.617c.1.653-.094 1.243-.564 1.714-.401.403-.856.596-1.403.596q-.771 0-1.347-.535c-1.33-1.236-.464-3.46 1.347-3.46.143 0 .378.031.523.068"/></svg>