<svg xmlns="http://www.w3.org/2000/svg" width="24" height="24" fill="none" stroke="currentColor" stroke-linecap="round" stroke-linejoin="round" stroke-width="2"><path fill="#000" fill-rule="evenodd" stroke="none" d="M5.695 2.057a1.04 1.04 0 0 0-.567.459L5.02 2.7 5 8.413l-.02 5.713-.26.091c-.896.314-1.696.96-2.151 1.736a3.992 3.992 0 0 0 1.943 5.751 3.99 3.99 0 0 0 5.192-2.216C9.884 19.04 10 18.459 10 18c0-.673-.224-1.475-.579-2.068-.455-.762-1.304-1.44-2.151-1.717l-.229-.075.022-.14c.165-1.038.372-1.723.753-2.5A7.8 7.8 0 0 1 9.9 8.848c.986-.829 2.31-1.461 3.524-1.683.752-.137.736-.136.736-.064 0 .035.057.203.126.372.429 1.043 1.201 1.818 2.226 2.231a3.99 3.99 0 0 0 5.192-2.216 3.96 3.96 0 0 0 .001-2.972 3.98 3.98 0 0 0-3.1-2.458 3.4 3.4 0 0 0-1.21 0 4 4 0 0 0-3.075 2.388 4 4 0 0 0-.16.433c-.041.153-.045.156-.271.182A10.2 10.2 0 0 0 8.8 7.154c-.399.309-1.298 1.196-1.582 1.561l-.198.255L7 5.835 6.98 2.7l-.108-.184a1.005 1.005 0 0 0-1.177-.459m12.828 2.016a2.01 2.01 0 0 1 1.27 2.807c-.155.318-.566.745-.863.895a2.07 2.07 0 0 1-1.422.165c-.685-.178-1.259-.746-1.435-1.417a2 2 0 0 1 2.45-2.45m-.828 9.984a1.04 1.04 0 0 0-.567.459l-.108.184-.012 1.15-.013 1.15h-1.051c-1.147 0-1.301.022-1.562.221-.08.061-.195.194-.254.295-.091.156-.108.23-.108.484 0 .256.016.328.111.489.061.103.173.236.25.294.261.2.357.213 1.527.215l1.087.002.013 1.153.012 1.154.121.196a.998.998 0 0 0 1.718 0l.121-.196.012-1.154.013-1.153 1.087-.002c1.17-.002 1.266-.015 1.527-.215.077-.058.189-.191.25-.294.095-.161.111-.233.111-.489 0-.254-.017-.328-.108-.484a1.2 1.2 0 0 0-.254-.295c-.261-.199-.415-.221-1.562-.221h-1.051l-.013-1.15-.012-1.15-.108-.184a1.005 1.005 0 0 0-1.177-.459M6.523 16.073a2.01 2.01 0 0 1 1.444 1.617c.1.653-.094 1.243-.564 1.714C7.002 19.807 6.547 20 6 20q-.771 0-1.347-.535c-1.33-1.236-.464-3.46 1.347-3.46.143 0 .378.031.523.068"/></svg>