<svg xmlns="http://www.w3.org/2000/svg" width="24" height="24" fill="none" stroke="currentColor" stroke-linecap="round" stroke-linejoin="round" stroke-width="2"><path fill="#000" fill-rule="evenodd" stroke="none" d="M4.358 2.061c-1.627.254-2.941 1.523-3.275 3.166C.7 7.105 1.756 9.031 3.54 9.711c.176.067.352.132.39.144.066.021.07.15.06 2.147l-.01 2.124-.26.091c-.896.314-1.696.96-2.151 1.736a3.992 3.992 0 0 0 1.943 5.751 3.99 3.99 0 0 0 5.192-2.216c.856-2.123-.24-4.505-2.424-5.271l-.26-.091-.01-2.124c-.01-1.997-.006-2.126.06-2.147 1.273-.406 2.167-1.209 2.634-2.367a3.96 3.96 0 0 0 .001-2.972 3.98 3.98 0 0 0-3.1-2.458 3.7 3.7 0 0 0-1.247.003m7.337-.004a1.04 1.04 0 0 0-.567.459l-.108.184v18.606l.121.197a.998.998 0 0 0 1.718 0l.121-.197V2.7l-.108-.184a1.005 1.005 0 0 0-1.177-.459m6.663.004c-1.128.176-2.215.913-2.789 1.892a3.992 3.992 0 0 0 1.942 5.75c.186.075.363.137.393.137q.054 0 .036.11l-.06.39c-.112.725-.457 1.733-.829 2.42-.397.734-.762 1.223-1.451 1.939-.421.437-.514.556-.558.714-.18.643.3 1.281.963 1.277.356-.002.533-.107 1.043-.616a10 10 0 0 0 2.874-5.824c.049-.364.051-.37.174-.404.068-.019.25-.085.404-.146a3.97 3.97 0 0 0 2.204-2.212 3.96 3.96 0 0 0 .001-2.972 3.98 3.98 0 0 0-3.1-2.458 3.7 3.7 0 0 0-1.247.003M5.523 4.073a2.01 2.01 0 0 1 1.27 2.807c-.155.318-.566.745-.863.895a2.07 2.07 0 0 1-1.422.165c-.685-.178-1.259-.746-1.435-1.417a2 2 0 0 1 2.45-2.45m14 0a2.01 2.01 0 0 1 1.27 2.807c-.155.318-.566.745-.863.895a2.07 2.07 0 0 1-1.422.165c-.685-.178-1.259-.746-1.435-1.417a2 2 0 0 1 2.45-2.45m-14 12a2.01 2.01 0 0 1 1.444 1.617c.1.653-.094 1.243-.564 1.714C6.002 19.807 5.547 20 5 20q-.771 0-1.347-.535c-1.33-1.236-.464-3.46 1.347-3.46.143 0 .378.031.523.068"/></svg>