<svg xmlns="http://www.w3.org/2000/svg" width="24" height="24" fill="none" stroke="currentColor" stroke-linecap="round" stroke-linejoin="round" stroke-width="2"><path fill="#000" fill-rule="evenodd" stroke="none" d="M4.358 2.061c-1.627.254-2.941 1.523-3.275 3.166C.7 7.105 1.756 9.031 3.54 9.711c.176.067.351.132.388.144.064.02.07.25.081 3.373l.012 3.352.093.28a3.14 3.14 0 0 0 2.026 2.024c.269.089.34.093 1.856.107l1.575.015-.701.707c-.385.389-.734.77-.774.847-.053.1-.075.227-.075.44-.001.258.015.327.112.492.13.222.369.409.603.473.203.054.531.024.709-.066.074-.037.861-.79 1.749-1.673 1.763-1.754 1.805-1.806 1.805-2.226 0-.422-.039-.47-1.824-2.244-1.459-1.449-1.656-1.632-1.832-1.69-.48-.16-.961.018-1.215.45-.092.156-.108.229-.107.484 0 .213.022.34.075.44.04.077.391.46.779.852l.705.712-1.44-.012-1.44-.012-.184-.108a1.2 1.2 0 0 1-.291-.249C5.993 16.319 6 16.424 6 13.014c0-2.952.004-3.138.07-3.159 1.272-.405 2.167-1.209 2.634-2.367a3.96 3.96 0 0 0 .001-2.972 3.98 3.98 0 0 0-3.1-2.458 3.7 3.7 0 0 0-1.247.003m10.282.008c-.152.052-.435.315-1.815 1.686C11.04 5.53 11.001 5.578 11.001 6c0 .42.042.472 1.805 2.226.888.883 1.675 1.636 1.749 1.673.455.229 1.046.045 1.312-.407.097-.165.113-.234.112-.492 0-.213-.022-.34-.075-.44-.04-.077-.39-.459-.777-.85L14.423 7h1.341c1.564 0 1.642.012 1.933.304.316.316.305.171.293 3.71l-.01 3.112-.26.091c-.896.314-1.696.96-2.151 1.736a3.992 3.992 0 0 0 1.943 5.751 3.986 3.986 0 0 0 5.193-2.22c.855-2.117-.243-4.502-2.425-5.267l-.26-.091-.02-3.353-.021-3.353-.093-.28c-.328-.982-1.071-1.721-2.025-2.017-.314-.097-.355-.099-1.877-.114l-1.555-.015.701-.707c.385-.389.734-.77.774-.847.053-.1.075-.227.075-.44.001-.255-.015-.328-.107-.484a1.01 1.01 0 0 0-1.232-.447M5.523 4.073a2.01 2.01 0 0 1 1.27 2.807c-.155.318-.566.745-.863.895a2.07 2.07 0 0 1-1.422.165c-.685-.178-1.259-.746-1.435-1.417a2 2 0 0 1 2.45-2.45m14 12a2.01 2.01 0 0 1 1.444 1.617c.1.653-.094 1.243-.564 1.714-.401.403-.856.596-1.403.596q-.771 0-1.347-.535c-1.33-1.236-.464-3.46 1.347-3.46.143 0 .378.031.523.068"/></svg>