<svg xmlns="http://www.w3.org/2000/svg" width="24" height="24" fill="none" stroke="currentColor" stroke-linecap="round" stroke-linejoin="round" stroke-width="2"><path fill="#000" fill-rule="evenodd" stroke="none" d="M4.643 1.066a1.2 1.2 0 0 0-.347.236c-.203.203-.286.44-.42 1.201-.117.668-.128 1.74-.023 2.38l.07.423-.179.337c-.518.975-.742 1.91-.743 3.098-.002 1.184.145 1.962.537 2.859.48 1.097 1.367 2.093 2.485 2.79.588.367 1.143.605 1.937.832.209.059.386.113.393.119.007.007-.043.186-.111.399-.113.354-.184.707-.27 1.356-.031.229-.037.238-.186.29a4.7 4.7 0 0 1-1.066.172c-.494-.002-1.028-.196-1.447-.525a18 18 0 0 1-.8-.713c-.65-.607-.939-.831-1.315-1.021-.5-.252-1.098-.354-1.444-.247a.99.99 0 0 0-.516 1.539q.243.336.74.406c.352.05.504.154 1.262.869.834.786 1.354 1.157 1.958 1.393.699.274 1.495.36 2.273.245.247-.037.476-.077.508-.089.049-.019.059.187.069 1.435l.012 1.456.121.197a.998.998 0 0 0 1.718 0l.121-.197.007-2.64c.005-1.752.022-2.727.052-2.899.091-.519.3-1.003.663-1.534.227-.331.298-.514.297-.773 0-.339-.328-.794-.644-.893a5 5 0 0 0-.695-.085c-1.324-.102-2.375-.516-3.226-1.271C5.408 11.301 5 10.298 5 8.687c0-.967.214-1.664.798-2.601.213-.341.232-.508.124-1.043-.135-.669-.187-1.723-.085-1.723.062 0 .781.436 1.242.753.652.448.742.473 1.358.368a21 21 0 0 1 7.126 0c.616.105.706.08 1.358-.368.495-.341 1.181-.753 1.253-.753.068 0 0 1.225-.095 1.71-.108.553-.089.715.123 1.056.584.937.798 1.634.798 2.601 0 1.611-.408 2.614-1.434 3.524-.874.776-1.995 1.2-3.406 1.29-.471.03-.6.071-.815.26a1 1 0 0 0-.333.658c-.029.274.026.429.296.83.406.603.633 1.204.677 1.791.012.165.025 1.417.029 2.783l.006 2.483.121.197a.998.998 0 0 0 1.718 0l.121-.197.022-2.523c.013-1.388.009-2.685-.009-2.883a5.4 5.4 0 0 0-.261-1.233c-.055-.171-.094-.318-.086-.325a6 6 0 0 1 .394-.12c1.283-.366 2.203-.881 3.074-1.72.927-.893 1.503-1.949 1.769-3.246.106-.514.151-1.904.079-2.412a6.9 6.9 0 0 0-.706-2.202l-.179-.338.061-.475c.145-1.113.017-2.722-.262-3.297a.97.97 0 0 0-.571-.477c-.592-.197-1.851.257-3.201 1.155l-.356.236-.244-.042c-1.207-.21-3.088-.314-4.465-.247-.895.043-1.973.148-2.542.247l-.244.042-.496-.325C6.485 1.289 5.211.857 4.643 1.066"/></svg>