<svg xmlns="http://www.w3.org/2000/svg" width="24" height="24" fill="none" stroke="currentColor" stroke-linecap="round" stroke-linejoin="round" stroke-width="2"><path fill="#000" fill-rule="evenodd" stroke="none" d="M5.42 2.038c-.358.089-.752.392-.907.696-.044.086-.861 2.487-1.816 5.337-1.914 5.71-1.826 5.396-1.662 5.924.101.322.238.546.472.77.173.165 9.684 6.914 10.044 7.127.118.07.211.088.453.088.269 0 .325-.014.5-.123.575-.361 9.941-7.047 10.08-7.196.3-.322.493-.885.444-1.3-.026-.216-3.375-10.341-3.502-10.588-.11-.211-.425-.507-.672-.631a1.35 1.35 0 0 0-1.292.077c-.206.13-.466.435-.54.634-.034.092-.51 1.49-1.057 3.107L14.97 8.9l-2.962.01-2.961.011-1.028-3.083c-.769-2.307-1.06-3.13-1.156-3.27-.295-.432-.918-.661-1.443-.53m2.111 8.495c.062.08.197.195.3.256l.189.111h7.96l.192-.113c.105-.062.242-.183.304-.268.079-.108.367-.907.941-2.608.455-1.349.84-2.474.856-2.5s.631 1.76 1.367 3.969 1.329 4.023 1.319 4.033c-.148.134-8.916 6.322-8.959 6.323-.074 0-8.921-6.252-8.949-6.325-.015-.039 2.42-7.391 2.64-7.971.032-.084.17.293.884 2.424.611 1.827.876 2.564.956 2.669"/></svg>