<svg xmlns="http://www.w3.org/2000/svg" width="24" height="24" fill="none" stroke="currentColor" stroke-linecap="round" stroke-linejoin="round" stroke-width="2"><path fill="#000" fill-rule="evenodd" stroke="none" d="M7.36 4.042c-1.369.163-2.353.887-3.149 2.318-.067.121-.701 1.615-1.409 3.32S1.473 12.879 1.421 13c-.297.691-.401 1.209-.401 2 0 .67.058 1.044.248 1.6.578 1.691 1.985 2.925 3.772 3.307.471.101 1.449.101 1.92 0 1.528-.327 2.788-1.277 3.473-2.619.348-.684.507-1.268.564-2.088.018-.253.06-.526.094-.607.135-.319.555-.593.909-.593s.774.274.909.593c.034.081.076.354.094.607s.062.604.098.78c.405 1.981 1.924 3.496 3.939 3.927.471.101 1.449.101 1.92 0 1.528-.327 2.788-1.277 3.473-2.619.405-.794.547-1.389.547-2.288 0-.791-.104-1.309-.401-2-.052-.121-.673-1.615-1.381-3.32-.707-1.705-1.369-3.243-1.47-3.418C19.034 5.067 18.103 4.33 17 4.105c-.462-.094-.997-.123-1.231-.067-.867.208-1.041 1.372-.272 1.822.144.085.263.114.592.144.694.064 1.022.195 1.376.55.374.374.586.768 1.189 2.212.316.756.571 1.378.567 1.383a.5.5 0 0 1-.136-.027 6 6 0 0 0-.608-.086c-.739-.074-1.576.033-2.229.284-.934.359-1.862 1.088-2.385 1.876a2.4 2.4 0 0 1-.205.284c-.008 0-.128-.062-.267-.138-.418-.229-.811-.319-1.391-.319s-.973.09-1.391.319a3 3 0 0 1-.268.138c-.009 0-.103-.13-.208-.288-.523-.781-1.421-1.494-2.34-1.855a5.06 5.06 0 0 0-2.27-.301 6 6 0 0 0-.608.086.5.5 0 0 1-.136.027c-.015-.02 1.102-2.663 1.204-2.849.183-.332.45-.687.661-.876.249-.224.55-.339 1.016-.391l.529-.058c.231-.027.522-.231.67-.472.107-.174.121-.232.121-.5 0-.257-.016-.331-.108-.487-.265-.45-.665-.575-1.512-.474m-.499 8.087c.943.276 1.723 1.054 2.014 2.01.083.273.098.403.098.861s-.015.588-.098.861a3.07 3.07 0 0 1-2.035 2.025c-.434.135-1.246.135-1.68 0a3.07 3.07 0 0 1-2.035-2.025c-.083-.273-.098-.403-.098-.861s.015-.588.098-.861a3.04 3.04 0 0 1 2.374-2.099c.333-.06 1.001-.017 1.362.089m12 0c.943.276 1.723 1.054 2.014 2.01.083.273.098.403.098.861s-.015.588-.098.861a3.07 3.07 0 0 1-2.035 2.025c-.434.135-1.246.135-1.68 0a3.07 3.07 0 0 1-2.035-2.025c-.083-.273-.098-.403-.098-.861s.015-.588.098-.861a3.04 3.04 0 0 1 2.374-2.099c.333-.06 1.001-.017 1.362.089"/></svg>