<svg xmlns="http://www.w3.org/2000/svg" width="24" height="24" fill="none" stroke="currentColor" stroke-linecap="round" stroke-linejoin="round" stroke-width="2"><path fill="#000" fill-rule="evenodd" stroke="none" d="M5.684 2.043c-.456.09-1.006.481-1.28.912a1.86 1.86 0 0 0-.284.978c0 .312 1.645 16.183 1.723 16.627q.156.888.86 1.58c.306.301.592.491.979.647.54.218.505.216 4.431.203 4.058-.013 3.79.006 4.427-.309a3.02 3.02 0 0 0 1.539-1.842c.062-.223.3-2.359.942-8.456.473-4.486.859-8.289.859-8.451 0-.529-.204-.973-.639-1.388a2 2 0 0 0-.957-.503c-.267-.051-12.341-.048-12.6.002M17.88 4.032c0 .018-.171 1.654-.38 3.638s-.38 3.632-.38 3.666-.112.122-.25.198c-1.12.618-2.623.617-3.746-.003a8 8 0 0 1-.6-.384 7 7 0 0 0-1.648-.843c-.64-.209-1.112-.279-1.876-.279-.737 0-1.205.066-1.812.257-.202.063-.378.102-.392.086-.013-.015-.163-1.378-.334-3.028-.17-1.65-.319-3.076-.331-3.17L6.109 4h5.886c3.237 0 5.885.014 5.885.032M10 12.134c.523.136.812.277 1.483.726.623.417 1.017.622 1.569.816 1.048.368 2.322.42 3.424.141l.384-.097c.017 0-.668 6.357-.7 6.507a1 1 0 0 1-.468.64l-.192.113-3.412.011c-2.29.007-3.464-.003-3.569-.031a1 1 0 0 1-.606-.52c-.103-.211-.124-.377-.492-3.94a460 460 0 0 0-.407-3.845c-.021-.122-.014-.129.287-.271.33-.157.741-.282 1.122-.343.398-.062 1.147-.018 1.577.093"/></svg>