<svg xmlns="http://www.w3.org/2000/svg" width="24" height="24" fill="none" stroke="currentColor" stroke-linecap="round" stroke-linejoin="round" stroke-width="2"><path fill="#000" fill-rule="evenodd" stroke="none" d="M11.096 1.041a11 11 0 0 0-8.255 4.885 10.95 10.95 0 0 0-1.262 9.572c1.751 5.243 7.177 8.381 12.594 7.284a10.9 10.9 0 0 0 5.482-2.901 11 11 0 0 0 1.551-1.861c.515-.776 1.109-2.05 1.302-2.794.06-.228.059-.263-.003-.478a1.1 1.1 0 0 0-.522-.64c-.122-.064-.234-.086-.443-.086-.529 0-.789.232-1.034.924-.809 2.275-2.418 4.086-4.566 5.137-.483.236-1.521.629-1.56.59-.007-.007.131-.247.306-.533.381-.618.882-1.602 1.154-2.263.392-.954.841-2.507.839-2.902-.003-.637-.688-1.133-1.283-.928-.432.148-.598.376-.76 1.037a13.5 13.5 0 0 1-1.487 3.716c-.384.668-1.068 1.64-1.154 1.64-.047 0-.464-.56-.806-1.081-1.136-1.735-1.825-3.639-2.089-5.776-.033-.264-.06-.504-.06-.532 0-.04.183-.051.83-.051.79-.001.84-.005 1.03-.095.381-.181.588-.5.588-.905 0-.385-.195-.703-.548-.894-.148-.079-.228-.087-1.03-.099-.647-.009-.87-.025-.87-.061 0-.104.122-1.029.181-1.368.092-.535.312-1.371.517-1.969.585-1.704 1.462-3.192 2.741-4.649.466-.532.498-.591.5-.94.001-.364-.115-.612-.374-.801-.303-.22-.586-.254-1.509-.178m6.403-.001a3.06 3.06 0 0 0-2.381 2.1c-.076.238-.092.396-.108 1.062l-.019.781-.306.049a1.88 1.88 0 0 0-1.089.565c-.286.285-.442.55-.536.911-.088.336-.088 3.648 0 3.984.093.36.25.626.536.912s.552.443.912.536c.342.089 6.642.089 6.984 0 .36-.093.626-.25.912-.536.29-.29.437-.541.533-.913.09-.347.092-3.582.003-3.962-.088-.373-.241-.638-.536-.932a1.88 1.88 0 0 0-1.089-.565l-.306-.049-.019-.781c-.016-.666-.032-.824-.108-1.062-.311-.97-1.081-1.736-2.021-2.011-.361-.106-1.029-.149-1.362-.089m.811 2.021a.9.9 0 0 1 .387.242c.251.251.303.448.303 1.144V5h-2v-.553c0-.697.052-.893.304-1.144q.417-.418 1.006-.242m-8.734.369a15.76 15.76 0 0 0-2.5 7.04l-.051.53H3.08v-.095c0-.379.289-1.538.544-2.182 1.003-2.53 3.013-4.422 5.616-5.287.422-.14.425-.14.336-.006M21 8.5V10h-6V7h6zM7.076 13.53a15.7 15.7 0 0 0 2.304 6.729c.139.22.247.407.24.415-.038.038-1.072-.355-1.56-.593-2.574-1.259-4.352-3.592-4.9-6.429a5 5 0 0 1-.08-.534V13h3.945z"/></svg>