<svg xmlns="http://www.w3.org/2000/svg" width="24" height="24" fill="none" stroke="currentColor" stroke-linecap="round" stroke-linejoin="round" stroke-width="2"><path fill="#000" fill-rule="evenodd" stroke="none" d="M11.695 1.055a1.05 1.05 0 0 0-.567.461l-.108.184v11.606l.121.197a.998.998 0 0 0 1.718 0l.121-.197.012-1.344.012-1.344 3.766-1.879c3.03-1.512 3.798-1.911 3.932-2.042a.985.985 0 0 0 .023-1.376c-.117-.122-.953-.555-4.285-2.219-4.505-2.251-4.341-2.18-4.745-2.047M15.38 4.81c1.287.643 2.34 1.179 2.34 1.19 0 .02-4.661 2.36-4.7 2.36-.011 0-.02-1.062-.02-2.36s.009-2.36.02-2.36 1.073.526 2.36 1.17m-7.574-.846c-.32.061-1.298.641-2.006 1.189-.187.145-.584.507-.882.805C1.375 9.5 1.017 15.086 4.075 19.1c.375.491 1.267 1.396 1.725 1.748 1.591 1.224 3.319 1.912 5.319 2.117.564.057 1.736.024 2.321-.066a10.2 10.2 0 0 0 4.66-1.974c.491-.375 1.396-1.267 1.748-1.725 1.223-1.589 1.912-3.322 2.116-5.318.066-.64.025-1.806-.085-2.442-.104-.605-.288-1.333-.404-1.602a1.1 1.1 0 0 0-.539-.537c-.173-.073-.487-.079-.702-.015-.2.06-.455.28-.558.481-.143.28-.139.477.019 1.073.19.72.262 1.184.291 1.88.092 2.256-.817 4.477-2.49 6.081a7.97 7.97 0 0 1-5.796 2.185 7.9 7.9 0 0 1-5.217-2.21c-2.391-2.269-3.128-5.767-1.863-8.841.707-1.717 2.103-3.232 3.734-4.053.269-.136.511-.381.583-.591.169-.496-.01-.986-.442-1.217a1 1 0 0 0-.689-.11M7.67 9.057c-.246.088-.405.238-.667.631a6 6 0 0 0-.891 2.128c-.115.539-.127 1.695-.022 2.253.395 2.102 1.874 3.855 3.85 4.563a5.7 5.7 0 0 0 1.88.355c.537.019.717.009 1.12-.061 2.263-.392 4.035-1.902 4.754-4.052.231-.688.284-1.038.285-1.854.001-1.176-.124-1.577-.579-1.85-.187-.112-.253-.13-.484-.13-.356 0-.642.143-.823.411-.183.272-.211.459-.144.953a4.07 4.07 0 0 1-.671 2.881C14.577 16.325 13.292 17 12.013 17a4 4 0 0 1-3.035-1.389c-.6-.704-.904-1.456-.965-2.391-.055-.848.166-1.667.653-2.414.299-.459.349-.598.323-.888A.987.987 0 0 0 8 9.004c-.099 0-.248.024-.33.053"/></svg>