<svg xmlns="http://www.w3.org/2000/svg" width="24" height="24" fill="none" stroke="currentColor" stroke-linecap="round" stroke-linejoin="round" stroke-width="2"><path fill="#000" fill-rule="evenodd" stroke="none" d="M11.5 4.046c-.11.02-.29.065-.4.1-.291.093-8.965 4.04-9.19 4.182-.41.26-.764.776-.866 1.264-.138.661.064 1.316.556 1.808.296.295.331.314 2.209 1.163l1.188.537.002 1.58c.003 1.809.017 1.934.297 2.5.364.738 1.087 1.378 2.124 1.881.889.43 1.82.691 3.1.866.508.069 2.452.069 2.96 0 1.279-.175 2.209-.435 3.1-.866.659-.319 1.03-.58 1.502-1.055.331-.335.456-.494.586-.746.312-.607.305-.561.33-2.454l.022-1.693.958-.437c.528-.24.973-.436.989-.436s.035.915.042 2.033l.011 2.033.121.197a.998.998 0 0 0 1.718 0l.121-.197.011-3.283c.007-2.146-.003-3.35-.03-3.476-.116-.54-.517-1.034-1.073-1.32-.532-.273-8.76-4.009-8.988-4.08a3 3 0 0 0-1.4-.101m.85 2.027c.235.091 8.579 3.888 8.618 3.922.023.021-7.863 3.623-8.553 3.907-.306.125-.531.122-.86-.013-.454-.187-8.514-3.868-8.514-3.889-.001-.018 8.568-3.923 8.719-3.973.132-.045.409-.023.59.046m-3.498 8.792c.995.454 1.915.868 2.045.92.703.28 1.504.28 2.206 0 .13-.052 1.038-.458 2.017-.904.979-.445 1.802-.818 1.83-.829.039-.016.05.203.05 1.019v1.04l-.112.214c-.313.599-1.511 1.217-2.888 1.49a10.9 10.9 0 0 1-4 0c-1.377-.273-2.575-.891-2.888-1.49L7 16.111v-1.036c0-.569.01-1.035.022-1.035.013 0 .836.371 1.83.825"/></svg>