<svg xmlns="http://www.w3.org/2000/svg" width="24" height="24" fill="none" stroke="currentColor" stroke-linecap="round" stroke-linejoin="round" stroke-width="2"><path fill="#000" fill-rule="evenodd" stroke="none" d="M21.723 1.047a1.2 1.2 0 0 0-.3.153c-.09.063-.945.898-1.901 1.856l-1.739 1.741-.129-.343a4.01 4.01 0 0 0-3.342-2.57 4 4 0 0 0-2.832.801c-.359.271-.766.72-.989 1.094-.08.133-.15.249-.158.258-.007.009-.171-.066-.363-.166-1.536-.805-3.369-.544-4.636.66q-.747.709-1.08 1.809c-.101.333-.109.413-.109 1.06 0 .645.009.728.108 1.06.06.198.193.531.298.74l.202.408c.007.015-.059.064-.146.108a5 5 0 0 0-.487.328c-1.188.896-1.777 2.46-1.478 3.928.086.419.286.955.458 1.229.055.086.1.175.1.197s-.07.076-.156.12c-.292.149-.811.573-1.065.87-1.788 2.096-1.013 5.289 1.533 6.316a3.97 3.97 0 0 0 2.976 0c.811-.327 1.519-.93 1.942-1.654.081-.137.161-.25.179-.25s.105.046.194.102c.475.3 1.359.538 1.997.538.659 0 1.488-.229 2.044-.564.543-.327 1.083-.867 1.386-1.386.081-.138.157-.246.169-.24l.401.199c.209.105.542.238.74.298.332.099.415.108 1.06.108.647 0 .727-.008 1.06-.109 1.526-.462 2.547-1.572 2.86-3.108.18-.883.043-1.782-.402-2.637-.093-.178-.162-.329-.153-.336l.256-.156c.859-.514 1.537-1.434 1.805-2.449.133-.507.149-1.291.037-1.8a4.04 4.04 0 0 0-2.659-2.959l-.214-.071.895-.895.895-.896.021.436c.02.394.033.454.142.63a.998.998 0 0 0 1.716-.002l.121-.197V1.7l-.108-.184a1.01 1.01 0 0 0-1.149-.469M14.22 3.881c1.047.147 1.811 1.173 1.661 2.23-.074.521-.253.866-.63 1.211a1.99 1.99 0 0 1-1.897.445 1.975 1.975 0 0 1-1.434-1.914c0-.996.707-1.825 1.68-1.97.306-.046.307-.046.62-.002M8.503 5.443c.796.145 1.461.848 1.576 1.667.198 1.411-1.088 2.579-2.453 2.227-.71-.183-1.315-.8-1.461-1.489-.145-.681.04-1.33.522-1.832.479-.499 1.117-.7 1.816-.573m9.957 2.678c1.047.147 1.811 1.173 1.661 2.23-.074.521-.253.866-.63 1.211a1.99 1.99 0 0 1-1.897.445 1.975 1.975 0 0 1-1.434-1.914c0-.996.707-1.825 1.68-1.97.306-.046.307-.046.62-.002m-5.8 1.56c1.047.147 1.811 1.173 1.661 2.23-.074.521-.253.866-.63 1.211-.517.472-1.171.626-1.88.441a1.7 1.7 0 0 1-.867-.501 1.97 1.97 0 0 1-.584-1.426c0-.969.7-1.792 1.66-1.953.277-.047.322-.047.64-.002m-5.577 1.592c.345.09.675.293.937.575.263.283.404.565.49.983.136.657-.056 1.281-.547 1.773-.399.401-.857.596-1.396.596-.515 0-.973-.181-1.354-.535-1.33-1.236-.464-3.46 1.347-3.46.143 0 .378.031.523.068m10.056 2.694c.298.076.637.28.881.529.603.615.743 1.505.36 2.289-.24.491-.789.934-1.304 1.053a2.9 2.9 0 0 1-.952 0c-.515-.119-1.064-.562-1.304-1.053-.762-1.559.63-3.251 2.319-2.818m-5.826 1.55c1.204.313 1.828 1.677 1.28 2.803-.155.318-.566.745-.863.895a1.98 1.98 0 0 1-2.277-.31 1.98 1.98 0 0 1-.07-2.867 1.96 1.96 0 0 1 1.93-.521m-5.79 1.556a2.01 2.01 0 0 1 1.444 1.617c.1.653-.094 1.243-.564 1.714C6.002 20.807 5.547 21 5 21q-.771 0-1.347-.535c-1.33-1.236-.464-3.46 1.347-3.46.143 0 .378.031.523.068"/></svg>