<svg xmlns="http://www.w3.org/2000/svg" width="24" height="24" fill="none" stroke="currentColor" stroke-linecap="round" stroke-linejoin="round" stroke-width="2"><path fill="#000" fill-rule="evenodd" stroke="none" d="M4.499 2.043C3.38 2.232 2.461 3.048 2.114 4.16l-.094.3v15.08l.094.3c.304.976 1.036 1.715 2.026 2.046l.28.093 3.396.012c2.302.008 3.463-.002 3.603-.031.519-.108 1.118-.561 1.352-1.023s.229-.363.229-4.313V13h3.632c3.949 0 3.843.006 4.298-.225.266-.135.708-.575.841-.838.238-.468.233-.383.22-4.108l-.012-3.409-.093-.28c-.328-.981-1.065-1.715-2.025-2.019l-.321-.101-7.42-.006c-4.081-.003-7.511.01-7.621.029M11 7.5V11H4V7.947c0-3.467-.011-3.329.304-3.644.309-.309.16-.297 3.626-.3L11 4zm8.31-3.439c.279.083.546.35.629.629.052.175.061.641.061 3.257V11h-7V4h3.053c2.616 0 3.082.009 3.257.061M11 16.501v3.501l-3.15-.011-3.15-.011-.184-.108a1.2 1.2 0 0 1-.291-.249C3.994 19.32 4 19.418 4 16.075V13h7zm4.67-1.44c-.222.081-.42.248-.542.455-.091.156-.108.23-.108.484s.016.328.107.48c.059.099.523.594 1.03 1.099l.922.92-.955.96c-.525.529-.986 1.022-1.023 1.096-.229.454-.045 1.046.407 1.312.165.097.235.113.492.113.254 0 .328-.016.48-.107.099-.059.594-.523 1.099-1.03l.92-.922.96.955c.529.525 1.024.988 1.101 1.029.099.052.227.074.44.074.258.001.327-.015.492-.112.222-.13.409-.369.473-.603a1.2 1.2 0 0 0-.066-.709c-.037-.074-.498-.567-1.023-1.096l-.955-.96.922-.92c.507-.505.971-1 1.03-1.099.091-.152.107-.226.107-.48s-.017-.328-.108-.484a1 1 0 0 0-1.215-.45c-.171.058-.327.196-1.177 1.038l-.98.972-.98-.972c-.849-.842-1.006-.98-1.177-1.038a1 1 0 0 0-.673-.005"/></svg>