<svg xmlns="http://www.w3.org/2000/svg" width="24" height="24" fill="none" stroke="currentColor" stroke-linecap="round" stroke-linejoin="round" stroke-width="2"><path fill="#000" fill-rule="evenodd" stroke="none" d="M4.499 2.043C3.38 2.232 2.461 3.048 2.114 4.16l-.094.3v15.08l.094.3c.304.976 1.036 1.715 2.026 2.046l.28.093 3.396.012c2.302.008 3.463-.002 3.603-.031.519-.108 1.118-.561 1.352-1.023s.229-.363.229-4.313V13h3.632c3.949 0 3.843.006 4.298-.225.266-.135.708-.575.841-.838.238-.468.233-.383.22-4.108l-.012-3.409-.093-.28c-.328-.981-1.065-1.715-2.025-2.019l-.321-.101-7.42-.006c-4.081-.003-7.511.01-7.621.029M11 7.5V11H4V7.947c0-3.467-.011-3.329.304-3.644.309-.309.16-.297 3.626-.3L11 4zm8.31-3.439c.279.083.546.35.629.629.052.175.061.641.061 3.257V11h-7V4h3.053c2.616 0 3.082.009 3.257.061M11 16.501v3.501l-3.15-.011-3.15-.011-.184-.108a1.2 1.2 0 0 1-.291-.249C3.994 19.32 4 19.418 4 16.075V13h7zm7.695-1.444a1.04 1.04 0 0 0-.567.459l-.108.184-.012 1.15-.013 1.15h-1.051c-1.147 0-1.301.022-1.562.221-.08.061-.195.194-.254.295-.091.156-.108.23-.108.484 0 .256.016.328.111.489.061.103.173.236.25.294.261.2.357.213 1.527.215l1.087.002.013 1.153.012 1.154.121.196a.998.998 0 0 0 1.718 0l.121-.196.012-1.154.013-1.153 1.087-.002c1.17-.002 1.266-.015 1.527-.215.077-.058.189-.191.25-.294.095-.161.111-.233.111-.489 0-.254-.017-.328-.108-.484a1.2 1.2 0 0 0-.254-.295c-.261-.199-.415-.221-1.562-.221h-1.051l-.013-1.15-.012-1.15-.108-.184a1.005 1.005 0 0 0-1.177-.459"/></svg>