<svg xmlns="http://www.w3.org/2000/svg" width="24" height="24" fill="none" stroke="currentColor" stroke-linecap="round" stroke-linejoin="round" stroke-width="2"><path fill="#000" fill-rule="evenodd" stroke="none" d="M4.499 2.043c-.639.107-1.104.355-1.603.853-.4.401-.601.718-.771 1.217l-.103.307-.001 1.443-.001 1.443.121.197a.998.998 0 0 0 1.718 0l.121-.196L4 6.023c.022-1.42.027-1.447.301-1.722.275-.274.303-.279 1.719-.301l1.28-.02.192-.113c.756-.444.631-1.561-.202-1.812-.139-.042-.471-.054-1.386-.05-.662.002-1.295.02-1.405.038m12.196.012a.996.996 0 0 0-.497 1.536c.065.09.205.214.31.276l.192.113 1.28.02c1.416.022 1.444.027 1.719.301.274.275.279.302.301 1.722l.02 1.284.121.196a.998.998 0 0 0 1.718 0l.121-.197-.001-1.443-.001-1.443-.103-.307c-.17-.499-.371-.816-.771-1.217-.412-.412-.746-.619-1.243-.772-.31-.096-.366-.099-1.661-.11-1.034-.009-1.378 0-1.505.041M7.477 6.073c-.671.176-1.239.75-1.417 1.435-.088.336-.088 3.648 0 3.984.093.36.25.626.536.912.477.477.83.596 1.772.596H9v1.632c0 1.767.01 1.875.225 2.298.136.269.576.709.845.845.446.226.429.225 3.43.225s2.984.001 3.43-.225c.266-.135.708-.575.841-.838.219-.431.229-.541.228-2.423 0-1.872-.014-2.03-.218-2.431-.135-.267-.484-.634-.764-.802-.359-.216-.656-.276-1.387-.279L15 11l-.001-1.61c0-1.738-.017-1.911-.218-2.307-.135-.267-.484-.634-.764-.802-.462-.278-.437-.276-3.517-.276-2.48 0-2.787.007-3.023.068M13 9.5V11H8V8h5zm3 5V16h-5v-3h5zM2.695 16.057a1.04 1.04 0 0 0-.567.459l-.108.184.001 1.44.001 1.44.103.307c.17.499.371.816.771 1.217.402.401.721.603 1.217.769.301.101.334.103 1.651.118.881.01 1.399.001 1.504-.028.23-.062.469-.25.599-.471.097-.165.113-.235.113-.492 0-.254-.017-.328-.108-.484a1.2 1.2 0 0 0-.254-.295C7.354 20.02 7.208 20 5.981 20c-1.273 0-1.387-.019-1.651-.275-.305-.296-.308-.31-.33-1.745l-.02-1.28-.108-.184a1.005 1.005 0 0 0-1.177-.459m18 0a1.04 1.04 0 0 0-.567.459l-.108.184-.02 1.28c-.022 1.435-.025 1.449-.33 1.745-.264.256-.378.275-1.651.275-1.227 0-1.373.02-1.637.221-.08.061-.195.194-.254.295-.091.156-.108.23-.108.484 0 .257.016.327.113.492.13.221.369.409.599.471.105.029.623.038 1.504.028 1.317-.015 1.35-.017 1.651-.118.496-.166.815-.368 1.217-.769.4-.401.601-.718.771-1.217l.103-.307.001-1.44.001-1.44-.108-.184a1.005 1.005 0 0 0-1.177-.459"/></svg>