<svg xmlns="http://www.w3.org/2000/svg" width="24" height="24" fill="none" stroke="currentColor" stroke-linecap="round" stroke-linejoin="round" stroke-width="2"><path fill="#000" fill-rule="evenodd" stroke="none" d="M19.103 1.045a1.7 1.7 0 0 0-.58.178c-.269.132-.391.236-1.088.933-.788.788-1.021 1.077-1.193 1.484-.196.46-.211.572-.238 1.72-.024 1.025-.031 1.111-.112 1.26-.047.088-.382.455-.744.815l-.658.654-.375-.223c-.871-.519-1.734-.779-2.82-.847-.992-.063-1.876.209-2.703.832-.629.474-1.037 1.03-1.475 2.015-.452 1.018-.516 1.068-1.44 1.157-1.09.104-1.791.356-2.609.94-1.001.714-1.704 1.808-1.975 3.077-.088.409-.097 1.481-.018 1.98.327 2.052 1.464 3.78 3.233 4.913.761.487 1.706.838 2.672.992.499.079 1.571.07 1.98-.018 1.528-.327 2.788-1.277 3.473-2.619.35-.686.507-1.27.564-2.096.028-.399.048-.494.139-.649.149-.253.277-.338 1.004-.664.76-.34 1.211-.629 1.623-1.038q1.316-1.306 1.225-3.118a6.1 6.1 0 0 0-.912-2.95l-.163-.265.654-.657c.359-.361.725-.696.813-.743.149-.081.234-.088 1.26-.111.997-.022 1.126-.033 1.38-.115.666-.217.961-.431 1.903-1.388.608-.618.723-.754.85-1.014q.427-.874.001-1.768c-.127-.266-.231-.383-1.167-1.316-.917-.915-1.058-1.04-1.318-1.168-.261-.129-.403-.165-.789-.202a3 3 0 0 0-.397.019M20.2 3.82l.779.78-.599.603c-.33.331-.672.642-.76.69-.145.078-.23.088-.893.1l-.733.013.013-.733c.011-.619.025-.755.087-.873.065-.124 1.253-1.36 1.306-1.36.011 0 .371.351.8.78m-8.173 5.321c.213.054.529.165.702.246l.315.148-.727.728-.728.729-.25.027c-.51.054-.982.399-1.207.881-.097.207-.112.29-.112.6 0 .311.015.394.113.604.143.309.452.617.767.764.207.097.29.112.6.112s.393-.015.6-.112c.484-.226.843-.722.889-1.228l.021-.231.728-.727.727-.726.148.315c.291.62.444 1.52.348 2.049-.091.496-.484 1.075-.933 1.373a7 7 0 0 1-.769.387c-.649.288-.835.39-1.154.638-.441.341-.86.988-1.003 1.551a6 6 0 0 0-.103.767c-.063.829-.265 1.375-.694 1.875-.412.48-.884.794-1.465.975-.396.123-1.277.134-1.799.021a5.04 5.04 0 0 1-2.499-1.322c-.888-.872-1.375-1.872-1.505-3.085-.126-1.183.212-2.084 1.051-2.804.501-.43 1.047-.632 1.879-.695.285-.022.594-.059.686-.083.942-.244 1.643-.83 2.057-1.718.561-1.203.611-1.291.885-1.56.296-.29.674-.512 1.005-.588.311-.072.952-.032 1.427.089m-6.357 5.92c-.222.081-.42.248-.542.455-.092.156-.108.229-.107.484 0 .213.022.341.074.44.099.187 2.199 2.299 2.413 2.426.46.272 1.079.102 1.359-.374.097-.165.113-.235.113-.492 0-.253-.017-.328-.107-.48-.058-.099-.607-.677-1.22-1.284-.973-.965-1.138-1.112-1.31-1.17a1 1 0 0 0-.673-.005"/></svg>