<svg xmlns="http://www.w3.org/2000/svg" width="24" height="24" fill="none" stroke="currentColor" stroke-linecap="round" stroke-linejoin="round" stroke-width="2"><path fill="#000" fill-rule="evenodd" stroke="none" d="M17.428.769c-.773.065-1.475.401-2.072.991-.664.657-.96 1.289-1.033 2.206-.031.395.019 1.027.09 1.142.012.021-.233.292-.545.603l-.568.566-.48-.097c-1.529-.308-3.004-.214-4.739.302-1.587.471-3.382 1.466-4.868 2.697-.662.548-1.405 1.312-1.593 1.638-.466.807-.652 1.604-.608 2.603.028.641.137 1.214.364 1.908.526 1.612 1.456 3.069 2.842 4.454 1.385 1.386 2.842 2.316 4.454 2.842 1.748.571 3.233.491 4.511-.243.355-.205 1.195-1.039 1.791-1.781 1.59-1.976 2.569-4.106 2.934-6.38.053-.331.071-.668.07-1.36-.002-.93-.038-1.27-.203-1.917l-.061-.236.553-.556c.509-.511.563-.554.673-.535.571.096.912.115 1.274.071A3.45 3.45 0 0 0 22.26 8.7a3.54 3.54 0 0 0 1.032-2.149 3.6 3.6 0 0 0-.357-1.922c-.337-.672-.995-1.3-1.669-1.592-.171-.074-.234-.125-.266-.217-.157-.443-.799-1.195-1.297-1.519-.642-.419-1.428-.602-2.275-.532m.912 2.074c.421.158.827.633.92 1.077.09.426.397.719.875.836.426.104.827.415 1.018.789.293.576.149 1.328-.341 1.776-.293.268-.578.373-1.012.374-.297.001-.378-.015-.639-.129-.39-.17-.571-.192-.863-.107-.219.063-.279.111-.86.686l-.625.617-.227-.295a7 7 0 0 0-1.117-1.104l-.232-.175.618-.625c.575-.582.623-.642.686-.861.084-.287.062-.467-.099-.842-.152-.355-.169-.813-.042-1.148.15-.398.502-.743.897-.879.29-.1.76-.096 1.043.01m-6.02 5.273c.657.132 1.178.337 1.687.665.385.247 1.007.879 1.247 1.266.867 1.397.975 3.324.305 5.422-.226.707-.731 1.81-.774 1.691l-.185-.553c-1.042-3.157-4.048-6.164-7.202-7.206-.274-.09-.525-.174-.558-.186-.119-.043.986-.549 1.691-.773a10 10 0 0 1 1.989-.418c.325-.039 1.433.018 1.8.092m-6.26 2.985c1.068.222 2.362.87 3.4 1.701 1.472 1.18 2.736 2.899 3.233 4.398.22.665.284 1.032.284 1.62-.001.56-.054.818-.244 1.194-.781 1.541-3.507 1.23-6.033-.69-.493-.376-1.281-1.133-1.73-1.664-.926-1.096-1.622-2.439-1.874-3.62-.1-.465-.1-1.288-.001-1.618.241-.801.785-1.263 1.645-1.397.228-.035 1.001.009 1.32.076m.984 3.524c-.504.251-.698.942-.393 1.395.121.18 1.105 1.169 1.294 1.301.314.22.797.218 1.121-.005.433-.298.553-.945.254-1.373-.201-.29-1.208-1.253-1.401-1.34a1.06 1.06 0 0 0-.875.022"/></svg>