<svg xmlns="http://www.w3.org/2000/svg" width="24" height="24" fill="none" stroke="currentColor" stroke-linecap="round" stroke-linejoin="round" stroke-width="2"><path fill="#000" fill-rule="evenodd" stroke="none" d="M8.67 2.018a1.1 1.1 0 0 0-.542.458c-.09.153-.108.232-.108.464 0 .444.071.548.855 1.25.372.332.783.736.913.897.74.909 1.114 1.869 1.195 3.067l.028.414-4.179 4.186c-2.788 2.793-4.23 4.265-4.333 4.425-.344.53-.48 1.015-.477 1.701.002.592.088.953.348 1.458.235.456.836 1.057 1.292 1.292.525.27.863.349 1.498.346.477-.002.58-.015.88-.113a3 3 0 0 0 1.02-.546c.132-.105 2.058-2.011 4.28-4.234 2.222-2.224 4.063-4.043 4.092-4.043.139 0 .363.183.992.808l.684.679-.058.167c-.082.236-.045.58.089.808.273.466.898.634 1.353.363.216-.128 4.316-4.239 4.413-4.425.052-.099.074-.228.074-.44.001-.255-.015-.328-.107-.484-.246-.419-.746-.613-1.181-.46l-.159.056-.682-.686c-.375-.377-.715-.749-.756-.826-.062-.119-.076-.271-.094-1-.018-.701-.035-.89-.092-1.02-.09-.203-2.665-2.778-3.129-3.128a7.1 7.1 0 0 0-2.041-1.086c-.969-.327-1.279-.358-3.838-.385-1.762-.018-2.103-.013-2.23.037m4.665 2.044c.461.081.92.228 1.313.42.714.349.902.502 2.222 1.813L18 7.418l.001.541c.001.814.136 1.324.493 1.861.088.132.48.565.872.961l.712.722-.789.788-.79.789-.639-.642c-.889-.893-1.195-1.112-1.84-1.318-.227-.073-.404-.093-.94-.109l-.66-.019-.71-.705-.71-.706-.001-.821c-.001-1.472-.218-2.481-.767-3.576-.191-.381-.602-1.041-.678-1.087-.12-.075.037-.097.696-.097.48 0 .851.022 1.085.062M9.434 16.146c-2.583 2.583-3.697 3.671-3.822 3.734a1.4 1.4 0 0 1-.404.108c-.442.039-.911-.244-1.1-.662-.117-.261-.113-.68.009-.926.065-.129 1.117-1.208 3.736-3.83l3.647-3.65.79.79.79.79z"/></svg>