<svg xmlns="http://www.w3.org/2000/svg" width="24" height="24" fill="none" stroke="currentColor" stroke-linecap="round" stroke-linejoin="round" stroke-width="2"><path fill="#000" fill-rule="evenodd" stroke="none" d="M2.675 2.055a.97.97 0 0 0-.613.619c-.034.097-.255 2.348-.567 5.781l-.511 5.621.072.232c.071.228.125.285 3.398 3.566 1.829 1.834 3.457 3.441 3.618 3.57.325.262.736.474 1.128.582.363.1 1.237.1 1.6 0a3.3 3.3 0 0 0 1.962-1.566c.072-.132.136-.246.141-.253s.121.044.257.113c.405.204.79.287 1.34.287.75 0 1.301-.183 1.893-.628.499-.375 1.006-1.124 1.128-1.666l.048-.213.485-.003c.331-.001.569-.025.746-.073 1.253-.338 2.201-1.467 2.308-2.748l.023-.27.566-.013c.514-.012.584-.022.764-.115.109-.056.256-.179.328-.272.257-.338.276.072-.285-6.139-.323-3.565-.531-5.694-.568-5.798a.976.976 0 0 0-1.171-.63c-.431.103-.718.445-.755.896l-.02.251-.589.114c-.711.137-.691.141-1.491-.314-.881-.501-1.64-.774-2.53-.91-.437-.067-1.606-.068-1.98-.002-.842.149-1.526.377-2.187.73L10.845 3H4.01l-.027-.17a1.06 1.06 0 0 0-.362-.612c-.26-.198-.656-.266-.946-.163m12.701 2.044c.479.101.924.277 1.428.564 1.308.744 1.73.841 2.788.637.314-.06.578-.103.586-.095.017.017.702 7.52.702 7.685 0 .107-.006.11-.23.11h-.23l-2.16-2.154c-1.188-1.185-2.267-2.233-2.398-2.328a4.8 4.8 0 0 0-1.282-.623c-.336-.103-.409-.11-1.08-.11-.672 0-.744.007-1.079.11a4.7 4.7 0 0 0-1.275.618c-.135.1-.543.472-.906.827-.548.536-.694.657-.857.713A1.13 1.13 0 0 1 8 9.495c-.14-.273-.142-.713-.005-.981.12-.234 3.261-3.375 3.645-3.644a5 5 0 0 1 2.02-.81c.449-.072 1.28-.053 1.716.039M7.556 6.03c-1.039 1.05-1.245 1.302-1.44 1.767-.245.586-.301 1.413-.135 2.023.278 1.024 1.175 1.921 2.199 2.199.61.166 1.437.11 2.023-.135.433-.182.702-.389 1.446-1.115.625-.61.745-.709 1.02-.84.31-.148.313-.149.831-.149.508 0 .527.003.82.137.291.134.365.202 2.445 2.274 1.532 1.526 2.171 2.189 2.24 2.322.137.269.135.709-.005.982a1.13 1.13 0 0 1-1.383.559c-.174-.058-.362-.229-1.637-1.494-1.274-1.263-1.463-1.435-1.637-1.494a1 1 0 0 0-1.215.45c-.092.156-.108.229-.107.484 0 .213.022.34.074.44.041.077.584.653 1.207 1.28 1.264 1.272 1.296 1.316 1.296 1.78 0 .64-.466 1.11-1.1 1.11-.445 0-.514-.051-1.798-1.326-1.017-1.01-1.184-1.16-1.357-1.218a1 1 0 0 0-1.215.45c-.092.156-.108.229-.107.484.001.386.051.479.521.96.474.486.558.643.558 1.04 0 .241-.02.339-.1.495-.277.543-.944.775-1.481.514-.131-.064-1.028-.937-3.328-3.238L3.042 13.62l.381-4.22c.21-2.321.389-4.26.4-4.31L3.842 5h4.733z"/></svg>