<svg xmlns="http://www.w3.org/2000/svg" width="24" height="24" fill="none" stroke="currentColor" stroke-linecap="round" stroke-linejoin="round" stroke-width="2"><path fill="#000" fill-rule="evenodd" stroke="none" d="M11.695 1.057a1 1 0 0 0-.681.809l-.023.195-.489.088c-2.097.376-4.027 1.68-5.238 3.54A8.8 8.8 0 0 0 4.405 7.5c-.153.469-.325 1.203-.325 1.389 0 .082-.028.098-.247.14a1 1 0 0 0-.693.473c-.106.169-.12.227-.12.495 0 .259.016.33.111.492.125.213.318.375.539.454.223.079 16.437.079 16.66 0 .221-.079.414-.241.539-.454.095-.162.111-.233.111-.492 0-.268-.014-.326-.12-.495a1 1 0 0 0-.693-.473c-.219-.042-.247-.058-.247-.14 0-.186-.172-.92-.325-1.389a7.9 7.9 0 0 0-1.794-2.996 8 8 0 0 0-4.153-2.326 6 6 0 0 0-.552-.098c-.072 0-.089-.031-.109-.204a.995.995 0 0 0-1.292-.819m.869 2.982a5.86 5.86 0 0 1 3.705 1.766c.803.819 1.376 1.868 1.582 2.895l.056.28-2.954.01c-1.624.006-4.282.006-5.906 0l-2.954-.01.056-.28c.206-1.027.779-2.076 1.582-2.895a5.92 5.92 0 0 1 4.833-1.766M1.695 13.057c-.23.072-.439.242-.567.459-.091.156-.108.23-.108.484 0 .256.016.328.111.489.061.103.173.236.25.294.262.2.357.213 1.529.215L4 15v5H2.946c-1.149 0-1.302.022-1.564.221-.08.061-.195.194-.254.295-.091.156-.108.23-.108.484 0 .256.016.328.111.489.061.103.173.236.25.294.265.203.347.213 1.661.215 1.324.002 1.48-.016 1.888-.223.266-.135.708-.575.841-.838.117-.23.229-.628.229-.813 0-.251.129-.148.915.734 1.09 1.224 1.511 1.547 2.426 1.865.745.258.734.257 3.659.257 2.424 0 2.69-.006 2.999-.073.971-.209 1.65-.572 2.381-1.269a230 230 0 0 1 2.08-1.923c.924-.847 1.766-1.637 1.87-1.756.217-.249.423-.622.551-.999.135-.398.157-1.192.046-1.632a2.9 2.9 0 0 0-.55-1.124 2.96 2.96 0 0 0-2.536-1.151c-.495.029-.797.104-1.161.287-.334.168-.512.304-1.272.972-.336.296-.617.531-.624.523a8 8 0 0 1-.139-.255c-.346-.658-1.038-1.223-1.784-1.459l-.321-.101-6.34-.008c-5.118-.006-6.372.003-6.505.045m12.615 2.004c.279.083.546.35.629.629.076.256.076.363.001.617-.074.249-.405.583-.644.649-.095.027-.596.044-1.28.044-1.224 0-1.37.02-1.634.221-.08.061-.195.194-.254.295-.091.156-.108.23-.108.484 0 .257.016.327.113.492.13.221.369.409.599.471.105.029.621.038 1.504.028 1.273-.015 1.359-.021 1.624-.108.511-.168.83-.363 1.28-.782.088-.082.871-.774 1.741-1.537q1.581-1.388 1.751-1.456c.357-.143.838-.039 1.096.237.337.36.365.971.061 1.332-.051.06-.865.817-1.81 1.683a293 293 0 0 0-2.051 1.89c-.25.238-.413.354-.66.471-.575.272-.654.279-3.268.279-2.609 0-2.695-.007-3.26-.276-.41-.195-.583-.354-1.498-1.382-.443-.497-.843-.908-.968-.994a2 2 0 0 0-.975-.334L6 17.988V15h4.053c3.511 0 4.08.008 4.257.061"/></svg>