<svg xmlns="http://www.w3.org/2000/svg" width="24" height="24" fill="none" stroke="currentColor" stroke-linecap="round" stroke-linejoin="round" stroke-width="2"><path fill="#000" fill-rule="evenodd" stroke="none" d="M19.325 6.022c-.595.129-.978.381-1.949 1.285l-1.167 1.085-.443.411-.123-.231c-.356-.667-1.081-1.248-1.821-1.46-.317-.091-.353-.092-2.342-.092-2.25 0-2.221-.003-2.828.285-.275.131-.458.298-2.962 2.712L3.021 12.59l-.253-.232c-.369-.339-.708-.432-1.084-.3a1.05 1.05 0 0 0-.556.458c-.092.156-.108.229-.107.484 0 .212.022.341.074.44.1.192 6.199 6.298 6.425 6.433.152.091.226.107.48.107.257 0 .327-.016.492-.113a.99.99 0 0 0 .496-.972c-.026-.257-.107-.414-.335-.659l-.179-.191.153-.135.533-.475a9 9 0 0 1 .44-.377c.035-.022 1.116-.048 2.6-.061 2.77-.025 2.73-.022 3.46-.275.793-.274 1.112-.505 2.398-1.739.598-.574 1.791-1.716 2.651-2.538.861-.822 1.641-1.596 1.734-1.72.812-1.084.772-2.625-.098-3.678-.402-.487-1.078-.909-1.645-1.027-.348-.073-1.036-.072-1.375.002m1.064 1.999a.96.96 0 0 1 .618.918c.003.49.36.117-4.955 5.19-.32.306-.527.468-.723.567-.565.284-.47.275-3.329.304-2.855.029-2.745.019-3.346.304a2.5 2.5 0 0 0-.601.427c-.547.507-.962.869-.999.869-.019 0-.617-.583-1.329-1.295l-1.294-1.294 2.544-2.456c1.637-1.58 2.59-2.472 2.674-2.503.093-.034.61-.048 1.794-.05 1.92-.002 1.955.002 2.254.301.273.274.36.616.248.987a1.02 1.02 0 0 1-.461.582l-.184.108-1.28.021c-.874.015-1.316.037-1.393.07a1.14 1.14 0 0 0-.499.445c-.091.156-.108.23-.108.484 0 .257.016.327.113.492.13.221.369.409.599.471.105.029.621.038 1.504.028 1.273-.015 1.359-.021 1.624-.108a3 3 0 0 0 .969-.511c.132-.106.958-.859 1.835-1.674l2.193-2.035c.328-.304.67-.586.76-.627.201-.092.572-.099.772-.015"/></svg>