<svg xmlns="http://www.w3.org/2000/svg" width="24" height="24" fill="none" stroke="currentColor" stroke-linecap="round" stroke-linejoin="round" stroke-width="2"><path fill="#000" fill-rule="evenodd" stroke="none" d="M5.358 1.061c-1.128.176-2.215.913-2.789 1.892a3.992 3.992 0 0 0 1.943 5.751 3.99 3.99 0 0 0 5.192-2.216 3.96 3.96 0 0 0 .001-2.972 3.98 3.98 0 0 0-3.1-2.458 3.7 3.7 0 0 0-1.247.003m1.165 2.012a2.01 2.01 0 0 1 1.27 2.807c-.155.318-.566.745-.863.895a2.07 2.07 0 0 1-1.422.165c-.685-.178-1.259-.746-1.435-1.417a2 2 0 0 1 2.45-2.45m8.717 2.105a3.92 3.92 0 0 0-3.062 3.053c-.078.376-.082 1.166-.006 1.516l.053.247-1.402.017c-1.55.018-1.606.026-2.175.296-.315.149-.111-.041-4.626 4.318l-1 .965-.254-.232c-.369-.339-.708-.432-1.084-.3a1.05 1.05 0 0 0-.556.458c-.091.156-.108.23-.108.484s.016.328.107.48c.136.227 6.243 6.327 6.428 6.419.455.229 1.046.045 1.312-.407.097-.165.113-.234.112-.492-.001-.347-.054-.473-.326-.764l-.179-.191.153-.135.533-.475a9 9 0 0 1 .44-.377c.035-.022 1.116-.048 2.6-.061 2.77-.025 2.73-.022 3.46-.275.793-.274 1.112-.505 2.398-1.739.598-.574 1.791-1.716 2.651-2.538.861-.822 1.641-1.596 1.734-1.72.581-.775.738-1.824.416-2.776-.23-.679-.789-1.318-1.454-1.663a2.6 2.6 0 0 0-1.14-.32L19.9 8.94l-.027-.321c-.133-1.605-1.295-2.953-2.933-3.402-.328-.09-1.347-.114-1.7-.039m1.568 2.112c.4.198.704.502.902.902.149.302.15.306.15.806 0 .482-.005.513-.128.772a2.4 2.4 0 0 1-.715.832c-.549.378-1.438.384-2.027.012-.265-.167-.543-.489-.702-.81-.147-.298-.148-.303-.148-.804s.001-.506.149-.806a1.97 1.97 0 0 1 1.13-1.004c.156-.056.299-.069.643-.061.42.011.458.019.746.161m3.581 3.731a.96.96 0 0 1 .618.918c.003.49.36.117-4.955 5.19-.32.306-.527.468-.723.567-.565.284-.47.275-3.329.304-2.855.029-2.745.019-3.346.304a2.5 2.5 0 0 0-.601.427c-.547.507-.962.869-.999.869-.019 0-.617-.583-1.329-1.295l-1.294-1.294 2.544-2.456c1.637-1.58 2.59-2.472 2.674-2.503.093-.034.61-.048 1.794-.05 1.92-.002 1.955.002 2.254.301.273.274.36.616.248.987a1.02 1.02 0 0 1-.461.582l-.184.108-1.28.021c-.874.015-1.316.037-1.393.07a1.14 1.14 0 0 0-.499.445c-.091.156-.108.23-.108.484 0 .257.016.327.113.492.13.221.369.409.599.471.105.029.621.038 1.504.028 1.273-.015 1.359-.021 1.624-.108a2.9 2.9 0 0 0 .969-.511c.204-.164 3.103-2.832 4.243-3.906.207-.194.451-.387.542-.429.204-.093.573-.1.775-.016"/></svg>