<svg xmlns="http://www.w3.org/2000/svg" width="24" height="24" fill="none" stroke="currentColor" stroke-linecap="round" stroke-linejoin="round" stroke-width="2"><path fill="#000" fill-rule="evenodd" stroke="none" d="M7.499 2.04c-1.125.204-2.011.984-2.385 2.1l-.094.28-.011 3.754c-.01 3.32-.019 3.751-.072 3.73-.339-.13-.549-.162-1.037-.16-.592.002-.872.062-1.312.279a3.05 3.05 0 0 0-1.594 1.926c-.109.408-.119 1.117-.02 1.491.094.357.308.797.521 1.071.247.318 4.215 4.259 4.594 4.564 1.41 1.133 2.889 1.703 4.891 1.885.704.064 3.428.051 4.028-.019a9 9 0 0 0 2.932-.857 9.01 9.01 0 0 0 5.02-7.244c.031-.316.041-1.707.032-4.44l-.012-3.98-.094-.28c-.33-.984-1.075-1.726-2.025-2.015-.273-.083-.403-.098-.861-.098s-.588.015-.861.098a3.01 3.01 0 0 0-2.127 2.666c-.02.314-.034.368-.088.352l-.244-.069c-.101-.028-.401-.05-.68-.051-.528 0-.937.082-1.281.258a2 2 0 0 1-.171.079c-.009 0-.107-.108-.218-.24-.422-.499-.898-.821-1.469-.995-.267-.081-.409-.098-.841-.1-.307-.001-.594.019-.7.049l-.246.07c-.059.017-.067-.069-.084-.853-.016-.762-.029-.906-.108-1.151-.312-.971-1.081-1.736-2.021-2.011-.361-.106-1.029-.149-1.362-.089m.809 2.02c.13.039.263.119.371.223.32.311.299.061.321 3.74l.02 3.283.121.197a.998.998 0 0 0 1.718 0l.121-.196.02-1.284c.023-1.442.025-1.452.321-1.74C11.49 8.12 11.777 8 12 8s.51.12.679.283c.302.293.299.275.321 1.94l.02 1.484.121.196a.998.998 0 0 0 1.718 0l.121-.196.02-.984c.024-1.108.036-1.162.321-1.44C15.49 9.12 15.777 9 16 9c.237 0 .514.12.697.303.292.292.303.363.303 1.994.001 1.392.002 1.405.095 1.603.181.381.5.588.905.588s.724-.207.905-.588l.094-.2L19 9.797c0-3.299-.01-3.18.303-3.494.183-.183.46-.303.697-.303.238 0 .514.12.697.304.326.325.31.08.29 4.544-.018 4.143-.017 4.132-.204 4.872-.622 2.459-2.604 4.442-5.058 5.058-.747.187-.955.202-2.885.202-1.543 0-1.888-.011-2.263-.07-1.171-.186-1.995-.512-2.907-1.148-.497-.347-4.557-4.369-4.677-4.632a1.17 1.17 0 0 1-.014-.794 1.1 1.1 0 0 1 .481-.508c.211-.113.656-.119.86-.013.077.04.581.51 1.12 1.045s1.041 1.002 1.115 1.039c.454.229 1.046.045 1.312-.407.097-.165.113-.235.113-.492 0-.386-.082-.529-.597-1.039L7 13.582V9.218c0-4.917-.02-4.591.307-4.919q.414-.413 1.001-.239"/></svg>