<svg xmlns="http://www.w3.org/2000/svg" width="24" height="24" fill="none" stroke="currentColor" stroke-linecap="round" stroke-linejoin="round" stroke-width="2"><path fill="#000" fill-rule="evenodd" stroke="none" d="M17.636 1.82a4.1 4.1 0 0 0-1.338.522l-.342.215-.368-.195c-.658-.349-1.376-.513-2.028-.465-1.807.136-3.217 1.417-3.523 3.201-.057.333-.025 1.178.057 1.507.179.716.496 1.288 1.13 2.041l.291.346-1.047.019c-1.157.02-1.282.041-1.82.296-.315.149-.111-.041-4.626 4.318l-1 .965-.254-.232c-.369-.339-.708-.432-1.084-.3a1.05 1.05 0 0 0-.556.458c-.092.156-.108.229-.107.484 0 .212.022.341.074.44.097.185 6.196 6.296 6.413 6.425.459.274 1.079.103 1.359-.373.097-.165.113-.234.112-.492-.001-.347-.054-.473-.326-.764l-.179-.191.153-.135.533-.475a9 9 0 0 1 .44-.377c.035-.022 1.116-.048 2.6-.061 2.77-.025 2.73-.022 3.46-.275.793-.274 1.112-.505 2.398-1.739.598-.574 1.791-1.716 2.651-2.538.861-.822 1.641-1.596 1.734-1.72.581-.775.738-1.824.416-2.776-.225-.665-.784-1.312-1.422-1.648a1.7 1.7 0 0 1-.277-.164c0-.01.07-.121.155-.247.41-.605.621-1.218.683-1.988.097-1.186-.246-2.177-1.033-2.996A3.7 3.7 0 0 0 19.2 1.878c-.436-.112-1.139-.139-1.564-.058m1.012 1.984c.503.106.936.451 1.178.939.135.275.152.345.167.683.028.645-.092 1.027-.496 1.574-.106.143-.939 1.011-1.853 1.93l-1.661 1.67-.601-.59-1.47-1.441c-1.238-1.213-1.751-1.883-1.868-2.441-.316-1.509 1.131-2.688 2.511-2.046.186.086.339.204.563.434.353.361.487.442.781.472.419.044.635-.082 1.127-.654a1.67 1.67 0 0 1 1.622-.53m1.741 6.217a.96.96 0 0 1 .618.918c.003.49.36.117-4.955 5.19-.32.306-.527.468-.723.567-.565.284-.47.275-3.329.304-2.855.029-2.745.019-3.346.304a2.5 2.5 0 0 0-.601.427c-.547.507-.962.869-.999.869-.019 0-.617-.583-1.329-1.295l-1.294-1.294 2.544-2.456c1.637-1.58 2.59-2.472 2.674-2.503.093-.034.61-.048 1.794-.05 1.92-.002 1.955.002 2.254.301.273.274.36.616.248.987a1.02 1.02 0 0 1-.461.582l-.184.108-1.28.021c-.874.015-1.316.037-1.393.07a1.14 1.14 0 0 0-.499.445c-.091.156-.108.23-.108.484 0 .257.016.327.113.492.13.221.369.409.599.471.105.029.621.038 1.504.028 1.273-.015 1.359-.021 1.624-.108.624-.206.81-.337 1.889-1.336.379-.351.73-.666.78-.699.05-.034.361-.324.691-.646 1.068-1.04 2.228-2.09 2.397-2.166.201-.092.571-.099.772-.015"/></svg>