<svg xmlns="http://www.w3.org/2000/svg" width="24" height="24" fill="none" stroke="currentColor" stroke-linecap="round" stroke-linejoin="round" stroke-width="2"><path fill="#000" fill-rule="evenodd" stroke="none" d="M11.58 1.595c-.203.092-.429.342-.516.57-.06.156-.066.345-.056 1.659l.012 1.482.121.197a.998.998 0 0 0 1.718 0l.121-.197.012-1.482c.01-1.314.004-1.503-.056-1.659-.087-.228-.313-.478-.516-.57-.214-.098-.626-.098-.84 0M4.87 5.261c-.222.081-.42.248-.542.455-.092.156-.108.229-.107.484 0 .213.022.34.074.44.102.193 1.604 1.701 1.825 1.833.152.09.226.107.48.107.257 0 .327-.016.492-.113.475-.279.646-.898.374-1.359-.054-.092-.465-.53-.912-.971-.693-.685-.843-.814-1.011-.87a1 1 0 0 0-.673-.006m13.57.008c-.144.051-.342.223-.994.867-.447.442-.858.88-.912.972-.272.461-.101 1.08.374 1.359.165.097.235.113.492.113.254 0 .328-.017.48-.107.221-.132 1.723-1.64 1.825-1.833.052-.1.074-.227.074-.44.001-.255-.015-.328-.107-.484a1.01 1.01 0 0 0-1.232-.447M11.4 8.044c-1.639.185-3.139 1.246-3.874 2.741-.34.69-.503 1.357-.505 2.058-.001.446.003.47.12.66a.998.998 0 0 0 1.711.011c.098-.16.12-.25.153-.631a5 5 0 0 1 .128-.754c.269-.93 1.054-1.714 2.006-2.004.273-.083.403-.098.861-.098s.588.015.861.098c.952.29 1.737 1.074 2.006 2.004.049.17.107.509.128.754.033.381.055.471.153.631a.998.998 0 0 0 1.711-.011c.117-.19.121-.214.12-.66-.004-1.767-1.107-3.489-2.766-4.318a5 5 0 0 0-2.813-.481m-9.705 4.013a1.04 1.04 0 0 0-.567.459c-.091.156-.108.23-.108.484 0 .256.016.328.111.489.125.213.318.375.539.454.215.077 2.445.077 2.66 0 .221-.079.414-.241.539-.454.095-.161.111-.233.111-.489 0-.254-.017-.328-.108-.484a1.02 1.02 0 0 0-.582-.461c-.251-.076-2.353-.074-2.595.002m18 0a1.04 1.04 0 0 0-.567.459c-.091.156-.108.23-.108.484 0 .256.016.328.111.489.125.213.318.375.539.454.215.077 2.445.077 2.66 0 .221-.079.414-.241.539-.454.095-.161.111-.233.111-.489 0-.254-.017-.328-.108-.484a1.02 1.02 0 0 0-.582-.461c-.251-.076-2.353-.074-2.595.002m-18 4a1.04 1.04 0 0 0-.567.459c-.091.156-.108.23-.108.484 0 .256.016.328.111.489.125.213.318.375.539.454.223.08 20.437.08 20.66 0 .221-.079.414-.241.539-.454.095-.161.111-.233.111-.489 0-.254-.017-.328-.108-.484a1.02 1.02 0 0 0-.582-.461c-.263-.079-20.342-.077-20.595.002m0 4a1.04 1.04 0 0 0-.567.459c-.091.156-.108.23-.108.484 0 .256.016.328.111.489.125.213.318.375.539.454.223.08 20.437.08 20.66 0 .221-.079.414-.241.539-.454.095-.161.111-.233.111-.489 0-.254-.017-.328-.108-.484a1.02 1.02 0 0 0-.582-.461c-.263-.079-20.342-.077-20.595.002"/></svg>