<svg xmlns="http://www.w3.org/2000/svg" width="24" height="24" fill="none" stroke="currentColor" stroke-linecap="round" stroke-linejoin="round" stroke-width="2"><path fill="#000" fill-rule="evenodd" stroke="none" d="M2.477 7.073c-.671.176-1.239.75-1.417 1.435-.089.339-.089 4.645 0 4.984.093.36.25.626.536.912.439.439.85.596 1.56.596h.419l.943.934c.814.806.969.942 1.139 1 .18.06.724.066 6.343.066s6.163-.006 6.343-.066c.17-.058.325-.194 1.139-1l.943-.934h.419c.71 0 1.121-.157 1.56-.596.146-.145.311-.356.367-.467.225-.443.229-.495.228-2.923 0-2.413-.008-2.518-.218-2.931-.135-.267-.484-.634-.764-.802-.496-.299.318-.276-10.017-.276-8.624 0-9.278.004-9.523.068M21 10.996v1.997l-.63.014c-.52.011-.658.027-.79.09-.096.046-.529.443-1.082.99l-.922.913H6.424l-.922-.913c-.553-.547-.986-.944-1.082-.99-.132-.063-.27-.079-.79-.09L3 12.993V9h18zm-13.76.041c-.447.137-.728.509-.728.963 0 .405.207.724.588.905l.2.094h9.4l.2-.094c.381-.181.588-.5.588-.905 0-.385-.195-.703-.548-.894l-.16-.086-4.72-.007c-2.596-.004-4.765.007-4.82.024"/></svg>