<svg xmlns="http://www.w3.org/2000/svg" width="24" height="24" fill="none" stroke="currentColor" stroke-linecap="round" stroke-linejoin="round" stroke-width="2"><path fill="#000" fill-rule="evenodd" stroke="none" d="M11.08 1.045A10.1 10.1 0 0 0 6.54 2.63a9 9 0 0 0-1.621 1.328 9.88 9.88 0 0 0-2.879 6.164c-.031.337-.041 1.461-.032 3.478l.013 2.98.093.28c.331.989 1.07 1.722 2.046 2.026.282.088.361.094 1.34.094s1.058-.006 1.34-.094a3.09 3.09 0 0 0 2.046-2.046c.093-.298.094-.313.094-2.34s-.001-2.042-.094-2.34a3.08 3.08 0 0 0-2.025-2.036c-.305-.093-.382-.099-1.551-.115-1.167-.015-1.23-.02-1.23-.09 0-.188.181-.98.323-1.417A8.14 8.14 0 0 1 7.62 4.309c1.998-1.316 4.579-1.656 6.878-.906a8.14 8.14 0 0 1 4.193 3.217c.329.499.718 1.309.906 1.882.142.437.323 1.229.323 1.417 0 .07-.063.075-1.23.09-1.169.016-1.246.022-1.551.115a3.08 3.08 0 0 0-2.025 2.036c-.093.298-.094.313-.094 2.34s.001 2.042.094 2.34a3.1 3.1 0 0 0 2.026 2.042c.246.079.388.092 1.163.108q1.201.025 1.513-.094c.156-.06-.207.66-.511 1.015a3.15 3.15 0 0 1-1.445.974l-.28.093-2.92.021c-2.212.016-2.947.033-3.033.071a1.15 1.15 0 0 0-.499.446c-.091.156-.108.23-.108.484 0 .257.016.327.113.492.129.219.369.409.594.47.102.027 1.131.037 3.064.027 2.609-.012 2.94-.021 3.209-.084 1.538-.363 2.756-1.291 3.433-2.617.229-.449.372-.849.474-1.328.068-.317.073-.632.073-4.6 0-3.294-.012-4.342-.052-4.62-.272-1.875-.944-3.47-2.081-4.94-.337-.435-1.208-1.306-1.647-1.646-2.067-1.599-4.554-2.336-7.12-2.109M6.31 12.061c.279.083.546.35.629.629.085.286.09 3.32.006 3.6a1.02 1.02 0 0 1-.461.582c-.183.108-.187.108-.984.108s-.801 0-.984-.108a1.2 1.2 0 0 1-.291-.249C4 16.328 4 16.328 4 14.075V12h1.053c.826 0 1.097.013 1.257.061M20 14.054c0 2.229-.004 2.28-.221 2.564-.061.08-.194.195-.295.254-.183.108-.187.108-.984.108s-.801 0-.984-.108a1.2 1.2 0 0 1-.291-.249c-.22-.288-.225-.335-.225-2.101 0-1.881.006-1.921.304-2.219.278-.279.376-.297 1.626-.3L20 12z"/></svg>