<svg xmlns="http://www.w3.org/2000/svg" width="24" height="24" fill="none" stroke="currentColor" stroke-linecap="round" stroke-linejoin="round" stroke-width="2"><path fill="#000" fill-rule="evenodd" stroke="none" d="M3.695 5.057a1.04 1.04 0 0 0-.567.459L3.02 5.7v12.606l.121.197a.998.998 0 0 0 1.718 0l.121-.197.011-2.653L5.002 13h5.996l.011 2.653.011 2.653.121.197a.998.998 0 0 0 1.718 0l.121-.197V5.7l-.109-.186a1.01 1.01 0 0 0-1.742 0l-.109.186-.011 2.65-.011 2.65H5.002l-.011-2.65L4.98 5.7l-.108-.184a1.005 1.005 0 0 0-1.177-.459m13 4a1.04 1.04 0 0 0-.567.459l-.108.184-.012 1.74c-.01 1.544-.004 1.759.055 1.914.092.241.28.442.517.552.189.088.245.093 1.04.094 1.187.002 1.465.071 1.905.474.479.437.598 1.09.306 1.675-.1.201-.444.535-.669.65-.473.241-1.077.258-1.622.046-.523-.204-.885-.163-1.216.136a.98.98 0 0 0 .018 1.455c.399.351 1.36.596 2.171.553 1.401-.074 2.579-.84 3.149-2.049.252-.535.316-.825.316-1.44s-.064-.905-.316-1.44a3.4 3.4 0 0 0-.769-1.06c-.689-.629-1.439-.934-2.423-.987l-.47-.025V11l1.59-.002c1.71-.002 1.756-.007 2.029-.215.077-.058.189-.191.25-.294.095-.161.111-.233.111-.489 0-.254-.017-.328-.108-.484a1.02 1.02 0 0 0-.582-.461c-.257-.077-4.347-.076-4.595.002"/></svg>