<svg xmlns="http://www.w3.org/2000/svg" width="24" height="24" fill="none" stroke="currentColor" stroke-linecap="round" stroke-linejoin="round" stroke-width="2"><path fill="#000" fill-rule="evenodd" stroke="none" d="M5.695 3.057a1.04 1.04 0 0 0-.567.459L5.02 3.7v16.606l.121.197a.998.998 0 0 0 1.718 0l.121-.197.011-3.653L7.002 13h9.996l.011 3.653.011 3.653.121.197a.998.998 0 0 0 1.718 0l.121-.197V3.7l-.109-.186a1.01 1.01 0 0 0-1.742 0l-.109.186-.011 3.65-.011 3.65H7.002l-.011-3.65L6.98 3.7l-.108-.184a1.005 1.005 0 0 0-1.177-.459"/></svg>