<svg xmlns="http://www.w3.org/2000/svg" width="24" height="24" fill="none" stroke="currentColor" stroke-linecap="round" stroke-linejoin="round" stroke-width="2"><path fill="#000" fill-rule="evenodd" stroke="none" d="M11.08 2.045A10.1 10.1 0 0 0 6.54 3.63a9 9 0 0 0-1.621 1.328 9.88 9.88 0 0 0-2.879 6.164c-.031.344-.041 1.731-.033 4.478l.013 3.98.094.28c.332.991 1.07 1.722 2.046 2.026.282.088.361.094 1.34.094s1.058-.006 1.34-.094a3.09 3.09 0 0 0 2.046-2.046c.093-.298.094-.313.094-2.34s-.001-2.042-.094-2.34a3.08 3.08 0 0 0-2.025-2.036c-.306-.094-.379-.099-1.591-.115L4 12.993v-.646c0-1.548.238-2.67.816-3.847A7.92 7.92 0 0 1 8.5 4.816a8.03 8.03 0 0 1 5.998-.413c3.007.982 5.16 3.687 5.461 6.863.022.239.041.725.041 1.081v.646l-1.27.016c-1.212.016-1.285.021-1.591.115a3.08 3.08 0 0 0-2.025 2.036c-.093.298-.094.313-.094 2.34s.001 2.042.094 2.34a3.09 3.09 0 0 0 2.046 2.046c.282.088.361.094 1.34.094s1.058-.006 1.34-.094a3.09 3.09 0 0 0 2.046-2.046l.094-.3v-4.22c0-3.261-.012-4.302-.052-4.58-.272-1.875-.944-3.47-2.081-4.94-.337-.435-1.208-1.306-1.647-1.646-2.067-1.599-4.554-2.336-7.12-2.109M6.31 15.061c.279.083.546.35.629.629.085.286.09 3.32.006 3.6a1.02 1.02 0 0 1-.461.582c-.183.108-.187.108-.984.108s-.801 0-.984-.108a1.2 1.2 0 0 1-.291-.249C4 19.328 4 19.328 4 17.075V15h1.053c.826 0 1.097.013 1.257.061M20 17.054c0 2.229-.004 2.28-.221 2.564-.061.08-.194.195-.295.254-.183.108-.187.108-.984.108s-.801 0-.984-.108a1.2 1.2 0 0 1-.291-.249c-.22-.288-.225-.335-.225-2.101 0-1.877.006-1.922.301-2.216.284-.285.36-.299 1.609-.303L20 15z"/></svg>