<svg xmlns="http://www.w3.org/2000/svg" width="24" height="24" fill="none" stroke="currentColor" stroke-linecap="round" stroke-linejoin="round" stroke-width="2"><path fill="#000" fill-rule="evenodd" stroke="none" d="M3.695 5.057a1.04 1.04 0 0 0-.567.459L3.02 5.7v12.606l.121.197a.998.998 0 0 0 1.718 0l.121-.197.011-2.653L5.002 13h5.996l.011 2.653.011 2.653.121.197a.998.998 0 0 0 1.718 0l.121-.197V5.7l-.109-.186a1.01 1.01 0 0 0-1.742 0l-.109.186-.011 2.65-.011 2.65H5.002l-.011-2.65L4.98 5.7l-.108-.184a1.005 1.005 0 0 0-1.177-.459m15.969 4.006c-.227.083-.443.275-1.007.896-1.627 1.79-2.262 2.963-2.563 4.741a7 7 0 0 0-.071 1.12c-.003.648.006.75.091 1.02a3.09 3.09 0 0 0 2.046 2.046c.434.135 1.246.135 1.68 0a3.09 3.09 0 0 0 2.046-2.046c.135-.434.135-1.246 0-1.68a3.1 3.1 0 0 0-.975-1.465c-.468-.402-1.071-.639-1.738-.683l-.367-.024.065-.104c.309-.491.928-1.24 1.59-1.924.467-.483.517-.575.518-.96.001-.255-.015-.328-.107-.484a1.01 1.01 0 0 0-1.208-.453m-.33 6.001c.364.124.666.549.666.937 0 .33-.216.695-.516.871-.156.091-.23.108-.484.108s-.328-.017-.484-.108c-.579-.341-.683-1.098-.215-1.566a.96.96 0 0 1 1.033-.242"/></svg>