<svg xmlns="http://www.w3.org/2000/svg" width="24" height="24" fill="none" stroke="currentColor" stroke-linecap="round" stroke-linejoin="round" stroke-width="2"><path fill="#000" fill-rule="evenodd" stroke="none" d="M3.695 5.057a1.04 1.04 0 0 0-.567.459L3.02 5.7v12.606l.121.197a.998.998 0 0 0 1.718 0l.121-.197.011-2.653L5.002 13h5.996l.011 2.653.011 2.653.121.197a.998.998 0 0 0 1.718 0l.121-.197V5.7l-.109-.186a1.01 1.01 0 0 0-1.742 0l-.109.186-.011 2.65-.011 2.65H5.002l-.011-2.65L4.98 5.7l-.108-.184a1.005 1.005 0 0 0-1.177-.459m15.979 4.002c-.08.03-.876.542-1.77 1.139-1.238.826-1.647 1.12-1.72 1.233-.371.577-.139 1.285.494 1.508.417.147.581.09 1.522-.538l.78-.521.02 3.213.02 3.213.121.197a.998.998 0 0 0 1.718 0l.121-.197.011-4.22c.012-4.755.029-4.468-.289-4.786a1 1 0 0 0-1.028-.241"/></svg>