<svg xmlns="http://www.w3.org/2000/svg" width="24" height="24" fill="none" stroke="currentColor" stroke-linecap="round" stroke-linejoin="round" stroke-width="2"><path fill="#000" fill-rule="evenodd" stroke="none" d="M3.695 5.057a1.04 1.04 0 0 0-.567.459L3.02 5.7v12.606l.121.197a.998.998 0 0 0 1.718 0l.121-.197.011-2.653L5.002 13h5.996l.011 2.653.011 2.653.121.197a.998.998 0 0 0 1.718 0l.121-.197V5.7l-.109-.186a1.01 1.01 0 0 0-1.742 0l-.109.186-.011 2.65-.011 2.65H5.002l-.011-2.65L4.98 5.7l-.108-.184a1.005 1.005 0 0 0-1.177-.459M18.34 9.321c-.791.142-1.936.75-2.191 1.163-.444.72.175 1.626 1.023 1.499.11-.016.317-.116.578-.279.546-.34.861-.439 1.32-.416.411.021.625.112.798.339.101.133.112.178.109.45-.006.625-.198.851-1.383 1.627-1.087.711-1.458 1.037-1.862 1.636-.466.689-.705 1.514-.71 2.44-.002.498.003.528.109.709.125.213.318.375.539.454.219.078 4.441.078 4.66 0 .221-.079.414-.241.539-.454.095-.161.111-.233.111-.489 0-.254-.017-.328-.108-.484a1.2 1.2 0 0 0-.254-.295c-.274-.209-.383-.221-1.984-.221-1.206 0-1.474-.01-1.474-.054 0-.029.057-.168.127-.307.174-.348.537-.699 1.103-1.065 1.135-.734 1.279-.84 1.65-1.213.302-.304.418-.455.567-.742.281-.538.37-.92.37-1.579 0-.48-.012-.575-.108-.86-.272-.81-.954-1.46-1.849-1.764-.28-.095-.392-.11-.9-.12a6 6 0 0 0-.78.025"/></svg>