<svg xmlns="http://www.w3.org/2000/svg" width="24" height="24" fill="none" stroke="currentColor" stroke-linecap="round" stroke-linejoin="round" stroke-width="2"><path fill="#000" fill-rule="evenodd" stroke="none" d="M3.695 5.057a1.04 1.04 0 0 0-.567.459L3.02 5.7v12.606l.121.197a.998.998 0 0 0 1.718 0l.121-.197.011-2.653L5.002 13h5.996l.011 2.653.011 2.653.121.197a.998.998 0 0 0 1.718 0l.121-.197V5.7l-.109-.186a1.01 1.01 0 0 0-1.742 0l-.109.186-.011 2.65-.011 2.65H5.002l-.011-2.65L4.98 5.7l-.108-.184a1.005 1.005 0 0 0-1.177-.459m13 4a1.04 1.04 0 0 0-.567.459l-.108.184-.012 1.756c-.012 1.894-.003 2.004.194 2.421.146.309.569.746.868.898.402.204.573.225 1.797.225h1.13l.011 1.653.012 1.653.121.197a.998.998 0 0 0 1.718 0l.121-.197V9.7l-.109-.186a1.01 1.01 0 0 0-1.742 0l-.109.186-.012 1.65-.011 1.65h-1.994l-.011-1.65-.012-1.65-.108-.184a1.005 1.005 0 0 0-1.177-.459"/></svg>