<svg xmlns="http://www.w3.org/2000/svg" width="24" height="24" fill="none" stroke="currentColor" stroke-linecap="round" stroke-linejoin="round" stroke-width="2"><path fill="#000" fill-rule="evenodd" stroke="none" d="M3.695 5.057a1.04 1.04 0 0 0-.567.459L3.02 5.7v12.606l.121.197a.998.998 0 0 0 1.718 0l.121-.197.011-2.653L5.002 13h5.996l.011 2.653.011 2.653.121.197a.998.998 0 0 0 1.718 0l.121-.197V5.7l-.109-.186a1.01 1.01 0 0 0-1.742 0l-.109.186-.011 2.65-.011 2.65H5.002l-.011-2.65L4.98 5.7l-.108-.184a1.005 1.005 0 0 0-1.177-.459M18.25 9.162c-.438.078-1.085.349-1.405.588-.187.14-.338.485-.338.768 0 .538.467.987 1.013.974.169-.004.304-.045.58-.176.311-.147.405-.173.691-.188.379-.021.597.028.828.186.314.214.434.538.342.921-.106.445-.437.71-.949.762-.484.048-.758.227-.929.603a1.04 1.04 0 0 0 .189 1.095c.153.163.472.304.691.305.795.001 1.272.824.9 1.553a1.09 1.09 0 0 1-1.017.615c-.365 0-.701-.117-1.139-.394-.338-.215-.388-.234-.639-.248-.364-.02-.574.062-.801.315-.206.229-.288.473-.255.757.057.476.383.796 1.21 1.188 1.352.641 2.777.473 3.773-.445 1.144-1.052 1.332-2.963.407-4.133L21.238 14l.164-.208c.732-.925.79-2.331.139-3.311-.253-.38-.708-.794-1.089-.992-.525-.271-.793-.337-1.432-.352a6 6 0 0 0-.77.025"/></svg>