<svg xmlns="http://www.w3.org/2000/svg" width="24" height="24" fill="none" stroke="currentColor" stroke-linecap="round" stroke-linejoin="round" stroke-width="2"><path fill="#000" fill-rule="evenodd" stroke="none" d="M6.842 2.041A6.51 6.51 0 0 0 1.261 6.7c-.192.662-.239 1.022-.237 1.82.001.611.017.813.091 1.16.283 1.328.827 2.378 1.905 3.68.44.532 8.276 8.38 8.5 8.513.152.091.226.107.48.107s.328-.016.48-.107c.214-.127 7.912-7.832 8.386-8.393 1.163-1.376 1.725-2.437 2.02-3.809.116-.537.128-1.694.024-2.251-.454-2.436-2.09-4.326-4.41-5.095-1.002-.332-2.197-.404-3.376-.202-1.017.174-1.957.606-2.874 1.323l-.25.195-.25-.195c-.923-.722-1.855-1.149-2.894-1.327-.547-.093-1.513-.131-2.014-.078m1.284 2.001c1.136.116 1.935.512 2.961 1.469.455.424.539.467.913.467s.458-.043.913-.467c.592-.552 1.193-.967 1.702-1.174.897-.366 2.178-.429 3.131-.155a4.56 4.56 0 0 1 2.794 2.355c.651 1.344.591 2.848-.168 4.213l-.139.251-2.039-.011-2.039-.01-.61-1.42a75 75 0 0 0-.676-1.544 1.16 1.16 0 0 0-.495-.436c-.184-.077-.564-.077-.748 0a1.12 1.12 0 0 0-.503.456c-.04.079-.347 1.107-.682 2.284s-.623 2.154-.639 2.171c-.015.017-.234-.433-.485-1-.519-1.17-.62-1.315-1.001-1.428-.264-.079-.414-.079-.641-.002-.275.094-.447.262-.632.618l-.167.322-2.568-.011-2.568-.01-.228-.46c-.416-.837-.567-1.614-.479-2.46a4.494 4.494 0 0 1 4.413-4.055c.146-.003.452.014.68.037m6.312 8.022c.216.506.355.689.642.842.128.068.282.076 1.81.094l1.67.02-3.28 3.28L12 19.58l-3.29-3.29L5.42 13l2.1-.001c1.155 0 2.136-.009 2.18-.02.071-.018.129.091.498.93.996 2.269 1.034 2.336 1.402 2.502.214.097.556.105.764.018.193-.08.425-.291.513-.465.04-.079.349-1.111.686-2.294.337-1.182.626-2.136.641-2.12s.12.248.234.514"/></svg>