<svg xmlns="http://www.w3.org/2000/svg" width="24" height="24" fill="none" stroke="currentColor" stroke-linecap="round" stroke-linejoin="round" stroke-width="2"><path fill="#000" fill-rule="evenodd" stroke="none" d="M6.842 2.041A6.51 6.51 0 0 0 1.261 6.7c-.192.662-.239 1.022-.237 1.82.001.611.017.813.091 1.16.283 1.325.829 2.379 1.906 3.681.439.53 8.276 8.379 8.499 8.512.152.091.226.107.48.107s.328-.016.48-.107c.214-.127 7.912-7.831 8.386-8.393 1.16-1.372 1.726-2.44 2.02-3.809.116-.537.128-1.694.024-2.251-.454-2.436-2.09-4.326-4.41-5.095-1.002-.332-2.197-.404-3.376-.202-1.017.174-1.957.606-2.874 1.323l-.25.195-.25-.195c-.923-.722-1.855-1.149-2.894-1.327-.547-.093-1.513-.131-2.014-.078m1.284 2.001c1.136.116 1.935.512 2.961 1.469.455.424.539.467.913.467s.458-.043.913-.467c.592-.552 1.193-.967 1.702-1.174.642-.262 1.569-.383 2.328-.304a4.474 4.474 0 0 1 4.02 3.995c.144 1.332-.291 2.523-1.435 3.932-.198.243-1.852 1.934-3.934 4.02l-3.593 3.6-3.522-3.52c-1.937-1.936-3.675-3.7-3.862-3.92-.732-.862-1.223-1.695-1.437-2.44-.593-2.062.413-4.3 2.357-5.241.801-.388 1.603-.517 2.589-.417"/></svg>