<svg xmlns="http://www.w3.org/2000/svg" width="24" height="24" fill="none" stroke="currentColor" stroke-linecap="round" stroke-linejoin="round" stroke-width="2"><path fill="#000" fill-rule="evenodd" stroke="none" d="M1.67 1.061c-.222.081-.42.248-.542.455-.092.156-.108.229-.107.484 0 .213.022.34.074.44.041.077.417.485.836.908l.762.767-.222.273A6.8 6.8 0 0 0 1.095 7.38c-.112.596-.102 1.729.02 2.3.282 1.323.828 2.379 1.906 3.681.439.53 8.276 8.379 8.499 8.512.152.091.226.107.48.107s.327-.016.48-.107c.099-.06 1.044-.973 2.1-2.03l1.919-1.923 2.461 2.456c1.353 1.351 2.523 2.489 2.6 2.529.099.052.228.074.44.074.258.001.327-.015.492-.112.476-.28.647-.9.373-1.359-.055-.092-4.65-4.715-10.212-10.273C3.3 1.889 2.525 1.125 2.343 1.065a1 1 0 0 0-.673-.004m14.001.983c-1.27.123-2.352.566-3.421 1.402l-.25.195-.23-.188c-1.081-.881-2.789-1.527-3.384-1.278-.498.208-.753.814-.546 1.296.124.288.374.509.667.588 1.147.312 1.681.611 2.561 1.434.473.443.555.485.932.485.374 0 .458-.043.913-.467 1.059-.988 1.841-1.364 3.069-1.477 1.68-.155 3.155.494 4.146 1.823.481.643.763 1.404.841 2.263.137 1.517-.47 2.837-2.124 4.616-.326.35-.417.476-.465.637-.076.254-.075.322.004.59a.9.9 0 0 0 .251.403.97.97 0 0 0 1.259.125c.187-.13.858-.86 1.315-1.431 1.642-2.052 2.157-4.192 1.53-6.361a6.5 6.5 0 0 0-3.519-4.09c-1.108-.507-2.257-.689-3.549-.565M9.61 11.03l5.47 5.47-1.54 1.54L12 19.58l-3.522-3.52c-1.936-1.936-3.674-3.7-3.861-3.92-.73-.859-1.223-1.696-1.435-2.433a4.4 4.4 0 0 1 .317-3.233c.168-.333.559-.914.614-.914.015 0 2.489 2.462 5.497 5.47"/></svg>