<svg xmlns="http://www.w3.org/2000/svg" width="24" height="24" fill="none" stroke="currentColor" stroke-linecap="round" stroke-linejoin="round" stroke-width="2"><path fill="#000" fill-rule="evenodd" stroke="none" d="M6.842 2.041A6.51 6.51 0 0 0 1.261 6.7c-.192.662-.239 1.022-.237 1.82.001.611.017.813.091 1.16.283 1.325.829 2.379 1.906 3.681.439.53 8.276 8.379 8.499 8.512.152.091.226.107.48.107s.328-.016.48-.107c.214-.127 7.912-7.831 8.386-8.393 1.16-1.372 1.726-2.44 2.02-3.809.116-.537.128-1.694.024-2.251-.454-2.436-2.09-4.326-4.41-5.095-1.002-.332-2.197-.404-3.376-.202-1.017.174-1.957.606-2.874 1.323l-.25.195-.25-.195c-.923-.722-1.855-1.149-2.894-1.327-.547-.093-1.513-.131-2.014-.078m1.284 2.001q1.01.103 1.72.521c.279.164.674.442.674.473 0 .014-.289.313-.643.664-.787.784-.857.891-.856 1.3 0 .213.022.341.074.44.041.077.616.684 1.278 1.35l1.205 1.209-.704.711c-.388.39-.738.773-.778.85-.053.1-.075.227-.075.44-.001.254.015.327.106.48.13.22 1.241 1.324 1.428 1.418.452.23 1.046.046 1.312-.406.097-.165.113-.234.112-.492-.001-.354-.055-.476-.351-.789l-.202-.214.702-.708c.386-.39.736-.772.776-.849.103-.194.103-.686.001-.88-.041-.077-.616-.685-1.279-1.352L11.42 6.997l.9-.892c1.585-1.572 2.237-1.94 3.662-2.071 1.68-.155 3.155.494 4.146 1.823a4.46 4.46 0 0 1 .772 3.505c-.178.846-.604 1.653-1.372 2.598-.198.243-1.852 1.934-3.934 4.02l-3.593 3.6-3.522-3.52c-1.937-1.936-3.675-3.7-3.862-3.92-.732-.862-1.223-1.695-1.437-2.44-.593-2.062.413-4.3 2.357-5.241.801-.388 1.603-.517 2.589-.417"/></svg>