<svg xmlns="http://www.w3.org/2000/svg" width="24" height="24" fill="none" stroke="currentColor" stroke-linecap="round" stroke-linejoin="round" stroke-width="2"><path fill="#000" fill-rule="evenodd" stroke="none" d="M6.842 2.041A6.51 6.51 0 0 0 1.261 6.7c-.192.662-.239 1.022-.237 1.82.001.611.017.813.091 1.16.283 1.325.829 2.379 1.906 3.681.439.53 8.276 8.379 8.499 8.512.152.091.226.107.48.107s.328-.016.48-.107c.214-.127 7.912-7.831 8.386-8.393 1.16-1.372 1.726-2.44 2.02-3.809.116-.537.128-1.694.024-2.251-.454-2.436-2.09-4.326-4.41-5.095-1.002-.332-2.197-.404-3.376-.202-1.017.174-1.957.606-2.874 1.323l-.25.195-.25-.195c-.923-.722-1.855-1.149-2.894-1.327-.547-.093-1.513-.131-2.014-.078m1.284 2.001q1.01.103 1.72.521c.271.16.674.441.674.471 0 .013-.547.573-1.216 1.245-.769.773-1.274 1.313-1.376 1.472a3.17 3.17 0 0 0-.515 1.907c.029.498.103.78.326 1.242a3.15 3.15 0 0 0 2.002 1.666c.258.074.418.091.839.091.593 0 .945-.078 1.414-.314.365-.184.55-.335 1.666-1.361 1.15-1.058 1.299-1.183 1.567-1.317.574-.287 1.351-.211 1.864.182.24.184 2.389 2.122 2.389 2.154 0 .041-.75.858-1.134 1.237l-.344.338-.731-.721c-.616-.608-.762-.732-.928-.788a1 1 0 0 0-1.215.449c-.092.156-.108.229-.107.484 0 .213.022.34.075.44.04.077.391.46.778.851l.704.71-.787.788-.788.788-.731-.722c-.617-.608-.763-.732-.929-.788a1 1 0 0 0-1.215.449c-.092.156-.108.229-.107.484 0 .213.022.34.075.44.04.077.391.46.778.851l.704.71-.789.79-.789.789-3.522-3.52c-1.936-1.936-3.674-3.7-3.861-3.92-.732-.862-1.223-1.695-1.437-2.44-.593-2.062.413-4.3 2.357-5.241.801-.388 1.603-.517 2.589-.417m8.934.002a4.52 4.52 0 0 1 3.758 3.212c.145.504.208 1.201.149 1.673-.052.421-.167.891-.287 1.172l-.083.192-.108-.102a193 193 0 0 0-2.029-1.812 3.8 3.8 0 0 0-4.72-.145c-.132.099-.731.632-1.33 1.183-1.255 1.154-1.387 1.244-1.827 1.242-.476-.003-.836-.221-1.055-.639-.087-.167-.104-.253-.104-.52 0-.268.017-.353.105-.52.076-.146.589-.683 1.898-1.985 1.755-1.747 2.13-2.082 2.706-2.419.784-.46 1.883-.66 2.927-.532"/></svg>