<svg xmlns="http://www.w3.org/2000/svg" width="24" height="24" fill="none" stroke="currentColor" stroke-linecap="round" stroke-linejoin="round" stroke-width="2"><path fill="#000" fill-rule="evenodd" stroke="none" d="M10.664 1.063c-.254.093-.409.239-.622.585-.394.64-.602 1.292-.606 1.893-.003.662.152 1.1.701 1.973.369.586.423.707.423.94 0 .234-.082.455-.324.876-.15.26-.208.406-.224.566a1 1 0 0 0 .499.973c.158.093.235.111.47.111.505 0 .763-.203 1.13-.892.284-.533.419-.999.44-1.519.031-.74-.107-1.158-.688-2.083-.404-.643-.437-.726-.412-1.033.015-.194.057-.316.191-.561.299-.543.33-.616.349-.812.067-.701-.663-1.261-1.327-1.017m4.576-.028c-.392.128-.655.433-.977 1.13-.239.517-.321.873-.322 1.395-.001.703.122 1.042.728 2.005.175.278.341.589.37.692.07.25.01.513-.2.883-.283.499-.332.625-.329.86a.93.93 0 0 0 .332.735.92.92 0 0 0 .756.253c.469-.056.775-.366 1.139-1.153.236-.51.319-.872.321-1.395.003-.702-.12-1.04-.727-2.005-.175-.278-.341-.589-.37-.692-.07-.25-.01-.513.2-.883.281-.494.327-.615.327-.857a.97.97 0 0 0-.545-.891c-.172-.088-.544-.129-.703-.077M3.499 5.043C2.383 5.23 1.461 6.048 1.114 7.16l-.094.3v11.08l.094.3c.369 1.182 1.397 2.036 2.581 2.143l.298.027.014.648c.013.642.014.651.134.845.068.11.205.253.311.325.471.316 1.102.171 1.407-.325.12-.195.121-.203.134-.85L6.007 21h11.986l.014.653c.013.647.014.655.134.85a.998.998 0 0 0 1.718 0c.12-.194.121-.203.134-.845l.014-.648.298-.027c1.184-.107 2.212-.961 2.581-2.143l.094-.3V7.46l-.094-.3a3.12 3.12 0 0 0-1.445-1.792c-.494-.277-1.262-.429-1.673-.33a.993.993 0 0 0-.57 1.553c.171.236.41.362.774.408.392.05.544.115.745.322.3.31.283-.035.283 5.68 0 4.211-.01 5.138-.055 5.289a1.02 1.02 0 0 1-.461.582l-.184.108H3.7l-.184-.108a1.2 1.2 0 0 1-.291-.249C2.988 18.312 3 18.608 3 13.022c0-5.782-.02-5.395.303-5.719.298-.297.337-.303 2.234-.305 1.768-.002 1.808-.006 2.082-.215.077-.058.189-.191.25-.294.095-.161.111-.233.111-.489 0-.254-.017-.328-.108-.484a1.2 1.2 0 0 0-.254-.295c-.28-.213-.362-.221-2.214-.216-.937.002-1.795.02-1.905.038m2.196 4.012a1.05 1.05 0 0 0-.567.461c-.091.156-.108.23-.108.484 0 .257.016.327.113.492.518.882 1.865.526 1.865-.492a.99.99 0 0 0-.535-.888 1.17 1.17 0 0 0-.768-.057m4 2.002a1.04 1.04 0 0 0-.567.459l-.108.184v4.606l.121.197a.998.998 0 0 0 1.718 0l.121-.197V11.7l-.108-.184a1.005 1.005 0 0 0-1.177-.459m4 0a1.04 1.04 0 0 0-.567.459l-.108.184v4.606l.121.197c.068.11.205.253.311.325.471.316 1.102.171 1.407-.325l.121-.197V11.7l-.108-.184a1.005 1.005 0 0 0-1.177-.459m4 0a1.04 1.04 0 0 0-.567.459l-.108.184v4.606l.121.197c.068.11.205.253.311.325.471.316 1.102.171 1.407-.325l.121-.197V11.7l-.108-.184a1.005 1.005 0 0 0-1.177-.459m-12 1.998a1.05 1.05 0 0 0-.567.461c-.091.156-.108.23-.108.484 0 .257.016.327.113.492.518.882 1.865.526 1.865-.492a.99.99 0 0 0-.535-.888 1.17 1.17 0 0 0-.768-.057"/></svg>