<svg xmlns="http://www.w3.org/2000/svg" width="24" height="24" fill="none" stroke="currentColor" stroke-linecap="round" stroke-linejoin="round" stroke-width="2"><path fill="#000" fill-rule="evenodd" stroke="none" d="M13.64 3.068c-.154.053-.521.402-2.573 2.447C9.751 6.827 8.588 8.008 8.483 8.14a2.7 2.7 0 0 0-.51.92c-.105.3-.112.362-.114.99l-.002.671-2.864 2.869c-2.663 2.669-2.868 2.884-2.93 3.075-.058.181-.065.41-.055 1.92L2.02 20.3l.111.189c.125.213.318.375.539.454.122.043 1.022.054 4.813.055 4.225.002 4.681-.004 4.86-.064.174-.058.355-.223 1.577-1.437l1.38-1.371.482.022c.75.036 1.303-.099 1.84-.448.302-.196 5.099-4.964 5.251-5.22.091-.152.107-.226.107-.48s-.017-.328-.108-.484a1.02 1.02 0 0 0-.582-.461c-.236-.071-.347-.069-.613.009-.209.061-.304.15-2.697 2.536-2.691 2.683-2.548 2.56-3 2.559-.403-.001-.37.027-3.254-2.851C9.797 10.386 9.84 10.435 9.841 10c.001-.423-.028-.389 2.577-3 1.327-1.331 2.447-2.483 2.487-2.56.052-.099.074-.228.074-.44.001-.255-.015-.328-.107-.484a1.016 1.016 0 0 0-1.232-.448M11.3 14.72 13.58 17l-1 1-.999 1H4v-1.58l2.49-2.49A224 224 0 0 1 9 12.44c.011 0 1.046 1.026 2.3 2.28"/></svg>