<svg xmlns="http://www.w3.org/2000/svg" width="24" height="24" fill="none" stroke="currentColor" stroke-linecap="round" stroke-linejoin="round" stroke-width="2"><path fill="#000" fill-rule="evenodd" stroke="none" d="M1.67 1.061c-.222.081-.42.248-.542.455-.092.156-.108.229-.107.484 0 .213.022.341.074.44.041.077.605.674 1.254 1.326.849.853 1.171 1.201 1.147 1.24-.018.03-.17.237-.338.46C2.116 6.85 1.397 8.59 1.112 10.42c-.127.815-.126 2.35.002 3.174.302 1.946 1.07 3.723 2.254 5.214.3.379.609.616.961.738.296.103.778.093 1.08-.023.128-.049.252-.075.28-.057s.222.167.431.334c1.202.958 2.665 1.903 3.48 2.247.552.233 1.261.189 1.695-.106a.7.7 0 0 1 .19-.101c.023 0 .288.097.588.215 1.052.414 2.044.71 2.846.847.647.111 1.172-.024 1.606-.414l.201-.181.507.125c1.231.302 2.96.528 4.075.532.237.001.559.004.713.008.242.005.308-.01.472-.106.475-.278.645-.899.372-1.358-.055-.092-4.65-4.715-10.212-10.273C3.3 1.889 2.525 1.125 2.343 1.065a1 1 0 0 0-.673-.004m9.43-.037c-.816.084-1.418.196-2.122.396-1.046.296-1.349.463-1.524.84a.985.985 0 0 0 .535 1.34c.303.113.454.101.973-.078.977-.338 1.713-.476 2.718-.509a9.2 9.2 0 0 1 2.205.188c.957.195 2.147.688 2.995 1.242.443.289.467.254-.305.439-1.029.247-2.577.471-3.957.572-.837.062-.963.099-1.206.352a.94.94 0 0 0-.26.677c0 .422.256.782.667.939.18.068.243.07.957.024 1.461-.095 3.237-.361 4.471-.669.213-.053.397-.097.408-.097.033 0 .541.617.873 1.06.671.893 1.584 2.375 1.498 2.429-.138.088-1.602.01-2.546-.135-1.056-.163-1.252-.149-1.556.111-.318.273-.443.716-.304 1.081.081.212.298.47.471.559.343.178 2.282.415 3.394.415h.469l.239.61c.289.734.529 1.478.649 2.014l.089.396-.133.211a.98.98 0 0 0 .108 1.208c.2.222.432.321.753.321.566 0 1.145-.627 1.268-1.372.035-.208.03-.337-.023-.654-.133-.796-.43-1.797-.849-2.861a7 7 0 0 1-.215-.588c0-.023.045-.108.101-.19.177-.261.271-.652.252-1.052-.015-.311-.036-.39-.183-.697-.491-1.023-1.524-2.599-2.474-3.774l-.103-.128.089-.232c.068-.175.09-.315.09-.572 0-.619-.242-1.04-.88-1.529-1.602-1.227-3.277-1.928-5.292-2.214-.402-.057-2.005-.107-2.34-.073M9.575 11.153c-.322.028-1.511-.211-2.35-.473-.63-.197-.873-.208-1.181-.055a.98.98 0 0 0-.52.69c-.024.12-.044.409-.044.642-.001 1.076-.298 3.369-.598 4.618-.184.768-.154.742-.412.345-1.958-3.01-1.943-6.923.039-9.895.164-.245.336-.486.383-.536l.085-.092 2.372 2.372 2.372 2.371zM8.08 12.961c.319.065.62.118.669.119.115 0 .153.078.422.86.464 1.354.773 2.703.931 4.061.068.581.102 2.008.05 2.06-.103.104-2.505-1.526-3.284-2.228l-.193-.173.14-.58c.252-1.043.448-2.254.572-3.53.038-.39.079-.71.091-.709s.283.054.602.12m4.96 1.499c.942.943 1.354 1.38 1.3 1.38-.326-.001-1.965-.296-2.498-.451l-.174-.05-.172-.632a25 25 0 0 0-.317-1.071c-.081-.243-.141-.447-.133-.454.011-.011.368-.071.574-.097.022-.003.661.616 1.42 1.375m-.12 3.203c.297.051.841.126 1.209.164l.668.071.044.201c.137.631.246 1.5.267 2.129.023.66.02.687-.052.67-.875-.197-1.69-.466-2.806-.926-.036-.015-.05-.152-.051-.486a20 20 0 0 0-.104-1.742l-.027-.235.156.03zm6.422 3.128c-.03.03-1.063-.164-1.622-.305l-.58-.146-.029-.44c-.028-.435-.134-1.325-.177-1.48-.012-.044.528.468 1.201 1.138.672.67 1.215 1.225 1.207 1.233"/></svg>