<svg xmlns="http://www.w3.org/2000/svg" width="24" height="24" fill="none" stroke="currentColor" stroke-linecap="round" stroke-linejoin="round" stroke-width="2"><path fill="#000" fill-rule="evenodd" stroke="none" d="M2.648 1.067c-.202.072-.532.385-.652.62a1.77 1.77 0 0 0 .006 1.637c.052.102.394.484.82.916l.731.74-.12.14c-.393.462-.897 1.248-1.246 1.945A11 11 0 0 0 1.04 11.16c-.201 2.333.442 4.849 1.748 6.84.645.983 1.029 1.368 1.541 1.546.298.104.778.093 1.083-.024l.232-.089.128.103c1.175.95 2.751 1.983 3.774 2.474.307.147.386.168.697.183.4.019.791-.075 1.052-.252a.7.7 0 0 1 .186-.101c.021 0 .222.074.448.164.882.351 2.192.737 3.043.896.279.052.406.057.614.025.336-.052.719-.233.953-.448l.185-.171.508.125c1.407.345 3.652.612 4.192.498a1.93 1.93 0 0 0 1.462-1.341c.077-.253.083-.339.06-.845a18.5 18.5 0 0 0-.504-3.411l-.15-.608.119-.112c.259-.243.465-.663.529-1.078.066-.43-.425-2.321-.936-3.605a5 5 0 0 1-.164-.448c0-.021.045-.104.101-.186.177-.261.271-.652.252-1.052-.015-.311-.036-.39-.183-.697-.491-1.023-1.524-2.599-2.474-3.774l-.103-.128.089-.232c.116-.301.126-.781.023-1.083-.168-.491-.474-.809-1.367-1.418C16.338 1.656 14.296 1.034 12 1.03c-1.818-.003-3.39.373-5.014 1.198-.522.266-1.468.872-1.819 1.166l-.193.161-.543-.547-.543-.548.059-.16c.083-.225.048-.574-.081-.794a1.02 1.02 0 0 0-1.218-.439M12.58 3.04c1.162.079 2.123.317 3.145.778.458.207 1.191.62 1.414.798l.114.091-.316.088c-1.216.335-3.192.608-5.183.716-.553.031-.596.039-.779.152a1 1 0 0 0-.456.646c-.049.23-.043.256.281 1.311.317 1.029.43 1.845.385 2.78-.038.797-.015.748-.379.783-.936.088-2.35-.114-3.639-.52-.568-.179-.822-.187-1.123-.038a.98.98 0 0 0-.52.69c-.024.12-.044.409-.044.642-.001 1.076-.298 3.369-.598 4.618-.184.768-.154.742-.412.345a9.1 9.1 0 0 1-1.412-4.02c-.04-.39-.025-1.615.024-2a9 9 0 0 1 .859-2.853c.493-.993.934-1.608 1.716-2.39.781-.781 1.397-1.223 2.385-1.713 1.182-.587 2.361-.876 3.818-.936.088-.004.412.01.72.032m5.372 3.97c.152.181.411.51.576.73.602.801 1.572 2.355 1.522 2.436-.031.051-1.53 0-2.118-.072a20.3 20.3 0 0 1-3.952-.917c-.883-.3-.846-.279-.877-.519-.026-.2-.21-1.067-.247-1.164-.013-.034.183-.067.675-.115 1.284-.124 2.931-.398 3.769-.626.154-.042.302-.077.328-.079s.172.145.324.326m-4.31 4.171c.23.077.652.204.938.282.859.234.752.155.874.648.202.819.393 2.096.446 2.969.012.209.032.494.045.634l.022.254-.413-.025c-1.359-.082-2.85-.304-3.712-.554l-.174-.05-.172-.632a25 25 0 0 0-.317-1.071c-.081-.243-.141-.446-.133-.452s.185-.038.394-.071c.473-.076.771-.214 1.082-.501.368-.341.513-.677.623-1.442.01-.072.032-.13.049-.13s.218.063.448.141m4.818.979c.264.021.707.039.985.039l.505.001.082.19c.35.817.892 2.626.822 2.74-.026.041-.565.018-1.274-.054-.377-.039-1.489-.214-1.62-.256-.047-.015-.077-.171-.132-.68a27 27 0 0 0-.293-1.936l-.027-.136.236.026c.13.015.452.044.716.066m-10.38.801c.319.065.62.118.669.119.114 0 .153.077.409.82.463 1.343.789 2.75.939 4.06.074.653.114 1.689.075 1.93l-.032.191-.4-.234a21 21 0 0 1-2.937-2.057l-.13-.11.141-.59c.255-1.069.449-2.268.573-3.54.038-.39.079-.71.091-.709s.283.054.602.12m10.68 4.021c.363.054.863.11 1.11.124l.451.026.06.203c.104.352.332 1.427.4 1.885.069.468.187 1.706.164 1.728-.023.024-.99-.067-1.605-.151a16 16 0 0 1-1.86-.367l-.34-.09-.027-.42a15 15 0 0 0-.198-1.619c-.054-.326-.066-.484-.037-.494.023-.007.147-.091.275-.185.237-.175.454-.415.591-.655.069-.122.088-.132.216-.109.077.014.437.069.8.124m-5.84.681c.297.051.841.126 1.209.164l.668.071.044.201c.134.616.246 1.503.267 2.111.013.368.014.67.001.67a8 8 0 0 1-.376-.083 16 16 0 0 1-2.243-.725l-.29-.119-.001-.467a20 20 0 0 0-.104-1.742l-.027-.235.156.03z"/></svg>