<svg xmlns="http://www.w3.org/2000/svg" width="24" height="24" fill="none" stroke="currentColor" stroke-linecap="round" stroke-linejoin="round" stroke-width="2"><path fill="#000" fill-rule="evenodd" stroke="none" d="M7.499 1.043c-1.11.189-2.015.985-2.384 2.097-.092.278-.093.298-.106 2.565l-.013 2.286-.768.019c-.661.017-.812.033-1.089.116a3.07 3.07 0 0 0-2.025 2.034l-.094.3v10.08l.094.3a3.09 3.09 0 0 0 2.046 2.046l.3.094h17.08l.3-.094a3.09 3.09 0 0 0 2.046-2.046l.094-.3v-7.08l-.094-.3a3.07 3.07 0 0 0-2.025-2.034c-.277-.083-.428-.099-1.09-.116l-.768-.019-.012-3.786-.011-3.785-.094-.28c-.329-.982-1.065-1.716-2.025-2.019l-.321-.101-4.42-.006c-2.431-.003-4.511.01-4.621.029m8.811 2.018c.279.083.546.35.629.629.054.18.061 1.217.061 8.757V21H7v-8.573c0-9.632-.028-8.792.307-9.128.31-.31.045-.293 4.676-.296 3.58-.003 4.149.005 4.327.058m-4.615 1.996a1.04 1.04 0 0 0-.567.459c-.103.176-.109.212-.121.834l-.014.65h-.55c-.795 0-1.077.111-1.315.516-.091.156-.108.23-.108.484 0 .256.016.328.111.489.125.213.318.375.539.454.098.035.352.054.737.055l.586.002.014.653c.013.647.014.655.134.85.068.11.205.253.311.325.471.316 1.102.171 1.407-.325.12-.195.121-.203.134-.85L13.007 9l.586-.002c.385-.001.639-.02.737-.055.221-.079.414-.241.539-.454.095-.161.111-.233.111-.489 0-.254-.017-.328-.108-.484-.238-.405-.52-.516-1.315-.516h-.55l-.014-.65c-.012-.622-.018-.658-.121-.834a1.005 1.005 0 0 0-1.177-.459M5 15.503v5.504l-.65-.014c-.622-.012-.658-.018-.834-.121a1.2 1.2 0 0 1-.291-.249C2.989 20.314 3 20.562 3 15.522c0-5.224-.019-4.897.304-5.219.25-.251.423-.297 1.126-.3L5 10zm4.695-2.446a1.04 1.04 0 0 0-.567.459c-.091.156-.108.23-.108.484 0 .256.016.328.111.489.125.213.318.375.539.454.219.078 4.441.078 4.66 0 .221-.079.414-.241.539-.454.095-.161.111-.233.111-.489 0-.254-.017-.328-.108-.484a1.02 1.02 0 0 0-.582-.461c-.257-.077-4.347-.076-4.595.002m10.615.004c.279.083.546.35.629.629.086.29.092 6.314.006 6.6a1.02 1.02 0 0 1-.461.582c-.176.103-.212.109-.834.121l-.65.014V13h.553c.378 0 .617.019.757.061M9.695 17.057a1.04 1.04 0 0 0-.567.459c-.091.156-.108.23-.108.484 0 .256.016.328.111.489.125.213.318.375.539.454.219.078 4.441.078 4.66 0 .221-.079.414-.241.539-.454.095-.161.111-.233.111-.489 0-.254-.017-.328-.108-.484a1.02 1.02 0 0 0-.582-.461c-.257-.077-4.347-.076-4.595.002"/></svg>