<svg xmlns="http://www.w3.org/2000/svg" width="24" height="24" fill="none" stroke="currentColor" stroke-linecap="round" stroke-linejoin="round" stroke-width="2"><path fill="#000" fill-rule="evenodd" stroke="none" d="M4.695 1.057a1.04 1.04 0 0 0-.567.459c-.091.156-.108.23-.108.484 0 .256.016.328.111.489.125.213.318.375.539.454.098.035.353.054.74.055L6 3l.001 1.75c0 1.893.012 2.028.222 2.556.06.151.181.382.269.514.095.144.948 1.031 2.123 2.21L10.578 12l-1.963 1.97c-1.196 1.199-2.026 2.064-2.122 2.21a4 4 0 0 0-.267.5c-.21.507-.225.671-.225 2.57L6 21h-.554c-.798 0-1.079.11-1.318.516-.091.156-.108.23-.108.484 0 .256.016.328.111.489.125.213.318.375.539.454.223.079 14.437.079 14.66 0 .221-.079.414-.241.539-.454.095-.161.111-.233.111-.489 0-.254-.017-.328-.108-.484-.239-.406-.52-.516-1.318-.516H18l-.001-1.75c0-1.893-.012-2.028-.222-2.556a3.3 3.3 0 0 0-.269-.514c-.095-.144-.947-1.031-2.122-2.21l-1.963-1.969 1.998-2.011c2.064-2.075 2.148-2.171 2.366-2.711.198-.491.212-.651.212-2.529L18 3l.59-.002c.387-.001.642-.02.74-.055.221-.079.414-.241.539-.454.095-.161.111-.233.111-.489 0-.254-.017-.328-.108-.484a1.02 1.02 0 0 0-.582-.461C19.027.976 4.947.978 4.695 1.057M15.992 4.73c-.012 1.692-.014 1.734-.099 1.89-.049.089-.936 1.007-1.99 2.06L12 10.58l-1.903-1.9c-1.054-1.053-1.941-1.971-1.99-2.06-.085-.156-.087-.198-.099-1.89L7.997 3h8.006zm-2.066 10.62c1.049 1.051 1.94 1.973 1.98 2.05.068.129.075.278.086 1.87l.011 1.73H7.997l.011-1.73c.011-1.592.018-1.741.086-1.87.064-.121 3.851-3.96 3.906-3.96.011 0 .878.86 1.926 1.91"/></svg>