<svg xmlns="http://www.w3.org/2000/svg" width="24" height="24" fill="none" stroke="currentColor" stroke-linecap="round" stroke-linejoin="round" stroke-width="2"><path fill="#000" fill-rule="evenodd" stroke="none" d="M11.49 1.044a3 3 0 0 0-.986.364c-.172.101-1.651 1.341-3.9 3.269-1.993 1.709-3.694 3.178-3.78 3.265a3.5 3.5 0 0 0-.597.92c-.236.563-.231.418-.218 5.798l.011 4.92.094.28a3.14 3.14 0 0 0 2.026 2.025c.276.091.308.093 2.398.106 2.369.015 2.316.021 2.635-.267a.94.94 0 0 0 .315-.721c0-.388-.194-.705-.548-.897-.157-.084-.204-.086-2.2-.106l-2.04-.02-.184-.108a1.2 1.2 0 0 1-.292-.251c-.237-.309-.226-.06-.215-5.182L4.02 9.74l.091-.186c.078-.158.623-.641 3.676-3.26 1.971-1.691 3.658-3.119 3.748-3.174.138-.083.215-.1.465-.099.203 0 .34.022.423.067.068.037 1.755 1.465 3.749 3.174 3.094 2.651 3.638 3.133 3.716 3.292l.092.186.012 4.64c.009 3.264 0 4.701-.031 4.844-.056.26-.237.507-.475.647l-.186.109h-5.6l-.184-.108a1.2 1.2 0 0 1-.291-.249c-.187-.245-.225-.421-.225-1.043v-.571l.79-.019c.674-.016.831-.032 1.07-.108a3.12 3.12 0 0 0 2.024-2.022c.087-.265.092-.352.107-1.66.013-1.151.005-1.426-.047-1.651-.091-.391-.24-.653-.54-.952a1.9 1.9 0 0 0-1.094-.566l-.31-.049V9.898c0-1.226-.021-1.346-.275-1.608A.9.9 0 0 0 14 7.985a.9.9 0 0 0-.725.305c-.255.262-.275.381-.275 1.617V11h-2V9.907c0-1.236-.02-1.355-.275-1.617A.9.9 0 0 0 10 7.985a.9.9 0 0 0-.725.305C9.021 8.552 9 8.672 9 9.898v1.084l-.31.049c-.804.127-1.489.773-1.652 1.558-.029.142-.039.68-.029 1.603.015 1.316.02 1.402.107 1.668a3.12 3.12 0 0 0 2.024 2.022c.239.076.396.092 1.065.108l.786.019.019.786c.016.669.032.826.108 1.065a3.1 3.1 0 0 0 2.042 2.026l.3.094h6.08l.3-.094c.976-.304 1.714-1.035 2.046-2.026l.094-.28.011-4.92c.013-5.367.019-5.207-.215-5.782a3.4 3.4 0 0 0-.6-.936c-.328-.334-7.455-6.409-7.667-6.535-.563-.336-1.34-.476-2.019-.363M15 14.054c0 1.149-.022 1.302-.221 1.564-.061.08-.194.195-.295.254l-.184.108H9.7l-.184-.108a1.2 1.2 0 0 1-.291-.249C9.016 15.349 9 15.241 9 14.075V13h6z"/></svg>