<svg xmlns="http://www.w3.org/2000/svg" width="24" height="24" fill="none" stroke="currentColor" stroke-linecap="round" stroke-linejoin="round" stroke-width="2"><path fill="#000" fill-rule="evenodd" stroke="none" d="M11.49 1.044a3 3 0 0 0-.986.364c-.172.101-1.651 1.341-3.9 3.269-1.993 1.709-3.694 3.178-3.78 3.265a3.5 3.5 0 0 0-.597.92c-.236.563-.231.418-.218 5.798l.011 4.92.094.28c.332.991 1.07 1.722 2.046 2.026l.3.094h15.08l.3-.094c.976-.304 1.714-1.035 2.046-2.026l.094-.28.011-4.92c.013-5.367.019-5.207-.215-5.782a3.4 3.4 0 0 0-.6-.936c-.328-.334-7.455-6.409-7.667-6.535-.563-.336-1.34-.476-2.019-.363m.935 2.048c.067.035 1.753 1.461 3.747 3.17 3.094 2.651 3.638 3.133 3.716 3.292l.092.186.012 4.64c.009 3.264 0 4.701-.031 4.844-.056.26-.237.507-.475.647l-.186.109H4.7l-.184-.108a1.2 1.2 0 0 1-.292-.251c-.237-.309-.226-.06-.215-5.182L4.02 9.74l.091-.186c.078-.158.622-.64 3.678-3.26 1.972-1.691 3.621-3.1 3.665-3.131.237-.169.713-.204.971-.071m-.985 4.932c-1.644.141-2.914.546-4.173 1.332-.602.375-1.011.703-1.129.903-.383.654.116 1.501.884 1.501.214 0 .437-.103.806-.371a6.8 6.8 0 0 1 1.22-.728c1.564-.741 3.471-.853 5.151-.302a7 7 0 0 1 1.973 1.03c.194.141.425.282.515.313.666.235 1.374-.336 1.301-1.049-.033-.316-.177-.531-.547-.812A8.9 8.9 0 0 0 13.264 8.1c-.422-.06-1.498-.104-1.824-.076m-.255 4.036a5 5 0 0 0-2.124.891c-.259.186-.34.271-.434.455-.329.643.046 1.348.773 1.452.247.036.495-.048.812-.274.302-.215.753-.43 1.068-.509.321-.08 1.155-.071 1.48.016.318.085.763.299 1.002.481.314.24.434.286.738.286.329 0 .534-.09.739-.323a.9.9 0 0 0 .251-.66c-.003-.426-.186-.677-.783-1.075a4.9 4.9 0 0 0-1.687-.702c-.403-.089-1.395-.11-1.835-.038m.51 3.995a1.05 1.05 0 0 0-.567.461c-.091.156-.108.23-.108.484 0 .257.016.327.113.492.518.882 1.865.526 1.865-.492a.99.99 0 0 0-.535-.888 1.17 1.17 0 0 0-.768-.057"/></svg>