<svg xmlns="http://www.w3.org/2000/svg" width="24" height="24" fill="none" stroke="currentColor" stroke-linecap="round" stroke-linejoin="round" stroke-width="2"><path fill="#000" fill-rule="evenodd" stroke="none" d="M11.49 1.044a3 3 0 0 0-.986.364c-.172.101-1.651 1.341-3.9 3.269-1.993 1.709-3.694 3.178-3.78 3.265a3.5 3.5 0 0 0-.597.92c-.236.563-.231.418-.218 5.798l.011 4.92.094.28c.332.991 1.07 1.722 2.046 2.026l.3.094h15.08l.3-.094c.976-.304 1.714-1.035 2.046-2.026l.094-.28.011-4.92c.013-5.367.019-5.207-.215-5.782a3.4 3.4 0 0 0-.6-.936c-.328-.334-7.455-6.409-7.667-6.535-.563-.336-1.34-.476-2.019-.363m.935 2.048c.067.035 1.753 1.461 3.747 3.17 3.094 2.651 3.638 3.133 3.716 3.292l.092.186.012 4.64c.009 3.264 0 4.701-.031 4.844-.056.26-.237.507-.475.647l-.186.109-1.65.012-1.65.011-.001-3.611c0-3.91.001-3.877-.218-4.309-.135-.267-.484-.634-.764-.802-.453-.273-.493-.276-3.017-.276s-2.564.003-3.017.276c-.28.168-.629.535-.764.802-.224.44-.219.351-.219 4.287v3.633l-1.65-.011-1.65-.012-.184-.108a1.2 1.2 0 0 1-.292-.251c-.237-.309-.226-.06-.215-5.182L4.02 9.74l.091-.186c.078-.158.622-.64 3.678-3.26 1.972-1.691 3.621-3.1 3.665-3.131.237-.169.713-.204.971-.071M14 16.5V20h-4v-7h4z"/></svg>