<svg xmlns="http://www.w3.org/2000/svg" width="24" height="24" fill="none" stroke="currentColor" stroke-linecap="round" stroke-linejoin="round" stroke-width="2"><path fill="#000" fill-rule="evenodd" stroke="none" d="M11.49 1.044a3 3 0 0 0-.986.364c-.172.101-1.651 1.341-3.9 3.269-1.993 1.709-3.694 3.178-3.78 3.265a3.5 3.5 0 0 0-.597.92c-.236.563-.231.418-.218 5.798l.011 4.92.094.28c.332.991 1.07 1.722 2.046 2.026l.3.094h15.08l.3-.094c.976-.304 1.714-1.035 2.046-2.026l.094-.28.011-4.036c.013-4.488.025-4.272-.255-4.56-.22-.226-.433-.318-.736-.318s-.516.092-.735.317c-.277.285-.265.092-.265 4.318 0 4.131.006 4.02-.221 4.317-.061.08-.194.195-.295.254l-.184.108-1.65.012-1.65.011-.001-3.611c0-3.91.001-3.877-.218-4.309-.135-.267-.484-.634-.764-.802-.453-.273-.493-.276-3.017-.276s-2.564.003-3.017.276c-.28.168-.629.535-.764.802-.224.44-.219.351-.219 4.287v3.633l-1.65-.011-1.65-.012-.184-.108a1.2 1.2 0 0 1-.292-.251c-.237-.309-.226-.06-.215-5.182L4.02 9.74l.091-.185c.078-.158.626-.644 3.7-3.28 1.985-1.702 3.681-3.13 3.769-3.174.225-.113.625-.111.84.005.533.285.573.3.79.3a.96.96 0 0 0 .885-.525c.211-.387.124-.916-.197-1.198-.598-.524-1.561-.78-2.408-.639m6.205 1.013a1.04 1.04 0 0 0-.567.459l-.108.184-.012 1.15L16.995 5h-1.051c-1.147 0-1.301.022-1.562.221-.08.061-.195.194-.254.295-.091.156-.108.23-.108.484 0 .256.016.328.111.489.061.103.173.236.25.294.261.2.357.213 1.527.215L16.995 7l.013 1.153.012 1.154.121.196a.998.998 0 0 0 1.718 0l.121-.196.012-1.154L19.005 7l1.087-.002c1.17-.002 1.266-.015 1.527-.215.077-.058.189-.191.25-.294.095-.161.111-.233.111-.489 0-.254-.017-.328-.108-.484a1.2 1.2 0 0 0-.254-.295C21.357 5.022 21.203 5 20.056 5h-1.051l-.013-1.15-.012-1.15-.108-.184a1.005 1.005 0 0 0-1.177-.459M14 16.5V20h-4v-7h4z"/></svg>