<svg xmlns="http://www.w3.org/2000/svg" width="24" height="24" fill="none" stroke="currentColor" stroke-linecap="round" stroke-linejoin="round" stroke-width="2"><path fill="#000" fill-rule="evenodd" stroke="none" d="M11.56 2.024c-1.053.13-1.956.55-2.692 1.251-.571.544-1.047 1.364-1.225 2.109l-.048.205-.32.085c-.897.24-1.821.879-2.404 1.663-.501.673-.87 1.708-.871 2.447v.203l-.214.048c-.271.061-.516.24-.657.479-.104.178-.109.209-.106.706.013 2.017 1.156 3.975 3.037 5.202 1.211.791 2.82 1.331 4.47 1.502l.47.049V20H9.446c-1.688 0-1.788.011-2.064.221-.08.061-.195.194-.254.295-.091.156-.108.23-.108.484 0 .256.016.328.111.489.125.213.318.375.539.454s8.438.079 8.66 0 .414-.241.539-.454c.095-.161.111-.233.111-.489 0-.254-.017-.328-.108-.484a1.2 1.2 0 0 0-.254-.295c-.276-.21-.376-.221-2.064-.221H13v-2.027l.47-.049c.963-.1 2.097-.376 2.984-.727 2.723-1.078 4.507-3.436 4.523-5.977.003-.497-.002-.528-.106-.706a1.04 1.04 0 0 0-.657-.479L20 9.987v-.168c0-.268-.114-.849-.241-1.227a4.42 4.42 0 0 0-2.008-2.477 5 5 0 0 0-1.138-.473c-.206-.048-.207-.049-.256-.255-.385-1.62-1.772-2.938-3.454-3.285-.319-.066-1.081-.11-1.343-.078m1.16 2.078c.583.174 1.209.696 1.495 1.248.108.209.135.295.097.306a4.74 4.74 0 0 0-1.983 1.159l-.349.335-.176-.198c-.482-.543-1.277-1.032-2.095-1.288-.064-.02-.057-.05.07-.301.33-.657 1.043-1.194 1.755-1.322.282-.051.919-.018 1.186.061M9.319 7.651c.925.331 1.521 1.104 1.664 2.159l.026.19H6v-.102c0-.226.136-.736.271-1.018.196-.408.665-.878 1.09-1.093.428-.215.658-.264 1.199-.252.381.008.511.028.759.116m7 0c.925.331 1.521 1.104 1.664 2.159l.026.19H13v-.102c0-.226.136-.736.271-1.018.196-.408.665-.878 1.09-1.093.428-.215.658-.264 1.199-.252.381.008.511.028.759.116m2.547 4.406a4 4 0 0 0-.067.23 4 4 0 0 1-.228.547C17.611 14.806 15.133 16 12 16c-2.737 0-4.976-.904-6.16-2.486-.243-.324-.563-.939-.639-1.227a4 4 0 0 0-.067-.23C5.114 12.008 6.026 12 12 12s6.886.008 6.866.057"/></svg>