<svg xmlns="http://www.w3.org/2000/svg" width="24" height="24" fill="none" stroke="currentColor" stroke-linecap="round" stroke-linejoin="round" stroke-width="2"><path fill="#000" fill-rule="evenodd" stroke="none" d="M11.38 1.043c-2.563.253-4.73 2.205-5.246 4.727l-.072.349-.361.18A3.08 3.08 0 0 0 4.114 8.16c-.135.434-.135 1.246 0 1.68.184.59.496 1.055.995 1.481.271.231.525.376.908.517l.278.103 1.963 4.979c1.234 3.131 2.011 5.049 2.092 5.166.359.52 1.027.874 1.65.874s1.291-.354 1.65-.874c.08-.117.859-2.039 2.092-5.165l1.963-4.98.277-.102c.384-.142.638-.287.909-.518.499-.426.811-.891.995-1.481.078-.252.093-.387.093-.84s-.015-.588-.093-.84a3.08 3.08 0 0 0-1.587-1.861l-.361-.18-.072-.349c-.417-2.037-1.945-3.766-3.926-4.441a6.1 6.1 0 0 0-2.56-.286m1.225 2.015c1.469.222 2.705 1.266 3.192 2.697.099.292.202.921.204 1.245.001.249.106.518.271.695.146.156.472.304.671.305.46.001.877.289.996.69.075.252.076.366.006.6a1.02 1.02 0 0 1-.461.582l-.184.108H6.7l-.184-.108c-.581-.342-.683-1.098-.213-1.569.196-.196.46-.302.754-.304.498-.003.941-.473.943-.999a5.3 5.3 0 0 1 .203-1.245c.241-.707.734-1.418 1.287-1.856.912-.721 1.985-1.011 3.115-.841m2.908 8.98c-.108.311-3.499 8.88-3.513 8.88s-3.415-8.594-3.513-8.879C8.478 12.014 9.749 12 12 12c2.219 0 3.522.014 3.513.038"/></svg>