<svg xmlns="http://www.w3.org/2000/svg" width="24" height="24" fill="none" stroke="currentColor" stroke-linecap="round" stroke-linejoin="round" stroke-width="2"><path fill="#000" fill-rule="evenodd" stroke="none" d="M3.499 4.043C2.38 4.232 1.461 5.048 1.114 6.16l-.094.3v11.08l.094.3a3.09 3.09 0 0 0 2.046 2.046l.3.094h17.08l.3-.094a3.09 3.09 0 0 0 2.046-2.046l.094-.3V6.46l-.094-.3a3.09 3.09 0 0 0-2.025-2.039l-.321-.101-8.42-.006c-4.631-.003-8.511.01-8.621.029M20.31 6.061c.279.083.546.35.629.629.053.178.061.856.061 5.311 0 4.211-.01 5.138-.055 5.289a1.02 1.02 0 0 1-.461.582l-.184.108H3.7l-.184-.108a1.05 1.05 0 0 1-.458-.556c-.089-.255-.087-10.323.003-10.626.079-.269.351-.547.612-.627.16-.049 1.357-.058 8.31-.06 7.161-.003 8.147.004 8.327.058M8.499 8.04a3.05 3.05 0 0 0-2.385 2.12c-.135.434-.135 1.247 0 1.679.102.324.272.685.395.837l.077.096-.385.384c-.821.817-1.203 1.752-.93 2.272.263.501.803.699 1.298.477.28-.125.391-.254.595-.685.131-.276.232-.422.433-.624 1.007-1.009 2.612-.7 3.239.624.204.431.315.56.595.685.491.221 1.037.02 1.298-.477.273-.52-.109-1.455-.93-2.272l-.385-.384.077-.096c.123-.152.293-.513.395-.837.135-.432.135-1.245 0-1.679-.305-.981-1.076-1.753-2.025-2.031-.361-.106-1.029-.149-1.362-.089m7.196 1.017a1.04 1.04 0 0 0-.567.459c-.091.156-.108.23-.108.484 0 .256.016.328.111.489.125.213.318.375.539.454.215.077 2.445.077 2.66 0 .221-.079.414-.241.539-.454.095-.161.111-.233.111-.489 0-.254-.017-.328-.108-.484a1.02 1.02 0 0 0-.582-.461c-.251-.076-2.353-.074-2.595.002M9.31 10.061c.378.112.69.537.69.94 0 .33-.216.695-.516.871-.156.091-.23.108-.484.108s-.328-.017-.484-.108c-.581-.342-.683-1.098-.212-1.569q.417-.418 1.006-.242m6.385 2.996a1.04 1.04 0 0 0-.567.459c-.091.156-.108.23-.108.484 0 .256.016.328.111.489.125.213.318.375.539.454.215.077 2.445.077 2.66 0 .221-.079.414-.241.539-.454.095-.161.111-.233.111-.489 0-.254-.017-.328-.108-.484a1.02 1.02 0 0 0-.582-.461c-.251-.076-2.353-.074-2.595.002"/></svg>