<svg xmlns="http://www.w3.org/2000/svg" width="24" height="24" fill="none" stroke="currentColor" stroke-linecap="round" stroke-linejoin="round" stroke-width="2"><path fill="#000" fill-rule="evenodd" stroke="none" d="M4.499 2.043C3.38 2.232 2.461 3.048 2.114 4.16l-.094.3v15.08l.094.3c.304.976 1.037 1.715 2.026 2.046l.28.093 3.02.012c3.372.014 3.207.026 3.533-.267a.99.99 0 0 0 .055-1.398c-.282-.294-.328-.304-1.518-.326l-1.071-.02 3.771-3.766c4.068-4.063 3.853-3.869 4.29-3.869.42 0 .39-.025 2.24 1.815 1.604 1.594 1.735 1.714 1.935 1.78.545.178 1.142-.13 1.286-.664.027-.101.037-1.952.03-5.504L21.98 4.42l-.094-.28c-.33-.982-1.065-1.715-2.025-2.019l-.321-.101-7.42-.006c-4.081-.003-7.511.01-7.621.029M19.31 4.061c.279.083.546.35.629.629.053.177.061.723.061 4.046v3.841l-.77-.761c-.845-.836-.966-.938-1.353-1.151-.403-.222-.806-.313-1.377-.313-.691 0-1.157.137-1.7.499-.099.066-2.216 2.153-4.705 4.639L5.57 20.009l-.435-.015c-.385-.013-.456-.027-.619-.122a1.2 1.2 0 0 1-.291-.249c-.239-.314-.225.172-.225-7.601 0-6.264.007-7.152.061-7.332.079-.269.351-.547.612-.627.291-.089 14.336-.092 14.637-.002M8.499 6.04a3.05 3.05 0 0 0-2.385 2.12c-.135.434-.135 1.246 0 1.68a3.09 3.09 0 0 0 2.046 2.046c.434.135 1.246.135 1.68 0a3.09 3.09 0 0 0 2.046-2.046c.135-.434.135-1.246 0-1.68-.305-.981-1.076-1.753-2.025-2.031-.361-.106-1.029-.149-1.362-.089m.811 2.021c.378.112.69.537.69.94 0 .33-.216.695-.516.871-.156.091-.23.108-.484.108s-.328-.017-.484-.108c-.581-.342-.683-1.098-.212-1.569q.417-.418 1.006-.242m7.49 7.456a1 1 0 0 0-.26.093c-.066.035-.849.794-1.74 1.687-1.225 1.227-1.642 1.669-1.709 1.813a.9.9 0 0 0 .004.79c.177.373.495.585.885.589.395.003.461-.041 1.268-.841l.749-.742.011 1.7.012 1.7.121.197a.998.998 0 0 0 1.718 0l.121-.197.012-1.7.011-1.7.749.742c.807.8.873.844 1.268.841.7-.007 1.183-.755.889-1.379-.067-.144-.484-.586-1.709-1.814-.891-.892-1.683-1.655-1.76-1.694a1.1 1.1 0 0 0-.64-.085"/></svg>