<svg xmlns="http://www.w3.org/2000/svg" width="24" height="24" fill="none" stroke="currentColor" stroke-linecap="round" stroke-linejoin="round" stroke-width="2"><path fill="#000" fill-rule="evenodd" stroke="none" d="M7.499 1.043c-1.119.19-2.038 1.005-2.385 2.117l-.094.3v13.08l.094.3a3.09 3.09 0 0 0 2.046 2.046l.3.094h13.08l.3-.094a3.09 3.09 0 0 0 2.046-2.046l.094-.3V3.46l-.094-.3a3.09 3.09 0 0 0-2.025-2.039l-.321-.101-6.42-.006c-3.531-.003-6.511.01-6.621.029M20.31 3.061c.279.083.546.35.629.629.053.176.061.674.061 3.573v3.369l-.31-.177c-1.127-.644-2.478-.593-3.61.137-.134.086-1.454 1.372-3.363 3.277l-3.143 3.135-1.437-.012L7.7 16.98l-.184-.108a1.05 1.05 0 0 1-.458-.556c-.09-.256-.087-12.323.003-12.626.079-.269.351-.547.612-.627.29-.089 12.337-.091 12.637-.002M1.695 5.057a1.04 1.04 0 0 0-.567.459L1.02 5.7v14.84l.094.3c.304.976 1.035 1.714 2.026 2.046l.28.094 7.353.011c4.884.007 7.404-.003 7.504-.03.221-.06.462-.251.59-.469.097-.165.113-.235.113-.492 0-.254-.017-.328-.108-.484a1.15 1.15 0 0 0-.499-.446c-.089-.039-1.687-.054-7.393-.07l-7.28-.02-.184-.108a1.15 1.15 0 0 1-.446-.499c-.039-.089-.054-1.687-.07-7.393L2.98 5.7l-.108-.184a1.005 1.005 0 0 0-1.177-.459m9.804-.017a3.05 3.05 0 0 0-2.385 2.12c-.135.434-.135 1.246 0 1.68a3.09 3.09 0 0 0 2.046 2.046c.434.135 1.246.135 1.68 0a3.09 3.09 0 0 0 2.046-2.046c.135-.434.135-1.246 0-1.68-.305-.981-1.076-1.753-2.025-2.031-.361-.106-1.029-.149-1.362-.089m.811 2.021c.378.112.69.537.69.94 0 .33-.216.695-.516.871-.156.091-.23.108-.484.108s-.328-.017-.484-.108c-.581-.342-.683-1.098-.212-1.569q.417-.418 1.006-.242m7.28 5.079c.176.08.362.237.819.69l.591.587v1.345c0 1.463-.015 1.585-.221 1.856-.061.08-.194.195-.295.254l-.184.108-3.44.011-3.44.01 2.34-2.343c1.287-1.289 2.42-2.391 2.517-2.449a1.43 1.43 0 0 1 1.313-.069"/></svg>