<svg xmlns="http://www.w3.org/2000/svg" width="24" height="24" fill="none" stroke="currentColor" stroke-linecap="round" stroke-linejoin="round" stroke-width="2"><path fill="#000" fill-rule="evenodd" stroke="none" d="M4.499 2.043C3.383 2.23 2.461 3.048 2.114 4.16c-.091.291-.094.343-.094 1.723v1.423l.121.197a.998.998 0 0 0 1.718 0l.121-.196L4 6.023c.023-1.428.026-1.447.301-1.722.19-.189.344-.253.727-.302.364-.046.603-.172.774-.408a.99.99 0 0 0-.512-1.536c-.2-.06-.479-.064-.791-.012m4.196.014a1.04 1.04 0 0 0-.567.459c-.091.156-.108.23-.108.484 0 .256.016.328.111.489.125.213.318.375.539.454.218.078 3.442.078 3.66 0 .221-.079.414-.241.539-.454.095-.161.111-.233.111-.489 0-.254-.017-.328-.108-.484a1.02 1.02 0 0 0-.582-.461c-.255-.077-3.349-.075-3.595.002m7 0a1.04 1.04 0 0 0-.567.459c-.091.156-.108.23-.108.484 0 .256.016.328.111.489.061.103.173.236.25.294.269.206.335.213 1.818.215l1.38.002-1.705 1.71c-.938.941-1.736 1.771-1.773 1.845-.229.455-.045 1.046.407 1.312.165.097.234.113.492.112.212 0 .341-.022.44-.074.077-.04.909-.84 1.848-1.777l1.708-1.703.012 1.441.012 1.44.121.197a.998.998 0 0 0 1.718 0l.121-.197.011-2.743c.011-2.474.005-2.76-.055-2.917a1 1 0 0 0-.516-.552l-.2-.093-2.68.002c-2.074.002-2.717.014-2.845.054M3.477 10.073c-.671.176-1.239.75-1.417 1.435C2.009 11.704 2 12.35 2 16c0 4.64-.008 4.471.225 4.93.136.269.576.709.845.845.459.233.29.225 4.93.225s4.471.008 4.93-.225c.266-.135.708-.575.841-.838.237-.466.229-.303.228-4.923 0-4.588.004-4.494-.218-4.931-.135-.267-.484-.634-.764-.802-.478-.288-.266-.276-5.017-.276-3.898 0-4.282.005-4.523.068m17.218.984a1.04 1.04 0 0 0-.567.459l-.108.184v3.606l.121.197a.998.998 0 0 0 1.718 0l.121-.197V11.7l-.108-.184a1.005 1.005 0 0 0-1.177-.459M12 14.285v2.284l-.352-.334c-.551-.525-.989-.715-1.648-.715-.189 0-.449.028-.578.061-.545.142-.574.166-2.783 2.367L4.578 20H4v-8h8zm-.95 4.185.95.949V20H7.42l1.24-1.24c.965-.965 1.262-1.24 1.339-1.24.078 0 .318.217 1.051.95m9.645-.413c-.397.124-.633.434-.693.909a2.6 2.6 0 0 1-.08.409 1.1 1.1 0 0 1-.438.497l-.184.108-1.28.021c-.874.015-1.316.037-1.393.07a1.14 1.14 0 0 0-.499.445c-.091.156-.108.23-.108.484 0 .257.016.327.113.492.13.221.369.409.599.471.105.029.621.038 1.504.028 1.269-.015 1.36-.021 1.624-.107a3.1 3.1 0 0 0 2.025-2.044c.07-.229.092-.4.093-.72.002-.386-.007-.435-.106-.604a1.005 1.005 0 0 0-1.177-.459"/></svg>