<svg xmlns="http://www.w3.org/2000/svg" width="24" height="24" fill="none" stroke="currentColor" stroke-linecap="round" stroke-linejoin="round" stroke-width="2"><path fill="#000" fill-rule="evenodd" stroke="none" d="M1.67 1.061c-.222.081-.42.248-.542.455-.092.156-.108.229-.107.484 0 .214.022.34.075.44.041.077.322.392.626.7l.551.56-.126.36-.127.36v15.12l.094.3a3.09 3.09 0 0 0 2.046 2.046l.3.094h15.12l.36-.127.36-.126.56.551c.308.304.623.585.7.626.1.053.226.075.44.075.258.001.327-.015.492-.112.476-.28.647-.9.373-1.359-.055-.092-4.65-4.715-10.212-10.273C3.3 1.889 2.525 1.125 2.343 1.065a1 1 0 0 0-.673-.004m7.025.996c-.23.072-.439.242-.567.459-.091.156-.108.23-.108.484 0 .256.016.328.111.489.125.213.318.375.539.454.122.044 1.101.054 5.293.055 5.798.002 5.41-.018 5.734.305.319.319.303.087.303 4.431v3.84l-.733-.723c-.664-.656-.752-.729-.947-.787-.263-.078-.374-.08-.61-.009a1.02 1.02 0 0 0-.582.461c-.092.156-.108.229-.107.484 0 .212.022.341.074.44.04.077.796.866 1.679 1.754 1.255 1.261 1.65 1.635 1.806 1.71a1 1 0 0 0 1.356-.55c.061-.159.066-.628.055-5.554l-.011-5.38-.094-.28c-.33-.982-1.065-1.715-2.025-2.019l-.321-.101-5.34-.008c-4.3-.006-5.372.003-5.505.045M6.202 7.886C6.082 8.158 6 8.602 6 8.984c0 .908.376 1.709 1.089 2.321.781.67 1.912.868 2.93.514l.281-.098.89.889.89.89-3.25 3.252-3.25 3.253-.44-.012c-.393-.012-.46-.025-.624-.121a1.2 1.2 0 0 1-.291-.249C3.986 19.31 4 19.77 4 12.285V5.42l1.141 1.142 1.142 1.141zm9.838 9.574L18.58 20H8.42l2.54-2.54 2.54-2.54z"/></svg>