<svg xmlns="http://www.w3.org/2000/svg" width="24" height="24" fill="none" stroke="currentColor" stroke-linecap="round" stroke-linejoin="round" stroke-width="2"><path fill="#000" fill-rule="evenodd" stroke="none" d="M4.499 2.043C3.38 2.232 2.461 3.048 2.114 4.16l-.094.3v15.08l.094.3c.304.976 1.037 1.715 2.026 2.046l.28.093 3.02.012c3.372.014 3.207.026 3.533-.267a.99.99 0 0 0 .055-1.398c-.282-.294-.328-.304-1.518-.326l-1.071-.02 3.771-3.766c4.068-4.063 3.853-3.869 4.29-3.869.42 0 .39-.025 2.24 1.815 1.604 1.594 1.735 1.714 1.935 1.78.545.178 1.142-.13 1.286-.664.027-.101.037-1.952.03-5.504L21.98 4.42l-.094-.28c-.33-.982-1.065-1.715-2.025-2.019l-.321-.101-7.42-.006c-4.081-.003-7.511.01-7.621.029M19.31 4.061c.279.083.546.35.629.629.053.177.061.723.061 4.046v3.841l-.77-.761c-.845-.836-.966-.938-1.353-1.151-.403-.222-.806-.313-1.377-.313-.691 0-1.157.137-1.7.499-.099.066-2.216 2.153-4.705 4.639L5.57 20.009l-.435-.015c-.385-.013-.456-.027-.619-.122a1.2 1.2 0 0 1-.291-.249c-.239-.314-.225.172-.225-7.601 0-6.264.007-7.152.061-7.332.079-.269.351-.547.612-.627.291-.089 14.336-.092 14.637-.002M8.499 6.04a3.05 3.05 0 0 0-2.385 2.12c-.135.434-.135 1.246 0 1.68a3.09 3.09 0 0 0 2.046 2.046c.434.135 1.246.135 1.68 0a3.09 3.09 0 0 0 2.046-2.046c.135-.434.135-1.246 0-1.68-.305-.981-1.076-1.753-2.025-2.031-.361-.106-1.029-.149-1.362-.089m.811 2.021c.378.112.69.537.69.94 0 .33-.216.695-.516.871-.156.091-.23.108-.484.108s-.328-.017-.484-.108c-.581-.342-.683-1.098-.212-1.569q.417-.418 1.006-.242m7.29 7.523a1.08 1.08 0 0 0-.505.516l-.094.2L16 17.937v1.637l-.73-.72c-.615-.607-.761-.731-.927-.787a1 1 0 0 0-1.215.449c-.092.156-.108.229-.107.484 0 .212.022.341.074.44.04.077.796.866 1.679 1.754 1.754 1.763 1.806 1.805 2.226 1.805s.472-.042 2.226-1.805c.883-.888 1.639-1.677 1.679-1.754.052-.099.074-.228.074-.44.001-.255-.015-.328-.107-.484a1 1 0 0 0-1.215-.449c-.166.056-.312.18-.927.787l-.73.72v-1.637l-.001-1.637-.094-.2a1.06 1.06 0 0 0-.514-.518c-.188-.079-.608-.078-.791.002"/></svg>