<svg xmlns="http://www.w3.org/2000/svg" width="24" height="24" fill="none" stroke="currentColor" stroke-linecap="round" stroke-linejoin="round" stroke-width="2"><path fill="#000" fill-rule="evenodd" stroke="none" d="M18.695 1.057a1.04 1.04 0 0 0-.567.459l-.108.184-.012 1.15L17.995 4h-1.051c-1.147 0-1.301.022-1.562.221-.08.061-.195.194-.254.295-.091.156-.108.23-.108.484 0 .256.016.328.111.489.061.103.173.236.25.294.261.2.357.213 1.527.215L17.995 6l.013 1.153.012 1.154.121.196a.998.998 0 0 0 1.718 0l.121-.196.012-1.154L20.005 6l1.087-.002c1.17-.002 1.266-.015 1.527-.215.077-.058.189-.191.25-.294.095-.161.111-.233.111-.489 0-.254-.017-.328-.108-.484a1.2 1.2 0 0 0-.254-.295C22.357 4.022 22.203 4 21.056 4h-1.051l-.013-1.15-.012-1.15-.108-.184a1.005 1.005 0 0 0-1.177-.459m-14.196.986C3.38 2.232 2.461 3.048 2.114 4.16l-.094.3v15.08l.094.3a3.09 3.09 0 0 0 2.046 2.046l.3.094h15.08l.3-.094c.976-.304 1.714-1.035 2.046-2.026l.094-.28.011-4.12c.013-4.599.03-4.303-.267-4.632-.194-.216-.405-.306-.715-.307-.428-.002-.729.189-.914.579-.087.184-.094.25-.095.837v.637l-.81-.799c-.445-.44-.891-.855-.99-.922-.532-.361-1.007-.501-1.7-.501-.691 0-1.157.137-1.7.499-.099.066-2.216 2.153-4.705 4.639L5.57 20.009l-.435-.015c-.385-.013-.456-.027-.619-.122a1.2 1.2 0 0 1-.291-.249c-.239-.314-.225.172-.225-7.601 0-8.016-.025-7.391.303-7.719.319-.319.08-.303 4.494-.303l3.903-.001.2-.094c.381-.181.588-.5.588-.905 0-.385-.195-.703-.548-.894l-.16-.086-4.04-.006c-2.222-.003-4.131.01-4.241.029m4 3.997a3.05 3.05 0 0 0-2.385 2.12c-.135.434-.135 1.246 0 1.68a3.09 3.09 0 0 0 2.046 2.046c.434.135 1.246.135 1.68 0a3.09 3.09 0 0 0 2.046-2.046c.135-.434.135-1.246 0-1.68-.305-.981-1.076-1.753-2.025-2.031-.361-.106-1.029-.149-1.362-.089m.811 2.021c.378.112.69.537.69.94 0 .33-.216.695-.516.871-.156.091-.23.108-.484.108s-.328-.017-.484-.108c-.581-.342-.683-1.098-.212-1.569q.417-.418 1.006-.242m7.61 4.364c.09.037.667.584 1.61 1.526L20 15.42v1.843c0 2.002-.007 2.074-.221 2.355-.061.08-.194.195-.295.254l-.184.108-5.44.01-5.44.011 3.74-3.743c2.057-2.059 3.789-3.769 3.849-3.801.265-.141.616-.153.911-.032"/></svg>