<svg xmlns="http://www.w3.org/2000/svg" width="24" height="24" fill="none" stroke="currentColor" stroke-linecap="round" stroke-linejoin="round" stroke-width="2"><path fill="#000" fill-rule="evenodd" stroke="none" d="M4.499 2.043C3.38 2.232 2.461 3.048 2.114 4.16l-.094.3v15.08l.094.3c.304.976 1.036 1.715 2.026 2.046l.28.093 3.35.012c2.22.008 3.402-.002 3.504-.029.224-.061.465-.251.593-.47.097-.165.113-.235.113-.492 0-.254-.017-.328-.108-.484a1.2 1.2 0 0 0-.254-.295c-.271-.206-.393-.221-1.854-.221H8.421l1.705-1.71c.938-.94 1.739-1.773 1.779-1.85.052-.099.074-.228.074-.44.001-.255-.015-.328-.107-.484a1 1 0 0 0-1.215-.451c-.178.059-.427.295-2.643 2.505l-2.445 2.439-.435-.015c-.384-.013-.455-.027-.618-.122a1.2 1.2 0 0 1-.291-.249c-.239-.314-.225.172-.225-7.601 0-8.016-.025-7.391.303-7.719C4.631 3.976 4.009 4 12 4s7.369-.024 7.697.303c.317.317.303.138.303 3.994l.001 3.403.094.2c.181.382.5.588.908.588a.94.94 0 0 0 .721-.315c.296-.328.28-.092.267-4.133l-.011-3.62-.094-.28c-.329-.982-1.065-1.715-2.025-2.019l-.321-.101-7.42-.006c-4.081-.003-7.511.01-7.621.029m4 3.997a3.05 3.05 0 0 0-2.385 2.12c-.135.434-.135 1.246 0 1.68a3.09 3.09 0 0 0 2.046 2.046c.434.135 1.246.135 1.68 0a3.09 3.09 0 0 0 2.046-2.046c.135-.434.135-1.246 0-1.68-.305-.981-1.076-1.753-2.025-2.031-.361-.106-1.029-.149-1.362-.089m.811 2.021c.378.112.69.537.69.94 0 .33-.216.695-.516.871-.156.091-.23.108-.484.108s-.328-.017-.484-.108c-.581-.342-.683-1.098-.212-1.569q.417-.418 1.006-.242m5.807 3.871a1.55 1.55 0 0 0-.972.828l-.125.26v8.92l.107.229c.15.319.431.605.748.761.239.118.297.13.624.129.284-.001.402-.02.553-.089.105-.048 1.554-.938 3.22-1.978 3.309-2.066 3.358-2.102 3.616-2.619a1.9 1.9 0 0 0 .018-1.754c-.256-.539-.285-.56-3.634-2.651-1.666-1.04-3.112-1.928-3.214-1.973-.232-.102-.693-.133-.941-.063m5.963 5.548c0 .011-1.143.734-2.54 1.608L16 20.675v-6.39l2.54 1.587c1.397.874 2.54 1.597 2.54 1.608"/></svg>