<svg xmlns="http://www.w3.org/2000/svg" width="24" height="24" fill="none" stroke="currentColor" stroke-linecap="round" stroke-linejoin="round" stroke-width="2"><path fill="#000" fill-rule="evenodd" stroke="none" d="M11.695 2.057a1.04 1.04 0 0 0-.567.459l-.108.184-.011 4.937-.01 4.938-1.23-1.222c-1.081-1.074-1.253-1.229-1.426-1.287a1 1 0 0 0-1.215.45c-.092.156-.108.229-.107.484 0 .212.022.341.074.44.04.077 1.021 1.091 2.179 2.254 2.293 2.302 2.297 2.305 2.726 2.305s.433-.003 2.726-2.305c1.158-1.163 2.139-2.177 2.179-2.254.052-.099.074-.228.074-.44.001-.255-.015-.328-.107-.484a1 1 0 0 0-1.215-.45c-.173.058-.345.213-1.426 1.287l-1.23 1.222-.01-4.938L12.98 2.7l-.108-.184a1.005 1.005 0 0 0-1.177-.459M3.499 4.043C2.383 4.23 1.461 5.048 1.114 6.16l-.094.3v11.08l.094.3a3.09 3.09 0 0 0 2.046 2.046l.3.094h17.08l.3-.094a3.09 3.09 0 0 0 2.046-2.046l.094-.3V6.46l-.094-.3a3.08 3.08 0 0 0-2.025-2.038l-.321-.1-2.28-.014c-1.582-.01-2.343-.001-2.484.03a1.03 1.03 0 0 0-.647.476c-.093.158-.109.231-.109.486 0 .256.016.328.111.489.125.213.318.375.539.454.118.042.608.054 2.293.055 2.452.002 2.428 0 2.734.305.323.324.303-.06.303 5.698 0 4.211-.01 5.138-.055 5.289a1.02 1.02 0 0 1-.461.582l-.184.108H3.7l-.184-.108a1.2 1.2 0 0 1-.291-.249C2.988 17.312 3 17.608 3 12.022c0-5.782-.02-5.395.303-5.719.306-.305.282-.303 2.734-.305 1.685-.001 2.175-.013 2.293-.055.221-.079.414-.241.539-.454.095-.161.111-.233.111-.489 0-.254-.017-.328-.108-.484a1.2 1.2 0 0 0-.254-.295c-.287-.219-.321-.221-2.714-.216-1.212.002-2.295.02-2.405.038"/></svg>