<svg xmlns="http://www.w3.org/2000/svg" width="24" height="24" fill="none" stroke="currentColor" stroke-linecap="round" stroke-linejoin="round" stroke-width="2"><path fill="#000" fill-rule="evenodd" stroke="none" d="M5.695 2.057a1.04 1.04 0 0 0-.567.459c-.091.156-.108.23-.108.484 0 .256.016.328.111.489.061.103.173.236.25.294.275.21.308.213 2.16.215.947.001 1.874.021 2.06.043 1.369.168 2.358.849 2.958 2.037.11.218.321.801.321.887 0 .02-1.532.035-3.494.035-3.791 0-3.708-.005-4.004.221-.08.061-.195.194-.254.295-.091.156-.108.23-.108.484 0 .256.016.328.111.489.125.213.318.375.539.454.121.043.836.054 3.68.055 1.981.001 3.53.017 3.53.037 0 .086-.211.669-.321.887-.541 1.072-1.339 1.694-2.544 1.983-.228.055-.618.07-2.295.09-1.969.024-2.024.027-2.18.111a1.01 1.01 0 0 0-.539.897c-.002.456-.193.258 4.559 4.727 3.319 3.122 4.387 4.104 4.54 4.175.365.172.746.109 1.06-.172a.92.92 0 0 0 .328-.744c0-.446.118-.321-3.566-3.789l-3.377-3.18.637-.025c1.028-.041 1.886-.247 2.675-.643 1.543-.776 2.616-2.212 3.004-4.022l.071-.33 1.624-.002c1.747-.002 1.79-.006 2.063-.215.077-.058.189-.191.25-.294.095-.161.111-.233.111-.489 0-.254-.017-.328-.108-.484a1.2 1.2 0 0 0-.254-.295C18.341 7.01 18.244 7 16.519 7h-1.587l-.071-.33a6.4 6.4 0 0 0-1.183-2.56L13.593 4l2.294-.002c1.811-.001 2.325-.013 2.443-.055.221-.079.414-.241.539-.454.095-.161.111-.233.111-.489 0-.254-.017-.328-.108-.484a1.02 1.02 0 0 0-.582-.461c-.262-.079-12.343-.077-12.595.002"/></svg>