<svg xmlns="http://www.w3.org/2000/svg" width="24" height="24" fill="none" stroke="currentColor" stroke-linecap="round" stroke-linejoin="round" stroke-width="2"><path fill="#000" fill-rule="evenodd" stroke="none" d="M5.4 7.044c-1.639.185-3.139 1.246-3.874 2.741a5.4 5.4 0 0 0-.433 1.255c-.101.471-.101 1.449 0 1.92.433 2.024 1.923 3.514 3.947 3.947.469.101 1.52.099 2-.003 1.114-.236 2.155-.749 3.195-1.573.212-.167.696-.617 1.075-1l.69-.695.69.695c.38.383.863.833 1.075 1 1.04.824 2.081 1.337 3.195 1.573.48.102 1.531.104 2 .003 1.528-.327 2.788-1.277 3.473-2.619.405-.794.547-1.389.547-2.288 0-.448-.02-.714-.073-.96-.282-1.319-1.044-2.464-2.107-3.166-.801-.53-1.437-.754-2.386-.841-1.533-.141-3.125.425-4.694 1.67-.187.148-.65.583-1.03.965l-.69.696-.69-.696a16 16 0 0 0-1.03-.965C8.656 7.415 7.026 6.861 5.4 7.044m1.489 2.074q.902.23 1.881.942c.331.24 1.523 1.394 1.808 1.75l.152.19-.153.19c-.296.368-1.441 1.48-1.789 1.738-.622.46-1.269.788-1.892.959-.472.13-1.319.129-1.736-.001a3.07 3.07 0 0 1-2.035-2.025c-.081-.266-.098-.41-.1-.841-.003-.612.056-.883.295-1.36a3.04 3.04 0 0 1 2.179-1.62c.298-.054 1.035-.013 1.39.078m11.972.011c.943.276 1.723 1.054 2.014 2.01.083.273.098.403.098.861s-.015.588-.098.861c-.172.566-.49 1.038-.983 1.46-1.096.939-2.793.886-4.312-.133-.616-.414-1.636-1.359-2.155-1.998L13.27 12l.152-.19c.285-.356 1.477-1.51 1.808-1.75.793-.576 1.511-.9 2.27-1.023.346-.056 1.007-.012 1.361.092"/></svg>