<svg xmlns="http://www.w3.org/2000/svg" width="24" height="24" fill="none" stroke="currentColor" stroke-linecap="round" stroke-linejoin="round" stroke-width="2"><path fill="#000" fill-rule="evenodd" stroke="none" d="M11.32 1.025c-2.164.198-4.036 1.045-5.552 2.513C4.309 4.949 3.409 6.685 3.091 8.7c-.097.611-.097 1.989 0 2.6.318 2.015 1.218 3.751 2.677 5.162 1.352 1.309 2.944 2.107 4.874 2.444.325.057.839.068 3.655.082l3.277.016-1.203 1.208c-.661.664-1.233 1.269-1.27 1.343-.229.454-.045 1.046.407 1.312.165.097.234.113.492.112.212 0 .341-.022.44-.074.077-.04 1.091-1.021 2.254-2.179 2.302-2.293 2.305-2.297 2.305-2.726 0-.431 0-.431-2.325-2.745-1.924-1.915-2.153-2.131-2.331-2.19a1 1 0 0 0-1.215.451c-.092.156-.108.229-.107.484 0 .213.022.341.074.44.041.077.616.685 1.279 1.352l1.206 1.212-3.2-.016c-2.671-.014-3.253-.026-3.52-.078-1.505-.29-2.718-.917-3.755-1.94-1.066-1.051-1.782-2.427-2.011-3.864-.086-.544-.086-1.668 0-2.212.363-2.28 1.913-4.303 4.031-5.258.962-.434 1.779-.606 2.875-.606.821 0 1.302.065 1.978.27a7 7 0 0 1 4.72 4.718c.17.558.212.808.281 1.655.049.601.062.667.168.84a1 1 0 0 0 1.712-.01c.121-.197.121-.199.118-.78a8 8 0 0 0-.07-1.023c-.601-3.925-3.685-7.014-7.587-7.599-.412-.062-1.645-.109-2-.076"/></svg>