<svg xmlns="http://www.w3.org/2000/svg" width="24" height="24" fill="none" stroke="currentColor" stroke-linecap="round" stroke-linejoin="round" stroke-width="2"><path fill="#000" fill-rule="evenodd" stroke="none" d="M11.32 1.025c-2.164.198-4.036 1.045-5.552 2.513-1.729 1.673-2.735 3.939-2.745 6.185-.003.581-.003.583.118.78a1 1 0 0 0 1.712.01c.106-.173.119-.239.168-.84.069-.847.111-1.097.281-1.655a7 7 0 0 1 4.72-4.718c.676-.205 1.157-.27 1.978-.27s1.302.065 1.978.27A7.01 7.01 0 0 1 18.7 8.022c.205.676.27 1.157.27 1.978s-.065 1.302-.27 1.978a6.9 6.9 0 0 1-1.805 2.992c-1.037 1.023-2.25 1.65-3.755 1.94-.267.052-.849.064-3.52.078l-3.2.016 1.206-1.212c.663-.667 1.238-1.275 1.279-1.352.052-.099.074-.227.074-.44.001-.255-.015-.328-.107-.484a1 1 0 0 0-1.215-.451c-.178.059-.407.275-2.331 2.19C3.001 17.569 3.001 17.569 3.001 18c0 .429.003.433 2.305 2.726 1.163 1.158 2.177 2.139 2.254 2.179.099.052.228.074.44.074.258.001.327-.015.492-.112.222-.13.409-.369.473-.603a1.2 1.2 0 0 0-.066-.709c-.037-.074-.609-.679-1.27-1.343l-1.203-1.208 3.277-.016c3.578-.018 3.496-.013 4.501-.266 3.163-.796 5.717-3.349 6.518-6.515.205-.81.257-1.258.257-2.207s-.052-1.397-.257-2.207c-.881-3.483-3.839-6.158-7.402-6.692-.412-.062-1.645-.109-2-.076"/></svg>