<svg xmlns="http://www.w3.org/2000/svg" width="24" height="24" fill="none" stroke="currentColor" stroke-linecap="round" stroke-linejoin="round" stroke-width="2"><path fill="#000" fill-rule="evenodd" stroke="none" d="M5.673 2.054a1.1 1.1 0 0 0-.56.497c-.134.273-.131.685.007.915.055.091 1.4 1.574 2.99 3.295S11 9.915 11 9.945c0 .046-.415.055-2.554.055-2.771 0-2.774 0-3.064.221-.08.061-.195.194-.254.295-.091.156-.108.23-.108.484 0 .256.016.328.111.489.125.213.318.375.539.454.119.043.681.054 2.74.055L11 12v2H8.446c-2.771 0-2.774 0-3.064.221-.08.061-.195.194-.254.295-.091.156-.108.23-.108.484 0 .256.016.328.111.489.125.213.318.375.539.454.119.043.681.054 2.739.055l2.589.002.011 2.653.011 2.653.121.197a.998.998 0 0 0 1.718 0l.121-.197.011-2.653.011-2.653 2.589-.002c2.058-.001 2.62-.012 2.739-.055.221-.079.414-.241.539-.454.095-.161.111-.233.111-.489 0-.254-.017-.328-.108-.484a1.2 1.2 0 0 0-.254-.295C18.328 14 18.325 14 15.554 14H13v-2l2.59-.002c2.059-.001 2.621-.012 2.74-.055.221-.079.414-.241.539-.454.095-.161.111-.233.111-.489 0-.254-.017-.328-.108-.484a1.2 1.2 0 0 0-.254-.295C18.328 10 18.325 10 15.554 10 13.415 10 13 9.991 13 9.945c0-.03 1.3-1.463 2.89-3.184s2.932-3.198 2.983-3.283c.275-.456.067-1.112-.441-1.385-.198-.106-.64-.098-.872.016-.142.07-.751.707-2.857 2.99C13.23 6.694 12.014 8 12 8s-1.23-1.306-2.703-2.901C7.247 2.877 6.58 2.178 6.45 2.115c-.217-.105-.583-.134-.777-.061"/></svg>