<svg xmlns="http://www.w3.org/2000/svg" width="24" height="24" fill="none" stroke="currentColor" stroke-linecap="round" stroke-linejoin="round" stroke-width="2"><path fill="#000" fill-rule="evenodd" stroke="none" d="M11.358 2.061c-1.627.254-2.941 1.523-3.275 3.166-.383 1.878.673 3.804 2.457 4.484.176.067.352.132.39.144.065.021.07.156.07 2.084V14H7.007l-.014-.65c-.012-.624-.017-.657-.122-.836a1.01 1.01 0 0 0-1.742 0c-.105.179-.11.212-.122.831l-.014.645-.282.028c-1.215.12-2.226.954-2.597 2.142-.092.293-.094.337-.094 1.84s.002 1.547.094 1.84a3.09 3.09 0 0 0 2.046 2.046l.3.094h15.08l.3-.094a3.09 3.09 0 0 0 2.046-2.046c.092-.293.094-.337.094-1.84s-.002-1.547-.094-1.84a3.09 3.09 0 0 0-2.025-2.038l-.321-.101-3.27-.012-3.27-.012v-2.06c0-1.926.005-2.061.07-2.082 1.272-.405 2.167-1.209 2.634-2.367a3.96 3.96 0 0 0 .001-2.972 3.98 3.98 0 0 0-3.1-2.458 3.7 3.7 0 0 0-1.247.003m1.165 2.012a2.01 2.01 0 0 1 1.27 2.807c-.155.318-.566.745-.863.895a2.07 2.07 0 0 1-1.422.165c-.685-.178-1.259-.746-1.435-1.417a2 2 0 0 1 2.45-2.45m6.811 11.991c.262.089.527.363.605.626.084.282.089 2.325.006 2.6a1.02 1.02 0 0 1-.461.582l-.184.108H4.7l-.184-.108a1.05 1.05 0 0 1-.458-.556c-.086-.245-.084-2.334.003-2.626.079-.269.351-.547.612-.627.16-.049 1.231-.058 7.33-.06 6.451-.003 7.161.003 7.331.061"/></svg>