<svg xmlns="http://www.w3.org/2000/svg" width="24" height="24" fill="none" stroke="currentColor" stroke-linecap="round" stroke-linejoin="round" stroke-width="2"><path fill="#000" fill-rule="evenodd" stroke="none" d="M5.695 4.057a1.04 1.04 0 0 0-.567.459L5.02 4.7v11.606l.121.197a.998.998 0 0 0 1.718 0l.121-.197V4.7l-.108-.184a1.005 1.005 0 0 0-1.177-.459m6 0a1.04 1.04 0 0 0-.567.459l-.108.184v6.606l.121.197a.998.998 0 0 0 1.718 0l.121-.197V4.7l-.108-.184a1.005 1.005 0 0 0-1.177-.459m6 0a1.04 1.04 0 0 0-.567.459l-.108.184v14.606l.121.197a.998.998 0 0 0 1.718 0l.121-.197V4.7l-.108-.184a1.005 1.005 0 0 0-1.177-.459"/></svg>