<svg xmlns="http://www.w3.org/2000/svg" width="24" height="24" fill="none" stroke="currentColor" stroke-linecap="round" stroke-linejoin="round" stroke-width="2"><path fill="#000" fill-rule="evenodd" stroke="none" d="M14.764 1.003A7.56 7.56 0 0 0 9.505 4.02a7.5 7.5 0 0 0-1.29 6.04l.054.24-3.309 3.32c-2.112 2.119-3.367 3.407-3.468 3.56-.2.305-.358.683-.432 1.04-.085.409-.086 2.945 0 3.272.093.36.25.626.536.912s.552.443.912.536c.336.088 3.648.088 3.984 0 .36-.093.626-.25.912-.536.475-.475.596-.836.596-1.78V20h.632c.942 0 1.295-.119 1.772-.596.475-.475.596-.836.596-1.78V17l.25-.001c.475-.001 1.033-.167 1.496-.445a5 5 0 0 0 .589-.477l.365-.342.24.052c2.076.45 4.288-.01 5.98-1.244a7.7 7.7 0 0 0 1.979-2.123c1.057-1.684 1.403-3.838.922-5.741a7.56 7.56 0 0 0-3.261-4.54c-.625-.401-1.572-.803-2.26-.961-.786-.181-1.842-.254-2.536-.175m1.776 2.056c1.45.259 2.754 1.127 3.608 2.401.367.547.668 1.31.798 2.02.094.518.095 1.533.001 2.008-.326 1.652-1.453 3.147-2.927 3.883a5.53 5.53 0 0 1-4.092.345c-.434-.133-.551-.141-.849-.052-.192.057-.28.127-.778.615-.308.303-.624.583-.7.622-.09.046-.293.081-.58.102-.243.018-.532.06-.644.094-.433.132-.949.573-1.161.991-.172.339-.216.6-.216 1.28V18l-.63.002c-.96.004-1.368.148-1.835.651-.427.459-.535.807-.535 1.715V21H2.996l.012-1.23c.011-1.105.02-1.244.086-1.37.041-.077 1.672-1.742 3.625-3.7 3.245-3.254 3.557-3.577 3.616-3.757.089-.27.082-.445-.033-.811-.198-.633-.242-.946-.24-1.692.003-.796.067-1.171.317-1.86a5.2 5.2 0 0 1 1.241-1.963 5.47 5.47 0 0 1 3.22-1.616c.36-.05 1.267-.019 1.7.058m-.366 2.98c-.424.09-.845.438-1.042.861-.097.207-.112.29-.112.6 0 .311.015.394.113.604.143.309.452.617.767.764.207.097.29.112.6.112s.393-.015.6-.112c.315-.147.624-.455.767-.764.098-.21.113-.293.113-.604s-.015-.394-.113-.604a1.68 1.68 0 0 0-.748-.753 1.8 1.8 0 0 0-.945-.104"/></svg>