<svg xmlns="http://www.w3.org/2000/svg" width="24" height="24" fill="none" stroke="currentColor" stroke-linecap="round" stroke-linejoin="round" stroke-width="2"><path fill="#000" fill-rule="evenodd" stroke="none" d="M13.487 1.082A3.5 3.5 0 0 0 12 1.744c-.121.093-1.14 1.093-2.265 2.223-1.807 1.813-2.067 2.09-2.23 2.371-.196.34-.355.773-.423 1.159a4.5 4.5 0 0 0 0 1.206c.106.601.408 1.242.772 1.639l.181.198-3.192 3.2c-2.037 2.042-3.25 3.287-3.351 3.44-.2.305-.358.683-.432 1.04-.085.409-.086 2.945 0 3.272.093.36.25.626.536.912s.552.443.912.536c.336.088 3.648.088 3.984 0 .36-.093.626-.25.912-.536.475-.475.596-.836.596-1.78V20h.632c.942 0 1.295-.119 1.772-.596.475-.475.596-.836.596-1.78V17l.25-.001c.683-.002 1.39-.292 1.965-.807l.254-.227.116.121c.181.191.685.504 1.014.631 1.061.409 2.286.293 3.184-.301.406-.269 4.346-4.206 4.619-4.616.738-1.107.743-2.681.014-3.783-.131-.198-1.007-1.103-3.09-3.19-1.598-1.602-3.01-2.994-3.136-3.093a3.8 3.8 0 0 0-1.15-.575c-.345-.098-1.201-.14-1.553-.077m1.256 2.113c.262.122.426.278 3.105 2.957s2.835 2.843 2.96 3.108c.119.252.132.316.132.64 0 .312-.016.394-.117.62-.108.239-.268.412-1.96 2.115-1.014 1.02-1.947 1.932-2.074 2.027-.534.4-1.244.4-1.778 0-.127-.095-1.465-1.412-2.974-2.927-2.559-2.57-2.751-2.772-2.86-3.015-.101-.225-.117-.308-.117-.62 0-.324.013-.388.132-.64.123-.262.257-.405 2.06-2.206 1.937-1.935 2.038-2.024 2.448-2.16.276-.092.721-.049 1.043.101m-1.048 2.862a1.04 1.04 0 0 0-.567.459c-.092.156-.108.229-.107.484 0 .212.022.341.074.44.101.192 3.201 3.299 3.425 3.433.152.091.226.107.48.107.257 0 .327-.016.492-.113.476-.28.646-.899.374-1.359-.055-.092-.826-.891-1.713-1.774-1.538-1.531-1.623-1.609-1.83-1.67-.257-.076-.404-.077-.628-.007m-1.786 8.615c-.219.229-.399.296-.889.331-.242.018-.531.06-.643.094-.433.132-.949.573-1.161.991-.172.339-.216.6-.216 1.28V18l-.63.002c-.96.004-1.368.148-1.835.651-.427.459-.535.807-.535 1.715V21H2.996l.012-1.23c.011-1.104.02-1.244.086-1.37.04-.077 1.489-1.557 3.22-3.29l3.146-3.15 1.289 1.289 1.289 1.289z"/></svg>