<svg xmlns="http://www.w3.org/2000/svg" width="24" height="24" fill="none" stroke="currentColor" stroke-linecap="round" stroke-linejoin="round" stroke-width="2"><path fill="#000" fill-rule="evenodd" stroke="none" d="M20.64 1.068c-.157.053-.77.651-4.743 4.619l-4.562 4.557-.378-.236a6.48 6.48 0 0 0-6.137-.417c-1.972.898-3.326 2.651-3.73 4.829-.092.495-.092 1.665 0 2.16.514 2.771 2.559 4.816 5.33 5.33.495.092 1.665.092 2.16 0 2.771-.514 4.816-2.559 5.33-5.33.047-.251.067-.578.067-1.08s-.02-.829-.067-1.08c-.157-.847-.478-1.687-.895-2.345l-.26-.41 1.371-1.371 1.371-1.372.922.912c.992.982 1.162 1.106 1.652 1.208.316.066.854.028 1.138-.08.364-.138.618-.359 1.855-1.607 1.066-1.076 1.176-1.2 1.31-1.475q.426-.877 0-1.767c-.125-.261-.235-.388-1.045-1.203L20.423 4l.704-.71c.387-.391.737-.773.777-.85.053-.1.075-.227.075-.44.001-.255-.015-.328-.107-.484a1.016 1.016 0 0 0-1.232-.448M19.8 6.22l.779.78-1.039 1.04-1.039 1.04-.791-.79-.79-.789 1.03-1.031A39 39 0 0 1 19 5.44c.011 0 .371.351.8.78M8.06 11.044a4.52 4.52 0 0 1 3.48 2.493c.721 1.489.559 3.304-.411 4.606q-.871 1.172-2.2 1.616a4.4 4.4 0 0 1-2.858 0c-1.981-.664-3.253-2.632-3.038-4.699a4.484 4.484 0 0 1 5.027-4.016"/></svg>