<svg xmlns="http://www.w3.org/2000/svg" width="24" height="24" fill="none" stroke="currentColor" stroke-linecap="round" stroke-linejoin="round" stroke-width="2"><path fill="#000" fill-rule="evenodd" stroke="none" d="M1.67 1.061c-.222.081-.42.248-.542.455-.092.156-.108.229-.107.484 0 .214.022.34.075.44.041.077.301.37.578.651l.504.511-.21.201c-.441.424-.68.803-.854 1.358l-.094.299v13.08l.094.3c.304.976 1.035 1.714 2.026 2.046l.28.094 8.08.011 8.079.01.921.915c.506.503.983.948 1.06.989.099.052.227.074.44.074.258.001.327-.015.492-.112.476-.28.647-.9.373-1.359-.055-.092-4.65-4.715-10.212-10.273C3.3 1.889 2.525 1.125 2.343 1.065a1 1 0 0 0-.673-.004m7.719 1.996c-.227.082-.41.221-.527.401-.278.429-.217.905.163 1.273.294.286-.075.269 5.795.269 5.914 0 5.548-.018 5.859.283.327.318.299-.204.321 5.937l.02 5.48.086.16c.182.336.517.538.894.538s.712-.202.894-.538l.086-.16V5.46l-.094-.3a3.09 3.09 0 0 0-2.025-2.039l-.321-.101-5.5-.009c-4.557-.007-5.526.001-5.651.046M4.646 6.066l.986.985-.186.128c-.102.071-.24.215-.306.321-.106.171-.12.23-.12.497 0 .26.016.33.113.495a.99.99 0 0 0 .972.496.99.99 0 0 0 .781-.517l.056-.11 3.319 3.32L13.58 15h-3.344c-3.628 0-3.559-.004-3.854.221-.08.061-.195.194-.254.295-.091.156-.108.23-.108.484 0 .256.016.328.111.489.125.213.318.375.539.454.122.043.976.054 4.53.055l4.381.002.999 1 1 1.001-6.94-.011-6.94-.01-.184-.108a1.2 1.2 0 0 1-.291-.249c-.238-.312-.225.078-.225-6.602 0-6.574-.007-6.345.198-6.609.099-.129.356-.332.419-.332.023 0 .486.444 1.029.986m9.049.989a1.05 1.05 0 0 0-.567.461c-.091.156-.108.23-.108.484 0 .257.016.327.113.492.518.882 1.865.526 1.865-.492a.99.99 0 0 0-.535-.888 1.17 1.17 0 0 0-.768-.057m4 0a1.05 1.05 0 0 0-.567.461c-.091.156-.108.23-.108.484 0 .257.016.327.113.492.518.882 1.865.526 1.865-.492a.99.99 0 0 0-.535-.888 1.17 1.17 0 0 0-.768-.057m-10 4a1.05 1.05 0 0 0-.567.461c-.091.156-.108.23-.108.484 0 .257.016.327.113.492.518.882 1.865.526 1.865-.492a.99.99 0 0 0-.535-.888 1.17 1.17 0 0 0-.768-.057"/></svg>