<svg xmlns="http://www.w3.org/2000/svg" width="24" height="24" fill="none" stroke="currentColor" stroke-linecap="round" stroke-linejoin="round" stroke-width="2"><path fill="#000" fill-rule="evenodd" stroke="none" d="M3.499 3.043C2.38 3.232 1.461 4.048 1.114 5.16l-.094.3v13.08l.094.3a3.09 3.09 0 0 0 2.046 2.046l.3.094h17.08l.3-.094a3.09 3.09 0 0 0 2.046-2.046l.094-.3V5.46l-.094-.3a3.09 3.09 0 0 0-2.025-2.039l-.321-.101-8.42-.006c-4.631-.003-8.511.01-8.621.029M20.31 5.061a.9.9 0 0 1 .387.242c.31.311.303.235.303 3.144V11H3V8.447c0-2.909-.007-2.833.304-3.144a.9.9 0 0 1 .369-.24c.16-.049 1.357-.058 8.31-.06 7.161-.003 8.147.004 8.327.058M5.695 7.057a1.04 1.04 0 0 0-.567.459c-.091.156-.108.23-.108.484 0 .256.016.328.111.489.125.213.318.375.539.454.219.078 4.441.078 4.66 0 .221-.079.414-.241.539-.454.095-.161.111-.233.111-.489 0-.254-.017-.328-.108-.484a1.02 1.02 0 0 0-.582-.461c-.257-.077-4.347-.076-4.595.002m8-.002a1.05 1.05 0 0 0-.567.461c-.091.156-.108.23-.108.484 0 .257.016.327.113.492.518.882 1.865.526 1.865-.492a.99.99 0 0 0-.535-.888 1.17 1.17 0 0 0-.768-.057m4 0a1.05 1.05 0 0 0-.567.461c-.091.156-.108.23-.108.484 0 .257.016.327.113.492.518.882 1.865.526 1.865-.492a.99.99 0 0 0-.535-.888 1.17 1.17 0 0 0-.768-.057M5.008 14.653l.012 1.653.121.197a.998.998 0 0 0 1.718 0l.121-.197.012-1.653L7.003 13h1.994l.011 1.653.012 1.653.121.197a.998.998 0 0 0 1.718 0l.121-.197.012-1.653.011-1.653h1.994l.011 1.653.012 1.653.121.197a.998.998 0 0 0 1.718 0l.121-.197.012-1.653.011-1.653h1.994l.011 1.653.012 1.653.121.197a.998.998 0 0 0 1.718 0l.121-.197.012-1.653.011-1.653H21v2.554c0 2.771 0 2.774-.221 3.064-.061.08-.194.195-.295.254l-.184.108H3.7l-.184-.108a1.2 1.2 0 0 1-.291-.249c-.229-.3-.225-.25-.225-3.048V13h1.997z"/></svg>