<svg xmlns="http://www.w3.org/2000/svg" width="24" height="24" fill="none" stroke="currentColor" stroke-linecap="round" stroke-linejoin="round" stroke-width="2"><path fill="#000" fill-rule="evenodd" stroke="none" d="M8.643 1.069c-.405.143-.352.038-2.063 4.031-1.558 3.636-1.56 3.64-1.56 3.92 0 .234.018.311.111.469.125.213.318.375.539.454.119.043.681.054 2.74.055L11 10v11H9.946c-1.149 0-1.302.022-1.564.221-.08.061-.195.194-.254.295-.091.156-.108.23-.108.484 0 .256.016.328.111.489.125.213.318.375.539.454s6.439.079 6.66 0 .414-.241.539-.454c.095-.161.111-.233.111-.489 0-.254-.017-.328-.108-.484a1.2 1.2 0 0 0-.254-.295c-.262-.199-.415-.221-1.564-.221H13V10h2.573c2.905 0 2.821.008 3.129-.3.204-.204.315-.504.289-.778-.013-.134-.479-1.266-1.575-3.826-1.395-3.259-1.573-3.653-1.719-3.8-.306-.309-.153-.296-3.714-.293-2.757.003-3.186.011-3.34.066m6.764 4.421 1.067 2.49-2.237.01c-1.23.006-3.244.006-4.474 0l-2.237-.01 1.067-2.49L9.659 3h4.682z"/></svg>