<svg xmlns="http://www.w3.org/2000/svg" width="24" height="24" fill="none" stroke="currentColor" stroke-linecap="round" stroke-linejoin="round" stroke-width="2"><path fill="#000" fill-rule="evenodd" stroke="none" d="M10.64 1.069c-.152.052-.432.312-1.793 1.666-.887.883-1.661 1.686-1.72 1.785-.09.152-.107.226-.107.48 0 .391.08.527.637 1.079l.423.42-2.456 2.46c-1.351 1.354-2.489 2.524-2.528 2.601-.05.096-.074.23-.075.428l-.001.288 1.17 2.343a257 257 0 0 1 1.17 2.356c0 .007-.203.024-.45.036-.864.045-1.416.288-2.014.885-.4.401-.601.718-.771 1.217l-.103.307-.001 1.44-.001 1.44.111.189c.125.213.318.375.539.454s8.438.079 8.66 0 .414-.241.539-.454l.111-.189v-1.42c0-1.377-.003-1.429-.094-1.72a3.07 3.07 0 0 0-2.025-2.035c-.292-.089-.407-.099-1.283-.115l-.963-.018-1.197-2.396L5.22 12.2l2.14-2.14L9.5 7.92l.308.31.308.31.964 3.38c.53 1.859 1.001 3.457 1.046 3.55.099.208.31.387.549.469.23.078.421.077.668-.004.181-.059.541-.408 4.31-4.17 2.371-2.367 4.158-4.181 4.22-4.285.091-.153.107-.226.107-.483 0-.268-.014-.326-.121-.499a1.2 1.2 0 0 0-.28-.307c-.124-.086-.916-.327-3.599-1.094l-3.44-.982-1.5-1.492c-1.334-1.326-1.522-1.499-1.697-1.557a1.03 1.03 0 0 0-.703.003M11.8 4.22l.779.78-.789.79-.79.79-.79-.79L9.421 5l.779-.78c.429-.429.789-.78.8-.78s.371.351.8.78m4.933 2.601 2.354.672-2.794 2.794c-2.497 2.497-2.796 2.784-2.823 2.703a453 453 0 0 1-.688-2.39l-.658-2.3 1.088-1.09c.598-.6 1.106-1.084 1.128-1.076s1.099.318 2.393.687M9.31 19.061a.9.9 0 0 1 .387.242c.251.251.303.448.303 1.144V21H4v-.55c0-.302.02-.62.044-.706a1.03 1.03 0 0 1 .682-.698c.078-.023 1.023-.04 2.257-.042 1.791-.003 2.154.006 2.327.057"/></svg>