<svg xmlns="http://www.w3.org/2000/svg" width="24" height="24" fill="none" stroke="currentColor" stroke-linecap="round" stroke-linejoin="round" stroke-width="2"><path fill="#000" fill-rule="evenodd" stroke="none" d="M3.695 2.055a1.05 1.05 0 0 0-.567.461L3.02 2.7l-.011 3.212c-.007 2.093.003 3.265.03 3.364.06.222.251.463.469.591l.192.113h1.42c1.377 0 1.429-.003 1.72-.094 1.184-.369 2.036-1.397 2.144-2.584L9.011 7h1.547c1.791 0 1.843.007 2.139.303.305.305.303.292.303 2.644V12h-1.073c-1.233 0-1.351.022-1.624.296-.146.147-.326.544-1.723 3.804-1.558 3.636-1.56 3.64-1.56 3.92 0 .234.018.311.111.469.125.213.318.375.539.454.123.044 1.269.054 6.313.055 6.924.002 6.395.026 6.719-.298.204-.204.315-.504.289-.778-.013-.134-.479-1.266-1.575-3.826-1.395-3.259-1.573-3.653-1.719-3.8-.273-.274-.391-.296-1.622-.296h-1.071l-.013-2.29c-.013-2.272-.014-2.292-.106-2.57-.325-.979-1.069-1.72-2.024-2.017-.318-.099-.338-.1-2.086-.114l-1.764-.014-.028-.299c-.106-1.177-.963-2.215-2.122-2.572-.31-.096-.366-.099-1.661-.11-1.034-.009-1.378 0-1.505.041M6.31 4.061c.279.083.546.35.629.629.084.282.089 2.325.006 2.6a1.02 1.02 0 0 1-.461.582c-.176.103-.212.109-.834.121L5 8.007V4h.553c.378 0 .617.019.757.061M17.407 16.49l1.067 2.49-2.237.01c-1.23.006-3.244.006-4.474 0l-2.237-.01 1.067-2.49L11.659 14h4.682z"/></svg>