<svg xmlns="http://www.w3.org/2000/svg" width="24" height="24" fill="none" stroke="currentColor" stroke-linecap="round" stroke-linejoin="round" stroke-width="2"><path fill="#000" fill-rule="evenodd" stroke="none" d="M11.695 1.057a1.04 1.04 0 0 0-.567.459l-.108.184-.011 2.15L10.997 6H8.426c-2.9 0-2.822-.007-3.123.296-.144.145-.401.7-2.223 4.802l-2.06 4.638v.282c0 .236.018.313.111.471.125.213.318.375.539.454.12.043.763.054 3.24.055L8 17v.184c0 .271.141.911.28 1.271.474 1.225 1.55 2.147 2.86 2.451.441.102 1.279.102 1.72 0 1.31-.304 2.386-1.226 2.86-2.451.139-.36.28-1 .28-1.271V17h3.073c3.463 0 3.317.012 3.628-.299a.98.98 0 0 0 .239-1.02c-.033-.093-.964-2.206-2.07-4.695-1.777-4-2.029-4.545-2.173-4.69-.301-.303-.223-.296-3.123-.296h-2.571l-.012-2.15-.011-2.15-.108-.184a1.005 1.005 0 0 0-1.177-.459m7.176 10.373c.838 1.887 1.536 3.462 1.551 3.5.025.067-.392.07-8.422.07s-8.447-.003-8.422-.07c.015-.038.713-1.613 1.551-3.5L6.653 8h10.694zm-4.872 5.66c-.001.17-.12.596-.229.823-.143.296-.561.714-.857.857-.27.13-.663.229-.913.229s-.643-.099-.913-.229c-.296-.143-.714-.561-.857-.857-.109-.227-.228-.653-.229-.823L10 17h4z"/></svg>