<svg xmlns="http://www.w3.org/2000/svg" width="24" height="24" fill="none" stroke="currentColor" stroke-linecap="round" stroke-linejoin="round" stroke-width="2"><path fill="#000" fill-rule="evenodd" stroke="none" d="M10.643 3.069c-.405.143-.352.038-2.063 4.031-1.558 3.636-1.56 3.64-1.56 3.92 0 .234.018.311.111.469.125.213.318.375.539.454.119.043.681.054 2.74.055L13 12v2.054c0 2.229-.004 2.28-.221 2.564-.061.08-.194.195-.295.254l-.184.108-1.644.012-1.645.011-.027-.303c-.107-1.181-.962-2.219-2.123-2.576-.307-.094-.379-.099-1.601-.115-.866-.011-1.346-.002-1.484.029a1.04 1.04 0 0 0-.647.476l-.109.186-.011 3.212c-.007 2.093.003 3.265.03 3.364.06.222.251.463.469.591l.192.113h1.42c1.377 0 1.429-.003 1.72-.094 1.183-.369 2.036-1.397 2.143-2.582l.028-.299 1.784-.014c1.738-.014 1.792-.017 2.065-.107a3.13 3.13 0 0 0 2.025-2.024c.092-.278.093-.298.106-2.57l.013-2.29h2.571c2.903 0 2.819.008 3.127-.3.204-.204.315-.504.289-.778-.013-.134-.479-1.266-1.575-3.826-1.395-3.259-1.573-3.653-1.719-3.8-.306-.309-.153-.296-3.714-.293-2.757.003-3.186.011-3.34.066m6.764 4.421 1.067 2.49-2.237.01c-1.23.006-3.244.006-4.474 0l-2.237-.01 1.067-2.49L11.659 5h4.682zM6.31 16.061c.279.083.546.35.629.629.084.282.089 2.325.006 2.6a1.02 1.02 0 0 1-.461.582c-.176.103-.212.109-.834.121l-.65.014V16h.553c.378 0 .617.019.757.061"/></svg>