<svg xmlns="http://www.w3.org/2000/svg" width="24" height="24" fill="none" stroke="currentColor" stroke-linecap="round" stroke-linejoin="round" stroke-width="2"><path fill="#000" fill-rule="evenodd" stroke="none" d="M11.68 1.058c-.238.089-8.21 5.089-8.387 5.26-.512.496-.307 1.381.377 1.625.123.044 1.598.054 8.313.055 9.105.002 8.379.026 8.693-.279.206-.199.285-.358.312-.618a.95.95 0 0 0-.284-.79c-.194-.182-8.172-5.175-8.399-5.256a.97.97 0 0 0-.625.003M14.273 4.6l2.207 1.38-2.24.01c-1.232.006-3.248.006-4.48 0l-2.24-.01 2.21-1.387c1.216-.763 2.238-1.384 2.273-1.38s1.056.628 2.27 1.387m-8.578 5.457a1.04 1.04 0 0 0-.567.459l-.108.184v7.606l.121.197c.068.11.205.253.311.325.471.316 1.102.171 1.407-.325l.121-.197V10.7l-.108-.184a1.005 1.005 0 0 0-1.177-.459m4 0a1.04 1.04 0 0 0-.567.459l-.108.184v7.606l.121.197c.068.11.205.253.311.325.471.316 1.102.171 1.407-.325l.121-.197V10.7l-.108-.184a1.005 1.005 0 0 0-1.177-.459m4 0a1.04 1.04 0 0 0-.567.459l-.108.184v7.606l.121.197c.068.11.205.253.311.325.471.316 1.102.171 1.407-.325l.121-.197V10.7l-.108-.184a1.005 1.005 0 0 0-1.177-.459m4 0a1.04 1.04 0 0 0-.567.459l-.108.184v7.606l.121.197c.068.11.205.253.311.325.471.316 1.102.171 1.407-.325l.121-.197V10.7l-.108-.184a1.005 1.005 0 0 0-1.177-.459m-15 11a1.04 1.04 0 0 0-.567.459c-.091.156-.108.23-.108.484 0 .256.016.328.111.489.125.213.318.375.539.454.223.08 18.437.08 18.66 0 .221-.079.414-.241.539-.454.095-.161.111-.233.111-.489 0-.254-.017-.328-.108-.484a1.02 1.02 0 0 0-.582-.461c-.263-.079-18.343-.077-18.595.002"/></svg>