<svg xmlns="http://www.w3.org/2000/svg" width="24" height="24" fill="none" stroke="currentColor" stroke-linecap="round" stroke-linejoin="round" stroke-width="2"><path fill="#000" fill-rule="evenodd" stroke="none" d="M11.664 1.06a1.03 1.03 0 0 0-.533.451l-.111.189v10.606l.121.197a.998.998 0 0 0 1.718 0l.121-.197.011-1.844.012-1.844 2.767-1.379c2.199-1.096 2.8-1.412 2.932-1.542a.977.977 0 0 0 0-1.394c-.133-.13-.789-.473-3.284-1.717-2.887-1.438-3.136-1.554-3.358-1.569a1 1 0 0 0-.396.043m2.716 3.25c.737.368 1.34.679 1.34.69 0 .02-2.66 1.36-2.7 1.36-.011 0-.02-.612-.02-1.36s.009-1.36.02-1.36.623.301 1.36.67m-6.76 6.764c-.162.074-.899.488-2 1.124-.33.191-1.31.751-2.177 1.244-1.212.69-1.634.951-1.824 1.127-.915.848-.796 2.362.241 3.07.279.191 8.506 4.887 8.84 5.047.48.229.765.293 1.3.293s.82-.064 1.3-.294c.335-.16 8.562-4.856 8.84-5.046 1.037-.708 1.156-2.221.241-3.07-.239-.222-1.113-.734-5.121-3-1.052-.595-1.201-.643-1.582-.508a.99.99 0 0 0-.379 1.641l.169.168-1.734.99-1.734.991-1.738-.993-1.737-.992.153-.153c.504-.504.389-1.286-.235-1.603a.98.98 0 0 0-.823-.036m.809 4.036c.841.478 1.529.88 1.53.892 0 .012-.779.467-1.732 1.011l-1.733.989-1.717-.981c-.944-.539-1.722-.995-1.727-1.012s.766-.475 1.715-1.018l1.727-.986.204.117zm10.922-.05c.886.504 1.606.93 1.6.948s-.783.473-1.726 1.012L17.51 18l-1.734-.99c-.955-.544-1.735-.999-1.734-1.01 0-.011.779-.464 1.729-1.006l1.729-.986.12.068zm-5.608 3.09c.953.545 1.72 1.002 1.705 1.017-.075.072-3.001 1.728-3.139 1.777a.92.92 0 0 1-.622-.001c-.127-.045-2.386-1.317-3.039-1.712l-.132-.08 1.732-.993c.953-.547 1.739-.995 1.747-.996s.795.443 1.748.988"/></svg>