<svg xmlns="http://www.w3.org/2000/svg" width="24" height="24" fill="none" stroke="currentColor" stroke-linecap="round" stroke-linejoin="round" stroke-width="2"><path fill="#000" fill-rule="evenodd" stroke="none" d="M6.695 1.057a1.04 1.04 0 0 0-.567.459c-.091.156-.108.23-.108.484 0 .256.016.328.111.489.125.213.318.375.539.454.208.074 1.452.074 1.66 0 .221-.079.414-.241.539-.454.095-.161.111-.233.111-.489 0-.254-.017-.328-.108-.484a1.02 1.02 0 0 0-.582-.461c-.24-.072-1.362-.071-1.595.002m-5 3c-.644.201-.896.983-.497 1.534.065.09.205.214.31.276l.192.113L5.91 6l4.21.02-.424.64c-.396.597-.484.7-1.309 1.529l-.884.889-.982-.973c-.85-.843-1.007-.981-1.178-1.039a1 1 0 0 0-1.215.45c-.091.156-.108.23-.108.484s.016.328.107.48c.059.099.523.594 1.03 1.099l.923.92-1.456 1.46c-.8.804-1.489 1.524-1.529 1.601-.052.099-.074.228-.074.44-.001.258.015.327.112.492.28.476.9.647 1.359.373.092-.055.807-.74 1.588-1.522l1.419-1.422 1.461 1.455c.803.8 1.521 1.486 1.595 1.523.454.229 1.046.045 1.312-.407.097-.165.113-.234.112-.492 0-.212-.022-.341-.074-.44-.04-.077-.729-.797-1.529-1.601l-1.456-1.46.921-.92.92-.919.886-1.33.886-1.33.823-.002c.887-.002 1.012-.023 1.263-.215.077-.058.189-.191.25-.294.095-.161.111-.233.111-.489 0-.254-.017-.328-.108-.484a1.02 1.02 0 0 0-.582-.461c-.262-.079-12.343-.077-12.595.002m14.972 7.008c-.399.123-.302-.051-3.082 5.518-2.133 4.273-2.558 5.153-2.575 5.323-.042.441.241.888.65 1.028a.95.95 0 0 0 .68 0c.368-.125.441-.238 1.4-2.166L14.619 19h4.762l.879 1.768c.959 1.928 1.032 2.041 1.4 2.166a.95.95 0 0 0 .68 0c.409-.14.692-.587.65-1.028-.017-.17-.442-1.05-2.575-5.323-2.769-5.547-2.676-5.381-3.075-5.517a.98.98 0 0 0-.673-.001m1.023 4.555c.369.737.67 1.349.67 1.36S17.748 17 17 17s-1.36-.009-1.36-.02c0-.04 1.34-2.7 1.36-2.7.011 0 .322.603.69 1.34"/></svg>