<svg xmlns="http://www.w3.org/2000/svg" width="24" height="24" fill="none" stroke="currentColor" stroke-linecap="round" stroke-linejoin="round" stroke-width="2"><path fill="#000" fill-rule="evenodd" stroke="none" d="M4.499 3.043C3.38 3.232 2.461 4.048 2.114 5.16l-.094.3v9.08l.094.3a3.09 3.09 0 0 0 2.046 2.046l.3.094h15.08l.3-.094a3.09 3.09 0 0 0 2.046-2.046l.094-.3V5.46l-.094-.3a3.09 3.09 0 0 0-2.025-2.039l-.321-.101-7.42-.006c-4.081-.003-7.511.01-7.621.029M19.31 5.061c.279.083.546.35.629.629.053.177.061.751.061 4.311 0 4.457.007 4.318-.221 4.617-.061.08-.194.195-.295.254l-.184.108H4.7l-.184-.108a1.2 1.2 0 0 1-.295-.254c-.228-.299-.221-.16-.221-4.617 0-3.56.008-4.134.061-4.311.079-.269.351-.547.612-.627.291-.089 14.336-.092 14.637-.002m-4.67 2.007c-.152.053-.444.326-1.909 1.785l-1.729 1.722-.731-.72c-.616-.608-.762-.732-.928-.788a1 1 0 0 0-1.215.449c-.092.156-.108.229-.107.484 0 .213.022.341.074.44.102.193 2.202 2.3 2.425 2.433.153.091.225.107.48.106.212 0 .341-.022.44-.074.192-.1 4.299-4.2 4.433-4.425.091-.152.107-.226.107-.48s-.017-.328-.108-.484a1.016 1.016 0 0 0-1.232-.448M1.695 19.057a1.04 1.04 0 0 0-.567.459c-.091.156-.108.23-.108.484 0 .256.016.328.111.489.125.213.318.375.539.454.223.08 20.437.08 20.66 0 .221-.079.414-.241.539-.454.095-.161.111-.233.111-.489 0-.254-.017-.328-.108-.484a1.02 1.02 0 0 0-.582-.461c-.263-.079-20.342-.077-20.595.002"/></svg>