<svg xmlns="http://www.w3.org/2000/svg" width="24" height="24" fill="none" stroke="currentColor" stroke-linecap="round" stroke-linejoin="round" stroke-width="2"><path fill="#000" fill-rule="evenodd" stroke="none" d="M11.2 1.024c-2.047.176-3.415.539-4.969 1.319C2.167 4.382.19 8.329 1.314 12.16c.193.661.574 1.482.929 2.004.086.128.157.251.157.275s-.043.129-.096.233c-.214.422-.283.748-.283 1.328 0 .453.015.588.093.84.255.82.823 1.485 1.587 1.862l.362.177.053.291c.134.732.541 1.666 1.017 2.335.455.641 1.249 1.364 1.6 1.459a1.004 1.004 0 0 0 1.255-1.067c-.032-.309-.158-.501-.55-.834-.654-.556-1.08-1.247-1.335-2.163-.018-.067.027-.105.268-.23.159-.082.402-.247.541-.365l.252-.215.446.157c.788.278 2.07.593 2.41.593.597 0 1.097-.659.94-1.239-.115-.427-.422-.667-1-.78a14 14 0 0 1-1.524-.404l-.424-.14-.023-.428a3.3 3.3 0 0 0-.11-.709 3.07 3.07 0 0 0-2.018-2.015c-.418-.127-1.215-.142-1.619-.03l-.257.071-.066-.087c-.156-.208-.483-.892-.611-1.279-.217-.657-.283-1.085-.283-1.82 0-.672.034-.932.199-1.514.54-1.911 2.226-3.651 4.457-4.598 2.408-1.023 5.278-1.142 7.778-.323 2.378.779 4.19 2.284 5.05 4.195.333.74.462 1.347.465 2.18a5.2 5.2 0 0 1-.216 1.623c-.137.495-.074.867.194 1.151.25.263.72.377 1.028.249.432-.18.585-.392.754-1.043.523-2.021.241-4.004-.825-5.809-1.611-2.728-4.733-4.579-8.449-5.011-.377-.044-1.949-.083-2.26-.056m2.58 9.448a1.54 1.54 0 0 0-.674.681l-.086.187v10.68l.112.228c.294.599 1.024.903 1.636.68.427-.155.465-.202 1.749-2.124l1.202-1.801 2.171-.012 2.17-.011.201-.106c.822-.434.986-1.505.327-2.142-.321-.31-7.443-6.114-7.656-6.239-.16-.094-.242-.112-.55-.124-.333-.013-.381-.004-.602.103m3.634 4.588 2.349 1.92-1.412.022c-1.509.023-1.532.026-1.804.24-.063.049-.42.55-.795 1.113a55 55 0 0 1-.717 1.063c-.02.022-.035-1.315-.035-3.133 0-1.745.015-3.166.033-3.158.017.007 1.089.877 2.381 1.933m-12.08.004c.364.124.666.549.666.937 0 .33-.216.695-.516.871-.156.091-.23.108-.484.108s-.328-.017-.484-.108c-.579-.341-.683-1.098-.215-1.566a.96.96 0 0 1 1.033-.242"/></svg>