<svg xmlns="http://www.w3.org/2000/svg" width="24" height="24" fill="none" stroke="currentColor" stroke-linecap="round" stroke-linejoin="round" stroke-width="2"><path fill="#000" fill-rule="evenodd" stroke="none" d="M10.96 1.043c-4.515.343-8.379 3.006-9.573 6.597a7.67 7.67 0 0 0 .12 5.14c.154.403.522 1.124.749 1.466l.15.225-.099.196c-.217.427-.286.751-.286 1.333 0 .453.015.588.093.84.255.82.823 1.485 1.587 1.862l.362.177.053.291c.134.732.541 1.666 1.017 2.335.455.641 1.249 1.364 1.6 1.459a1.004 1.004 0 0 0 1.255-1.067c-.032-.309-.158-.501-.55-.834-.654-.556-1.08-1.247-1.335-2.163-.018-.067.026-.105.268-.23a3 3 0 0 0 .514-.343l.225-.193.578.193c1.336.445 2.339.62 3.792.66 2.383.065 4.463-.387 6.392-1.388 2.333-1.211 4.011-3.067 4.742-5.246 1.043-3.111-.07-6.475-2.895-8.75-2.329-1.876-5.512-2.806-8.759-2.56m2.485 2.054c3.457.465 6.225 2.386 7.208 5.003a5.54 5.54 0 0 1 0 3.8c-.976 2.598-3.682 4.492-7.153 5.007-.686.101-2.527.102-3.18 0-.645-.1-1.285-.247-1.832-.421l-.468-.149-.026-.448a3.5 3.5 0 0 0-.114-.739 3.06 3.06 0 0 0-2.019-2.024c-.427-.129-1.174-.144-1.613-.031-.348.089-.299.128-.622-.495-.709-1.366-.815-3.075-.279-4.5.982-2.613 3.796-4.568 7.193-4.997.264-.034.57-.069.68-.078.4-.033 1.772.011 2.225.072M5.334 15.064c.364.124.666.549.666.937 0 .33-.216.695-.516.871-.156.091-.23.108-.484.108s-.328-.017-.484-.108c-.579-.341-.683-1.098-.215-1.566a.96.96 0 0 1 1.033-.242"/></svg>