<svg xmlns="http://www.w3.org/2000/svg" width="24" height="24" fill="none" stroke="currentColor" stroke-linecap="round" stroke-linejoin="round" stroke-width="2"><path fill="#000" fill-rule="evenodd" stroke="none" d="M11.5 1.046c-.11.02-.29.065-.4.1-.291.093-8.965 4.04-9.19 4.182C1.378 5.665 1 6.359 1 7c0 .715.454 1.445 1.103 1.771.695.35 8.828 4.03 9.077 4.108.534.166 1.219.15 1.785-.041.249-.084 8.529-3.838 8.975-4.07a2.04 2.04 0 0 0 1.024-1.329c.061-.283.024-.887-.069-1.119a2.17 2.17 0 0 0-.759-.962c-.159-.11-8.412-3.89-9.012-4.127-.532-.21-1.123-.278-1.624-.185m4.843 3.833 4.375 1.991.298.135-4.178 1.901a398 398 0 0 1-4.438 2.002c-.451.173-.382.196-3.083-1.034L4.971 7.896C3.91 7.414 3.042 7.011 3.041 7c-.001-.016 8.519-3.901 8.719-3.976a1.2 1.2 0 0 1 .283-.011c.198.01.682.22 4.3 1.866M1.67 11.061a1 1 0 0 0-.658.836c-.066.639.324 1.409.898 1.776.268.171 8.93 4.1 9.27 4.205.586.18 1.326.145 1.921-.092.269-.107 8.596-3.892 8.866-4.03.275-.14.697-.589.829-.883.3-.665.264-1.221-.102-1.577a.95.95 0 0 0-.984-.241c-.359.108-.604.378-.69.761l-.046.204-4.197 1.91a430 430 0 0 1-4.417 1.993c-.419.16-.21.241-4.981-1.927l-4.354-1.979-.045-.202a1.4 1.4 0 0 0-.133-.344c-.234-.378-.763-.562-1.177-.41m.025 4.996a.99.99 0 0 0-.683.84c-.066.639.324 1.409.898 1.776.268.171 8.93 4.1 9.27 4.205.586.18 1.326.145 1.921-.092.269-.107 8.596-3.892 8.866-4.03.275-.14.697-.589.829-.883.3-.665.264-1.221-.102-1.577a.95.95 0 0 0-.984-.241c-.359.108-.604.378-.69.761l-.046.204-4.197 1.91a430 430 0 0 1-4.417 1.993c-.419.16-.21.241-4.981-1.927l-4.354-1.979-.045-.202c-.086-.382-.331-.652-.69-.76a.9.9 0 0 0-.595.002"/></svg>