<svg xmlns="http://www.w3.org/2000/svg" width="24" height="24" fill="none" stroke="currentColor" stroke-linecap="round" stroke-linejoin="round" stroke-width="2"><path fill="#000" fill-rule="evenodd" stroke="none" d="M3.477 2.073c-.671.176-1.239.75-1.417 1.435C2.009 3.703 2 4.293 2 7.5c0 4.093-.006 3.974.225 4.43.136.269.576.709.845.845.446.226.429.225 3.43.225s2.984.001 3.43-.225c.266-.135.708-.575.841-.838.235-.463.229-.352.228-4.423 0-4.043.002-3.998-.218-4.431-.135-.267-.484-.634-.764-.802-.462-.278-.437-.276-3.517-.276-2.48 0-2.787.007-3.023.068m11 0c-.671.176-1.239.75-1.417 1.435-.049.186-.06.558-.06 1.992 0 1.911.009 2.003.225 2.43.136.269.576.709.845.845.446.226.429.225 3.43.225s2.984.001 3.43-.225c.266-.135.708-.575.841-.838.219-.431.229-.541.228-2.423 0-1.872-.014-2.03-.218-2.431-.135-.267-.484-.634-.764-.802-.462-.278-.437-.276-3.517-.276-2.48 0-2.787.007-3.023.068M9 7.5V11H4V4h5zm11-2V7h-5V4h5zm-5.523 5.573c-.671.176-1.239.75-1.417 1.435-.051.195-.06.785-.06 3.992 0 4.093-.006 3.974.225 4.43.136.269.576.709.845.845.446.226.429.225 3.43.225s2.984.001 3.43-.225c.266-.135.708-.575.841-.838.235-.463.229-.352.228-4.423 0-4.043.002-3.998-.218-4.431-.135-.267-.484-.634-.764-.802-.462-.278-.437-.276-3.517-.276-2.48 0-2.787.007-3.023.068M20 16.5V20h-5v-7h5zM3.477 15.073c-.671.176-1.239.75-1.417 1.435-.049.186-.06.558-.06 1.992 0 1.911.009 2.003.225 2.43.136.269.576.709.845.845.446.226.429.225 3.43.225s2.984.001 3.43-.225c.266-.135.708-.575.841-.838.219-.431.229-.541.228-2.423 0-1.872-.014-2.03-.218-2.431-.135-.267-.484-.634-.764-.802-.462-.278-.437-.276-3.517-.276-2.48 0-2.787.007-3.023.068M9 18.5V20H4v-3h5z"/></svg>