<svg xmlns="http://www.w3.org/2000/svg" width="24" height="24" fill="none" stroke="currentColor" stroke-linecap="round" stroke-linejoin="round" stroke-width="2"><path fill="#000" fill-rule="evenodd" stroke="none" d="M3.477 2.073c-.671.176-1.239.75-1.417 1.435C2.01 3.7 2 4.18 2 6.5c0 3.001-.001 2.984.225 3.43.136.269.576.709.845.845.446.226.429.225 3.43.225s2.984.001 3.43-.225c.266-.135.708-.575.841-.838.229-.452.229-.448.228-3.423 0-2.956-.004-3.009-.218-3.431-.135-.267-.484-.634-.764-.802-.462-.278-.437-.276-3.517-.276-2.48 0-2.787.007-3.023.068m10.218.984a1.04 1.04 0 0 0-.567.459c-.091.156-.108.23-.108.484 0 .256.016.328.111.489.125.213.318.375.539.454s7.439.079 7.66 0 .414-.241.539-.454c.095-.161.111-.233.111-.489 0-.254-.017-.328-.108-.484a1.02 1.02 0 0 0-.582-.461c-.26-.078-7.345-.076-7.595.002M9 6.5V9H4V4h5zm4.695 1.557a1.04 1.04 0 0 0-.567.459c-.091.156-.108.23-.108.484 0 .256.016.328.111.489.125.213.318.375.539.454s7.439.079 7.66 0 .414-.241.539-.454c.095-.161.111-.233.111-.489 0-.254-.017-.328-.108-.484a1.02 1.02 0 0 0-.582-.461c-.26-.078-7.345-.076-7.595.002M3.477 13.073c-.671.176-1.239.75-1.417 1.435C2.01 14.7 2 15.18 2 17.5c0 3.001-.001 2.984.225 3.43.136.269.576.709.845.845.446.226.429.225 3.43.225s2.984.001 3.43-.225c.266-.135.708-.575.841-.838.229-.452.229-.448.228-3.423 0-2.956-.004-3.009-.218-3.431-.135-.267-.484-.634-.764-.802-.462-.278-.437-.276-3.517-.276-2.48 0-2.787.007-3.023.068m10.218.984a1.04 1.04 0 0 0-.567.459c-.091.156-.108.23-.108.484 0 .256.016.328.111.489.125.213.318.375.539.454s7.439.079 7.66 0 .414-.241.539-.454c.095-.161.111-.233.111-.489 0-.254-.017-.328-.108-.484a1.02 1.02 0 0 0-.582-.461c-.26-.078-7.345-.076-7.595.002M9 17.5V20H4v-5h5zm4.695 1.557a1.04 1.04 0 0 0-.567.459c-.091.156-.108.23-.108.484 0 .256.016.328.111.489.125.213.318.375.539.454s7.439.079 7.66 0 .414-.241.539-.454c.095-.161.111-.233.111-.489 0-.254-.017-.328-.108-.484a1.02 1.02 0 0 0-.582-.461c-.26-.078-7.345-.076-7.595.002"/></svg>