<svg xmlns="http://www.w3.org/2000/svg" width="24" height="24" fill="none" stroke="currentColor" stroke-linecap="round" stroke-linejoin="round" stroke-width="2"><path fill="#000" fill-rule="evenodd" stroke="none" d="M3.477 2.073c-.671.176-1.239.75-1.417 1.435C2.008 3.707 2 4.805 2 12c0 9.017-.014 8.458.225 8.93.136.269.576.709.845.845.446.226.429.225 3.43.225s2.984.001 3.43-.225c.266-.135.708-.575.841-.838.244-.48.229.091.228-8.923 0-8.949.011-8.48-.218-8.931-.135-.267-.484-.634-.764-.802-.462-.278-.437-.276-3.517-.276-2.48 0-2.787.007-3.023.068m11 0c-.671.176-1.239.75-1.417 1.435C13.01 3.7 13 4.18 13 6.5c0 3.001-.001 2.984.225 3.43.136.269.576.709.845.845.446.226.429.225 3.43.225s2.984.001 3.43-.225c.266-.135.708-.575.841-.838.229-.452.229-.448.228-3.423 0-2.956-.004-3.009-.218-3.431-.135-.267-.484-.634-.764-.802-.462-.278-.437-.276-3.517-.276-2.48 0-2.787.007-3.023.068M9 12v8H4V4h5zm11-5.5V9h-5V4h5zm-5.523 6.573c-.671.176-1.239.75-1.417 1.435-.05.192-.06.672-.06 2.992 0 3.001-.001 2.984.225 3.43.136.269.576.709.845.845.446.226.429.225 3.43.225s2.984.001 3.43-.225c.266-.135.708-.575.841-.838.229-.452.229-.448.228-3.423 0-2.956-.004-3.009-.218-3.431-.135-.267-.484-.634-.764-.802-.462-.278-.437-.276-3.517-.276-2.48 0-2.787.007-3.023.068M20 17.5V20h-5v-5h5z"/></svg>