<svg xmlns="http://www.w3.org/2000/svg" width="24" height="24" fill="none" stroke="currentColor" stroke-linecap="round" stroke-linejoin="round" stroke-width="2"><path fill="#000" fill-rule="evenodd" stroke="none" d="M13.04 1.025c-1.325.167-2.479.836-3.19 1.848l-.19.271-.26-.048c-1.532-.286-3.009.161-4.091 1.238a4.5 4.5 0 0 0-1.296 2.79l-.024.304-.264.13c-.845.415-1.645 1.19-2.118 2.051a6 6 0 0 0-.511 1.431 5.1 5.1 0 0 0 .299 2.9c.146.352.256.537.95 1.6.614.94.864 1.561.863 2.14-.003.902-.419 1.733-1.616 3.226-.244.305-.477.626-.517.714-.149.326-.063.797.197 1.075.262.28.769.385 1.108.23.088-.04.455-.31.816-.599 1.144-.917 1.73-1.264 2.442-1.448.312-.081.368-.084.752-.041.843.095 1.703.447 2.324.952.921.747 1.729 1.095 2.819 1.212 1.029.111 2.237-.177 3.116-.743a5.13 5.13 0 0 0 1.826-2.009c.122-.241.131-.249.281-.249.22 0 .762-.108 1.141-.228 1.339-.422 2.446-1.528 2.88-2.876.228-.712.282-1.627.134-2.316l-.051-.24.269-.19c1.209-.856 1.927-2.337 1.856-3.83-.037-.765-.253-1.512-.607-2.101l-.138-.229.113-.185c.165-.271.389-.816.493-1.205.08-.297.092-.435.092-1.08 0-.785-.02-.913-.243-1.54-.382-1.072-1.273-2.047-2.303-2.516-.736-.337-1.274-.443-2.092-.412-.736.027-1.193.143-1.831.463l-.47.237-.306-.175a4.7 4.7 0 0 0-1.277-.478c-.313-.065-1.107-.108-1.376-.074m.943 2.034c.171.033.425.113.564.179.249.116.659.404.775.544a1 1 0 0 0 .258.164c.39.182.811.1 1.167-.228.48-.443.939-.635 1.593-.666.873-.041 1.53.249 2.083.921.391.475.556.999.526 1.667-.031.661-.227 1.135-.667 1.613-.328.356-.41.777-.228 1.167.051.11.125.226.164.258.14.116.428.526.544.775.133.282.238.765.237 1.081-.003 1.003-.711 1.984-1.676 2.325q-.447.158-.629.53c-.162.33-.153.577.035.991.213.473.247.629.245 1.14-.002.348-.022.52-.083.707a2.55 2.55 0 0 1-1.799 1.697c-.273.072-.382.079-.865.056-.542-.025-.559-.024-.768.079-.3.147-.436.319-.559.71-.404 1.285-1.303 2.064-2.582 2.236-.755.102-1.625-.168-2.249-.698a6.6 6.6 0 0 0-1.324-.845c-.639-.306-1.182-.47-2.002-.603l-.156-.025 5.622-5.627c3.093-3.095 5.656-5.69 5.696-5.767.052-.099.074-.228.074-.44.001-.255-.015-.328-.107-.484a1.02 1.02 0 0 0-.582-.461c-.235-.071-.347-.069-.613.008-.212.062-.34.186-5.838 5.681l-5.621 5.617-.049-.31c-.138-.875-.489-1.629-1.383-2.969-.423-.635-.591-.963-.683-1.332-.252-1.015.025-2.076.731-2.803.412-.424.798-.657 1.404-.849.385-.121.557-.259.705-.562.105-.213.107-.229.079-.727-.032-.591.024-.947.214-1.352A2.4 2.4 0 0 1 7.32 5.308c.712-.387 1.501-.402 2.29-.042.419.191.673.201 1.007.037.272-.133.37-.257.571-.723.273-.635.642-1.033 1.225-1.32.502-.248.995-.311 1.57-.201"/></svg>