<svg xmlns="http://www.w3.org/2000/svg" width="24" height="24" fill="none" stroke="currentColor" stroke-linecap="round" stroke-linejoin="round" stroke-width="2"><path fill="#000" fill-rule="evenodd" stroke="none" d="M13.695 1.057a1.04 1.04 0 0 0-.567.459c-.091.156-.108.23-.108.484 0 .256.016.328.111.489.061.103.173.236.25.294.273.208.319.213 2.029.215L17 3v1.999l-7.21.01-7.21.011-.24.096c-.704.281-1.167.821-1.302 1.516-.089.457-.045.657.573 2.609.317 1.001.615 1.905.661 2.009.281.637.901 1.236 1.567 1.515.484.202.768.235 2.019.235H7v4.132c0 4.495-.007 4.339.225 4.798.136.269.576.709.845.845.452.229.384.225 3.923.225 3.546 0 3.486.003 3.944-.229.26-.132.702-.574.834-.834.236-.465.229-.314.229-4.813V13h1.142c1.251 0 1.535-.033 2.019-.235.665-.279 1.286-.878 1.567-1.513.045-.104.343-1.008.66-2.01.619-1.953.663-2.153.574-2.61-.135-.696-.602-1.239-1.302-1.515-.23-.09-.29-.095-1.45-.109L19 4.994l-.001-1.107c0-1.196-.029-1.431-.218-1.804-.135-.267-.484-.634-.764-.802-.437-.263-.554-.276-2.457-.276-1.277 0-1.741.013-1.865.052m7.29 6.005c-.014.035-.25.777-.526 1.65-.277.874-.543 1.669-.593 1.768-.104.205-.36.418-.577.478-.085.024-.603.042-1.21.042h-1.061l-.049-.308a2.5 2.5 0 0 0-.163-.551c-.141-.302-.485-.677-.789-.86-.469-.282-.381-.276-4.017-.276s-3.548-.006-4.017.276c-.28.168-.629.535-.764.802-.117.229-.219.598-.219.788v.134l-1.153-.013-1.154-.012-.195-.121a1.2 1.2 0 0 1-.305-.28q-.11-.16-.637-1.819c-.289-.913-.535-1.682-.545-1.71C2.995 7.01 4.81 7 12 7c8.148 0 9.006.006 8.985.062M15 16v5H9V11h6z"/></svg>