<svg xmlns="http://www.w3.org/2000/svg" width="24" height="24" fill="none" stroke="currentColor" stroke-linecap="round" stroke-linejoin="round" stroke-width="2"><path fill="#000" fill-rule="evenodd" stroke="none" d="M3.695 3.057a1.04 1.04 0 0 0-.567.459L3.02 3.7v16.606l.121.197a.998.998 0 0 0 1.718 0l.121-.197V3.7l-.108-.184a1.005 1.005 0 0 0-1.177-.459m8 2a1.04 1.04 0 0 0-.567.459l-.108.184v14.606l.121.197c.068.11.205.253.311.325.471.316 1.102.171 1.407-.325l.121-.197V5.7l-.108-.184a1.005 1.005 0 0 0-1.177-.459m3.969.006a.97.97 0 0 0-.65.847c-.017.211.148.815 2.021 7.362 1.167 4.077 2.078 7.191 2.127 7.271.161.261.52.457.836.457.528 0 1.002-.472 1.002-.998 0-.2-4.055-14.372-4.162-14.545-.227-.367-.76-.546-1.174-.394M7.695 7.057a1.04 1.04 0 0 0-.567.459L7.02 7.7v12.606l.121.197a.998.998 0 0 0 1.718 0l.121-.197V7.7l-.108-.184a1.005 1.005 0 0 0-1.177-.459"/></svg>