<svg xmlns="http://www.w3.org/2000/svg" width="24" height="24" fill="none" stroke="currentColor" stroke-linecap="round" stroke-linejoin="round" stroke-width="2"><path fill="#000" fill-rule="evenodd" stroke="none" d="M3.477 2.073c-.671.176-1.239.75-1.417 1.435-.091.346-.091 16.638 0 16.984.093.36.25.626.536.912s.552.443.912.536c.342.089 6.642.089 6.984 0 .654-.17 1.209-.697 1.433-1.36.044-.129.058-1.1.074-5.079l.021-4.919 1.815 5.019c.998 2.761 1.86 5.118 1.917 5.239.134.289.594.75.893.895.468.227.975.286 1.398.161.401-.119 2.175-.782 2.377-.889.67-.354 1.151-1.293 1.028-2.006-.028-.167-1.134-3.279-2.862-8.055-2.322-6.416-2.844-7.823-2.974-8.014-.432-.635-1.3-1.004-2.014-.857-.12.025-.619.192-1.11.371l-.892.327-.188-.184a2.7 2.7 0 0 0-.422-.324c-.445-.267-.417-.265-4.014-.263-2.922.002-3.257.009-3.495.071M6 12v8H4V4h2zm4 0v8H8V4h2zm6.703-.379a1111 1111 0 0 1 2.736 7.603c.001.038-1.876.756-1.899.727-.056-.07-5.485-15.18-5.462-15.203.039-.042 1.811-.704 1.856-.693.018.004 1.264 3.409 2.769 7.566"/></svg>