<svg xmlns="http://www.w3.org/2000/svg" width="24" height="24" fill="none" stroke="currentColor" stroke-linecap="round" stroke-linejoin="round" stroke-width="2"><path fill="#000" fill-rule="evenodd" stroke="none" d="M11.4 3.041c-1.875.228-3.501 1.545-4.122 3.339-.245.707-.25.76-.267 2.77L6.995 11h-.551c-.796 0-1.077.111-1.316.516-.091.156-.108.23-.108.484 0 .256.016.328.111.489.125.213.318.375.539.454.098.035.353.054.74.055L7 13v6h-.554c-.798 0-1.079.11-1.318.516-.091.156-.108.23-.108.484 0 .256.016.328.111.489.125.213.318.375.539.454.219.078 4.441.078 4.66 0 .221-.079.414-.241.539-.454.095-.161.111-.233.111-.489 0-.254-.017-.328-.108-.484-.239-.406-.52-.516-1.318-.516H9v-6l.59-.002c.387-.001.642-.02.74-.055.221-.079.414-.241.539-.454.095-.161.111-.233.111-.489 0-.254-.017-.328-.108-.484-.239-.406-.52-.516-1.318-.516H9V9.39c.001-1.968.042-2.273.389-2.87.195-.336.795-.936 1.131-1.131.655-.38 1.484-.478 2.299-.269.662.169 1.308.63 1.7 1.214.338.504.551.644.981.644.311 0 .471-.063.693-.272.162-.153.232-.28.286-.521.063-.284-.01-.532-.276-.936a5.07 5.07 0 0 0-3.21-2.149 6.7 6.7 0 0 0-1.593-.059m2.295 8.016a1.04 1.04 0 0 0-.567.459c-.091.156-.108.23-.108.484 0 .256.016.328.111.489.125.213.318.375.539.454.098.035.353.054.74.055L15 13v6h-.554c-.798 0-1.079.11-1.318.516-.091.156-.108.23-.108.484 0 .256.016.328.111.489.125.213.318.375.539.454.219.078 4.441.078 4.66 0 .221-.079.414-.241.539-.454.095-.161.111-.233.111-.489 0-.254-.017-.328-.108-.484-.239-.406-.52-.516-1.318-.516h-.552l-.011-3.65-.011-3.65-.108-.184a1.02 1.02 0 0 0-.582-.461c-.251-.076-2.353-.074-2.595.002"/></svg>