<svg xmlns="http://www.w3.org/2000/svg" width="24" height="24" fill="none" stroke="currentColor" stroke-linecap="round" stroke-linejoin="round" stroke-width="2"><path fill="#000" fill-rule="evenodd" stroke="none" d="M11.54 1.023c-.825.079-1.29.177-1.92.404A7.01 7.01 0 0 0 5.456 5.53c-.269.704-.405 1.39-.443 2.233-.048 1.064.148 1.987.611 2.877.272.523.602.967 1.159 1.56.718.765.984 1.179 1.2 1.867.148.471.261.645.516.795.523.306 1.242.045 1.435-.522.087-.255.083-.419-.016-.777-.272-.983-.723-1.716-1.695-2.76-.832-.892-1.14-1.532-1.208-2.513a6 6 0 0 1 .146-1.53 5.05 5.05 0 0 1 3.599-3.599c.933-.241 2.115-.178 2.992.159a5.08 5.08 0 0 1 3.094 3.46c.04.154.094.514.12.8.073.801-.049 1.503-.377 2.16-.188.377-.331.564-.848 1.105-.959 1.005-1.39 1.702-1.646 2.661-.125.469-.113.727.043.995.357.609 1.25.661 1.659.096a1.8 1.8 0 0 0 .202-.487c.182-.684.462-1.122 1.221-1.91.779-.809 1.155-1.394 1.452-2.26.235-.688.304-1.12.305-1.92.001-.964-.098-1.551-.404-2.4-.858-2.383-2.992-4.147-5.471-4.522-.376-.057-1.289-.101-1.562-.075M8.695 17.057a1.04 1.04 0 0 0-.567.459c-.091.156-.108.23-.108.484 0 .256.016.328.111.489.125.213.318.375.539.454s6.439.079 6.66 0 .414-.241.539-.454c.095-.161.111-.233.111-.489 0-.254-.017-.328-.108-.484a1.02 1.02 0 0 0-.582-.461c-.26-.078-6.345-.076-6.595.002m1 4a1.04 1.04 0 0 0-.567.459c-.091.156-.108.23-.108.484 0 .256.016.328.111.489.125.213.318.375.539.454.219.078 4.441.078 4.66 0 .221-.079.414-.241.539-.454.095-.161.111-.233.111-.489 0-.254-.017-.328-.108-.484a1.02 1.02 0 0 0-.582-.461c-.257-.077-4.347-.076-4.595.002"/></svg>