<svg xmlns="http://www.w3.org/2000/svg" width="24" height="24" fill="none" stroke="currentColor" stroke-linecap="round" stroke-linejoin="round" stroke-width="2"><path fill="#000" fill-rule="evenodd" stroke="none" d="M1.67 1.061c-.222.081-.42.248-.542.455-.092.156-.108.229-.107.484 0 .212.022.341.074.44.04.077.97 1.04 2.066 2.14l1.993 2-.078.34c-.28 1.226-.028 2.776.642 3.941.257.447.499.754 1.03 1.307.731.761 1.015 1.199 1.235 1.899.148.471.261.645.516.795.523.306 1.242.045 1.435-.522.087-.255.083-.419-.016-.777-.277-.999-.75-1.762-1.727-2.786a8 8 0 0 1-.577-.657c-.292-.426-.533-1.035-.595-1.5l-.027-.2 7.214 7.206c3.968 3.963 7.277 7.239 7.354 7.279.099.052.228.074.44.074.258.001.327-.015.492-.112.476-.28.647-.9.373-1.359-.055-.092-4.65-4.715-10.212-10.273C3.3 1.889 2.525 1.125 2.343 1.065a1 1 0 0 0-.673-.004m9.75-.02a6.9 6.9 0 0 0-2.836.868c-.669.375-.871.627-.874 1.086-.002.404.208.729.59.91.303.143.546.129.885-.051.987-.524 1.259-.631 1.92-.757.41-.079 1.289-.09 1.701-.021a5.35 5.35 0 0 1 2.199.943c1.559 1.17 2.318 3.237 1.853 5.046-.091.353-.425.999-.68 1.315-.286.355-.34.459-.367.72-.04.391.153.765.5.969.255.15.655.157.94.017.421-.207 1.11-1.242 1.425-2.138.245-.698.302-1.077.299-1.988-.002-.726-.014-.875-.105-1.3a7.1 7.1 0 0 0-1.064-2.546c-.697-1.042-1.552-1.787-2.721-2.372a6.6 6.6 0 0 0-2.566-.701c-.581-.044-.565-.044-1.099 0M8.695 17.057a1.04 1.04 0 0 0-.567.459c-.091.156-.108.23-.108.484 0 .256.016.328.111.489.125.213.318.375.539.454s6.439.079 6.66 0 .414-.241.539-.454c.095-.161.111-.233.111-.489 0-.254-.017-.328-.108-.484a1.02 1.02 0 0 0-.582-.461c-.26-.078-6.345-.076-6.595.002m1 4a1.04 1.04 0 0 0-.567.459c-.091.156-.108.23-.108.484 0 .256.016.328.111.489.125.213.318.375.539.454.219.078 4.441.078 4.66 0 .221-.079.414-.241.539-.454.095-.161.111-.233.111-.489 0-.254-.017-.328-.108-.484a1.02 1.02 0 0 0-.582-.461c-.257-.077-4.347-.076-4.595.002"/></svg>