<svg xmlns="http://www.w3.org/2000/svg" width="24" height="24" fill="none" stroke="currentColor" stroke-linecap="round" stroke-linejoin="round" stroke-width="2"><path fill="#000" fill-rule="evenodd" stroke="none" d="M6.38 6.043c-2.596.256-4.699 2.172-5.266 4.797-.13.606-.13 1.714 0 2.32.522 2.418 2.289 4.192 4.706 4.723.359.079.546.09 1.842.106.971.012 1.495.004 1.604-.025.231-.063.471-.251.601-.472.097-.165.113-.235.113-.492 0-.254-.017-.328-.108-.484a1.2 1.2 0 0 0-.254-.295C9.35 16.017 9.217 16 7.87 16c-1.093 0-1.285-.01-1.643-.083a3.99 3.99 0 0 1-3.169-3.312 3.4 3.4 0 0 1 0-1.21C3.28 9.926 4.324 8.69 5.755 8.203c.469-.159.939-.202 2.225-.205 1.29-.002 1.374-.013 1.639-.215.077-.058.189-.191.25-.294.095-.161.111-.233.111-.489 0-.254-.017-.328-.108-.484a1.02 1.02 0 0 0-.582-.461c-.204-.062-2.323-.071-2.91-.012m8.315.014a1.04 1.04 0 0 0-.567.459c-.091.156-.108.23-.108.484 0 .256.016.328.111.489.061.103.173.236.25.294.265.202.349.213 1.639.215 1.649.003 2.042.068 2.82.466.899.46 1.622 1.307 1.957 2.291.1.295.203.925.203 1.245 0 .322-.103.951-.204 1.245-.475 1.387-1.601 2.383-3.023 2.672-.358.073-.55.083-1.643.083-1.347 0-1.48.017-1.748.221-.08.061-.195.194-.254.295-.091.156-.108.23-.108.484 0 .257.016.327.113.492.13.221.37.409.601.472.109.029.633.037 1.604.025 1.296-.016 1.483-.027 1.842-.106 2.423-.533 4.186-2.302 4.705-4.723.13-.606.13-1.714 0-2.32-.259-1.209-.776-2.18-1.616-3.035a5.86 5.86 0 0 0-3.705-1.766c-.594-.057-2.669-.045-2.869.018m-7 5a1.04 1.04 0 0 0-.567.459c-.091.156-.108.23-.108.484 0 .256.016.328.111.489.125.213.318.375.539.454s8.438.079 8.66 0 .414-.241.539-.454c.095-.161.111-.233.111-.489 0-.254-.017-.328-.108-.484a1.02 1.02 0 0 0-.582-.461c-.261-.079-8.344-.076-8.595.002"/></svg>