<svg xmlns="http://www.w3.org/2000/svg" width="24" height="24" fill="none" stroke="currentColor" stroke-linecap="round" stroke-linejoin="round" stroke-width="2"><path fill="#000" fill-rule="evenodd" stroke="none" d="M1.67 1.061c-.222.081-.42.248-.542.455-.091.156-.108.23-.108.484s.016.327.107.48c.06.099.937 1.008 1.95 2.02C4.091 5.512 4.92 6.353 4.92 6.37c0 .016-.023.03-.052.03s-.204.073-.39.163C2.705 7.42 1.53 8.914 1.114 10.84c-.075.351-.09.541-.09 1.16s.015.809.09 1.16c.522 2.418 2.289 4.192 4.706 4.723.359.079.546.09 1.842.106.971.012 1.495.004 1.604-.025.231-.063.471-.251.601-.472.097-.165.113-.235.113-.492 0-.254-.017-.328-.108-.484a1.2 1.2 0 0 0-.254-.295C9.35 16.017 9.217 16 7.87 16c-1.093 0-1.285-.01-1.643-.083a3.99 3.99 0 0 1-3.169-3.312 3.4 3.4 0 0 1 0-1.21A3.99 3.99 0 0 1 5.16 8.464c.426-.218.762-.333 1.145-.393l.3-.046 1.487 1.487L9.58 11h-.844c-.924 0-1.102.029-1.354.221-.08.061-.195.194-.254.295-.091.156-.108.23-.108.484 0 .256.016.328.111.489.125.213.318.375.539.454.117.042.564.054 2.03.055l1.88.002 4.88 4.883c2.816 2.817 4.956 4.928 5.06 4.99.153.091.226.107.48.107.257 0 .327-.016.492-.113.476-.28.647-.9.373-1.359-.055-.092-4.65-4.715-10.212-10.273C3.3 1.889 2.525 1.125 2.343 1.065a1 1 0 0 0-.673-.004m13.025 4.994a.996.996 0 0 0-.497 1.536c.065.09.205.214.31.276l.192.113 1.46.025c1.664.028 1.83.052 2.503.371.489.232.818.459 1.16.801a4.2 4.2 0 0 1 1.064 1.885c.133.535.125 1.406-.018 1.946a4.5 4.5 0 0 1-.595 1.28c-.219.323-.29.546-.261.822.075.733.924 1.131 1.533.718.503-.341 1.153-1.665 1.359-2.768.11-.586.101-1.693-.018-2.234-.292-1.336-.99-2.535-1.946-3.344a6.2 6.2 0 0 0-2.761-1.365c-.362-.079-.54-.088-1.86-.101-1.146-.012-1.496-.003-1.625.039"/></svg>