<svg xmlns="http://www.w3.org/2000/svg" width="24" height="24" fill="none" stroke="currentColor" stroke-linecap="round" stroke-linejoin="round" stroke-width="2"><path fill="#000" fill-rule="evenodd" stroke="none" d="M2.695 5.057a1.04 1.04 0 0 0-.567.459L2.02 5.7v10.88l.105.307c.171.5.371.817.771 1.217.401.401.719.602 1.217.77l.307.104 1.846.013c1.217.009 1.9 0 2.004-.028.228-.062.468-.251.597-.471.097-.165.113-.235.113-.492 0-.254-.017-.328-.108-.484a1.2 1.2 0 0 0-.254-.295C8.341 17.01 8.248 17 6.481 17c-1.824 0-1.874-.006-2.151-.275-.316-.307-.309-.254-.322-2.175-.006-.94-.006-1.71 0-1.71.007.001.102.031.212.069.174.058.442.069 2.046.082 1.22.009 1.9 0 2.004-.028.228-.062.468-.251.597-.471.097-.165.113-.235.113-.492 0-.254-.017-.328-.108-.484a1.2 1.2 0 0 0-.254-.295C8.341 11.01 8.248 11 6.481 11c-1.824 0-1.874-.006-2.151-.275-.323-.314-.308-.184-.33-2.745L3.98 5.7l-.108-.184a1.005 1.005 0 0 0-1.177-.459m5 0a1.04 1.04 0 0 0-.567.459c-.091.156-.108.23-.108.484 0 .256.016.328.111.489.125.213.318.375.539.454.223.079 13.437.079 13.66 0 .221-.079.414-.241.539-.454.095-.161.111-.233.111-.489 0-.254-.017-.328-.108-.484a1.02 1.02 0 0 0-.582-.461c-.262-.079-13.343-.077-13.595.002m5 6a1.04 1.04 0 0 0-.567.459c-.091.156-.108.23-.108.484 0 .256.016.328.111.489.125.213.318.375.539.454s8.438.079 8.66 0 .414-.241.539-.454c.095-.161.111-.233.111-.489 0-.254-.017-.328-.108-.484a1.02 1.02 0 0 0-.582-.461c-.261-.079-8.344-.076-8.595.002m0 6a1.04 1.04 0 0 0-.567.459c-.091.156-.108.23-.108.484 0 .256.016.328.111.489.125.213.318.375.539.454s8.438.079 8.66 0 .414-.241.539-.454c.095-.161.111-.233.111-.489 0-.254-.017-.328-.108-.484a1.02 1.02 0 0 0-.582-.461c-.261-.079-8.344-.076-8.595.002"/></svg>