<svg xmlns="http://www.w3.org/2000/svg" width="24" height="24" fill="none" stroke="currentColor" stroke-linecap="round" stroke-linejoin="round" stroke-width="2"><path fill="#000" fill-rule="evenodd" stroke="none" d="M2.695 5.057a1.04 1.04 0 0 0-.567.459c-.091.156-.108.23-.108.484 0 .256.016.328.111.489.125.213.318.375.539.454.223.08 18.437.08 18.66 0 .221-.079.414-.241.539-.454.095-.161.111-.233.111-.489 0-.254-.017-.328-.108-.484a1.02 1.02 0 0 0-.582-.461c-.263-.079-18.343-.077-18.595.002m8 4a1.04 1.04 0 0 0-.567.459l-.108.184-.011 2.24c-.011 2.008-.005 2.258.054 2.414.092.241.28.442.517.552l.2.093 2.2-.001c1.734-.001 2.232-.013 2.35-.055.221-.079.414-.241.539-.454.095-.161.111-.233.111-.489 0-.254-.017-.328-.108-.484a1.2 1.2 0 0 0-.254-.295c-.252-.192-.43-.221-1.353-.221h-.843l.299-.303a4.1 4.1 0 0 1 1.787-1.066c.266-.076.41-.09.972-.09.785-.001.99.043 1.58.339a3.55 3.55 0 0 1 1.827 2.22c.131.487.123 1.375-.018 1.905-.315 1.186-1.182 2.199-2.28 2.662a4 4 0 0 1-2.349.254c-.967-.2-1.776-.687-2.363-1.425-.244-.307-.462-.444-.758-.479a.98.98 0 0 0-.986.491c-.095.161-.113.237-.113.472 0 .357.084.529.47.971.861.982 1.909 1.597 3.266 1.917.424.1.532.109 1.244.108.861-.001 1.184-.051 1.92-.298a5.98 5.98 0 0 0 4.069-5.402c.102-2.27-1.202-4.393-3.249-5.289-.739-.324-1.194-.425-2.037-.455-1.043-.037-1.749.105-2.713.545-.543.249-.989.562-1.577 1.106l-.408.378-.012-.931c-.013-.928-.013-.93-.121-1.114a1.005 1.005 0 0 0-1.177-.459m-8 2a1.04 1.04 0 0 0-.567.459c-.091.156-.108.23-.108.484 0 .256.016.328.111.489.125.213.318.375.539.454.219.078 4.441.078 4.66 0 .221-.079.414-.241.539-.454.095-.161.111-.233.111-.489 0-.254-.017-.328-.108-.484a1.02 1.02 0 0 0-.582-.461c-.257-.077-4.347-.076-4.595.002m0 6a1.04 1.04 0 0 0-.567.459c-.091.156-.108.23-.108.484 0 .256.016.328.111.489.125.213.318.375.539.454.219.078 4.441.078 4.66 0 .221-.079.414-.241.539-.454.095-.161.111-.233.111-.489 0-.254-.017-.328-.108-.484a1.02 1.02 0 0 0-.582-.461c-.257-.077-4.347-.076-4.595.002"/></svg>