<svg xmlns="http://www.w3.org/2000/svg" width="24" height="24" fill="none" stroke="currentColor" stroke-linecap="round" stroke-linejoin="round" stroke-width="2"><path fill="#000" fill-rule="evenodd" stroke="none" d="M2.695 5.057a1.04 1.04 0 0 0-.567.459c-.091.156-.108.23-.108.484 0 .256.016.328.111.489.125.213.318.375.539.454.223.079 13.437.079 13.66 0 .221-.079.414-.241.539-.454.095-.161.111-.233.111-.489 0-.254-.017-.328-.108-.484a1.02 1.02 0 0 0-.582-.461c-.262-.079-13.343-.077-13.595.002m0 6a1.04 1.04 0 0 0-.567.459c-.091.156-.108.23-.108.484 0 .256.016.328.111.489.125.213.318.375.539.454s9.438.079 9.66 0 .414-.241.539-.454c.095-.161.111-.233.111-.489 0-.254-.017-.328-.108-.484a1.02 1.02 0 0 0-.582-.461c-.261-.079-9.344-.077-9.595.002m13 0a1.04 1.04 0 0 0-.567.459l-.108.184-.011 3.217c-.01 2.906-.004 3.236.055 3.416.161.484.745.781 1.22.621.075-.025 1.321-.756 2.768-1.623 2.825-1.693 2.809-1.682 2.912-2.067.095-.353-.046-.805-.317-1.017-.277-.215-5.227-3.158-5.387-3.202a.9.9 0 0 0-.565.012m2.299 3.309c.52.311.967.585.993.61.035.033-.21.198-.97.652L17 16.236v-1.218c0-.67.011-1.218.024-1.218s.449.254.97.566M2.695 17.057a1.04 1.04 0 0 0-.567.459c-.091.156-.108.23-.108.484 0 .256.016.328.111.489.125.213.318.375.539.454s9.438.079 9.66 0 .414-.241.539-.454c.095-.161.111-.233.111-.489 0-.254-.017-.328-.108-.484a1.02 1.02 0 0 0-.582-.461c-.261-.079-9.344-.077-9.595.002"/></svg>