<svg xmlns="http://www.w3.org/2000/svg" width="24" height="24" fill="none" stroke="currentColor" stroke-linecap="round" stroke-linejoin="round" stroke-width="2"><path fill="#000" fill-rule="evenodd" stroke="none" d="M15.64 3.069c-.149.052-.378.259-1.315 1.187C13.078 5.491 13.001 5.593 13.001 6c0 .405.079.51 1.305 1.726.613.608 1.177 1.138 1.254 1.179.099.052.227.074.44.074.258.001.327-.015.492-.112a.99.99 0 0 0 .496-.972c-.027-.263-.109-.418-.359-.683L16.428 7h1.339c1.536 0 1.635.015 1.912.283.326.317.299-.181.321 5.74l.02 5.283.121.197a.998.998 0 0 0 1.718 0l.121-.197V7.46l-.094-.3a3.08 3.08 0 0 0-2.025-2.037c-.314-.097-.355-.099-1.874-.114l-1.553-.015.198-.209c.292-.309.346-.432.347-.785.001-.255-.015-.328-.107-.484a1.014 1.014 0 0 0-1.232-.447M2.695 5.057a1.04 1.04 0 0 0-.567.459c-.091.156-.108.23-.108.484 0 .256.016.328.111.489.125.213.318.375.539.454s7.439.079 7.66 0 .414-.241.539-.454c.095-.161.111-.233.111-.489 0-.254-.017-.328-.108-.484a1.02 1.02 0 0 0-.582-.461c-.26-.078-7.345-.076-7.595.002m0 6a1.04 1.04 0 0 0-.567.459c-.091.156-.108.23-.108.484 0 .256.016.328.111.489.125.213.318.375.539.454.123.044 1.351.053 6.83.053s6.707-.009 6.83-.053c.221-.079.414-.241.539-.454.095-.161.111-.233.111-.489 0-.254-.017-.328-.108-.484a1.02 1.02 0 0 0-.582-.461c-.262-.079-13.343-.077-13.595.002m0 6a1.04 1.04 0 0 0-.567.459c-.091.156-.108.23-.108.484 0 .256.016.328.111.489.125.213.318.375.539.454.123.044 1.351.053 6.83.053s6.707-.009 6.83-.053c.221-.079.414-.241.539-.454.095-.161.111-.233.111-.489 0-.254-.017-.328-.108-.484a1.02 1.02 0 0 0-.582-.461c-.262-.079-13.343-.077-13.595.002"/></svg>