<svg xmlns="http://www.w3.org/2000/svg" width="24" height="24" fill="none" stroke="currentColor" stroke-linecap="round" stroke-linejoin="round" stroke-width="2"><path fill="#000" fill-rule="evenodd" stroke="none" d="M2.695 5.057a1.04 1.04 0 0 0-.567.459c-.091.156-.108.23-.108.484 0 .256.016.328.111.489.125.213.318.375.539.454.223.079 13.437.079 13.66 0 .221-.079.414-.241.539-.454.095-.161.111-.233.111-.489 0-.254-.017-.328-.108-.484a1.02 1.02 0 0 0-.582-.461c-.262-.079-13.343-.077-13.595.002M14.67 9.061c-.222.081-.42.248-.542.455-.092.156-.108.229-.107.484 0 .213.022.34.075.44.04.077.39.46.777.85l.704.71-.704.71c-.387.391-.734.771-.772.845-.229.453-.045 1.046.407 1.312.165.097.234.113.492.112.213 0 .34-.022.44-.075.077-.04.46-.39.85-.777l.71-.704.71.704c.391.387.773.737.85.777.1.053.227.075.44.075.258.001.327-.015.492-.112.222-.13.409-.369.473-.603a1.2 1.2 0 0 0-.066-.709c-.038-.074-.385-.454-.772-.845l-.704-.71.704-.71c.387-.39.737-.773.777-.85.053-.1.075-.227.075-.44.001-.255-.015-.328-.107-.484a1 1 0 0 0-1.215-.449c-.166.056-.312.18-.927.787l-.73.72-.73-.72c-.615-.607-.761-.731-.927-.787a1 1 0 0 0-.673-.006M2.695 11.057a1.04 1.04 0 0 0-.567.459c-.091.156-.108.23-.108.484 0 .256.016.328.111.489.125.213.318.375.539.454s8.438.079 8.66 0 .414-.241.539-.454c.095-.161.111-.233.111-.489 0-.254-.017-.328-.108-.484a1.02 1.02 0 0 0-.582-.461c-.261-.079-8.344-.076-8.595.002m0 6a1.04 1.04 0 0 0-.567.459c-.091.156-.108.23-.108.484 0 .256.016.328.111.489.125.213.318.375.539.454.123.044 1.351.053 6.83.053s6.707-.009 6.83-.053c.221-.079.414-.241.539-.454.095-.161.111-.233.111-.489 0-.254-.017-.328-.108-.484a1.02 1.02 0 0 0-.582-.461c-.262-.079-13.343-.077-13.595.002"/></svg>