<svg xmlns="http://www.w3.org/2000/svg" width="24" height="24" fill="none" stroke="currentColor" stroke-linecap="round" stroke-linejoin="round" stroke-width="2"><path fill="#000" fill-rule="evenodd" stroke="none" d="M3.695 5.057a1.04 1.04 0 0 0-.567.459c-.092.156-.108.23-.108.487 0 .268.014.326.121.5.147.239.437.443.68.479L4 7.009v1.978l-.214.048c-.271.061-.516.24-.657.479-.093.158-.109.231-.109.486 0 .256.016.328.111.489.125.213.318.375.539.454.215.077 2.445.077 2.66 0 .221-.079.414-.241.539-.454.095-.161.111-.233.111-.489 0-.255-.016-.328-.109-.486a1.04 1.04 0 0 0-.655-.478l-.213-.048-.011-1.644L5.98 5.7l-.108-.184a1.02 1.02 0 0 0-.582-.461c-.24-.072-1.362-.071-1.595.002m6 0a1.04 1.04 0 0 0-.567.459c-.091.156-.108.23-.108.484 0 .256.016.328.111.489.125.213.318.375.539.454.123.044 1.186.053 5.83.053s5.707-.009 5.83-.053c.221-.079.414-.241.539-.454.095-.161.111-.233.111-.489 0-.254-.017-.328-.108-.484a1.02 1.02 0 0 0-.582-.461c-.262-.079-11.343-.077-11.595.002m0 6a1.04 1.04 0 0 0-.567.459c-.091.156-.108.23-.108.484 0 .256.016.328.111.489.125.213.318.375.539.454.123.044 1.186.053 5.83.053s5.707-.009 5.83-.053c.221-.079.414-.241.539-.454.095-.161.111-.233.111-.489 0-.254-.017-.328-.108-.484a1.02 1.02 0 0 0-.582-.461c-.262-.079-11.343-.077-11.595.002M4.3 12.856C3.465 13.018 3 13.427 3 14c0 .396.291.808.66.934.268.091.453.083.764-.034.304-.115.409-.123.518-.043.076.056.076.061.007.191-.04.073-.36.437-.713.808-.839.884-1.04 1.178-1.175 1.724-.161.647.074 1.172.609 1.363.215.077 2.445.077 2.66 0 .221-.079.414-.241.539-.454.095-.162.111-.233.111-.492 0-.268-.014-.326-.12-.495a1 1 0 0 0-.689-.473l-.243-.046.241-.261c.429-.467.659-.852.766-1.285a1.9 1.9 0 0 0-.016-1.02c-.286-1.119-1.418-1.793-2.619-1.561m5.395 4.201a1.04 1.04 0 0 0-.567.459c-.091.156-.108.23-.108.484 0 .256.016.328.111.489.125.213.318.375.539.454.123.044 1.186.053 5.83.053s5.707-.009 5.83-.053c.221-.079.414-.241.539-.454.095-.161.111-.233.111-.489 0-.254-.017-.328-.108-.484a1.02 1.02 0 0 0-.582-.461c-.262-.079-11.343-.077-11.595.002"/></svg>