<svg xmlns="http://www.w3.org/2000/svg" width="24" height="24" fill="none" stroke="currentColor" stroke-linecap="round" stroke-linejoin="round" stroke-width="2"><path fill="#000" fill-rule="evenodd" stroke="none" d="M2.67 4.061c-.222.081-.42.248-.542.455-.091.156-.108.23-.108.484s.016.328.107.48c.059.099.523.594 1.03 1.099l.922.92-.955.96c-.525.529-.986 1.022-1.023 1.096-.229.454-.045 1.046.407 1.312.165.097.235.113.492.113.254 0 .328-.016.48-.107.099-.059.778-.707 1.508-1.44C6.4 8.016 6.479 7.917 6.486 7.549c.005-.255-.043-.429-.168-.609-.061-.088-.711-.756-1.444-1.484-1.179-1.17-1.357-1.332-1.531-1.39a1 1 0 0 0-.673-.005m7.025.996a1.04 1.04 0 0 0-.567.459c-.091.156-.108.23-.108.484 0 .256.016.328.111.489.125.213.318.375.539.454.123.044 1.186.053 5.83.053s5.707-.009 5.83-.053c.221-.079.414-.241.539-.454.095-.161.111-.233.111-.489 0-.254-.017-.328-.108-.484a1.02 1.02 0 0 0-.582-.461c-.262-.079-11.343-.077-11.595.002m0 6a1.04 1.04 0 0 0-.567.459c-.091.156-.108.23-.108.484 0 .256.016.328.111.489.125.213.318.375.539.454.123.044 1.186.053 5.83.053s5.707-.009 5.83-.053c.221-.079.414-.241.539-.454.095-.161.111-.233.111-.489 0-.254-.017-.328-.108-.484a1.02 1.02 0 0 0-.582-.461c-.262-.079-11.343-.077-11.595.002M2.67 13.061c-.222.081-.42.248-.542.455-.091.156-.108.23-.108.484s.016.328.107.48c.059.099.523.594 1.03 1.099l.922.92-.955.96c-.525.529-.986 1.022-1.023 1.096-.229.454-.045 1.046.407 1.312.165.097.235.113.492.113.254 0 .328-.016.48-.107.099-.059.778-.707 1.508-1.44 1.412-1.417 1.491-1.516 1.498-1.884.005-.255-.043-.429-.168-.609-.061-.088-.711-.756-1.444-1.484-1.179-1.17-1.357-1.332-1.531-1.39a1 1 0 0 0-.673-.005m7.025 3.996a1.04 1.04 0 0 0-.567.459c-.091.156-.108.23-.108.484 0 .256.016.328.111.489.125.213.318.375.539.454.123.044 1.186.053 5.83.053s5.707-.009 5.83-.053c.221-.079.414-.241.539-.454.095-.161.111-.233.111-.489 0-.254-.017-.328-.108-.484a1.02 1.02 0 0 0-.582-.461c-.262-.079-11.343-.077-11.595.002"/></svg>