<svg xmlns="http://www.w3.org/2000/svg" width="24" height="24" fill="none" stroke="currentColor" stroke-linecap="round" stroke-linejoin="round" stroke-width="2"><path fill="#000" fill-rule="evenodd" stroke="none" d="M2.695 5.057a1.04 1.04 0 0 0-.567.459c-.091.156-.108.23-.108.484 0 .256.016.328.111.489.125.213.318.375.539.454.223.079 13.437.079 13.66 0 .221-.079.414-.241.539-.454.095-.161.111-.233.111-.489 0-.254-.017-.328-.108-.484a1.02 1.02 0 0 0-.582-.461c-.262-.079-13.343-.077-13.595.002m18 0a1.04 1.04 0 0 0-.567.459l-.108.184-.02 5.28c-.016 4.104-.031 5.305-.07 5.393a1.15 1.15 0 0 1-.446.499l-.184.108-1.438.012-1.437.012.202-.214c.297-.314.351-.436.352-.79.001-.255-.015-.328-.107-.484a1 1 0 0 0-1.215-.45c-.172.058-.34.207-1.332 1.19-1.247 1.235-1.324 1.337-1.324 1.744 0 .405.079.51 1.305 1.726.613.608 1.175 1.136 1.249 1.173.454.229 1.046.045 1.312-.407.097-.165.113-.234.112-.492-.001-.353-.055-.476-.347-.785l-.198-.209 1.573-.015c1.513-.014 1.584-.018 1.853-.107a3.1 3.1 0 0 0 2.026-2.044l.094-.3V5.7l-.108-.184a1.005 1.005 0 0 0-1.177-.459m-18 6a1.04 1.04 0 0 0-.567.459c-.091.156-.108.23-.108.484 0 .256.016.328.111.489.125.213.318.375.539.454.123.044 1.351.053 6.83.053s6.707-.009 6.83-.053c.221-.079.414-.241.539-.454.095-.161.111-.233.111-.489 0-.254-.017-.328-.108-.484a1.02 1.02 0 0 0-.582-.461c-.262-.079-13.343-.077-13.595.002m0 6a1.04 1.04 0 0 0-.567.459c-.091.156-.108.23-.108.484 0 .256.016.328.111.489.125.213.318.375.539.454s7.439.079 7.66 0 .414-.241.539-.454c.095-.161.111-.233.111-.489 0-.254-.017-.328-.108-.484a1.02 1.02 0 0 0-.582-.461c-.26-.078-7.345-.076-7.595.002"/></svg>