<svg xmlns="http://www.w3.org/2000/svg" width="24" height="24" fill="none" stroke="currentColor" stroke-linecap="round" stroke-linejoin="round" stroke-width="2"><path fill="#000" fill-rule="evenodd" stroke="none" d="m11.28 1.023-.56.06c-1.6.17-3.435.822-4.66 1.656-.839.572-1.162.838-1.842 1.519-.942.942-1.58 1.834-2.121 2.962C.301 10.968.728 15.286 3.226 18.633c.666.891 1.874 2.008 2.934 2.713.347.231 1.402.74 1.973.952 3.557 1.321 7.444.756 10.504-1.528.609-.454 1.679-1.524 2.133-2.133 2.974-3.985 2.974-9.289 0-13.274-.454-.608-1.523-1.677-2.13-2.128-1.595-1.186-3.275-1.875-5.217-2.139C13 1.038 11.574.99 11.28 1.023m2.88 2.246c1.423.339 2.796 1.115 3.427 1.935.964 1.253 1.15 2.82.496 4.184-.566 1.18-1.545 1.942-2.834 2.208-.322.066-.85.098-1.104.066l-.227-.028.071-.09c.788-1 1.141-1.724 1.376-2.824.118-.552.128-1.592.021-2.14a6.1 6.1 0 0 0-.771-2.046 5.2 5.2 0 0 0-.872-1.125l-.283-.291.14.025c.077.014.329.07.56.126m-3.954.433c.445.082.671.157 1.054.347a3.99 3.99 0 0 1 2.107 2.659c.128.523.12 1.331-.017 1.852a4 4 0 0 1-.52 1.195c-.158.243-.168.251-.203.16A6.12 6.12 0 0 0 9.58 6.59c-1.233-.61-2.834-.744-4.239-.353a2 2 0 0 1-.292.066c-.02-.02.461-.549.724-.796.966-.909 2.126-1.627 2.887-1.786a4.5 4.5 0 0 1 1.546-.019M7.605 8.058a4 4 0 0 1 2.921 2.078l.164.316-.175-.03a6.8 6.8 0 0 0-2.224.041c-1.305.269-2.602 1.043-3.405 2.032-.498.612-.897 1.342-1.107 2.021l-.157.504-.05.16-.128-.396a9 9 0 0 1-.428-2.43c-.039-.875.085-1.485.448-2.194a4.01 4.01 0 0 1 2.894-2.099 3.7 3.7 0 0 1 1.247-.003m12.957 1.178c.358 1.106.516 2.488.384 3.348a3.98 3.98 0 0 1-3.173 3.333c-1.724.352-3.53-.521-4.319-2.088l-.141-.28.134.027c.602.124 1.471.126 2.103.004 1.343-.258 2.469-.885 3.363-1.872.695-.768 1.221-1.775 1.414-2.708.058-.283.071-.269.235.236M9.83 12.36c.08 0 .061.038-.17.35-.483.652-.871 1.567-1.047 2.47-.085.439-.095 1.496-.019 1.94a6.1 6.1 0 0 0 1.874 3.476c.192.178.325.324.296.324s-.277-.045-.549-.1c-1.5-.304-3.101-1.087-3.729-1.825-.859-1.008-1.167-2.21-.901-3.512.268-1.308 1.367-2.533 2.635-2.937.443-.141 1.085-.235 1.38-.202.077.008.18.015.23.016m1.552 1.73c.119.367.501 1.068.797 1.466a5.98 5.98 0 0 0 6.319 2.246 5 5 0 0 1 .452-.103c.006.004-.124.16-.288.345-.563.633-1.6 1.476-1.817 1.476-.058 0-.231.065-.385.144-1.128.577-2.326.659-3.407.233-.951-.374-1.821-1.221-2.206-2.147-.219-.525-.299-.94-.3-1.55-.001-.607.078-1.017.296-1.541.111-.268.409-.779.453-.779.01 0 .048.095.086.21"/></svg>