<svg xmlns="http://www.w3.org/2000/svg" width="24" height="24" fill="none" stroke="currentColor" stroke-linecap="round" stroke-linejoin="round" stroke-width="2"><path fill="#000" fill-rule="evenodd" stroke="none" d="M11.36 2.024c-4.283.303-7.848 3.207-8.994 7.323-.263.944-.345 1.577-.345 2.653s.082 1.709.345 2.653a10 10 0 0 0 6.981 6.981c.94.262 1.571.344 2.653.345 1.075.001 1.706-.081 2.653-.345a10 10 0 0 0 6.981-6.981c.238-.853.338-1.55.343-2.373.003-.563 0-.586-.106-.766-.389-.661-1.351-.667-1.736-.009-.094.16-.109.246-.159.926-.056.759-.116 1.146-.262 1.689-.259.967-.773 1.969-1.487 2.9-.197.256-.862.928-1.167 1.179-1.158.951-2.626 1.563-4.231 1.763-.493.061-1.6.03-2.089-.059-2.254-.408-3.985-1.495-5.278-3.314-.38-.535-.874-1.495-1.058-2.058a8.4 8.4 0 0 1-.369-3.141c.104-1.287.44-2.366 1.076-3.455.414-.709 1.244-1.669 1.891-2.188.6-.482 1.585-1.025 2.318-1.279 1.665-.576 3.198-.621 4.917-.144.504.14.681.144.943.022.431-.201.67-.65.58-1.087a1.1 1.1 0 0 0-.438-.649c-.237-.16-1.191-.403-1.998-.51-.462-.062-1.563-.104-1.964-.076"/></svg>