<svg xmlns="http://www.w3.org/2000/svg" width="24" height="24" fill="none" stroke="currentColor" stroke-linecap="round" stroke-linejoin="round" stroke-width="2"><path fill="#000" fill-rule="evenodd" stroke="none" d="M11.695 1.057a1.04 1.04 0 0 0-.567.459l-.108.184v4.606l.121.197a.998.998 0 0 0 1.718 0l.121-.197V1.7l-.108-.184a1.005 1.005 0 0 0-1.177-.459M4.444 4.025a.985.985 0 0 0-.362 1.435c.169.242 3.117 3.161 3.278 3.245.099.052.228.074.44.074.258.001.327-.015.492-.112.476-.28.646-.9.373-1.359-.054-.092-.789-.856-1.632-1.696C5.89 4.473 5.454 4.063 5.32 4.003a1.06 1.06 0 0 0-.876.022m14.236-.022c-.134.06-.57.47-1.713 1.609-.843.84-1.581 1.609-1.64 1.708-.091.152-.107.226-.107.48 0 .257.016.327.113.492.28.476.9.646 1.359.373.092-.054.856-.789 1.696-1.632 1.183-1.187 1.547-1.575 1.61-1.719.297-.673-.168-1.396-.896-1.393-.156 0-.306.03-.422.082M1.695 11.057a1.04 1.04 0 0 0-.567.459c-.091.156-.108.23-.108.484 0 .256.016.328.111.489.125.213.318.375.539.454.219.078 4.441.078 4.66 0 .221-.079.414-.241.539-.454.095-.161.111-.233.111-.489 0-.254-.017-.328-.108-.484a1.02 1.02 0 0 0-.582-.461c-.257-.077-4.347-.076-4.595.002m16 0a1.04 1.04 0 0 0-.567.459c-.091.156-.108.23-.108.484 0 .256.016.328.111.489.125.213.318.375.539.454.219.078 4.441.078 4.66 0 .221-.079.414-.241.539-.454.095-.161.111-.233.111-.489 0-.254-.017-.328-.108-.484a1.02 1.02 0 0 0-.582-.461c-.257-.077-4.347-.076-4.595.002M7.46 15.267c-.183.055-.33.19-1.734 1.587-.843.839-1.583 1.598-1.644 1.686-.402.579-.065 1.407.623 1.529.265.047.553-.01.75-.148.246-.171 3.165-3.119 3.25-3.281.052-.099.074-.228.074-.44.001-.255-.015-.328-.107-.484a1.02 1.02 0 0 0-.582-.461c-.228-.069-.376-.066-.63.012m8.435-.01a1.04 1.04 0 0 0-.567.459c-.092.156-.108.229-.107.484 0 .212.022.341.074.44.085.161 3.004 3.109 3.248 3.28.315.221.798.219 1.122-.003.434-.299.554-.946.255-1.374-.062-.09-.803-.85-1.646-1.689-1.46-1.452-1.545-1.529-1.751-1.59-.257-.076-.404-.077-.628-.007m-4.2 1.8a1.04 1.04 0 0 0-.567.459l-.108.184v4.606l.121.197c.068.11.205.253.311.325.471.316 1.102.171 1.407-.325l.121-.197V17.7l-.108-.184a1.005 1.005 0 0 0-1.177-.459"/></svg>