<svg xmlns="http://www.w3.org/2000/svg" width="24" height="24" fill="none" stroke="currentColor" stroke-linecap="round" stroke-linejoin="round" stroke-width="2"><path fill="#000" fill-rule="evenodd" stroke="none" d="M1.67 1.061c-.222.081-.42.248-.542.455-.092.156-.108.229-.107.484 0 .212.022.341.074.44.04.077 1.099 1.168 2.352 2.424l2.279 2.283-.266.375a7.9 7.9 0 0 0-1.312 3.027l-.088.45L2.976 11c-1.181 0-1.331.021-1.594.221-.08.061-.195.194-.254.295-.091.156-.108.23-.108.484 0 .256.016.328.111.489.061.103.173.236.25.294.263.201.354.213 1.564.215L4.07 13l.028.249c.039.342.231 1.071.406 1.541a8.04 8.04 0 0 0 4.706 4.706c.469.175 1.199.367 1.539.406l.247.028.012 1.188.012 1.188.121.197a.998.998 0 0 0 1.718 0l.121-.197.012-1.183.013-1.183.448-.088a7.9 7.9 0 0 0 3.004-1.299l.396-.279 2.284 2.279c1.255 1.253 2.346 2.312 2.423 2.352.099.052.228.074.44.074.258.001.327-.015.492-.112.476-.28.647-.9.373-1.359-.055-.092-4.65-4.715-10.212-10.273C3.3 1.889 2.525 1.125 2.343 1.065a1 1 0 0 0-.673-.004m10.025-.004a1.04 1.04 0 0 0-.567.459l-.108.184-.012 1.186-.012 1.186-.188.026c-.403.057-1.077.236-1.262.335a.98.98 0 0 0-.494.948.97.97 0 0 0 .588.816c.238.108.47.104.967-.017a6 6 0 0 1 3.333.149 6.04 6.04 0 0 1 3.731 3.731 6 6 0 0 1 .149 3.333c-.121.497-.125.729-.017.967.163.359.451.558.856.589.215.017.269.005.5-.115.195-.102.285-.179.37-.316.126-.203.272-.699.352-1.189l.053-.329 1.123-.002c1.207-.002 1.3-.014 1.562-.215.077-.058.189-.191.25-.294.095-.161.111-.233.111-.489 0-.254-.017-.328-.108-.484a1.2 1.2 0 0 0-.254-.295c-.263-.2-.412-.221-1.604-.221H19.92v-.102c0-.195-.169-.919-.325-1.398a8.06 8.06 0 0 0-3.255-4.218 8.4 8.4 0 0 0-2.845-1.134l-.491-.088-.012-1.18-.012-1.18-.108-.184a1.005 1.005 0 0 0-1.177-.459M11.3 12.721c2.369 2.369 4.103 4.133 4.079 4.15-1.108.784-2.367 1.173-3.619 1.117a5.97 5.97 0 0 1-3.935-1.693c-1.461-1.442-2.091-3.441-1.7-5.394.101-.5.194-.78.42-1.261.171-.363.571-1.04.614-1.04.012 0 1.875 1.854 4.141 4.121"/></svg>