<svg xmlns="http://www.w3.org/2000/svg" width="24" height="24" fill="none" stroke="currentColor" stroke-linecap="round" stroke-linejoin="round" stroke-width="2"><path fill="#000" fill-rule="evenodd" stroke="none" d="M11.695 1.057a1.04 1.04 0 0 0-.567.459l-.108.184-.012 1.18-.012 1.18-.491.088c-2.1.377-4.029 1.68-5.241 3.541A8.8 8.8 0 0 0 4.405 9.5c-.156.479-.325 1.203-.325 1.398V11H2.986c-1.192 0-1.341.021-1.604.221-.08.061-.195.194-.254.295-.091.156-.108.23-.108.484 0 .256.016.328.111.489.061.103.173.236.25.294.263.201.354.213 1.569.215L4.08 13v.102c0 .195.169.919.325 1.398.288.88.796 1.813 1.384 2.54.286.354.972 1.027 1.311 1.286a8.5 8.5 0 0 0 2.4 1.269c.476.156 1.203.325 1.396.325h.1l.012 1.193.012 1.193.121.197a.998.998 0 0 0 1.718 0l.121-.197.012-1.193.012-1.193h.1c.193 0 .92-.169 1.396-.325a7.9 7.9 0 0 0 3.241-2.041 7.4 7.4 0 0 0 1.459-2.083c.349-.72.72-1.943.72-2.369V13l1.13-.002c1.215-.002 1.306-.014 1.569-.215.077-.058.189-.191.25-.294.095-.161.111-.233.111-.489 0-.254-.017-.328-.108-.484a1.2 1.2 0 0 0-.254-.295c-.263-.2-.412-.221-1.604-.221H19.92v-.102c0-.195-.169-.919-.325-1.398a7.9 7.9 0 0 0-1.794-2.996 8 8 0 0 0-4.153-2.326 6 6 0 0 0-.556-.098h-.088l-.012-1.19-.012-1.19-.108-.184a1.005 1.005 0 0 0-1.177-.459m.869 4.982a5.99 5.99 0 0 1 5.107 4.021c.497 1.457.397 3.191-.261 4.52-.86 1.736-2.354 2.898-4.25 3.305-.606.13-1.714.13-2.32 0-1.899-.407-3.389-1.566-4.25-3.305-.658-1.329-.758-3.063-.261-4.52a5.9 5.9 0 0 1 1.402-2.255 5.92 5.92 0 0 1 4.833-1.766"/></svg>