<svg xmlns="http://www.w3.org/2000/svg" width="24" height="24" fill="none" stroke="currentColor" stroke-linecap="round" stroke-linejoin="round" stroke-width="2"><path fill="#000" fill-rule="evenodd" stroke="none" d="M11.38 1.043c-2.588.255-4.689 2.163-5.263 4.777-.078.357-.089.55-.106 1.785l-.019 1.386-.766.019c-.659.017-.811.033-1.087.116a3.07 3.07 0 0 0-2.025 2.034l-.094.3v9.08l.094.3a3.09 3.09 0 0 0 2.046 2.046l.3.094h15.08l.3-.094a3.09 3.09 0 0 0 2.046-2.046l.094-.3v-9.08l-.094-.3a3.07 3.07 0 0 0-2.025-2.034c-.276-.083-.428-.099-1.087-.116l-.766-.019-.019-1.386c-.017-1.235-.028-1.428-.106-1.785-.264-1.201-.781-2.167-1.614-3.015C14.978 1.49 13.23.86 11.38 1.043m1.225 2.015a3.99 3.99 0 0 1 2.931 2.102c.393.769.463 1.182.464 2.73V9H8V7.89c.001-1.548.071-1.961.464-2.73a4.01 4.01 0 0 1 2.894-2.099 3.7 3.7 0 0 1 1.247-.003m6.705 8.003c.279.083.546.35.629.629.053.177.061.751.061 4.311 0 4.457.007 4.318-.221 4.617-.061.08-.194.195-.295.254l-.184.108H4.7l-.184-.108a1.05 1.05 0 0 1-.458-.556c-.089-.254-.087-8.324.003-8.626.079-.269.351-.547.612-.627.291-.089 14.336-.092 14.637-.002m-7.833 3.012c-.671.176-1.239.75-1.417 1.435a2.07 2.07 0 0 0 .165 1.422c.136.269.576.709.845.845a2.05 2.05 0 0 0 1.86 0c.266-.135.708-.575.841-.838a2.05 2.05 0 0 0 .169-1.408 1.8 1.8 0 0 0-.475-.876A1.97 1.97 0 0 0 12 14.005c-.143 0-.378.031-.523.068"/></svg>