<svg xmlns="http://www.w3.org/2000/svg" width="24" height="24" fill="none" stroke="currentColor" stroke-linecap="round" stroke-linejoin="round" stroke-width="2"><path fill="#000" fill-rule="evenodd" stroke="none" d="M11.26 1.042c-2.747.373-4.891 2.524-5.219 5.237C6.018 6.465 6 7.152 6 7.804v1.187l-.77.019c-.663.017-.814.033-1.091.116a3.07 3.07 0 0 0-2.025 2.034l-.094.3v9.08l.094.3a3.09 3.09 0 0 0 2.046 2.046l.3.094h15.08l.3-.094a3.09 3.09 0 0 0 2.046-2.046l.094-.3v-9.08l-.094-.3a3.09 3.09 0 0 0-2.025-2.039l-.321-.101-5.774-.011-5.773-.011.018-1.309c.016-1.172.026-1.344.103-1.641.311-1.206 1.188-2.248 2.279-2.707 1.146-.483 2.315-.445 3.426.109.641.321 1.102.737 1.545 1.395.334.497.576.656.987.646a.98.98 0 0 0 .967-.986c-.002-.275-.06-.422-.327-.827-.867-1.316-2.217-2.222-3.811-2.557-.463-.097-1.476-.139-1.92-.079m8.05 10.019c.279.083.546.35.629.629.053.177.061.751.061 4.311 0 4.457.007 4.318-.221 4.617-.061.08-.194.195-.295.254l-.184.108H4.7l-.184-.108a1.05 1.05 0 0 1-.458-.556c-.089-.254-.087-8.324.003-8.626.079-.269.351-.547.612-.627.291-.089 14.336-.092 14.637-.002m-7.833 3.012c-.671.176-1.239.75-1.417 1.435a2.07 2.07 0 0 0 .165 1.422c.136.269.576.709.845.845a2.05 2.05 0 0 0 1.86 0c.266-.135.708-.575.841-.838a2.05 2.05 0 0 0 .169-1.408 1.8 1.8 0 0 0-.475-.876A1.97 1.97 0 0 0 12 14.005c-.143 0-.378.031-.523.068"/></svg>