<svg xmlns="http://www.w3.org/2000/svg" width="24" height="24" fill="none" stroke="currentColor" stroke-linecap="round" stroke-linejoin="round" stroke-width="2"><path fill="#000" fill-rule="evenodd" stroke="none" d="M10.34 2.024c-1.314.136-2.249.391-3.28.894A8.87 8.87 0 0 0 2.939 7.02a8.91 8.91 0 0 0 0 7.96 8.5 8.5 0 0 0 1.682 2.357 8.97 8.97 0 0 0 10.319 1.746 9.7 9.7 0 0 0 1.498-.91l.178-.136 1.902 1.897c1.046 1.044 1.963 1.928 2.037 1.965.455.229 1.046.045 1.312-.407.097-.165.113-.234.112-.492 0-.212-.022-.341-.074-.44-.04-.077-.927-.996-1.971-2.042l-1.897-1.902.136-.178c.306-.401.651-.97.91-1.498a8.95 8.95 0 0 0 .001-7.88 9 9 0 0 0-6.764-4.959c-.409-.062-1.658-.11-1.98-.077m1.762 2.074c2.479.375 4.613 2.139 5.471 4.522.518 1.437.551 3.001.09 4.173a5.08 5.08 0 0 1-3.063 2.939c-.556.19-.93.248-1.6.248s-1.044-.058-1.6-.248a5.04 5.04 0 0 1-3.239-3.492c-.107-.418-.175-1.121-.145-1.488a3.01 3.01 0 0 1 2.123-2.627c.273-.083.403-.098.861-.098s.588.015.861.098c.951.29 1.737 1.074 2.006 2.003.25.863.122 1.447-.381 1.743-.158.093-.231.109-.486.109-.254 0-.328-.017-.484-.108a1.08 1.08 0 0 1-.44-.499 2 2 0 0 1-.079-.407c-.041-.352-.164-.585-.402-.761a1.01 1.01 0 0 0-1.466.309c-.1.172-.109.219-.107.606.001.32.023.491.093.72a3.08 3.08 0 0 0 2.045 2.046c.434.135 1.246.135 1.68 0a3.1 3.1 0 0 0 2.032-1.999c.09-.271.102-.376.105-.907.004-.873-.14-1.476-.544-2.267a5.02 5.02 0 0 0-3.193-2.552c-.933-.241-2.115-.178-2.992.159a5.1 5.1 0 0 0-2.722 2.465c-.376.763-.507 1.35-.504 2.255.002.702.046 1.066.201 1.685.623 2.493 2.68 4.516 5.157 5.075.553.125.558.129.22.17-.374.045-1.269.011-1.72-.065a7 7 0 0 1-5.804-5.925c-.109-.763-.054-1.887.129-2.64A7.02 7.02 0 0 1 8.62 4.427c.63-.227 1.095-.325 1.92-.404.273-.026 1.186.018 1.562.075"/></svg>