<svg xmlns="http://www.w3.org/2000/svg" width="24" height="24" fill="none" stroke="currentColor" stroke-linecap="round" stroke-linejoin="round" stroke-width="2"><path fill="#000" fill-rule="evenodd" stroke="none" d="M9.499 1.042A3.06 3.06 0 0 0 7.118 3.14c-.076.239-.092.396-.108 1.065l-.019.786-.766.019c-.658.017-.81.033-1.086.116A3.07 3.07 0 0 0 3.114 7.16l-.094.3v11.08l.094.3c.184.59.493 1.05.995 1.483.217.187.718.473.924.527a.18.18 0 0 1 .117.117c.054.206.34.707.527.924.433.503.894.812 1.483.995.434.135 1.246.135 1.68 0a3.1 3.1 0 0 0 1.848-1.556l.165-.33h2.294l.165.33a3.1 3.1 0 0 0 1.848 1.556c.434.135 1.246.135 1.68 0 .589-.183 1.05-.492 1.483-.995.187-.217.473-.718.527-.924a.18.18 0 0 1 .117-.117c.206-.054.707-.34.924-.527.502-.433.811-.893.995-1.483l.094-.3V7.46l-.094-.3a3.07 3.07 0 0 0-2.025-2.034c-.276-.083-.428-.099-1.086-.116l-.766-.019-.019-.786c-.016-.669-.032-.826-.108-1.065a3.1 3.1 0 0 0-2.021-2.018l-.321-.1-2.42-.007c-1.331-.004-2.511.008-2.621.027m4.811 2.019a.9.9 0 0 1 .387.242c.251.251.303.448.303 1.144V5H9v-.553c0-.697.052-.893.304-1.144.3-.301.265-.297 2.679-.3 1.789-.003 2.155.007 2.327.058M7 12.073v5.072l-.33.168c-.498.253-1.002.72-1.26 1.167-.057.099-.11.187-.116.196-.027.036-.175-.189-.232-.353-.055-.156-.062-.79-.062-5.303 0-5.78-.021-5.393.304-5.717.25-.251.423-.297 1.126-.3L7 7zm8 0v5.072l-.33.168a3.13 3.13 0 0 0-1.358 1.357l-.165.33h-2.294l-.165-.33a3.13 3.13 0 0 0-1.358-1.357L9 17.145V7h6zm3.31-5.012c.279.083.546.35.629.629.053.178.061.856.061 5.31 0 4.445-.008 5.131-.061 5.303-.054.176-.202.413-.233.373l-.116-.196c-.258-.447-.762-.914-1.26-1.167l-.33-.168V7h.553c.378 0 .617.019.757.061m-10 12c.378.112.69.537.69.94 0 .33-.216.695-.516.871-.156.091-.23.108-.484.108s-.328-.017-.484-.108c-.581-.342-.683-1.098-.212-1.569q.417-.418 1.006-.242m8 0c.378.112.69.537.69.94 0 .33-.216.695-.516.871-.156.091-.23.108-.484.108s-.328-.017-.484-.108c-.584-.344-.685-1.097-.209-1.573q.414-.413 1.003-.238"/></svg>