<svg xmlns="http://www.w3.org/2000/svg" width="24" height="24" fill="none" stroke="currentColor" stroke-linecap="round" stroke-linejoin="round" stroke-width="2"><path fill="#000" fill-rule="evenodd" stroke="none" d="M13.46 1.263c-1.806.129-3.337.681-4.74 1.708-.288.211-1.243 1.139-3.933 3.824-2.036 2.032-3.598 3.622-3.66 3.725-.091.152-.107.226-.107.48s.016.328.107.48c.134.225 4.241 4.325 4.433 4.425.196.102.687.102.88-.001.077-.041 1.592-1.521 3.367-3.287 2.092-2.083 3.287-3.244 3.4-3.304.236-.125.693-.128.953-.008.225.105.452.333.566.567.122.252.12.676-.004.937-.07.147-.796.888-3.289 3.358-1.932 1.914-3.241 3.241-3.306 3.351-.09.154-.107.229-.107.482 0 .254.016.328.107.48.134.225 4.241 4.325 4.433 4.425.099.052.228.074.44.074.256.001.327-.015.486-.108.206-.121 7.009-6.953 7.36-7.391.962-1.202 1.615-2.773 1.832-4.413.071-.529.052-1.698-.037-2.3a8.79 8.79 0 0 0-7.407-7.423c-.42-.062-1.408-.107-1.774-.081m1.712 2.101c2.762.497 4.925 2.673 5.455 5.487.099.526.099 1.867 0 2.369-.249 1.261-.721 2.261-1.511 3.2-.148.176-.91.959-1.693 1.74L16 17.58l-1.29-1.293-1.29-1.292 1.404-1.388c1.507-1.488 1.596-1.596 1.818-2.205a3.15 3.15 0 0 0 .005-2.115 2.8 2.8 0 0 0-.645-1.056c-.66-.716-1.553-1.079-2.502-1.017-.478.032-.763.109-1.22.332l-.38.185-1.441 1.434-1.441 1.434-1.296-1.297-1.296-1.297.983-1.012c1.349-1.391 2.071-2.09 2.462-2.382a6.8 6.8 0 0 1 5.301-1.247M6.3 10.72 7.58 12l-.79.79-.79.79-1.29-1.29L3.42 11l.78-.78c.429-.429.789-.78.8-.78s.596.576 1.3 1.28m7 7L14.58 19l-.79.79-.79.79-1.29-1.29L10.42 18l.78-.78c.429-.429.789-.78.8-.78s.596.576 1.3 1.28"/></svg>