<svg xmlns="http://www.w3.org/2000/svg" width="24" height="24" fill="none" stroke="currentColor" stroke-linecap="round" stroke-linejoin="round" stroke-width="2"><path fill="#000" fill-rule="evenodd" stroke="none" d="M3.499 3.043C2.38 3.232 1.461 4.048 1.114 5.16l-.094.3v13.12l.105.307c.171.5.371.817.771 1.217s.717.6 1.217.771l.307.105 4.852.011c3.219.007 4.903-.003 5.004-.03.222-.06.463-.251.591-.469.097-.165.113-.235.113-.492 0-.254-.017-.328-.108-.484a1.2 1.2 0 0 0-.254-.295c-.3-.229-.115-.221-5.137-.221-5.154 0-4.851.016-5.151-.275a1.4 1.4 0 0 1-.232-.307c-.076-.154-.078-.28-.089-4.872l-.01-4.715.13.078c.072.042 1.769 1.119 3.771 2.392 2.132 1.355 3.769 2.371 3.952 2.451a2.87 2.87 0 0 0 2.296 0c.183-.08 1.86-1.12 4.067-2.524a673 673 0 0 1 3.769-2.388c.007 0 .019 1.005.025 2.233l.011 2.233.121.197a.998.998 0 0 0 1.718 0l.121-.197V5.46l-.094-.3a3.09 3.09 0 0 0-2.025-2.039l-.321-.101-8.42-.006c-4.631-.003-8.511.01-8.621.029M20.31 5.061c.279.083.546.35.629.629.034.112.06.332.06.487l-.001.283-4.222 2.68a605 605 0 0 1-4.369 2.759c-.202.107-.612.107-.814 0A605 605 0 0 1 7.224 9.14L3.002 6.46l-.001-.283c0-.155.026-.375.06-.487.079-.269.351-.547.612-.627.16-.049 1.357-.058 8.31-.06 7.161-.003 8.147.004 8.327.058m-3.64 11c-.222.081-.42.248-.542.455-.092.156-.108.229-.107.484 0 .213.022.34.075.44.04.077.39.459.777.85l.704.71-.704.71c-.387.391-.734.771-.772.845-.229.453-.045 1.046.407 1.312.165.097.234.113.492.112.213 0 .34-.022.44-.075.077-.04.459-.39.85-.777l.71-.704.71.704c.391.387.773.737.85.777.1.053.227.075.44.075.258.001.327-.015.492-.112.222-.13.409-.369.473-.603a1.2 1.2 0 0 0-.066-.709c-.038-.074-.385-.454-.772-.845l-.704-.71.704-.71c.387-.391.737-.773.777-.85.053-.1.075-.227.075-.44.001-.255-.015-.328-.107-.484a1 1 0 0 0-1.215-.449c-.166.056-.312.18-.927.787l-.73.72-.73-.72c-.615-.607-.761-.731-.927-.787a1 1 0 0 0-.673-.006"/></svg>