<svg xmlns="http://www.w3.org/2000/svg" width="24" height="24" fill="none" stroke="currentColor" stroke-linecap="round" stroke-linejoin="round" stroke-width="2"><path fill="#000" fill-rule="evenodd" stroke="none" d="M3.499 3.043C2.38 3.232 1.461 4.048 1.114 5.16l-.094.3v13.08l.094.3a3.09 3.09 0 0 0 2.046 2.046l.3.094h17.08l.3-.094a3.09 3.09 0 0 0 2.046-2.046l.094-.3V5.46l-.094-.3a3.09 3.09 0 0 0-2.025-2.039l-.321-.101-8.42-.006c-4.631-.003-8.511.01-8.621.029M20.31 5.061c.279.083.546.35.629.629.034.112.06.332.06.487l-.001.283-4.222 2.68a605 605 0 0 1-4.369 2.759c-.202.107-.612.107-.814 0A605 605 0 0 1 7.224 9.14L3.002 6.46l-.001-.283c0-.155.026-.375.06-.487.079-.269.351-.547.612-.627.16-.049 1.357-.058 8.31-.06 7.161-.003 8.147.004 8.327.058M6.9 11.301c2.132 1.355 3.769 2.371 3.952 2.451a2.87 2.87 0 0 0 2.296 0c.183-.08 1.86-1.12 4.067-2.524a650 650 0 0 1 3.77-2.388c.008 0 .015 2.085.015 4.634 0 5.03.008 4.844-.221 5.144-.061.08-.194.195-.295.254l-.184.108H3.7l-.184-.108a1.2 1.2 0 0 1-.291-.249C2.989 18.314 3 18.565 3 13.491V8.832l.13.077c.071.042 1.768 1.119 3.77 2.392"/></svg>