<svg xmlns="http://www.w3.org/2000/svg" width="24" height="24" fill="none" stroke="currentColor" stroke-linecap="round" stroke-linejoin="round" stroke-width="2"><path fill="#000" fill-rule="evenodd" stroke="none" d="M5.858 4.044c-2.24.236-4.141 1.911-4.692 4.136-.166.671-.172.862-.159 5.22l.013 4.18.094.28c.332.991 1.07 1.722 2.046 2.026l.3.094h17.08l.3-.094a3.09 3.09 0 0 0 2.046-2.046l.094-.3v-4.58c0-4.282-.005-4.602-.073-4.919a5 5 0 0 0-1.386-2.562 4.85 4.85 0 0 0-2.969-1.437c-.471-.051-12.204-.049-12.694.002m1.169 1.999c.772.106 1.329.393 1.933.997s.891 1.161.997 1.933c.028.205.043 1.657.043 4.224 0 4.244.006 4.123-.221 4.421-.061.08-.194.195-.295.254l-.184.108H3.7l-.184-.108a1.2 1.2 0 0 1-.291-.249C2.991 17.316 3 17.497 3 13.218c0-2.582.015-4.04.043-4.245.056-.411.202-.842.409-1.213.231-.413.859-1.046 1.28-1.291.674-.391 1.472-.539 2.295-.426m11.44-.002c.676.109 1.114.34 1.633.859s.75.957.859 1.633c.025.154.041 1.82.041 4.411 0 4.519.007 4.375-.221 4.674-.061.08-.194.195-.295.254l-.184.108-4.23.011c-2.327.006-4.23.006-4.23 0 .001-.006.032-.101.07-.211.064-.184.07-.542.082-4.38.01-2.991 0-4.282-.033-4.54a5.57 5.57 0 0 0-1.096-2.713L10.751 6h3.734c2.304 0 3.83.016 3.982.041m-3.772 2.016a1.04 1.04 0 0 0-.567.459c-.091.156-.108.23-.108.484 0 .256.016.328.111.489.061.103.173.236.25.294.261.2.357.213 1.526.215l1.086.002.014.653c.013.647.014.655.134.85a.998.998 0 0 0 1.718 0l.121-.197V8.7l-.108-.184a1.02 1.02 0 0 0-.582-.461c-.255-.077-3.349-.075-3.595.002m-9 1a1.04 1.04 0 0 0-.567.459c-.091.156-.108.23-.108.484 0 .256.016.328.111.489.125.213.318.375.539.454.208.074 1.452.074 1.66 0 .221-.079.414-.241.539-.454.095-.161.111-.233.111-.489 0-.254-.017-.328-.108-.484a1.02 1.02 0 0 0-.582-.461c-.24-.072-1.362-.071-1.595.002"/></svg>