<svg xmlns="http://www.w3.org/2000/svg" width="24" height="24" fill="none" stroke="currentColor" stroke-linecap="round" stroke-linejoin="round" stroke-width="2"><path fill="#000" fill-rule="evenodd" stroke="none" d="M3.499 3.043C2.38 3.232 1.461 4.048 1.114 5.16l-.094.3v13.12l.105.307c.171.5.371.817.771 1.217s.717.6 1.217.771l.307.105 6.62.011c7.389.013 6.798.035 7.133-.267a.94.94 0 0 0 .315-.721c0-.388-.194-.705-.548-.897l-.16-.086-6.52-.02c-5.928-.018-6.533-.026-6.664-.086a1.2 1.2 0 0 1-.499-.498c-.075-.151-.077-.299-.088-4.87l-.01-4.715.13.078c.072.042 1.769 1.119 3.771 2.392 2.132 1.355 3.769 2.371 3.952 2.451a2.87 2.87 0 0 0 2.296 0c.183-.08 1.86-1.12 4.067-2.524a650 650 0 0 1 3.77-2.388c.008 0 .015.418.015.93.001.895.004.938.095 1.13.181.382.5.588.908.588a.94.94 0 0 0 .721-.315c.291-.323.281-.207.267-3.134l-.012-2.619-.094-.28c-.326-.98-1.064-1.715-2.024-2.019l-.321-.101-8.42-.006c-4.631-.003-8.511.01-8.621.029M20.31 5.061c.279.083.546.35.629.629.034.112.06.332.06.487l-.001.283-4.222 2.68a605 605 0 0 1-4.369 2.759c-.202.107-.612.107-.814 0A605 605 0 0 1 7.224 9.14L3.002 6.46l-.001-.283c0-.155.026-.375.06-.487.079-.269.351-.547.612-.627.16-.049 1.357-.058 8.31-.06 7.161-.003 8.147.004 8.327.058m-.615 7.996a1.04 1.04 0 0 0-.567.459l-.108.184v4.606l.121.197c.068.11.205.253.311.325.471.316 1.102.171 1.407-.325l.121-.197V13.7l-.108-.184a1.005 1.005 0 0 0-1.177-.459m0 8a1.04 1.04 0 0 0-.567.459c-.092.156-.108.229-.107.484.001.332.08.533.285.728.479.453 1.274.318 1.587-.268.132-.249.122-.7-.021-.944a1.005 1.005 0 0 0-1.177-.459"/></svg>