<svg xmlns="http://www.w3.org/2000/svg" width="24" height="24" fill="none" stroke="currentColor" stroke-linecap="round" stroke-linejoin="round" stroke-width="2"><path fill="#000" fill-rule="evenodd" stroke="none" d="M11.49 1.042a3.2 3.2 0 0 0-.93.33c-.292.166-8.462 6.293-8.657 6.493-.401.41-.667.869-.808 1.395-.072.267-.075.528-.075 5.78v5.5l.094.3a3.09 3.09 0 0 0 2.046 2.046l.3.094h17.08l.3-.094a3.09 3.09 0 0 0 2.046-2.046l.094-.3v-5.52c0-5.194-.004-5.534-.072-5.76-.166-.556-.375-.925-.742-1.314-.322-.339-8.478-6.453-8.858-6.64a3.6 3.6 0 0 0-.528-.204c-.294-.079-1.005-.112-1.29-.06m.805 2.007c.114.033 1.442 1.006 4.306 3.153 3.572 2.679 4.344 3.281 4.272 3.335-.097.071-8.372 5.312-8.473 5.366-.191.101-.609.101-.8 0-.101-.054-8.375-5.294-8.473-5.366-.007-.006.019-.06.059-.12.098-.15 8.318-6.309 8.494-6.365a1.1 1.1 0 0 1 .615-.003M6.9 14.301c2.132 1.355 3.769 2.371 3.952 2.451a2.87 2.87 0 0 0 2.296 0c.183-.08 1.86-1.12 4.067-2.524a650 650 0 0 1 3.77-2.388c.008 0 .015 1.86.015 4.134 0 4.486.007 4.345-.221 4.644-.061.08-.194.195-.295.254l-.184.108H3.7l-.184-.108a1.2 1.2 0 0 1-.291-.249C2.99 20.315 3 20.518 3 15.991v-4.159l.13.077c.071.042 1.768 1.119 3.77 2.392"/></svg>