<svg xmlns="http://www.w3.org/2000/svg" width="24" height="24" fill="none" stroke="currentColor" stroke-linecap="round" stroke-linejoin="round" stroke-width="2"><path fill="#000" fill-rule="evenodd" stroke="none" d="M3.499 3.043C2.38 3.232 1.461 4.048 1.114 5.16l-.094.3v13.12l.105.307c.171.5.371.817.771 1.217s.717.6 1.217.771l.307.105 4.12.011c4.599.013 4.303.03 4.633-.267a.94.94 0 0 0 .315-.721c0-.388-.194-.705-.548-.897l-.16-.086L7.76 19c-4.46-.022-4.16-.003-4.447-.289a1.4 1.4 0 0 1-.216-.295c-.075-.151-.077-.299-.088-4.87l-.01-4.715.13.078c.072.042 1.769 1.119 3.771 2.392 2.132 1.355 3.769 2.371 3.952 2.451a2.87 2.87 0 0 0 2.296 0c.183-.08 1.86-1.12 4.067-2.524a650 650 0 0 1 3.77-2.388c.008 0 .015.868.015 1.93l.001 1.93.094.2c.181.382.5.588.908.588a.94.94 0 0 0 .721-.315c.296-.328.28-.092.267-4.133l-.011-3.62-.094-.28c-.329-.982-1.065-1.715-2.025-2.019l-.321-.101-8.42-.006c-4.631-.003-8.511.01-8.621.029M20.31 5.061c.279.083.546.35.629.629.034.112.06.332.06.487l-.001.283-4.222 2.68a605 605 0 0 1-4.369 2.759c-.202.107-.612.107-.814 0A605 605 0 0 1 7.224 9.14L3.002 6.46l-.001-.283c0-.155.026-.375.06-.487.079-.269.351-.547.612-.627.16-.049 1.357-.058 8.31-.06 7.161-.003 8.147.004 8.327.058m-3.017 8.998A4.001 4.001 0 0 0 18 22c.619 0 1.335-.17 1.819-.433l.214-.115.653.657c.36.361.73.701.822.756.459.274 1.079.103 1.359-.373.097-.165.113-.235.113-.492 0-.41-.07-.516-.871-1.314l-.657-.653.115-.214c.581-1.072.568-2.602-.031-3.695-.847-1.545-2.547-2.372-4.243-2.065m1.201 2.019c.382.098.623.237.907.521s.423.525.521.907c.098.386.098.602 0 .988a1.8 1.8 0 0 1-.521.907 1.8 1.8 0 0 1-.907.521c-.386.098-.602.098-.988 0a1.8 1.8 0 0 1-.907-.521 1.8 1.8 0 0 1-.526-.931 1.96 1.96 0 0 1 .829-2.129c.487-.324 1.013-.411 1.592-.263"/></svg>