<svg xmlns="http://www.w3.org/2000/svg" width="24" height="24" fill="none" stroke="currentColor" stroke-linecap="round" stroke-linejoin="round" stroke-width="2"><path fill="#000" fill-rule="evenodd" stroke="none" d="M11.34 1.024c-1.314.136-2.249.391-3.28.894A8.87 8.87 0 0 0 3.939 6.02 9 9 0 0 0 3 9.98c.003 3.257 2.032 6.984 5.917 10.861 1.07 1.069 1.889 1.797 2.182 1.94a1.97 1.97 0 0 0 1.802 0c.294-.143 1.115-.873 2.182-1.939C18.97 16.958 20.997 13.236 21 9.98c.001-2.338-.953-4.639-2.621-6.317a9 9 0 0 0-5.059-2.562c-.409-.062-1.658-.11-1.98-.077m1.762 2.074c2.997.453 5.388 2.885 5.822 5.922.075.527.067 1.597-.017 2.06-.379 2.111-1.733 4.494-4.024 7.08-.767.866-2.759 2.8-2.884 2.8-.066 0-.588-.473-1.414-1.28-3.115-3.045-5.029-6.037-5.488-8.582-.087-.482-.098-1.54-.021-2.078a7.02 7.02 0 0 1 5.264-5.815c.284-.07.724-.136 1.2-.182.273-.026 1.186.018 1.562.075m-1.407 2.959a1.04 1.04 0 0 0-.567.459l-.108.184-.012 1.15L10.995 9H9.944c-1.147 0-1.301.022-1.562.221-.08.061-.195.194-.254.295-.091.156-.108.23-.108.484 0 .256.016.328.111.489.061.103.173.236.25.294.261.2.357.213 1.527.215l1.087.002.013 1.153.012 1.154.121.196a.998.998 0 0 0 1.718 0l.121-.196.012-1.154.013-1.153 1.087-.002c1.17-.002 1.266-.015 1.527-.215.077-.058.189-.191.25-.294.095-.161.111-.233.111-.489 0-.254-.017-.328-.108-.484a1.2 1.2 0 0 0-.254-.295C15.357 9.022 15.203 9 14.056 9h-1.051l-.013-1.15-.012-1.15-.108-.184a1.005 1.005 0 0 0-1.177-.459"/></svg>