<svg xmlns="http://www.w3.org/2000/svg" width="24" height="24" fill="none" stroke="currentColor" stroke-linecap="round" stroke-linejoin="round" stroke-width="2"><path fill="#000" fill-rule="evenodd" stroke="none" d="M11.34 1.024c-1.314.136-2.249.391-3.28.894A8.87 8.87 0 0 0 3.939 6.02 9 9 0 0 0 3 9.98c.003 3.257 2.032 6.984 5.917 10.861 1.901 1.898 2.354 2.203 3.197 2.15.341-.022.691-.132.948-.3.254-.166 1.12-.953 1.213-1.103a.989.989 0 0 0-.852-1.507c-.336.001-.494.085-.969.513-.223.201-.428.366-.455.366-.066 0-.588-.473-1.414-1.28-3.115-3.045-5.027-6.034-5.489-8.582-.087-.483-.098-1.586-.02-2.098.474-3.099 2.867-5.485 5.944-5.924.763-.109 1.887-.054 2.64.129a7.02 7.02 0 0 1 5.264 5.815c.067.474.068 1.561.002 1.94-.131.742-.342 1.429-.688 2.24-.285.666-.305.765-.218 1.067.087.303.387.611.672.691a1.01 1.01 0 0 0 1.038-.318c.284-.331.892-1.968 1.084-2.92a8.74 8.74 0 0 0-.73-5.66 9 9 0 0 0-6.764-4.959c-.409-.062-1.658-.11-1.98-.077m.018 5.037c-1.128.176-2.215.913-2.789 1.892a3.992 3.992 0 0 0 1.943 5.751 3.99 3.99 0 0 0 5.192-2.216 3.96 3.96 0 0 0 .001-2.972 3.98 3.98 0 0 0-3.1-2.458 3.7 3.7 0 0 0-1.247.003m1.165 2.012a2.01 2.01 0 0 1 1.444 1.617c.1.653-.094 1.243-.564 1.714-.401.403-.856.596-1.403.596q-.771 0-1.347-.535c-1.33-1.236-.464-3.46 1.347-3.46.143 0 .378.031.523.068m3.172 8.984a1.04 1.04 0 0 0-.567.459c-.091.156-.108.23-.108.484 0 .256.016.328.111.489.125.213.318.375.539.454s6.439.079 6.66 0 .414-.241.539-.454c.095-.161.111-.233.111-.489 0-.254-.017-.328-.108-.484a1.02 1.02 0 0 0-.582-.461c-.26-.078-6.345-.076-6.595.002"/></svg>