<svg xmlns="http://www.w3.org/2000/svg" width="24" height="24" fill="none" stroke="currentColor" stroke-linecap="round" stroke-linejoin="round" stroke-width="2"><path fill="#000" fill-rule="evenodd" stroke="none" d="M1.67 1.061c-.222.081-.42.248-.542.455-.091.156-.108.23-.108.484s.016.327.107.48c.06.099.764.835 1.566 1.635L4.151 5.57l-.254.525a8.7 8.7 0 0 0-.735 5.516c.528 2.807 2.52 6.001 5.755 9.23 1.07 1.069 1.889 1.797 2.182 1.94a1.97 1.97 0 0 0 1.802 0c.553-.27 2.91-2.579 4.108-4.022l.148-.179 2.132 2.126c1.172 1.169 2.194 2.159 2.271 2.199.099.052.228.074.44.074.258.001.327-.015.492-.112.476-.28.647-.9.373-1.359-.055-.092-4.65-4.715-10.212-10.273C3.3 1.889 2.525 1.125 2.343 1.065a1 1 0 0 0-.673-.004m9.63-.037c-.885.089-1.689.266-2.37.52-.943.353-1.265.568-1.388.928a.96.96 0 0 0 .205 1.008.91.91 0 0 0 .733.327c.175-.001.317-.042.693-.205 1.601-.69 3.254-.783 4.927-.277.464.14 1.307.539 1.74.824a7.04 7.04 0 0 1 3.119 5.138c.122 1.157-.063 2.275-.604 3.644q-.156.391-.155.583a.988.988 0 0 0 1.432.902c.268-.133.4-.297.565-.701.791-1.933.988-3.688.62-5.511-.387-1.918-1.49-3.797-2.95-5.027-1.323-1.113-2.912-1.839-4.556-2.079-.402-.058-1.694-.106-2.011-.074m1.195 5.097c-.416.128-.735.532-.735.932 0 .32.077.506.299.727.161.16.258.219.486.291a2.1 2.1 0 0 1 1.385 1.383c.161.5.518.786.98.786a.975.975 0 0 0 .945-.691c.08-.237.081-.312.004-.605a4.2 4.2 0 0 0-.508-1.136c-.268-.412-.85-.977-1.264-1.224-.606-.362-1.282-.558-1.592-.463M8.01 9.858a3.96 3.96 0 0 0 .673 2.368c.769 1.146 2.135 1.836 3.493 1.765l.376-.019 1.591 1.591 1.591 1.591-.237.29a25 25 0 0 1-1.615 1.77c-.786.799-1.807 1.746-1.883 1.746-.066 0-.588-.473-1.414-1.28-3.115-3.045-5.028-6.036-5.488-8.582-.1-.549-.1-1.637-.002-2.238.079-.48.284-1.201.446-1.566l.102-.231 1.194 1.194L8.031 9.45z"/></svg>