<svg xmlns="http://www.w3.org/2000/svg" width="24" height="24" fill="none" stroke="currentColor" stroke-linecap="round" stroke-linejoin="round" stroke-width="2"><path fill="#000" fill-rule="evenodd" stroke="none" d="M9.34 1.024c-1.314.136-2.249.391-3.28.894A8.87 8.87 0 0 0 1.939 6.02 9 9 0 0 0 1 9.98c.003 3.257 2.032 6.984 5.917 10.861C8.731 22.653 9.223 23 9.975 23c.779 0 1.28-.863.877-1.512-.143-.23-.438-.435-.68-.471-.158-.024-.239-.076-.548-.352-.2-.178-.668-.621-1.039-.984-3.12-3.053-5.027-6.035-5.489-8.583-.087-.483-.098-1.586-.02-2.098.474-3.099 2.867-5.485 5.944-5.924.763-.109 1.887-.054 2.64.129 2.512.61 4.53 2.629 5.134 5.135.103.425.122.565.185 1.333.049.601.062.667.168.84a1 1 0 0 0 1.709-.005c.1-.163.121-.245.136-.528.038-.725-.149-1.886-.454-2.811-1.053-3.203-3.858-5.561-7.218-6.068-.409-.062-1.658-.11-1.98-.077m.018 5.037c-1.128.176-2.215.913-2.789 1.892a3.992 3.992 0 0 0 1.943 5.751 3.99 3.99 0 0 0 5.192-2.216 3.96 3.96 0 0 0 .001-2.972 3.98 3.98 0 0 0-3.1-2.458 3.7 3.7 0 0 0-1.247.003m1.165 2.012a2.01 2.01 0 0 1 1.444 1.617c.1.653-.094 1.243-.564 1.714-.401.403-.856.596-1.403.596q-.771 0-1.347-.535c-1.33-1.236-.464-3.46 1.347-3.46.143 0 .378.031.523.068m7.037 4.981a3 3 0 0 0-.361.113c-.077.034-.897.566-1.822 1.183-1.774 1.183-1.953 1.328-2.154 1.742-.219.453-.223.5-.223 2.928 0 2.433.003 2.472.225 2.91.136.269.576.709.845.845.452.229.383.225 3.93.225s3.478.004 3.93-.225c.266-.135.708-.575.841-.838.225-.443.229-.495.229-2.924 0-2.42-.004-2.468-.223-2.921-.202-.417-.378-.559-2.196-1.768-1.288-.857-1.781-1.164-1.958-1.219-.305-.095-.783-.118-1.063-.051M19.5 16l1.5 1.001V21h-1.995l-.013-1.15-.012-1.15-.109-.186a1.04 1.04 0 0 0-.657-.479 1.01 1.01 0 0 0-1.085.479l-.109.186-.012 1.15-.013 1.15H15v-3.999l1.49-.998c.819-.549 1.495-.999 1.5-1 .006-.002.686.447 1.51.997"/></svg>