<svg xmlns="http://www.w3.org/2000/svg" width="24" height="24" fill="none" stroke="currentColor" stroke-linecap="round" stroke-linejoin="round" stroke-width="2"><path fill="#000" fill-rule="evenodd" stroke="none" d="M11.34 1.024c-1.314.136-2.249.391-3.28.894A8.87 8.87 0 0 0 3.939 6.02 9 9 0 0 0 3 9.98c.003 3.257 2.032 6.984 5.917 10.861 1.901 1.898 2.354 2.203 3.197 2.15.341-.022.691-.132.948-.3.094-.061.391-.308.66-.549.568-.509.678-.684.677-1.082a.88.88 0 0 0-.331-.725.95.95 0 0 0-.693-.254c-.283.001-.466.103-.921.513-.223.201-.428.366-.455.366-.066 0-.588-.473-1.414-1.28-3.115-3.045-5.027-6.034-5.489-8.582-.087-.483-.098-1.586-.02-2.098.474-3.099 2.867-5.485 5.944-5.924.763-.109 1.887-.054 2.64.129a7.02 7.02 0 0 1 4.913 4.415c.29.805.401 1.455.403 2.36.002.835-.094 1.4-.398 2.349-.16.5-.175.754-.056 1.005a.986.986 0 0 0 1.316.503c.381-.164.511-.397.817-1.461.883-3.07.01-6.413-2.276-8.713a9 9 0 0 0-5.059-2.562c-.409-.062-1.658-.11-1.98-.077m.018 5.037c-1.128.176-2.215.913-2.789 1.892a3.992 3.992 0 0 0 1.943 5.751 3.99 3.99 0 0 0 5.192-2.216 3.96 3.96 0 0 0 .001-2.972 3.98 3.98 0 0 0-3.1-2.458 3.7 3.7 0 0 0-1.247.003m1.165 2.012a2.01 2.01 0 0 1 1.444 1.617c.1.653-.094 1.243-.564 1.714-.401.403-.856.596-1.403.596q-.771 0-1.347-.535c-1.33-1.236-.464-3.46 1.347-3.46.143 0 .378.031.523.068m9.117 6.995c-.152.053-.444.326-1.909 1.785l-1.729 1.722-.731-.72c-.616-.608-.762-.732-.928-.788a1 1 0 0 0-1.215.449c-.092.156-.108.229-.107.484 0 .213.022.341.074.44.102.193 2.202 2.3 2.425 2.433.153.091.225.107.48.106.212 0 .341-.022.44-.074.192-.1 4.299-4.2 4.433-4.425.091-.152.107-.226.107-.48s-.017-.328-.108-.484a1.016 1.016 0 0 0-1.232-.448"/></svg>