<svg xmlns="http://www.w3.org/2000/svg" width="24" height="24" fill="none" stroke="currentColor" stroke-linecap="round" stroke-linejoin="round" stroke-width="2"><path fill="#000" fill-rule="evenodd" stroke="none" d="M11.34 1.024c-1.314.136-2.249.391-3.28.894A8.87 8.87 0 0 0 3.939 6.02 9 9 0 0 0 3 9.98c.003 3.257 2.032 6.984 5.917 10.861 1.07 1.069 1.889 1.797 2.182 1.94a1.97 1.97 0 0 0 1.802 0c.294-.143 1.115-.873 2.182-1.939C18.97 16.958 20.997 13.236 21 9.98c.001-2.338-.953-4.639-2.621-6.317a9 9 0 0 0-5.059-2.562c-.409-.062-1.658-.11-1.98-.077m1.762 2.074c2.997.453 5.388 2.885 5.822 5.922.075.527.067 1.597-.017 2.06-.379 2.111-1.733 4.494-4.024 7.08-.767.866-2.759 2.8-2.884 2.8-.066 0-.588-.473-1.414-1.28-3.115-3.045-5.029-6.037-5.488-8.582-.087-.482-.098-1.54-.021-2.078a7.02 7.02 0 0 1 5.264-5.815c.284-.07.724-.136 1.2-.182.273-.026 1.186.018 1.562.075M9.044 6.625a.99.99 0 0 0-.515.664c-.047.238.006.562.12.73.045.066.498.54 1.006 1.051l.924.93-.924.93c-.508.512-.96.984-1.004 1.05-.275.409-.138 1.046.289 1.34.298.205.8.22 1.077.032.068-.046.541-.499 1.053-1.007l.93-.924.93.924c.512.508.985.961 1.051 1.006.281.19.781.174 1.084-.034.413-.284.553-.941.286-1.336-.045-.066-.498-.539-1.006-1.051l-.924-.929.948-.951c.705-.707.968-.998 1.029-1.136.297-.673-.168-1.396-.896-1.393-.413.001-.505.067-1.552 1.11l-.95.947-.95-.947c-.679-.677-1.001-.97-1.13-1.028a1.06 1.06 0 0 0-.876.022"/></svg>