<svg xmlns="http://www.w3.org/2000/svg" width="24" height="24" fill="none" stroke="currentColor" stroke-linecap="round" stroke-linejoin="round" stroke-width="2"><path fill="#000" fill-rule="evenodd" stroke="none" d="M11.34 1.024c-1.314.136-2.249.391-3.28.894A8.87 8.87 0 0 0 3.939 6.02 9 9 0 0 0 3 9.98c.003 3.257 2.032 6.984 5.917 10.861 1.07 1.069 1.889 1.797 2.182 1.94q.9.44 1.816-.006c.295-.144.653-.503.717-.72.165-.561-.118-1.118-.649-1.276-.324-.097-.571-.061-.839.121l-.146.099-.369-.329a35 35 0 0 1-3.017-3.096c-1.978-2.349-3.164-4.533-3.516-6.476-.087-.483-.098-1.586-.02-2.098.474-3.099 2.867-5.485 5.944-5.924.763-.109 1.887-.054 2.64.129 2.711.658 4.807 2.928 5.241 5.674.128.811.112 1.703-.044 2.412-.092.421-.11.602-.08.803.055.367.39.697.799.789.288.064.583-.022.835-.244.22-.193.303-.392.424-1.019a8.76 8.76 0 0 0-.751-5.56 9 9 0 0 0-6.764-4.959c-.409-.062-1.658-.11-1.98-.077m.018 5.037c-1.128.176-2.215.913-2.789 1.892a3.992 3.992 0 0 0 1.943 5.751 3.99 3.99 0 0 0 5.192-2.216 3.96 3.96 0 0 0 .001-2.972 3.98 3.98 0 0 0-3.1-2.458 3.7 3.7 0 0 0-1.247.003m1.165 2.012a2.01 2.01 0 0 1 1.444 1.617c.1.653-.094 1.243-.564 1.714-.401.403-.856.596-1.403.596q-.771 0-1.347-.535c-1.33-1.236-.464-3.46 1.347-3.46.143 0 .378.031.523.068m3.521 6.552c-.504.251-.698.942-.393 1.395.044.066.496.538 1.004 1.05l.924.93-.924.93c-.508.512-.96.984-1.004 1.05-.278.412-.141 1.044.289 1.34.298.205.8.22 1.077.032.068-.046.541-.499 1.053-1.007l.93-.924.93.924c.512.508.985.961 1.051 1.006.403.273 1.066.124 1.349-.303.195-.295.206-.794.022-1.065-.046-.068-.499-.541-1.007-1.053l-.924-.93.924-.93c.508-.512.961-.985 1.006-1.051.117-.173.163-.474.111-.728a.95.95 0 0 0-.96-.77c-.413.001-.505.067-1.552 1.11l-.95.947-.95-.947c-.679-.677-1.001-.97-1.13-1.028a1.06 1.06 0 0 0-.876.022"/></svg>