<svg xmlns="http://www.w3.org/2000/svg" width="24" height="24" fill="none" stroke="currentColor" stroke-linecap="round" stroke-linejoin="round" stroke-width="2"><path fill="#000" fill-rule="evenodd" stroke="none" d="M11.34 1.024c-1.314.136-2.249.391-3.28.894A8.87 8.87 0 0 0 3.939 6.02 9 9 0 0 0 3 9.98c.003 3.257 2.032 6.984 5.917 10.861 1.07 1.069 1.889 1.797 2.182 1.94a1.97 1.97 0 0 0 1.802 0c.294-.143 1.115-.873 2.182-1.939C18.97 16.958 20.997 13.236 21 9.98c.001-2.338-.953-4.639-2.621-6.317a9 9 0 0 0-5.059-2.562c-.409-.062-1.658-.11-1.98-.077m1.762 2.074c2.997.453 5.388 2.885 5.822 5.922.075.527.067 1.597-.017 2.06-.379 2.111-1.733 4.494-4.024 7.08-.767.866-2.759 2.8-2.884 2.8-.066 0-.588-.473-1.414-1.28-3.115-3.045-5.029-6.037-5.488-8.582-.087-.482-.098-1.54-.021-2.078a7.02 7.02 0 0 1 5.264-5.815c.284-.07.724-.136 1.2-.182.273-.026 1.186.018 1.562.075m1.538 3.97c-.152.053-.444.326-1.909 1.785l-1.729 1.722-.731-.72c-.616-.608-.762-.732-.928-.788a1 1 0 0 0-1.215.449c-.092.156-.108.229-.107.484 0 .213.022.341.074.44.102.193 2.202 2.3 2.425 2.433.153.091.225.107.48.106.212 0 .341-.022.44-.074.192-.1 4.299-4.2 4.433-4.425.091-.152.107-.226.107-.48s-.017-.328-.108-.484a1.016 1.016 0 0 0-1.232-.448"/></svg>