<svg xmlns="http://www.w3.org/2000/svg" width="24" height="24" fill="none" stroke="currentColor" stroke-linecap="round" stroke-linejoin="round" stroke-width="2"><path fill="#000" fill-rule="evenodd" stroke="none" d="M11.54 1.023c-.825.079-1.29.177-1.92.404-2.41.868-4.13 2.969-4.545 5.553-.068.424-.069 1.637-.002 2.02.202 1.142.654 2.312 1.335 3.451.16.269.298.503.305.519s-.396.03-.896.03c-1.031 0-1.327.038-1.697.215-.308.148-.739.558-.869.826-.048.099-.567 1.608-1.153 3.353-.923 2.748-1.069 3.213-1.087 3.479-.024.351.047.695.217 1.047.138.286.566.714.852.852.507.244-.169.228 9.92.228s9.413.016 9.92-.228c.286-.138.714-.566.852-.852a2.04 2.04 0 0 0 .217-1.046c-.018-.264-.165-.74-1.051-3.4-.566-1.702-1.084-3.211-1.15-3.354-.244-.525-.855-.984-1.434-1.078-.14-.023-.665-.042-1.167-.042-.503 0-.908-.013-.9-.03.007-.016.145-.25.305-.519.538-.899.949-1.854 1.168-2.709.186-.723.22-.995.218-1.742-.002-.949-.103-1.541-.405-2.38-.858-2.383-2.992-4.147-5.471-4.522-.376-.057-1.289-.101-1.562-.075m1.012 2.02c.213.023.523.077.688.119a5.04 5.04 0 0 1 3.598 3.598c.476 1.86-.182 3.844-2.087 6.293-.569.731-.938 1.146-1.765 1.982-.85.861-.951.947-1.053.892-.106-.057-1.592-1.565-1.966-1.994-1.557-1.791-2.601-3.613-2.86-4.994-.173-.916-.096-1.888.213-2.691a5 5 0 0 1 5.232-3.205M11.499 5.04a3.05 3.05 0 0 0-2.385 2.12c-.135.434-.135 1.246 0 1.68a3.09 3.09 0 0 0 2.046 2.046c.434.135 1.246.135 1.68 0a3.09 3.09 0 0 0 2.046-2.046c.135-.434.135-1.246 0-1.68-.305-.981-1.076-1.753-2.025-2.031-.361-.106-1.029-.149-1.362-.089m.811 2.021c.378.112.69.537.69.94 0 .33-.216.695-.516.871-.156.091-.23.108-.484.108s-.328-.017-.484-.108c-.581-.342-.683-1.098-.212-1.569q.417-.418 1.006-.242M8.6 15.405c.472.554 2.044 2.094 2.322 2.273.343.222.63.302 1.078.302s.735-.08 1.078-.302c.278-.179 1.85-1.719 2.322-2.273l.34-.399 1.627-.003L18.993 15l1 3 1 3H3.007l1-3 1-3 1.626.003 1.627.003z"/></svg>