<svg xmlns="http://www.w3.org/2000/svg" width="24" height="24" fill="none" stroke="currentColor" stroke-linecap="round" stroke-linejoin="round" stroke-width="2"><path fill="#000" fill-rule="evenodd" stroke="none" d="M8.382 2.304c-.402.089-.523.146-3.148 1.46C3 4.882 2.834 4.973 2.614 5.19c-.129.127-.292.34-.363.474C1.984 6.168 2 5.695 2 13c0 7.192-.011 6.824.216 7.273.245.482.674.85 1.178 1.011.306.098.851.118 1.106.041.088-.027 1.075-.502 2.193-1.057l2.033-1.008h.548l2.353 1.168c1.294.643 2.461 1.201 2.593 1.24.182.054.375.07.8.068.5-.002.594-.013.871-.109.172-.059 1.428-.666 2.791-1.349 2.311-1.157 2.495-1.257 2.712-1.47a2.23 2.23 0 0 0 .564-1.017c.03-.149.04-2.191.033-6.911l-.011-6.7-.094-.234c-.235-.582-.729-1.057-1.274-1.226-.354-.109-.888-.109-1.212 0-.13.044-1.121.521-2.201 1.06-1.89.943-1.974.98-2.198.98s-.313-.04-2.587-1.173c-1.589-.791-2.446-1.196-2.634-1.245-.382-.099-1.044-.117-1.398-.038M8 11.012v6.373l-1.982.987c-1.09.544-1.99.988-2 .988S4 16.493 4 12.99V6.62l1.97-.988a116 116 0 0 1 2-.99c.017-.001.03 2.866.03 6.37m4.018-5.384L14 6.617v6.371c0 3.505-.008 6.372-.018 6.372s-.91-.444-2-.988L10 17.385v-6.373c0-3.504.008-6.372.018-6.372.011 0 .911.445 2 .988M20 11.01v6.37l-1.98.99c-1.089.545-1.989.99-2 .99S16 16.493 16 12.988V6.617l1.97-.986c1.083-.542 1.983-.987 2-.988S20 7.507 20 11.01"/></svg>