<svg xmlns="http://www.w3.org/2000/svg" width="24" height="24" fill="none" stroke="currentColor" stroke-linecap="round" stroke-linejoin="round" stroke-width="2"><path fill="#000" fill-rule="evenodd" stroke="none" d="M4.65 2.066c-.512.182-.792.852-.564 1.352.03.065 1.598 1.883 3.484 4.039L11 11.378V21H9.446c-1.688 0-1.788.011-2.064.221-.08.061-.195.194-.254.295-.091.156-.108.23-.108.484 0 .256.016.328.111.489.125.213.318.375.539.454s8.438.079 8.66 0 .414-.241.539-.454c.095-.161.111-.233.111-.489 0-.254-.017-.328-.108-.484a1.2 1.2 0 0 0-.254-.295c-.276-.21-.376-.221-2.064-.221H13v-9.622l3.437-3.928c2.989-3.417 3.445-3.956 3.505-4.135a.983.983 0 0 0-.652-1.26c-.152-.046-1.382-.054-7.326-.052-6.246.003-7.165.011-7.314.063M16.76 4.02c0 .039-4.726 5.42-4.76 5.42S7.24 4.059 7.24 4.02C7.24 4.009 9.382 4 12 4s4.76.009 4.76.02"/></svg>