<svg xmlns="http://www.w3.org/2000/svg" width="24" height="24" fill="none" stroke="currentColor" stroke-linecap="round" stroke-linejoin="round" stroke-width="2"><path fill="#000" fill-rule="evenodd" stroke="none" d="M5.46 1.059c-.512.096-.812.223-1.2.509-.37.273-.548.48-1.516 1.767C1.531 4.948 1.423 5.176 1.423 6.14c-.001.619.052.854.3 1.346.07.14 1.115 1.96 2.322 4.045l2.193 3.792-.077.324a6.05 6.05 0 0 0-.042 2.513c.492 2.398 2.298 4.205 4.721 4.725.606.13 1.714.13 2.32 0 1.876-.403 3.375-1.553 4.214-3.236a6 6 0 0 0 .465-4.004l-.078-.326 2.194-3.789a402 402 0 0 0 2.316-4.031c.239-.475.309-.784.308-1.359 0-.588-.075-.908-.324-1.384-.167-.318-1.811-2.529-2.106-2.83a3 3 0 0 0-1.389-.83c-.249-.072-.535-.075-6.64-.082-5.125-.006-6.435.003-6.66.045M17.2 3.023c0 .013-.399.688-.886 1.5L15.429 6H8.564l-.9-1.5-.9-1.5h5.218c2.87 0 5.218.01 5.218.023m-9.966 4.65a344 344 0 0 1 2.286 3.842c0 .016-.086.07-.19.121-.562.271-1.12.681-1.635 1.201l-.364.368-.078-.132-1.95-3.365C3.55 6.679 3.431 6.461 3.412 6.248a1.3 1.3 0 0 1 .023-.388c.048-.177 1.443-2.08 1.488-2.03a837 837 0 0 1 2.311 3.843m12.558-2.948c.352.476.671.923.708.995a1.1 1.1 0 0 1 .059.704c-.043.13-3.791 6.655-3.874 6.745-.015.016-.188-.135-.386-.335-.508-.516-1.067-.927-1.629-1.198-.104-.051-.19-.108-.19-.127 0-.079 4.611-7.714 4.64-7.683.017.019.319.423.672.899M14.198 8.03c0 .016-.401.694-.89 1.505l-.888 1.475-.42.001-.42.002-.909-1.507L9.763 8h2.218c1.221 0 2.218.014 2.217.03m-1.593 5.028a3.99 3.99 0 0 1 2.931 2.102c.231.451.335.77.406 1.235.072.484.072.726 0 1.21a3.99 3.99 0 0 1-3.169 3.312c-2.21.451-4.377-1.072-4.715-3.312a3.4 3.4 0 0 1 0-1.21c.256-1.697 1.617-3.071 3.3-3.334a3.7 3.7 0 0 1 1.247-.003m-1.365 1.979a.99.99 0 0 0-.728.966c0 .29.107.534.318.724l.163.147.014.716.013.717.121.196a.998.998 0 0 0 1.718 0l.121-.197V15.7l-.108-.184a1.02 1.02 0 0 0-.582-.461c-.194-.058-.879-.07-1.05-.018"/></svg>