<svg xmlns="http://www.w3.org/2000/svg" width="24" height="24" fill="none" stroke="currentColor" stroke-linecap="round" stroke-linejoin="round" stroke-width="2"><path fill="#000" fill-rule="evenodd" stroke="none" d="M11.76 7.524c-4.983 1.385-9.141 2.56-9.24 2.61-.206.104-.418.36-.478.577-.056.201-.056 3.377 0 3.578.06.217.272.473.478.579.135.069 2.033.532 2.181.532.013 0 .011.149-.004.332-.088 1.085.359 2.272 1.159 3.081.516.52 1.149.881 1.884 1.073.517.135 1.444.136 1.94.001.887-.24 1.716-.797 2.237-1.503.213-.289.457-.743.545-1.014.037-.115.083-.21.103-.21s1.903.416 4.185.923c3.465.771 4.185.92 4.362.903a1 1 0 0 0 .831-.656c.044-.123.054-1.269.055-6.313.002-6.917.025-6.396-.294-6.715a1.12 1.12 0 0 0-.739-.299c-.08.002-4.222 1.136-9.205 2.521M20 12.043c0 4.479-.004 4.721-.07 4.701-.038-.012-3.598-.804-7.91-1.762-4.312-.957-7.88-1.75-7.93-1.762-.089-.021-.09-.028-.09-.739v-.718l.15-.044c.319-.094 15.792-4.393 15.82-4.396.017-.002.03 2.122.03 4.72M8.66 16.284c1.012.223 1.855.42 1.874.437.063.058-.222.518-.453.731A1.94 1.94 0 0 1 8.7 18a1.88 1.88 0 0 1-1.4-.575c-.38-.385-.617-.935-.619-1.438-.001-.127.011-.149.069-.131.038.012.898.204 1.91.428"/></svg>