<svg xmlns="http://www.w3.org/2000/svg" width="24" height="24" fill="none" stroke="currentColor" stroke-linecap="round" stroke-linejoin="round" stroke-width="2"><path fill="#000" fill-rule="evenodd" stroke="none" d="M1.67 1.061c-.222.081-.42.248-.542.455-.092.156-.108.229-.107.484 0 .212.022.341.074.44.04.077 1.459 1.528 3.154 3.225L7.33 8.751l-.135.043c-.074.023-1.116.314-2.315.646s-2.261.644-2.36.694c-.206.104-.418.36-.478.577-.056.201-.056 3.377 0 3.578.06.217.272.473.478.579.135.069 2.033.532 2.181.532.013 0 .011.149-.004.332-.088 1.085.359 2.272 1.159 3.081.516.52 1.149.881 1.884 1.073.517.135 1.444.136 1.94.001.887-.24 1.716-.797 2.237-1.503.213-.289.457-.743.545-1.014.037-.115.088-.21.113-.21s.945.199 2.045.443l2 .443 2.4 2.393c1.32 1.316 2.463 2.426 2.54 2.466.099.052.228.074.44.074.258.001.327-.015.492-.112.476-.28.647-.9.373-1.359-.055-.092-4.65-4.715-10.212-10.273C3.3 1.889 2.525 1.125 2.343 1.065a1 1 0 0 0-.673-.004m15.39 4.993c-2.379.662-3.816 1.082-3.911 1.14a.96.96 0 0 0-.405.537c-.08.24-.08.32 0 .592.089.298.355.564.653.653.12.035.257.064.305.064.063 0 5.61-1.518 6.228-1.704.066-.02.07.193.07 4.091l.001 4.113.094.2c.181.382.5.588.908.588a.94.94 0 0 0 .721-.315c.299-.331.279.055.267-5.413l-.011-4.9-.108-.184a1.06 1.06 0 0 0-.908-.513c-.079.002-1.836.474-3.904 1.051M11.48 12.9c1.375 1.375 2.482 2.5 2.459 2.5-.031 0-9.474-2.09-9.849-2.18-.089-.021-.09-.028-.09-.739v-.718l.15-.044c.641-.188 4.723-1.315 4.77-1.317.033-.001 1.185 1.123 2.56 2.498m-2.82 3.384c1.012.223 1.855.42 1.874.437.063.058-.222.518-.453.731A1.94 1.94 0 0 1 8.7 18a1.88 1.88 0 0 1-1.4-.575c-.38-.385-.617-.935-.619-1.438-.001-.127.011-.149.069-.131.038.012.898.204 1.91.428"/></svg>