<svg xmlns="http://www.w3.org/2000/svg" width="24" height="24" fill="none" stroke="currentColor" stroke-linecap="round" stroke-linejoin="round" stroke-width="2"><path fill="#000" fill-rule="evenodd" stroke="none" d="M11.58 1.096c-.158.076-.64.538-2.306 2.21-1.158 1.163-2.136 2.175-2.173 2.249-.229.455-.045 1.046.407 1.312.165.097.234.113.492.112.213 0 .341-.022.44-.074.077-.041.685-.616 1.351-1.279l1.211-1.206-.012 4.24c-.013 3.935-.019 4.257-.085 4.478-.077.256-.29.709-.43.915-.048.07-1.711 1.756-3.697 3.747s-3.64 3.681-3.677 3.755c-.229.455-.045 1.046.407 1.312.165.097.235.113.492.113.254 0 .328-.016.48-.107.245-.146 7.285-7.209 7.548-7.573a5.2 5.2 0 0 0 .707-1.38c.27-.818.265-.717.265-5.336V4.422l1.21 1.204c.666.663 1.273 1.238 1.35 1.279.099.052.227.074.44.074.258.001.327-.015.492-.112.222-.13.409-.369.473-.603a1.2 1.2 0 0 0-.066-.709c-.037-.074-1.015-1.086-2.173-2.249-1.666-1.672-2.148-2.134-2.306-2.21a.97.97 0 0 0-.84 0m3.09 14.965c-.222.081-.42.248-.542.455-.091.156-.108.23-.108.484s.016.328.107.48c.135.226 5.241 5.325 5.433 5.425.099.052.228.074.44.074.258.001.327-.015.492-.112.476-.28.646-.899.374-1.359-.055-.092-1.276-1.34-2.713-2.773-2.37-2.363-2.631-2.611-2.81-2.67a1 1 0 0 0-.673-.004"/></svg>