<svg xmlns="http://www.w3.org/2000/svg" width="24" height="24" fill="none" stroke="currentColor" stroke-linecap="round" stroke-linejoin="round" stroke-width="2"><path fill="#000" fill-rule="evenodd" stroke="none" d="M4.499 2.043c-1.109.187-2.011.981-2.385 2.097l-.094.28-.011 8.359c-.011 9.121-.026 8.527.215 8.842.059.079.191.192.292.251.156.092.229.108.484.107.212 0 .341-.022.44-.074.077-.04 1.004-.935 2.06-1.988l1.92-1.915 6.08-.011 6.08-.011.28-.094c.991-.332 1.722-1.07 2.026-2.046l.094-.3V4.46l-.094-.3a3.09 3.09 0 0 0-2.025-2.039l-.321-.101-7.42-.006c-4.081-.003-7.511.01-7.621.029M19.31 4.061c.279.083.546.35.629.629.053.178.061.856.061 5.311 0 4.211-.01 5.138-.055 5.289a1.02 1.02 0 0 1-.461.582l-.184.108-6.28.02c-6.089.019-6.285.022-6.44.097-.1.048-.617.53-1.37 1.278L4 18.577v-6.841c0-6.008.007-6.866.061-7.046.079-.269.351-.547.612-.627.291-.089 14.336-.092 14.637-.002M9.044 6.625a.99.99 0 0 0-.515.664c-.047.238.006.562.12.73.045.066.498.54 1.006 1.051l.924.93-.924.93c-.508.512-.96.984-1.004 1.05-.275.409-.138 1.046.289 1.34.298.205.8.22 1.077.032.068-.046.541-.499 1.053-1.007l.93-.924.93.924c.512.508.985.961 1.051 1.006.281.19.781.174 1.084-.034.413-.284.553-.941.286-1.336-.045-.066-.498-.539-1.006-1.051l-.924-.929.948-.951c.705-.707.968-.998 1.029-1.136.297-.673-.168-1.396-.896-1.393-.413.001-.505.067-1.552 1.11l-.95.947-.95-.947c-.679-.677-1.001-.97-1.13-1.028a1.06 1.06 0 0 0-.876.022"/></svg>