<svg xmlns="http://www.w3.org/2000/svg" width="24" height="24" fill="none" stroke="currentColor" stroke-linecap="round" stroke-linejoin="round" stroke-width="2"><path fill="#000" fill-rule="evenodd" stroke="none" d="M4.499 2.043c-1.109.187-2.011.981-2.385 2.097l-.094.28-.011 8.359c-.011 9.121-.026 8.527.215 8.842.059.079.191.192.292.251.156.092.229.108.484.107.212 0 .341-.022.44-.074.077-.04 1.004-.935 2.06-1.988l1.92-1.915 6.08-.011 6.08-.011.28-.094c.991-.332 1.722-1.07 2.026-2.046l.094-.3V4.46l-.094-.3a3.09 3.09 0 0 0-2.025-2.039l-.321-.101-7.42-.006c-4.081-.003-7.511.01-7.621.029M19.31 4.061c.279.083.546.35.629.629.053.178.061.856.061 5.311 0 4.211-.01 5.138-.055 5.289a1.02 1.02 0 0 1-.461.582l-.184.108-6.28.02c-6.089.019-6.285.022-6.44.097-.1.048-.617.53-1.37 1.278L4 18.577v-6.841c0-6.008.007-6.866.061-7.046.079-.269.351-.547.612-.627.291-.089 14.336-.092 14.637-.002M13.1 5.986a3 3 0 0 0-.888.291l-.289.151-.231-.113c-.634-.308-1.639-.323-2.309-.036-.503.215-1.047.694-1.336 1.173a3.1 3.1 0 0 0-.375 1.145 2.87 2.87 0 0 0 .447 1.861c.19.29 3.231 3.337 3.441 3.447.099.052.228.074.44.074.254.001.327-.015.48-.106.253-.15 3.144-3.067 3.362-3.393.351-.523.498-1.02.497-1.68-.002-.813-.245-1.389-.838-1.982-.394-.394-.787-.633-1.241-.755-.244-.066-.943-.112-1.16-.077m.769 2.068c.3.155.461.423.461.765 0 .409-.081.518-1.267 1.701L12 11.579l-1.1-1.099c-.605-.605-1.129-1.16-1.164-1.235-.102-.215-.064-.635.075-.817.186-.244.336-.325.632-.341.321-.019.444.036.758.333.274.259.429.341.698.368.398.041.678-.11 1.041-.563a.74.74 0 0 1 .28-.208.94.94 0 0 1 .649.037"/></svg>