<svg xmlns="http://www.w3.org/2000/svg" width="24" height="24" fill="none" stroke="currentColor" stroke-linecap="round" stroke-linejoin="round" stroke-width="2"><path fill="#000" fill-rule="evenodd" stroke="none" d="M10.86 2.063c-2.584.312-4.862 1.548-6.559 3.557-.634.751-1.346 1.991-1.677 2.92-.446 1.253-.66 2.583-.609 3.775.055 1.271.317 2.478.767 3.529l.139.324-.946 2.786c-.52 1.532-.954 2.862-.965 2.956-.044.365.162.76.498.957.162.095.236.113.472.112.259-.001.486-.071 3.065-.951l2.786-.949.325.139c.724.31 1.744.583 2.644.708.545.075 1.986.065 2.532-.019 2.01-.307 3.717-1.071 5.168-2.316a10.04 10.04 0 0 0 3.463-6.648c.066-.659.027-1.903-.078-2.525-.36-2.117-1.249-3.877-2.723-5.392-1.684-1.731-3.8-2.743-6.236-2.985a12 12 0 0 0-2.066.022m2.122 2c1.827.239 3.398 1.007 4.673 2.282 1.984 1.983 2.769 4.801 2.111 7.575-.333 1.402-1.173 2.837-2.271 3.877-1.18 1.118-2.503 1.777-4.195 2.09-.635.117-1.825.127-2.46.02a8.8 8.8 0 0 1-2.34-.729c-.274-.129-.36-.151-.6-.151-.258 0-.436.053-2.28.683-1.099.376-2.003.68-2.007.676s.3-.907.676-2.007c.82-2.397.804-2.303.495-2.979-.606-1.321-.836-2.526-.744-3.898.131-1.957.868-3.641 2.205-5.041 1.728-1.809 4.285-2.72 6.737-2.398"/></svg>