<svg xmlns="http://www.w3.org/2000/svg" width="24" height="24" fill="none" stroke="currentColor" stroke-linecap="round" stroke-linejoin="round" stroke-width="2"><path fill="#000" fill-rule="evenodd" stroke="none" d="M3.499 1.043c-1.11.189-2.011.981-2.385 2.097l-.094.28-.011 5.858c-.012 6.391-.024 6.03.215 6.343.059.079.191.192.292.251.156.092.229.108.484.107.212 0 .341-.022.44-.074.077-.04 1.004-.935 2.06-1.988l1.92-1.914 3.08-.012 3.08-.012.28-.093c.989-.331 1.722-1.07 2.026-2.046l.094-.3V3.46l-.094-.3a3.09 3.09 0 0 0-2.025-2.039l-.321-.101-4.42-.006c-2.431-.003-4.511.01-4.621.029m8.811 2.018c.279.083.546.35.629.629.086.289.092 5.316.006 5.6a1.02 1.02 0 0 1-.461.582l-.184.108-3.28.02c-3.13.019-3.287.024-3.44.097-.1.048-.617.53-1.37 1.278L3 12.577V8.236c0-4.905-.018-4.612.304-4.933.314-.314.042-.297 4.679-.3 3.58-.003 4.149.005 4.327.058m5.385 4.994a1.05 1.05 0 0 0-.567.461c-.091.156-.108.23-.108.484 0 .256.016.328.111.489.061.103.173.236.25.294.263.201.353.213 1.582.215 1.343.002 1.45.021 1.734.305.321.321.303.029.303 4.933v4.341l-1.21-1.202c-.753-.748-1.27-1.23-1.37-1.278-.153-.073-.31-.078-3.44-.097l-3.28-.02-.184-.108a1.13 1.13 0 0 1-.444-.499c-.029-.068-.057-.426-.07-.893-.021-.759-.025-.785-.131-.966a1.01 1.01 0 0 0-1.742 0l-.109.186v.92c0 .853.007.942.094 1.22.304.976 1.037 1.715 2.026 2.046l.28.093 3.08.012 3.08.012 1.94 1.933c1.82 1.814 1.953 1.938 2.155 2.004.546.177 1.142-.131 1.286-.664.027-.1.037-2.118.03-6.004l-.011-5.852-.094-.28c-.33-.984-1.072-1.723-2.025-2.016-.31-.096-.366-.099-1.661-.11-1.034-.009-1.378 0-1.505.041"/></svg>