<svg xmlns="http://www.w3.org/2000/svg" width="24" height="24" fill="none" stroke="currentColor" stroke-linecap="round" stroke-linejoin="round" stroke-width="2"><path fill="#000" fill-rule="evenodd" stroke="none" d="M4.499 2.043c-1.109.187-2.011.981-2.385 2.097l-.094.28-.011 8.359c-.011 9.121-.026 8.527.215 8.842.059.079.191.192.292.251.156.092.229.108.484.107.212 0 .341-.022.44-.074.077-.04 1.004-.935 2.06-1.988l1.92-1.915 6.08-.011 6.08-.011.28-.094c.991-.332 1.722-1.07 2.026-2.046l.094-.3V4.46l-.094-.3a3.09 3.09 0 0 0-2.025-2.039l-.321-.101-7.42-.006c-4.081-.003-7.511.01-7.621.029M19.31 4.061c.279.083.546.35.629.629.053.178.061.856.061 5.311 0 4.211-.01 5.138-.055 5.289a1.02 1.02 0 0 1-.461.582l-.184.108-6.28.02c-6.089.019-6.285.022-6.44.097-.1.048-.617.53-1.37 1.278L4 18.577v-6.841c0-6.008.007-6.866.061-7.046.079-.269.351-.547.612-.627.291-.089 14.336-.092 14.637-.002M9.641 6.565a1.2 1.2 0 0 0-.232.141c-.142.108-2.155 2.598-2.302 2.847-.124.209-.124.685 0 .894.103.175 2.12 2.695 2.258 2.821.232.213.7.289.998.163.2-.085.426-.294.528-.487.103-.199.119-.613.03-.824-.032-.077-.415-.585-.85-1.13L9.28 10l.791-.99c.435-.544.818-1.053.85-1.13.089-.211.073-.625-.03-.824-.1-.19-.328-.402-.517-.481-.15-.063-.586-.069-.733-.01m3.976.01c-.475.214-.732.792-.557 1.251.045.117.367.556.866 1.18l.794.994-.794.994c-.499.624-.821 1.063-.866 1.18-.177.463.086 1.049.56 1.25.315.133.777.062 1.015-.156.138-.126 2.155-2.646 2.258-2.821.135-.229.124-.686-.022-.927-.215-.355-2.168-2.737-2.344-2.859-.151-.105-.213-.122-.48-.131-.198-.007-.351.009-.43.045"/></svg>