<svg xmlns="http://www.w3.org/2000/svg" width="24" height="24" fill="none" stroke="currentColor" stroke-linecap="round" stroke-linejoin="round" stroke-width="2"><path fill="#000" fill-rule="evenodd" stroke="none" d="M1.67 1.061c-.222.081-.42.248-.542.455-.091.156-.108.23-.108.484 0 .4.076.523.734 1.176l.52.517-.074.188c-.208.528-.2.15-.198 9.047.001 6.789.011 8.279.055 8.402.184.515.739.782 1.268.61.202-.066.335-.19 2.156-2.005L7.423 18h9.157l2.38 2.383c1.322 1.323 2.46 2.43 2.56 2.49.153.091.226.107.48.107.257 0 .327-.016.492-.113.476-.28.647-.9.373-1.359-.055-.092-4.65-4.715-10.212-10.273C3.3 1.889 2.525 1.125 2.343 1.065a1 1 0 0 0-.673-.004m7.025.996c-.23.072-.439.242-.567.459-.091.156-.108.23-.108.484 0 .256.016.328.111.489.125.213.318.375.539.454.122.044 1.101.054 5.293.055 5.754.002 5.406-.015 5.716.285.326.317.299-.181.321 5.74l.02 5.283.121.197a.998.998 0 0 0 1.718 0l.121-.197V4.46l-.094-.3a3.09 3.09 0 0 0-2.025-2.039l-.321-.101-5.34-.008c-4.3-.006-5.372.003-5.505.045M10.65 16c-3.751.019-3.917.023-4.07.097-.1.048-.617.53-1.37 1.278L4 18.577V5.42l5.28 5.28 5.28 5.28z"/></svg>