<svg xmlns="http://www.w3.org/2000/svg" width="24" height="24" fill="none" stroke="currentColor" stroke-linecap="round" stroke-linejoin="round" stroke-width="2"><path fill="#000" fill-rule="evenodd" stroke="none" d="M4.499 2.043c-1.109.188-2.011.981-2.385 2.097l-.094.28-.011 8.353c-.007 5.549.003 8.404.03 8.504.144.532.741.84 1.286.663.202-.066.335-.19 2.155-2.004l1.941-1.934 6.079-.011 6.08-.011.28-.094a3.13 3.13 0 0 0 2.024-2.026c.09-.272.093-.332.107-1.997.016-1.923.016-1.921-.267-2.235-.194-.216-.405-.306-.715-.307-.428-.002-.729.189-.914.579-.094.199-.094.206-.095 1.704 0 1.634-.012 1.739-.221 2.014-.061.08-.194.195-.295.254l-.184.108-6.28.02c-6.089.019-6.285.022-6.44.097-.1.048-.617.53-1.37 1.278L4 18.577v-6.841c0-7.696-.024-7.106.303-7.433C4.62 3.986 4.429 4 8.397 4l3.503-.001.2-.094c.381-.181.588-.5.588-.905 0-.385-.195-.703-.548-.894l-.16-.086-3.64-.006c-2.002-.003-3.731.01-3.841.029m12.859.018c-1.128.176-2.215.913-2.789 1.892a3.992 3.992 0 0 0 1.943 5.751 3.99 3.99 0 0 0 5.192-2.216 3.96 3.96 0 0 0 .001-2.972 3.98 3.98 0 0 0-3.1-2.458 3.7 3.7 0 0 0-1.247.003m1.165 2.012a2.01 2.01 0 0 1 1.27 2.807c-.155.318-.566.745-.863.895a2.07 2.07 0 0 1-1.422.165c-.685-.178-1.259-.746-1.435-1.417a2 2 0 0 1 2.45-2.45"/></svg>