<svg xmlns="http://www.w3.org/2000/svg" width="24" height="24" fill="none" stroke="currentColor" stroke-linecap="round" stroke-linejoin="round" stroke-width="2"><path fill="#000" fill-rule="evenodd" stroke="none" d="M4.499 2.043c-1.109.187-2.011.981-2.385 2.097l-.094.28-.011 8.359c-.011 9.121-.026 8.527.215 8.842.059.079.191.192.292.251.156.091.23.108.484.108s.328-.016.48-.107c.223-.133 2.323-2.24 2.425-2.433.052-.099.074-.227.074-.44.001-.255-.015-.328-.107-.484a1.05 1.05 0 0 0-.556-.458c-.37-.13-.711-.039-1.072.288L4 18.567v-6.836c0-7.691-.024-7.101.303-7.428C4.631 3.976 4.009 4 12 4s7.369-.024 7.697.303c.323.324.303-.06.303 5.698 0 5.544.009 5.315-.221 5.617-.166.217-.399.336-.745.38a2.6 2.6 0 0 0-.409.08 1.1 1.1 0 0 0-.497.438c-.091.156-.108.23-.108.484 0 .257.016.327.113.492.13.222.369.409.603.473.224.061.783.017 1.127-.088a3.08 3.08 0 0 0 2.023-2.037l.094-.3V4.46l-.094-.3a3.09 3.09 0 0 0-2.025-2.039l-.321-.101-7.42-.006c-4.081-.003-7.511.01-7.621.029m7.196 4.014a1.04 1.04 0 0 0-.567.459l-.108.184-.012 1.15L10.995 9H9.944c-1.147 0-1.301.022-1.562.221-.08.061-.195.194-.254.295-.091.156-.108.23-.108.484 0 .256.016.328.111.489.061.103.173.236.25.294.261.2.357.213 1.527.215l1.087.002.013 1.153.012 1.154.121.196a.998.998 0 0 0 1.718 0l.121-.196.012-1.154.013-1.153 1.087-.002c1.17-.002 1.266-.015 1.527-.215.077-.058.189-.191.25-.294.095-.161.111-.233.111-.489 0-.254-.017-.328-.108-.484a1.2 1.2 0 0 0-.254-.295C15.357 9.022 15.203 9 14.056 9h-1.051l-.013-1.15-.012-1.15-.108-.184a1.005 1.005 0 0 0-1.177-.459m-3 10a1.04 1.04 0 0 0-.567.459c-.091.156-.108.23-.108.484 0 .256.016.328.111.489.125.213.318.375.539.454s6.439.079 6.66 0 .414-.241.539-.454c.095-.161.111-.233.111-.489 0-.254-.017-.328-.108-.484a1.02 1.02 0 0 0-.582-.461c-.26-.078-6.345-.076-6.595.002"/></svg>