<svg xmlns="http://www.w3.org/2000/svg" width="24" height="24" fill="none" stroke="currentColor" stroke-linecap="round" stroke-linejoin="round" stroke-width="2"><path fill="#000" fill-rule="evenodd" stroke="none" d="M4.499 2.043c-1.106.185-2.011.981-2.385 2.097l-.094.28-.011 8.359c-.011 9.121-.026 8.527.215 8.842.059.079.191.192.292.251.156.092.229.108.484.107.212 0 .341-.022.44-.074.077-.04 1.004-.935 2.06-1.988l1.92-1.915 6.08-.011 6.08-.011.28-.094c.991-.332 1.722-1.07 2.026-2.046.093-.297.094-.319.094-2.22V11.7l-.109-.186a1.01 1.01 0 0 0-1.742 0l-.109.186-.021 1.78c-.014 1.288-.034 1.811-.07 1.893a1.14 1.14 0 0 1-.445.499l-.184.108-6.28.02c-6.089.019-6.285.022-6.44.097-.1.048-.617.53-1.37 1.278L4 18.577v-6.841c0-7.696-.024-7.106.303-7.433.318-.318.111-.303 4.234-.305 2.939-.001 3.672-.012 3.793-.055.221-.079.414-.241.539-.454.095-.161.111-.233.111-.489 0-.254-.017-.328-.108-.484a1.2 1.2 0 0 0-.254-.295c-.298-.227-.192-.221-4.214-.216-2.037.002-3.795.02-3.905.038m11.196.014a1.04 1.04 0 0 0-.567.459c-.091.156-.108.23-.108.484 0 .256.016.328.111.489.061.103.173.236.25.294.269.206.335.213 1.818.215l1.38.002-1.705 1.71c-.938.941-1.736 1.771-1.773 1.845-.229.455-.045 1.046.407 1.312.165.097.234.113.492.112.212 0 .341-.022.44-.074.077-.04.909-.84 1.848-1.777l1.708-1.703.012 1.441.012 1.44.121.197a.998.998 0 0 0 1.718 0l.121-.197.011-2.743c.011-2.474.005-2.76-.055-2.917a1 1 0 0 0-.516-.552l-.2-.093-2.68.002c-2.074.002-2.717.014-2.845.054"/></svg>