<svg xmlns="http://www.w3.org/2000/svg" width="24" height="24" fill="none" stroke="currentColor" stroke-linecap="round" stroke-linejoin="round" stroke-width="2"><path fill="#000" fill-rule="evenodd" stroke="none" d="M4.499 2.043c-1.109.187-2.011.981-2.385 2.097l-.094.28-.011 8.359c-.011 9.121-.026 8.527.215 8.842.059.079.191.192.292.251.156.091.23.108.484.108s.327-.016.48-.107c.099-.06 1.026-.955 2.06-1.99L7.42 18l.88-.002c.947-.002 1.065-.021 1.319-.215.077-.058.189-.191.25-.294.095-.161.111-.233.111-.489 0-.255-.016-.328-.109-.486a1.04 1.04 0 0 0-.647-.476c-.133-.029-.602-.04-1.344-.031-1.025.012-1.156.021-1.3.09-.1.048-.617.53-1.37 1.278L4 18.577v-6.841c0-7.696-.024-7.106.303-7.433C4.631 3.976 4.009 4 12 4s7.369-.024 7.697.303c.302.303.303.308.303 2.494l.001 1.903.094.2c.181.382.5.588.908.588a.94.94 0 0 0 .721-.315c.288-.319.282-.266.267-2.635-.013-2.09-.015-2.122-.106-2.398a3.11 3.11 0 0 0-2.024-2.019l-.321-.101-7.42-.006c-4.081-.003-7.511.01-7.621.029m12 7.997a3.06 3.06 0 0 0-2.381 2.1c-.076.238-.092.396-.108 1.062l-.019.781-.306.049a1.88 1.88 0 0 0-1.089.565c-.286.285-.442.55-.536.911-.088.336-.088 3.648 0 3.984.093.36.25.626.536.912s.552.443.912.536c.342.089 6.642.089 6.984 0 .36-.093.626-.25.912-.536.29-.29.437-.541.533-.913.09-.347.092-3.582.003-3.962-.088-.373-.241-.638-.536-.932a1.88 1.88 0 0 0-1.089-.565l-.306-.049-.019-.781c-.016-.666-.032-.824-.108-1.062-.311-.97-1.081-1.736-2.021-2.011-.361-.106-1.029-.149-1.362-.089m.811 2.021a.9.9 0 0 1 .387.242c.251.251.303.448.303 1.144V14h-2v-.573c0-.692.048-.869.307-1.128q.414-.413 1.003-.238M20 17.5V19h-6v-3h6z"/></svg>