<svg xmlns="http://www.w3.org/2000/svg" width="24" height="24" fill="none" stroke="currentColor" stroke-linecap="round" stroke-linejoin="round" stroke-width="2"><path fill="#000" fill-rule="evenodd" stroke="none" d="M4.499 2.043c-1.109.187-2.011.981-2.385 2.097l-.094.28-.011 8.359c-.011 9.121-.026 8.527.215 8.842.059.079.191.192.292.251.156.092.229.108.484.107.212 0 .341-.022.44-.074.077-.04 1.004-.935 2.06-1.988l1.92-1.915 6.08-.011 6.08-.011.28-.094c.991-.332 1.722-1.07 2.026-2.046l.094-.3V4.46l-.094-.3a3.09 3.09 0 0 0-2.025-2.039l-.321-.101-7.42-.006c-4.081-.003-7.511.01-7.621.029M19.31 4.061c.279.083.546.35.629.629.053.178.061.856.061 5.311 0 4.211-.01 5.138-.055 5.289a1.02 1.02 0 0 1-.461.582l-.184.108-6.28.02c-6.089.019-6.285.022-6.44.097-.1.048-.617.53-1.37 1.278L4 18.577v-6.841c0-6.008.007-6.866.061-7.046.079-.269.351-.547.612-.627.291-.089 14.336-.092 14.637-.002M7.695 7.057a1.04 1.04 0 0 0-.567.459c-.091.156-.108.23-.108.484 0 .256.016.328.111.489.125.213.318.375.539.454.098.035.353.054.74.055L9 9v.554c0 .615-.045.833-.221 1.064-.166.217-.399.336-.745.38a2.6 2.6 0 0 0-.409.08 1.1 1.1 0 0 0-.497.438c-.091.156-.108.23-.108.484 0 .257.016.327.113.492.13.222.369.409.603.473.224.061.783.017 1.127-.088a3.08 3.08 0 0 0 2.023-2.037c.091-.291.094-.343.094-1.72V7.7l-.108-.184a1.02 1.02 0 0 0-.582-.461c-.251-.076-2.353-.074-2.595.002m6 0a1.04 1.04 0 0 0-.567.459c-.091.156-.108.23-.108.484 0 .256.016.328.111.489.125.213.318.375.539.454.098.035.353.054.74.055L15 9v.554c0 .615-.045.833-.221 1.064-.166.217-.399.336-.745.38a2.6 2.6 0 0 0-.409.08 1.1 1.1 0 0 0-.497.438c-.091.156-.108.23-.108.484 0 .257.016.327.113.492.13.222.369.409.603.473.233.063.798.015 1.157-.099a3.08 3.08 0 0 0 1.993-2.026c.091-.291.094-.343.094-1.72V7.7l-.108-.184a1.02 1.02 0 0 0-.582-.461c-.251-.076-2.353-.074-2.595.002"/></svg>