<svg xmlns="http://www.w3.org/2000/svg" width="24" height="24" fill="none" stroke="currentColor" stroke-linecap="round" stroke-linejoin="round" stroke-width="2"><path fill="#000" fill-rule="evenodd" stroke="none" d="M1.67 1.061c-.222.081-.42.248-.542.455-.091.156-.108.23-.108.484s.016.327.107.48c.06.099.783.854 1.607 1.677l1.5 1.497-.179.232c-.662.861-1.298 2.15-1.631 3.307a10.1 10.1 0 0 0-.01 5.487c.111.391.349 1.052.445 1.238.065.127.064.131-.897 3.016-.619 1.86-.962 2.947-.962 3.05 0 .552.466 1.017 1.017 1.016.106 0 1.176-.338 3.04-.959l2.877-.959.183.083c1.781.8 3.998 1.031 5.888.613 1.504-.333 3.025-1.054 4.057-1.924l.202-.17 1.538 1.54c.846.848 1.619 1.589 1.718 1.649.153.091.226.107.48.107.257 0 .327-.016.492-.113.476-.28.647-.9.373-1.359-.055-.092-4.65-4.715-10.212-10.273C3.3 1.889 2.525 1.125 2.343 1.065a1 1 0 0 0-.673-.004m8.99 1.057c-.947.137-1.894.399-2.173.601-.178.129-.338.402-.384.653-.06.33.191.832.493.986.313.16.481.171.891.061 1.202-.322 1.78-.4 2.741-.368.7.023 1.124.083 1.78.25 2.744.702 4.988 2.946 5.691 5.691.207.808.24 1.091.238 2.048-.001 1.016-.036 1.278-.301 2.249-.121.446-.154.625-.133.74.125.684.804 1.046 1.428.76.303-.138.437-.333.608-.886.296-.951.42-1.807.421-2.892.001-2.691-1.04-5.175-2.967-7.079-1.533-1.515-3.252-2.389-5.453-2.775-.704-.123-2.16-.143-2.88-.039m6.133 16.19a4 4 0 0 1-.35.267c-1.457 1.021-3.311 1.537-5.004 1.392-1.032-.088-1.758-.284-2.729-.735-.707-.329-.533-.356-2.988.465a90 90 0 0 1-2.109.69 84 84 0 0 1 .69-2.109c.82-2.454.791-2.269.467-2.998-.535-1.205-.728-2.072-.729-3.283a8.24 8.24 0 0 1 1.341-4.51l.271-.414 5.592 5.592c4.327 4.327 5.582 5.603 5.548 5.643"/></svg>