<svg xmlns="http://www.w3.org/2000/svg" width="24" height="24" fill="none" stroke="currentColor" stroke-linecap="round" stroke-linejoin="round" stroke-width="2"><path fill="#000" fill-rule="evenodd" stroke="none" d="M4.499 2.043C3.382 2.23 2.454 3.054 2.115 4.16c-.07.23-.092.399-.093.723-.002.402.004.432.119.62.396.644 1.316.653 1.708.017.078-.128.122-.271.15-.489.049-.386.112-.54.302-.73s.344-.253.727-.302c.364-.046.603-.172.774-.408a.99.99 0 0 0-.512-1.536c-.2-.06-.479-.064-.791-.012m4.196.014a1.04 1.04 0 0 0-.567.459c-.091.156-.108.23-.108.484 0 .256.016.328.111.489.125.213.318.375.539.454.208.074 1.452.074 1.66 0 .221-.079.414-.241.539-.454.095-.161.111-.233.111-.489 0-.254-.017-.328-.108-.484a1.02 1.02 0 0 0-.582-.461c-.24-.072-1.362-.071-1.595.002m5 0a1.04 1.04 0 0 0-.567.459c-.091.156-.108.23-.108.484 0 .256.016.328.111.489.125.213.318.375.539.454.208.074 1.452.074 1.66 0 .221-.079.414-.241.539-.454.095-.161.111-.233.111-.489 0-.254-.017-.328-.108-.484a1.02 1.02 0 0 0-.582-.461c-.24-.072-1.362-.071-1.595.002m5-.003a.997.997 0 0 0-.497 1.537c.171.236.41.362.774.408.383.049.537.113.727.302.19.19.253.344.302.73.048.379.183.616.451.797.471.316 1.102.17 1.407-.325.115-.188.121-.218.119-.62-.001-.324-.023-.493-.093-.723-.299-.976-1.076-1.756-2.022-2.03-.4-.115-.941-.151-1.168-.076m-16 6.003a1.04 1.04 0 0 0-.567.459c-.108.183-.108.187-.108.987v.803l.121.197a.998.998 0 0 0 1.718 0l.121-.197v-.803c0-.8 0-.804-.108-.987a1.005 1.005 0 0 0-1.177-.459m18 0a1.04 1.04 0 0 0-.567.459c-.108.183-.108.187-.108.987v.803l.121.197a.998.998 0 0 0 1.718 0l.121-.197v-.803c0-.8 0-.804-.108-.987a1.005 1.005 0 0 0-1.177-.459m-18 5a1.04 1.04 0 0 0-.567.459l-.108.184-.011 3.719c-.012 4.052-.02 3.895.215 4.202.059.079.191.192.292.251.156.091.23.108.484.108s.327-.016.48-.107c.099-.06 1.026-.955 2.06-1.99L7.42 18l1.38-.002c1.484-.002 1.55-.009 1.819-.215.077-.058.189-.191.25-.294.095-.161.111-.233.111-.489 0-.255-.016-.328-.109-.486a1.03 1.03 0 0 0-.647-.475c-.137-.03-.743-.041-1.844-.032-1.52.012-1.652.019-1.8.09-.1.048-.617.53-1.369 1.277l-1.209 1.201-.011-2.438L3.98 13.7l-.108-.184a1.005 1.005 0 0 0-1.177-.459m18 0a1.04 1.04 0 0 0-.567.459c-.105.178-.109.208-.131.964-.024.814-.042.907-.223 1.145-.161.21-.397.33-.74.373a2.6 2.6 0 0 0-.409.08 1.1 1.1 0 0 0-.497.438c-.091.156-.108.23-.108.484 0 .257.016.327.113.492.13.222.369.409.603.473.224.061.783.017 1.127-.088a3.08 3.08 0 0 0 2.023-2.037c.087-.278.094-.367.094-1.22v-.92l-.108-.184a1.005 1.005 0 0 0-1.177-.459m-7 3a1.04 1.04 0 0 0-.567.459c-.091.156-.108.23-.108.484 0 .256.016.328.111.489.125.213.318.375.539.454.208.074 1.452.074 1.66 0 .221-.079.414-.241.539-.454.095-.161.111-.233.111-.489 0-.254-.017-.328-.108-.484a1.02 1.02 0 0 0-.582-.461c-.24-.072-1.362-.071-1.595.002"/></svg>