<svg xmlns="http://www.w3.org/2000/svg" width="24" height="24" fill="none" stroke="currentColor" stroke-linecap="round" stroke-linejoin="round" stroke-width="2"><path fill="#000" fill-rule="evenodd" stroke="none" d="M10.94 2.068c-.571.048-.714.074-.893.159-.67.32-.724 1.287-.096 1.703.235.155.507.191 1.069.14a11.7 11.7 0 0 1 1.96 0c.576.052.841.014 1.087-.155.602-.414.538-1.378-.113-1.686-.184-.088-.321-.111-.994-.165-.904-.074-1.099-.074-2.02.004M6.419 3.776c-.375.163-1.594 1.29-2.213 2.044-.408.498-.499.678-.497.98.006.582.507 1.047 1.066.989.384-.04.545-.16 1.055-.789.275-.339.92-.979 1.25-1.24.524-.415.666-.607.708-.962a1.1 1.1 0 0 0-.028-.377c-.063-.226-.323-.528-.538-.626-.193-.087-.623-.098-.803-.019m10.359.019c-.215.098-.475.4-.538.626-.062.222-.032.52.074.726.088.17.241.322.686.683.339.275.979.92 1.24 1.25.422.533.613.671.985.709.559.058 1.06-.407 1.066-.989.002-.302-.089-.482-.497-.98-.629-.767-1.848-1.89-2.222-2.046-.187-.078-.6-.067-.794.021M2.644 9.625a.95.95 0 0 0-.519.715c-.1.586-.139 1.638-.088 2.388.061.903.102 1.127.245 1.334a1 1 0 0 0 1.638-.002c.164-.239.202-.509.15-1.08a11.6 11.6 0 0 1 0-1.958q.043-.479.004-.7A.97.97 0 0 0 3.1 9.52a.9.9 0 0 0-.456.105m17.8 0a.99.99 0 0 0-.518.68c-.03.15-.029.35.005.702.057.602.056 1.924-.002 2.256-.085.488.111.903.527 1.116.577.294 1.221.002 1.404-.636.171-.598.179-2.29.015-3.383a.95.95 0 0 0-.975-.84.9.9 0 0 0-.456.105m-1.462 6.632c-.229.085-.332.172-.621.526-.336.411-1.166 1.24-1.61 1.607-.215.178-.381.352-.432.452a1.1 1.1 0 0 0-.079.739c.066.234.345.548.57.64.215.088.564.09.765.005.535-.227 2.346-2.031 2.633-2.622.164-.338.087-.799-.18-1.078-.267-.278-.713-.392-1.046-.269m-15.947.374a.9.9 0 0 0-.342.3C2.53 17.174 1 21.74 1 21.985 1 22.535 1.465 23 2.015 23c.244 0 4.81-1.529 5.055-1.693a.96.96 0 0 0 .391-1.05c-.137-.462-.496-.737-.959-.737-.2.001-.468.076-1.56.439-.725.242-1.323.434-1.329.428s.19-.613.434-1.349c.504-1.514.523-1.626.34-1.986a.995.995 0 0 0-1.352-.421m6.975 3.407c-.366.215-.569.654-.485 1.047.097.455.446.748.995.835.688.109 2.276.086 3.12-.044.962-.149 1.169-1.433.3-1.858l-.226-.11-.647.034c-.825.045-1.754.046-2.367.005l-.48-.032z"/></svg>