<svg xmlns="http://www.w3.org/2000/svg" width="24" height="24" fill="none" stroke="currentColor" stroke-linecap="round" stroke-linejoin="round" stroke-width="2"><path fill="#000" fill-rule="evenodd" stroke="none" d="M1.67 1.061c-.222.081-.42.248-.542.455-.092.156-.108.229-.107.484 0 .212.022.341.074.44.04.077 1.609 1.679 3.487 3.56l3.413 3.42.016 1.62c.014 1.534.02 1.637.105 1.939a4.2 4.2 0 0 0 1.079 1.861 3.99 3.99 0 0 0 4.571.743l.267-.131.748.749.748.748-.135.101c-.806.607-2.481 1.133-3.154.99a1 1 0 0 0-.489.001c-.603.12-1.911-.248-2.845-.8-1.176-.694-2.176-1.946-2.604-3.258-.247-.759-.273-.99-.298-2.703L5.98 9.7l-.109-.186a1.01 1.01 0 0 0-1.742 0L4.02 9.7l-.012 1.4c-.016 1.879.052 2.487.396 3.52a8.03 8.03 0 0 0 5.654 5.239c.287.073.615.145.73.16l.207.028.013 1.13.012 1.13.121.196a.998.998 0 0 0 1.718 0l.121-.196.012-1.131.013-1.13.167-.026c1.281-.203 2.592-.742 3.545-1.457.12-.09.228-.163.24-.163.013 0 1.004.982 2.203 2.183 1.203 1.204 2.261 2.23 2.36 2.29.153.091.226.107.48.107.257 0 .327-.016.492-.113.476-.28.647-.9.373-1.359-.055-.092-4.65-4.715-10.212-10.273C3.3 1.889 2.525 1.125 2.343 1.065a1 1 0 0 0-.673-.004m9.941-.016c-.865.077-1.818.524-2.438 1.143-.446.447-.799 1.021-.84 1.369-.093.787.765 1.366 1.46.984.173-.095.253-.179.436-.457.361-.548.712-.832 1.211-.98.279-.083.841-.083 1.123 0a2.02 2.02 0 0 1 1.378 1.485c.046.217.058.734.059 2.611l.001 2.34.094.2c.181.382.5.588.908.588a.94.94 0 0 0 .721-.315c.291-.323.281-.214.266-3.074-.013-2.531-.014-2.563-.106-2.899a4.06 4.06 0 0 0-1.119-1.89c-.854-.824-1.958-1.21-3.154-1.105m7.084 8.012a1.04 1.04 0 0 0-.567.459l-.108.184-.024 1.44c-.013.792-.046 1.611-.074 1.82-.048.359-.046.393.035.606.112.295.354.522.66.618a.7.7 0 0 0 .455.024c.28-.059.512-.22.662-.46.202-.322.243-.744.245-2.508l.001-1.54-.108-.184a1.005 1.005 0 0 0-1.177-.459m-6.224 4.885c-.013.014-.166.035-.338.047a1.93 1.93 0 0 1-1.515-.566c-.438-.439-.577-.785-.606-1.503l-.02-.5 1.252 1.248c.689.687 1.241 1.26 1.227 1.274"/></svg>