<svg xmlns="http://www.w3.org/2000/svg" width="24" height="24" fill="none" stroke="currentColor" stroke-linecap="round" stroke-linejoin="round" stroke-width="2"><path fill="#000" fill-rule="evenodd" stroke="none" d="M15.38 1.043c-2.596.256-4.732 2.204-5.261 4.797a7 7 0 0 0-.108.935l-.023.514-2.86 3.906a457 457 0 0 0-2.991 4.11 2.6 2.6 0 0 0-.222.46c-.175.497-.09 1.243.186 1.646l.104.151-.1.249c-.234.59-.295 1.475-.147 2.169.441 2.079 2.159 3.338 4.094 3 .715-.124 1.313-.365 2.475-.993 1.02-.552 1.37-.723 1.753-.852.299-.101.395-.115.8-.113.903.005 1.699.267 2.736.9.328.201.376.218.639.231.251.012.311 0 .501-.1.535-.28.704-1.005.345-1.476-.208-.272-1.292-.886-2.052-1.163-.859-.312-1.909-.464-2.639-.381-.88.1-1.374.293-2.991 1.171-1.227.667-1.799.871-2.308.825-.318-.029-.701-.219-.902-.449-.311-.353-.529-.902-.529-1.334v-.202l.138.058c.075.031.289.069.474.083.503.039.868-.066 1.308-.374.173-.122 5.953-4.524 7.322-5.576l.301-.232.659-.016q2.488-.061 4.187-1.792c.84-.855 1.357-1.826 1.616-3.035.13-.606.13-1.714 0-2.32-.259-1.209-.776-2.18-1.616-3.035C18.978 1.49 17.23.86 15.38 1.043m1.225 2.015c1.469.222 2.705 1.266 3.192 2.697.1.295.203.925.203 1.245 0 .322-.103.951-.204 1.245-.475 1.387-1.601 2.383-3.023 2.672-2.21.451-4.377-1.072-4.715-3.312a3.4 3.4 0 0 1 0-1.21c.256-1.697 1.617-3.071 3.3-3.334a3.7 3.7 0 0 1 1.247-.003M10.801 9.99c.432.775 1.269 1.636 2.073 2.13.205.126.21.134.139.2-.04.039-1.494 1.153-3.23 2.477l-3.158 2.408-.402-.402c-.392-.392-.4-.405-.342-.499.061-.099 4.774-6.544 4.785-6.544.003 0 .064.104.135.23"/></svg>