<svg xmlns="http://www.w3.org/2000/svg" width="24" height="24" fill="none" stroke="currentColor" stroke-linecap="round" stroke-linejoin="round" stroke-width="2"><path fill="#000" fill-rule="evenodd" stroke="none" d="M11.358 1.061c-1.627.254-2.941 1.523-3.275 3.166C8.002 4.62 8 4.75 8 8.5s.002 3.88.083 4.273a3.97 3.97 0 0 0 2.429 2.931 3.95 3.95 0 0 0 2.245.217c1.627-.332 2.832-1.537 3.164-3.164.076-.373.079-.556.079-4.257s-.003-3.884-.079-4.257c-.2-.979-.724-1.828-1.483-2.4a3.95 3.95 0 0 0-1.833-.785 3.7 3.7 0 0 0-1.247.003m1.165 2.012c.499.13.993.526 1.249.998.227.419.227.418.227 4.429 0 4.01 0 4.007-.227 4.431-.147.277-.581.712-.842.844a2.04 2.04 0 0 1-1.847.006c-.267-.135-.634-.484-.802-.764-.285-.473-.276-.328-.279-4.489-.002-4.15-.007-4.064.263-4.514.48-.802 1.37-1.173 2.258-.941M4.695 9.057a1.04 1.04 0 0 0-.567.459L4.02 9.7l-.013 1.32c-.014 1.393.018 1.915.159 2.6a8.4 8.4 0 0 0 1.508 3.28c.259.339.932 1.025 1.286 1.311a8.4 8.4 0 0 0 2.54 1.384c.476.156 1.203.325 1.396.325h.1l.012 1.193.012 1.193.121.197a.998.998 0 0 0 1.718 0l.121-.197.012-1.193.012-1.193h.1c.193 0 .92-.169 1.396-.325a8.4 8.4 0 0 0 2.54-1.384c.354-.286 1.027-.972 1.286-1.311a8.4 8.4 0 0 0 1.508-3.28c.141-.685.173-1.207.159-2.6L19.98 9.7l-.109-.186a1.01 1.01 0 0 0-1.742 0l-.109.186-.026 1.5c-.029 1.733-.064 2.009-.355 2.829-.693 1.953-2.381 3.406-4.479 3.856-.606.13-1.714.13-2.32 0-2.101-.451-3.785-1.901-4.479-3.856-.291-.82-.326-1.096-.355-2.829L5.98 9.7l-.108-.184a1.005 1.005 0 0 0-1.177-.459"/></svg>