<svg xmlns="http://www.w3.org/2000/svg" width="24" height="24" fill="none" stroke="currentColor" stroke-linecap="round" stroke-linejoin="round" stroke-width="2"><path fill="#000" fill-rule="evenodd" stroke="none" d="M8.477 1.073c-.671.176-1.239.75-1.417 1.435-.046.177-.06.486-.06 1.354v1.125l-.214.048c-.271.061-.516.24-.657.479L6.02 5.7v4.84l.094.3c.359 1.152 1.347 1.995 2.506 2.14l.24.03-.165.049a1.02 1.02 0 0 0-.567.457c-.091.156-.108.23-.108.484 0 .256.016.328.111.489.125.213.318.375.539.454.215.077 2.445.077 2.66 0 .221-.079.414-.241.539-.454.095-.161.111-.233.111-.489 0-.254-.017-.328-.108-.484a1.02 1.02 0 0 0-.567-.457l-.165-.049.24-.03c1.15-.144 2.137-.981 2.502-2.12.076-.239.092-.396.108-1.07.019-.774.021-.79.105-.789.221.003.885.082 1.169.14 2 .409 3.737 1.953 4.407 3.919.497 1.457.397 3.191-.261 4.52-.856 1.727-2.321 2.872-4.23 3.306l-.4.09-6.02.022c-4.694.017-6.045.033-6.133.072a1.15 1.15 0 0 0-.499.446c-.091.156-.108.23-.108.484 0 .256.016.328.111.489.125.213.318.375.539.454.223.08 18.437.08 18.66 0 .221-.079.414-.241.539-.454.095-.161.111-.233.111-.489 0-.254-.017-.328-.108-.484a1.2 1.2 0 0 0-.254-.295c-.255-.194-.426-.221-1.411-.221h-.9l.418-.43c.662-.682 1.074-1.268 1.475-2.099a7.94 7.94 0 0 0 0-6.942 7.5 7.5 0 0 0-1.399-2.025c-1.405-1.468-3.176-2.309-5.208-2.472l-.586-.047-.014-.642c-.012-.617-.017-.651-.122-.829a1.04 1.04 0 0 0-.657-.479L13 4.987l-.001-1.103c0-1.193-.029-1.429-.218-1.801-.23-.455-.759-.88-1.258-1.01-.389-.101-2.657-.101-3.046 0M11 4v1H9V3h2zm1 4.554c0 1.688-.011 1.788-.221 2.064-.061.08-.194.195-.295.254l-.184.108H8.7l-.184-.108a1.2 1.2 0 0 1-.291-.249C8.006 10.336 8 10.283 8 8.575V7h4zm-6.305 8.503a1.04 1.04 0 0 0-.567.459c-.091.156-.108.23-.108.484 0 .256.016.328.111.489.125.213.318.375.539.454s8.438.079 8.66 0 .414-.241.539-.454c.095-.161.111-.233.111-.489 0-.254-.017-.328-.108-.484a1.02 1.02 0 0 0-.582-.461c-.261-.079-8.344-.076-8.595.002"/></svg>