<svg xmlns="http://www.w3.org/2000/svg" width="24" height="24" fill="none" stroke="currentColor" stroke-linecap="round" stroke-linejoin="round" stroke-width="2"><path fill="#000" fill-rule="evenodd" stroke="none" d="M7.499 1.041A3.05 3.05 0 0 0 5.312 2.67L5.147 3H4.52c-.879 0-1.147.099-1.392.516-.091.156-.108.23-.108.484 0 .256.016.328.111.489.125.213.318.375.539.454.098.035.353.054.74.055L5 5v2h-.554c-.798 0-1.079.11-1.318.516-.091.156-.108.23-.108.484 0 .256.016.328.111.489.125.213.318.375.539.454.098.035.353.054.74.055L5 9v2h-.554c-.798 0-1.079.11-1.318.516-.091.156-.108.23-.108.484 0 .256.016.328.111.489.125.213.318.375.539.454.098.035.353.054.74.055L5 13v2h-.554c-.798 0-1.079.11-1.318.516-.091.156-.108.23-.108.484 0 .256.016.328.111.489.125.213.318.375.539.454.098.035.353.054.74.055L5 17v2h-.554c-.798 0-1.079.11-1.318.516-.091.156-.108.23-.108.484 0 .256.016.328.111.489.061.103.173.236.25.294.242.185.387.213 1.102.215l.664.002.165.33a3.1 3.1 0 0 0 1.848 1.556l.3.094h9.08l.3-.094a3.1 3.1 0 0 0 1.848-1.556l.165-.33.664-.002c.715-.002.86-.03 1.102-.215.077-.058.189-.191.25-.294.095-.161.111-.233.111-.489 0-.254-.017-.328-.108-.484-.239-.406-.52-.516-1.318-.516H19v-2l.59-.002c.387-.001.642-.02.74-.055.221-.079.414-.241.539-.454.095-.161.111-.233.111-.489 0-.254-.017-.328-.108-.484-.239-.406-.52-.516-1.318-.516H19v-2l.59-.002c.387-.001.642-.02.74-.055.221-.079.414-.241.539-.454.095-.161.111-.233.111-.489 0-.254-.017-.328-.108-.484-.239-.406-.52-.516-1.318-.516H19V9l.59-.002c.387-.001.642-.02.74-.055.221-.079.414-.241.539-.454.095-.161.111-.233.111-.489 0-.254-.017-.328-.108-.484-.239-.406-.52-.516-1.318-.516H19V5l.59-.002c.387-.001.642-.02.74-.055.221-.079.414-.241.539-.454.095-.161.111-.233.111-.489 0-.254-.017-.328-.108-.484C20.627 3.099 20.359 3 19.48 3h-.627l-.165-.33a3.1 3.1 0 0 0-1.866-1.558c-.303-.087-.39-.092-1.502-.092h-1.18l-.26.124c-.442.21-.725.543-.899 1.052-.122.36-.245.528-.492.673-.161.095-.233.111-.489.111-.509 0-.791-.226-.981-.784-.171-.5-.449-.827-.892-1.046l-.265-.13-1.081-.007c-.595-.004-1.172.009-1.282.028m1.795 2.25a3.1 3.1 0 0 0 1.947 1.617c.357.097 1.161.097 1.518 0a3.1 3.1 0 0 0 1.947-1.617l.14-.291h.63c.78 0 .963.045 1.221.303.329.329.303-.412.303 8.698 0 6.753-.009 8.137-.055 8.289a1.02 1.02 0 0 1-.461.582l-.184.108H7.7l-.184-.108a1.2 1.2 0 0 1-.291-.249c-.24-.315-.225.267-.225-8.621 0-9.156-.028-8.368.307-8.703.253-.252.416-.293 1.2-.296L9.154 3z"/></svg>