<svg xmlns="http://www.w3.org/2000/svg" width="24" height="24" fill="none" stroke="currentColor" stroke-linecap="round" stroke-linejoin="round" stroke-width="2"><path fill="#000" fill-rule="evenodd" stroke="none" d="M3.499 3.043C2.38 3.232 1.461 4.048 1.114 5.16l-.094.3v12.08l.094.3a3.1 3.1 0 0 0 2.026 2.042c.239.076.396.092 1.067.108l.786.019.014.649c.013.642.014.651.134.845a.998.998 0 0 0 1.718 0c.12-.195.121-.203.134-.85L7.007 20h9.986l.014.653c.013.647.014.655.134.85a.998.998 0 0 0 1.718 0c.12-.194.121-.203.134-.845l.014-.649.786-.019c.671-.016.828-.032 1.067-.108a3.1 3.1 0 0 0 2.026-2.042l.094-.3V5.46l-.094-.3a3.09 3.09 0 0 0-2.025-2.039l-.321-.101-8.42-.006c-4.631-.003-8.511.01-8.621.029M20.31 5.061c.279.083.546.35.629.629.053.179.061.908.061 5.811 0 4.635-.01 5.638-.055 5.789a1.02 1.02 0 0 1-.461.582l-.184.108H3.7l-.184-.108a1.05 1.05 0 0 1-.458-.556c-.09-.255-.087-11.323.003-11.626.079-.269.351-.547.612-.627.16-.049 1.357-.058 8.31-.06 7.161-.003 8.147.004 8.327.058M6.477 7.073c-.671.176-1.239.75-1.417 1.435C5.01 8.7 5 9.18 5 11.5c0 3.001-.001 2.984.225 3.43.136.269.576.709.845.845.452.229.383.225 3.93.225s3.478.004 3.93-.225c.266-.135.708-.575.841-.838.229-.452.229-.448.228-3.423 0-2.956-.004-3.009-.218-3.431-.135-.267-.484-.634-.764-.802-.469-.282-.381-.276-4.017-.276-2.953 0-3.285.006-3.523.068m11.218-.016a1.04 1.04 0 0 0-.567.459l-.108.184v7.606l.121.197c.068.11.205.253.311.325.471.316 1.102.171 1.407-.325l.121-.197V7.7l-.108-.184a1.005 1.005 0 0 0-1.177-.459M13 11.5V14H7V9h6z"/></svg>