<svg xmlns="http://www.w3.org/2000/svg" width="24" height="24" fill="none" stroke="currentColor" stroke-linecap="round" stroke-linejoin="round" stroke-width="2"><path fill="#000" fill-rule="evenodd" stroke="none" d="M11.695 2.057a1.04 1.04 0 0 0-.567.459l-.108.184-.012 1.15L10.995 5l-3.627.002c-4.045.003-3.913-.006-4.385.279-.28.168-.629.535-.764.802C2 6.515 2 6.512 2 9.5c0 3.001-.001 2.984.225 3.43.136.269.576.709.845.845.455.231.349.225 4.298.225h3.63l.011 3.653.011 3.653.121.197a.998.998 0 0 0 1.718 0l.121-.197.011-3.653.011-3.653h2.141c2.341 0 2.481-.011 3.023-.238.343-.143 3.976-2.591 4.251-2.863.357-.354.583-.897.583-1.399 0-.488-.221-1.033-.559-1.378-.21-.214-3.774-2.637-4.161-2.828-.549-.272-.504-.267-3.008-.284l-2.268-.014-.012-1.148L12.98 2.7l-.108-.184a1.005 1.005 0 0 0-1.177-.459m5.616 5c.126.044 2.803 1.819 3.536 2.345l.147.105-1.766 1.194c-.971.657-1.829 1.217-1.907 1.245-.111.04-1.534.051-6.731.052L4 12V7h6.575c5.582 0 6.599.009 6.736.057"/></svg>