<svg xmlns="http://www.w3.org/2000/svg" width="24" height="24" fill="none" stroke="currentColor" stroke-linecap="round" stroke-linejoin="round" stroke-width="2"><path fill="#000" fill-rule="evenodd" stroke="none" d="M7.695 1.057a1.04 1.04 0 0 0-.567.459c-.092.156-.108.23-.108.487 0 .268.014.326.121.5.148.241.436.443.684.48l.184.027-.02 1.145c-.027 1.542-.05 1.619-.869 2.865-.57.867-.801 1.335-.973 1.971l-.127.469v11.08l.094.3a3.09 3.09 0 0 0 2.046 2.046l.3.094h7.08l.3-.094a3.09 3.09 0 0 0 2.046-2.046l.094-.3V9.46l-.127-.469c-.172-.634-.403-1.103-.968-1.965-.84-1.282-.848-1.309-.875-2.871l-.019-1.145.184-.027c.248-.037.536-.239.684-.48.107-.174.121-.232.121-.5 0-.257-.016-.331-.108-.487a1.02 1.02 0 0 0-.582-.461c-.261-.079-8.344-.076-8.595.002M14.01 4.27c.017 1.266.017 1.271.14 1.739.167.632.397 1.099.97 1.971.505.769.666 1.076.787 1.502.066.236.072.455.073 2.537v2.279l-.3.07a5.8 5.8 0 0 1-1.618.109c-.584-.051-1.043-.163-1.742-.425-1.065-.4-1.765-.532-2.82-.532-.4 0-.843.025-1.077.06-.218.033-.403.06-.412.06-.01 0-.01-.887-.001-1.97.02-2.505-.022-2.327.875-3.696.569-.868.799-1.336.964-1.965.123-.467.123-.476.141-1.739L10.008 3h3.984zm-3.37 11.35c.165.037.453.122.64.188 1.06.376 1.278.445 1.689.532a7.3 7.3 0 0 0 2.067.142c.299-.025.616-.062.704-.083.088-.02.183-.038.21-.038.076-.002.072 3.674-.005 3.929a1.02 1.02 0 0 1-.461.582l-.184.108H8.7l-.184-.108a1.2 1.2 0 0 1-.292-.251c-.226-.296-.226-.286-.214-2.698l.01-2.218.14-.037c.605-.16 1.869-.185 2.48-.048"/></svg>