<svg xmlns="http://www.w3.org/2000/svg" width="24" height="24" fill="none" stroke="currentColor" stroke-linecap="round" stroke-linejoin="round" stroke-width="2"><path fill="#000" fill-rule="evenodd" stroke="none" d="M1.67 1.061c-.222.081-.42.248-.542.455-.092.156-.108.229-.107.484 0 .212.022.341.074.44.04.077 1.28 1.349 2.754 2.826l2.682 2.686-.144.335a7 7 0 0 0-.256.774L6.02 9.5v11.04l.094.3a3.09 3.09 0 0 0 2.046 2.046l.3.094h7.08l.3-.094a3.09 3.09 0 0 0 2.04-2.026c.067-.212.093-.42.11-.854l.021-.573 1.705 1.699c.937.935 1.767 1.733 1.844 1.773.099.052.228.074.44.074.258.001.327-.015.492-.112.476-.28.647-.9.373-1.359-.055-.092-4.65-4.715-10.212-10.273C3.3 1.889 2.525 1.125 2.343 1.065a1 1 0 0 0-.673-.004m6.025-.004a1.04 1.04 0 0 0-.567.459c-.092.156-.108.23-.108.487 0 .268.014.326.121.5.147.239.437.443.68.479L8 3.009v.241c0 .338.068.528.269.751.632.703 1.729.24 1.731-.731V3h3.992l.018 1.27c.018 1.263.018 1.272.141 1.739.166.631.395 1.098.969 1.971.79 1.202.84 1.355.878 2.7.016.561.046.984.073 1.05.026.06.121.19.211.288.502.544 1.387.358 1.657-.349.063-.166.069-.295.051-1.197-.019-.967-.025-1.033-.142-1.481-.163-.627-.393-1.095-.963-1.965-.84-1.282-.848-1.309-.875-2.871l-.019-1.145.184-.027c.248-.037.536-.239.684-.48.107-.174.121-.232.121-.5 0-.257-.016-.331-.108-.487a1.02 1.02 0 0 0-.582-.461c-.261-.079-8.344-.076-8.595.002m2.764 10.822 2.359 2.36-.379-.144A9 9 0 0 0 11 13.653c-.751-.164-2.136-.176-2.89-.025l-.116.023.017-1.975c.013-1.645.033-2.156.084-2.156.003 0 1.067 1.062 2.364 2.359m-.079 3.701c.479.079.649.127 1.38.392 1.071.389 1.715.513 2.71.523l.61.006.46.459.46.459v1.344c0 1.462-.015 1.584-.221 1.855-.061.08-.194.195-.295.254l-.184.108H8.7l-.184-.108a1.2 1.2 0 0 1-.292-.251c-.226-.296-.226-.286-.214-2.698l.01-2.218.14-.037c.568-.15 1.596-.191 2.22-.088"/></svg>