<svg xmlns="http://www.w3.org/2000/svg" width="24" height="24" fill="none" stroke="currentColor" stroke-linecap="round" stroke-linejoin="round" stroke-width="2"><path fill="#000" fill-rule="evenodd" stroke="none" d="M3.499 2.043C2.383 2.23 1.461 3.048 1.114 4.16l-.094.3v11.08l.094.3c.304.976 1.035 1.714 2.026 2.046l.28.094 3.79.011 3.79.012V20H9.446c-1.688 0-1.788.011-2.064.221-.08.061-.195.194-.254.295-.091.156-.108.23-.108.484 0 .256.016.328.111.489.125.213.318.375.539.454s8.438.079 8.66 0 .414-.241.539-.454c.095-.161.111-.233.111-.489 0-.254-.017-.328-.108-.484a1.2 1.2 0 0 0-.254-.295c-.276-.21-.376-.221-2.064-.221H13v-1.997l3.79-.012 3.79-.011.28-.094c.991-.332 1.722-1.07 2.026-2.046.093-.297.094-.319.094-2.22V11.7l-.109-.186a1.01 1.01 0 0 0-1.742 0l-.109.186-.021 1.78c-.014 1.288-.034 1.811-.07 1.893a1.14 1.14 0 0 1-.445.499l-.184.108H3.7l-.184-.108a1.2 1.2 0 0 1-.291-.249C2.988 15.312 3 15.608 3 10.022c0-5.782-.02-5.395.303-5.719.322-.322-.005-.303 5.234-.305 3.774-.001 4.671-.012 4.793-.055.221-.079.414-.241.539-.454.095-.161.111-.233.111-.489 0-.254-.017-.328-.108-.484a1.2 1.2 0 0 0-.254-.295c-.301-.23-.106-.221-5.214-.216-2.587.002-4.795.02-4.905.038m14.859.018c-1.128.176-2.215.913-2.789 1.892a3.992 3.992 0 0 0 1.943 5.751 3.99 3.99 0 0 0 5.192-2.216 3.96 3.96 0 0 0 .001-2.972 3.98 3.98 0 0 0-3.1-2.458 3.7 3.7 0 0 0-1.247.003m1.165 2.012a2.01 2.01 0 0 1 1.27 2.807c-.155.318-.566.745-.863.895a2.07 2.07 0 0 1-1.422.165c-.685-.178-1.259-.746-1.435-1.417a2 2 0 0 1 2.45-2.45"/></svg>