<svg xmlns="http://www.w3.org/2000/svg" width="24" height="24" fill="none" stroke="currentColor" stroke-linecap="round" stroke-linejoin="round" stroke-width="2"><path fill="#000" fill-rule="evenodd" stroke="none" d="M16.035 1.431a.97.97 0 0 0-.49 1.125l.063.246-.114.085a6 6 0 0 0-.421.404c-.303.316-.308.319-.436.274a1.3 1.3 0 0 0-.344-.045.94.94 0 0 0-.884.552c-.224.491-.039 1.069.417 1.301l.182.092v1.064l-.204.116a1 1 0 0 0-.469.64c-.136.523.224 1.071.781 1.19.153.033.247.03.422-.016l.225-.059.418.419.419.418-.059.225c-.181.694.452 1.361 1.15 1.212a1.05 1.05 0 0 0 .673-.488l.105-.194h1.062l.105.194c.339.629 1.273.676 1.671.084.178-.266.226-.522.152-.808l-.059-.225.419-.418.418-.419.225.059c.706.184 1.384-.477 1.203-1.174a1 1 0 0 0-.469-.64l-.204-.116V5.465l.182-.092c.733-.372.669-1.469-.105-1.792-.172-.072-.523-.08-.706-.016-.128.045-.133.042-.436-.274a6 6 0 0 0-.421-.404l-.114-.085.063-.246a.94.94 0 0 0-.148-.825c-.399-.592-1.36-.535-1.682.099l-.094.185-.53.002-.53.003-.095-.188c-.239-.471-.853-.654-1.341-.401m-12.536.612C2.383 2.23 1.461 3.048 1.114 4.16l-.094.3v11.08l.094.3c.304.976 1.035 1.714 2.026 2.046l.28.094 3.79.011 3.79.012V20H9.446c-1.688 0-1.788.011-2.064.221-.08.061-.195.194-.254.295-.091.156-.108.23-.108.484 0 .256.016.328.111.489.125.213.318.375.539.454s8.438.079 8.66 0 .414-.241.539-.454c.095-.161.111-.233.111-.489 0-.254-.017-.328-.108-.484a1.2 1.2 0 0 0-.254-.295c-.276-.21-.376-.221-2.064-.221H13v-1.997l3.79-.012 3.79-.011.28-.094c.991-.332 1.722-1.07 2.026-2.046.091-.291.094-.343.094-1.72V12.7l-.109-.186a1.01 1.01 0 0 0-1.742 0l-.109.186-.021 1.28c-.015.874-.037 1.316-.07 1.393a1.14 1.14 0 0 1-.445.499l-.184.108H3.7l-.184-.108a1.2 1.2 0 0 1-.291-.249C2.988 15.312 3 15.608 3 10.022c0-5.782-.02-5.395.303-5.719.318-.318.111-.303 4.234-.305 2.939-.001 3.672-.012 3.793-.055.221-.079.414-.241.539-.454.095-.161.111-.233.111-.489 0-.254-.017-.328-.108-.484a1.2 1.2 0 0 0-.254-.295c-.298-.227-.192-.221-4.214-.216-2.037.002-3.795.02-3.905.038m15.024 2.03c.965.252 1.599 1.233 1.444 2.232-.07.449-.243.779-.585 1.118-.373.369-.749.538-1.262.567a1.87 1.87 0 0 1-1.467-.525 2 2 0 0 1-.58-.942 2 2 0 0 1 2.45-2.45"/></svg>