<svg xmlns="http://www.w3.org/2000/svg" width="24" height="24" fill="none" stroke="currentColor" stroke-linecap="round" stroke-linejoin="round" stroke-width="2"><path fill="#000" fill-rule="evenodd" stroke="none" d="M13.499 3.042c-1.122.192-2.038 1.006-2.385 2.118l-.094.3v13.08l.094.3a3.09 3.09 0 0 0 2.046 2.046l.3.094h7.08l.3-.094a3.09 3.09 0 0 0 2.046-2.046l.094-.3V5.46l-.094-.3a3.09 3.09 0 0 0-2.025-2.038l-.321-.101-3.42-.007c-1.881-.003-3.511.009-3.621.028m-10 2.001C2.383 5.23 1.461 6.048 1.114 7.16l-.094.3v7.08l.094.3a3.11 3.11 0 0 0 2.026 2.045c.278.093.295.093 2.628.106 1.553.009 2.401-.001 2.504-.029.226-.061.466-.251.595-.47.097-.165.113-.235.113-.492 0-.254-.017-.328-.108-.484a1.15 1.15 0 0 0-.499-.446c-.084-.037-.692-.055-2.393-.07l-2.28-.02-.184-.108a1.2 1.2 0 0 1-.291-.249c-.231-.303-.225-.2-.225-3.601 0-3.55-.012-3.404.303-3.719.306-.305.282-.303 2.734-.305 1.685-.001 2.175-.013 2.293-.055.221-.079.414-.241.539-.454.095-.161.111-.233.111-.489 0-.254-.017-.328-.108-.484a1.2 1.2 0 0 0-.254-.295c-.287-.219-.321-.221-2.714-.216-1.212.002-2.295.02-2.405.038m16.811.018c.279.083.546.35.629.629.053.179.061.961.061 6.311 0 5.058-.009 6.138-.055 6.289a1.02 1.02 0 0 1-.461.582l-.184.108h-6.6l-.184-.108a1.05 1.05 0 0 1-.458-.556c-.09-.256-.087-12.323.003-12.626.079-.269.351-.547.612-.627.288-.088 6.34-.091 6.637-.002m-3.615 2.994a1.05 1.05 0 0 0-.567.461c-.091.156-.108.23-.108.484 0 .257.016.327.113.492.518.882 1.865.526 1.865-.492a.99.99 0 0 0-.535-.888 1.17 1.17 0 0 0-.768-.057m-.218 5.018c-.671.176-1.239.75-1.417 1.435a2.07 2.07 0 0 0 .165 1.422c.136.269.576.709.845.845a2.05 2.05 0 0 0 1.86 0c.266-.135.708-.575.841-.838a2.05 2.05 0 0 0 .169-1.408 1.8 1.8 0 0 0-.475-.876A1.97 1.97 0 0 0 17 13.005c-.143 0-.378.031-.523.068M5.24 19.037c-.446.136-.728.509-.728.963 0 .405.207.724.588.905.199.094.207.094 1.64.093 1.549-.002 1.609-.008 1.879-.215.077-.058.189-.191.25-.294.095-.161.111-.233.111-.489 0-.254-.017-.328-.108-.484a1.2 1.2 0 0 0-.254-.295c-.273-.208-.388-.221-1.894-.218-.761.002-1.429.018-1.484.034"/></svg>