<svg xmlns="http://www.w3.org/2000/svg" width="24" height="24" fill="none" stroke="currentColor" stroke-linecap="round" stroke-linejoin="round" stroke-width="2"><path fill="#000" fill-rule="evenodd" stroke="none" d="M3.499 3.043c-1.119.19-2.038 1.005-2.385 2.117l-.094.3v8.08l.094.3c.304.976 1.037 1.716 2.026 2.045l.28.094 2.79.012 2.79.013V18H7.946c-1.149 0-1.302.022-1.564.221-.08.061-.195.194-.254.295-.091.156-.108.23-.108.484 0 .256.016.328.111.489.125.213.318.375.539.454.22.078 5.44.078 5.66 0 .221-.079.414-.241.539-.454.095-.161.111-.233.111-.489 0-.254-.017-.328-.108-.484-.239-.406-.52-.516-1.318-.516H11v-2l.59-.002c.387-.001.642-.02.74-.055.221-.079.414-.241.539-.454.095-.161.111-.233.111-.489 0-.254-.017-.328-.108-.484a1.15 1.15 0 0 0-.499-.446c-.087-.039-1.089-.055-4.393-.07l-4.28-.02-.184-.108a1.2 1.2 0 0 1-.291-.249C2.992 13.317 3 13.469 3 9.522c0-4.107-.015-3.901.303-4.219C3.629 4.977 3.126 5 10 5c6.826 0 6.367-.019 6.679.283.296.288.298.298.321 1.74l.02 1.284.121.196a.998.998 0 0 0 1.718 0l.121-.197V6.883c0-1.38-.003-1.432-.094-1.723a3.09 3.09 0 0 0-2.025-2.039l-.321-.101-6.42-.006c-3.531-.003-6.511.01-6.621.029m14 7.999a3.05 3.05 0 0 0-2.385 2.118l-.094.3v7.08l.094.3a3.09 3.09 0 0 0 2.046 2.046c.293.092.337.094 1.84.094s1.547-.002 1.84-.094a3.09 3.09 0 0 0 2.046-2.046l.094-.3v-7.08l-.094-.3a3.08 3.08 0 0 0-2.025-2.036c-.313-.097-.357-.1-1.741-.109-.781-.005-1.511.007-1.621.027m2.811 2.019c.279.083.546.35.629.629.086.29.092 6.314.006 6.6a1.02 1.02 0 0 1-.461.582l-.184.108h-2.6l-.184-.108a1.05 1.05 0 0 1-.458-.556c-.089-.253-.087-6.325.003-6.626.079-.269.351-.547.612-.627.279-.086 2.35-.088 2.637-.002"/></svg>