<svg xmlns="http://www.w3.org/2000/svg" width="24" height="24" fill="none" stroke="currentColor" stroke-linecap="round" stroke-linejoin="round" stroke-width="2"><path fill="#000" fill-rule="evenodd" stroke="none" d="M1.67 1.061c-.222.081-.42.248-.542.455-.092.156-.108.229-.107.484.001.353.055.476.348.786l.199.21-.128.224c-.172.301-.344.82-.399 1.204-.032.226-.042 1.869-.033 5.736l.012 5.42.094.28a3.14 3.14 0 0 0 2.026 2.026l.28.094 3.79.011 3.79.012V20H9.446c-1.688 0-1.788.011-2.064.221-.08.061-.195.194-.254.295-.091.156-.108.23-.108.484 0 .256.016.328.111.489.125.213.318.375.539.454s8.438.079 8.66 0 .414-.241.539-.454c.095-.161.111-.233.111-.489 0-.254-.017-.328-.108-.484a1.2 1.2 0 0 0-.254-.295c-.276-.21-.376-.221-2.064-.221H13v-2h3.58l2.38 2.383c1.322 1.323 2.46 2.43 2.56 2.49.153.091.226.107.48.107.257 0 .327-.016.492-.113.476-.28.647-.9.373-1.359-.055-.092-4.65-4.715-10.212-10.273C3.3 1.889 2.525 1.125 2.343 1.065a1 1 0 0 0-.673-.004m7.025.996c-.23.072-.439.242-.567.459-.091.156-.108.23-.108.484 0 .256.016.328.111.489.125.213.318.375.539.454.123.044 1.183.054 5.793.055 6.31.002 5.905-.016 6.216.285.326.317.299-.181.321 5.74l.02 5.283.121.197a.998.998 0 0 0 1.718 0l.121-.197V4.46l-.094-.3a3.09 3.09 0 0 0-2.025-2.039l-.321-.101-5.84-.008c-4.709-.006-5.872.003-6.005.045m.145 8.203 5.74 5.741-5.44-.011-5.44-.01-.184-.108a1.2 1.2 0 0 1-.291-.249C2.988 15.312 3 15.608 3 10.021c0-4.766.01-5.501.075-5.501.014 0 2.608 2.583 5.765 5.74"/></svg>