<svg xmlns="http://www.w3.org/2000/svg" width="24" height="24" fill="none" stroke="currentColor" stroke-linecap="round" stroke-linejoin="round" stroke-width="2"><path fill="#000" fill-rule="evenodd" stroke="none" d="M3.499 2.043C2.38 2.232 1.461 3.048 1.114 4.16l-.094.3v11.08l.094.3c.304.976 1.035 1.714 2.026 2.046l.28.094 3.79.011 3.79.012V20H9.446c-1.688 0-1.788.011-2.064.221-.08.061-.195.194-.254.295-.091.156-.108.23-.108.484 0 .256.016.328.111.489.125.213.318.375.539.454s8.438.079 8.66 0 .414-.241.539-.454c.095-.161.111-.233.111-.489 0-.254-.017-.328-.108-.484a1.2 1.2 0 0 0-.254-.295c-.276-.21-.376-.221-2.064-.221H13v-1.997l3.79-.012 3.79-.011.28-.094c.991-.332 1.722-1.07 2.026-2.046l.094-.3V4.46l-.094-.3a3.09 3.09 0 0 0-2.025-2.039l-.321-.101-8.42-.006c-4.631-.003-8.511.01-8.621.029M20.31 4.061c.279.083.546.35.629.629.053.178.061.856.061 5.311 0 4.211-.01 5.138-.055 5.289a1.02 1.02 0 0 1-.461.582l-.184.108H3.7l-.184-.108a1.05 1.05 0 0 1-.458-.556c-.089-.255-.087-10.323.003-10.626.079-.269.351-.547.612-.627.16-.049 1.357-.058 8.31-.06 7.161-.003 8.147.004 8.327.058M9.477 6.073c-.671.176-1.239.75-1.417 1.435C8.01 7.698 8 8.123 8 10c0 2.455.003 2.491.225 2.93.136.269.576.709.845.845.439.222.475.225 2.93.225s2.491-.003 2.93-.225c.266-.135.708-.575.841-.838.225-.443.229-.495.228-2.923 0-2.413-.008-2.518-.218-2.931-.135-.267-.484-.634-.764-.802-.453-.273-.493-.276-3.017-.276-2.008 0-2.289.007-2.523.068M14 10v2h-4V8h4z"/></svg>