<svg xmlns="http://www.w3.org/2000/svg" width="24" height="24" fill="none" stroke="currentColor" stroke-linecap="round" stroke-linejoin="round" stroke-width="2"><path fill="#000" fill-rule="evenodd" stroke="none" d="M3.499 2.043C2.38 2.232 1.461 3.048 1.114 4.16l-.094.3v11.08l.094.3c.304.976 1.035 1.714 2.026 2.046l.28.094 3.79.011 3.79.012V20H9.446c-1.688 0-1.788.011-2.064.221-.08.061-.195.194-.254.295-.091.156-.108.23-.108.484 0 .256.016.328.111.489.125.213.318.375.539.454s8.438.079 8.66 0 .414-.241.539-.454c.095-.161.111-.233.111-.489 0-.254-.017-.328-.108-.484a1.2 1.2 0 0 0-.254-.295c-.276-.21-.376-.221-2.064-.221H13v-1.997l3.79-.012 3.79-.011.28-.094c.991-.332 1.722-1.07 2.026-2.046l.094-.3V4.46l-.094-.3a3.09 3.09 0 0 0-2.025-2.039l-.321-.101-8.42-.006c-4.631-.003-8.511.01-8.621.029M20.31 4.061c.279.083.546.35.629.629.053.178.061.856.061 5.311 0 4.211-.01 5.138-.055 5.289a1.02 1.02 0 0 1-.461.582l-.184.108H3.7l-.184-.108a1.05 1.05 0 0 1-.458-.556c-.089-.255-.087-10.323.003-10.626.079-.269.351-.547.612-.627.16-.049 1.357-.058 8.31-.06 7.161-.003 8.147.004 8.327.058M9.044 6.625a.99.99 0 0 0-.515.664c-.047.238.006.562.12.73.045.066.498.54 1.006 1.051l.924.93-.924.93c-.508.512-.96.984-1.004 1.05-.275.409-.138 1.046.289 1.34.298.205.8.22 1.077.032.068-.046.541-.499 1.053-1.007l.93-.924.93.924c.512.508.985.961 1.051 1.006.281.19.781.174 1.084-.034.413-.284.553-.941.286-1.336-.045-.066-.498-.539-1.006-1.051l-.924-.929.948-.951c.705-.707.968-.998 1.029-1.136.297-.673-.168-1.396-.896-1.393-.413.001-.505.067-1.552 1.11l-.95.947-.95-.947c-.679-.677-1.001-.97-1.13-1.028a1.06 1.06 0 0 0-.876.022"/></svg>