<svg xmlns="http://www.w3.org/2000/svg" width="24" height="24" fill="none" stroke="currentColor" stroke-linecap="round" stroke-linejoin="round" stroke-width="2"><path fill="#000" fill-rule="evenodd" stroke="none" d="M11.08 2.045A10.1 10.1 0 0 0 6.54 3.63a9 9 0 0 0-1.621 1.328 9.85 9.85 0 0 0-2.906 7.362c.071 2.119.739 4.008 2.02 5.72.397.53 1.272 1.424 1.767 1.807 1.442 1.114 2.987 1.777 4.8 2.06.647.101 2.153.101 2.8 0 1.814-.283 3.362-.948 4.8-2.06.437-.338 1.309-1.21 1.647-1.647 1.32-1.706 2.045-3.653 2.139-5.742.022-.473.015-.595-.043-.77a1.03 1.03 0 0 0-.633-.627c-.434-.129-.69-.049-1.15.358-1.083.96-2.288 1.432-3.66 1.432A5.33 5.33 0 0 1 11.766 10c-.41-.772-.606-1.581-.606-2.5 0-1.421.457-2.576 1.472-3.718.393-.442.471-.871.233-1.278-.271-.462-.651-.56-1.785-.459m-1.24 2.29a9.5 9.5 0 0 0-.559 1.742c-.353 1.73-.012 3.686.91 5.223a7.8 7.8 0 0 0 2.509 2.509c1.72 1.032 3.897 1.321 5.798.771.299-.087.838-.28 1.112-.398.1-.043.091.032-.053.445a8.5 8.5 0 0 1-1.404 2.473 7.9 7.9 0 0 1-2.682 2.1 7.94 7.94 0 0 1-6.942 0 7.5 7.5 0 0 1-2.025-1.399 8 8 0 0 1-2.343-7.379c.463-2.385 2.082-4.489 4.299-5.587.625-.309 1.38-.583 1.38-.5"/></svg>