<svg xmlns="http://www.w3.org/2000/svg" width="24" height="24" fill="none" stroke="currentColor" stroke-linecap="round" stroke-linejoin="round" stroke-width="2"><path fill="#000" fill-rule="evenodd" stroke="none" d="M11.08 2.045A10.1 10.1 0 0 0 6.54 3.63a9 9 0 0 0-1.621 1.328 9.85 9.85 0 0 0-2.906 7.362c.071 2.119.739 4.008 2.02 5.72.397.53 1.272 1.424 1.767 1.807 1.442 1.114 2.987 1.777 4.8 2.06.647.101 2.153.101 2.8 0 1.814-.283 3.362-.948 4.8-2.06.437-.338 1.309-1.21 1.647-1.647 1.32-1.706 2.045-3.653 2.139-5.742.022-.473.015-.595-.043-.77a1.03 1.03 0 0 0-.633-.627c-.434-.129-.69-.049-1.15.358-1.083.96-2.288 1.432-3.66 1.432a5.27 5.27 0 0 1-3.005-.917c-1.174-.784-2.048-2.142-2.273-3.534a7 7 0 0 1 0-1.8c.162-1.003.657-1.994 1.396-2.798.312-.339.36-.447.361-.802.001-.255-.015-.328-.107-.484a1.05 1.05 0 0 0-.556-.458c-.182-.064-.613-.068-1.236-.013m8.615.012a1.04 1.04 0 0 0-.567.459c-.103.176-.109.212-.121.834l-.014.65h-.55c-.795 0-1.077.111-1.315.516-.091.156-.108.23-.108.484 0 .256.016.328.111.489.125.213.318.375.539.454.098.035.352.054.737.055l.586.002.014.653c.013.647.014.655.134.85a.998.998 0 0 0 1.718 0c.12-.195.121-.203.134-.85L21.007 6l.586-.002c.385-.001.639-.02.737-.055.221-.079.414-.241.539-.454.095-.161.111-.233.111-.489 0-.254-.017-.328-.108-.484-.238-.405-.52-.516-1.315-.516h-.55l-.014-.65c-.012-.622-.018-.658-.121-.834a1.005 1.005 0 0 0-1.177-.459M9.84 4.335a9.5 9.5 0 0 0-.559 1.742c-.353 1.73-.012 3.686.91 5.223a7.8 7.8 0 0 0 2.509 2.509c1.72 1.032 3.897 1.321 5.798.771.299-.087.838-.28 1.112-.398.1-.043.091.032-.053.445a8.5 8.5 0 0 1-1.404 2.473 7.9 7.9 0 0 1-2.682 2.1 7.94 7.94 0 0 1-6.942 0 7.5 7.5 0 0 1-2.025-1.399 8 8 0 0 1-2.343-7.379c.463-2.385 2.082-4.489 4.299-5.587.625-.309 1.38-.583 1.38-.5"/></svg>