<svg xmlns="http://www.w3.org/2000/svg" width="24" height="24" fill="none" stroke="currentColor" stroke-linecap="round" stroke-linejoin="round" stroke-width="2"><path fill="#000" fill-rule="evenodd" stroke="none" d="M7.699 2.056a.9.9 0 0 0-.502.355c-.082.112-.935 2.624-3.159 9.297-2.955 8.865-3.047 9.15-3.027 9.377a1 1 0 0 0 .659.858c.124.044 1.927.054 10.313.055 9.357.002 10.178-.003 10.357-.064.376-.128.66-.538.66-.95 0-.168-4.914-14.998-5.107-15.412a1 1 0 0 0-1.236-.507c-.178.059-.403.271-2.286 2.148-1.149 1.145-2.096 2.074-2.105 2.065-.01-.01-.792-1.568-1.74-3.463-1.536-3.074-1.739-3.459-1.88-3.571-.291-.23-.611-.293-.947-.188M9.685 8.61c1.603 3.208 1.595 3.194 1.979 3.325.241.082.43.082.679 0 .178-.059.395-.263 2.205-2.068q2.01-2.003 2.031-1.944A915 915 0 0 1 19 15.224c0 .112-1.103.538-1.76.68-.474.103-1.487.104-1.96.004-.914-.195-1.699-.557-2.85-1.315-1.455-.958-2.64-1.413-4.059-1.558-.714-.074-1.784.02-2.521.221-.115.031-.21.045-.21.031 0-.037 2.537-7.647 2.55-7.647.005 0 .678 1.336 1.495 2.97m-.865 6.51c.852.19 1.586.532 2.66 1.238C13.222 17.504 14.677 18 16.297 18c.963 0 2.118-.265 3.105-.711l.262-.119.454 1.365c.249.751.462 1.387.472 1.415.015.04-1.72.05-8.59.05s-8.605-.01-8.59-.05l.688-2.06.669-2.011.177-.104c.53-.31 1.372-.606 2.038-.714.475-.078 1.348-.05 1.838.059"/></svg>