<svg xmlns="http://www.w3.org/2000/svg" width="24" height="24" fill="none" stroke="currentColor" stroke-linecap="round" stroke-linejoin="round" stroke-width="2"><path fill="#000" fill-rule="evenodd" stroke="none" d="M7.699 2.056a.9.9 0 0 0-.502.355c-.082.112-.935 2.624-3.159 9.297-2.955 8.865-3.047 9.15-3.027 9.377a1 1 0 0 0 .659.858c.124.044 1.927.054 10.313.055 9.357.002 10.178-.003 10.357-.064.376-.128.66-.538.66-.95 0-.168-4.914-14.998-5.107-15.412a1 1 0 0 0-1.236-.507c-.178.059-.403.271-2.286 2.148-1.149 1.145-2.096 2.074-2.105 2.065-.01-.01-.792-1.568-1.74-3.463-1.536-3.074-1.739-3.459-1.88-3.571-.291-.23-.611-.293-.947-.188M9.685 8.61c1.603 3.208 1.595 3.194 1.979 3.325.241.082.43.082.679 0 .178-.059.395-.263 2.205-2.068q2.01-2.003 2.031-1.944c.032.085 4.021 12.055 4.021 12.067 0 .005-3.872.01-8.604.01-6.867 0-8.601-.01-8.586-.05l2.394-7.18c1.307-3.922 2.38-7.13 2.386-7.13.005 0 .678 1.336 1.495 2.97"/></svg>