<svg xmlns="http://www.w3.org/2000/svg" width="24" height="24" fill="none" stroke="currentColor" stroke-linecap="round" stroke-linejoin="round" stroke-width="2"><path fill="#000" fill-rule="evenodd" stroke="none" d="M2.15 1.043A1.5 1.5 0 0 0 1.01 2.58c.017.253.188.717 1.808 4.88.984 2.53 1.836 4.687 1.894 4.794.218.403.683.693 1.174.735a1.47 1.47 0 0 0 1.456-.844c.051-.113.333-.979.626-1.925l.533-1.719 1.719-.533c.946-.293 1.812-.575 1.925-.626.553-.251.895-.841.844-1.456-.042-.491-.333-.957-.735-1.173-.268-.145-9.141-3.593-9.414-3.659a1.46 1.46 0 0 0-.69-.011M6.749 4.69c1.764.685 3.203 1.252 3.196 1.258s-.502.166-1.102.353c-.599.187-1.176.385-1.282.439-.32.162-.662.509-.82.834-.077.157-.284.752-.46 1.322a35 35 0 0 1-.332 1.048c-.009.01-2.291-5.826-2.534-6.481-.024-.064-.016-.072.048-.048.042.015 1.521.589 3.286 1.275m8.791 4.333c-1.062.102-1.848.312-2.63.703-2.072 1.036-3.462 2.94-3.836 5.254-.066.413-.066 1.627 0 2.04.5 3.092 2.814 5.406 5.906 5.906.412.066 1.627.066 2.04 0 3.089-.498 5.408-2.817 5.906-5.906.028-.176.051-.635.051-1.02 0-.944-.101-1.538-.404-2.38-.858-2.383-2.992-4.147-5.471-4.522-.376-.057-1.289-.101-1.562-.075m1.012 2.02a5.01 5.01 0 0 1 4.128 3.205c.413 1.074.407 2.44-.015 3.538-.119.31-.434.904-.489.922-.02.007-1.584-1.537-3.476-3.43-3.293-3.295-3.437-3.444-3.36-3.503.123-.094.669-.364.949-.469a4.94 4.94 0 0 1 2.263-.263M15.3 16.721l3.44 3.442-.1.076c-.151.116-.701.377-1.04.493-.555.19-.93.248-1.6.248s-1.044-.058-1.6-.248a5.04 5.04 0 0 1-3.239-3.492c-.241-.934-.178-2.115.159-2.993.148-.385.458-.967.515-.967.014 0 1.573 1.549 3.465 3.441"/></svg>