<svg xmlns="http://www.w3.org/2000/svg" width="24" height="24" fill="none" stroke="currentColor" stroke-linecap="round" stroke-linejoin="round" stroke-width="2"><path fill="#000" fill-rule="evenodd" stroke="none" d="M11.207 1.043c-2.403.232-4.595 1.577-5.943 3.646-.637.978-1.089 2.263-1.222 3.479-.057.527-.057 7.137 0 7.664A8.23 8.23 0 0 0 5.674 19.9c.259.339.932 1.025 1.286 1.311A8.1 8.1 0 0 0 12 23a8.1 8.1 0 0 0 5.04-1.789c.354-.286 1.027-.972 1.286-1.311a8.23 8.23 0 0 0 1.632-4.068c.057-.527.057-7.137 0-7.664A8.2 8.2 0 0 0 18.325 4.1c-.27-.353-.815-.91-1.225-1.253-1.617-1.353-3.763-2.01-5.893-1.804m1.357 1.996a5.86 5.86 0 0 1 3.705 1.766 5.84 5.84 0 0 1 1.692 3.631c.048.5.048 6.628 0 7.128-.259 2.653-2.153 4.753-4.801 5.321-.606.13-1.714.13-2.32 0-2.65-.568-4.542-2.666-4.801-5.321-.048-.5-.048-6.628 0-7.128a5.84 5.84 0 0 1 1.692-3.631 5.92 5.92 0 0 1 4.833-1.766m-.869 2.018a1.04 1.04 0 0 0-.567.459l-.108.184v4.606l.121.197c.068.11.205.253.311.325.471.316 1.102.171 1.407-.325l.121-.197V5.7l-.108-.184a1.005 1.005 0 0 0-1.177-.459"/></svg>