<svg xmlns="http://www.w3.org/2000/svg" width="24" height="24" fill="none" stroke="currentColor" stroke-linecap="round" stroke-linejoin="round" stroke-width="2"><path fill="#000" fill-rule="evenodd" stroke="none" d="M3.15 2.043A1.5 1.5 0 0 0 2.009 3.58c.017.261.24.826 3.308 8.38 1.809 4.455 3.337 8.187 3.395 8.294.192.354.574.621 1.022.715.275.058.651.004.936-.134.254-.123.553-.429.67-.686.053-.115.386-1.334.74-2.709s.682-2.641.728-2.814l.083-.314 2.764 2.76c1.521 1.518 2.828 2.793 2.905 2.833.099.052.228.074.44.074.258.001.327-.015.492-.112.222-.13.409-.369.473-.603.054-.202.024-.53-.066-.709-.037-.074-1.31-1.38-2.829-2.902l-2.763-2.766.157-.041 2.816-.724c1.812-.466 2.739-.722 2.908-.805.455-.221.756-.679.802-1.223.042-.507-.244-1.079-.672-1.343-.239-.147-16.253-6.65-16.516-6.707a1.4 1.4 0 0 0-.652-.001m8.002 5.103c3.667 1.489 6.681 2.718 6.698 2.732.016.014-.938.274-2.12.578a197 197 0 0 0-2.482.649c-.752.217-1.323.618-1.728 1.215-.309.455-.302.432-1.123 3.629-.273 1.06-.506 1.915-.519 1.9C9.85 17.816 4.44 4.496 4.44 4.462c0-.012.01-.022.022-.022s3.022 1.218 6.69 2.706"/></svg>