<svg xmlns="http://www.w3.org/2000/svg" width="24" height="24" fill="none" stroke="currentColor" stroke-linecap="round" stroke-linejoin="round" stroke-width="2"><path fill="#000" fill-rule="evenodd" stroke="none" d="M1.67 1.061c-.222.081-.42.248-.542.455-.092.156-.108.229-.107.484 0 .212.022.341.074.44.04.077.839.908 1.775 1.846l1.701 1.706-.161.494a8.3 8.3 0 0 0-.368 1.682c-.069.635-.056 7.18.015 7.754.422 3.374 2.773 6.024 6.083 6.855 2.935.737 6.135-.36 8.107-2.777l.147-.18 1.513 1.506c.832.828 1.576 1.539 1.653 1.579.099.052.228.074.44.074.258.001.327-.015.492-.112.476-.28.647-.9.373-1.359-.055-.092-4.65-4.715-10.212-10.273C3.3 1.889 2.525 1.125 2.343 1.065a1 1 0 0 0-.673-.004m9.69-.036c-.055.008-.262.034-.46.058-.766.092-1.559.332-2.36.713-.716.341-.926.568-.969 1.043-.041.446.276.891.727 1.022.298.087.483.045 1.066-.241.882-.433 1.599-.595 2.636-.597.791-.001 1.322.081 1.951.303 2.022.714 3.458 2.355 3.933 4.494.086.385.09.504.113 3.1.017 1.99.036 2.729.072 2.81.085.192.368.462.56.536a.997.997 0 0 0 1.277-.526l.093-.2v-2.5c0-1.375-.018-2.668-.04-2.874-.154-1.462-.761-2.949-1.694-4.146a10.4 10.4 0 0 0-1.184-1.199c-.969-.791-2.246-1.404-3.419-1.641-.743-.15-1.83-.223-2.302-.155m.335 4.032a1.03 1.03 0 0 0-.565.457c-.09.153-.11.241-.123.555-.021.48.034.679.26.93.395.44 1.052.452 1.444.027.239-.26.302-.466.283-.935-.014-.338-.031-.419-.123-.576a1.004 1.004 0 0 0-1.176-.458m5.236 13.361a10 10 0 0 1-.276.368c-.828 1.068-2.216 1.873-3.691 2.139-.593.107-1.572.089-2.151-.04-1.852-.41-3.29-1.499-4.128-3.125-.385-.748-.562-1.33-.643-2.116-.054-.53-.056-6.813-.002-7.284.021-.187.059-.437.083-.556l.045-.216 5.394 5.394c2.966 2.966 5.382 5.412 5.369 5.436"/></svg>