<svg xmlns="http://www.w3.org/2000/svg" width="24" height="24" fill="none" stroke="currentColor" stroke-linecap="round" stroke-linejoin="round" stroke-width="2"><path fill="#000" fill-rule="evenodd" stroke="none" d="M4.58 4.094c-.237.11-.425.311-.516.552-.06.158-.065.48-.055 3.417l.011 3.243.121.197a.998.998 0 0 0 1.718 0l.121-.197L6 9.373l.02-1.933 5.28 5.28L16.58 18h-1.844c-2.001 0-2.073.007-2.354.221-.08.061-.195.194-.254.295-.091.156-.108.23-.108.484 0 .256.016.328.111.489.125.213.318.375.539.454.12.043.781.054 3.35.055l3.2.001.2-.093c.237-.11.425-.311.516-.552.06-.158.065-.48.055-3.414l-.011-3.24-.109-.186a1.01 1.01 0 0 0-1.742 0l-.109.186-.02 1.93-.02 1.93-5.28-5.28L7.42 6l1.88-.002c1.466-.001 1.913-.013 2.03-.055.221-.079.414-.241.539-.454.095-.161.111-.233.111-.489 0-.254-.017-.328-.108-.484a1.2 1.2 0 0 0-.254-.295C11.324 3.997 11.377 4 7.944 4l-3.164.001z"/></svg>