<svg xmlns="http://www.w3.org/2000/svg" width="24" height="24" fill="none" stroke="currentColor" stroke-linecap="round" stroke-linejoin="round" stroke-width="2"><path fill="#000" fill-rule="evenodd" stroke="none" d="M12.695 4.057a1.04 1.04 0 0 0-.567.459c-.091.156-.108.23-.108.484 0 .256.016.328.111.489.125.213.318.375.539.454.117.042.564.054 2.03.055L16.58 6l-6.206 6.21c-3.414 3.416-6.239 6.273-6.279 6.35-.052.099-.074.228-.074.44-.001.258.015.327.112.492.13.222.369.409.603.473.202.054.53.024.709-.066.074-.037 2.929-2.859 6.344-6.271l6.208-6.205.012 1.942.011 1.941.121.197a.998.998 0 0 0 1.718 0l.121-.197.011-3.243c.01-2.937.005-3.259-.055-3.417a1 1 0 0 0-.516-.552l-.2-.093-3.18.002c-2.483.002-3.216.014-3.345.054"/></svg>