<svg xmlns="http://www.w3.org/2000/svg" width="24" height="24" fill="none" stroke="currentColor" stroke-linecap="round" stroke-linejoin="round" stroke-width="2"><path fill="#000" fill-rule="evenodd" stroke="none" d="M12.695 4.057a1.04 1.04 0 0 0-.567.459c-.091.156-.108.23-.108.484 0 .256.016.328.111.489.125.213.318.375.539.454.117.042.564.054 2.03.055L16.58 6l-5.28 5.28-5.28 5.28L6 14.63l-.02-1.93-.109-.186a1.01 1.01 0 0 0-1.742 0l-.109.186-.011 3.24c-.01 2.934-.005 3.256.055 3.414.091.241.279.442.516.552l.2.093 3.2-.001c2.569-.001 3.23-.012 3.35-.055.221-.079.414-.241.539-.454.095-.161.111-.233.111-.489 0-.254-.017-.328-.108-.484a1.2 1.2 0 0 0-.254-.295c-.281-.214-.353-.221-2.354-.221H7.42l5.28-5.28 5.28-5.28.02 1.933.02 1.933.121.197a.998.998 0 0 0 1.718 0l.121-.197.011-3.243c.01-2.937.005-3.259-.055-3.417a1 1 0 0 0-.516-.552l-.2-.093-3.18.002c-2.483.002-3.216.014-3.345.054"/></svg>