<svg xmlns="http://www.w3.org/2000/svg" width="24" height="24" fill="none" stroke="currentColor" stroke-linecap="round" stroke-linejoin="round" stroke-width="2"><path fill="#000" fill-rule="evenodd" stroke="none" d="M4.58 4.094c-.237.11-.425.311-.516.552-.06.158-.065.48-.055 3.417l.011 3.243.121.197a.998.998 0 0 0 1.718 0l.121-.197.011-1.941.012-1.942 6.208 6.205c3.415 3.412 6.27 6.234 6.344 6.271.455.228 1.046.045 1.312-.407.097-.165.113-.234.112-.492 0-.212-.022-.341-.074-.44-.04-.077-2.865-2.934-6.279-6.35L7.42 6l1.88-.002c1.466-.001 1.913-.013 2.03-.055.221-.079.414-.241.539-.454.095-.161.111-.233.111-.489 0-.254-.017-.328-.108-.484a1.2 1.2 0 0 0-.254-.295C11.324 3.997 11.377 4 7.944 4l-3.164.001z"/></svg>