<svg xmlns="http://www.w3.org/2000/svg" width="24" height="24" fill="none" stroke="currentColor" stroke-linecap="round" stroke-linejoin="round" stroke-width="2"><path fill="#000" fill-rule="evenodd" stroke="none" d="M18.64 4.068c-.157.053-.962.842-6.409 6.285l-6.228 6.223-.012-1.938L5.98 12.7l-.109-.186a1.01 1.01 0 0 0-1.742 0l-.109.186-.011 3.24c-.01 2.934-.005 3.256.055 3.414.091.241.279.442.516.552l.2.093 3.2-.001c2.569-.001 3.23-.012 3.35-.055.221-.079.414-.241.539-.454.095-.161.111-.233.111-.489 0-.254-.017-.328-.108-.484a1.2 1.2 0 0 0-.254-.295c-.281-.214-.353-.221-2.354-.221H7.42l6.206-6.21c3.414-3.415 6.239-6.273 6.279-6.35.052-.099.074-.228.074-.44.001-.255-.015-.328-.107-.484a1.016 1.016 0 0 0-1.232-.448"/></svg>