<svg xmlns="http://www.w3.org/2000/svg" width="24" height="24" fill="none" stroke="currentColor" stroke-linecap="round" stroke-linejoin="round" stroke-width="2"><path fill="#000" fill-rule="evenodd" stroke="none" d="M17.67 7.061c-.222.081-.42.248-.542.455-.092.156-.108.229-.107.484 0 .213.022.341.074.44.041.077.616.685 1.279 1.35L19.578 11h-8.843c-7.376 0-8.873.009-9.025.055a1.02 1.02 0 0 0-.582.461c-.091.156-.108.23-.108.484 0 .256.016.328.111.489.125.213.318.375.539.454.124.044 1.716.054 9.029.055l8.879.002-1.204 1.21c-.663.666-1.236 1.271-1.273 1.345-.229.454-.045 1.046.407 1.312.165.097.234.113.492.112.212 0 .341-.022.44-.074.077-.04 1.091-1.021 2.254-2.179 2.302-2.293 2.305-2.297 2.305-2.726 0-.431 0-.431-2.325-2.745-1.924-1.915-2.153-2.131-2.331-2.19a1 1 0 0 0-.673-.004"/></svg>