<svg xmlns="http://www.w3.org/2000/svg" width="24" height="24" fill="none" stroke="currentColor" stroke-linecap="round" stroke-linejoin="round" stroke-width="2"><path fill="#000" fill-rule="evenodd" stroke="none" d="M4.67 4.061c-.222.081-.42.248-.542.455-.092.156-.108.229-.107.484 0 .212.022.341.074.44.04.077 2.865 2.934 6.279 6.35L16.58 18h-1.844c-2.001 0-2.073.007-2.354.221-.08.061-.195.194-.254.295-.091.156-.108.23-.108.484 0 .256.016.328.111.489.125.213.318.375.539.454.12.043.781.054 3.35.055l3.2.001.2-.093c.237-.11.425-.311.516-.552.06-.158.065-.48.055-3.414l-.011-3.24-.109-.186a1.01 1.01 0 0 0-1.742 0l-.109.186-.011 1.938-.012 1.938-6.228-6.223C6.031 4.62 5.524 4.125 5.343 4.065a1 1 0 0 0-.673-.004"/></svg>