<svg xmlns="http://www.w3.org/2000/svg" width="24" height="24" fill="none" stroke="currentColor" stroke-linecap="round" stroke-linejoin="round" stroke-width="2"><path fill="#000" fill-rule="evenodd" stroke="none" d="M11.58 1.096c-.158.076-.64.538-2.306 2.21-1.158 1.163-2.136 2.175-2.173 2.249-.229.455-.045 1.046.407 1.312.165.097.234.113.492.112.213 0 .341-.022.44-.074.077-.041.684-.616 1.35-1.278l1.209-1.205.011 8.942.01 8.942.121.197c.068.11.205.253.311.325.471.316 1.102.171 1.407-.325l.121-.197.01-8.942.011-8.942 1.209 1.205c.666.662 1.273 1.237 1.35 1.278.099.052.227.074.44.074.258.001.327-.015.492-.112.222-.13.409-.369.473-.603a1.2 1.2 0 0 0-.066-.709c-.037-.074-1.015-1.086-2.173-2.249-1.666-1.672-2.148-2.134-2.306-2.21a.97.97 0 0 0-.84 0"/></svg>