<svg xmlns="http://www.w3.org/2000/svg" width="24" height="24" fill="none" stroke="currentColor" stroke-linecap="round" stroke-linejoin="round" stroke-width="2"><path fill="#000" fill-rule="evenodd" stroke="none" d="M11.695 1.057a1.04 1.04 0 0 0-.567.459l-.108.184-.01 6.149-.011 6.149-.269-.174c-.735-.474-1.382-.699-2.26-.788a5.1 5.1 0 0 0-2.222.284 5.1 5.1 0 0 0-2.722 2.465c-.368.748-.506 1.351-.506 2.215 0 .67.058 1.044.248 1.6.578 1.691 1.985 2.925 3.772 3.307.246.053.512.073.96.073.898 0 1.494-.142 2.286-.547 1.328-.677 2.25-1.885 2.62-3.433.067-.282.072-.751.083-7.787l.012-7.487 2.767 1.581c1.522.87 2.838 1.607 2.924 1.637a.996.996 0 0 0 1.17-.443c.216-.369.156-.884-.138-1.176-.17-.169-7.224-4.214-7.468-4.281a.9.9 0 0 0-.561.013M8.861 15.129c.943.276 1.723 1.054 2.014 2.01.083.273.098.403.098.861s-.015.588-.098.861a3.07 3.07 0 0 1-2.035 2.025c-.252.078-.387.093-.84.093s-.588-.015-.84-.093a3.07 3.07 0 0 1-2.035-2.025c-.083-.273-.098-.403-.098-.861s.015-.588.098-.861a3.04 3.04 0 0 1 2.374-2.099c.333-.06 1.001-.017 1.362.089"/></svg>