<svg xmlns="http://www.w3.org/2000/svg" width="24" height="24" fill="none" stroke="currentColor" stroke-linecap="round" stroke-linejoin="round" stroke-width="2"><path fill="#000" fill-rule="evenodd" stroke="none" d="M14.764 3.022c-5.002.837-6.088 1.03-6.24 1.108-.21.108-.422.363-.482.581C8.014 4.81 8 6.486 8 9.69c0 2.657-.01 4.83-.021 4.83s-.124-.051-.25-.114A4.25 4.25 0 0 0 6 14c-1.365 0-2.747.787-3.431 1.953a3.992 3.992 0 0 0 1.943 5.751 3.99 3.99 0 0 0 5.192-2.216c.075-.188.173-.516.217-.731.076-.374.079-.557.079-4.653 0-2.345.009-4.264.021-4.264.011 0 2.234-.369 4.939-.82s4.946-.82 4.979-.82c.054 0 .061.257.061 2.16 0 1.188-.01 2.16-.021 2.16s-.124-.051-.25-.114A4.25 4.25 0 0 0 18 12c-1.365 0-2.747.787-3.431 1.953a3.992 3.992 0 0 0 1.943 5.751 3.95 3.95 0 0 0 2.245.217c1.628-.332 2.832-1.537 3.164-3.166.078-.384.08-.53.069-7.223L21.98 2.7l-.108-.184c-.186-.315-.541-.521-.887-.512-.091.002-2.89.46-6.221 1.018M20 5.18c0 .539-.009.98-.021.98-.011 0-2.234.369-4.939.82s-4.946.82-4.979.82c-.053 0-.061-.131-.061-.976v-.977l.27-.045c5.37-.903 9.535-1.595 9.62-1.598L20 4.2zm-1.477 8.893a2.01 2.01 0 0 1 1.444 1.617c.1.653-.094 1.243-.564 1.714-.401.403-.856.596-1.403.596q-.771 0-1.347-.535c-1.33-1.236-.464-3.46 1.347-3.46.143 0 .378.031.523.068m-12 2a2.01 2.01 0 0 1 1.444 1.617c.1.653-.094 1.243-.564 1.714C7.002 19.807 6.547 20 6 20q-.771 0-1.347-.535c-1.33-1.236-.464-3.46 1.347-3.46.143 0 .378.031.523.068"/></svg>