<svg xmlns="http://www.w3.org/2000/svg" width="24" height="24" fill="none" stroke="currentColor" stroke-linecap="round" stroke-linejoin="round" stroke-width="2"><path fill="#000" fill-rule="evenodd" stroke="none" d="M1.67 1.061c-.222.081-.42.248-.542.455-.092.156-.108.229-.107.484 0 .212.022.341.074.44.04.077 1.644 1.715 3.564 3.64l3.49 3.5-2.06 5.58c-1.2 3.248-2.069 5.658-2.08 5.766-.042.419.25.871.651 1.008a.9.9 0 0 0 .6.022c.088-.024 1.641-.889 3.45-1.923L12 18.154l3.268 1.868c1.797 1.027 3.338 1.892 3.425 1.922a.99.99 0 0 0 1.145-.407l.108-.171.697.699c.842.846.944.915 1.357.915.257 0 .327-.016.492-.113.476-.28.647-.9.373-1.359-.055-.092-4.65-4.715-10.212-10.273C3.3 1.889 2.525 1.125 2.343 1.065a1 1 0 0 0-.673-.004m9.904.057a1.2 1.2 0 0 0-.357.269c-.168.221-1.377 3.52-1.377 3.759a.95.95 0 0 0 .268.694.98.98 0 0 0 1.155.225c.271-.126.412-.309.574-.743.074-.199.147-.362.16-.362s.374.95.799 2.11.821 2.197.878 2.304a.97.97 0 0 0 .947.494.97.97 0 0 0 .816-.588c.173-.382.204-.274-1.234-4.187-.939-2.553-1.35-3.623-1.43-3.723-.155-.192-.442-.333-.722-.357-.201-.017-.263-.004-.477.105m1.791 13.672c3.484 3.488 3.715 3.733 3.715 3.933 0 .017-1.03-.557-2.29-1.277s-2.353-1.335-2.43-1.366a1.15 1.15 0 0 0-.72 0c-.077.031-1.173.648-2.435 1.369-1.782 1.018-2.289 1.292-2.272 1.225.051-.195 2.763-7.514 2.784-7.514.013 0 1.654 1.633 3.648 3.63"/></svg>