<svg xmlns="http://www.w3.org/2000/svg" width="24" height="24" fill="none" stroke="currentColor" stroke-linecap="round" stroke-linejoin="round" stroke-width="2"><path fill="#000" fill-rule="evenodd" stroke="none" d="M1.67 1.061c-.222.081-.42.248-.542.455-.092.156-.108.229-.107.484 0 .212.022.341.074.44.04.077 1.322 1.391 2.847 2.92l2.775 2.78-1.609.758c-2.581 1.216-2.736 1.295-2.868 1.455-.139.168-.24.442-.24.649 0 .319.197.675.463.84.097.06 1.376.397 3.928 1.036l3.785.946.949 3.795c1.043 4.167.99 4.003 1.361 4.232a.99.99 0 0 0 1.209-.146c.133-.135.343-.549 1.166-2.292l1.005-2.127 2.737 2.739c1.535 1.537 2.816 2.787 2.917 2.848.153.091.226.107.48.107.257 0 .327-.016.492-.113.476-.28.647-.9.373-1.359-.055-.092-4.65-4.715-10.212-10.273C3.3 1.889 2.525 1.125 2.343 1.065a1 1 0 0 0-.673-.004m20.067-.02c-.181.055-9.883 4.657-10.052 4.766-.319.208-.479.687-.364 1.096.073.263.349.554.604.639.439.145.306.198 4.175-1.639a888 888 0 0 1 3.651-1.728l.131-.057-.057.131A888 888 0 0 1 18.097 7.9c-1.838 3.87-1.785 3.735-1.639 4.175.085.255.376.531.639.604.417.117.884-.044 1.107-.38.112-.17 4.649-9.733 4.741-9.994a.98.98 0 0 0-.48-1.178c-.208-.104-.543-.144-.728-.086M9.3 10.72c.594.594 1.066 1.08 1.049 1.08-.053 0-4.206-1.04-4.285-1.073-.062-.026-.003-.067.299-.209.206-.098.7-.334 1.096-.525.397-.19.73-.348.741-.35.011-.001.506.483 1.1 1.077m4.533 6.176c-.402.845-.537 1.096-.561 1.039a255 255 0 0 1-1.072-4.284c0-.017.487.456 1.081 1.051l1.082 1.081z"/></svg>