<svg xmlns="http://www.w3.org/2000/svg" width="24" height="24" fill="none" stroke="currentColor" stroke-linecap="round" stroke-linejoin="round" stroke-width="2"><path fill="#000" fill-rule="evenodd" stroke="none" d="M9.477 1.073c-.671.176-1.239.75-1.417 1.435-.089.339-.089 4.645 0 4.984.093.36.25.626.536.912.477.477.83.596 1.772.596H11v2l-2.63.002c-2.934.003-2.928.002-3.387.279-.28.168-.629.535-.764.802-.197.388-.219.567-.219 1.785V15l-.63.002c-.46.002-.701.021-.893.071-.671.176-1.239.75-1.417 1.435-.089.339-.089 4.645 0 4.984.093.36.25.626.536.912s.552.443.912.536c.349.091 4.631.088 4.983-.003.372-.096.623-.243.913-.533s.437-.541.533-.913c.091-.35.093-4.579.003-4.962a1.8 1.8 0 0 0-.475-.876c-.467-.503-.875-.647-1.835-.651L6 15v-2h12v2l-.63.002c-.46.002-.701.021-.893.071-.671.176-1.239.75-1.417 1.435-.089.339-.089 4.645 0 4.984.093.36.25.626.536.912s.552.443.912.536c.339.089 4.645.089 4.984 0 .36-.093.626-.25.912-.536.29-.29.437-.541.533-.913.091-.35.093-4.579.003-4.962a1.8 1.8 0 0 0-.475-.876c-.467-.503-.875-.647-1.835-.651L20 15l-.001-1.11c0-1.199-.029-1.434-.218-1.807-.135-.267-.484-.634-.764-.802-.459-.277-.453-.276-3.387-.279L13 11V9h.632c.689 0 .94-.044 1.298-.225.266-.135.708-.575.841-.838.225-.443.229-.495.228-2.923 0-2.413-.008-2.518-.218-2.931-.135-.267-.484-.634-.764-.802-.453-.273-.493-.276-3.017-.276-2.008 0-2.289.007-2.523.068M14 5v2h-4V3h4zM7 19v2H3v-4h4zm14 0v2h-4v-4h4z"/></svg>