<svg xmlns="http://www.w3.org/2000/svg" width="24" height="24" fill="none" stroke="currentColor" stroke-linecap="round" stroke-linejoin="round" stroke-width="2"><path fill="#000" fill-rule="evenodd" stroke="none" d="M7.499 1.043c-1.109.188-2.015.985-2.384 2.097-.092.278-.093.298-.106 2.565l-.013 2.286-.768.019c-.661.017-.812.033-1.089.116-.494.149-.829.357-1.243.77-.4.4-.6.717-.771 1.217l-.105.307v10.12l.094.3a3.09 3.09 0 0 0 2.046 2.046l.3.094h17.08l.3-.094a3.09 3.09 0 0 0 2.046-2.046l.094-.3V3.46l-.094-.3a3.09 3.09 0 0 0-2.025-2.039l-.321-.101-6.42-.006c-3.531-.003-6.511.01-6.621.029M20.31 3.061c.279.083.546.35.629.629.054.18.061 1.17.061 8.311 0 6.753-.009 8.137-.055 8.289a1.02 1.02 0 0 1-.461.582l-.184.108-6.73.01c-3.702.006-6.73.006-6.73 0 .001-.005.032-.1.07-.21.065-.187.071-.755.09-8.62.022-9.44-.01-8.555.322-8.877.305-.296-.152-.277 6.661-.28 5.37-.003 6.148.004 6.327.058M9.695 5.057a1.04 1.04 0 0 0-.567.459L9.02 5.7v4.6l.111.189c.125.213.318.375.539.454s8.438.079 8.66 0 .414-.241.539-.454l.111-.189V5.7l-.108-.184a1.02 1.02 0 0 0-.582-.461c-.261-.079-8.344-.076-8.595.002M17 8v1h-6V7h6zM5 15.054c0 4.166-.01 5.085-.055 5.236a1.02 1.02 0 0 1-.461.582c-.156.091-.23.108-.484.108s-.328-.017-.484-.108a1.2 1.2 0 0 1-.291-.249C2.989 20.314 3 20.562 3 15.525c0-3.202.014-4.673.044-4.781a1.03 1.03 0 0 1 .682-.698c.074-.021.391-.04.704-.042L5 10zm4.695-1.997a1.04 1.04 0 0 0-.567.459c-.091.156-.108.23-.108.484 0 .256.016.328.111.489.125.213.318.375.539.454s8.438.079 8.66 0 .414-.241.539-.454c.095-.161.111-.233.111-.489 0-.254-.017-.328-.108-.484a1.02 1.02 0 0 0-.582-.461c-.261-.079-8.344-.076-8.595.002m0 4a1.04 1.04 0 0 0-.567.459c-.091.156-.108.23-.108.484 0 .256.016.328.111.489.125.213.318.375.539.454.22.078 5.44.078 5.66 0 .221-.079.414-.241.539-.454.095-.161.111-.233.111-.489 0-.254-.017-.328-.108-.484a1.02 1.02 0 0 0-.582-.461c-.259-.078-5.346-.076-5.595.002"/></svg>