<svg xmlns="http://www.w3.org/2000/svg" width="24" height="24" fill="none" stroke="currentColor" stroke-linecap="round" stroke-linejoin="round" stroke-width="2"><path fill="#000" fill-rule="evenodd" stroke="none" d="M16.12 1.037c-.463.141-.734.496-.734.963-.001.254.011.282.499 1.24 1.111 2.178 1.711 4.148 2.022 6.64.104.838.104 3.402 0 4.24-.311 2.492-.911 4.462-2.022 6.64-.488.958-.5.986-.499 1.24.001.924 1.141 1.347 1.74.645.159-.186.775-1.369 1.096-2.105a21.4 21.4 0 0 0 1.594-5.56c.269-1.773.269-4.187 0-5.96-.377-2.484-1.047-4.565-2.189-6.799-.415-.814-.599-1.043-.926-1.154a.97.97 0 0 0-.581-.03m-3.621 2.158a1 1 0 0 0-.579.92c0 .211.033.294.435 1.092.474.94.752 1.613 1.003 2.431.942 3.069.846 6.55-.262 9.522a17 17 0 0 1-.852 1.88c-.296.564-.304.588-.303.86.001.208.024.322.088.444.319.605 1.141.734 1.6.25.255-.269.907-1.594 1.311-2.663.726-1.922 1.059-3.79 1.06-5.931.001-2.869-.657-5.483-2.015-8.013-.276-.513-.405-.67-.645-.783-.23-.108-.614-.112-.841-.009M9.26 5.238c-.495.133-.787.489-.795.967-.004.204.025.284.311.86.607 1.225.873 2.041 1.091 3.355.105.634.105 2.526 0 3.16-.218 1.314-.484 2.13-1.091 3.355-.286.576-.315.656-.311.86.01.618.584 1.094 1.172.972.252-.053.475-.189.616-.375.238-.317.85-1.662 1.106-2.432a15 15 0 0 0 .437-1.784c.136-.806.174-1.282.174-2.176 0-1.734-.279-3.19-.912-4.766-.241-.598-.694-1.492-.848-1.674-.218-.257-.65-.403-.95-.322m-3.6 2.153a1 1 0 0 0-.6.608c-.109.329-.068.542.213 1.102.272.545.446 1.035.574 1.629.077.352.089.531.089 1.27s-.012.918-.089 1.27a6.6 6.6 0 0 1-.574 1.629c-.281.56-.322.773-.213 1.102.129.387.533.679.94.679.242 0 .521-.119.697-.297.287-.29.783-1.399 1.001-2.237.213-.821.239-1.059.239-2.146s-.026-1.325-.239-2.146c-.218-.838-.714-1.947-1.001-2.237-.274-.278-.64-.358-1.037-.226"/></svg>