<svg xmlns="http://www.w3.org/2000/svg" width="24" height="24" fill="none" stroke="currentColor" stroke-linecap="round" stroke-linejoin="round" stroke-width="2"><path fill="#000" fill-rule="evenodd" stroke="none" d="M5.499 1.043c-1.107.186-2.029.998-2.381 2.097-.076.239-.092.396-.108 1.07L2.991 5h-.549c-.793 0-1.076.111-1.314.516-.091.156-.108.23-.108.484 0 .256.016.328.111.489.125.213.318.375.539.454.098.035.353.054.74.055L3 7v2h-.554c-.798 0-1.079.11-1.318.516-.091.156-.108.23-.108.484 0 .256.016.328.111.489.125.213.318.375.539.454.098.035.353.054.74.055L3 11v2h-.554c-.798 0-1.079.11-1.318.516-.091.156-.108.23-.108.484 0 .256.016.328.111.489.125.213.318.375.539.454.098.035.353.054.74.055L3 15v2h-.554c-.798 0-1.079.11-1.318.516-.091.156-.108.23-.108.484 0 .256.016.328.111.489.125.213.318.375.539.454.098.035.352.054.735.055l.586.002.019.79c.016.674.032.831.108 1.07a3.1 3.1 0 0 0 2.042 2.026l.3.094h13.08l.3-.094a3.09 3.09 0 0 0 2.046-2.046l.094-.3V12.3l-.109-.186a1.01 1.01 0 0 0-1.742 0l-.109.186-.02 3.98c-.015 3.063-.032 4.006-.07 4.093a1.15 1.15 0 0 1-.446.499l-.184.108H5.7l-.184-.108a1.2 1.2 0 0 1-.291-.249C5.038 20.377 5 20.202 5 19.575V19l.59-.002c.387-.001.642-.02.74-.055.221-.079.414-.241.539-.454.095-.161.111-.233.111-.489 0-.254-.017-.328-.108-.484-.239-.406-.52-.516-1.318-.516H5v-2l.59-.002c.387-.001.642-.02.74-.055.221-.079.414-.241.539-.454.095-.161.111-.233.111-.489 0-.254-.017-.328-.108-.484-.239-.406-.52-.516-1.318-.516H5v-2l.59-.002c.387-.001.642-.02.74-.055.221-.079.414-.241.539-.454.095-.161.111-.233.111-.489 0-.254-.017-.328-.108-.484C6.633 9.11 6.352 9 5.554 9H5V7l.59-.002c.387-.001.642-.02.74-.055.221-.079.414-.241.539-.454.095-.161.111-.233.111-.489 0-.254-.017-.328-.108-.484C6.633 5.11 6.352 5 5.554 5H5v-.553c0-.696.052-.893.303-1.144.319-.319.087-.303 4.434-.305 3.106-.001 3.872-.012 3.993-.055.221-.079.414-.241.539-.454.095-.161.111-.233.111-.489 0-.254-.017-.328-.108-.484a1.2 1.2 0 0 0-.254-.295C13.72.994 13.843 1 9.604 1.005c-2.147.002-3.995.02-4.105.038m13.831.001c-.481.08-.951.293-1.37.618-.314.245-5.484 5.441-5.631 5.661-.263.392-.382.716-.851 2.319-.467 1.598-.484 1.669-.464 1.948.038.545.357 1.012.861 1.26.235.116.299.13.604.129.315-.002.458-.036 1.881-.454 1.761-.517 2.094-.654 2.56-1.057.578-.5 5.421-5.399 5.58-5.645.661-1.021.662-2.403.002-3.397a3.4 3.4 0 0 0-1.463-1.203c-.478-.195-1.175-.268-1.709-.179m1.023 2.072c.241.123.38.258.507.491.158.289.169.717.025.998-.118.232-5.321 5.446-5.505 5.517-.159.062-2.115.637-2.126.625-.024-.024.584-2.028.657-2.167.086-.164 5.215-5.309 5.414-5.431.27-.165.739-.18 1.028-.033"/></svg>