<svg xmlns="http://www.w3.org/2000/svg" width="24" height="24" fill="none" stroke="currentColor" stroke-linecap="round" stroke-linejoin="round" stroke-width="2"><path fill="#000" fill-rule="evenodd" stroke="none" d="M5.499 1.043c-1.11.188-2.029.998-2.381 2.097-.076.239-.092.396-.108 1.07L2.991 5h-.549c-.793 0-1.076.111-1.314.516-.091.156-.108.23-.108.484 0 .256.016.328.111.489.125.213.318.375.539.454.098.035.353.054.74.055L3 7v2h-.554c-.798 0-1.079.11-1.318.516-.091.156-.108.23-.108.484 0 .256.016.328.111.489.125.213.318.375.539.454.098.035.353.054.74.055L3 11v2h-.554c-.798 0-1.079.11-1.318.516-.091.156-.108.23-.108.484 0 .256.016.328.111.489.125.213.318.375.539.454.098.035.353.054.74.055L3 15v2h-.554c-.798 0-1.079.11-1.318.516-.091.156-.108.23-.108.484 0 .256.016.328.111.489.125.213.318.375.539.454.098.035.352.054.735.055l.586.002.019.79c.016.674.032.831.108 1.07a3.1 3.1 0 0 0 2.042 2.026l.3.094h13.08l.3-.094a3.09 3.09 0 0 0 2.046-2.046l.094-.3V3.46l-.094-.3a3.09 3.09 0 0 0-2.025-2.039l-.321-.101-6.42-.006c-3.531-.003-6.511.01-6.621.029M14 12.001v9l-4.15-.01-4.15-.011-.184-.108a1.2 1.2 0 0 1-.291-.249C5.038 20.377 5 20.202 5 19.575V19l.59-.002c.387-.001.642-.02.74-.055.221-.079.414-.241.539-.454.095-.161.111-.233.111-.489 0-.254-.017-.328-.108-.484-.239-.406-.52-.516-1.318-.516H5v-2l.59-.002c.387-.001.642-.02.74-.055.221-.079.414-.241.539-.454.095-.161.111-.233.111-.489 0-.254-.017-.328-.108-.484-.239-.406-.52-.516-1.318-.516H5v-2l.59-.002c.387-.001.642-.02.74-.055.221-.079.414-.241.539-.454.095-.161.111-.233.111-.489 0-.254-.017-.328-.108-.484C6.633 9.11 6.352 9 5.554 9H5V7l.59-.002c.387-.001.642-.02.74-.055.221-.079.414-.241.539-.454.095-.161.111-.233.111-.489 0-.254-.017-.328-.108-.484C6.633 5.11 6.352 5 5.554 5H5v-.553c0-.697.052-.893.304-1.144.314-.314.048-.297 4.626-.3L14 3zm4.31-8.94a.9.9 0 0 1 .387.242c.281.281.303.4.303 1.644V6h-3V3h1.053c.826 0 1.097.013 1.257.061M19 9.5V11h-3V8h3zm0 5V16h-3v-3h3zm0 4.554c0 1.149-.022 1.302-.221 1.564-.061.08-.194.195-.295.254l-.184.108-1.15.012-1.15.013V18h3z"/></svg>