<svg xmlns="http://www.w3.org/2000/svg" width="24" height="24" fill="none" stroke="currentColor" stroke-linecap="round" stroke-linejoin="round" stroke-width="2"><path fill="#000" fill-rule="evenodd" stroke="none" d="M5.499 1.043c-1.11.188-2.029.998-2.381 2.097-.076.239-.092.396-.108 1.07L2.991 5h-.549c-.793 0-1.076.111-1.314.516-.091.156-.108.23-.108.484 0 .256.016.328.111.489.125.213.318.375.539.454.098.035.353.054.74.055L3 7v2h-.554c-.798 0-1.079.11-1.318.516-.091.156-.108.23-.108.484 0 .256.016.328.111.489.125.213.318.375.539.454.098.035.353.054.74.055L3 11v2h-.554c-.798 0-1.079.11-1.318.516-.091.156-.108.23-.108.484 0 .256.016.328.111.489.125.213.318.375.539.454.098.035.353.054.74.055L3 15v2h-.554c-.798 0-1.079.11-1.318.516-.091.156-.108.23-.108.484 0 .256.016.328.111.489.125.213.318.375.539.454.098.035.352.054.735.055l.586.002.019.79c.016.674.032.831.108 1.07a3.1 3.1 0 0 0 2.042 2.026l.3.094h13.08l.3-.094a3.09 3.09 0 0 0 2.046-2.046l.094-.3V3.46l-.094-.3a3.09 3.09 0 0 0-2.025-2.039l-.321-.101-6.42-.006c-3.531-.003-6.511.01-6.621.029M18.31 3.061c.279.083.546.35.629.629.054.18.061 1.17.061 8.311 0 6.753-.009 8.137-.055 8.289a1.02 1.02 0 0 1-.461.582l-.184.108H5.7l-.184-.108a1.2 1.2 0 0 1-.291-.249C5.038 20.377 5 20.202 5 19.575V19l.59-.002c.387-.001.642-.02.74-.055.221-.079.414-.241.539-.454.095-.161.111-.233.111-.489 0-.254-.017-.328-.108-.484-.239-.406-.52-.516-1.318-.516H5v-2l.59-.002c.387-.001.642-.02.74-.055.221-.079.414-.241.539-.454.095-.161.111-.233.111-.489 0-.254-.017-.328-.108-.484-.239-.406-.52-.516-1.318-.516H5v-2l.59-.002c.387-.001.642-.02.74-.055.221-.079.414-.241.539-.454.095-.161.111-.233.111-.489 0-.254-.017-.328-.108-.484C6.633 9.11 6.352 9 5.554 9H5V7l.59-.002c.387-.001.642-.02.74-.055.221-.079.414-.241.539-.454.095-.161.111-.233.111-.489 0-.254-.017-.328-.108-.484C6.633 5.11 6.352 5 5.554 5H5v-.553c0-.697.052-.893.304-1.144.319-.32-.184-.297 6.679-.3 5.37-.003 6.148.004 6.327.058M9.24 7.037c-.448.138-.728.509-.728.963 0 .405.207.724.588.905l.2.094h5.4l.2-.094c.381-.181.588-.5.588-.905 0-.385-.195-.703-.548-.894-.159-.086-.175-.086-2.88-.093-1.496-.004-2.765.007-2.82.024m0 4c-.446.136-.728.509-.728.963 0 .405.207.724.588.905l.2.094 3.44-.001c2.77-.001 3.469-.012 3.59-.055.221-.079.414-.241.539-.454.095-.161.111-.233.111-.489 0-.254-.017-.328-.108-.484a1.2 1.2 0 0 0-.254-.295c-.296-.225-.221-.221-3.894-.218-1.861.002-3.429.018-3.484.034m0 4c-.446.136-.728.509-.728.963 0 .405.207.724.588.905l.2.094 2.44-.001c1.934-.001 2.471-.013 2.59-.055.221-.079.414-.241.539-.454.095-.161.111-.233.111-.489 0-.254-.017-.328-.108-.484a1.2 1.2 0 0 0-.254-.295c-.289-.22-.306-.221-2.894-.218-1.311.002-2.429.018-2.484.034"/></svg>