<svg xmlns="http://www.w3.org/2000/svg" width="24" height="24" fill="none" stroke="currentColor" stroke-linecap="round" stroke-linejoin="round" stroke-width="2"><path fill="#000" fill-rule="evenodd" stroke="none" d="M7.695 1.057a1.04 1.04 0 0 0-.567.459c-.103.176-.109.212-.121.829l-.014.646-.766.019c-.66.017-.812.033-1.088.116A3.07 3.07 0 0 0 3.114 5.16c-.091.291-.094.343-.094 1.723v1.423l.121.197a.998.998 0 0 0 1.718 0l.121-.196L5 7.023c.023-1.442.025-1.452.321-1.74C5.558 5.053 5.77 5 6.444 5h.549l.014.653c.013.647.014.655.134.85a.998.998 0 0 0 1.718 0l.121-.197V1.7l-.108-.184a1.005 1.005 0 0 0-1.177-.459m4 0a1.04 1.04 0 0 0-.567.459l-.108.184v4.606l.121.197a.998.998 0 0 0 1.718 0l.121-.197V1.7l-.108-.184a1.005 1.005 0 0 0-1.177-.459m4 0a1.04 1.04 0 0 0-.567.459l-.108.184v4.606l.121.197a.998.998 0 0 0 1.718 0c.12-.195.121-.203.134-.85L17.007 5h.549c.674 0 .886.053 1.123.283.296.288.298.298.321 1.74l.02 1.284.121.196a.998.998 0 0 0 1.718 0l.121-.197V6.883c0-1.38-.003-1.432-.094-1.723a3.07 3.07 0 0 0-2.025-2.034c-.276-.083-.428-.099-1.088-.116l-.766-.019-.014-.646c-.012-.617-.018-.653-.121-.829a1.005 1.005 0 0 0-1.177-.459m-8 8a1.04 1.04 0 0 0-.567.459c-.091.156-.108.23-.108.484 0 .256.016.328.111.489.125.213.318.375.539.454s6.439.079 6.66 0 .414-.241.539-.454c.095-.161.111-.233.111-.489 0-.254-.017-.328-.108-.484a1.02 1.02 0 0 0-.582-.461c-.26-.078-6.345-.076-6.595.002m-4 2a1.04 1.04 0 0 0-.567.459l-.108.184v2.606l.121.197a.998.998 0 0 0 1.718 0l.121-.197V11.7l-.108-.184a1.005 1.005 0 0 0-1.177-.459m16 0a1.04 1.04 0 0 0-.567.459l-.108.184v2.606l.121.197a.998.998 0 0 0 1.718 0l.121-.197V11.7l-.108-.184a1.005 1.005 0 0 0-1.177-.459m-12 2a1.04 1.04 0 0 0-.567.459c-.091.156-.108.23-.108.484 0 .256.016.328.111.489.125.213.318.375.539.454s8.438.079 8.66 0 .414-.241.539-.454c.095-.161.111-.233.111-.489 0-.254-.017-.328-.108-.484a1.02 1.02 0 0 0-.582-.461c-.261-.079-8.344-.076-8.595.002m-4 4a1.04 1.04 0 0 0-.567.459l-.108.184v1.42c0 1.377.003 1.429.094 1.72a3.1 3.1 0 0 0 2.026 2.042c.243.078.391.092 1.12.108.545.012.898.003 1.004-.026.233-.063.473-.25.603-.472.097-.165.113-.235.113-.492 0-.254-.017-.328-.108-.484a1.1 1.1 0 0 0-.499-.443c-.066-.028-.439-.057-.893-.07-.756-.022-.786-.026-.964-.131a1.14 1.14 0 0 1-.445-.499c-.034-.078-.056-.508-.07-1.393L4.98 17.7l-.108-.184a1.005 1.005 0 0 0-1.177-.459m4 0a1.04 1.04 0 0 0-.567.459c-.091.156-.108.23-.108.484 0 .256.016.328.111.489.125.213.318.375.539.454.22.078 5.44.078 5.66 0 .221-.079.414-.241.539-.454.095-.161.111-.233.111-.489 0-.254-.017-.328-.108-.484a1.02 1.02 0 0 0-.582-.461c-.259-.078-5.346-.076-5.595.002m12 0a1.04 1.04 0 0 0-.567.459l-.108.184-.021 1.28c-.015.874-.037 1.316-.07 1.393a1.14 1.14 0 0 1-.445.499c-.178.105-.208.109-.964.131-.454.013-.827.042-.893.07a1.1 1.1 0 0 0-.499.443c-.091.156-.108.23-.108.484 0 .257.016.327.113.492.13.222.37.409.603.472.106.029.459.038 1.004.026.729-.016.877-.03 1.12-.108a3.1 3.1 0 0 0 2.026-2.042c.091-.291.094-.343.094-1.72V17.7l-.108-.184a1.005 1.005 0 0 0-1.177-.459m-9 4a1.04 1.04 0 0 0-.567.459c-.091.156-.108.23-.108.484 0 .256.016.328.111.489.125.213.318.375.539.454.215.077 2.445.077 2.66 0 .221-.079.414-.241.539-.454.095-.161.111-.233.111-.489 0-.254-.017-.328-.108-.484a1.02 1.02 0 0 0-.582-.461c-.251-.076-2.353-.074-2.595.002"/></svg>