<svg xmlns="http://www.w3.org/2000/svg" width="24" height="24" fill="none" stroke="currentColor" stroke-linecap="round" stroke-linejoin="round" stroke-width="2"><path fill="#000" fill-rule="evenodd" stroke="none" d="M1.67 1.061c-.222.081-.42.248-.542.455-.092.156-.108.229-.107.484 0 .212.022.341.074.44.04.077.777.846 1.637 1.708l1.563 1.569-.219.231c-.501.528-.786 1.014-1.034 1.764-.089.27-.208.582-.264.691-.247.488-.654 1.025-1.262 1.665-.305.321-.403.453-.457.615-.177.532.141 1.136.673 1.28.287.078 1.19-.018 1.917-.204.17-.043.318-.079.33-.079S4 12.306 4 13.072c0 1.425.037 1.962.181 2.608.649 2.924 2.768 5.178 5.659 6.02.551.16.653.223 1.14.699.544.532.627.579 1.02.579s.476-.047 1.02-.579c.242-.237.512-.466.6-.509s.358-.138.6-.21c1.33-.397 2.526-1.104 3.439-2.036l.279-.284 1.741 1.736c.958.954 1.804 1.769 1.881 1.809.099.052.228.074.44.074.258.001.327-.015.492-.112.476-.28.647-.9.373-1.359-.055-.092-4.65-4.715-10.212-10.273C3.3 1.889 2.525 1.125 2.343 1.065a1 1 0 0 0-.673-.004m10.025-.004a1.04 1.04 0 0 0-.567.459c-.104.177-.109.21-.121.854-.008.369-.026.67-.042.67-.077 0-.992.121-1.213.161-.479.085-.789.373-.882.818-.109.518.293 1.078.836 1.163.085.013.326-.004.536-.038 2.145-.347 4.562-.008 6.393.898.762.377 1.23.699 1.708 1.176.452.451.577.662.771 1.302.063.209.127.407.141.44.022.05-.012.058-.209.047a.98.98 0 0 0-.985.657c-.231.646-.383.83-.971 1.177-.48.283-.687.622-.637 1.046.048.404.337.741.735.858.211.061.252.062.452.007.121-.033.252-.074.29-.09.064-.028.07.005.07.399 0 .529.047.694.269.94.486.541 1.325.408 1.637-.261.088-.19.093-.244.094-1.055v-.854l.09.025c.521.148.631.162 1.31.161.782 0 .948-.032 1.206-.228a.95.95 0 0 0 .374-.788c0-.385-.103-.563-.551-.949-.757-.653-1.175-1.304-1.447-2.252-.399-1.395-1.46-2.517-3.27-3.458-1.295-.674-2.674-1.066-4.519-1.284l-.186-.022-.014-.668c-.012-.642-.017-.675-.121-.852a1.005 1.005 0 0 0-1.177-.459m-4.618 7.44 1.337 1.338-.189.221c-.182.213-.684.581-.992.726l-.146.07-.2-.147c-.279-.205-.606-.568-.841-.934-.292-.456-.402-.573-.639-.682a.8.8 0 0 0-.467-.082l-.253.016.052-.101c.029-.056.109-.284.178-.507s.186-.505.26-.627c.154-.256.464-.628.523-.628.022 0 .642.602 1.377 1.337m2.624 3.317c.31.271.715.53 1.245.794l.485.243 2.548 2.548 2.548 2.548-.274.271c-.76.755-1.589 1.243-2.653 1.563-.745.225-1.161.427-1.47.714l-.13.121-.13-.123c-.311-.294-.679-.465-1.66-.774a6 6 0 0 1-1.556-.732c-1.312-.884-2.278-2.36-2.556-3.907-.068-.382-.138-2.52-.082-2.52.014 0 .147.081.296.18.341.227.639.3.917.226.465-.124 1.817-.896 2.108-1.202a.6.6 0 0 1 .141-.124c.013 0 .113.078.223.174"/></svg>