<svg xmlns="http://www.w3.org/2000/svg" width="24" height="24" fill="none" stroke="currentColor" stroke-linecap="round" stroke-linejoin="round" stroke-width="2"><path fill="#000" fill-rule="evenodd" stroke="none" d="M11.695 1.057a1.04 1.04 0 0 0-.567.459c-.104.177-.109.21-.121.852l-.014.668-.186.022c-.103.012-.439.058-.747.103-3.082.442-5.811 2.005-6.754 3.867a7 7 0 0 0-.266.692 7 7 0 0 1-.262.683c-.249.492-.663 1.037-1.26 1.661-.31.322-.401.446-.458.615-.176.532.091 1.071.629 1.266.278.101 1.169.016 1.96-.186.17-.043.318-.079.33-.079S4 12.306 4 13.072c0 1.425.037 1.962.181 2.608.649 2.924 2.768 5.178 5.659 6.02.551.16.653.223 1.14.699.544.532.627.579 1.02.579s.476-.047 1.02-.579c.487-.476.589-.539 1.14-.699 2.449-.714 4.405-2.488 5.29-4.8.448-1.17.55-1.869.55-3.753v-1.316l.09.025c.521.148.631.162 1.31.161.782 0 .948-.032 1.206-.228a.95.95 0 0 0 .374-.788c0-.385-.103-.563-.551-.949-.757-.653-1.175-1.304-1.447-2.252-.399-1.395-1.46-2.517-3.27-3.458-1.295-.674-2.674-1.066-4.519-1.284l-.186-.022-.014-.668c-.012-.642-.017-.675-.121-.852a1.005 1.005 0 0 0-1.177-.459m1.72 4.043c1.159.153 2.3.487 3.22.942.762.377 1.23.699 1.708 1.176.452.451.577.662.771 1.302.063.209.127.407.141.44.022.05-.012.058-.209.047a.98.98 0 0 0-.985.657c-.214.601-.431.878-.875 1.12-.193.105-.198.105-.341.037a3.44 3.44 0 0 1-1.316-1.101c-.396-.565-.592-.698-1.029-.698-.425 0-.601.115-1.01.658a4 4 0 0 1-1.024.936 4 4 0 0 1-.427.244c-.043.014-.179-.029-.326-.104-.569-.286-.892-.573-1.249-1.109-.325-.488-.536-.625-.964-.625-.416 0-.685.171-.952.602-.287.464-.797.913-1.315 1.158l-.146.07-.2-.147c-.279-.205-.606-.568-.841-.934-.292-.456-.402-.573-.639-.682a.8.8 0 0 0-.467-.082l-.253.016.051-.101a6 6 0 0 0 .18-.502c.186-.577.294-.752.742-1.203 1.182-1.192 3.277-2.006 5.64-2.193.393-.031 1.648.014 2.115.076m1.279 6.685c.415.373 1.198.84 1.843 1.097.417.166.608.153 1.083-.075.191-.092.357-.167.369-.167.052 0-.022 2.076-.088 2.44-.277 1.546-1.243 3.023-2.555 3.907-.444.3-.977.55-1.556.732-.981.309-1.349.48-1.66.774l-.13.123-.13-.123c-.311-.294-.679-.465-1.66-.774a6 6 0 0 1-1.556-.732c-1.312-.884-2.278-2.36-2.556-3.907-.068-.382-.138-2.52-.082-2.52.014 0 .147.081.296.18.341.227.639.3.917.226.458-.122 1.689-.818 2.071-1.17l.18-.166.183.155c.471.399 1.249.852 1.915 1.114.418.165.586.138 1.246-.197.599-.305 1.091-.62 1.416-.906.121-.106.226-.194.234-.195.008 0 .107.082.22.184"/></svg>