<svg xmlns="http://www.w3.org/2000/svg" width="24" height="24" fill="none" stroke="currentColor" stroke-linecap="round" stroke-linejoin="round" stroke-width="2"><path fill="#000" fill-rule="evenodd" stroke="none" d="M8.186 1.042a5 5 0 0 0-.46.114c-.584.179-.587.182-3.509 3.102-2.715 2.713-2.724 2.723-2.89 3.062-.325.662-.307.385-.307 4.68s-.018 4.018.307 4.68c.166.339.175.348 2.91 3.083 2.736 2.737 2.744 2.744 3.083 2.91.662.325.368.304 4.537.317 3.982.013 4.019.012 4.549-.188.494-.186.656-.331 3.326-2.996 2.676-2.669 2.881-2.895 3.062-3.38.21-.56.21-.558.197-4.566-.014-4.172.007-3.878-.318-4.54-.166-.339-.174-.347-2.89-3.061-1.997-1.996-2.783-2.756-2.95-2.853a3.3 3.3 0 0 0-1.033-.363c-.31-.051-7.315-.051-7.614-.001m7.554 2.054c.222.106 5.058 4.942 5.164 5.164.073.154.076.303.076 3.74 0 3.435-.003 3.586-.076 3.74q-.075.158-2.56 2.645c-2.255 2.256-2.502 2.491-2.681 2.55-.176.058-.567.065-3.663.065-3.091 0-3.487-.007-3.663-.065-.179-.059-.424-.292-2.681-2.55Q3.172 15.9 3.096 15.74c-.073-.154-.076-.303-.076-3.74 0-3.444.003-3.586.077-3.74.082-.172 4.654-4.795 4.983-5.039.1-.074.244-.152.32-.174.091-.026 1.385-.038 3.66-.034 3.37.007 3.527.01 3.68.083M8.67 8.061c-.222.081-.42.248-.542.455-.092.156-.108.229-.107.484 0 .213.022.341.074.44.041.077.616.685 1.279 1.35L10.578 12l-1.204 1.21c-.663.666-1.236 1.271-1.273 1.345-.229.454-.045 1.046.407 1.312.165.097.234.113.492.112.213 0 .341-.022.44-.074.077-.041.685-.616 1.35-1.279L12 13.422l1.21 1.204c.666.663 1.271 1.236 1.345 1.273.454.229 1.046.045 1.312-.407.097-.165.113-.234.112-.492 0-.213-.022-.341-.074-.44-.041-.077-.616-.684-1.279-1.35L13.422 12l1.204-1.21c.663-.665 1.238-1.273 1.279-1.35.052-.099.074-.227.074-.44.001-.255-.015-.328-.107-.484a1 1 0 0 0-1.215-.45c-.173.058-.345.213-1.427 1.288L12 10.576l-1.23-1.222c-1.082-1.075-1.254-1.23-1.427-1.288a1 1 0 0 0-.673-.005"/></svg>