<svg xmlns="http://www.w3.org/2000/svg" width="24" height="24" fill="none" stroke="currentColor" stroke-linecap="round" stroke-linejoin="round" stroke-width="2"><path fill="#000" fill-rule="evenodd" stroke="none" d="M11.46 3.024c-2.696.202-5.056 1.462-6.612 3.53-.944 1.254-1.471 2.494-1.754 4.126-.11.636-.1 2.085.019 2.74.392 2.16 1.334 3.873 2.922 5.313L6.33 19H4.611c-1.866 0-1.95.008-2.229.221-.08.061-.195.194-.254.295-.091.156-.108.23-.108.484 0 .257.016.327.113.492.128.218.369.409.592.469.098.027 1.03.037 2.644.03l2.491-.011.244-.113c.309-.143.617-.452.764-.767.104-.223.112-.276.112-.74 0-.477-.006-.512-.124-.76-.145-.302-.32-.492-.667-.726-1.093-.736-1.874-1.606-2.419-2.696-.805-1.609-.978-3.324-.508-5.049.362-1.328 1.159-2.58 2.192-3.444 1.48-1.238 3.242-1.806 5.115-1.65.957.08 1.76.302 2.546.704 1.414.724 2.451 1.76 3.123 3.121.562 1.139.803 2.246.748 3.44-.048 1.05-.27 1.883-.766 2.88-.547 1.098-1.23 1.863-2.402 2.689-.411.289-.545.439-.706.791-.08.175-.092.263-.092.7 0 .464.008.517.112.74.147.315.455.624.764.767l.244.113 2.491.011c1.614.007 2.546-.003 2.644-.03.223-.06.464-.251.592-.469.097-.165.113-.235.113-.492 0-.254-.017-.328-.108-.484a1.2 1.2 0 0 0-.254-.295c-.279-.213-.363-.221-2.228-.221h-1.718l.314-.288c1.606-1.472 2.569-3.257 2.92-5.412.1-.615.1-1.985 0-2.6-.654-4.013-3.712-7.053-7.645-7.6-.418-.058-1.455-.102-1.801-.076"/></svg>