<svg xmlns="http://www.w3.org/2000/svg" width="24" height="24" fill="none" stroke="currentColor" stroke-linecap="round" stroke-linejoin="round" stroke-width="2"><path fill="#000" fill-rule="evenodd" stroke="none" d="M2.695 2.057a1.04 1.04 0 0 0-.567.459c-.091.156-.108.23-.108.484 0 .256.016.328.111.489.125.213.318.375.539.454.12.043.704.054 2.877.055L8.273 4l2.906 8.717c2.183 6.55 2.935 8.758 3.022 8.878.063.088.202.21.307.272l.192.113 3.212.011c2.093.007 3.265-.003 3.364-.03.222-.06.463-.251.591-.469.097-.165.113-.235.113-.492 0-.254-.017-.328-.108-.484a1.2 1.2 0 0 0-.254-.295c-.291-.222-.282-.221-3.201-.221h-2.69l-2.908-8.723C10.436 4.13 9.888 2.525 9.785 2.39a1.1 1.1 0 0 0-.324-.268l-.199-.102-3.201-.008c-2.535-.006-3.235.003-3.366.045m11 0a1.04 1.04 0 0 0-.567.459c-.091.156-.108.23-.108.484 0 .256.016.328.111.489.125.213.318.375.539.454s7.439.079 7.66 0 .414-.241.539-.454c.095-.161.111-.233.111-.489 0-.254-.017-.328-.108-.484a1.02 1.02 0 0 0-.582-.461c-.26-.078-7.345-.076-7.595.002"/></svg>