<svg xmlns="http://www.w3.org/2000/svg" width="24" height="24" fill="none" stroke="currentColor" stroke-linecap="round" stroke-linejoin="round" stroke-width="2"><path fill="#000" fill-rule="evenodd" stroke="none" d="M11.541 1.042a2.9 2.9 0 0 0-.881.289c-.294.147-7.184 4.082-7.38 4.215a4 4 0 0 0-.719.714c-.17.247-.344.613-.447.941L2.02 7.5v9l.094.3c.236.756.681 1.35 1.307 1.746.43.272 6.978 3.996 7.279 4.139.48.23.765.294 1.3.294.512 0 .809-.063 1.24-.262.487-.225 2.332-1.297 2.463-1.43a.98.98 0 0 0-.26-1.577.97.97 0 0 0-.823-.035c-.089.04-.48.255-.869.479-.39.223-.718.406-.73.406-.011 0-.021-1.795-.021-3.99l.001-3.99.129-.074 5.67-3.254 1.18-.678.02.866.02.867.121.196a.998.998 0 0 0 1.718 0l.121-.197V8.923c0-1.573-.009-1.637-.317-2.263a2.8 2.8 0 0 0-.73-.943c-.207-.18-7.143-4.177-7.694-4.433a3.5 3.5 0 0 0-.496-.182 3.8 3.8 0 0 0-1.202-.06m.748 2.011c.148.047 6.668 3.749 6.669 3.787.001.03-2.411 1.4-2.465 1.4-.032 0-6.379-3.608-6.946-3.949-.044-.026 1.947-1.166 2.153-1.234a.95.95 0 0 1 .589-.004m-1.395 4.312c1.851 1.058 3.416 1.955 3.477 1.992l.111.069-1.241.71-1.242.711L8.52 8.854C6.607 7.757 5.042 6.851 5.042 6.84c.001-.025 2.406-1.397 2.452-1.399.019 0 1.549.865 3.4 1.924M9.63 11.794l1.37.786v3.99c0 2.195-.009 3.99-.02 3.99s-1.49-.84-3.287-1.867c-2.292-1.309-3.312-1.913-3.419-2.024-.285-.294-.274-.121-.274-4.334V8.564l2.13 1.222zm9.065.263a1.04 1.04 0 0 0-.567.459l-.108.184-.012 1.15-.013 1.15h-1.051c-1.147 0-1.301.022-1.562.221-.08.061-.195.194-.254.295-.091.156-.108.23-.108.484 0 .256.016.328.111.489.061.103.173.236.25.294.261.2.357.213 1.527.215l1.087.002.013 1.153.012 1.154.121.196a.998.998 0 0 0 1.718 0l.121-.196.012-1.154.013-1.153 1.087-.002c1.17-.002 1.266-.015 1.527-.215.077-.058.189-.191.25-.294.095-.161.111-.233.111-.489 0-.254-.017-.328-.108-.484a1.2 1.2 0 0 0-.254-.295c-.261-.199-.415-.221-1.562-.221h-1.051l-.013-1.15-.012-1.15-.108-.184a1.005 1.005 0 0 0-1.177-.459"/></svg>