<svg xmlns="http://www.w3.org/2000/svg" width="24" height="24" fill="none" stroke="currentColor" stroke-linecap="round" stroke-linejoin="round" stroke-width="2"><path fill="#000" fill-rule="evenodd" stroke="none" d="M7.333 1.08a3 3 0 0 0-.42.143c-.488.251-4.499 2.538-4.694 2.676-.75.535-1.182 1.388-1.183 2.341a2.84 2.84 0 0 0 .839 2.067l.204.208-.097.076c-.189.149-.462.505-.622.814-.608 1.168-.354 2.622.612 3.496.136.124.422.327.636.452l.387.227.014 1.9c.012 1.666.022 1.929.084 2.138.239.81.667 1.406 1.304 1.814.267.171 6.216 3.229 6.528 3.356a2.9 2.9 0 0 0 2.15 0c.312-.127 6.261-3.185 6.528-3.356.637-.408 1.065-1.004 1.304-1.814.062-.209.072-.472.084-2.138l.014-1.9.387-.227c1.039-.609 1.57-1.485 1.572-2.593.001-.808-.285-1.511-.841-2.066l-.206-.206.099-.078c.344-.27.73-.911.868-1.439.098-.379.108-1.042.021-1.372-.2-.748-.566-1.302-1.124-1.7-.265-.188-4.233-2.43-4.682-2.645a2.63 2.63 0 0 0-1.635-.196c-.413.079-.487.115-2.072 1.008l-1.388.781-1.272-.719c-1.54-.87-1.78-.992-2.102-1.068a3.2 3.2 0 0 0-1.297.02m1.776 2.423c.812.457.845.48.762.537-.047.033-1.383.792-2.969 1.686L4.02 7.352l-.26-.142c-.557-.305-.72-.522-.72-.958 0-.291.068-.468.247-.641.074-.07 1.124-.688 2.334-1.372L7.82 2.996l.22.015c.194.013.32.071 1.069.492m7.207-.405c.662.335 4.287 2.408 4.397 2.514.179.172.247.349.247.64 0 .436-.164.654-.72.958l-.26.142-2.95-1.666c-1.622-.916-2.949-1.676-2.95-1.688 0-.023.267-.179 1.179-.687.632-.352.74-.374 1.057-.213M14.99 6.826c1.59.899 2.892 1.651 2.895 1.672.004.033-5.823 3.342-5.885 3.342-.049 0-5.884-3.302-5.892-3.334-.012-.051 5.863-3.352 5.932-3.332.033.009 1.361.753 2.95 1.652m-7.976 4.513c1.598.901 2.906 1.649 2.906 1.663 0 .013-.391.244-.869.511-.759.425-.893.487-1.053.487-.161 0-.304-.068-1.22-.584a309 309 0 0 1-3.19-1.806c-.416-.248-.548-.455-.548-.862 0-.298.11-.546.311-.699.226-.173.665-.404.713-.375zm13.633-1.291c.205.159.313.4.313.7 0 .418-.133.619-.59.887-.148.087-1.152.655-2.23 1.262-1.763.992-1.978 1.103-2.141 1.103-.156 0-.296-.065-1.05-.487-.478-.267-.869-.497-.869-.511 0-.013 1.328-.773 2.95-1.688l2.95-1.664.26.142c.143.078.326.193.407.256M5.96 15.253c1.19.667 1.346.724 2.02.726.699.002.864-.057 2.05-.722l.95-.532.01 1.48c.006.815.006 2.135 0 2.934l-.01 1.453-2.76-1.415c-2.438-1.25-2.78-1.437-2.929-1.599C5.02 17.283 5 17.165 5 15.85c0-.624.014-1.127.03-1.118zm8.096.053c1.102.619 1.265.675 1.964.671.475-.003.548-.013.84-.122.176-.066.725-.348 1.22-.628l.9-.507.011 1.127c.012 1.314-.007 1.433-.281 1.73-.147.16-.41.308-1.97 1.107-.99.507-2.237 1.146-2.77 1.421l-.97.499v-5.887l.086.046c.047.025.483.27.97.543"/></svg>