<svg xmlns="http://www.w3.org/2000/svg" width="24" height="24" fill="none" stroke="currentColor" stroke-linecap="round" stroke-linejoin="round" stroke-width="2"><path fill="#000" fill-rule="evenodd" stroke="none" d="M11.541 1.042a2.9 2.9 0 0 0-.881.289c-.294.147-7.184 4.082-7.38 4.215a4 4 0 0 0-.719.714c-.17.247-.344.613-.447.941L2.02 7.5v9l.094.3c.236.756.681 1.35 1.307 1.746.43.272 6.978 3.996 7.279 4.139.48.23.765.294 1.3.294s.82-.064 1.3-.294c.301-.143 6.849-3.867 7.279-4.139a2.9 2.9 0 0 0 1.084-1.206c.339-.69.317-.312.317-5.34s.022-4.65-.317-5.34a2.8 2.8 0 0 0-.73-.943c-.207-.18-7.143-4.177-7.694-4.433a3.5 3.5 0 0 0-.496-.182 3.8 3.8 0 0 0-1.202-.06m.716 2.002c.126.035 6.6 3.695 6.716 3.797.046.04-2.326 1.49-2.394 1.464-.04-.015-6.781-3.863-7.032-4.014-.044-.026 1.947-1.166 2.153-1.234a.88.88 0 0 1 .557-.013M11.1 7.48c1.945 1.111 3.537 2.032 3.538 2.046.003.042-2.16 1.358-2.331 1.419a.92.92 0 0 1-.615-.001c-.13-.046-6.563-3.967-6.664-4.062-.037-.035 2.408-1.445 2.484-1.431.028.005 1.643.918 3.588 2.029m-3.762 3.179c1.781 1.094 3.334 2.027 3.45 2.075l.212.086v3.87c0 2.129-.009 3.87-.02 3.87s-1.49-.84-3.287-1.867c-2.292-1.309-3.312-1.913-3.419-2.024-.285-.293-.274-.123-.274-4.321 0-3.001.01-3.75.05-3.718.027.022 1.507.935 3.288 2.029m12.603 5.645a.9.9 0 0 1-.214.364c-.108.112-1.121.711-3.42 2.025a363 363 0 0 1-3.287 1.867c-.011 0-.02-1.742-.02-3.871v-3.871l.199-.078c.11-.042 1.68-.987 3.49-2.099l3.291-2.023.01 3.74c.009 3.222.002 3.769-.049 3.946"/></svg>