<svg xmlns="http://www.w3.org/2000/svg" width="24" height="24" fill="none" stroke="currentColor" stroke-linecap="round" stroke-linejoin="round" stroke-width="2"><path fill="#000" fill-rule="evenodd" stroke="none" d="M6.78 2.043c-.725.105-1.456.538-1.927 1.143-.119.153-.643 1.157-1.518 2.906L1.998 8.765l.011 5.407.011 5.408.094.28c.332.991 1.07 1.722 2.046 2.026l.3.094h15.08l.3-.094a3.09 3.09 0 0 0 2.046-2.046l.094-.3V8.7l-1.32-2.633c-.905-1.805-1.384-2.717-1.523-2.9a3 3 0 0 0-1.037-.843c-.653-.325-.174-.3-5.94-.308-2.827-.004-5.248.008-5.38.027M11 6v2H7.82c-1.749 0-3.18-.009-3.18-.02s.398-.817.885-1.79c.948-1.898 1.013-1.999 1.362-2.123.146-.051.484-.061 2.143-.064L11 4zm6.22-1.894c.088.048.208.138.266.2.085.091 1.874 3.599 1.874 3.674 0 .011-1.431.02-3.18.02H13V3.997l2.03.012c1.993.011 2.033.013 2.19.097M20 14.554c0 4.943.008 4.764-.221 5.064-.061.08-.194.195-.295.254l-.184.108H4.7l-.184-.108a1.2 1.2 0 0 1-.291-.249C3.989 19.314 4 19.557 4 14.575V10h16z"/></svg>