<svg xmlns="http://www.w3.org/2000/svg" width="24" height="24" fill="none" stroke="currentColor" stroke-linecap="round" stroke-linejoin="round" stroke-width="2"><path fill="#000" fill-rule="evenodd" stroke="none" d="M4.67 1.061c-.222.081-.42.248-.542.455-.091.156-.108.23-.108.484s.016.327.107.48c.059.099.748.819 1.53 1.599l1.422 1.42-2.812 2.82c-1.781 1.786-2.869 2.906-2.964 3.054C.99 11.856.841 12.379.841 13s.149 1.144.462 1.627c.174.269 5.535 5.67 5.917 5.962 1.01.772 2.377.807 3.447.09.273-.183 9.073-8.977 9.206-9.199.091-.152.107-.226.107-.48s-.016-.328-.107-.48c-.062-.104-1.845-1.914-4.22-4.285-3.767-3.76-4.13-4.11-4.31-4.17a.98.98 0 0 0-.686.001c-.171.058-.327.196-1.177 1.038l-.98.972-1.48-1.472c-1.316-1.309-1.502-1.48-1.677-1.538a1 1 0 0 0-.673-.005M14.3 7.72l3.279 3.279-.499.501-.499.5H3.42l2.539-2.539 2.539-2.539.461.454c.564.555.645.602 1.041.603.258.001.327-.015.492-.112a.99.99 0 0 0 .495-.979c-.03-.295-.154-.482-.644-.967l-.423-.42.529-.53c.292-.292.539-.531.551-.531.011 0 1.496 1.476 3.3 3.28m-2.22 8.784C9.405 19.183 9.387 19.199 9 19.199s-.405-.016-3.08-2.695L3.42 14h11.16zm7.57-1.438a1.2 1.2 0 0 0-.347.233c-.151.147-.194.227-.284.527-.141.467-.276.699-.895 1.534-.73.984-.972 1.469-1.086 2.179-.237 1.469.666 2.894 2.122 3.347.252.078.387.093.84.093s.588-.015.84-.093c.59-.184 1.053-.495 1.481-.995.662-.772.852-1.893.497-2.936-.153-.451-.395-.86-.945-1.6-.608-.817-.76-1.072-.868-1.467a2 2 0 0 0-.167-.431c-.234-.379-.746-.547-1.188-.391m.69 3.571c.382.519.604.929.642 1.185.062.413-.14.839-.496 1.049-.158.093-.231.109-.486.109-.254 0-.328-.017-.484-.108-.517-.304-.647-.875-.339-1.49.126-.252.773-1.18.823-1.18.011 0 .164.196.34.435"/></svg>