<svg xmlns="http://www.w3.org/2000/svg" width="24" height="24" fill="none" stroke="currentColor" stroke-linecap="round" stroke-linejoin="round" stroke-width="2"><path fill="#000" fill-rule="evenodd" stroke="none" d="M3.499 1.043c-1.119.19-2.038 1.005-2.385 2.117-.092.293-.094.337-.094 1.84s.002 1.547.094 1.84A3.09 3.09 0 0 0 3.16 8.886l.3.094h13.08l.3-.094c1.184-.369 2.036-1.397 2.144-2.584L19.011 6h.547c.691 0 .888.053 1.139.303.297.297.303.341.303 2.198 0 1.745-.01 1.84-.221 2.117-.061.08-.194.195-.295.254l-.184.108-4.42.02-4.42.021-.321.101a3.1 3.1 0 0 0-2.021 2.018c-.076.238-.092.396-.108 1.062l-.019.781-.306.049a1.88 1.88 0 0 0-1.089.565c-.286.285-.442.55-.536.911-.089.339-.089 4.645 0 4.984.093.36.25.626.536.912s.552.443.912.536c.331.087 2.653.087 2.984 0 .36-.093.626-.25.912-.536.29-.29.437-.541.533-.913.091-.35.093-4.579.003-4.962-.088-.373-.241-.638-.536-.932a1.9 1.9 0 0 0-1.094-.566l-.31-.049v-.544c0-.668.054-.88.283-1.117.315-.324-.076-.299 4.877-.321l4.42-.02.307-.105a3.1 3.1 0 0 0 1.999-2.035c.093-.298.094-.313.094-2.34s-.001-2.042-.094-2.34a3.07 3.07 0 0 0-2.025-2.034c-.276-.083-.428-.099-1.086-.116l-.765-.019-.027-.297c-.106-1.174-.956-2.204-2.122-2.573l-.321-.101-6.42-.006c-3.531-.003-6.511.01-6.621.029M16.31 3.061c.279.083.546.35.629.629.084.282.089 2.325.006 2.6a1.02 1.02 0 0 1-.461.582l-.184.108H3.7l-.184-.108a1.05 1.05 0 0 1-.458-.556c-.086-.245-.084-2.334.003-2.626.079-.269.351-.547.612-.627.29-.089 12.337-.091 12.637-.002M11 19v2H9v-4h2z"/></svg>