<svg xmlns="http://www.w3.org/2000/svg" width="24" height="24" fill="none" stroke="currentColor" stroke-linecap="round" stroke-linejoin="round" stroke-width="2"><path fill="#000" fill-rule="evenodd" stroke="none" d="M19.42 1.029a3.2 3.2 0 0 0-1.25.476c-.138.09-1.014.93-2.199 2.11l-1.97 1.961-.43-.421c-.471-.461-.644-.591-1.079-.809-.504-.254-.829-.324-1.492-.324-.481 0-.633.015-.892.089a3.8 3.8 0 0 0-1.148.57c-.304.225-1.425 1.353-1.551 1.562-.14.231-.221.612-.19.899.028.265.184.627.362.845l.105.127-.322.359A7.8 7.8 0 0 1 6 9.651c-.712.467-1.859.901-3.08 1.166-.363.078-.753.17-.867.204-.832.246-1.276 1.222-.922 2.023.071.16 1.09 1.426 3.766 4.678 2.017 2.452 3.774 4.56 3.903 4.685.406.392.925.58 1.495.542.564-.036.902-.221 1.845-1.004 1.663-1.383 3.445-3.445 4.221-4.885l.177-.328c.003-.004.123.012.268.037.341.059.723-.028 1.016-.229.251-.172 1.397-1.331 1.574-1.591a4.1 4.1 0 0 0 .493-1.057c.075-.26.09-.409.09-.892 0-.67-.072-.996-.341-1.534-.199-.397-.317-.55-.814-1.056l-.402-.409 1.962-1.971c1.181-1.186 2.021-2.062 2.111-2.2.356-.548.48-.982.483-1.69.002-.557-.037-.781-.216-1.221-.293-.722-.972-1.391-1.723-1.696-.439-.179-1.13-.262-1.619-.194m.933 2.087c.241.123.38.258.508.491.1.182.117.256.116.513 0 .208-.024.349-.075.46-.05.107-.791.879-2.244 2.34-1.659 1.667-2.193 2.228-2.27 2.383a1.55 1.55 0 0 0-.15.923c.081.439.19.601.89 1.32.8.821.852.91.852 1.454 0 .509-.094.696-.604 1.204l-.377.375-3.789-3.789-3.789-3.789.371-.373c.235-.236.455-.416.6-.491.205-.105.266-.117.608-.117.544 0 .633.052 1.454.852.719.7.881.809 1.32.89.28.052.636-.006.923-.15.155-.077.711-.606 2.363-2.249 1.188-1.182 2.207-2.178 2.265-2.214.269-.165.739-.18 1.028-.033M14.9 15.44c-.03.132-.375.813-.552 1.09l-.14.219-4.846-1.321-4.846-1.322-.542-.656c-.297-.361-.532-.665-.522-.675s.223-.072.473-.137c1.496-.389 2.663-.914 3.606-1.622.471-.353 1.044-.875 1.329-1.21l.24-.283 2.911 2.909c2.599 2.596 2.909 2.919 2.889 3.008m-5.094 2.182c1.655.451 3.018.829 3.028.839.033.032-.688.787-1.238 1.296-.579.537-1.343 1.163-1.419 1.163-.026 0-.792-.903-1.702-2.007-1.616-1.96-1.739-2.113-1.7-2.113.011 0 1.375.37 3.031.822"/></svg>