<svg xmlns="http://www.w3.org/2000/svg" width="24" height="24" fill="none" stroke="currentColor" stroke-linecap="round" stroke-linejoin="round" stroke-width="2"><path fill="#000" fill-rule="evenodd" stroke="none" d="M6.477 1.073c-.671.176-1.239.75-1.417 1.435-.051.196-.06.843-.06 4.497v4.268l-.138.086c-.213.132-.543.516-.667.778-.181.382-.205.588-.185 1.56.016.775.029.917.108 1.163a3.12 3.12 0 0 0 2.022 2.024c.263.085.358.092 1.57.107l1.29.016v1.598c0 1.716.021 1.953.218 2.438.349.858 1.184 1.569 2.093 1.781.349.082 1.029.082 1.378 0 .909-.212 1.744-.923 2.093-1.781.197-.485.218-.722.218-2.438v-1.598l1.29-.016c1.212-.015 1.307-.022 1.57-.107a3.12 3.12 0 0 0 2.022-2.024c.079-.246.092-.387.108-1.16.019-.964-.016-1.237-.207-1.615-.117-.23-.452-.607-.645-.726L19 11.273l-.001-4.246c0-4.602.004-4.507-.218-4.944-.135-.267-.484-.634-.764-.802-.484-.292-.15-.276-6.017-.276-4.843 0-5.281.005-5.523.068m2.53 2.58c.013.647.014.655.134.85a.998.998 0 0 0 1.718 0c.12-.195.121-.203.134-.85L11.007 3h1.99l.011 1.653.012 1.653.121.197a.998.998 0 0 0 1.718 0l.121-.197.012-1.653L15.003 3H17v8H7V3h1.993zM18 13.554c0 .798-.11 1.079-.516 1.318l-.184.108-1.36.023c-1.517.025-1.578.035-2.003.309-.268.174-.584.507-.704.742-.214.42-.209.365-.232 2.306-.02 1.769-.023 1.825-.107 1.98-.191.353-.509.548-.894.548s-.703-.195-.894-.548c-.083-.155-.087-.213-.109-1.96-.016-1.312-.036-1.843-.074-1.96a2.13 2.13 0 0 0-.86-1.108c-.425-.274-.486-.284-2.003-.309L6.7 14.98l-.184-.108a1.2 1.2 0 0 1-.291-.249C6.038 14.377 6 14.202 6 13.575V13h12z"/></svg>