<svg xmlns="http://www.w3.org/2000/svg" width="24" height="24" fill="none" stroke="currentColor" stroke-linecap="round" stroke-linejoin="round" stroke-width="2"><path fill="#000" fill-rule="evenodd" stroke="none" d="M11.069 1.039c-1.146.112-2.261.382-3.205.778-3.697 1.55-6.185 4.756-6.77 8.723-.099.673-.099 2.247 0 2.92.627 4.254 3.485 7.671 7.526 9a9.8 9.8 0 0 0 3.16.517c.728.003.772-.001 1.053-.104a2.55 2.55 0 0 0 1.026-.656c.323-.326.502-.607.652-1.024.096-.263.106-.349.107-.853.001-.511-.009-.587-.11-.875-.103-.292-.279-.593-.594-1.012a.676.676 0 0 1 .135-.94c.13-.092.145-.093 1.611-.118 1.541-.026 1.85-.056 2.5-.237a6.7 6.7 0 0 0 3.518-2.412c1.39-1.86 1.681-4.176.838-6.686-1.033-3.074-3.685-5.525-7.096-6.558a12.6 12.6 0 0 0-1.92-.403c-.565-.075-1.931-.108-2.431-.06m1.771 2.003c2.259.204 4.265 1.095 5.795 2.576 1.515 1.467 2.327 3.264 2.333 5.162.001.417-.019.698-.066.92-.387 1.827-1.724 3.185-3.547 3.602-.236.054-.614.073-1.895.096-1.47.025-1.62.035-1.851.111a2.78 2.78 0 0 0-1.704 1.689c-.108.307-.12.392-.121.822 0 .702.17 1.229.538 1.666.275.327.33.45.31.693-.021.255-.17.479-.376.565-.396.166-2.014-.046-3.078-.402-1.337-.447-2.47-1.153-3.501-2.181-1.195-1.19-1.964-2.513-2.373-4.082-.22-.842-.281-1.338-.281-2.279s.061-1.437.281-2.279c.407-1.561 1.173-2.884 2.353-4.064S8.16 3.711 9.721 3.304a9 9 0 0 1 3.119-.262m.334 1.997c-.424.09-.845.438-1.042.861-.097.207-.112.29-.112.6 0 .311.015.394.113.604.143.309.452.617.767.764.207.097.29.112.6.112s.393-.015.6-.112c.315-.147.624-.455.767-.764.098-.21.113-.293.113-.604s-.015-.394-.113-.604a1.68 1.68 0 0 0-.748-.753 1.8 1.8 0 0 0-.945-.104m-5 1c-.424.09-.845.438-1.042.861-.097.207-.112.29-.112.6 0 .311.015.394.113.604.143.309.452.617.767.764.207.097.29.112.6.112s.393-.015.6-.112c.315-.147.624-.455.767-.764.098-.21.113-.293.113-.604s-.015-.394-.113-.604a1.68 1.68 0 0 0-.748-.753 1.8 1.8 0 0 0-.945-.104m9 3c-.424.09-.845.438-1.042.861-.097.207-.112.29-.112.6 0 .311.015.394.113.604.143.309.452.617.767.764.207.097.29.112.6.112s.393-.015.6-.112c.315-.147.624-.455.767-.764.098-.21.113-.293.113-.604s-.015-.394-.113-.604a1.68 1.68 0 0 0-.748-.753 1.8 1.8 0 0 0-.945-.104m-11 2c-.424.09-.845.438-1.042.861-.097.207-.112.29-.112.6 0 .311.015.394.113.604.143.309.452.617.767.764.207.097.29.112.6.112s.393-.015.6-.112c.315-.147.624-.455.767-.764.098-.21.113-.293.113-.604s-.015-.394-.113-.604a1.68 1.68 0 0 0-.748-.753 1.8 1.8 0 0 0-.945-.104"/></svg>