<svg xmlns="http://www.w3.org/2000/svg" width="24" height="24" fill="none" stroke="currentColor" stroke-linecap="round" stroke-linejoin="round" stroke-width="2"><path fill="#000" fill-rule="evenodd" stroke="none" d="M4.499 2.043C3.38 2.232 2.461 3.048 2.114 4.16l-.094.3v15.08l.094.3a3.09 3.09 0 0 0 2.046 2.046l.3.094h15.08l.3-.094a3.09 3.09 0 0 0 2.046-2.046l.094-.3V4.46l-.094-.3a3.09 3.09 0 0 0-2.025-2.039l-.321-.101-7.42-.006c-4.081-.003-7.511.01-7.621.029M14 9v5H4V9.447c0-5.14-.019-4.822.304-5.144.315-.316-.008-.297 5.126-.3L14 4zm5.31-4.939c.279.083.546.35.629.629.054.18.061 1.065.061 7.311 0 5.906-.009 7.137-.055 7.289a1.02 1.02 0 0 1-.461.582l-.184.108-1.65.012-1.65.011V4h1.553c1.273 0 1.589.011 1.757.061M14 18.001v2l-4.65-.01-4.65-.011-.184-.108a1.2 1.2 0 0 1-.291-.249c-.219-.287-.225-.34-.225-2.048V16h10z"/></svg>