<svg xmlns="http://www.w3.org/2000/svg" width="24" height="24" fill="none" stroke="currentColor" stroke-linecap="round" stroke-linejoin="round" stroke-width="2"><path fill="#000" fill-rule="evenodd" stroke="none" d="M4.499 2.043C3.38 2.232 2.461 3.048 2.114 4.16l-.094.3v15.08l.094.3a3.09 3.09 0 0 0 2.046 2.046l.3.094h15.08l.3-.094a3.09 3.09 0 0 0 2.046-2.046l.094-.3V4.46l-.094-.3a3.09 3.09 0 0 0-2.025-2.039l-.321-.101-7.42-.006c-4.081-.003-7.511.01-7.621.029M19.31 4.061c.279.083.546.35.629.629.053.178.061.798.061 4.757V14H4V9.447c0-3.959.008-4.579.061-4.757.079-.269.351-.547.612-.627.291-.089 14.336-.092 14.637-.002M20 17.554c0 1.688-.011 1.788-.221 2.064-.061.08-.194.195-.295.254l-.184.108H4.7l-.184-.108a1.2 1.2 0 0 1-.291-.249c-.219-.287-.225-.34-.225-2.048V16h16z"/></svg>