<svg xmlns="http://www.w3.org/2000/svg" width="24" height="24" fill="none" stroke="currentColor" stroke-linecap="round" stroke-linejoin="round" stroke-width="2"><path fill="#000" fill-rule="evenodd" stroke="none" d="M4.499 2.043C3.38 2.232 2.461 3.048 2.114 4.16l-.094.3v15.08l.094.3a3.09 3.09 0 0 0 2.046 2.046l.3.094h15.08l.3-.094a3.09 3.09 0 0 0 2.046-2.046l.094-.3V4.46l-.094-.3a3.09 3.09 0 0 0-2.025-2.039l-.321-.101-7.42-.006c-4.081-.003-7.511.01-7.621.029M19.31 4.061c.279.083.546.35.629.629.053.178.061.798.061 4.757V14H4V9.447c0-3.959.008-4.579.061-4.757.079-.269.351-.547.612-.627.291-.089 14.336-.092 14.637-.002m-7.65 2.006c-.183.055-.334.194-1.813 1.667-.887.883-1.661 1.687-1.72 1.786-.09.152-.107.226-.107.48 0 .257.016.327.113.492.13.222.369.409.603.473.203.054.531.024.709-.066.074-.037.68-.61 1.345-1.273L12 8.422l1.21 1.204c.666.663 1.273 1.238 1.35 1.279.099.052.227.074.44.074.258.001.327-.015.492-.112.476-.28.646-.899.374-1.359-.055-.092-.826-.891-1.713-1.774-1.538-1.531-1.623-1.609-1.83-1.67a.96.96 0 0 0-.663.003M20 17.554c0 1.688-.011 1.788-.221 2.064-.061.08-.194.195-.295.254l-.184.108H4.7l-.184-.108a1.2 1.2 0 0 1-.291-.249c-.219-.287-.225-.34-.225-2.048V16h16z"/></svg>