<svg xmlns="http://www.w3.org/2000/svg" width="24" height="24" fill="none" stroke="currentColor" stroke-linecap="round" stroke-linejoin="round" stroke-width="2"><path fill="#000" fill-rule="evenodd" stroke="none" d="M4.499 2.043C3.38 2.232 2.461 3.048 2.114 4.16l-.094.3v15.08l.094.3a3.09 3.09 0 0 0 2.046 2.046l.3.094h15.08l.3-.094a3.09 3.09 0 0 0 2.046-2.046l.094-.3V4.46l-.094-.3a3.09 3.09 0 0 0-2.025-2.039l-.321-.101-7.42-.006c-4.081-.003-7.511.01-7.621.029m9.508 2.61c.013.647.014.655.134.85a.998.998 0 0 0 1.718 0c.12-.195.121-.203.134-.85L16.007 4h1.549c1.794 0 1.845.007 2.141.303.327.328.303-.294.303 7.698 0 5.906-.009 7.137-.055 7.289a1.02 1.02 0 0 1-.461.582l-.184.108-1.647.012-1.646.011-.014-.651c-.012-.627-.017-.659-.122-.838a1.01 1.01 0 0 0-1.742 0c-.105.179-.11.212-.122.837l-.014.65-4.646-.01L4.7 19.98l-.184-.108a1.2 1.2 0 0 1-.291-.249c-.239-.314-.225.172-.225-7.601 0-8.017-.025-7.391.304-7.719.315-.316-.008-.297 5.123-.3L13.993 4zm.688 3.404a1.04 1.04 0 0 0-.567.459c-.108.183-.108.187-.108.987v.803l.121.197a.998.998 0 0 0 1.718 0l.121-.197v-.803c0-.8 0-.804-.108-.987a1.005 1.005 0 0 0-1.177-.459m0 5a1.04 1.04 0 0 0-.567.459c-.108.183-.108.187-.108.987v.803l.121.197a.998.998 0 0 0 1.718 0l.121-.197v-.803c0-.8 0-.804-.108-.987a1.005 1.005 0 0 0-1.177-.459"/></svg>