<svg xmlns="http://www.w3.org/2000/svg" width="24" height="24" fill="none" stroke="currentColor" stroke-linecap="round" stroke-linejoin="round" stroke-width="2"><path fill="#000" fill-rule="evenodd" stroke="none" d="M4.499 2.043C3.38 2.232 2.461 3.048 2.114 4.16l-.094.3v15.08l.094.3a3.09 3.09 0 0 0 2.046 2.046l.3.094h15.08l.3-.094a3.09 3.09 0 0 0 2.046-2.046l.094-.3V4.46l-.094-.3a3.09 3.09 0 0 0-2.025-2.039l-.321-.101-7.42-.006c-4.081-.003-7.511.01-7.621.029M19.31 4.061a.9.9 0 0 1 .387.242c.296.296.303.347.303 2.144V8H4V6.447c0-1.798.007-1.848.304-2.144a.9.9 0 0 1 .369-.24c.291-.089 14.336-.092 14.637-.002M20 14.554c0 4.943.008 4.764-.221 5.064-.061.08-.194.195-.295.254l-.184.108H4.7l-.184-.108a1.2 1.2 0 0 1-.291-.249C3.989 19.314 4 19.557 4 14.575V10h16zm-8.36-2.485c-.152.052-.432.312-1.793 1.666-.887.883-1.661 1.686-1.72 1.785-.09.152-.107.226-.107.48 0 .257.016.327.113.492.13.222.369.409.603.473.203.054.531.024.709-.066.074-.037.68-.61 1.345-1.273L12 14.422l1.21 1.204c.666.663 1.273 1.238 1.35 1.279.099.052.227.074.44.074.258.001.327-.015.492-.112.476-.28.646-.899.374-1.359-.055-.092-.826-.89-1.713-1.772-1.439-1.431-1.634-1.612-1.81-1.67a1.03 1.03 0 0 0-.703.003"/></svg>