<svg xmlns="http://www.w3.org/2000/svg" width="24" height="24" fill="none" stroke="currentColor" stroke-linecap="round" stroke-linejoin="round" stroke-width="2"><path fill="#000" fill-rule="evenodd" stroke="none" d="M4.499 2.043C3.38 2.232 2.461 3.048 2.114 4.16l-.094.3v15.08l.094.3a3.09 3.09 0 0 0 2.046 2.046l.3.094h15.08l.3-.094a3.09 3.09 0 0 0 2.046-2.046l.094-.3V4.46l-.094-.3a3.09 3.09 0 0 0-2.025-2.039l-.321-.101-7.42-.006c-4.081-.003-7.511.01-7.621.029M8 12.002v8.001l-1.65-.011-1.65-.012-.184-.108a1.2 1.2 0 0 1-.291-.249c-.239-.314-.225.172-.225-7.601 0-8.017-.025-7.391.304-7.719.292-.292.325-.297 2.126-.3L8 4zm11.31-7.941c.279.083.546.35.629.629.053.178.061.798.061 4.757V14H10V4h4.553c3.959 0 4.579.008 4.757.061M20 17.554c0 1.688-.011 1.788-.221 2.064-.061.08-.194.195-.295.254l-.184.108-4.65.011-4.65.01V16h10z"/></svg>