<svg xmlns="http://www.w3.org/2000/svg" width="24" height="24" fill="none" stroke="currentColor" stroke-linecap="round" stroke-linejoin="round" stroke-width="2"><path fill="#000" fill-rule="evenodd" stroke="none" d="M15.4 1.044c-.841.094-1.733.458-2.437.994-.184.14-1.798 1.754-4.066 4.067-5.053 5.152-5.245 5.353-5.569 5.804a6.975 6.975 0 0 0 .732 9.031c2.476 2.477 6.311 2.746 9.155.642.421-.311.927-.816 4.989-4.982 3.88-3.978 3.795-3.882 3.795-4.3 0-.37-.269-.777-.608-.918-.218-.091-.608-.08-.82.023-.13.062-1.216 1.15-4.211 4.214-4.411 4.515-4.468 4.568-5.304 4.933-.739.324-1.241.428-2.056.428-.669 0-1.042-.058-1.6-.248-2.191-.746-3.603-2.928-3.366-5.201.103-.983.424-1.808.997-2.558.23-.302 8.599-8.872 9.049-9.266a2.9 2.9 0 0 1 1.059-.582c.273-.083.403-.098.861-.098.628 0 .982.085 1.461.351.375.208.953.786 1.161 1.161.266.479.351.833.351 1.461 0 .458-.015.588-.098.861a2.9 2.9 0 0 1-.598 1.078c-.219.251-7.675 7.875-8.356 8.546-.316.311-.432.399-.601.455a.991.991 0 0 1-1.285-1.154c.027-.118.09-.272.142-.342s2.008-2.08 4.348-4.468 4.297-4.412 4.348-4.497c.297-.496.02-1.224-.54-1.415-.236-.081-.383-.081-.654 0-.259.077.156-.333-5.043 4.976-2.122 2.167-3.936 4.038-4.031 4.158-.214.271-.37.577-.491.963-.081.257-.094.378-.091.859.003.488.016.6.105.867a3.1 3.1 0 0 0 1.985 1.986c.273.09.372.102.887.102s.614-.012.887-.102a3.1 3.1 0 0 0 1.013-.56c.178-.154 7.42-7.526 8.58-8.735.644-.671.979-1.199 1.243-1.959.199-.575.257-.941.257-1.619 0-.679-.058-1.046-.258-1.619a4.9 4.9 0 0 0-1.288-2.003C18.358 1.357 16.902.876 15.4 1.044"/></svg>