<svg xmlns="http://www.w3.org/2000/svg" width="24" height="24" fill="none" stroke="currentColor" stroke-linecap="round" stroke-linejoin="round" stroke-width="2"><path fill="#000" fill-rule="evenodd" stroke="none" d="M7.67 2.055c-.228.085-.522.329-1.074.893-1.976 2.019-3.16 4.548-3.524 7.532-.068.553-.068 2.487 0 3.04.31 2.541 1.197 4.708 2.715 6.634.394.5 1.456 1.56 1.713 1.71.173.1.241.116.5.116.256 0 .328-.016.489-.111.349-.206.54-.578.499-.975-.031-.301-.168-.513-.526-.812-1.153-.966-2.348-2.816-2.894-4.482-.74-2.258-.74-4.942 0-7.2.546-1.666 1.741-3.516 2.894-4.482.167-.14.349-.331.404-.424.268-.457.1-1.083-.363-1.354-.217-.128-.612-.168-.833-.085m8.064-.019c-.608.156-.919.913-.6 1.458.055.093.237.284.404.424 1.153.966 2.348 2.816 2.894 4.482.739 2.255.739 4.945 0 7.2-.546 1.666-1.741 3.516-2.894 4.482-.358.299-.495.511-.526.812-.041.397.15.769.499.975.161.095.233.111.489.111.259 0 .327-.016.5-.116.257-.15 1.319-1.21 1.713-1.71 1.518-1.926 2.405-4.093 2.715-6.634.068-.553.068-2.487 0-3.04-.31-2.541-1.197-4.708-2.715-6.634-.388-.492-1.455-1.559-1.703-1.703a1.17 1.17 0 0 0-.776-.107"/></svg>