<svg xmlns="http://www.w3.org/2000/svg" width="24" height="24" fill="none" stroke="currentColor" stroke-linecap="round" stroke-linejoin="round" stroke-width="2"><path fill="#000" fill-rule="evenodd" stroke="none" d="M11.24 1.044a8.1 8.1 0 0 0-2.741.778A7.97 7.97 0 0 0 4.013 8.68c-.044 1.063.097 1.932.52 3.2 1.01 3.033 2.329 6.862 2.434 7.072.153.303.529.671.845.826.422.206.548.221 1.916.222h1.267l.013 1.153.012 1.154.121.196a.998.998 0 0 0 1.718 0l.121-.196.012-1.154.013-1.153h1.267c1.368-.001 1.494-.016 1.916-.222.316-.155.692-.523.845-.826.109-.216 1.704-4.855 2.466-7.172.466-1.415.596-2.522.44-3.728-.233-1.794-.986-3.368-2.213-4.625C16.032 1.692 13.685.83 11.24 1.044m1.924 2.073c1.026.205 1.951.661 2.786 1.375 1.342 1.146 2.116 2.952 2.038 4.748-.041.93.021.722-1.844 6.22l-.855 2.52H8.711L7.495 14.4c-1.232-3.631-1.381-4.113-1.454-4.719-.232-1.915.555-3.946 2.009-5.189a6.1 6.1 0 0 1 3.37-1.467c.346-.037 1.368.016 1.744.092m-1.806 1.944c-1.633.255-2.937 1.519-3.279 3.18-.12.585-.099 1 .065 1.267a.998.998 0 0 0 1.707.007c.092-.149.121-.257.15-.56.046-.482.121-.725.313-1.018.496-.756 1.347-1.089 2.209-.864.524.137 1.029.556 1.274 1.056.114.233.148.393.224 1.036.03.247.215.529.444.674a1 1 0 0 0 1.391-.331c.1-.163.121-.244.135-.52.03-.595-.207-1.448-.57-2.056-.587-.983-1.665-1.7-2.816-1.874a3.7 3.7 0 0 0-1.247.003m.337 5.996a1.04 1.04 0 0 0-.567.459l-.108.184-.012 1.144-.012 1.144-.212.048c-.269.06-.514.239-.655.478-.093.158-.109.231-.109.486 0 .256.016.328.111.489.061.103.173.236.25.294.265.202.349.213 1.619.213s1.354-.011 1.619-.213c.077-.058.189-.191.25-.294.095-.161.111-.233.111-.489 0-.255-.016-.328-.109-.486a1.04 1.04 0 0 0-.655-.478l-.212-.048-.012-1.144-.012-1.144-.108-.184a1.005 1.005 0 0 0-1.177-.459"/></svg>