<svg xmlns="http://www.w3.org/2000/svg" width="24" height="24" fill="none" stroke="currentColor" stroke-linecap="round" stroke-linejoin="round" stroke-width="2"><path fill="#000" fill-rule="evenodd" stroke="none" d="M10.643 1.067c-.387.141-.675.599-.633 1.007.01.102.113.428.228.725.193.496.206.55.165.687-.061.202-.19.293-.521.368-.888.201-1.622.943-1.823 1.843-.051.229-.063.45-.052.954.013.649.014.657.134.852a.998.998 0 0 0 1.718 0c.117-.191.122-.214.141-.802.027-.817.014-.797.682-.997 1.147-.342 1.898-1.507 1.722-2.673-.06-.4-.466-1.463-.638-1.671-.247-.299-.748-.43-1.123-.293m4.052-.012a1.05 1.05 0 0 0-.567.461c-.091.156-.108.23-.108.484 0 .257.016.327.113.492.518.882 1.865.526 1.865-.492a.99.99 0 0 0-.535-.888 1.17 1.17 0 0 0-.768-.057m5.825.385c-1.401.477-1.666.586-2.031.834a3.94 3.94 0 0 0-1.705 3.524l.027.391-.14.152-.139.152-.596.031c-.436.021-.658.051-.827.111-.843.297-1.487.909-1.754 1.668C13.262 8.57 13 9.834 13 10.02c0 .376.299.791.66.914a.97.97 0 0 0 .974-.169c.226-.179.304-.372.462-1.137.204-.992.292-1.079 1.144-1.122.275-.014.599-.052.72-.085.8-.215 1.454-.83 1.743-1.641.056-.155.077-.376.094-.98l.023-.78.145-.3a2.6 2.6 0 0 1 .299-.476c.288-.331.518-.441 1.899-.905 1.414-.475 1.54-.539 1.711-.87.34-.661-.079-1.397-.826-1.455-.208-.016-.342.022-1.528.426m-16.825.615a1.05 1.05 0 0 0-.567.461c-.091.156-.108.23-.108.484 0 .257.016.327.113.492.518.882 1.865.526 1.865-.492a.99.99 0 0 0-.535-.888 1.17 1.17 0 0 0-.768-.057m18 5a1.05 1.05 0 0 0-.567.461c-.091.156-.108.23-.108.484 0 .257.016.327.113.492.518.882 1.865.526 1.865-.492a.99.99 0 0 0-.535-.888 1.17 1.17 0 0 0-.768-.057M6.52 9.721c-.664.079-1.218.432-1.545.985a4.5 4.5 0 0 0-.251.62c-.085.25-.951 2.695-1.925 5.434S1.02 21.824 1.01 21.926c-.06.583.482 1.124 1.064 1.064.229-.023 10.995-3.833 11.246-3.979.462-.269.829-.813.944-1.399.221-1.123-.409-2.762-1.666-4.332-.411-.514-1.326-1.432-1.843-1.849-1.513-1.22-3.066-1.848-4.235-1.71m13.86 1.864c-.432.085-.552.119-.76.214a2.6 2.6 0 0 0-.922.732c-.244.324-.316.472-.439.896-.156.54-.168.548-.91.577-.335.012-.66.044-.722.07a1.1 1.1 0 0 0-.499.442c-.091.156-.108.23-.108.484 0 .256.016.328.111.489.125.213.318.375.539.454.218.078 1.312.074 1.65-.005.455-.107.823-.318 1.18-.677.361-.363.525-.651.653-1.154.092-.357.158-.449.369-.512.137-.041.19-.029.683.166.294.116.619.22.721.23.549.054 1.074-.429 1.074-.991 0-.242-.119-.521-.299-.701-.137-.137-.276-.21-.784-.41-.713-.28-1.185-.373-1.537-.304m-12.98.201c.314.086 1.042.447 1.44.715.95.637 2.019 1.703 2.641 2.632.569.849.966 1.934.778 2.122-.084.085-.18.082-.559-.015-.382-.098-1.026-.401-1.47-.691-1.689-1.105-3.302-3.146-3.509-4.441-.061-.381-.022-.443.252-.409a4 4 0 0 1 .427.087m-1.519 3.235c.728 1.08 1.988 2.34 3.088 3.089l.349.238-2.8.991c-1.541.546-2.811.981-2.824.968s.413-1.252.947-2.755c1.115-3.14 1.004-2.832 1.022-2.832.008 0 .106.135.218.301m15.814 4.034a1.05 1.05 0 0 0-.567.461c-.091.156-.108.23-.108.484 0 .257.016.327.113.492.518.882 1.865.526 1.865-.492a.99.99 0 0 0-.535-.888 1.17 1.17 0 0 0-.768-.057"/></svg>