<svg xmlns="http://www.w3.org/2000/svg" width="24" height="24" fill="none" stroke="currentColor" stroke-linecap="round" stroke-linejoin="round" stroke-width="2"><path fill="#000" fill-rule="evenodd" stroke="none" d="M6.477 3.073c-.671.176-1.239.75-1.417 1.435C5.008 4.707 5 5.691 5 12c0 7.922-.013 7.46.225 7.93.136.269.576.709.845.845.409.207.562.225 1.93.225s1.521-.018 1.93-.225c.266-.135.708-.575.841-.838.243-.478.229-.008.228-7.923 0-7.858.01-7.482-.218-7.931-.23-.455-.759-.88-1.258-1.01-.389-.101-2.657-.101-3.046 0m8 0c-.671.176-1.239.75-1.417 1.435C13.008 4.707 13 5.691 13 12c0 7.922-.013 7.46.225 7.93.136.269.576.709.845.845.409.207.562.225 1.93.225s1.521-.018 1.93-.225c.266-.135.708-.575.841-.838.243-.478.229-.008.228-7.923 0-7.858.01-7.482-.218-7.931-.23-.455-.759-.88-1.258-1.01-.389-.101-2.657-.101-3.046 0M9 12v7H7V5h2zm8 0v7h-2V5h2z"/></svg>