<svg xmlns="http://www.w3.org/2000/svg" width="24" height="24" fill="none" stroke="currentColor" stroke-linecap="round" stroke-linejoin="round" stroke-width="2"><path fill="#000" fill-rule="evenodd" stroke="none" d="M10.499 1.04a3.05 3.05 0 0 0-2.385 2.12c-.135.434-.135 1.246 0 1.68a3.09 3.09 0 0 0 2.046 2.046c.434.135 1.246.135 1.68 0a3.09 3.09 0 0 0 2.046-2.046c.135-.434.135-1.246 0-1.68-.305-.981-1.076-1.753-2.025-2.031-.361-.106-1.029-.149-1.362-.089m.811 2.021c.378.112.69.537.69.94 0 .33-.216.695-.516.871-.156.091-.23.108-.484.108s-.328-.017-.484-.108c-.581-.342-.683-1.098-.212-1.569q.417-.418 1.006-.242m6.189 1.979a3.05 3.05 0 0 0-2.385 2.12c-.135.434-.135 1.246 0 1.68a3.09 3.09 0 0 0 2.046 2.046c.434.135 1.246.135 1.68 0 .59-.184 1.053-.495 1.481-.995.242-.282.441-.652.565-1.051.135-.434.135-1.246 0-1.68-.305-.981-1.076-1.753-2.025-2.031-.361-.106-1.029-.149-1.362-.089m.811 2.021c.378.112.69.537.69.94 0 .33-.216.695-.516.871-.156.091-.23.108-.484.108s-.328-.017-.484-.108c-.581-.342-.683-1.098-.212-1.569q.417-.418 1.006-.242M4.79 9.062q-1.465.228-2.553 1.362c-.762.794-1.162 1.74-1.225 2.899-.093 1.688.907 3.407 2.427 4.177.121.061.449.196.73.3.651.242.893.388 1.268.762.356.354.539.665.786 1.333.302.816.603 1.302 1.123 1.812a4.49 4.49 0 0 0 5.154.816c.625-.307 1.178-.773 1.642-1.383.267-.352.598-1.053.727-1.54l.111-.42v-2.46c0-2.423-.001-2.466-.093-2.88-.269-1.224-.78-2.182-1.618-3.035a5.86 5.86 0 0 0-3.705-1.766c-.618-.06-4.355-.042-4.774.023m4.815 1.996c1.469.222 2.705 1.266 3.192 2.697.178.524.203.89.202 3.005 0 2.235-.009 2.319-.281 2.871-.12.245-.239.408-.451.621a2.473 2.473 0 0 1-3.527.009c-.312-.312-.475-.59-.662-1.124-.305-.868-.633-1.412-1.197-1.982-.563-.57-1.146-.926-2.018-1.232-.526-.185-.812-.352-1.103-.644-.501-.503-.736-1.056-.738-1.739-.001-.444.055-.722.218-1.08a2.53 2.53 0 0 1 1.725-1.398c.379-.082 4.099-.085 4.64-.004m9.894 1.982a3.05 3.05 0 0 0-2.385 2.12c-.135.434-.135 1.246 0 1.68a3.09 3.09 0 0 0 2.046 2.046c.434.135 1.246.135 1.68 0a3.09 3.09 0 0 0 2.046-2.046c.135-.434.135-1.246 0-1.68-.305-.981-1.076-1.753-2.025-2.031-.361-.106-1.029-.149-1.362-.089m.835 2.024c.364.124.666.549.666.937 0 .33-.216.695-.516.871-.156.091-.23.108-.484.108s-.328-.017-.484-.108c-.579-.341-.683-1.098-.215-1.566a.96.96 0 0 1 1.033-.242"/></svg>