<svg xmlns="http://www.w3.org/2000/svg" width="24" height="24" fill="none" stroke="currentColor" stroke-linecap="round" stroke-linejoin="round" stroke-width="2"><path fill="#000" fill-rule="evenodd" stroke="none" d="M2.62 1.039a1.98 1.98 0 0 0-1.097.625 1.98 1.98 0 0 0-.513 1.435c.013.195.518 2.181 1.647 6.481.895 3.41 1.68 6.371 1.744 6.58.133.432.299.703.6.973.405.364.437.373 3.567 1l2.852.572-.013.197c-.018.278.084.722.234 1.023.106.214.294.422 1.153 1.283.949.95 1.048 1.038 1.326 1.169.592.28 1.177.279 1.768-.002.28-.134.413-.26 3.32-3.167 2.946-2.946 3.032-3.036 3.169-3.328a1.96 1.96 0 0 0-.003-1.768c-.127-.267-.227-.38-1.166-1.314-1.264-1.257-1.411-1.349-2.186-1.37l-.318-.008-.571-2.852c-.626-3.128-.636-3.162-.998-3.565a1.9 1.9 0 0 0-.728-.52c-.111-.044-3.088-.838-6.614-1.765C3.109.961 3.043.946 2.62 1.039m7.674 3.878c2.922.768 5.323 1.407 5.335 1.419.013.012.307 1.44.654 3.173l.632 3.151-2.128 2.127-2.127 2.128-3.151-.632c-1.733-.347-3.161-.641-3.173-.654-.026-.026-2.819-10.64-2.803-10.655.006-.006 1.075 1.055 2.376 2.358L8.274 9.7l-.125.36c-.116.335-.125.399-.127.92-.002.479.012.603.092.86a3.09 3.09 0 0 0 2.046 2.046c.434.135 1.246.135 1.68 0a3.09 3.09 0 0 0 2.046-2.046c.135-.434.135-1.246 0-1.68a3.07 3.07 0 0 0-2.025-2.035c-.273-.083-.403-.098-.861-.098-.465 0-.584.014-.86.101a8 8 0 0 0-.38.126c-.043.019-.75-.664-2.44-2.354a198 198 0 0 1-2.36-2.38c.011 0 2.411.629 5.334 1.397m1.016 5.144c.378.112.69.537.69.94 0 .33-.216.695-.516.871-.156.091-.23.108-.484.108s-.328-.017-.484-.108c-.581-.342-.683-1.098-.212-1.569q.417-.418 1.006-.242m8.49 4.159.78.78-2.79 2.79L15 20.58l-.79-.79-.79-.79 2.78-2.78a279 279 0 0 1 2.8-2.78c.012 0 .372.351.8.78"/></svg>