<svg xmlns="http://www.w3.org/2000/svg" width="24" height="24" fill="none" stroke="currentColor" stroke-linecap="round" stroke-linejoin="round" stroke-width="2"><path fill="#000" fill-rule="evenodd" stroke="none" d="M18.6 1.044c-.541.083-1.253.379-1.66.691-.402.308-1.095.994-7.433 7.361L2.77 15.864l-.182.378c-.128.268-.382 1.041-.874 2.658-.667 2.191-.694 2.293-.693 2.62 0 .431.126.731.432 1.032s.602.425 1.027.426c.328.002.421-.023 2.62-.692 2.661-.81 2.823-.876 3.384-1.38.207-.186 3.365-3.332 7.018-6.992 5.074-5.083 6.686-6.72 6.825-6.934.496-.759.708-1.521.661-2.372-.091-1.67-1.251-3.066-2.901-3.492-.363-.094-1.109-.13-1.487-.072m.968 2.001c.502.107.995.485 1.223.939.275.547.275 1.12 0 1.676-.104.212-.922 1.044-6.922 7.048-4.781 4.783-6.858 6.836-6.986 6.904-.209.11-3.554 1.13-3.59 1.095-.024-.025.94-3.248 1.055-3.527.049-.121 1.733-1.828 6.909-7.006 7.294-7.298 6.97-6.99 7.483-7.118.258-.063.561-.068.828-.011"/></svg>