<svg xmlns="http://www.w3.org/2000/svg" width="24" height="24" fill="none" stroke="currentColor" stroke-linecap="round" stroke-linejoin="round" stroke-width="2"><path fill="#000" fill-rule="evenodd" stroke="none" d="M18.6 1.044c-.541.083-1.253.379-1.66.691-.402.308-1.095.994-7.433 7.361L2.77 15.864l-.182.378c-.128.268-.382 1.041-.874 2.658-.667 2.191-.694 2.293-.693 2.62 0 .431.126.731.432 1.032s.602.425 1.027.426c.328.002.421-.023 2.62-.692 2.661-.81 2.823-.876 3.384-1.38.207-.186 3.365-3.332 7.018-6.992 5.074-5.083 6.686-6.72 6.825-6.934.496-.759.708-1.521.661-2.372-.091-1.67-1.251-3.066-2.901-3.492-.363-.094-1.109-.13-1.487-.072m.968 2.001c.502.107.995.485 1.223.939a1.8 1.8 0 0 1-.001 1.676c-.094.189-.296.418-.954 1.08l-.834.84-1.291-1.291-1.291-1.291.84-.834c.878-.871 1.051-1.001 1.48-1.108.258-.063.561-.068.828-.011M16.3 7.72 17.58 9l-5.258 5.258c-3.663 3.663-5.313 5.287-5.44 5.354-.208.11-3.553 1.13-3.589 1.095-.024-.025.94-3.25 1.055-3.527.05-.12 1.377-1.473 5.348-5.45C12.602 8.82 14.988 6.44 15 6.44c.011 0 .596.576 1.3 1.28"/></svg>