<svg xmlns="http://www.w3.org/2000/svg" width="24" height="24" fill="none" stroke="currentColor" stroke-linecap="round" stroke-linejoin="round" stroke-width="2"><path fill="#000" fill-rule="evenodd" stroke="none" d="M1.67 1.061c-.222.081-.42.248-.542.455-.092.156-.108.229-.107.484 0 .212.022.341.074.44.04.077 1.74 1.809 3.778 3.85l3.706 3.709-2.824 2.831c-1.553 1.556-2.882 2.917-2.953 3.023-.252.374-.4.788-1.088 3.047-.666 2.187-.694 2.294-.694 2.62 0 .298.015.372.124.6q.238.495.736.735c.228.11.301.125.6.125.326 0 .434-.029 2.62-.694 2.54-.773 2.816-.882 3.289-1.294.159-.139 1.48-1.455 2.937-2.925l2.648-2.673 3.723 3.719c2.048 2.045 3.786 3.752 3.863 3.792.099.052.228.074.44.074.258.001.327-.015.492-.112.476-.28.647-.9.373-1.359-.055-.092-4.65-4.715-10.212-10.273C3.3 1.889 2.525 1.125 2.343 1.065a1 1 0 0 0-.673-.004m16.93-.017c-.578.089-1.24.374-1.74.749-.132.1-1.271 1.208-2.531 2.464C11.86 6.716 11.84 6.74 11.84 7.138c.001.333.069.502.294.728.226.225.397.294.726.293.355-.001.497-.101 1.351-.951l.79-.787L16.29 7.71l1.289 1.289-.825.83c-.888.895-.926.951-.923 1.348a.92.92 0 0 0 .329.716.96.96 0 0 0 1.006.206c.154-.053.514-.396 2.587-2.47 1.395-1.396 2.477-2.51 2.571-2.649a3.8 3.8 0 0 0-.651-5.039 3.74 3.74 0 0 0-1.586-.825c-.363-.094-1.109-.13-1.487-.072m.968 2.001c.502.107.995.485 1.223.939a1.8 1.8 0 0 1-.001 1.676c-.094.189-.296.418-.954 1.08l-.834.84-1.291-1.291-1.291-1.291.84-.834c.878-.871 1.051-1.001 1.48-1.108.258-.063.561-.068.828-.011M11.3 12.72 12.58 14l-2.758 2.758c-1.885 1.886-2.815 2.788-2.94 2.854-.207.109-3.553 1.13-3.588 1.095-.03-.03.974-3.357 1.076-3.567.051-.105 1.033-1.116 2.843-2.93 1.522-1.523 2.775-2.77 2.787-2.77.011 0 .596.576 1.3 1.28"/></svg>