<svg xmlns="http://www.w3.org/2000/svg" width="24" height="24" fill="none" stroke="currentColor" stroke-linecap="round" stroke-linejoin="round" stroke-width="2"><path fill="#000" fill-rule="evenodd" stroke="none" d="M17.42 2.029a3.2 3.2 0 0 0-1.25.475c-.268.173-12.465 12.331-12.757 12.716-.326.43-.435.712-.938 2.432-.467 1.599-.481 1.657-.461 1.944a1.5 1.5 0 0 0 1.396 1.39c.279.02.352.002 1.89-.447 1.587-.463 1.995-.611 2.367-.86C7.907 19.518 20 7.45 20.324 7.048a3.2 3.2 0 0 0 .581-1.128c.09-.331.101-1.199.019-1.52-.308-1.208-1.287-2.133-2.479-2.341a3.8 3.8 0 0 0-1.025-.03m.933 2.087c.241.123.38.258.508.491.1.182.117.257.117.513-.001.408-.093.576-.583 1.065l-.396.394-.789-.789-.789-.789.359-.364c.382-.386.567-.527.786-.594.191-.058.604-.02.787.073M15.8 7.22l.78.78-5.02 5.02c-2.955 2.956-5.078 5.048-5.16 5.087-.136.065-2.128.658-2.147.64-.02-.02.58-2.018.645-2.148C4.957 16.481 14.942 6.44 15 6.44c.012 0 .371.351.8.78m-4.105 11.837a1.04 1.04 0 0 0-.567.459c-.091.156-.108.23-.108.484 0 .256.016.328.111.489.125.213.318.375.539.454s9.438.079 9.66 0 .414-.241.539-.454c.095-.161.111-.233.111-.489 0-.254-.017-.328-.108-.484a1.02 1.02 0 0 0-.582-.461c-.261-.079-9.344-.077-9.595.002"/></svg>