<svg xmlns="http://www.w3.org/2000/svg" width="24" height="24" fill="none" stroke="currentColor" stroke-linecap="round" stroke-linejoin="round" stroke-width="2"><path fill="#000" fill-rule="evenodd" stroke="none" d="M11.429 1.061a3 3 0 0 0-.964.368c-.091.057-2.001 1.418-4.245 3.026-4.468 3.201-4.543 3.26-4.85 3.85-.326.627-.441 1.342-.315 1.964.061.3 2.971 9.247 3.207 9.859.349.904 1.197 1.606 2.186 1.809.272.056.93.063 5.552.063 5.742 0 5.539.008 6.121-.235.705-.295 1.351-.945 1.616-1.625.199-.51 3.153-9.603 3.208-9.872.126-.621.011-1.337-.315-1.963-.307-.591-.379-.647-4.898-3.886-2.27-1.628-4.259-3.026-4.42-3.107-.528-.269-1.269-.367-1.883-.251m1.004 2.051c.18.094 8.101 5.772 8.261 5.921.202.19.284.395.281.707-.002.258-.125.652-1.53 4.92-.84 2.552-1.568 4.721-1.618 4.82a1.05 1.05 0 0 1-.578.478C17.15 19.986 15.391 20 12 20s-5.15-.014-5.249-.042a1.05 1.05 0 0 1-.578-.478c-.05-.099-.778-2.268-1.618-4.82-1.406-4.27-1.528-4.662-1.53-4.92-.003-.312.079-.517.281-.707.099-.092 7.9-5.702 8.179-5.881.258-.166.674-.183.948-.04"/></svg>