<svg xmlns="http://www.w3.org/2000/svg" width="24" height="24" fill="none" stroke="currentColor" stroke-linecap="round" stroke-linejoin="round" stroke-width="2"><path fill="#000" fill-rule="evenodd" stroke="none" d="M11.477 3.073c-.671.176-1.239.75-1.417 1.435a2.07 2.07 0 0 0 .165 1.422c.136.269.576.709.845.845a2.05 2.05 0 0 0 1.86 0c.266-.135.708-.575.841-.838a2.05 2.05 0 0 0 .169-1.408 1.8 1.8 0 0 0-.475-.876 1.98 1.98 0 0 0-1.988-.58m-5.81 3.992c-.557.171-.821.858-.541 1.404.186.361.184.36 3.15 1.35l2.724.908v3.032l-1.485 2.972c-1.626 3.255-1.593 3.173-1.454 3.591.128.385.533.678.939.678.08 0 .233-.03.34-.066.375-.128.427-.211 1.58-2.526.583-1.17 1.069-2.128 1.08-2.128s.497.958 1.08 2.128c1.153 2.315 1.205 2.398 1.58 2.526.107.036.26.066.34.066.406 0 .811-.293.939-.678.139-.418.172-.336-1.454-3.591L13 13.759v-3.032l2.724-.908c2.966-.99 2.964-.989 3.15-1.35.335-.653-.068-1.381-.808-1.457-.198-.02-.411.044-3.139.953L12 8.939 9.088 7.97Q6.177 7 6.018 7.003a1.5 1.5 0 0 0-.351.062"/></svg>