<svg xmlns="http://www.w3.org/2000/svg" width="24" height="24" fill="none" stroke="currentColor" stroke-linecap="round" stroke-linejoin="round" stroke-width="2"><path fill="#000" fill-rule="evenodd" stroke="none" d="M7.477 2.072A2.05 2.05 0 0 0 6.06 3.508c-.046.177-.06.486-.06 1.36V6H4.946c-1.149 0-1.302.022-1.564.221-.08.061-.195.194-.254.295-.091.156-.108.23-.108.484 0 .256.016.328.111.489.061.103.173.236.25.294.262.2.357.213 1.529.215L6 8v2H4.946c-1.149 0-1.302.022-1.564.221-.08.061-.195.194-.254.295-.091.156-.108.23-.108.484 0 .256.016.328.111.489.061.103.173.236.25.294.261.2.357.213 1.528.215l1.09.002.01 4.653.011 4.653.121.197a.998.998 0 0 0 1.718 0l.121-.197.011-2.65.011-2.65 2.409-.018c2.506-.018 2.591-.024 3.309-.205 1.908-.483 3.619-1.845 4.499-3.581l.102-.202.93-.002c.999-.002 1.112-.019 1.368-.215.077-.058.189-.191.25-.294.095-.161.111-.233.111-.489 0-.254-.017-.328-.108-.484-.242-.412-.516-.516-1.359-.516h-.594l.031-.17c.039-.22.039-1.44 0-1.66L18.919 8l.631-.002q.63-.001.78-.055c.221-.079.414-.241.539-.454.095-.161.111-.233.111-.489 0-.254-.017-.328-.108-.484a1.2 1.2 0 0 0-.254-.295C20.364 6.027 20.191 6 19.214 6h-.893l-.102-.202c-.88-1.736-2.593-3.1-4.499-3.581-.71-.179-.874-.188-3.48-.202-2.285-.012-2.523-.008-2.763.057m5.075 1.971c.883.096 1.63.385 2.38.92.329.234 1.028.914 1.028.999 0 .024-1.497.038-3.98.038H8V4h2.082c1.2 0 2.246.018 2.47.043m4.395 4.267c.042.396.042.984 0 1.38l-.034.31H8V8h8.913zm-.987 3.734c0 .083-.858.896-1.148 1.088a5.6 5.6 0 0 1-1.812.772c-.264.062-.584.072-2.65.085L8 14.004V12h3.98c2.892 0 3.98.012 3.98.044"/></svg>