<svg xmlns="http://www.w3.org/2000/svg" width="24" height="24" fill="none" stroke="currentColor" stroke-linecap="round" stroke-linejoin="round" stroke-width="2"><path fill="#000" fill-rule="evenodd" stroke="none" d="M6.438 3.044a3.96 3.96 0 0 0-3.012 2.14c-.286.578-.454 1.332-.416 1.86.044.618.555 1.03 1.165.939.378-.057.76-.438.8-.798.076-.682.11-.845.23-1.097.25-.523.796-.939 1.372-1.045A7 7 0 0 1 7.407 5h.592l.011 7.653.01 7.653.121.197c.068.11.205.253.311.325.471.316 1.102.171 1.407-.325l.121-.197.01-7.653L10.001 5H14v6.175c0 5.249.009 6.225.059 6.51.304 1.739 1.624 3.021 3.375 3.277.474.069.835.035 1.065-.099.749-.439.619-1.559-.209-1.808a1.7 1.7 0 0 0-.386-.057c-.891-.01-1.7-.695-1.861-1.575-.03-.164-.043-2.127-.043-6.33V5l2.09-.002c1.641-.001 2.122-.013 2.24-.055.221-.079.414-.241.539-.454.095-.161.111-.233.111-.489 0-.254-.017-.328-.108-.484a1.02 1.02 0 0 0-.582-.461c-.152-.046-1.311-.054-6.886-.05-3.687.003-6.822.02-6.966.039"/></svg>