<svg xmlns="http://www.w3.org/2000/svg" width="24" height="24" fill="none" stroke="currentColor" stroke-linecap="round" stroke-linejoin="round" stroke-width="2"><path fill="#000" fill-rule="evenodd" stroke="none" d="M7.72.541a7.92 7.92 0 0 0-5.984 4.408c-.372.77-.664 1.842-.727 2.671C.993 7.84.988 10.846 1 14.3l.021 6.28.094.28c.329.989 1.069 1.722 2.045 2.026l.3.094h17.08l.3-.094c.976-.304 1.714-1.035 2.046-2.026l.094-.28.012-4.7c.01-4.092.003-4.747-.051-5.066A4.57 4.57 0 0 0 18.436 7c-.297 0-.796-.131-1.111-.29-.307-.156-.744-.549-.942-.848a4 4 0 0 1-.285-.549 7.65 7.65 0 0 0-1.797-2.626C13.15 1.578 11.839.902 10.243.593 9.684.484 8.285.456 7.72.541m2.126 2.018c.591.102.985.232 1.574.519a5.75 5.75 0 0 1 2.115 1.748c.292.389.506.774.785 1.414.719 1.651 2.367 2.756 4.12 2.761.416.001.807.091 1.16.267.417.209.923.715 1.132 1.132.224.45.267.722.267 1.73L21 13H3.005l-.012-2.41c-.007-1.326 0-2.581.016-2.79.089-1.189.57-2.329 1.393-3.301.699-.826 1.796-1.529 2.818-1.805a6.3 6.3 0 0 1 2.626-.135M5.008 16.653l.012 1.653.121.197a.998.998 0 0 0 1.718 0l.121-.197.012-1.653L7.003 15h1.994l.011 1.653.012 1.653.121.197a.998.998 0 0 0 1.718 0l.121-.197.012-1.653.011-1.653h1.994l.011 1.653.012 1.653.121.197a.998.998 0 0 0 1.718 0l.121-.197.012-1.653.011-1.653h1.994l.011 1.653.012 1.653.121.197a.998.998 0 0 0 1.718 0l.121-.197.012-1.653.011-1.653H21v2.554c0 2.771 0 2.774-.221 3.064-.061.08-.194.195-.295.254l-.184.108H3.7l-.184-.108a1.2 1.2 0 0 1-.291-.249c-.229-.3-.225-.25-.225-3.048V15h1.997z"/></svg>