<svg xmlns="http://www.w3.org/2000/svg" width="24" height="24" fill="none" stroke="currentColor" stroke-linecap="round" stroke-linejoin="round" stroke-width="2"><path fill="#000" fill-rule="evenodd" stroke="none" d="M7.54 1.521c-.728.088-1.108.159-1.837.343-.677.172-.813.238-1.126.552a1.97 1.97 0 0 0-.059 2.715c.296.323.453.413 1.242.711 1.608.608 2.837 1.229 4.211 2.128.408.267.546.378.531.425-.044.14-.102.503-.102.641s-.16.304-3.763 3.904c-2.069 2.068-3.849 3.868-3.955 4-.265.33-.46.701-.569 1.08-.132.459-.132 1.261 0 1.72.29 1.013 1.173 1.884 2.187 2.159.132.036.43.076.662.088a3.03 3.03 0 0 0 1.861-.487c.156-.101 1.555-1.469 4.118-4.027 3.707-3.7 3.887-3.873 4.024-3.873.136 0 .5-.058.638-.101.043-.014.129.08.285.311a20.6 20.6 0 0 1 2.27 4.43c.28.749.398.955.708 1.238a1.96 1.96 0 0 0 2.736-.074c.144-.145.294-.332.332-.415.09-.193.357-1.252.443-1.759a14.3 14.3 0 0 0 .004-4.59 13.9 13.9 0 0 0-1.219-3.722l-.211-.421.195-.259c.498-.658.577-1.393.228-2.126-.13-.274-.235-.388-1.666-1.817-1.429-1.426-1.548-1.534-1.829-1.671-.346-.169-.715-.226-1.155-.179-.345.037-.631.158-.96.407l-.257.194-.623-.299c-1.862-.893-3.765-1.313-5.898-1.303-.547.003-1.058.03-1.446.077M10.306 3.5c.974.108 1.918.329 2.769.646.385.143.882.358.921.396.024.025-2.16 2.218-2.209 2.218-.019 0-.226-.132-.461-.294-1.348-.928-3.225-1.899-4.746-2.454-.532-.194-.505-.173-.3-.235.945-.288 2.794-.415 4.026-.277M18.3 5.72 19.58 7l-2.29 2.29L15 11.58l-1.29-1.29L12.42 9l2.28-2.28A188 188 0 0 1 17 4.44c.011 0 .596.576 1.3 1.28m1.29 4.55c.483 1.084.811 2.357.932 3.619.102 1.067.001 2.57-.243 3.621-.087.373-.127.423-.177.22-.063-.251-.611-1.555-.942-2.238a23 23 0 0 0-1.705-2.945 3 3 0 0 1-.215-.34c0-.034 2.171-2.207 2.204-2.207.014 0 .079.121.146.27M9.43 16.151c-2.677 2.677-3.698 3.674-3.829 3.738-.537.261-1.204.029-1.481-.514-.129-.251-.14-.708-.023-.955.051-.109 1.241-1.328 3.739-3.83l3.663-3.67.791.79.79.79z"/></svg>