<svg xmlns="http://www.w3.org/2000/svg" width="24" height="24" fill="none" stroke="currentColor" stroke-linecap="round" stroke-linejoin="round" stroke-width="2"><path fill="#000" fill-rule="evenodd" stroke="none" d="M1.67 3.061c-.222.081-.42.248-.542.455-.092.156-.108.229-.107.484 0 .212.022.341.074.44.04.077 1.066 1.135 2.279 2.35L5.579 9H3.736c-2.001 0-2.073.007-2.354.221-.08.061-.195.194-.254.295-.091.156-.108.23-.108.484 0 .256.016.328.111.489.125.213.318.375.539.454.12.043.781.054 3.35.055l3.2.001.2-.093c.237-.11.425-.311.516-.552.06-.158.065-.48.055-3.414L8.98 3.7l-.109-.186a1.01 1.01 0 0 0-1.742 0L7.02 3.7l-.011 1.937-.012 1.938-2.228-2.222C2.755 3.346 2.521 3.124 2.343 3.065a1 1 0 0 0-.673-.004m10.025.995c-.23.073-.439.243-.567.46-.091.156-.108.23-.108.484 0 .256.016.328.111.489.125.213.318.375.539.454.121.043.854.054 3.793.055 4.088.002 3.912-.01 4.216.285.307.299.299.24.321 2.24l.02 1.783.121.197a.998.998 0 0 0 1.718 0l.121-.197V8.383c0-1.905-.001-1.926-.094-2.223a3.09 3.09 0 0 0-2.025-2.038l-.321-.101-3.84-.009c-3.074-.006-3.873.002-4.005.044m-9 9.001a1.04 1.04 0 0 0-.567.459l-.108.184v1.42c0 1.377.003 1.429.094 1.72a3.11 3.11 0 0 0 2.026 2.045c.273.09.324.092 2.126.106 1.219.009 1.9 0 2.004-.028.228-.062.468-.251.597-.471.097-.165.113-.235.113-.492 0-.254-.017-.328-.108-.484a1.14 1.14 0 0 0-.499-.445c-.082-.036-.605-.056-1.893-.07L4.7 16.98l-.184-.108a1.14 1.14 0 0 1-.445-.499c-.034-.078-.056-.508-.07-1.393L3.98 13.7l-.108-.184a1.005 1.005 0 0 0-1.177-.459m9.782.016c-.671.176-1.239.75-1.417 1.435-.05.192-.06.672-.06 2.992 0 3.001-.001 2.984.225 3.43.136.269.576.709.845.845.459.233.29.225 4.93.225s4.471.008 4.93-.225c.266-.135.708-.575.841-.838.229-.452.229-.448.228-3.423 0-2.956-.004-3.009-.218-3.431-.135-.267-.484-.634-.764-.802-.478-.288-.266-.276-5.017-.276-3.898 0-4.282.005-4.523.068M21 17.5V20h-8v-5h8z"/></svg>