<svg xmlns="http://www.w3.org/2000/svg" width="24" height="24" fill="none" stroke="currentColor" stroke-linecap="round" stroke-linejoin="round" stroke-width="2"><path fill="#000" fill-rule="evenodd" stroke="none" d="M3.499 3.043C2.38 3.232 1.461 4.048 1.114 5.16l-.094.3v11.12l.105.307c.171.5.371.817.771 1.217.401.4.718.601 1.217.771l.307.104 2.348.013c1.551.008 2.401-.002 2.504-.03.226-.061.466-.251.595-.47.097-.165.113-.235.113-.492 0-.254-.017-.328-.108-.484a1.2 1.2 0 0 0-.254-.295C8.333 17.004 8.289 17 5.981 17c-2.377 0-2.367.001-2.651-.275a1.4 1.4 0 0 1-.232-.307c-.076-.154-.078-.283-.089-5.336-.012-5.846-.031-5.453.294-5.778C3.632 4.975 2.949 5 11.5 5c8.494 0 7.864-.022 8.179.283.307.299.299.24.321 2.24l.02 1.783.121.197a.998.998 0 0 0 1.718 0l.121-.197V7.383c0-1.905-.001-1.926-.094-2.223a3.09 3.09 0 0 0-2.025-2.039l-.321-.101-7.92-.006c-4.356-.003-8.011.01-8.121.029m10 8.999c-1.122.192-2.038 1.006-2.385 2.118-.093.298-.094.313-.094 2.34s.001 2.042.094 2.34a3.09 3.09 0 0 0 2.046 2.046l.3.094h7.08l.3-.094a3.09 3.09 0 0 0 2.046-2.046c.093-.298.094-.313.094-2.34s-.001-2.042-.094-2.34a3.09 3.09 0 0 0-2.025-2.038l-.321-.101-3.42-.007c-1.881-.003-3.511.009-3.621.028m6.811 2.019c.279.083.546.35.629.629.085.286.09 3.32.006 3.6a1.02 1.02 0 0 1-.461.582l-.184.108h-6.6l-.184-.108a1.05 1.05 0 0 1-.458-.556c-.087-.249-.085-3.33.003-3.626.079-.269.351-.547.612-.627.288-.088 6.34-.091 6.637-.002"/></svg>