<svg xmlns="http://www.w3.org/2000/svg" width="24" height="24" fill="none" stroke="currentColor" stroke-linecap="round" stroke-linejoin="round" stroke-width="2"><path fill="#000" fill-rule="evenodd" stroke="none" d="M18.354 4.063c-.861.155-1.796.691-2.518 1.442l-.264.275-.376-.09c-1.573-.377-3.491-.372-5.228.012-1.064.236-2.379.77-3.168 1.287-1.407.922-2.373 2.286-2.679 3.781-.043.213-.055.23-.157.23-.194 0-.477-.122-.634-.275-.28-.271-.305-.368-.329-1.245-.02-.76-.024-.785-.13-.966a1.01 1.01 0 0 0-1.742 0L1.02 8.7l.002.94c.002.901.006.953.105 1.247.166.496.368.815.769 1.217.542.541 1.104.816 1.797.879l.304.028.019.164c.116.979.186 1.284.417 1.817.258.591.683 1.173 1.237 1.69l.31.289.02 1.665.02 1.664.111.189c.125.213.318.375.539.454.219.078 4.441.078 4.66 0 .221-.079.414-.241.539-.454.107-.182.111-.212.124-.839l.014-.65h.986l.014.65c.013.627.017.657.124.839.125.213.318.375.539.454.219.078 4.441.078 4.66 0 .221-.079.414-.241.539-.454l.111-.189.012-1.847.011-1.848.349-.23c.405-.269.967-.818 1.168-1.142l.14-.225.82-.014c.816-.014.821-.015 1.012-.127a1.07 1.07 0 0 0 .469-.592c.027-.099.038-.938.03-2.364L22.98 9.7l-.108-.184C22.627 9.099 22.359 9 21.477 9h-.631l-.048-.15c-.089-.278-.326-.687-.561-.967l-.233-.278-.012-1.452L19.98 4.7l-.108-.184c-.271-.461-.726-.597-1.518-.453m-.27 4.337c.036.077.204.293.375.48.383.418.494.645.541 1.101.041.393.152.628.381.802.237.181.392.213 1.029.215L21 11v2h-.573c-.428 0-.622.017-.767.066-.285.097-.493.328-.653.724-.212.525-.572.862-1.359 1.27-.161.084-.345.216-.409.294-.231.28-.239.349-.239 2.073V19h-1.993l-.014-.65c-.012-.622-.018-.658-.121-.834a1.02 1.02 0 0 0-.582-.461c-.264-.08-3.316-.08-3.58 0a1.02 1.02 0 0 0-.582.461c-.103.176-.109.212-.121.834l-.014.65H8v-1.35c-.001-1.336-.002-1.352-.096-1.554a1.2 1.2 0 0 0-.328-.4c-.957-.802-1.324-1.31-1.477-2.041-.104-.499-.128-1.776-.042-2.289.149-.894.485-1.515 1.171-2.169.902-.86 2.423-1.493 4.072-1.697 1.512-.186 3.013-.065 4.055.327.469.177.691.204.952.117a.97.97 0 0 0 .591-.524c.123-.259.506-.682.842-.931l.24-.177.02.974c.016.779.033 1.002.084 1.114m-2.389 1.655a1.05 1.05 0 0 0-.567.461c-.091.156-.108.23-.108.484 0 .257.016.327.113.492.518.882 1.865.526 1.865-.492a.99.99 0 0 0-.535-.888 1.17 1.17 0 0 0-.768-.057"/></svg>