<svg xmlns="http://www.w3.org/2000/svg" width="24" height="24" fill="none" stroke="currentColor" stroke-linecap="round" stroke-linejoin="round" stroke-width="2"><path fill="#000" fill-rule="evenodd" stroke="none" d="M6.358 2.061c-1.128.176-2.215.913-2.789 1.892a3.992 3.992 0 0 0 1.943 5.751c.627.253.965.296 2.303.296h1.182l.012 2.153.011 2.153.121.197a.998.998 0 0 0 1.718 0l.121-.197.011-5.153.01-5.153h1.998l.01 5.153.011 5.153.121.197a.998.998 0 0 0 1.718 0l.121-.197.011-5.148.01-5.149.178-.027c.244-.036.533-.241.68-.479.107-.174.121-.232.121-.5 0-.257-.016-.331-.108-.487a1.02 1.02 0 0 0-.582-.461c-.263-.079-8.421-.074-8.932.006M9 6v2H7.868c-1.218 0-1.397-.022-1.785-.219a2.3 2.3 0 0 1-.43-.316 1.99 1.99 0 0 1 .334-3.186c.403-.244.61-.274 1.883-.277L9 4zm8.67 7.061c-.222.081-.42.248-.542.455-.092.156-.108.229-.107.484 0 .213.022.341.074.44.041.077.616.685 1.279 1.35L19.578 17h-8.843c-7.376 0-8.873.009-9.025.055a1.02 1.02 0 0 0-.582.461c-.091.156-.108.23-.108.484 0 .256.016.328.111.489.125.213.318.375.539.454.124.044 1.716.054 9.029.055l8.879.002-1.204 1.21c-.663.666-1.236 1.271-1.273 1.345-.229.454-.045 1.046.407 1.312.165.097.234.113.492.112.212 0 .341-.022.44-.074.077-.04 1.091-1.021 2.254-2.179 2.302-2.293 2.305-2.297 2.305-2.726 0-.431 0-.431-2.325-2.745-1.924-1.915-2.153-2.131-2.331-2.19a1 1 0 0 0-.673-.004"/></svg>