<svg xmlns="http://www.w3.org/2000/svg" width="24" height="24" fill="none" stroke="currentColor" stroke-linecap="round" stroke-linejoin="round" stroke-width="2"><path fill="#000" fill-rule="evenodd" stroke="none" d="M10.358 2.061c-1.128.176-2.215.913-2.789 1.892a3.992 3.992 0 0 0 1.943 5.751c.627.253.965.296 2.303.296h1.182l.012 2.153.011 2.153.121.197a.998.998 0 0 0 1.718 0l.121-.197.011-5.153.01-5.153h1.998l.01 5.153.011 5.153.121.197a.998.998 0 0 0 1.718 0l.121-.197.011-5.153.01-5.153.59-.002c.386-.001.641-.02.739-.055.221-.079.414-.241.539-.454.095-.161.111-.233.111-.489 0-.254-.017-.328-.108-.484a1.02 1.02 0 0 0-.582-.461c-.264-.079-9.42-.074-9.932.006M13 6v2h-1.132c-1.218 0-1.397-.022-1.785-.219a2.3 2.3 0 0 1-.43-.316 1.99 1.99 0 0 1 .334-3.186c.403-.244.61-.274 1.883-.277L13 4zm-7.36 7.068c-.154.053-.492.373-2.314 2.187C1.001 17.569 1.001 17.569 1.001 18c0 .429.003.433 2.305 2.726 1.163 1.158 2.177 2.139 2.254 2.179.099.052.228.074.44.074.258.001.327-.015.492-.112.222-.13.409-.369.473-.603a1.2 1.2 0 0 0-.066-.709c-.037-.074-.61-.679-1.273-1.345L4.422 19l8.879-.002c7.313-.001 8.905-.011 9.029-.055.221-.079.414-.241.539-.454.095-.161.111-.233.111-.489 0-.254-.017-.328-.108-.484a1.02 1.02 0 0 0-.582-.461c-.152-.046-1.649-.055-9.025-.055H4.422l1.204-1.21c.663-.665 1.238-1.273 1.279-1.35.052-.099.074-.227.074-.44.001-.255-.015-.328-.107-.484a1.016 1.016 0 0 0-1.232-.448"/></svg>