<svg xmlns="http://www.w3.org/2000/svg" width="24" height="24" fill="none" stroke="currentColor" stroke-linecap="round" stroke-linejoin="round" stroke-width="2"><path fill="#000" fill-rule="evenodd" stroke="none" d="M8.86 3.047a5.5 5.5 0 0 0-3.281 1.612c-2.096 2.112-2.099 5.542-.006 7.674a5.44 5.44 0 0 0 3.156 1.608c.288.044.769.059 1.83.059h1.439l.011 3.153.011 3.153.121.197a.998.998 0 0 0 1.718 0l.121-.197.01-7.653L14.001 5h1.998l.011 7.653.01 7.653.121.197a.998.998 0 0 0 1.718 0l.121-.197.01-7.653L18.001 5l.589-.002c.387-.001.642-.02.74-.055.221-.079.414-.241.539-.454.095-.161.111-.233.111-.489 0-.254-.017-.328-.108-.484a1.2 1.2 0 0 0-.254-.295c-.302-.23-.083-.221-5.474-.216-2.73.003-5.108.022-5.284.042M12 8.503v3.503l-1.57-.016c-1.716-.017-1.764-.023-2.364-.289-.905-.401-1.69-1.323-1.955-2.296-.119-.437-.119-1.373 0-1.81.356-1.309 1.523-2.36 2.831-2.551.131-.019.873-.036 1.648-.039L12 5z"/></svg>