<svg xmlns="http://www.w3.org/2000/svg" width="24" height="24" fill="none" stroke="currentColor" stroke-linecap="round" stroke-linejoin="round" stroke-width="2"><path fill="#000" fill-rule="evenodd" stroke="none" d="M16.52 1.043a6 6 0 0 0-2.17.62c-.867.438-.703.284-6.534 6.114-2.973 2.972-5.485 5.511-5.584 5.643a6.3 6.3 0 0 0-1.14 2.637c-.101.543-.092 1.478.02 2.043.428 2.163 1.875 3.846 3.917 4.555 1.783.618 3.661.368 5.283-.704.403-.266.745-.599 5.892-5.747s5.481-5.489 5.747-5.892c1.071-1.621 1.322-3.502.704-5.283a5.94 5.94 0 0 0-4.375-3.875c-.317-.067-1.199-.164-1.34-.147zm1.293 2.063c.779.15 1.432.5 2.006 1.075 1.345 1.344 1.534 3.419.458 5.027-.106.159-1.02 1.106-2.472 2.563l-2.304 2.31-2.79-2.79L9.92 8.5l2.23-2.232c1.227-1.228 2.347-2.322 2.49-2.432a4 4 0 0 1 3.173-.73M11.85 17.732c-1.227 1.228-2.356 2.328-2.51 2.445a4.2 4.2 0 0 1-1.68.746 4.6 4.6 0 0 1-.7.049 3.8 3.8 0 0 1-2.779-1.153c-.775-.774-1.148-1.693-1.144-2.819a3.87 3.87 0 0 1 .686-2.208c.106-.159 1.02-1.106 2.472-2.563l2.304-2.31 2.79 2.79L14.08 15.5z"/></svg>