<svg xmlns="http://www.w3.org/2000/svg" width="24" height="24" fill="none" stroke="currentColor" stroke-linecap="round" stroke-linejoin="round" stroke-width="2"><path fill="#000" fill-rule="evenodd" stroke="none" d="M4.477 1.073c-.671.176-1.239.75-1.417 1.435-.088.336-.088 3.648 0 3.984.093.36.25.626.536.912.362.362.861.596 1.272.596h.13l.011 6.29.011 6.29.094.28c.332.991 1.07 1.722 2.046 2.026l.3.094h9.08l.3-.094c.976-.304 1.714-1.035 2.046-2.026l.094-.28.011-6.29.011-6.29h.13c.191 0 .558-.104.798-.225.266-.135.708-.575.841-.838.219-.431.229-.541.228-2.423 0-1.872-.014-2.03-.218-2.431-.135-.267-.484-.634-.764-.802-.492-.296.083-.276-8.017-.276-6.734 0-7.279.005-7.523.068M19 4.5V6H5V3h14zM17 9v1l-1.63.002c-1.825.003-1.953.018-2.387.279-.28.168-.629.535-.764.802C12 11.515 12 11.512 12 14.5c0 3.001-.001 2.984.225 3.43.136.269.576.709.845.845.423.215.531.225 2.298.225H17v.554c0 .798-.11 1.079-.516 1.318l-.184.108H7.7l-.184-.108a1.2 1.2 0 0 1-.291-.249c-.238-.312-.225.073-.225-6.548V8h10zm0 5.5V17h-3v-5h3z"/></svg>