<svg xmlns="http://www.w3.org/2000/svg" width="24" height="24" fill="none" stroke="currentColor" stroke-linecap="round" stroke-linejoin="round" stroke-width="2"><path fill="#000" fill-rule="evenodd" stroke="none" d="M1.67 1.061c-.222.081-.42.248-.542.455-.091.156-.108.23-.108.484s.016.327.107.48c.062.102 1.569 1.64 3.49 3.56L8 9.42v.743c0 1.22.004 1.214-1.421 1.929-1.169.586-1.398.731-1.751 1.105a3 3 0 0 0-.69 1.163c-.101.31-.113.406-.129 1.083-.019.831.01 1.047.193 1.434.146.309.569.746.868.898.445.225.441.225 3.297.225h2.63l.012 2.153.011 2.153.121.197a.998.998 0 0 0 1.718 0l.121-.197.011-2.153.012-2.153h3.577l2.38 2.383c1.322 1.323 2.46 2.43 2.56 2.49.153.091.226.107.48.107.257 0 .327-.016.492-.113.476-.28.647-.9.373-1.359-.055-.092-4.65-4.715-10.212-10.273C3.3 1.889 2.525 1.125 2.343 1.065a1 1 0 0 0-.673-.004m5.919-.004c-.227.082-.41.221-.527.401-.278.429-.217.905.163 1.273.291.283.044.269 4.695.269 4.73 0 4.456-.017 4.777.303.273.274.36.616.248.987-.133.441-.435.658-.993.711-.205.02-.463.064-.575.097-.431.129-.949.571-1.161.99-.2.395-.216.544-.216 2.05.001 1.391.002 1.404.095 1.602.181.381.5.588.905.588s.724-.207.905-.588c.093-.197.094-.218.095-1.464V7.011l.302-.027c1.187-.108 2.216-.961 2.584-2.144.135-.434.135-1.246 0-1.68a3.09 3.09 0 0 0-2.025-2.039l-.321-.101-4.4-.009c-3.634-.007-4.426.001-4.551.046M12.26 13.68 14.58 16H6v-.453c0-.881.069-.961 1.41-1.631.533-.267 1.089-.564 1.235-.66.549-.363 1.018-.982 1.201-1.586l.094-.31z"/></svg>