<svg xmlns="http://www.w3.org/2000/svg" width="24" height="24" fill="none" stroke="currentColor" stroke-linecap="round" stroke-linejoin="round" stroke-width="2"><path fill="#000" fill-rule="evenodd" stroke="none" d="M7.499 1.043A3.04 3.04 0 0 0 5.114 3.16c-.135.434-.135 1.246 0 1.68.368 1.183 1.397 2.036 2.584 2.144L8 7.011v1.927c0 2.169-.005 2.219-.272 2.497-.109.114-.414.288-1.149.657-1.169.586-1.398.731-1.751 1.105a3 3 0 0 0-.69 1.163c-.101.31-.113.406-.129 1.083-.019.831.01 1.047.193 1.434.146.309.569.746.868.898.445.225.441.225 3.297.225h2.63l.012 2.153.011 2.153.121.197a.998.998 0 0 0 1.718 0l.121-.197.011-2.153.012-2.153h2.63c2.856 0 2.852 0 3.297-.225.266-.135.708-.575.841-.838.182-.359.229-.631.229-1.331 0-.665-.028-.884-.168-1.326-.177-.557-.656-1.182-1.165-1.522-.134-.09-.695-.389-1.246-.666-1.09-.547-1.241-.658-1.356-.996-.056-.165-.065-.445-.065-2.138V7.011l.302-.027c1.187-.108 2.216-.961 2.584-2.144.135-.434.135-1.246 0-1.68a3.09 3.09 0 0 0-2.025-2.039l-.321-.101-4.42-.006c-2.431-.003-4.511.01-4.621.029m8.811 2.018c.378.112.69.537.69.94 0 .175-.103.461-.221.617-.184.241-.403.343-.827.383-.477.046-.721.121-1.015.311-.452.292-.796.779-.898 1.271q-.042.207-.031 2.462l.013 2.255.114.34a3.13 3.13 0 0 0 1.105 1.536c.143.105.728.425 1.3.712 1.403.704 1.46.77 1.46 1.659V16H6v-.453c0-.881.069-.961 1.41-1.631 1.141-.57 1.41-.74 1.761-1.113.414-.439.658-.921.786-1.555.027-.135.043-.983.042-2.34 0-2.294-.009-2.415-.215-2.821-.212-.418-.73-.86-1.161-.989a4 4 0 0 0-.575-.097c-.547-.052-.837-.253-.99-.685-.174-.496.122-1.101.615-1.253.289-.089 8.338-.091 8.637-.002"/></svg>