<svg xmlns="http://www.w3.org/2000/svg" width="24" height="24" fill="none" stroke="currentColor" stroke-linecap="round" stroke-linejoin="round" stroke-width="2"><path fill="#000" fill-rule="evenodd" stroke="none" d="M19.16 1.065c-.29.063-.74.264-1.03.459-.104.071-.857.792-1.671 1.602l-1.482 1.473-.151-.103Q14.096 4 13.1 4c-.548 0-.923.082-1.36.297a3.18 3.18 0 0 0-1.666 2.018c-.112.423-.112 1.147 0 1.57.077.294.273.724.443.975l.082.12-4.235 4.24c-3.881 3.886-4.239 4.256-4.299 4.437-.055.167-.065.409-.065 1.561v1.364l-.383.379c-.45.445-.574.637-.604.927a.99.99 0 0 0 .495.979c.165.097.235.113.492.113.386 0 .529-.082 1.039-.597L3.418 22h1.364c1.152 0 1.394-.01 1.561-.065.181-.06.551-.418 4.437-4.299l4.24-4.235.12.082c.251.17.681.366.975.443.423.112 1.147.112 1.57 0 1.066-.281 1.96-1.173 2.24-2.235.113-.43.114-1.15.001-1.576a3.7 3.7 0 0 0-.443-.974l-.081-.12 1.473-1.48c.809-.815 1.527-1.562 1.593-1.661.385-.572.539-1.08.539-1.78 0-.75-.183-1.301-.628-1.893-.403-.536-1.15-1.02-1.772-1.147-.362-.074-1.095-.072-1.447.005m1.183 2.011c.238.108.438.3.554.534.134.267.142.679.02.95-.061.135-.535.636-1.915 2.02-1.008 1.012-1.866 1.903-1.907 1.98-.103.196-.102.687.002.879.041.077.226.297.41.488.405.422.491.592.491.973 0 .639-.466 1.11-1.098 1.11-.478 0-.438.033-2.69-2.221-1.553-1.556-2.066-2.092-2.127-2.229-.107-.238-.111-.675-.007-.903.19-.419.561-.658 1.022-.656.384.001.553.087.975.492.191.184.411.369.488.41.192.104.683.105.879.002.077-.041.968-.899 1.98-1.907 1.384-1.38 1.885-1.854 2.02-1.915.238-.107.675-.111.903-.007M12.8 11.22l.78.78-4 4-4 4H4v-1.58l3.99-3.99A572 572 0 0 1 12 10.44c.012 0 .371.351.8.78"/></svg>