<svg xmlns="http://www.w3.org/2000/svg" width="24" height="24" fill="none" stroke="currentColor" stroke-linecap="round" stroke-linejoin="round" stroke-width="2"><path fill="#000" fill-rule="evenodd" stroke="none" d="M15.46 1.078c-1.172.308-2.709.912-3.93 1.544A20.65 20.65 0 0 0 1.138 15.254c-.203.695-.181 1.111.084 1.654.146.297.524.692.807.842.339.181 18.428 5.206 18.851 5.238.567.042 1.101-.163 1.523-.585s.627-.956.585-1.523c-.017-.225-.404-1.671-1.547-5.78-.839-3.014-1.559-5.606-1.6-5.76a2317 2317 0 0 0-1.956-7.009c-.177-.587-.818-1.146-1.477-1.286a2.05 2.05 0 0 0-.948.033m.574 2.052c.182.582.486 1.765.459 1.789-.018.017-.276.106-.573.2a15 15 0 0 0-2.144.859c-1.789.866-3.158 1.839-4.557 3.24-1.355 1.356-2.299 2.656-3.122 4.302a15 15 0 0 0-.919 2.219c-.14.418-.268.764-.286.77-.037.012-1.843-.487-1.874-.518-.038-.038.525-1.672.781-2.271 1.932-4.509 5.412-7.989 9.921-9.921.464-.199 2.134-.791 2.247-.798.015 0 .045.058.067.129m1.062 3.82c.096.316.464 1.676.464 1.716 0 .028-.085.1-.19.159a4.97 4.97 0 0 0-2.499 4.295c0 .275.029.663.063.862.413 2.368 2.456 4.122 4.838 4.153l.431.005.058.2c.222.779.732 2.64.725 2.647-.011.011-6.64-1.829-6.66-1.849-.008-.007.06-.102.152-.211.159-.189.282-.479.282-.666 0-.202-.131-.515-.286-.683a.97.97 0 0 0-.757-.314c-.37.005-.539.119-1.07.725-.256.292-.492.531-.524.531-.051 0-4.765-1.296-5.113-1.405-.072-.023-.13-.067-.13-.099 0-.089.272-.911.447-1.352 1.135-2.858 3.031-5.208 5.553-6.882a14.4 14.4 0 0 1 3.54-1.726c.585-.195.646-.205.676-.106m1.783 6.42c.404 1.458.742 2.673.752 2.7.049.138-.569.006-1.051-.226-1.079-.517-1.697-1.49-1.706-2.684-.005-.668.163-1.206.541-1.734.176-.247.628-.706.695-.706.019 0 .365 1.192.769 2.65m-7.238-.301c-.138.049-.32.202-.794.667-.338.332-.659.68-.714.772-.271.462-.1 1.08.375 1.359.165.097.234.113.492.112.214 0 .34-.022.44-.075.194-.103 1.303-1.204 1.433-1.424.09-.152.107-.227.107-.48 0-.254-.017-.328-.108-.484a1.01 1.01 0 0 0-1.231-.447"/></svg>