<svg xmlns="http://www.w3.org/2000/svg" width="24" height="24" fill="none" stroke="currentColor" stroke-linecap="round" stroke-linejoin="round" stroke-width="2"><path fill="#000" fill-rule="evenodd" stroke="none" d="M10.581 1.603c-.339.169-.372.225-1.733 2.944L7.543 7.153l-.146-.075c-.297-.151-.368-.292-.414-.822a2.7 2.7 0 0 0-.433-1.197c-.317-.475-.625-.71-1.517-1.159-.722-.364-.765-.38-1.015-.38-.428 0-.723.18-.918.562-.15.293-2.004 4.483-2.059 4.654-.07.215-.029.55.093.756.119.201 2.089 2.163 2.347 2.337.348.235 13.612 6.839 13.962 6.951.508.164 1.047.176 2.037.045 1.109-.146 1.468-.289 1.96-.784.45-.451.687-1.029.69-1.681.003-.6-.116-.903-.803-2.056-.353-.593-.678-.965-1.095-1.252-.16-.112-1.345-.729-2.632-1.372-2.569-1.284-2.586-1.294-2.697-1.691-.032-.115-.222-1.442-.422-2.949s-.39-2.848-.422-2.98c-.145-.585-.583-1.239-1.087-1.62-.148-.113-.592-.365-.985-.562-.689-.345-.725-.358-.981-.356a.94.94 0 0 0-.425.081m1.241 2.484c.277.244.271.212.678 3.247.207 1.547.396 2.901.42 3.008.165.734.674 1.454 1.323 1.868.119.077 1.261.662 2.537 1.301 1.967.986 2.345 1.189 2.485 1.336.235.245.863 1.336.863 1.497 0 .326-.132.399-.912.5-1.147.149-.177.555-7.899-3.305L4.599 10.18l-.701-.702-.701-.702.639-1.437c.351-.791.655-1.443.674-1.449.053-.018.292.155.381.276.056.076.089.21.112.462.045.488.193.929.436 1.299.327.498.583.695 1.503 1.158.741.373.82.403 1.04.405a.94.94 0 0 0 .748-.324c.103-.114.555-.976 1.438-2.743l1.288-2.577.112.058c.061.032.175.114.254.183M1.695 21.057a1.04 1.04 0 0 0-.567.459c-.091.156-.108.23-.108.484 0 .256.016.328.111.489.125.213.318.375.539.454.223.08 20.437.08 20.66 0 .221-.079.414-.241.539-.454.095-.161.111-.233.111-.489 0-.254-.017-.328-.108-.484a1.02 1.02 0 0 0-.582-.461c-.263-.079-20.342-.077-20.595.002"/></svg>