<svg xmlns="http://www.w3.org/2000/svg" width="24" height="24" fill="none" stroke="currentColor" stroke-linecap="round" stroke-linejoin="round" stroke-width="2"><path fill="#000" fill-rule="evenodd" stroke="none" d="M6.14 4.417c-.32.074-.553.169-1.187.486-.605.302-.789.463-.894.779-.136.41-.153.368 1.277 3.229.718 1.438 1.297 2.628 1.286 2.646s-.129.073-.261.123c-.335.125-.568.1-1.004-.11-.511-.245-.776-.306-1.337-.308-.662-.003-.897.066-1.855.54-.87.43-.987.524-1.109.891-.13.39-.122.41 1.029 2.723 1.151 2.314 1.202 2.394 1.579 2.518.108.035.745.156 1.416.268 1.136.191 1.255.204 1.72.185.402-.015.56-.04.805-.125.342-.119 13.238-6.505 13.589-6.729a3.9 3.9 0 0 0 .907-.873c.094-.132.318-.537.497-.9.474-.96.535-1.411.297-2.166A2.4 2.4 0 0 0 21.7 6.218c-.29-.141-1.164-.41-1.68-.517a3.35 3.35 0 0 0-1.874.175c-.157.064-1.267.599-2.466 1.19-2.173 1.07-2.181 1.073-2.44 1.074-.143 0-.32-.025-.394-.057-.074-.031-1.082-.763-2.24-1.627s-2.2-1.628-2.316-1.698a3.6 3.6 0 0 0-.56-.249c-.303-.105-.417-.123-.85-.135-.328-.008-.582.006-.74.043m1.04 2.019c.088.041 1.114.788 2.28 1.659s2.237 1.646 2.381 1.722a3 3 0 0 0 2.006.268c.399-.092.673-.218 3.661-1.685 1.792-.88 1.712-.86 2.575-.621.823.229.859.249.936.526.036.131-.492 1.159-.707 1.375-.178.178-.566.374-10.666 5.381-2.492 1.235-2.669 1.317-2.904 1.332-.168.01-.548-.034-1.159-.136l-.91-.151-.657-1.315c-.362-.723-.648-1.331-.636-1.35s.125-.075.251-.122c.317-.119.544-.094.969.107.554.263.782.313 1.4.312.65-.002.797-.045 1.821-.536.774-.371.896-.454 1.048-.713.094-.159.111-.234.111-.477v-.289L7.67 9.101a252 252 0 0 1-1.31-2.643c0-.049.197-.093.42-.095a1 1 0 0 1 .4.073M1.695 21.057a1.04 1.04 0 0 0-.567.459c-.091.156-.108.23-.108.484 0 .256.016.328.111.489.125.213.318.375.539.454.223.08 20.437.08 20.66 0 .221-.079.414-.241.539-.454.095-.161.111-.233.111-.489 0-.254-.017-.328-.108-.484a1.02 1.02 0 0 0-.582-.461c-.263-.079-20.342-.077-20.595.002"/></svg>