<svg xmlns="http://www.w3.org/2000/svg" width="24" height="24" fill="none" stroke="currentColor" stroke-linecap="round" stroke-linejoin="round" stroke-width="2"><path fill="#000" fill-rule="evenodd" stroke="none" d="M19.68 1.825c-.691.084-1.408.314-2.12.679-.866.444-1.189.718-3.14 2.655l-1.76 1.749-3.78-.834c-2.079-.458-3.906-.847-4.06-.864-.66-.072-1.206.104-1.626.525-.271.272-.683.96-.793 1.325a2.1 2.1 0 0 0 .145 1.589c.205.409.439.589 2.754 2.111 1.21.796 2.222 1.468 2.249 1.494.039.037-.07.228-.509.887l-.56.839-1.37.02c-1.251.018-1.384.027-1.53.098-.204.099-1.313 1.184-1.454 1.422-.09.152-.106.227-.106.483 0 .267.015.327.12.5.109.178.267.295 1.63 1.208l1.51 1.01 1 1.499c1.045 1.567 1.095 1.627 1.456 1.741.215.068.551.026.756-.094.092-.055.439-.375.771-.713.497-.506.615-.649.67-.811.057-.169.067-.386.067-1.504v-1.307l.849-.565c.666-.443.86-.555.897-.516.026.027.699 1.039 1.496 2.249.796 1.21 1.522 2.278 1.613 2.372.575.601 1.38.774 2.239.481.892-.304 1.362-.725 1.62-1.451.198-.556.203-.522-.749-4.837-.465-2.11-.845-3.864-.845-3.899s.762-.829 1.694-1.765 1.787-1.815 1.901-1.954a6.75 6.75 0 0 0 1.354-2.718c.135-.544.153-1.388.038-1.802-.095-.341-.231-.64-.363-.795-.128-.152-.502-.336-.864-.426-.266-.066-.948-.112-1.2-.081m.487 2.235c-.036.674-.358 1.463-.88 2.16-.099.132-1.075 1.14-2.17 2.24-1.908 1.918-1.992 2.009-2.053 2.217-.035.12-.064.268-.064.329s.404 1.952.897 4.202.903 4.137.91 4.191c.011.081-.015.113-.14.172a1.5 1.5 0 0 1-.262.094c-.107.021-.161-.054-1.884-2.664-1.05-1.59-1.825-2.726-1.9-2.783a1.01 1.01 0 0 0-.933-.161c-.236.083-3.37 2.189-3.479 2.338-.182.248-.188.296-.209 1.56l-.02 1.216-.63-.945-.63-.946-.946-.63-.945-.63L6.045 16c1.264-.021 1.312-.027 1.56-.209.149-.109 2.255-3.243 2.338-3.479a.98.98 0 0 0-.22-.988c-.081-.079-1.329-.924-2.775-1.878S4.32 7.687 4.32 7.657c0-.093.243-.457.304-.457.032 0 1.903.405 4.158.9s4.16.9 4.232.9.22-.03.329-.066c.177-.059.407-.275 2.257-2.113 2.176-2.162 2.321-2.288 3.016-2.619a4 4 0 0 1 1.146-.359c.427-.057.42-.06.405.217"/></svg>