<svg xmlns="http://www.w3.org/2000/svg" width="24" height="24" fill="none" stroke="currentColor" stroke-linecap="round" stroke-linejoin="round" stroke-width="2"><path fill="#000" fill-rule="evenodd" stroke="none" d="M8.695 1.057a1.04 1.04 0 0 0-.567.459L8.02 1.7l-.011 2.65L7.998 7H6.945c-1.148 0-1.301.022-1.563.221-.08.061-.195.194-.254.295L5.02 7.7v2.96c0 2.711.006 2.989.073 3.3.43 2.007 1.901 3.492 3.907 3.941.206.046.566.074 1.149.088l.848.02.012 2.149.011 2.148.121.197a.998.998 0 0 0 1.718 0l.121-.197.011-2.148.012-2.149.848-.02c1.133-.027 1.617-.138 2.435-.556 1.344-.685 2.294-1.944 2.621-3.473.067-.311.073-.589.073-3.3V7.7l-.108-.184a1.2 1.2 0 0 0-.254-.295C18.356 7.022 18.203 7 17.055 7h-1.053l-.011-2.65-.011-2.65-.109-.186a1.01 1.01 0 0 0-1.742 0l-.109.186-.011 2.65L13.998 7h-3.996l-.011-2.65L9.98 1.7l-.108-.184a1.005 1.005 0 0 0-1.177-.459m8.296 10.213-.013 2.27-.1.321a3.08 3.08 0 0 1-2.038 2.025l-.3.094H9.46l-.3-.094a3.08 3.08 0 0 1-2.038-2.025l-.1-.321-.013-2.27L6.996 9h10.008z"/></svg>