<svg xmlns="http://www.w3.org/2000/svg" width="24" height="24" fill="none" stroke="currentColor" stroke-linecap="round" stroke-linejoin="round" stroke-width="2"><path fill="#000" fill-rule="evenodd" stroke="none" d="M2.695 1.057a1.04 1.04 0 0 0-.567.459c-.105.178-.108.206-.122.904-.015.786.018 1.031.184 1.359.191.378.735.822 1.38 1.125.082.039.15.081.15.093 0 .013-.121.085-.268.161-.656.34-1.071.689-1.262 1.062a1.73 1.73 0 0 0 .009 1.579c.185.361.74.808 1.371 1.105.082.039.15.081.15.093 0 .013-.121.085-.268.161-.656.34-1.071.689-1.262 1.062a1.74 1.74 0 0 0-.136 1.2c.159.595.519.959 1.412 1.43.206.108.374.207.374.221s-.402.431-.893.927c-.924.934-1.138 1.204-1.433 1.804-.356.727-.494 1.341-.494 2.198 0 1.066.253 1.909.841 2.805.249.379.955 1.085 1.334 1.334.892.585 1.744.841 2.805.841.857 0 1.462-.137 2.205-.499.708-.344.685-.324 4.845-4.477L17 14.061l.002 4.059c.001 3.287.012 4.089.055 4.21.079.221.241.414.454.539.177.104.217.111.649.11.732-.002 1.393-.171 2.126-.546 1.344-.685 2.294-1.944 2.621-3.473.069-.321.073-.71.073-6.96s-.004-6.639-.073-6.96a5.4 5.4 0 0 0-.768-1.845c-.245-.374-.951-1.08-1.327-1.328-1.747-1.151-3.866-1.151-5.624-.001-.221.145-1.397 1.296-5.078 4.971-4.645 4.637-4.793 4.78-4.88 4.725a10 10 0 0 0-.771-.451c-.098-.048-.179-.098-.179-.112s.067-.056.15-.095c.631-.297 1.186-.744 1.371-1.105A1.73 1.73 0 0 0 5.81 8.22c-.191-.373-.606-.722-1.262-1.062-.147-.076-.268-.148-.268-.161 0-.012.068-.054.15-.093.631-.297 1.186-.744 1.371-1.105A1.73 1.73 0 0 0 5.81 4.22c-.203-.397-.587-.708-1.397-1.133l-.406-.214-.013-.586c-.013-.553-.02-.598-.122-.771a1.005 1.005 0 0 0-1.177-.459m16.192 2.074a3.09 3.09 0 0 1 1.985 1.982c.089.267.102.379.105.867.003.482-.01.602-.091.86a3 3 0 0 1-.398.84c-.164.254-12.134 12.265-12.602 12.645a2.9 2.9 0 0 1-1.047.561c-.252.079-.384.094-.839.094s-.587-.015-.839-.094a3.08 3.08 0 0 1-2.033-1.999c-.089-.267-.102-.379-.105-.867-.003-.479.01-.603.09-.86.12-.385.32-.752.589-1.08.379-.462 12.38-12.416 12.618-12.568.621-.399 1.052-.517 1.8-.494.348.011.534.039.767.113m-1.192 1.924a1.05 1.05 0 0 0-.567.461c-.091.156-.108.23-.108.484 0 .257.016.327.113.492.518.882 1.865.526 1.865-.492a.99.99 0 0 0-.535-.888 1.17 1.17 0 0 0-.768-.057m3.296 9.885-.012 3.6-.101.321a3.1 3.1 0 0 1-1.538 1.823l-.32.161-.01-4.392-.01-4.392.99-.991.99-.991.011.631c.006.346.006 2.25 0 4.23M5.695 17.055a1.05 1.05 0 0 0-.567.461c-.091.156-.108.23-.108.484 0 .257.016.327.113.492.518.882 1.865.526 1.865-.492a.99.99 0 0 0-.535-.888 1.17 1.17 0 0 0-.768-.057"/></svg>