<svg xmlns="http://www.w3.org/2000/svg" width="24" height="24" fill="none" stroke="currentColor" stroke-linecap="round" stroke-linejoin="round" stroke-width="2"><path fill="#000" fill-rule="evenodd" stroke="none" d="M11.38 1.024c-1.886.143-3.532.71-5.02 1.729C4.063 4.327 2.602 6.65 2.113 9.505c-.128.748-.128 2.242 0 2.991.368 2.148 1.238 3.906 2.697 5.447.643.68 1.761 1.524 2.137 1.614a.7.7 0 0 0 .429-.011c.539-.141.864-.644.749-1.16-.083-.372-.159-.452-.971-1.026-.339-.24-1.201-1.101-1.501-1.5-.824-1.095-1.319-2.26-1.557-3.66-.1-.588-.101-1.821-.001-2.4.297-1.728.996-3.141 2.144-4.335a7.86 7.86 0 0 1 3.781-2.204c.719-.184 1.165-.238 1.98-.238.807 0 1.248.053 1.979.237 2.577.65 4.638 2.535 5.554 5.08.322.894.443 1.622.443 2.66 0 .566-.02.895-.071 1.2-.238 1.392-.741 2.576-1.552 3.653-.306.405-1.166 1.266-1.507 1.507-.812.574-.888.654-.971 1.026-.115.516.21 1.019.749 1.16a.7.7 0 0 0 .429.011c.376-.09 1.494-.934 2.137-1.614 1.457-1.539 2.33-3.301 2.697-5.447.128-.749.128-2.243 0-2.992-.253-1.477-.736-2.756-1.473-3.896a10.03 10.03 0 0 0-7.168-4.525c-.363-.046-1.544-.084-1.866-.059m-.038 4.017A6.1 6.1 0 0 0 6.797 8.02a6.05 6.05 0 0 0-.517 4.771c.28.878.828 1.822 1.192 2.052.613.389 1.441-.012 1.515-.733.029-.278-.042-.499-.268-.832-.678-.998-.876-2.13-.579-3.303.361-1.422 1.532-2.549 2.995-2.883.388-.089 1.342-.089 1.73 0 1.463.334 2.634 1.461 2.995 2.883.297 1.173.099 2.305-.579 3.303-.226.333-.297.554-.268.832.074.724.902 1.122 1.519.731.2-.127.554-.615.801-1.105.651-1.287.835-2.787.504-4.103-.293-1.166-.758-1.993-1.596-2.838-.526-.53-.968-.856-1.577-1.162a7 7 0 0 0-1.604-.532c-.449-.078-1.299-.108-1.718-.06m.135 4.032c-.671.176-1.239.75-1.417 1.435a2.07 2.07 0 0 0 .165 1.422c.136.269.576.709.845.845a2.05 2.05 0 0 0 1.86 0c.266-.135.708-.575.841-.838a2.05 2.05 0 0 0 .169-1.408 1.8 1.8 0 0 0-.475-.876A1.97 1.97 0 0 0 12 9.005c-.143 0-.378.031-.523.068m0 6c-.724.189-1.322.845-1.449 1.591-.042.241-.02.495.224 2.703.206 1.854.29 2.489.352 2.655.154.412.544.791.934.908.209.062.715.062.924 0 .39-.117.78-.496.934-.908.062-.165.146-.802.35-2.642.252-2.267.266-2.443.221-2.712a1.9 1.9 0 0 0-.496-1.009A1.97 1.97 0 0 0 12 15.005c-.143 0-.378.031-.523.068"/></svg>