<svg xmlns="http://www.w3.org/2000/svg" width="24" height="24" fill="none" stroke="currentColor" stroke-linecap="round" stroke-linejoin="round" stroke-width="2"><path fill="#000" fill-rule="evenodd" stroke="none" d="M7.499 1.04a3.02 3.02 0 0 0-2.185 1.64l-.189.394c-.015.03-.11.086-.211.125-.618.234-1.257.804-1.57 1.401-.252.479-.323.791-.323 1.4 0 .455.015.589.096.851.052.171.088.315.079.32-.524.332-.772.617-.918 1.054-.17.513-.209.296 1.26 7.075 1.215 5.612 1.356 6.228 1.486 6.494.275.562.862 1.015 1.486 1.147.41.087 10.551.086 10.921-.001.768-.182 1.479-.829 1.688-1.54.042-.143.664-2.969 1.381-6.28 1.426-6.583 1.391-6.387 1.221-6.897-.145-.435-.393-.72-.917-1.052-.009-.005.027-.149.079-.32.081-.262.096-.396.096-.851 0-.609-.071-.921-.323-1.4-.313-.597-.952-1.167-1.57-1.401-.101-.039-.196-.095-.211-.125l-.189-.394a3.04 3.04 0 0 0-1.825-1.555c-.456-.138-1.218-.144-1.681-.012a3.1 3.1 0 0 0-1.01.514l-.17.138-.17-.138a3 3 0 0 0-1.01-.513c-.454-.129-1.186-.129-1.64 0-.355.1-.751.302-1.01.513l-.17.138-.17-.138a3 3 0 0 0-.99-.506c-.342-.096-1.028-.137-1.341-.081m.809 2.02c.233.069.507.31.597.525.031.076.075.277.096.446.048.379.183.616.451.797a.98.98 0 0 0 1.096 0c.268-.181.403-.418.451-.797.05-.395.115-.546.322-.748C11.49 3.12 11.777 3 12 3s.51.12.679.283c.207.202.272.353.322.748.048.379.183.616.451.797a.98.98 0 0 0 1.096 0c.269-.182.406-.423.448-.79.043-.382.117-.552.325-.755C15.49 3.12 15.777 3 16 3s.51.12.679.283c.207.202.272.353.322.748.028.218.072.361.15.489.143.232.434.428.68.459.396.049.605.108.743.213a1 1 0 0 1-.088 1.679l-.186.109H5.694l-.192-.12c-.5-.313-.644-.955-.319-1.424.195-.282.426-.389.986-.457.437-.054.769-.432.827-.941.043-.382.117-.552.326-.755.266-.259.606-.336.986-.223M8.08 9.103c0 .057.189 2.746.42 5.977l.42 5.897c0 .013-.457.023-1.015.023-.794 0-1.025-.012-1.059-.053C6.81 20.904 4.24 9.156 4.24 9.036c0-.021.816-.036 1.92-.036h1.92zm5.84-.08-.42 5.897c-.231 3.231-.42 5.92-.42 5.977V21h-2.16v-.103c0-.057-.189-2.746-.42-5.977l-.42-5.897C10.08 9.01 10.944 9 12 9s1.92.01 1.92.023m5.84.007c.001.016-.569 2.667-1.266 5.89-1.143 5.287-1.276 5.871-1.368 5.97l-.101.11h-.972c-.535 0-.973-.01-.973-.023l.42-5.897c.231-3.231.42-5.92.42-5.977V9h1.92c1.056 0 1.92.014 1.92.03"/></svg>