<svg xmlns="http://www.w3.org/2000/svg" width="24" height="24" fill="none" stroke="currentColor" stroke-linecap="round" stroke-linejoin="round" stroke-width="2"><path fill="#000" fill-rule="evenodd" stroke="none" d="M6.08 1.097c-2.461.384-4.396 2.155-4.981 4.557-.405 1.664-.048 3.479.967 4.918.172.243 1.34 1.44 4.493 4.602 2.446 2.452 4.36 4.341 4.493 4.433.333.228.756.419 1.146.517.451.114 1.24.093 1.641-.044.652-.222.859-.373 1.842-1.346l.821-.812 2.419 2.421c1.346 1.347 2.499 2.47 2.599 2.53.153.091.226.107.48.107.257 0 .327-.016.492-.113.476-.28.647-.9.373-1.359-.055-.092-1.19-1.257-2.522-2.587l-2.421-2.419.812-.821c.86-.869.995-1.036 1.206-1.494.44-.952.302-2.112-.351-2.967-.246-.322-8.622-8.677-8.937-8.914a6.3 6.3 0 0 0-2.605-1.171c-.461-.086-1.526-.106-1.967-.038m1.847 2.057c.169.045.44.137.603.205.688.286.628.231 5.203 4.797 2.551 2.546 4.307 4.328 4.358 4.424.119.222.119.618 0 .84-.049.093-1.03 1.102-2.338 2.405-2.514 2.506-2.389 2.403-2.903 2.366a1.2 1.2 0 0 1-.47-.122c-.153-.079-1.184-1.09-4.403-4.316C5.369 11.139 3.72 9.457 3.632 9.32c-.531-.824-.759-1.728-.671-2.65a3.8 3.8 0 0 1 .654-1.844 4.13 4.13 0 0 1 2.765-1.76c.29-.047 1.244.008 1.547.088"/></svg>