<svg xmlns="http://www.w3.org/2000/svg" width="24" height="24" fill="none" stroke="currentColor" stroke-linecap="round" stroke-linejoin="round" stroke-width="2"><path fill="#000" fill-rule="evenodd" stroke="none" d="M13.393 2.039a5.4 5.4 0 0 0-1.262.305c-1.496.561-2.512 1.664-2.938 3.193C9.013 6.182 9 6.431 9 9.29V12H7.446c-1.688 0-1.788.011-2.064.221-.08.061-.195.194-.254.295-.091.156-.108.23-.108.484 0 .256.016.328.111.489.061.103.173.236.25.294.273.208.319.213 2.029.215L9 14v6H7.446c-1.688 0-1.788.011-2.064.221-.08.061-.195.194-.254.295-.091.156-.108.23-.108.484 0 .256.016.328.111.489.125.213.318.375.539.454s12.438.079 12.66 0 .414-.241.539-.454c.095-.161.111-.233.111-.489 0-.254-.017-.328-.108-.484a1.2 1.2 0 0 0-.254-.295c-.296-.226-.208-.221-4.064-.221H11v-6l2.59-.002c2.059-.001 2.621-.012 2.74-.055.221-.079.414-.241.539-.454.095-.161.111-.233.111-.489 0-.254-.017-.328-.108-.484a1.2 1.2 0 0 0-.254-.295C16.328 12 16.325 12 13.552 12h-2.556l.014-2.81c.017-3.154.006-3.033.319-3.667.127-.257.239-.41.469-.64a2.74 2.74 0 0 1 1.579-.821 3.4 3.4 0 0 1 1.246 0 2.74 2.74 0 0 1 1.579.821c.507.507.719 1.039.795 1.99.031.394.051.478.15.64a1 1 0 0 0 1.709-.005c.096-.157.121-.247.135-.502.031-.531-.108-1.33-.338-1.941-.681-1.808-2.407-2.978-4.493-3.044a6 6 0 0 0-.767.018"/></svg>