<svg xmlns="http://www.w3.org/2000/svg" width="24" height="24" fill="none" stroke="currentColor" stroke-linecap="round" stroke-linejoin="round" stroke-width="2"><path fill="#000" fill-rule="evenodd" stroke="none" d="M1.67 1.061c-.222.081-.42.248-.542.455-.091.156-.108.23-.108.484s.016.327.107.48c.06.099.89.961 1.846 1.916l1.739 1.735-.282.325C3.195 7.878 2.415 9.528 2.074 11.44c-.118.667-.148 2.073-.057 2.78.384 3.004 1.996 5.591 4.503 7.229 1.266.827 2.843 1.383 4.4 1.552.532.058 1.637.058 2.103-.001 2.066-.259 3.907-1.055 5.408-2.338l.438-.374 1.235 1.239c.68.681 1.317 1.287 1.416 1.346.152.091.226.107.48.107.257 0 .327-.016.492-.113.476-.28.647-.9.373-1.359-.055-.092-4.65-4.715-10.212-10.273C3.3 1.889 2.525 1.125 2.343 1.065a1 1 0 0 0-.673-.004m10.025-.004a1.04 1.04 0 0 0-.567.459l-.108.184v4.606l.121.197a.998.998 0 0 0 1.718 0l.121-.197V1.7l-.108-.184a1.005 1.005 0 0 0-1.177-.459m6.36 4.64a1.04 1.04 0 0 0-.567.459c-.092.156-.108.229-.107.484.001.367.047.461.42.864 1.348 1.454 2.067 3.156 2.18 5.161.031.534-.021 1.203-.145 1.892-.092.511-.081.648.074.933.365.675 1.385.666 1.732-.014.156-.306.307-1.237.344-2.116.11-2.662-.923-5.365-2.775-7.266-.266-.274-.352-.337-.532-.39-.253-.076-.4-.077-.624-.007m-.823 13.358c-1.103 1.013-2.676 1.716-4.345 1.944-.471.064-1.469.056-1.982-.017-1.816-.257-3.348-1.019-4.625-2.301a7.9 7.9 0 0 1-2.32-5.622c0-1.937.691-3.804 1.936-5.232l.238-.273 5.655 5.653 5.655 5.653z"/></svg>