<svg xmlns="http://www.w3.org/2000/svg" width="24" height="24" fill="none" stroke="currentColor" stroke-linecap="round" stroke-linejoin="round" stroke-width="2"><path fill="#000" fill-rule="evenodd" stroke="none" d="M11.695 1.057a1.04 1.04 0 0 0-.567.459l-.108.184v10.606l.121.197a.998.998 0 0 0 1.718 0l.121-.197V1.7l-.108-.184a1.005 1.005 0 0 0-1.177-.459m6.375 4.604c-.222.081-.42.248-.542.455-.092.156-.108.229-.107.484.001.371.044.457.447.892 2.435 2.628 2.855 6.482 1.04 9.555a8.02 8.02 0 0 1-6.862 3.913 8.01 8.01 0 0 1-6.669-3.567 9.3 9.3 0 0 1-.931-1.918c-.908-2.793-.27-5.751 1.712-7.932.381-.421.459-.573.459-.903 0-.394-.19-.699-.556-.893-.227-.119-.657-.118-.886.002C4.854 5.919 3.949 7 3.493 7.76a9.9 9.9 0 0 0-1.441 5.537c.04 1.214.25 2.244.677 3.323 1.338 3.381 4.353 5.74 8.011 6.268.546.079 2.127.067 2.7-.02a10.2 10.2 0 0 0 3.02-.949c1.606-.787 2.89-1.918 3.905-3.437a9.95 9.95 0 0 0 1.397-7.822 10 10 0 0 0-1.584-3.501c-.315-.437-.937-1.159-1.134-1.315-.292-.232-.655-.3-.974-.183"/></svg>