<svg xmlns="http://www.w3.org/2000/svg" width="24" height="24" fill="none" stroke="currentColor" stroke-linecap="round" stroke-linejoin="round" stroke-width="2"><path fill="#000" fill-rule="evenodd" stroke="none" d="M1.695 2.057a1.04 1.04 0 0 0-.567.459c-.092.156-.108.23-.108.487 0 .268.014.326.121.5.147.238.436.443.679.479l.178.027.011 5.285.011 5.286.094.28c.329.98 1.049 1.7 2.026 2.025.28.093.282.093 2.857.106l2.578.013-1.703 1.708c-.937.939-1.737 1.771-1.777 1.848-.052.099-.074.228-.074.44-.001.258.015.327.112.492.13.222.369.409.603.473.203.054.531.024.709-.066.074-.037 1.13-1.06 2.345-2.273L12 17.421l2.21 2.205c1.216 1.213 2.273 2.239 2.35 2.279.099.052.228.074.44.074.258.001.327-.015.492-.112.222-.13.409-.369.473-.603a1.2 1.2 0 0 0-.066-.709c-.037-.074-.834-.904-1.771-1.843l-1.703-1.708 2.578-.013c2.575-.013 2.577-.013 2.857-.106a3.14 3.14 0 0 0 2.026-2.025l.094-.28.011-5.286.011-5.285.178-.027c.243-.036.532-.241.679-.479.107-.174.121-.232.121-.5 0-.257-.016-.331-.108-.487a1.02 1.02 0 0 0-.582-.461c-.263-.079-20.342-.077-20.595.002M20 9.054c0 4.166-.01 5.085-.055 5.236a1.02 1.02 0 0 1-.461.582l-.184.108H4.7l-.184-.108a1.02 1.02 0 0 1-.461-.582C4.01 14.139 4 13.22 4 9.054V4h16z"/></svg>