<svg xmlns="http://www.w3.org/2000/svg" width="24" height="24" fill="none" stroke="currentColor" stroke-linecap="round" stroke-linejoin="round" stroke-width="2"><path fill="#000" fill-rule="evenodd" stroke="none" d="M6.477 1.073c-.671.176-1.239.75-1.417 1.435C5.01 2.7 5 3.164 5 5.364v2.627l-.77.019c-.663.017-.814.033-1.091.116a3.07 3.07 0 0 0-2.025 2.034l-.094.3v6.08l.094.3a3.1 3.1 0 0 0 2.026 2.042c.239.076.396.092 1.07.108l.79.019v1.127c0 1.221.021 1.392.225 1.794.136.269.576.709.845.845.454.23.363.225 4.148.225l3.482-.001.2-.094c.381-.181.588-.5.588-.905 0-.385-.195-.703-.548-.894-.16-.086-.161-.086-3.55-.097L7 20.998V15h10v.35c.001.285.018.387.095.55.181.381.5.588.905.588s.724-.207.905-.588c.082-.174.094-.259.094-.66 0-.755-.136-1.158-.534-1.587a2 2 0 0 0-.942-.58c-.242-.063-.68-.068-5.523-.068-5.867 0-5.533-.016-6.017.276-.28.168-.629.535-.764.802-.197.388-.219.567-.219 1.789v1.135l-.65-.014c-.622-.012-.658-.018-.834-.121a1.2 1.2 0 0 1-.291-.249c-.229-.3-.225-.245-.225-3.101 0-2.992-.008-2.908.303-3.219C3.632 9.974 2.892 10 12 10c9.05 0 8.364-.022 8.679.283.296.288.298.298.321 1.74l.02 1.284.121.196a.998.998 0 0 0 1.718 0l.121-.197v-1.423c0-1.38-.003-1.432-.094-1.723a3.07 3.07 0 0 0-2.025-2.034c-.277-.083-.428-.099-1.091-.116L19 7.991l-.001-2.606c0-2.816-.005-2.882-.218-3.302-.135-.267-.484-.634-.764-.802-.484-.292-.15-.276-6.017-.276-4.843 0-5.281.005-5.523.068M17 5.5V8H7V3h10zm4.64 10.568c-.152.053-.444.326-1.909 1.785l-1.729 1.722-.731-.72c-.616-.608-.762-.732-.928-.788a1 1 0 0 0-1.215.449c-.092.156-.108.229-.107.484 0 .213.022.341.074.44.102.193 2.202 2.3 2.425 2.433.153.091.225.107.48.106.212 0 .341-.022.44-.074.192-.1 4.299-4.2 4.433-4.425.091-.152.107-.226.107-.48s-.017-.328-.108-.484a1.016 1.016 0 0 0-1.232-.448"/></svg>