<svg xmlns="http://www.w3.org/2000/svg" width="24" height="24" fill="none" stroke="currentColor" stroke-linecap="round" stroke-linejoin="round" stroke-width="2"><path fill="#000" fill-rule="evenodd" stroke="none" d="M6.477 1.073c-.671.176-1.239.75-1.417 1.435C5.01 2.7 5 3.164 5 5.364v2.627l-.77.019c-.663.017-.814.033-1.091.116a3.07 3.07 0 0 0-2.025 2.034l-.094.3v6.08l.094.3a3.1 3.1 0 0 0 2.026 2.042c.239.076.396.092 1.07.108l.79.019v1.127c0 1.221.021 1.392.225 1.794.136.269.576.709.845.845.464.235.197.225 5.93.225s5.466.01 5.93-.225c.266-.135.708-.575.841-.838.205-.403.229-.595.229-1.808v-1.12l.79-.019c.674-.016.831-.032 1.07-.108a3.1 3.1 0 0 0 2.026-2.042l.094-.3v-6.08l-.094-.3a3.07 3.07 0 0 0-2.025-2.034c-.277-.083-.428-.099-1.091-.116L19 7.991l-.001-2.606c0-2.816-.005-2.882-.218-3.302-.135-.267-.484-.634-.764-.802-.484-.292-.15-.276-6.017-.276-4.843 0-5.281.005-5.523.068M17 5.5V8H7V3h10zm3.31 4.561c.279.083.546.35.629.629.086.289.092 5.316.006 5.6a1.02 1.02 0 0 1-.461.582c-.176.103-.212.109-.834.121l-.65.014-.001-1.114c0-1.203-.028-1.437-.218-1.81-.135-.267-.484-.634-.764-.802-.484-.292-.15-.276-6.017-.276s-5.533-.016-6.017.276c-.28.168-.629.535-.764.802-.197.388-.219.567-.219 1.789v1.135l-.65-.014c-.622-.012-.658-.018-.834-.121a1.05 1.05 0 0 1-.458-.556c-.088-.252-.086-5.326.003-5.626.079-.269.351-.547.612-.627.16-.049 1.357-.058 8.31-.06 7.161-.003 8.147.004 8.327.058M17 18v3H7v-6h10z"/></svg>