<svg xmlns="http://www.w3.org/2000/svg" width="24" height="24" fill="none" stroke="currentColor" stroke-linecap="round" stroke-linejoin="round" stroke-width="2"><path fill="#000" fill-rule="evenodd" stroke="none" d="M3.499 3.043C2.38 3.232 1.461 4.048 1.114 5.16l-.094.3v13.08l.094.3a3.09 3.09 0 0 0 2.046 2.046l.3.094h17.08l.3-.094a3.09 3.09 0 0 0 2.046-2.046l.094-.3V5.46l-.094-.3a3.09 3.09 0 0 0-2.025-2.039l-.321-.101-8.42-.006c-4.631-.003-8.511.01-8.621.029M20.31 5.061c.279.083.546.35.629.629.053.179.061.961.061 6.311 0 5.058-.009 6.138-.055 6.289a1.02 1.02 0 0 1-.461.582l-.184.108-1.149.012-1.149.012-.011-4.292-.011-4.292-.094-.28c-.33-.982-1.065-1.715-2.025-2.019l-.321-.101-6.27-.011L3 7.998V6.946c0-1.243.022-1.361.304-1.643a.9.9 0 0 1 .369-.24c.16-.049 1.357-.058 8.31-.06 7.161-.003 8.147.004 8.327.058M11 14.501v4.501l-3.65-.011-3.65-.011-.184-.108a1.2 1.2 0 0 1-.291-.249C2.99 18.315 3 18.511 3 14.075V10h8zm4.31-4.44c.279.083.546.35.629.629.053.177.061.746.061 4.257V19h-3v-9h1.053c.826 0 1.097.013 1.257.061"/></svg>