<svg xmlns="http://www.w3.org/2000/svg" width="24" height="24" fill="none" stroke="currentColor" stroke-linecap="round" stroke-linejoin="round" stroke-width="2"><path fill="#000" fill-rule="evenodd" stroke="none" d="M11.414 1.056a3.43 3.43 0 0 0-1.574.724c-.143.117-.693.651-1.223 1.187C7.593 4.002 7.516 4.105 7.38 4.625c-.168.648.034 1.376.52 1.87.252.255.476.391.842.507.593.19.885.421 1.11.877.116.235.128.293.126.62-.002.306-.019.398-.113.605-.122.27-.428.597-.682.731-.548.288-1.291.168-1.737-.28-.204-.205-.296-.373-.43-.785-.128-.39-.263-.616-.521-.87-.492-.484-1.226-.687-1.873-.519-.493.128-.659.254-1.696 1.278-.535.528-1.061 1.07-1.168 1.204a3.7 3.7 0 0 0-.623 1.197c-.098.322-.11.422-.11.94s.012.618.11.94a3.7 3.7 0 0 0 .624 1.197c.108.134.583.629 1.056 1.101l.861.857-.268.086a3.4 3.4 0 0 0-1.43.904 3.6 3.6 0 0 0-.867 1.503c-.119.416-.127 1.326-.015 1.745.181.68.514 1.241 1.018 1.712.462.433.94.696 1.566.863.373.099 1.279.098 1.66-.003 1.171-.309 2.122-1.196 2.479-2.313l.086-.268.857.861c.472.473.967.948 1.101 1.056a3.7 3.7 0 0 0 1.197.624c.322.098.422.11.94.11.516 0 .619-.012.932-.108a3.6 3.6 0 0 0 .988-.46c.25-.163 2.08-1.953 2.338-2.287a1.983 1.983 0 0 0-.376-2.803 1.9 1.9 0 0 0-.702-.345c-.497-.151-.818-.416-1.032-.851-.116-.234-.128-.294-.127-.62 0-.31.016-.395.112-.601.147-.317.454-.625.763-.765.207-.094.299-.111.604-.112.309-.002.393.013.589.105.283.132.61.432.73.671.05.1.122.289.159.421.294 1.029 1.383 1.664 2.4 1.399.493-.128.659-.254 1.696-1.278.535-.528 1.061-1.07 1.168-1.204.266-.334.493-.769.622-1.197.097-.319.109-.425.11-.94.001-.518-.01-.617-.107-.932-.236-.768-.413-1.016-1.562-2.178-.528-.533-.951-.976-.942-.984s.116-.047.237-.086a3.4 3.4 0 0 0 1.405-.89c.442-.468.719-.945.884-1.518.117-.41.128-1.327.019-1.732a3.5 3.5 0 0 0-.844-1.548 3.5 3.5 0 0 0-1.684-1.017c-.434-.118-1.307-.128-1.72-.019a3.64 3.64 0 0 0-1.581.891c-.432.407-.795.996-.923 1.495l-.051.197-.982-.971c-.985-.972-1.227-1.171-1.693-1.389-.567-.266-1.42-.377-2.016-.263m1.175 2.083c.185.085.413.288 1.268 1.134 1.111 1.097 1.267 1.216 1.765 1.346a2 2 0 0 0 1.873-.519c.258-.254.393-.48.521-.87.054-.166.133-.37.177-.455.117-.231.394-.483.686-.627.235-.116.293-.128.62-.126.307.001.397.018.601.112.317.145.624.452.765.762.094.207.111.299.113.605.002.327-.01.385-.126.62-.214.435-.535.7-1.032.851-.317.096-.47.171-.702.345-.638.48-.934 1.305-.738 2.058.137.525.206.616 1.326 1.748 1.23 1.244 1.27 1.303 1.27 1.877 0 .57-.055.654-1.146 1.749l-.925.928-.086-.268a3.27 3.27 0 0 0-.898-1.422 3.64 3.64 0 0 0-1.581-.891c-.413-.109-1.286-.099-1.72.019-1.252.339-2.186 1.283-2.524 2.552-.112.419-.104 1.329.015 1.745a3.6 3.6 0 0 0 1.829 2.218c.132.066.344.153.47.192.127.04.23.083.23.096 0 .014-.409.432-.91.931-1.076 1.072-1.166 1.131-1.73 1.131-.569 0-.635-.045-1.857-1.253-1.111-1.097-1.267-1.216-1.765-1.346-1.015-.264-2.106.372-2.4 1.399-.151.531-.415.863-.848 1.069a1.51 1.51 0 0 1-1.313-.014 1.8 1.8 0 0 1-.683-.731c-.096-.209-.112-.296-.113-.605-.001-.326.011-.386.127-.62.225-.456.517-.687 1.11-.877.366-.116.59-.252.842-.507.483-.491.688-1.223.522-1.862-.138-.528-.21-.624-1.329-1.756-1.23-1.245-1.271-1.306-1.271-1.877 0-.567.056-.653 1.148-1.749l.925-.928.086.268a3.56 3.56 0 0 0 1.357 1.808c.263.181.79.419 1.122.506.381.101 1.287.102 1.66.003.685-.182 1.134-.442 1.64-.948s.765-.953.948-1.64c.109-.405.098-1.322-.019-1.732-.327-1.138-1.204-2.057-2.298-2.407l-.268-.086.928-.923c.918-.912 1.088-1.048 1.418-1.131.248-.062.667-.018.92.098"/></svg>