<svg xmlns="http://www.w3.org/2000/svg" width="24" height="24" fill="none" stroke="currentColor" stroke-linecap="round" stroke-linejoin="round" stroke-width="2"><path fill="#000" fill-rule="evenodd" stroke="none" d="M11.528 1.062a2 2 0 0 0-.908.518c-.172.171-1.544 2.125-4.786 6.82-2.499 3.619-4.582 6.656-4.629 6.749-.423.837-.153 1.929.609 2.466.135.095 2.181 1.278 4.546 2.628 4.98 2.844 4.758 2.736 5.64 2.735.88-.001.627.122 5.607-2.719 2.383-1.359 4.441-2.547 4.573-2.64.387-.273.629-.635.757-1.128.122-.469.07-.943-.149-1.36-.07-.135-2.162-3.185-4.647-6.778-3.212-4.643-4.589-6.602-4.761-6.773-.488-.485-1.217-.689-1.852-.518m-.544 19.487c-.009.009-1.807-1.006-3.997-2.255-2.527-1.442-3.971-2.288-3.954-2.316.015-.025 1.809-2.622 3.987-5.772l3.96-5.727.01 8.027c.006 4.415.003 8.034-.006 8.043m6.035-10.289a992 992 0 0 1 3.971 5.763c-.029.026-7.953 4.537-7.97 4.537-.011 0-.02-3.621-.02-8.047 0-4.425.009-8.038.019-8.027.011.01 1.811 2.609 4 5.774"/></svg>