<svg xmlns="http://www.w3.org/2000/svg" width="24" height="24" fill="none" stroke="currentColor" stroke-linecap="round" stroke-linejoin="round" stroke-width="2"><path fill="#000" fill-rule="evenodd" stroke="none" d="M3.477 2.073c-.671.176-1.239.75-1.417 1.435C2.011 3.694 2 4.066 2 5.5c0 1.911.009 2.003.225 2.43.136.269.576.709.845.845.427.216.52.225 2.423.225s2.013-.01 2.444-.229c.26-.132.702-.574.834-.834.219-.431.229-.541.228-2.423 0-1.872-.014-2.03-.218-2.431-.135-.267-.484-.634-.764-.802-.439-.265-.547-.276-2.517-.276-1.535 0-1.794.008-2.023.068m8.218-.018a1.05 1.05 0 0 0-.567.461c-.091.156-.108.23-.108.484 0 .257.016.327.113.492.518.882 1.865.526 1.865-.492a.99.99 0 0 0-.535-.888 1.17 1.17 0 0 0-.768-.057m4.782.018c-.671.176-1.239.75-1.417 1.435-.049.186-.06.558-.06 1.992 0 1.911.009 2.003.225 2.43.136.269.576.709.845.845.427.216.519.225 2.43.225s2.003-.009 2.43-.225c.266-.135.708-.575.841-.838.219-.431.229-.541.228-2.423 0-1.872-.014-2.03-.218-2.431-.135-.267-.484-.634-.764-.802-.439-.265-.547-.276-2.517-.276-1.535 0-1.794.008-2.023.068M7 5.5V7H4V4h3zm13 0V7h-3V4h3zm-8.305.557a1.04 1.04 0 0 0-.567.459l-.108.184-.021 1.78c-.014 1.288-.034 1.811-.07 1.893a1.14 1.14 0 0 1-.445.499l-.184.108-1.78.021c-1.288.014-1.811.034-1.893.07a1.14 1.14 0 0 0-.499.445c-.091.156-.108.23-.108.484 0 .257.016.327.113.492.129.22.369.409.597.471.104.028.785.037 2.004.028 1.802-.014 1.853-.016 2.126-.106a3.11 3.11 0 0 0 2.026-2.045c.093-.297.094-.319.094-2.22V6.7l-.108-.184a1.005 1.005 0 0 0-1.177-.459m-9 4.998a1.05 1.05 0 0 0-.567.461c-.091.156-.108.23-.108.484 0 .257.016.327.113.492.518.882 1.865.526 1.865-.492a.99.99 0 0 0-.535-.888 1.17 1.17 0 0 0-.768-.057m13 .002a1.04 1.04 0 0 0-.567.459c-.091.156-.108.23-.108.484 0 .256.016.328.111.489.125.213.318.375.539.454.208.074 1.452.074 1.66 0 .221-.079.414-.241.539-.454.095-.161.111-.233.111-.489 0-.254-.017-.328-.108-.484a1.02 1.02 0 0 0-.582-.461c-.24-.072-1.362-.071-1.595.002m5 0a1.04 1.04 0 0 0-.567.459c-.092.156-.108.229-.107.484.001.332.08.533.285.728.479.453 1.274.318 1.587-.268.132-.249.122-.7-.021-.944a1.005 1.005 0 0 0-1.177-.459M3.477 15.073c-.671.176-1.239.75-1.417 1.435-.049.186-.06.558-.06 1.992 0 1.911.009 2.003.225 2.43.136.269.576.709.845.845.427.216.52.225 2.423.225s2.013-.01 2.444-.229c.26-.132.702-.574.834-.834.219-.431.229-.541.228-2.423 0-1.872-.014-2.03-.218-2.431-.135-.267-.484-.634-.764-.802-.439-.265-.547-.276-2.517-.276-1.535 0-1.794.008-2.023.068m8.218-.016a1.04 1.04 0 0 0-.567.459c-.092.156-.108.229-.107.484.001.332.08.533.285.728.479.453 1.274.318 1.587-.268.132-.249.122-.7-.021-.944a1.005 1.005 0 0 0-1.177-.459m5.804-.014c-1.116.187-2.038 1.005-2.385 2.117-.093.297-.094.318-.094 2.223v1.923l.121.197a.998.998 0 0 0 1.718 0l.121-.197.02-1.783c.022-2 .014-1.941.321-2.24.284-.275.345-.283 2.216-.285 1.768-.002 1.808-.006 2.082-.215.077-.058.189-.191.25-.294.095-.161.111-.233.111-.489 0-.254-.017-.328-.108-.484a1.2 1.2 0 0 0-.254-.295c-.28-.213-.362-.221-2.214-.216-.937.002-1.795.02-1.905.038M7 18.5V20H4v-3h3zm4.695.557a1.04 1.04 0 0 0-.567.459c-.108.183-.108.187-.108.987v.803l.121.197a.998.998 0 0 0 1.718 0l.121-.197v-.803c0-.8 0-.804-.108-.987a1.005 1.005 0 0 0-1.177-.459m9 1a1.04 1.04 0 0 0-.567.459c-.092.156-.108.229-.107.484.001.332.08.533.285.728.479.453 1.274.318 1.587-.268.132-.249.122-.7-.021-.944a1.005 1.005 0 0 0-1.177-.459"/></svg>