<svg xmlns="http://www.w3.org/2000/svg" width="24" height="24" fill="none" stroke="currentColor" stroke-linecap="round" stroke-linejoin="round" stroke-width="2"><path fill="#000" fill-rule="evenodd" stroke="none" d="M4.499 2.042A3.05 3.05 0 0 0 2.114 4.16l-.094.3v7.08l.094.3c.369 1.184 1.397 2.036 2.584 2.144l.302.027v.548c0 .61-.046.829-.221 1.059-.184.241-.403.343-.827.383-.477.046-.721.121-1.015.311-.438.284-.751.71-.877 1.196-.087.331-.087 2.653 0 2.984.093.36.25.626.536.912.475.475.896.621 1.684.582a6.6 6.6 0 0 0 2.1-.413 7.02 7.02 0 0 0 4.416-4.913c.186-.756.184-.687.184-6.6v-5.6l-.094-.3a3.08 3.08 0 0 0-2.025-2.037l-.321-.1-1.92-.008c-1.056-.004-2.011.008-2.121.027m11 0a3.05 3.05 0 0 0-2.385 2.118l-.094.3v7.08l.094.3c.369 1.184 1.397 2.036 2.584 2.144l.302.027v.548c0 .61-.046.829-.221 1.059-.184.241-.403.343-.827.383-.477.046-.721.121-1.015.311-.438.284-.751.71-.877 1.196-.087.331-.087 2.653 0 2.984.093.36.25.626.536.912.475.475.896.621 1.684.582a6.6 6.6 0 0 0 2.1-.413 7.02 7.02 0 0 0 4.416-4.913c.186-.756.184-.687.184-6.6v-5.6l-.094-.3a3.08 3.08 0 0 0-2.025-2.037l-.321-.1-1.92-.008c-1.056-.004-2.011.008-2.121.027M8.31 4.061c.279.083.546.35.629.629.053.178.061.859.061 5.339 0 3.356-.015 5.269-.043 5.523a4.6 4.6 0 0 1-.559 1.801 5.01 5.01 0 0 1-4.068 2.635l-.33.024v-2.001l.302-.027c1.178-.107 2.203-.95 2.58-2.124.079-.246.092-.387.108-1.16.019-.962-.016-1.237-.206-1.612-.212-.419-.73-.861-1.161-.99a4 4 0 0 0-.575-.097c-.547-.052-.837-.253-.99-.685-.089-.253-.087-6.325.003-6.626.079-.269.351-.547.612-.627.283-.087 3.345-.089 3.637-.002m11 0c.279.083.546.35.629.629.053.178.061.859.061 5.339 0 3.356-.015 5.269-.043 5.523a4.6 4.6 0 0 1-.559 1.801 5.01 5.01 0 0 1-4.068 2.635l-.33.024v-2.001l.302-.027c1.178-.107 2.203-.95 2.58-2.124.079-.246.092-.387.108-1.16.019-.962-.016-1.237-.206-1.612-.212-.419-.73-.861-1.161-.99a4 4 0 0 0-.575-.097c-.422-.04-.643-.142-.823-.378-.232-.304-.225-.198-.225-3.621 0-3.556-.014-3.381.307-3.703.289-.289.319-.293 2.176-.296 1.342-.003 1.658.008 1.827.058"/></svg>