<svg xmlns="http://www.w3.org/2000/svg" width="24" height="24" fill="none" stroke="currentColor" stroke-linecap="round" stroke-linejoin="round" stroke-width="2"><path fill="#000" fill-rule="evenodd" stroke="none" d="M17.499 1.04a3.06 3.06 0 0 0-2.38 2.1c-.072.227-.093.408-.109.953l-.02.672-1.065-1.054c-1.274-1.262-1.478-1.41-2.19-1.592a3.4 3.4 0 0 0-1.479.001c-.836.212-1.556.8-1.937 1.58-.207.425-.286.784-.286 1.3 0 .641.156 1.174.49 1.667.071.106.661.728 1.31 1.382.763.767 1.161 1.195 1.124 1.207l-.497.164c-.831.272-1.815.81-2.475 1.354-.295.242-.346.262-.428.162a2 2 0 0 0-.275-.215c-1.41-.956-3.155-.952-4.582.012-.352.237-.85.765-1.092 1.156-.508.821-.717 1.89-.545 2.796.162.852.522 1.54 1.117 2.135a3.98 3.98 0 0 0 2.567 1.167l.366.025.027.144c.043.236.22.723.386 1.059.669 1.361 1.905 2.318 3.474 2.69.276.066.647.072 4.711.084 2.932.009 4.463 0 4.564-.028.223-.06.464-.251.592-.469.097-.165.113-.235.113-.492 0-.254-.017-.328-.108-.484-.244-.415-.514-.516-1.381-.516-.568 0-.615-.005-.595-.07.05-.165.103-.61.104-.862.001-.746.324-1.352.937-1.754.391-.256.523-.281 1.643-.314.872-.026 1.036-.041 1.28-.119a3.1 3.1 0 0 0 2.026-2.041c.089-.284.094-.359.094-1.4 0-1.164-.03-1.482-.202-2.16-.276-1.086-.878-2.206-1.574-2.931l-.184-.192-.021-2.368c-.021-2.342-.023-2.372-.114-2.649-.325-.982-1.085-1.736-2.024-2.011-.361-.106-1.029-.149-1.362-.089m.811 2.021c.279.083.546.35.629.629.082.275.092 3.013.011 2.976-.525-.237-1.365-.501-1.8-.567L17 6.076V4.985c0-1.286.02-1.399.304-1.682q.417-.418 1.006-.242m-6.919 1.041c.101.042.746.657 2.009 1.915 2.122 2.114 1.91 1.959 2.74 1.999.634.031.917.08 1.415.247a5 5 0 0 1 3.182 3.182c.076.228.159.532.184.675.07.4.099 1.847.043 2.098a1.04 1.04 0 0 1-.478.653c-.184.108-.196.109-1.126.136-.962.028-1.274.07-1.704.231a4.5 4.5 0 0 0-1.463.912l-.192.18-.243-.225a4.08 4.08 0 0 0-2.449-1.088c-.584-.047-.951.107-1.18.497-.093.158-.109.231-.109.489 0 .268.014.326.121.5.153.249.438.445.69.475.908.108 1.156.206 1.57.621.599.598.754 1.386.433 2.193l-.085.212-2.664-.013-2.665-.012-.28-.094a3.2 3.2 0 0 1-1.032-.564c-.859-.736-1.19-1.606-1.074-2.823.054-.563.14-.984.295-1.438.59-1.732 2-3.141 3.731-3.731.519-.177.881-.245 1.56-.293.886-.062.919-.068 1.128-.208a.99.99 0 0 0 .392-1.153c-.066-.202-.192-.337-2.023-2.175-1.331-1.335-1.973-2.007-2.015-2.109-.077-.184-.081-.589-.007-.765a1.1 1.1 0 0 1 .476-.502c.206-.102.602-.113.82-.022m6.304 6.953a1.05 1.05 0 0 0-.567.461c-.091.156-.108.23-.108.484 0 .257.016.327.113.492.518.882 1.865.526 1.865-.492a.99.99 0 0 0-.535-.888 1.17 1.17 0 0 0-.768-.057m-12.287.989c.264.055.65.236.822.384l.129.112-.142.22a9.4 9.4 0 0 0-.714 1.453c-.17.455-.368 1.212-.407 1.552L5.07 16h-.165c-.656-.002-1.384-.492-1.69-1.138-.203-.427-.254-.803-.165-1.231.093-.453.238-.725.547-1.032.5-.495 1.147-.693 1.811-.555"/></svg>