<svg xmlns="http://www.w3.org/2000/svg" width="24" height="24" fill="none" stroke="currentColor" stroke-linecap="round" stroke-linejoin="round" stroke-width="2"><path fill="#000" fill-rule="evenodd" stroke="none" d="M11.029 1.042a11 11 0 0 0-4.123 1.211c-.528.275-.717.434-.83.696a.995.995 0 0 0 .929 1.382c.196-.002.294-.037.743-.263 1.001-.506 1.666-.735 2.692-.929 1.507-.285 3.287-.113 4.773.462.747.289 1.736.838 2.22 1.232l.172.141-.707.708-.708.709-.319-.217c-.71-.483-1.664-.874-2.595-1.061-.607-.122-1.929-.133-2.496-.019-1.779.355-3.196 1.199-4.273 2.546a6.98 6.98 0 0 0-1.21 6.388c.376 1.206.869 2.02 1.765 2.915.617.616.786.718 1.178.714a.982.982 0 0 0 .943-1.272c-.059-.203-.114-.272-.6-.754-.363-.361-.607-.643-.762-.881A4.94 4.94 0 0 1 7 12.002c0-1.367.501-2.583 1.46-3.542a5 5 0 0 1 2.289-1.309c.439-.116.52-.124 1.191-.127.464-.003.805.015.96.049.636.141 1.119.322 1.597.599l.26.152-.728.725-.729.726-.283-.096c-1.658-.563-3.384.312-3.903 1.981-.078.252-.093.387-.093.84s.015.588.093.84a3.09 3.09 0 0 0 2.046 2.046c.434.135 1.246.135 1.68 0a3.09 3.09 0 0 0 2.046-2.046c.08-.257.094-.381.092-.86-.002-.521-.011-.585-.127-.92l-.125-.36 2.593-2.6c1.426-1.43 2.626-2.663 2.666-2.74.106-.204.1-.648-.013-.862-.244-.463-1.671-1.594-2.732-2.167a11.2 11.2 0 0 0-6.211-1.289M3.695 5.055a1.05 1.05 0 0 0-.567.461c-.091.156-.108.23-.108.484 0 .257.016.327.113.492.518.882 1.865.526 1.865-.492a.99.99 0 0 0-.535-.888 1.17 1.17 0 0 0-.768-.057m17.203 2.4a1.2 1.2 0 0 0-.344.259c-.276.323-.301.656-.093 1.234.848 2.357.669 5.016-.484 7.204-.923 1.752-2.323 3.109-4.074 3.952a8.94 8.94 0 0 1-7.843-.021 9 9 0 0 1-4.965-6.831A9 9 0 0 1 3.027 12c0-.802.036-1.17.18-1.856.13-.619.075-.936-.215-1.226-.474-.474-1.355-.319-1.606.282-.079.188-.245 1.001-.312 1.52-.068.535-.069 2.058-.001 2.56.341 2.53 1.341 4.616 3.064 6.391 1.696 1.748 3.856 2.847 6.343 3.229.581.089 1.865.123 2.461.064 2.438-.241 4.616-1.185 6.379-2.764a10.94 10.94 0 0 0 3.217-5.051c.565-1.866.607-3.973.117-5.869-.165-.64-.451-1.419-.577-1.572a1.01 1.01 0 0 0-1.179-.253m-3.318 3.301c-.216.099-.445.339-.516.539-.036.103-.067.393-.08.765-.032.889-.175 1.477-.536 2.2-.246.495-.529.868-1.053 1.389-.464.462-.519.531-.578.734-.139.481.078.962.543 1.2.215.109.611.1.856-.02.27-.132 1.135-1.003 1.473-1.483A7.16 7.16 0 0 0 19 12.005c0-.691-.149-1.017-.563-1.226a1.1 1.1 0 0 0-.857-.023m-5.27.305c.378.112.69.537.69.94 0 .33-.216.695-.516.871-.156.091-.23.108-.484.108s-.328-.017-.484-.108c-.581-.342-.683-1.098-.212-1.569q.417-.418 1.006-.242m-.615 5.994a1.05 1.05 0 0 0-.567.461c-.091.156-.108.23-.108.484 0 .257.016.327.113.492.518.882 1.865.526 1.865-.492a.99.99 0 0 0-.535-.888 1.17 1.17 0 0 0-.768-.057"/></svg>