<svg xmlns="http://www.w3.org/2000/svg" width="24" height="24" fill="none" stroke="currentColor" stroke-linecap="round" stroke-linejoin="round" stroke-width="2"><path fill="#000" fill-rule="evenodd" stroke="none" d="M3.499 7.043C2.38 7.232 1.461 8.048 1.114 9.16l-.094.3v5.08l.094.3c.369 1.182 1.397 2.036 2.581 2.143l.298.027.014.648c.013.642.014.651.134.845a.998.998 0 0 0 1.718 0c.12-.195.121-.203.134-.85L6.007 17h11.986l.014.653c.013.647.014.655.134.85.068.11.205.253.311.325.471.316 1.102.171 1.407-.325.12-.194.121-.203.134-.845l.014-.648.298-.027c1.184-.107 2.212-.961 2.581-2.143l.094-.3V9.46l-.094-.3a3.09 3.09 0 0 0-2.025-2.039l-.321-.101-8.42-.006c-4.631-.003-8.511.01-8.621.029M20.31 9.061c.279.083.546.35.629.629.086.288.091 4.317.006 4.6a1.02 1.02 0 0 1-.461.582l-.184.108H3.7l-.184-.108a1.02 1.02 0 0 1-.461-.582c-.085-.283-.08-4.312.006-4.6.079-.269.351-.547.612-.627.16-.049 1.357-.058 8.31-.06 7.161-.003 8.147.004 8.327.058m-2.615 1.994a1.05 1.05 0 0 0-.567.461c-.091.156-.108.23-.108.484 0 .257.016.327.113.492.518.882 1.865.526 1.865-.492a.99.99 0 0 0-.535-.888 1.17 1.17 0 0 0-.768-.057"/></svg>