<svg xmlns="http://www.w3.org/2000/svg" width="24" height="24" fill="none" stroke="currentColor" stroke-linecap="round" stroke-linejoin="round" stroke-width="2"><path fill="#000" fill-rule="evenodd" stroke="none" d="M14.405 3.045c-.549.091-1.163.566-1.408 1.088-.101.217-.371 1.443-1.589 7.224-.808 3.829-1.477 6.963-1.488 6.963s-.406-1.337-.877-2.97c-.472-1.634-.911-3.087-.977-3.23-.24-.523-.852-.984-1.432-1.078-.406-.066-3.698-.055-3.924.013a1.02 1.02 0 0 0-.582.461c-.091.156-.108.23-.108.484 0 .256.016.328.111.489.061.103.173.236.25.294.275.21.308.213 2.167.215L6.277 13l.079.27c.044.148.557 1.926 1.142 3.95s1.106 3.773 1.16 3.886c.183.388.514.666.939.79a1.5 1.5 0 0 0 1.818-.965c.034-.105.802-3.701 1.705-7.991.904-4.29 1.653-7.831 1.664-7.87.02-.066.209-.07 3.209-.072 2.558-.001 3.217-.012 3.337-.055.221-.079.414-.241.539-.454.095-.161.111-.233.111-.489 0-.254-.017-.328-.108-.484a1.2 1.2 0 0 0-.254-.295c-.295-.225-.232-.221-3.754-.216-1.784.002-3.341.02-3.459.04"/></svg>