<svg xmlns="http://www.w3.org/2000/svg" width="24" height="24" fill="none" stroke="currentColor" stroke-linecap="round" stroke-linejoin="round" stroke-width="2"><path fill="#000" fill-rule="evenodd" stroke="none" d="M4.447 4.024c-.48.239-1.607 1.681-2.201 2.816a11.09 11.09 0 0 0-.459 9.32c.495 1.234 1.149 2.268 2.11 3.335.346.384.547.528.806.574a.987.987 0 0 0 1.166-1.168c-.042-.235-.11-.338-.501-.761-1.399-1.513-2.264-3.558-2.36-5.58-.125-2.614.679-4.877 2.393-6.736.181-.196.363-.432.404-.526a1 1 0 0 0-.104-.983 1.004 1.004 0 0 0-1.254-.291m14.197.001a.98.98 0 0 0-.516 1.077c.05.237.121.344.486.738a8.9 8.9 0 0 1 1.511 2.22c.61 1.263.874 2.429.875 3.861 0 1.131-.109 1.838-.441 2.848-.403 1.226-1.017 2.266-1.919 3.251-.202.22-.403.479-.447.575-.1.216-.107.567-.015.787.145.348.548.617.922.617.326 0 .55-.133.971-.578 1.539-1.626 2.499-3.64 2.852-5.981.113-.747.124-2.088.024-2.824-.32-2.345-1.227-4.309-2.801-6.061-.457-.51-.664-.635-1.046-.635a.9.9 0 0 0-.456.105M7.369 6.804c-.289.144-.887.85-1.278 1.509-1.398 2.356-1.341 5.301.147 7.533.345.517.863 1.106 1.081 1.229.463.26 1.072.087 1.348-.383.097-.165.113-.234.112-.492-.001-.361-.041-.447-.4-.848a5.103 5.103 0 0 1 .008-6.804c.281-.316.412-.586.412-.848 0-.37-.269-.777-.608-.918-.219-.091-.614-.08-.822.022m8.526.053a1.04 1.04 0 0 0-.567.459c-.092.156-.108.229-.107.484.001.361.041.447.4.848 1.191 1.336 1.586 3.108 1.079 4.85a5.55 5.55 0 0 1-1.11 1.982c-.476.526-.518 1.04-.123 1.48.204.227.43.328.733.328.34 0 .524-.097.845-.443 1.571-1.696 2.216-4.139 1.695-6.425-.267-1.175-.899-2.352-1.712-3.187-.247-.254-.336-.318-.511-.37-.251-.075-.398-.076-.622-.006M11.499 9.04a3.05 3.05 0 0 0-2.385 2.12c-.135.434-.135 1.246 0 1.68a3.09 3.09 0 0 0 2.046 2.046c.434.135 1.246.135 1.68 0a3.09 3.09 0 0 0 2.046-2.046c.135-.434.135-1.246 0-1.68-.305-.981-1.076-1.753-2.025-2.031-.361-.106-1.029-.149-1.362-.089m.811 2.021c.378.112.69.537.69.94 0 .33-.216.695-.516.871-.156.091-.23.108-.484.108s-.328-.017-.484-.108c-.581-.342-.683-1.098-.212-1.569q.417-.418 1.006-.242"/></svg>