<svg xmlns="http://www.w3.org/2000/svg" width="24" height="24" fill="none" stroke="currentColor" stroke-linecap="round" stroke-linejoin="round" stroke-width="2"><path fill="#000" fill-rule="evenodd" stroke="none" d="M6.14 2.736c-.273.087-.468.205-.901.548-.782.619-1.685 1.582-2.284 2.436-1.09 1.552-1.862 3.647-1.941 5.26-.018.38-.009.473.063.677a2 2 0 0 0 1.428 1.283c.212.054.619.061 3.02.051L8.3 12.98l.192-.113c.218-.128.412-.372.463-.583.019-.079.054-.333.078-.564.052-.508.155-.854.356-1.2.199-.343.641-.782 1-.993.315-.185.457-.341.55-.605a.9.9 0 0 0 .006-.627c-.031-.085-.477-.893-.992-1.795a334 334 0 0 1-1.315-2.318c-.515-.925-.855-1.256-1.475-1.438-.259-.076-.795-.08-1.023-.008m10.833.042c-.663.15-.88.338-1.461 1.269-.624.999-2.345 3.889-2.436 4.09a1 1 0 0 0-.075.338c-.002.397.178.681.613.972a3.1 3.1 0 0 1 1.107 1.282c.139.293.224.665.276 1.204.043.444.144.668.384.85.285.218.225.214 3.179.213 2.46-.001 2.767-.008 3.003-.069a1.94 1.94 0 0 0 1.401-1.531c.061-.344.017-.83-.147-1.625a11.05 11.05 0 0 0-2.776-5.348c-.662-.696-1.683-1.481-2.08-1.599a2.2 2.2 0 0 0-.988-.046M6.96 5.29c.163.292.608 1.077.988 1.746.381.669.692 1.225.692 1.236s-.131.156-.291.324A4.8 4.8 0 0 0 7.22 10.54l-.123.41c-.011.039-.457.05-2.053.05H3.005l.021-.15a9 9 0 0 1 .834-2.71c.468-.952.969-1.676 1.659-2.396.387-.404 1.036-.984 1.101-.984.024 0 .177.238.34.53m10.834-.214c1.624 1.296 2.808 3.364 3.128 5.464.023.154.051.321.061.37l.019.09H18.96c-1.599 0-2.046-.011-2.057-.05l-.123-.41a5.1 5.1 0 0 0-1.154-2.008l-.292-.312.903-1.504C17.292 4.96 17.391 4.8 17.424 4.8c.014 0 .18.124.37.276m-6.099 5.979a1.05 1.05 0 0 0-.567.461c-.091.156-.108.23-.108.484 0 .257.016.327.113.492.518.882 1.865.526 1.865-.492a.99.99 0 0 0-.535-.888 1.17 1.17 0 0 0-.768-.057m-2.078 3.522c-.272.118-.422.316-1.093 1.439-.905 1.517-1.919 3.309-2.039 3.604-.317.778.002 1.79.705 2.234.607.383 2.155.869 3.358 1.054.605.093 2.299.093 2.904 0 1.203-.185 2.751-.671 3.358-1.054.703-.444 1.022-1.456.705-2.234-.12-.295-1.134-2.087-2.039-3.604-.826-1.382-.938-1.496-1.476-1.496-.203 0-.308.03-.632.178-.515.236-.849.312-1.368.312s-.853-.076-1.368-.312c-.332-.152-.426-.178-.64-.176-.139 0-.307.025-.375.055m1.456 2.37c.676.132 1.8.073 2.362-.125l.16-.057.418.708c.229.389.647 1.112.927 1.607.281.495.545.957.586 1.027l.076.126-.411.161a8.73 8.73 0 0 1-5.393.325c-.347-.088-1.119-.355-1.288-.444l-.103-.055.149-.26c.083-.143.345-.602.582-1.02.238-.418.62-1.078.85-1.467l.417-.708.16.057c.089.031.317.087.508.125"/></svg>