<svg xmlns="http://www.w3.org/2000/svg" width="24" height="24" fill="none" stroke="currentColor" stroke-linecap="round" stroke-linejoin="round" stroke-width="2"><path fill="#000" fill-rule="evenodd" stroke="none" d="M9.67 3.061c-.222.081-.42.248-.542.455-.092.156-.108.229-.107.484 0 .212.022.341.074.44.04.077.841.91 1.779 1.85L12.579 8H8.736c-4.171 0-4.056-.006-4.354.221-.08.061-.195.194-.254.295-.091.156-.108.23-.108.484 0 .256.016.328.111.489.125.213.318.375.539.454.121.043.893.054 4.03.055l3.88.002-2 2-2 2H6.737c-2.002 0-2.074.007-2.355.221-.08.061-.195.194-.254.295-.091.156-.108.23-.108.484 0 .256.016.328.111.489.125.213.318.375.539.454.117.042.564.054 2.03.055L8.58 16l2.38 2.383c1.309 1.31 2.456 2.427 2.548 2.482.459.274 1.079.103 1.359-.373.097-.165.113-.234.112-.492 0-.212-.022-.341-.074-.44-.04-.077-.841-.909-1.779-1.85L11.421 16l3.88-.002c3.136-.001 3.908-.012 4.029-.055.221-.079.414-.241.539-.454.095-.161.111-.233.111-.489 0-.254-.017-.328-.108-.484a1.2 1.2 0 0 0-.254-.295c-.298-.227-.183-.221-4.354-.221H11.42l2-2 2-2 1.88-.002c1.466-.001 1.913-.013 2.03-.055.221-.079.414-.241.539-.454.095-.161.111-.233.111-.489 0-.254-.017-.328-.108-.484a1.2 1.2 0 0 0-.254-.295C19.337 8.007 19.265 8 17.265 8h-1.843l-2.441-2.435c-2.211-2.205-2.46-2.441-2.638-2.5a1 1 0 0 0-.673-.004"/></svg>