<svg xmlns="http://www.w3.org/2000/svg" width="24" height="24" fill="none" stroke="currentColor" stroke-linecap="round" stroke-linejoin="round" stroke-width="2"><path fill="#000" fill-rule="evenodd" stroke="none" d="m11.28 6.023-.56.06c-1.888.2-3.729.94-5.36 2.152-.609.453-1.676 1.52-2.134 2.132a11.06 11.06 0 0 0-2.189 5.736c-.068.812-.041 1.164.107 1.405a.998.998 0 0 0 1.71.002c.109-.176.119-.229.151-.76.063-1.077.182-1.747.461-2.59A8.98 8.98 0 0 1 8.06 8.92c1.319-.64 2.447-.897 3.94-.897s2.621.257 3.94.897a8.98 8.98 0 0 1 4.594 5.24c.279.843.398 1.513.461 2.59.032.531.042.584.151.76a1 1 0 0 0 1.71-.002c.148-.242.175-.587.106-1.399a11.04 11.04 0 0 0-2.192-5.746c-.454-.608-1.523-1.677-2.13-2.128-1.595-1.186-3.275-1.875-5.217-2.139-.423-.058-1.849-.106-2.143-.073m.26 4c-.825.079-1.29.177-1.92.404a7.02 7.02 0 0 0-4.538 5.529c-.073.488-.096 1.127-.047 1.308.064.234.251.473.473.603.165.097.235.113.492.113s.327-.016.492-.113c.218-.128.412-.372.463-.583a8 8 0 0 0 .08-.684c.026-.297.079-.666.119-.82a5.05 5.05 0 0 1 3.606-3.619c.933-.241 2.115-.178 2.992.159a5.08 5.08 0 0 1 3.094 3.46c.04.154.093.523.119.82s.061.605.08.684c.051.211.245.455.463.583.165.097.235.113.492.113s.327-.016.492-.113c.222-.13.409-.369.473-.603.08-.292-.004-1.248-.17-1.924-.665-2.722-2.951-4.827-5.693-5.242-.376-.057-1.289-.101-1.562-.075m-.041 4.017a3.05 3.05 0 0 0-2.384 2.12c-.07.23-.092.399-.093.723-.002.402.004.432.119.62.396.644 1.316.653 1.708.017.078-.128.122-.271.15-.489a2.3 2.3 0 0 1 .096-.446c.132-.314.551-.585.905-.585s.773.271.905.585c.031.076.075.277.096.446.048.379.183.616.451.797.471.316 1.102.17 1.407-.325.115-.188.121-.218.119-.62-.001-.324-.023-.493-.093-.723-.299-.976-1.074-1.753-2.024-2.031-.361-.106-1.029-.149-1.362-.089"/></svg>