<svg xmlns="http://www.w3.org/2000/svg" width="24" height="24" fill="none" stroke="currentColor" stroke-linecap="round" stroke-linejoin="round" stroke-width="2"><path fill="#000" fill-rule="evenodd" stroke="none" d="M13.333 1.056c-.841.161-1.564.534-2.138 1.102-.998.989-1.392 2.353-1.089 3.77.019.091.007.111-.072.126l-.572.105c-1.154.21-2.373.76-3.362 1.515-.328.251-1.02.926-1.299 1.266-.776.95-1.397 2.256-1.638 3.449-.243 1.197-.206 2.296.105 3.211a6 6 0 0 0 .582 1.185l.138.206-.28.027c-1.212.12-2.225.956-2.594 2.142-.135.434-.135 1.246 0 1.68.303.975 1.035 1.713 2.026 2.046l.28.094 4.852.011c3.219.007 4.903-.003 5.004-.03.222-.06.463-.251.591-.469.097-.165.113-.235.113-.492 0-.254-.017-.328-.108-.484a1.15 1.15 0 0 0-.499-.446c-.088-.039-1.189-.055-4.893-.07l-4.78-.02-.184-.108c-.581-.342-.683-1.098-.213-1.569.326-.326-.181-.303 6.734-.305 5.027-.001 6.17-.011 6.293-.055.221-.079.414-.241.539-.454.095-.161.111-.233.111-.489 0-.254-.017-.328-.108-.484-.244-.415-.515-.516-1.378-.516-.338 0-.614-.005-.613-.01l.058-.33c.032-.176.059-.439.06-.585.003-.637.206-1.126.628-1.513.342-.313.66-.469 1.079-.53.318-.046.367-.041 1.94.209 2.058.327 2.245.326 2.943-.006.582-.277 1.019-.764 1.262-1.407.113-.299.124-.37.125-.808.001-.724-.065-.888-.762-1.881-.308-.44-.592-.848-.632-.909l-.071-.11.203-.182c.455-.409.886-1.08 1.082-1.682.163-.503.22-.94.192-1.473a3.88 3.88 0 0 0-1.167-2.604 3.94 3.94 0 0 0-2.165-1.119 4.1 4.1 0 0 0-2.306.296l-.252.113-.153-.176c-.32-.368-.962-.809-1.465-1.006-.631-.248-1.544-.346-2.147-.231m1.317 2.06a2.03 2.03 0 0 1 1.136 1.008c.14.289.159.365.209.819.039.365.113.548.295.735a.9.9 0 0 0 .71.296.9.9 0 0 0 .71-.296c.233-.239.27-.364.27-.917v-.499l.293-.112a1.99 1.99 0 0 1 2.711 1.669c.084.816-.395 1.639-1.164 1.999-.475.223-.658.424-.742.814-.081.375-.02.493 1.002 1.951.578.826.92 1.349.92 1.409a.62.62 0 0 1-.232.432.5.5 0 0 1-.266.064c-.089-.002-.792-.107-1.562-.233-1.851-.303-2.351-.31-3.18-.047a4.2 4.2 0 0 0-1.568.945l-.188.18-.244-.227a4.1 4.1 0 0 0-2.469-1.089 1.8 1.8 0 0 0-.519.019 1.07 1.07 0 0 0-.624.525c-.103.195-.114.249-.097.49a.87.87 0 0 0 .135.46c.148.241.436.437.685.468.854.105 1.124.214 1.529.622.421.422.632.962.586 1.501-.027.321-.159.786-.242.855-.042.035-.726.044-2.69.034l-2.634-.012-.28-.094a3.2 3.2 0 0 1-1.032-.564c-.859-.736-1.19-1.606-1.074-2.823.078-.814.234-1.391.562-2.078.817-1.71 2.318-2.884 4.227-3.307.341-.075.528-.088 1.317-.093 1.035-.005 1.098-.018 1.371-.291.09-.09.186-.24.223-.35.129-.378.072-.661-.207-1.029-.27-.357-.324-.45-.411-.701-.32-.931.105-1.978.979-2.411.18-.089.416-.178.526-.198a2.5 2.5 0 0 1 1.029.076m1.045 4.939a1.05 1.05 0 0 0-.567.461c-.091.156-.108.23-.108.484 0 .257.016.327.113.492.518.882 1.865.526 1.865-.492a.99.99 0 0 0-.535-.888 1.17 1.17 0 0 0-.768-.057"/></svg>