<svg xmlns="http://www.w3.org/2000/svg" width="24" height="24" fill="none" stroke="currentColor" stroke-linecap="round" stroke-linejoin="round" stroke-width="2"><path fill="#000" fill-rule="evenodd" stroke="none" d="M7.499 1.043c-1.111.189-2.029.998-2.381 2.097-.076.239-.092.396-.108 1.065l-.019.786-.766.019c-.658.017-.81.033-1.086.116A3.07 3.07 0 0 0 1.114 7.16l-.094.3v9.08l.094.3a3.1 3.1 0 0 0 2.026 2.042c.239.076.396.092 1.065.108l.786.019.019.786c.016.669.032.826.108 1.065a3.1 3.1 0 0 0 2.042 2.026l.3.094h9.08l.3-.094a3.1 3.1 0 0 0 2.042-2.026c.076-.239.092-.396.108-1.065l.019-.786.786-.019c.669-.016.826-.032 1.065-.108a3.1 3.1 0 0 0 2.026-2.042l.094-.3V7.46l-.094-.3a3.07 3.07 0 0 0-2.025-2.034c-.276-.083-.428-.099-1.086-.116l-.766-.019-.019-.786c-.016-.669-.032-.826-.108-1.065a3.1 3.1 0 0 0-2.021-2.019l-.321-.101-4.42-.006c-2.431-.003-4.511.01-4.621.029m8.811 2.018a.9.9 0 0 1 .387.242c.251.251.303.448.303 1.144V5H7v-.553c0-.697.052-.893.304-1.144.314-.314.042-.297 4.679-.3 3.58-.003 4.149.005 4.327.058M5 12.003v5.004l-.65-.014c-.622-.012-.658-.018-.834-.121a1.2 1.2 0 0 1-.291-.249C2.99 16.315 3 16.515 3 12.022c0-4.666-.017-4.398.304-4.719.25-.251.423-.297 1.126-.3L5 7zM17 12v5H7V7h10zm3.31-4.939c.279.083.546.35.629.629.053.177.061.751.061 4.311 0 4.457.007 4.318-.221 4.617-.061.08-.194.195-.295.254-.176.103-.212.109-.834.121l-.65.014V7h.553c.378 0 .617.019.757.061M17 19.554c0 .798-.11 1.079-.516 1.318l-.184.108H7.7l-.184-.108a1.2 1.2 0 0 1-.291-.249C7.038 20.377 7 20.202 7 19.575V19h10z"/></svg>