<svg xmlns="http://www.w3.org/2000/svg" width="24" height="24" fill="none" stroke="currentColor" stroke-linecap="round" stroke-linejoin="round" stroke-width="2"><path fill="#000" fill-rule="evenodd" stroke="none" d="M3.664 1.06a1.03 1.03 0 0 0-.533.451L3.02 1.7l-.01 10.215c-.007 6.748.003 10.265.03 10.363.059.22.251.461.468.589.162.095.236.113.477.113.283 0 .295-.005 1.15-.429L6 22.122l.864.429c.843.418.872.429 1.136.429s.293-.011 1.136-.429l.864-.429.864.429c.843.418.872.429 1.136.429s.293-.011 1.136-.429l.864-.429.864.429c.843.418.872.429 1.136.429s.293-.011 1.136-.429l.864-.429.855.424c.957.475 1.103.514 1.467.393.273-.09.525-.338.613-.604.06-.181.065-1.032.055-10.416L20.98 1.7l-.109-.186a1.03 1.03 0 0 0-1.015-.496c-.107.017-.522.197-1.018.444L18 1.878l-.864-.429c-.843-.418-.872-.429-1.136-.429s-.293.011-1.136.429L14 1.878l-.864-.429c-.843-.418-.872-.429-1.136-.429s-.293.011-1.136.429L10 1.878l-.864-.429C8.293 1.031 8.264 1.02 8 1.02s-.293.011-1.136.429L6 1.878l-.85-.422c-.735-.365-.883-.424-1.09-.439a1 1 0 0 0-.396.043m5.199 2.49c.844.419.873.43 1.137.43s.293-.011 1.136-.429L12 3.122l.864.429c.843.418.872.429 1.136.429s.293-.011 1.136-.429L16 3.122l.864.429c.838.416.873.429 1.13.429.231 0 .313-.023.62-.17.194-.094.361-.17.37-.17S19 7.402 19 12s-.007 8.36-.016 8.36-.176-.076-.37-.17c-.307-.147-.389-.17-.62-.17-.257 0-.292.013-1.13.429l-.864.429-.864-.429c-.843-.418-.872-.429-1.136-.429s-.293.011-1.136.429l-.864.429-.864-.429c-.843-.418-.872-.429-1.136-.429s-.293.011-1.136.429L8 20.878l-.864-.429c-.838-.416-.873-.429-1.13-.429-.231 0-.313.023-.62.17-.194.094-.361.17-.37.17S5 16.598 5 12s.007-8.36.016-8.36.176.076.37.17c.307.147.389.17.62.17.257 0 .291-.013 1.12-.427l.862-.43c.005-.002.398.191.875.427M11.6 5.584a1.08 1.08 0 0 0-.505.516c-.076.162-.094.266-.095.545v.346l-.77.019c-.663.017-.814.033-1.091.116A3.07 3.07 0 0 0 7.114 9.16c-.135.434-.135 1.246 0 1.68a3.1 3.1 0 0 0 2.026 2.042c.239.076.396.092 1.07.108l.79.019V15H9.446c-1.688 0-1.788.011-2.064.221-.08.061-.195.194-.254.295-.091.156-.108.23-.108.484 0 .256.016.328.111.489.061.103.173.236.25.294.273.208.319.213 2.029.215L11 17v.35c.001.285.018.387.095.55.181.381.5.588.905.588s.724-.207.905-.588c.076-.162.094-.266.095-.545v-.346l.79-.019c.674-.016.831-.032 1.07-.108a3.1 3.1 0 0 0 2.026-2.042c.135-.434.135-1.246 0-1.68a3.07 3.07 0 0 0-2.025-2.034c-.277-.083-.428-.099-1.091-.116l-.77-.019V9l1.59-.002c1.71-.002 1.756-.007 2.029-.215.077-.058.189-.191.25-.294.095-.161.111-.233.111-.489 0-.254-.017-.328-.108-.484a1.2 1.2 0 0 0-.254-.295c-.276-.21-.376-.221-2.064-.221H13v-.35c-.001-.285-.018-.387-.095-.55a1.06 1.06 0 0 0-.514-.518c-.188-.079-.608-.078-.791.002m-.6 4.419v1.004l-.65-.014c-.622-.012-.658-.018-.834-.121-.581-.342-.683-1.098-.212-1.569.25-.251.423-.297 1.126-.3L11 9zm3.31 3.058c.378.112.69.537.69.94 0 .33-.216.695-.516.871-.176.103-.212.109-.834.121l-.65.014V13h.553c.378 0 .617.019.757.061"/></svg>