<svg xmlns="http://www.w3.org/2000/svg" width="24" height="24" fill="none" stroke="currentColor" stroke-linecap="round" stroke-linejoin="round" stroke-width="2"><path fill="#000" fill-rule="evenodd" stroke="none" d="M3.664 1.06a1.03 1.03 0 0 0-.533.451L3.02 1.7l-.01 10.215c-.007 6.748.003 10.265.03 10.363.059.22.251.461.468.589.162.095.236.113.477.113.283 0 .295-.005 1.15-.429L6 22.122l.864.429c.843.418.872.429 1.136.429s.293-.011 1.136-.429l.864-.429.864.429c.843.418.872.429 1.136.429s.293-.011 1.136-.429l.864-.429.864.429c.843.418.872.429 1.136.429s.293-.011 1.136-.429l.864-.429.855.424c.957.475 1.103.514 1.467.393.273-.09.525-.338.613-.604.06-.181.065-1.032.055-10.416L20.98 1.7l-.109-.186a1.03 1.03 0 0 0-1.015-.496c-.107.017-.522.197-1.018.444L18 1.878l-.864-.429c-.843-.418-.872-.429-1.136-.429s-.293.011-1.136.429L14 1.878l-.864-.429c-.843-.418-.872-.429-1.136-.429s-.293.011-1.136.429L10 1.878l-.864-.429C8.293 1.031 8.264 1.02 8 1.02s-.293.011-1.136.429L6 1.878l-.85-.422c-.735-.365-.883-.424-1.09-.439a1 1 0 0 0-.396.043m5.199 2.49c.844.419.873.43 1.137.43s.293-.011 1.136-.429L12 3.122l.864.429c.843.418.872.429 1.136.429s.293-.011 1.136-.429L16 3.122l.864.429c.838.416.873.429 1.13.429.231 0 .313-.023.62-.17.194-.094.361-.17.37-.17S19 7.402 19 12s-.007 8.36-.016 8.36-.176-.076-.37-.17c-.307-.147-.389-.17-.62-.17-.257 0-.292.013-1.13.429l-.864.429-.864-.429c-.843-.418-.872-.429-1.136-.429s-.293.011-1.136.429l-.864.429-.864-.429c-.843-.418-.872-.429-1.136-.429s-.293.011-1.136.429L8 20.878l-.864-.429c-.838-.416-.873-.429-1.13-.429-.231 0-.313.023-.62.17-.194.094-.361.17-.37.17S5 16.598 5 12s.007-8.36.016-8.36.176.076.37.17c.307.147.389.17.62.17.257 0 .291-.013 1.12-.427l.862-.43c.005-.002.398.191.875.427M11.6 5.584a1.14 1.14 0 0 0-.492.476c-.067.125-.09.256-.107.595l-.021.434-.4.114c-.22.063-.6.213-.845.335-1.411.698-2.351 1.939-2.702 3.562-.068.316-.068 1.484 0 1.8.235 1.085.654 1.868 1.405 2.624.659.663 1.26 1.017 2.162 1.277l.38.11.021.434c.024.484.086.654.325.883q.272.26.674.26c.405 0 .724-.207.905-.588.08-.169.094-.263.095-.604v-.404l.27-.072c.83-.22 1.51-.607 2.144-1.218.417-.402.543-.599.574-.896.074-.719-.579-1.254-1.281-1.05-.19.056-.286.123-.606.423-.347.326-.785.629-1.011.699l-.09.027v-2.802c0-1.542.011-2.803.024-2.803s.167.074.341.165c.22.115.438.278.714.536.307.287.444.387.605.44A.992.992 0 0 0 15.989 9.3c-.03-.283-.112-.429-.425-.754a4.97 4.97 0 0 0-2.294-1.367L13 7.108v-.404c-.001-.341-.015-.435-.095-.604a1.06 1.06 0 0 0-.514-.518c-.188-.079-.608-.078-.791.002M11 12c0 1.562-.007 2.84-.015 2.84s-.121-.048-.25-.107a3.1 3.1 0 0 1-1.63-1.821c-.165-.493-.165-1.331 0-1.824.201-.602.637-1.195 1.132-1.538.168-.117.67-.382.733-.388.017-.001.03 1.276.03 2.838"/></svg>