<svg xmlns="http://www.w3.org/2000/svg" width="24" height="24" fill="none" stroke="currentColor" stroke-linecap="round" stroke-linejoin="round" stroke-width="2"><path fill="#000" fill-rule="evenodd" stroke="none" d="M3.664 1.06a1.03 1.03 0 0 0-.533.451L3.02 1.7l-.01 10.215c-.007 6.748.003 10.265.03 10.363.059.22.251.461.468.589.162.095.236.113.477.113.283 0 .295-.005 1.15-.429L6 22.122l.864.429c.843.418.872.429 1.136.429s.293-.011 1.136-.429l.864-.429.864.429c.843.418.872.429 1.136.429s.293-.011 1.136-.429l.864-.429.864.429c.843.418.872.429 1.136.429s.293-.011 1.136-.429l.864-.429.855.424c.957.475 1.103.514 1.467.393.273-.09.525-.338.613-.604.06-.181.065-1.032.055-10.416L20.98 1.7l-.109-.186a1.03 1.03 0 0 0-1.015-.496c-.107.017-.522.197-1.018.444L18 1.878l-.864-.429c-.843-.418-.872-.429-1.136-.429s-.293.011-1.136.429L14 1.878l-.864-.429c-.843-.418-.872-.429-1.136-.429s-.293.011-1.136.429L10 1.878l-.864-.429C8.293 1.031 8.264 1.02 8 1.02s-.293.011-1.136.429L6 1.878l-.85-.422c-.735-.365-.883-.424-1.09-.439a1 1 0 0 0-.396.043m5.199 2.49c.844.419.873.43 1.137.43s.293-.011 1.136-.429L12 3.122l.864.429c.843.418.872.429 1.136.429s.293-.011 1.136-.429L16 3.122l.864.429c.838.416.873.429 1.13.429.231 0 .313-.023.62-.17.194-.094.361-.17.37-.17S19 7.402 19 12s-.007 8.36-.016 8.36-.176-.076-.37-.17c-.307-.147-.389-.17-.62-.17-.257 0-.292.013-1.13.429l-.864.429-.864-.429c-.843-.418-.872-.429-1.136-.429s-.293.011-1.136.429l-.864.429-.864-.429c-.843-.418-.872-.429-1.136-.429s-.293.011-1.136.429L8 20.878l-.864-.429c-.838-.416-.873-.429-1.13-.429-.231 0-.313.023-.62.17-.194.094-.361.17-.37.17S5 16.598 5 12s.007-8.36.016-8.36.176.076.37.17c.307.147.389.17.62.17.257 0 .291-.013 1.12-.427l.862-.43c.005-.002.398.191.875.427M7.695 7.057a1.04 1.04 0 0 0-.567.459c-.091.156-.108.23-.108.484 0 .256.016.328.111.489.125.213.318.375.539.454s6.439.079 6.66 0 .414-.241.539-.454c.095-.161.111-.233.111-.489 0-.254-.017-.328-.108-.484a1.02 1.02 0 0 0-.582-.461c-.26-.078-6.345-.076-6.595.002m0 4a1.04 1.04 0 0 0-.567.459c-.091.156-.108.23-.108.484 0 .256.016.328.111.489.125.213.318.375.539.454s8.438.079 8.66 0 .414-.241.539-.454c.095-.161.111-.233.111-.489 0-.254-.017-.328-.108-.484a1.02 1.02 0 0 0-.582-.461c-.261-.079-8.344-.076-8.595.002m0 4a1.04 1.04 0 0 0-.567.459c-.091.156-.108.23-.108.484 0 .256.016.328.111.489.125.213.318.375.539.454.22.078 5.44.078 5.66 0 .221-.079.414-.241.539-.454.095-.161.111-.233.111-.489 0-.254-.017-.328-.108-.484a1.02 1.02 0 0 0-.582-.461c-.259-.078-5.346-.076-5.595.002"/></svg>