<svg xmlns="http://www.w3.org/2000/svg" width="24" height="24" fill="none" stroke="currentColor" stroke-linecap="round" stroke-linejoin="round" stroke-width="2"><path fill="#000" fill-rule="evenodd" stroke="none" d="M3.664 1.06a1.03 1.03 0 0 0-.533.451L3.02 1.7l-.01 10.215c-.007 6.748.003 10.265.03 10.363.059.22.251.461.468.589.162.095.236.113.477.113.283 0 .295-.005 1.15-.429L6 22.122l.864.429c.843.418.872.429 1.136.429s.293-.011 1.136-.429l.864-.429.864.429c.843.418.872.429 1.136.429s.293-.011 1.136-.429l.864-.429.864.429c.843.418.872.429 1.136.429s.293-.011 1.136-.429l.864-.429.855.424c.957.475 1.103.514 1.467.393.273-.09.525-.338.613-.604.06-.181.065-1.032.055-10.416L20.98 1.7l-.109-.186a1.03 1.03 0 0 0-1.015-.496c-.107.017-.522.197-1.018.444L18 1.878l-.864-.429c-.843-.418-.872-.429-1.136-.429s-.293.011-1.136.429L14 1.878l-.864-.429c-.843-.418-.872-.429-1.136-.429s-.293.011-1.136.429L10 1.878l-.864-.429C8.293 1.031 8.264 1.02 8 1.02s-.293.011-1.136.429L6 1.878l-.85-.422c-.735-.365-.883-.424-1.09-.439a1 1 0 0 0-.396.043m5.199 2.49c.844.419.873.43 1.137.43s.293-.011 1.136-.429L12 3.122l.864.429c.843.418.872.429 1.136.429s.293-.011 1.136-.429L16 3.122l.864.429c.838.416.873.429 1.13.429.231 0 .313-.023.62-.17.194-.094.361-.17.37-.17S19 7.402 19 12s-.007 8.36-.016 8.36-.176-.076-.37-.17c-.307-.147-.389-.17-.62-.17-.257 0-.292.013-1.13.429l-.864.429-.864-.429c-.843-.418-.872-.429-1.136-.429s-.293.011-1.136.429l-.864.429-.864-.429c-.843-.418-.872-.429-1.136-.429s-.293.011-1.136.429L8 20.878l-.864-.429c-.838-.416-.873-.429-1.13-.429-.231 0-.313.023-.62.17-.194.094-.361.17-.37.17S5 16.598 5 12s.007-8.36.016-8.36.176.076.37.17c.307.147.389.17.62.17.257 0 .291-.013 1.12-.427l.862-.43c.005-.002.398.191.875.427m3.707 3.576a5 5 0 0 0-3.831 2.298 5.2 5.2 0 0 0-.616 1.397c-.04.158-.045.161-.289.207a1 1 0 0 0-.694.474c-.106.17-.12.227-.12.498s.014.329.121.503c.153.249.44.446.699.481l.194.025.069.286a5.1 5.1 0 0 0 1.877 2.824c.966.711 2.314 1.089 3.436.962.687-.077 1.464-.317 1.984-.611.571-.323 1.312-.98 1.482-1.313a.98.98 0 0 0-.876-1.437c-.335 0-.483.07-.82.392-.491.468-.774.652-1.266.821a2.98 2.98 0 0 1-3.317-.989c-.172-.223-.483-.798-.483-.893 0-.04.321-.051 1.53-.053 1.646-.002 1.697-.007 1.969-.215.077-.058.189-.191.25-.294.095-.161.111-.233.111-.489 0-.254-.017-.328-.108-.484a1.2 1.2 0 0 0-.254-.295c-.274-.209-.384-.221-1.964-.221-1.146 0-1.454-.011-1.454-.051 0-.086.315-.595.511-.824.354-.415.96-.785 1.52-.928.365-.093.986-.102 1.378-.019.316.067.885.324 1.123.508.093.071.303.258.468.415.329.315.5.396.821.39a.997.997 0 0 0 .965-1.115c-.038-.275-.164-.477-.521-.83-1.032-1.021-2.412-1.524-3.895-1.42"/></svg>