<svg xmlns="http://www.w3.org/2000/svg" width="24" height="24" fill="none" stroke="currentColor" stroke-linecap="round" stroke-linejoin="round" stroke-width="2"><path fill="#000" fill-rule="evenodd" stroke="none" d="M7.499 1.043c-1.12.191-2.038 1.005-2.385 2.117l-.094.3v17.08l.094.3a3.09 3.09 0 0 0 2.046 2.046l.3.094h9.08l.3-.094a3.09 3.09 0 0 0 2.046-2.046l.094-.3V3.46l-.094-.3a3.09 3.09 0 0 0-2.025-2.039l-.321-.101-4.42-.006c-2.431-.003-4.511.01-4.621.029m8.811 2.018c.279.083.546.35.629.629.054.18.061 1.17.061 8.311 0 6.753-.009 8.137-.055 8.289a1.02 1.02 0 0 1-.461.582l-.184.108H7.7l-.184-.108a1.2 1.2 0 0 1-.291-.249c-.24-.315-.225.265-.225-8.601 0-9.134-.026-8.39.304-8.719.314-.314.042-.297 4.679-.3 3.58-.003 4.149.005 4.327.058"/></svg>