<svg xmlns="http://www.w3.org/2000/svg" width="24" height="24" fill="none" stroke="currentColor" stroke-linecap="round" stroke-linejoin="round" stroke-width="2"><path fill="#000" fill-rule="evenodd" stroke="none" d="M11.5 2.057A2.77 2.77 0 0 0 9.684 3.26c-.228.338-1.143 1.923-1.251 2.165a1 1 0 0 0 .52 1.301c.379.162.917.039 1.148-.263.054-.071.352-.569.662-1.106s.611-1.028.67-1.091c.311-.33.816-.344 1.097-.031.142.158 2.851 4.837 2.819 4.869-.011.011-.423-.089-.916-.222s-.978-.242-1.078-.242c-.275 0-.638.196-.79.426a.99.99 0 0 0-.149.827c.077.262.322.553.54.641.086.034 1.097.315 2.246.624 1.468.395 2.153.562 2.305.562.363 0 .756-.259.883-.582.026-.065.299-1.065.608-2.222.367-1.374.562-2.171.561-2.3-.004-.816-.961-1.255-1.628-.746-.204.155-.297.382-.556 1.361-.17.646-.246.875-.275.834a278 278 0 0 1-1.38-2.383c-.737-1.281-1.43-2.448-1.54-2.594A2.8 2.8 0 0 0 12.7 2.1a3.2 3.2 0 0 0-1.2-.043M6.84 8.555c-.143.04-1.115.303-2.16.583-1.045.281-1.964.544-2.043.584-.371.188-.603.654-.52 1.041.055.258.124.387.29.543a.98.98 0 0 0 .586.281c.151.017.374-.027 1.121-.225.514-.137.942-.24.952-.23s-.58 1.051-1.311 2.313c-.73 1.262-1.397 2.439-1.482 2.615-.644 1.342-.08 2.956 1.267 3.622.595.294.768.318 2.296.316 1.445-.002 1.515-.01 1.783-.215.077-.058.189-.191.25-.294.095-.161.111-.233.111-.489 0-.254-.017-.328-.108-.484a1.2 1.2 0 0 0-.254-.295C7.35 18.017 7.217 18 5.866 18c-1.185 0-1.249-.004-1.417-.085-.327-.159-.506-.525-.417-.856.037-.138 2.701-4.808 2.798-4.905.018-.018.12.296.226.697.299 1.12.333 1.217.494 1.394.613.679 1.728.273 1.73-.63q0-.202-.502-2.08l-.585-2.186c-.177-.667-.704-.977-1.353-.794m12.52 4.685a1.01 1.01 0 0 0-.781.696c-.119.401-.091.476.704 1.85.352.608.66 1.18.685 1.271.089.333-.089.699-.417.858-.175.084-.196.085-3.152.085h-2.976l.704-.71c.387-.391.737-.773.777-.85.053-.1.075-.227.075-.44.001-.255-.015-.328-.107-.484a1 1 0 0 0-1.215-.45c-.176.058-.373.241-1.832 1.69-1.785 1.774-1.824 1.822-1.824 2.244 0 .42.042.472 1.805 2.226.888.883 1.677 1.639 1.754 1.679.099.052.228.074.44.074.258.001.327-.015.492-.112.222-.13.409-.369.473-.603a1.2 1.2 0 0 0-.066-.709c-.038-.074-.385-.454-.772-.845l-.704-.71h3.042c2.923 0 3.055-.003 3.359-.081.57-.146.995-.384 1.364-.764.289-.298.426-.499.573-.841.32-.75.31-1.516-.032-2.244-.171-.363-1.278-2.293-1.435-2.501-.182-.24-.605-.389-.934-.329"/></svg>