<svg xmlns="http://www.w3.org/2000/svg" width="24" height="24" fill="none" stroke="currentColor" stroke-linecap="round" stroke-linejoin="round" stroke-width="2"><path fill="#000" fill-rule="evenodd" stroke="none" d="M14.67 3.061c-.222.081-.42.248-.542.455-.092.156-.108.229-.107.484 0 .212.022.341.074.44.04.077.841.91 1.779 1.85L17.579 8h-4.12c-4.761 0-4.974.011-5.918.308-2.3.723-3.998 2.674-4.451 5.112-.092.495-.092 1.665 0 2.16.465 2.504 2.22 4.468 4.61 5.159.788.228.832.231 3.206.25 1.486.011 2.257.003 2.364-.026.228-.062.468-.251.597-.471.097-.165.113-.235.113-.492 0-.254-.017-.328-.108-.484a1.2 1.2 0 0 0-.254-.295c-.283-.216-.341-.221-2.499-.221-2.181 0-2.375-.015-3.048-.241-1.985-.665-3.261-2.646-3.037-4.714.228-2.098 1.838-3.747 3.906-4.001.241-.029 1.727-.044 4.499-.044h4.14l-1.705 1.71c-.938.94-1.739 1.773-1.779 1.85-.052.099-.074.228-.074.44-.001.258.015.327.112.492.13.222.369.409.603.473.202.054.53.024.709-.066.074-.037 1.311-1.24 2.749-2.673C21.036 9.393 20.999 9.435 20.999 9s.04-.391-2.825-3.245c-2.389-2.381-2.652-2.631-2.831-2.69a1 1 0 0 0-.673-.004"/></svg>