<svg xmlns="http://www.w3.org/2000/svg" width="24" height="24" fill="none" stroke="currentColor" stroke-linecap="round" stroke-linejoin="round" stroke-width="2"><path fill="#000" fill-rule="evenodd" stroke="none" d="M20.695 6.057a1.04 1.04 0 0 0-.567.459l-.108.184-.011 2.01c-.007 1.106-.021 2.01-.032 2.01s-.348-.296-.749-.658a30 30 0 0 0-1.061-.919 10 10 0 0 0-8.013-1.965c-1.564.289-3.036.958-4.354 1.976-.795.615-1.785 1.73-2.33 2.626-.92 1.511-1.477 3.428-1.468 5.054.002.533.144.82.509 1.035.162.095.233.111.492.111.268 0 .326-.014.5-.121.24-.148.445-.439.472-.67.011-.093.038-.43.06-.749a7.6 7.6 0 0 1 .781-2.94 7.97 7.97 0 0 1 8.924-4.296 8.2 8.2 0 0 1 2.12.806c.69.386 1.051.658 1.976 1.489l.536.481-1.816.02c-1.329.015-1.846.033-1.929.07a1.15 1.15 0 0 0-.499.446c-.091.156-.108.23-.108.484 0 .256.016.328.111.489.125.213.318.375.539.454.12.043.781.054 3.35.055l3.2.001.2-.093c.237-.11.425-.311.516-.552.06-.158.065-.48.055-3.414L21.98 6.7l-.108-.184a1.005 1.005 0 0 0-1.177-.459m-9.218 9.016c-.671.176-1.239.75-1.417 1.435a2.07 2.07 0 0 0 .165 1.422c.136.269.576.709.845.845a2.05 2.05 0 0 0 1.86 0c.266-.135.708-.575.841-.838a2.05 2.05 0 0 0 .169-1.408 1.8 1.8 0 0 0-.475-.876A1.97 1.97 0 0 0 12 15.005c-.143 0-.378.031-.523.068"/></svg>