<svg xmlns="http://www.w3.org/2000/svg" width="24" height="24" fill="none" stroke="currentColor" stroke-linecap="round" stroke-linejoin="round" stroke-width="2"><path fill="#000" fill-rule="evenodd" stroke="none" d="M8.4 1.044c-1.639.185-3.139 1.246-3.874 2.741a5.4 5.4 0 0 0-.433 1.255c-.069.322-.073.741-.073 7.92v7.58l.094.3a3.09 3.09 0 0 0 2.046 2.046l.3.094h11.08l.3-.094a3.09 3.09 0 0 0 2.046-2.046l.094-.3v-7.58c0-7.179-.004-7.598-.073-7.92-.282-1.319-1.044-2.464-2.107-3.166-.754-.499-1.404-.739-2.248-.831-.465-.051-6.699-.05-7.152.001m7.461 2.078a3.08 3.08 0 0 1 2.016 2.017c.099.318.1.338.114 2.091L18.005 9h-2l-.013-1.15-.012-1.15-.109-.186a1.01 1.01 0 0 0-1.742 0l-.109.186-.012 1.15L13.995 9h-8l.014-1.77c.014-1.753.015-1.773.114-2.091a3.04 3.04 0 0 1 2.376-2.097c.11-.019 1.74-.031 3.621-.028l3.42.007zm-1.853 9.031.012 1.154.121.196a.998.998 0 0 0 1.718 0l.121-.196.012-1.154.013-1.153H18v4.554c0 4.943.008 4.764-.221 5.064-.061.08-.194.195-.295.254l-.184.108H6.7l-.184-.108a1.2 1.2 0 0 1-.291-.249C5.989 20.314 6 20.557 6 15.575V11h7.995z"/></svg>