<svg xmlns="http://www.w3.org/2000/svg" width="24" height="24" fill="none" stroke="currentColor" stroke-linecap="round" stroke-linejoin="round" stroke-width="2"><path fill="#000" fill-rule="evenodd" stroke="none" d="M2.695 1.057a1.04 1.04 0 0 0-.567.459L2.02 1.7l-.011 3.24c-.01 2.934-.005 3.256.055 3.414.091.241.279.442.516.552l.2.093 3.2-.001c2.569-.001 3.23-.012 3.35-.055.221-.079.414-.241.539-.454.095-.161.111-.233.111-.489 0-.254-.017-.328-.108-.484a1.15 1.15 0 0 0-.499-.446c-.083-.037-.6-.055-1.93-.07l-1.817-.02.557-.5c1.015-.912 1.5-1.261 2.277-1.64a8 8 0 0 1 7.52.234c1.397.792 2.562 2.058 3.262 3.546.464.985.668 1.839.752 3.151.033.507.045.567.152.74a1 1 0 0 0 1.71-.003c.101-.164.121-.244.136-.533.021-.393-.048-1.176-.154-1.761q-.47-2.579-2.204-4.657c-1.533-1.833-3.712-3.051-6.166-3.444-.621-.099-1.907-.118-2.568-.037-1.441.176-2.688.579-3.84 1.241-.796.458-1.296.843-2.427 1.87-.322.293-.596.533-.608.533s-.027-.904-.034-2.01L3.98 1.7l-.108-.184a1.005 1.005 0 0 0-1.177-.459m8.782 9.016c-.671.176-1.239.75-1.417 1.435a2.07 2.07 0 0 0 .165 1.422c.136.269.576.709.845.845a2.05 2.05 0 0 0 1.86 0c.266-.135.708-.575.841-.838a2.05 2.05 0 0 0 .169-1.408 1.8 1.8 0 0 0-.475-.876A1.97 1.97 0 0 0 12 10.005c-.143 0-.378.031-.523.068m-8.782.984a1.03 1.03 0 0 0-.565.456c-.134.229-.163.678-.091 1.384.218 2.126.972 3.924 2.327 5.546 1.548 1.852 3.743 3.069 6.246 3.463.678.107 2.06.097 2.82-.02a10.1 10.1 0 0 0 2.988-.926c.961-.469 1.661-.978 2.947-2.147.322-.293.596-.533.608-.533s.027.906.034 2.013l.011 2.013.121.197a.998.998 0 0 0 1.718 0l.121-.197.011-3.243c.01-2.937.005-3.259-.055-3.417a1 1 0 0 0-.516-.552l-.2-.093L18.056 15c-2.566 0-3.198.01-3.346.055a.99.99 0 0 0-.512 1.536c.065.09.205.214.31.276l.192.113 1.837.02 1.837.02-.557.5c-1.033.928-1.503 1.265-2.317 1.66a8.04 8.04 0 0 1-4.42.761 8 8 0 0 1-6.279-4.481c-.5-1.027-.708-1.873-.795-3.228-.031-.479-.048-.569-.139-.723a1.004 1.004 0 0 0-1.172-.452"/></svg>