<svg xmlns="http://www.w3.org/2000/svg" width="24" height="24" fill="none" stroke="currentColor" stroke-linecap="round" stroke-linejoin="round" stroke-width="2"><path fill="#000" fill-rule="evenodd" stroke="none" d="M11.08 2.042c-1.915.184-3.72.906-5.28 2.112-.795.615-1.785 1.73-2.33 2.626-.92 1.511-1.477 3.428-1.468 5.054.002.533.144.82.509 1.035.162.095.233.111.492.111.268 0 .326-.014.5-.121.24-.148.445-.439.472-.67.011-.093.038-.43.06-.749a7.6 7.6 0 0 1 .781-2.94A7.92 7.92 0 0 1 8.5 4.816c2.433-1.195 5.374-1.056 7.851.372a8.8 8.8 0 0 1 1.888 1.469l.339.343h-1.343c-1.46 0-1.582.015-1.853.221-.08.061-.195.194-.254.295-.091.156-.108.23-.108.484 0 .256.016.328.111.489.125.213.318.375.539.454.12.043.698.054 2.85.055l2.7.001.2-.093c.237-.11.425-.311.516-.552.06-.157.066-.443.055-2.914L21.98 2.7l-.109-.186a1.01 1.01 0 0 0-1.742 0l-.109.186-.012 1.432-.012 1.432-.463-.442c-.96-.917-1.725-1.457-2.833-2.001a10.3 10.3 0 0 0-3.193-1.004c-.612-.092-1.855-.13-2.427-.075m9.615 9.015a1.03 1.03 0 0 0-.563.453c-.092.158-.107.24-.139.763-.137 2.252-.946 4.043-2.497 5.528a8.01 8.01 0 0 1-6.328 2.158 8.82 8.82 0 0 1-5.387-2.596L5.422 17l1.379-.002c1.483-.002 1.549-.009 1.818-.215.077-.058.189-.191.25-.294.095-.161.111-.233.111-.489 0-.254-.017-.328-.108-.484a1.2 1.2 0 0 0-.254-.295C8.327 14.999 8.334 15 5.444 15l-2.664.001-.2.093c-.237.11-.425.311-.516.552-.06.157-.066.443-.055 2.917l.011 2.743.121.197a.998.998 0 0 0 1.718 0l.121-.197.012-1.435.012-1.435.486.466c.268.256.632.582.808.724 1.51 1.211 3.273 1.969 5.302 2.281.652.1 2.161.1 2.8 0 1.816-.284 3.362-.948 4.8-2.06.437-.338 1.309-1.21 1.647-1.647 1.359-1.757 2.119-3.857 2.13-5.88.003-.604 0-.625-.105-.804a1.005 1.005 0 0 0-1.177-.459"/></svg>