<svg xmlns="http://www.w3.org/2000/svg" width="24" height="24" fill="none" stroke="currentColor" stroke-linecap="round" stroke-linejoin="round" stroke-width="2"><path fill="#000" fill-rule="evenodd" stroke="none" d="M2.695 2.057a1.04 1.04 0 0 0-.567.459L2.02 2.7l-.011 2.74c-.011 2.471-.005 2.757.055 2.914.091.241.279.442.516.552l.2.093 2.7-.001c2.152-.001 2.73-.012 2.85-.055.221-.079.414-.241.539-.454.095-.161.111-.233.111-.489 0-.254-.017-.328-.108-.484a1.2 1.2 0 0 0-.254-.295C8.347 7.015 8.225 7 6.765 7H5.422l.339-.343C7.305 5.095 9.23 4.2 11.403 4.033A7.95 7.95 0 0 1 17.1 5.848 7.8 7.8 0 0 1 19.184 8.5c.462.941.705 1.856.781 2.94.022.319.049.656.06.749.027.231.232.522.472.67.174.107.232.121.5.121.26 0 .33-.016.495-.113.222-.13.409-.369.473-.603.057-.206.02-1.121-.067-1.704q-.395-2.618-2.051-4.76c-.337-.435-1.208-1.306-1.647-1.646-2.517-1.948-5.626-2.6-8.742-1.833-.768.188-1.362.409-2.158.8-1.108.544-1.903 1.106-2.846 2.012l-.45.432-.012-1.432L3.98 2.7l-.108-.184a1.005 1.005 0 0 0-1.177-.459m0 9a1.04 1.04 0 0 0-.567.459c-.105.178-.108.202-.106.784.007 1.64.526 3.406 1.448 4.92.545.896 1.538 2.015 2.33 2.627 1.442 1.114 2.985 1.776 4.8 2.06.639.1 2.148.1 2.8 0 1.903-.293 3.594-.987 5.02-2.062a17 17 0 0 0 1.32-1.163l.24-.245.02 1.435.02 1.434.121.197a.998.998 0 0 0 1.718 0l.121-.197.011-2.743c.011-2.474.005-2.76-.055-2.917a1 1 0 0 0-.516-.552l-.2-.093L18.556 15c-2.89 0-2.883-.001-3.174.221-.08.061-.195.194-.254.295-.091.156-.108.23-.108.484 0 .256.016.328.111.489.061.103.173.236.25.294.269.206.335.213 1.818.215l1.379.002-.359.363a8.77 8.77 0 0 1-4.579 2.471 8.015 8.015 0 0 1-8.77-4.22c-.532-1.044-.782-2.019-.864-3.361-.031-.503-.047-.587-.138-.744a1.005 1.005 0 0 0-1.173-.452"/></svg>