<svg xmlns="http://www.w3.org/2000/svg" width="24" height="24" fill="none" stroke="currentColor" stroke-linecap="round" stroke-linejoin="round" stroke-width="2"><path fill="#000" fill-rule="evenodd" stroke="none" d="M1.67 1.061c-.222.081-.42.248-.542.455-.092.156-.108.229-.107.484 0 .212.022.341.074.44.04.077.767.836 1.614 1.686L4.25 5.671l-.244.321C3.033 7.27 2.345 8.92 2.101 10.56c-.087.586-.122 1.499-.066 1.704.064.234.251.473.473.603.165.097.235.113.495.113.268 0 .326-.014.5-.121.24-.148.445-.439.472-.67.011-.093.039-.448.064-.789a7.6 7.6 0 0 1 .765-2.88c.223-.464.804-1.4.868-1.4.037 0 11.208 11.171 11.208 11.208 0 .016-.203.163-.45.328-2.353 1.566-5.292 1.771-8.01.558-.915-.408-1.737-.976-2.52-1.742l-.48-.47 1.38-.003c1.483-.003 1.55-.011 1.819-.216.077-.058.189-.191.25-.294.095-.161.111-.233.111-.489 0-.254-.017-.328-.108-.484a1.2 1.2 0 0 0-.254-.295C8.327 14.999 8.334 15 5.444 15l-2.664.001-.2.093c-.237.11-.425.311-.516.552-.06.157-.066.443-.055 2.917l.011 2.743.121.197a.998.998 0 0 0 1.718 0l.121-.197.02-1.434.02-1.435.24.245c.296.302.998.92 1.32 1.163 1.417 1.068 3.138 1.777 5.008 2.062.631.096 2.194.097 2.812.001 1.697-.264 3.231-.895 4.55-1.873l.381-.283 1.544 1.54c.85.847 1.608 1.573 1.685 1.613.099.052.228.074.44.074.258.001.327-.015.492-.112.476-.28.647-.9.373-1.359-.055-.092-4.65-4.715-10.212-10.273C3.3 1.889 2.525 1.125 2.343 1.065a1 1 0 0 0-.673-.004m9.75.962c-1.15.085-2.478.379-2.864.635a1.03 1.03 0 0 0-.421.932c.052.379.343.719.71.828.281.083.323.08.78-.055 2.261-.671 4.64-.376 6.749.838a8.5 8.5 0 0 1 1.704 1.308l.502.488-1.344.002c-1.46.001-1.584.016-1.854.222-.08.061-.195.194-.254.295-.091.156-.108.23-.108.484 0 .256.016.328.111.489.125.213.318.375.539.454.12.043.698.054 2.85.055l2.7.001.2-.093c.237-.11.425-.311.516-.552.06-.157.066-.443.055-2.914L21.98 2.7l-.109-.186a1.01 1.01 0 0 0-1.742 0l-.109.186-.012 1.432-.012 1.432-.466-.445c-.945-.902-1.739-1.463-2.83-1.998-1.092-.536-2.028-.831-3.165-1-.53-.078-1.667-.131-2.115-.098m9.275 9.034a1.03 1.03 0 0 0-.561.45c-.092.157-.108.248-.156.897-.062.83-.122 1.18-.317 1.877-.161.572-.162.592-.079.874.073.244.28.493.515.616.255.134.621.121.903-.032.309-.167.433-.372.61-1.002.262-.934.362-1.605.367-2.457.003-.561-.001-.586-.105-.764a1.005 1.005 0 0 0-1.177-.459"/></svg>