<svg xmlns="http://www.w3.org/2000/svg" width="24" height="24" fill="none" stroke="currentColor" stroke-linecap="round" stroke-linejoin="round" stroke-width="2"><path fill="#000" fill-rule="evenodd" stroke="none" d="M16.695 2.057a1.04 1.04 0 0 0-.567.459l-.108.184-.012 1.774c-.009 1.467-.02 1.77-.065 1.753-.03-.012-.645-.362-1.368-.779-1.681-.969-1.598-.928-1.903-.927a.93.93 0 0 0-.709.282 1 1 0 0 0 .007 1.402c.076.074.78.504 1.564.954s1.426.83 1.426.843-.649.398-1.442.856-1.498.888-1.565.955c-.263.263-.352.75-.198 1.088a1.01 1.01 0 0 0 1.354.488c.108-.054.793-.443 1.521-.864a58 58 0 0 1 1.345-.765c.012 0 .027.798.033 1.773l.012 1.773.121.197a.998.998 0 0 0 1.718 0l.121-.197.012-1.773c.006-.975.02-1.773.032-1.773.011 0 .616.344 1.344.765a75 75 0 0 0 1.523.864 1 1 0 0 0 1.141-.187c.189-.189.258-.348.278-.642.021-.304-.065-.549-.263-.747-.067-.067-.772-.497-1.565-.955s-1.442-.843-1.442-.856.641-.392 1.425-.843c.785-.45 1.488-.88 1.564-.954a.92.92 0 0 0 .281-.765c-.02-.294-.089-.453-.278-.642-.19-.19-.409-.276-.704-.277-.305-.001-.222-.042-1.903.927-.723.417-1.338.767-1.368.779-.045.017-.056-.286-.065-1.753L17.98 2.7l-.108-.184a1.005 1.005 0 0 0-1.177-.459M4.499 14.042a3.05 3.05 0 0 0-2.385 2.118c-.092.293-.094.337-.094 1.84s.002 1.547.094 1.84a3.09 3.09 0 0 0 2.046 2.046c.293.092.337.094 1.84.094s1.547-.002 1.84-.094a3.09 3.09 0 0 0 2.046-2.046c.092-.293.094-.337.094-1.84s-.002-1.547-.094-1.84a3.08 3.08 0 0 0-2.025-2.036c-.313-.097-.357-.1-1.741-.109-.781-.005-1.511.007-1.621.027m2.835 2.022c.262.089.527.363.605.626.084.282.089 2.325.006 2.6a1.02 1.02 0 0 1-.461.582l-.184.108H4.7l-.184-.108a1.05 1.05 0 0 1-.458-.556c-.086-.245-.084-2.334.003-2.626.079-.269.351-.547.612-.627.288-.088 2.4-.088 2.661.001"/></svg>