<svg xmlns="http://www.w3.org/2000/svg" width="24" height="24" fill="none" stroke="currentColor" stroke-linecap="round" stroke-linejoin="round" stroke-width="2"><path fill="#000" fill-rule="evenodd" stroke="none" d="M3.695 3.057a1.04 1.04 0 0 0-.567.459L3.02 3.7v3.606l.121.197a.998.998 0 0 0 1.718 0l.121-.196.012-1.154L5.005 5h3.322c2.942 0 3.319.007 3.298.06-.012.033-.999 3.183-2.191 7L7.265 19H6.079c-1.292 0-1.431.018-1.697.221-.08.061-.195.194-.254.295-.091.156-.108.23-.108.484 0 .256.016.328.111.489.125.213.318.375.539.454s6.439.079 6.66 0 .414-.241.539-.454c.095-.161.111-.233.111-.489 0-.254-.017-.328-.108-.484a1.2 1.2 0 0 0-.254-.295c-.254-.193-.428-.221-1.389-.221-.765 0-.875-.008-.854-.06.012-.033.999-3.183 2.191-7L13.735 5h5.26l.013 1.153.012 1.154.121.196a.998.998 0 0 0 1.718 0l.121-.197V3.7l-.108-.184a1.02 1.02 0 0 0-.582-.461c-.263-.079-16.343-.077-16.595.002M14.67 14.061c-.222.081-.42.248-.542.455-.091.156-.108.23-.108.484s.016.328.107.48c.059.099.523.594 1.03 1.099l.922.92-.955.96c-.525.529-.986 1.022-1.023 1.096-.229.454-.045 1.046.407 1.312.165.097.235.113.492.113.254 0 .328-.016.48-.107.099-.059.594-.523 1.099-1.03l.92-.922.96.955c.529.525 1.024.988 1.101 1.029.099.052.227.074.44.074.258.001.327-.015.492-.112.222-.13.409-.369.473-.603a1.2 1.2 0 0 0-.066-.709c-.037-.074-.498-.567-1.023-1.096l-.955-.96.922-.92c.507-.505.971-1 1.03-1.099.091-.152.107-.226.107-.48s-.017-.328-.108-.484a1 1 0 0 0-1.215-.45c-.171.058-.327.196-1.177 1.038l-.98.972-.98-.972c-.849-.842-1.006-.98-1.177-1.038a1 1 0 0 0-.673-.005"/></svg>