<svg xmlns="http://www.w3.org/2000/svg" width="24" height="24" fill="none" stroke="currentColor" stroke-linecap="round" stroke-linejoin="round" stroke-width="2"><path fill="#000" fill-rule="evenodd" stroke="none" d="M4.58 5.096c-.156.075-.551.449-1.806 1.71-.883.888-1.639 1.677-1.679 1.754-.052.099-.074.228-.074.44-.001.258.015.327.112.492.13.222.369.409.603.473.203.054.531.024.709-.066.074-.038.454-.385.844-.771l.708-.703.012 4.078.011 4.077.094.28a3.15 3.15 0 0 0 2.026 2.026l.28.093 3.35.012c2.22.008 3.402-.002 3.504-.029.224-.061.465-.251.593-.47.097-.165.113-.235.113-.492 0-.254-.017-.328-.108-.484a1.15 1.15 0 0 0-.499-.446c-.086-.038-.89-.055-3.393-.07l-3.28-.02-.184-.108a1.2 1.2 0 0 1-.291-.249C5.991 16.316 6 16.491 6 12.286V8.423l.71.704c.39.387.773.737.85.777.1.053.227.075.44.075.258.001.327-.015.492-.112.222-.13.409-.369.473-.603a1.2 1.2 0 0 0-.066-.709c-.037-.074-.79-.861-1.673-1.749C5.472 5.043 5.42 5.001 5 5.001a.95.95 0 0 0-.42.095m6.115-.04c-.23.073-.439.243-.567.46-.091.156-.108.23-.108.484 0 .256.016.328.111.489.125.213.318.375.539.454.12.043.772.054 3.293.055 3.566.002 3.419-.01 3.734.305.319.319.303.087.303 4.431v3.84l-.73-.72c-.615-.607-.761-.731-.927-.787a1 1 0 0 0-1.215.449c-.092.156-.108.229-.107.484 0 .212.022.341.074.44.04.077.796.866 1.679 1.754 1.754 1.763 1.806 1.805 2.226 1.805s.472-.042 2.226-1.805c.883-.888 1.639-1.677 1.679-1.754.052-.099.074-.228.074-.44.001-.255-.015-.328-.107-.484a1 1 0 0 0-1.215-.449c-.166.056-.312.18-.926.785l-.728.719-.012-4.075-.011-4.076-.094-.28c-.329-.982-1.066-1.717-2.025-2.018l-.321-.101-3.34-.009c-2.665-.006-3.373.002-3.505.044"/></svg>