<svg xmlns="http://www.w3.org/2000/svg" width="24" height="24" fill="none" stroke="currentColor" stroke-linecap="round" stroke-linejoin="round" stroke-width="2"><path fill="#000" fill-rule="evenodd" stroke="none" d="M16.67 1.061c-.222.081-.42.248-.542.455-.092.156-.108.229-.107.484 0 .213.022.341.074.44.041.077.616.684 1.279 1.35L18.578 5h-5.87c-3.877 0-6.003.014-6.26.043-.883.096-1.63.385-2.38.92-1.001.714-1.704 1.808-1.975 3.077-.059.275-.073.523-.073 1.303v.963l.121.197a.998.998 0 0 0 1.718 0l.121-.197.025-.923c.022-.815.036-.961.121-1.244a3.07 3.07 0 0 1 2.013-2.018l.321-.101 6.06-.011 6.06-.011-1.206 1.211c-.663.666-1.236 1.272-1.273 1.346-.229.454-.045 1.046.407 1.312.165.097.234.113.492.112.212 0 .341-.022.44-.074.077-.04 1.091-1.021 2.254-2.179C21.996 6.433 21.999 6.429 21.999 6c0-.431 0-.431-2.325-2.745-1.924-1.915-2.153-2.131-2.331-2.19a1 1 0 0 0-.673-.004m-5.975 7.996a1.04 1.04 0 0 0-.567.459c-.092.156-.108.23-.108.487 0 .268.014.326.121.5.147.238.436.443.678.479l.178.027.011 1.649.012 1.648.121.197a.998.998 0 0 0 1.718 0l.121-.197V9.7l-.108-.184a1.02 1.02 0 0 0-.582-.461c-.24-.072-1.362-.071-1.595.002m10 3a1.04 1.04 0 0 0-.567.459c-.106.181-.108.198-.133 1.104-.022.811-.036.958-.121 1.241-.284.945-1.029 1.695-2.014 2.025l-.28.094-6.08.011-6.08.011 1.206-1.211c.663-.666 1.238-1.274 1.279-1.351.052-.099.074-.227.074-.44.001-.255-.015-.328-.107-.484a1 1 0 0 0-1.215-.451c-.178.059-.407.275-2.331 2.19C2.001 17.569 2.001 17.569 2.001 18c0 .429.003.433 2.305 2.726 1.163 1.158 2.177 2.139 2.254 2.179.099.052.228.074.44.074.258.001.327-.015.492-.112.222-.13.409-.369.473-.603a1.2 1.2 0 0 0-.066-.709c-.037-.074-.61-.679-1.272-1.344l-1.204-1.209 6.139-.013c5.733-.011 6.158-.017 6.438-.084 1.546-.368 2.756-1.291 3.433-2.617.229-.449.372-.849.474-1.328.059-.275.073-.523.073-1.3v-.96l-.108-.184a1.005 1.005 0 0 0-1.177-.459"/></svg>