<svg xmlns="http://www.w3.org/2000/svg" width="24" height="24" fill="none" stroke="currentColor" stroke-linecap="round" stroke-linejoin="round" stroke-width="2"><path fill="#000" fill-rule="evenodd" stroke="none" d="M8.66 6.066c-.186.056-.382.242-2.834 2.687C2.961 11.609 3.001 11.564 3.001 12s-.037.393 2.805 3.226c1.438 1.433 2.675 2.636 2.749 2.673.455.229 1.046.045 1.312-.407.097-.165.113-.234.112-.492 0-.212-.022-.341-.074-.44-.04-.077-.841-.91-1.779-1.851L6.42 12.998l5.06.011 5.06.011.321.101a3.08 3.08 0 0 1 2.015 2.018c.093.307.099.383.121 1.744l.023 1.424.121.196a.998.998 0 0 0 1.718 0l.121-.197v-1.463c0-1.587-.018-1.769-.247-2.443a5.07 5.07 0 0 0-3.493-3.238c-.596-.153-.942-.162-5.948-.162H6.421l1.705-1.71c.938-.94 1.739-1.773 1.779-1.85.052-.099.074-.228.074-.44.001-.255-.015-.328-.107-.484a1.02 1.02 0 0 0-.582-.461c-.228-.069-.375-.066-.63.011"/></svg>