<svg xmlns="http://www.w3.org/2000/svg" width="24" height="24" fill="none" stroke="currentColor" stroke-linecap="round" stroke-linejoin="round" stroke-width="2"><path fill="#000" fill-rule="evenodd" stroke="none" d="M8.358 1.061c-1.627.254-2.941 1.523-3.275 3.166C5.008 4.593 5 4.775 5 6.103v1.471l-.733-.723c-.664-.656-.752-.729-.947-.787-.263-.078-.374-.08-.61-.009a1.02 1.02 0 0 0-.582.461c-.092.156-.108.229-.107.484 0 .212.022.341.074.44.04.077.796.866 1.679 1.754C5.528 10.957 5.58 10.999 6 10.999s.472-.042 2.226-1.805c.883-.888 1.639-1.677 1.679-1.754.052-.099.074-.228.074-.44.001-.255-.015-.328-.107-.484a1.02 1.02 0 0 0-.582-.461c-.236-.071-.347-.069-.61.009-.195.058-.283.131-.947.787L7 7.574l.002-1.417c.002-1.205.013-1.456.071-1.68.177-.676.777-1.262 1.449-1.415.189-.043.489-.063.966-.064.746-.002.887-.029 1.131-.215.077-.058.189-.191.25-.294.095-.161.111-.233.111-.489 0-.254-.017-.328-.108-.484a1.02 1.02 0 0 0-.582-.461c-.237-.071-1.46-.068-1.932.006m7.141-.018c-1.117.187-2.045 1.011-2.384 2.117-.07.23-.092.399-.093.723-.002.402.004.432.119.62.305.495.936.641 1.407.325.268-.181.403-.418.451-.797.049-.386.112-.54.302-.73s.344-.253.727-.302c.364-.046.603-.172.774-.408a.99.99 0 0 0-.512-1.536c-.2-.06-.479-.064-.791-.012m4.196.011a.997.997 0 0 0-.497 1.537c.171.236.41.362.774.408.383.049.537.113.727.302.19.19.253.344.302.73.048.379.183.616.451.797.471.316 1.102.17 1.407-.325.115-.188.121-.218.119-.62-.001-.324-.023-.493-.093-.723-.299-.976-1.076-1.756-2.022-2.03-.4-.115-.941-.151-1.168-.076m-6 6.003a1.04 1.04 0 0 0-.567.459c-.099.169-.108.218-.106.604.001.32.023.491.093.72a3.08 3.08 0 0 0 2.022 2.037c.344.105.903.149 1.127.088.234-.064.473-.251.603-.473.097-.165.113-.235.113-.492 0-.254-.017-.328-.108-.484a1.1 1.1 0 0 0-.497-.438 2.6 2.6 0 0 0-.409-.08c-.343-.043-.579-.163-.74-.373-.145-.191-.189-.316-.229-.659-.055-.478-.296-.787-.707-.911a.9.9 0 0 0-.595.002m8 0c-.397.124-.633.434-.693.909-.045.354-.086.472-.228.659-.161.21-.397.33-.74.373a2.6 2.6 0 0 0-.409.08 1.1 1.1 0 0 0-.497.438c-.091.156-.108.23-.108.484 0 .257.016.327.113.492.13.222.369.409.603.473.224.061.783.017 1.127-.088a3.08 3.08 0 0 0 2.022-2.037c.07-.229.092-.4.093-.72.002-.386-.007-.435-.106-.604a1.005 1.005 0 0 0-1.177-.459M3.499 13.042a3.05 3.05 0 0 0-2.385 2.118l-.094.3v5.08l.094.3a3.09 3.09 0 0 0 2.046 2.046l.3.094h5.08l.3-.094a3.09 3.09 0 0 0 2.046-2.046l.094-.3v-5.08l-.094-.3a3.08 3.08 0 0 0-2.025-2.038l-.321-.1-2.42-.007c-1.331-.004-2.511.008-2.621.027m4.811 2.019c.279.083.546.35.629.629.086.288.091 4.317.006 4.6a1.02 1.02 0 0 1-.461.582l-.184.108H3.7l-.184-.108a1.05 1.05 0 0 1-.458-.556c-.088-.251-.086-4.328.003-4.626.075-.252.343-.537.589-.623.256-.091 4.358-.096 4.66-.006"/></svg>