<svg xmlns="http://www.w3.org/2000/svg" width="24" height="24" fill="none" stroke="currentColor" stroke-linecap="round" stroke-linejoin="round" stroke-width="2"><path fill="#000" fill-rule="evenodd" stroke="none" d="M11.24 1.045c-2.481.219-4.702 1.629-5.674 3.603-.429.872-.547 1.405-.544 2.472.003 1.055.122 1.79.455 2.798.422 1.276 1.001 2.327 2.209 4.01.378.527.401.57.349.653-.03.048-.721.945-1.535 1.994s-1.538 2.009-1.609 2.135a2.25 2.25 0 0 0-.25.918c.001.245.105.668.226.919.065.135.213.334.353.473.259.258 2.085 1.594 2.408 1.761a1.99 1.99 0 0 0 2.186-.264c.101-.089.628-.756 1.17-1.481.543-.726 1.001-1.314 1.02-1.308.018.007.449.579.957 1.272s1.007 1.345 1.108 1.448c.56.573 1.528.718 2.271.342.282-.142 2.232-1.556 2.448-1.774.617-.623.73-1.707.252-2.422-.064-.096-.768-1.002-1.563-2.014a733 733 0 0 1-1.546-1.969l-.099-.129.517-.711c1.65-2.27 2.239-3.543 2.577-5.571.08-.481.069-1.79-.019-2.2-.677-3.162-3.959-5.283-7.667-4.955m1.84 2.057c1.502.256 2.86 1.151 3.49 2.298.19.348.339.776.373 1.078l.028.246-.311-.222a8.2 8.2 0 0 0-3.32-1.386c-.746-.132-1.934-.132-2.68 0a8.15 8.15 0 0 0-3.296 1.368l-.336.241.025-.237c.013-.13.072-.37.13-.532.554-1.56 2.12-2.663 4.137-2.914.403-.05 1.293-.02 1.76.06m-.77 3.959c.42.125.739.614.673 1.031-.047.29-.341.774-.873 1.432L12 9.66l-.11-.136c-.532-.658-.826-1.142-.873-1.432-.065-.407.252-.905.656-1.029a.94.94 0 0 1 .637-.002m-3.189 1.71c.175.576.483 1.094 1.135 1.906.236.293.419.557.408.586-.031.081-1.235 1.577-1.269 1.577-.04 0-.671-.907-1.017-1.46-.35-.56-.764-1.387-.916-1.827l-.117-.342.209-.241c.26-.298.71-.685 1.117-.958l.309-.208.027.34c.015.188.066.47.114.627m6.717-.375c.194.159.456.407.583.55l.23.261-.13.346c-.311.832-.902 1.823-1.894 3.179a903 903 0 0 1-5.076 6.877l-1.036 1.389-.428-.312c-.235-.172-.648-.472-.918-.667-.296-.213-.484-.375-.472-.405.069-.181 5.581-7.183 6.701-8.514 1.123-1.334 1.533-2.095 1.59-2.947l.023-.348.237.151c.13.082.395.28.59.44m.179 9.563c.717.913 1.299 1.672 1.293 1.687-.009.024-.734.554-1.596 1.167l-.267.189-1.103-1.501L13.241 18l.669-.916c.624-.852.675-.91.737-.849.037.036.654.812 1.37 1.724"/></svg>