<svg xmlns="http://www.w3.org/2000/svg" width="24" height="24" fill="none" stroke="currentColor" stroke-linecap="round" stroke-linejoin="round" stroke-width="2"><path fill="#000" fill-rule="evenodd" stroke="none" d="M3.24 1.035c-.498.163-.822.665-.724 1.121.064.299 2.999 10.554 3.067 10.717a.98.98 0 0 0 .469.516c.201.104.235.108.98.124.424.008.766.031.76.05-.056.161-2.702 5.074-2.734 5.076-.067.002-.851-.636-1.292-1.053-.513-.485-.656-.564-1.026-.564-.209 0-.321.022-.44.086a1 1 0 0 0-.539.892c-.001.352.122.559.601 1.015a14.06 14.06 0 0 0 7.622 3.703 14.02 14.02 0 0 0 11.654-3.703c.289-.276.443-.456.508-.595.323-.693-.245-1.495-.996-1.406-.294.035-.441.126-.902.56-.236.221-.616.551-.847.734l-.419.333-.076-.148c-.097-.19-2.306-4.931-2.306-4.95 0-.008.365-.022.81-.031.658-.013.84-.029.97-.086.353-.155.619-.552.619-.926 0-.38-.307-.824-.647-.936-.101-.033-1.634-.048-5.615-.055L7.26 11.5 5.893 6.72A1155 1155 0 0 0 4.46 1.727a1.1 1.1 0 0 0-.507-.61c-.17-.087-.561-.132-.713-.082M15.808 16.6l1.429 3.06-.288.134a12 12 0 0 1-9.882.01l-.274-.124.078-.13c.043-.071.785-1.458 1.649-3.08l1.57-2.951 2.144.011 2.144.01z"/></svg>