<svg xmlns="http://www.w3.org/2000/svg" width="24" height="24" fill="none" stroke="currentColor" stroke-linecap="round" stroke-linejoin="round" stroke-width="2"><path fill="#000" fill-rule="evenodd" stroke="none" d="M5.4 4.044c-1.639.185-3.139 1.246-3.874 2.741a5.4 5.4 0 0 0-.433 1.255c-.069.319-.073.671-.073 5.803v5.463l.121.197a.998.998 0 0 0 1.718 0l.121-.197.02-5.423.02-5.423.101-.321A3.1 3.1 0 0 1 4.66 6.317l.32-.164L5 12.73l.02 6.576.121.197a.998.998 0 0 0 1.718 0l.121-.197.01-6.577.011-6.577.109.026c.364.089 1.13.491 1.59.835l.28.209.02 6.042.02 6.042.121.197a.998.998 0 0 0 1.718 0l.121-.197.011-4.979.01-4.979.29.374q.684.883 1.318 1.542l.389.404.011 3.819.011 3.819.121.197a.998.998 0 0 0 1.718 0l.121-.197.011-3.053c.006-1.679.017-3.053.024-3.053s.2.088.429.195c.441.206.902.369 1.296.457l.24.054.02 2.7.02 2.7.121.197a.998.998 0 0 0 1.718 0l.121-.197.011-2.713.011-2.713h.089c.146 0 .966-.3 1.238-.453.14-.077.347-.205.461-.284l.208-.143.011 3.153.011 3.153.121.197a.998.998 0 0 0 1.718 0l.121-.197.011-5.362c.011-5.948.022-5.677-.253-6.498-.45-1.344-1.362-2.373-2.633-2.968a4.97 4.97 0 0 0-5.539.9c-.396.38-.523.581-.554.874-.04.394.164.772.528.976.164.091.247.111.46.109.328-.004.492-.086.851-.431.308-.296.612-.508.928-.647l.218-.096.011 1.571.012 1.572.121.197a.998.998 0 0 0 1.718 0l.121-.197.012-1.553c.008-1.054.025-1.553.054-1.553.023 0 .18.072.348.159.586.306.971.701 1.268 1.301.214.434.295.729.323 1.18a3.1 3.1 0 0 1-.455 1.76c-.183.292-.612.725-.912.921-1.154.753-2.664.604-4.146-.409a10 10 0 0 1-.82-.668c-.784-.714-.979-.936-2.219-2.51-2.22-2.821-4.641-4.16-7.033-3.89"/></svg>