<svg xmlns="http://www.w3.org/2000/svg" width="24" height="24" fill="none" stroke="currentColor" stroke-linecap="round" stroke-linejoin="round" stroke-width="2"><path fill="#000" fill-rule="evenodd" stroke="none" d="M14.64 1.069c-.152.052-.435.315-1.815 1.686C11.04 4.53 11.001 4.578 11.001 5c0 .42.042.472 1.805 2.226.888.883 1.675 1.636 1.749 1.673.455.229 1.046.045 1.312-.407.097-.165.113-.234.112-.492 0-.213-.022-.34-.075-.44-.04-.077-.39-.46-.777-.85L14.423 6h1.841c2.091 0 2.127.004 2.415.283.296.288.298.298.321 1.74l.02 1.284.121.196a.998.998 0 0 0 1.718 0l.121-.197V7.883c0-1.38-.003-1.432-.094-1.723a3.08 3.08 0 0 0-2.025-2.037l-.321-.1-2.056-.014-2.056-.014.701-.707c.386-.39.735-.771.775-.848.053-.1.075-.227.075-.44.001-.255-.015-.328-.107-.484a1.01 1.01 0 0 0-1.232-.447M5.499 4.043C4.383 4.23 3.461 5.048 3.114 6.16l-.094.3v12.08l.094.3a3.09 3.09 0 0 0 2.046 2.046l.3.094h13.08l.3-.094a3.09 3.09 0 0 0 2.046-2.046l.094-.3V12.7l-.109-.186a1.01 1.01 0 0 0-1.742 0l-.109.186-.02 2.78c-.015 2.102-.032 2.807-.07 2.893a1.15 1.15 0 0 1-.446.499l-.184.108H5.7l-.184-.108a1.2 1.2 0 0 1-.291-.249c-.238-.312-.225.032-.225-6.101 0-6.34-.022-5.894.303-6.219.284-.284.391-.303 1.734-.305 1.229-.002 1.319-.014 1.582-.215.077-.058.189-.191.25-.294.095-.161.111-.233.111-.489 0-.254-.017-.328-.108-.484a1.2 1.2 0 0 0-.254-.295C8.35 4.016 8.216 4 6.904 4.005c-.662.002-1.295.02-1.405.038"/></svg>