<svg xmlns="http://www.w3.org/2000/svg" width="24" height="24" fill="none" stroke="currentColor" stroke-linecap="round" stroke-linejoin="round" stroke-width="2"><path fill="#000" fill-rule="evenodd" stroke="none" d="M11.08 2.042c-1.915.184-3.72.906-5.28 2.112-.497.384-1.371 1.278-1.767 1.806-1.408 1.881-2.098 4.052-2.02 6.36.071 2.119.739 4.008 2.02 5.72.397.53 1.272 1.424 1.767 1.807 1.442 1.114 2.987 1.777 4.8 2.06.647.101 2.153.101 2.8 0 1.814-.283 3.362-.948 4.8-2.06.437-.338 1.309-1.21 1.647-1.647 1.359-1.757 2.119-3.857 2.13-5.88.003-.606.001-.624-.106-.806-.39-.663-1.351-.667-1.737-.007-.095.161-.109.241-.141.766-.117 1.923-.709 3.475-1.848 4.837a7.85 7.85 0 0 1-2.674 2.09 7.94 7.94 0 0 1-6.942 0 7.9 7.9 0 0 1-2.682-2.1 8.1 8.1 0 0 1-1.686-3.522A8.03 8.03 0 0 1 4.816 8.5 7.92 7.92 0 0 1 8.5 4.816c3.168-1.556 7.107-.818 9.719 1.821l.359.363h-1.342c-1.461 0-1.583.015-1.854.221-.08.061-.195.194-.254.295-.091.156-.108.23-.108.484 0 .256.016.328.111.489.125.213.318.375.539.454.12.043.698.054 2.85.055l2.7.001.2-.093c.237-.11.425-.311.516-.552.06-.157.066-.443.055-2.914L21.98 2.7l-.109-.186a1.01 1.01 0 0 0-1.742 0l-.109.186-.012 1.432-.012 1.432-.466-.445c-.944-.901-1.738-1.462-2.83-1.999s-2.018-.828-3.191-1.003c-.614-.092-1.856-.131-2.429-.075"/></svg>