<svg xmlns="http://www.w3.org/2000/svg" width="24" height="24" fill="none" stroke="currentColor" stroke-linecap="round" stroke-linejoin="round" stroke-width="2"><path fill="#000" fill-rule="evenodd" stroke="none" d="M14.34 1.027c-1.893.161-3.683.879-5.04 2.021-.803.676-.938.862-.938 1.292 0 .561.429.988.995.988.316 0 .463-.074.869-.436.656-.584 1.134-.906 1.814-1.223a7 7 0 0 1 1.98-.594c.449-.065 1.574-.064 2 .002a7.1 7.1 0 0 1 3.637 1.704c.484.429.571.486.804.527a.987.987 0 0 0 1.168-1.165c-.058-.324-.283-.583-1.049-1.209-.928-.757-2.424-1.462-3.679-1.732-.743-.16-1.847-.236-2.561-.175m-.06 4.032c-1 .148-1.9.58-2.667 1.277-.306.279-.421.503-.421.82 0 .605.466 1.042 1.06.995.303-.025.415-.079.728-.354.493-.433.888-.632 1.48-.746a3.6 3.6 0 0 1 1.34.047c.359.097.842.36 1.141.62.368.32.615.441.899.441a.98.98 0 0 0 .988-.899c.035-.331-.064-.565-.36-.854a4.98 4.98 0 0 0-4.188-1.347m.415 3.998a1.04 1.04 0 0 0-.567.459l-.108.184-.012 1.649-.011 1.649-5.269.011-5.268.011-.321.101a3.09 3.09 0 0 0-2.025 2.039l-.094.3v5.08l.094.3a3.09 3.09 0 0 0 2.046 2.046l.3.094h17.08l.3-.094a3.09 3.09 0 0 0 2.046-2.046l.094-.3v-5.08l-.094-.3a3.08 3.08 0 0 0-2.025-2.038l-.321-.1-2.268-.013-2.269-.013-.011-1.648L15.98 9.7l-.108-.184a1.005 1.005 0 0 0-1.177-.459m5.615 6.004c.279.083.546.35.629.629.086.288.091 4.317.006 4.6a1.02 1.02 0 0 1-.461.582l-.184.108H3.7l-.184-.108a1.2 1.2 0 0 1-.291-.249C3 20.327 3 20.332 3 18.022c0-2.433-.002-2.414.301-2.716.326-.326-.448-.299 8.662-.303 7.179-.003 8.167.004 8.347.058M5.695 17.055a1.05 1.05 0 0 0-.567.461c-.091.156-.108.23-.108.484 0 .257.016.327.113.492.518.882 1.865.526 1.865-.492a.99.99 0 0 0-.535-.888 1.17 1.17 0 0 0-.768-.057m4 0a1.05 1.05 0 0 0-.567.461c-.091.156-.108.23-.108.484 0 .257.016.327.113.492.518.882 1.865.526 1.865-.492a.99.99 0 0 0-.535-.888 1.17 1.17 0 0 0-.768-.057"/></svg>