<svg xmlns="http://www.w3.org/2000/svg" width="24" height="24" fill="none" stroke="currentColor" stroke-linecap="round" stroke-linejoin="round" stroke-width="2"><path fill="#000" fill-rule="evenodd" stroke="none" d="M17.358 1.061c-1.507.235-2.761 1.354-3.215 2.869-.019.066-.241.07-3.932.07q-3.91 0-4.271.044a4.5 4.5 0 0 0-3.928 4.673c.049 1 .45 2.004 1.084 2.715.66.74 1.361 1.172 2.341 1.442l.383.105L11.9 13c5.761.02 6.092.025 6.3.094.685.229 1.226.682 1.515 1.268.372.756.375 1.516.008 2.258a2.54 2.54 0 0 1-1.403 1.249l-.3.111-4.071.011c-3.871.011-4.072.008-4.093-.06a18 18 0 0 0-.145-.391c-.498-1.308-1.703-2.27-3.106-2.482a3.4 3.4 0 0 0-1.21 0c-2.24.338-3.763 2.505-3.312 4.715a3.97 3.97 0 0 0 2.429 2.931 3.95 3.95 0 0 0 2.245.217c1.37-.28 2.473-1.198 2.954-2.461.067-.176.132-.351.144-.389.02-.064.289-.069 4.173-.08l4.152-.012.383-.105c1.701-.469 2.875-1.645 3.304-3.311.558-2.166-.688-4.505-2.814-5.281-.754-.275-.269-.255-6.993-.28l-6.08-.022-.3-.111A2.53 2.53 0 0 1 4.06 7.98a2.5 2.5 0 0 1 1.302-1.695c.595-.293.431-.284 4.829-.284 3.71-.001 3.933.003 3.952.069.367 1.222 1.219 2.17 2.369 2.634a3.99 3.99 0 0 0 5.192-2.216 3.96 3.96 0 0 0 .001-2.972 3.98 3.98 0 0 0-3.1-2.458 3.7 3.7 0 0 0-1.247.003m1.165 2.012a2.01 2.01 0 0 1 1.27 2.807c-.155.318-.566.745-.863.895a2.07 2.07 0 0 1-1.422.165c-.685-.178-1.259-.746-1.435-1.417a2 2 0 0 1 2.45-2.45m-12 14a2.01 2.01 0 0 1 1.444 1.617c.1.653-.094 1.243-.564 1.714C7.002 20.807 6.547 21 6 21q-.771 0-1.347-.535c-1.33-1.236-.464-3.46 1.347-3.46.143 0 .378.031.523.068"/></svg>