<svg xmlns="http://www.w3.org/2000/svg" width="24" height="24" fill="none" stroke="currentColor" stroke-linecap="round" stroke-linejoin="round" stroke-width="2"><path fill="#000" fill-rule="evenodd" stroke="none" d="M1.67 1.061c-.222.081-.42.248-.542.455-.091.156-.108.23-.108.484s.016.328.107.48c.059.099.637.707 1.283 1.352l1.175 1.172-.271.28a4.94 4.94 0 0 0-1.128 1.958c-.462 1.596.047 3.419 1.27 4.543.58.534 1.2.874 1.981 1.088l.383.105 2.882.013 2.882.013 2.498 2.498L16.58 18h-3.351c-3.157 0-3.353-.004-3.374-.07a14 14 0 0 0-.144-.39c-.498-1.308-1.703-2.27-3.106-2.482a3.4 3.4 0 0 0-1.21 0c-2.24.338-3.763 2.505-3.312 4.715a3.97 3.97 0 0 0 2.429 2.931 3.95 3.95 0 0 0 2.245.217c1.37-.28 2.473-1.198 2.954-2.461.067-.176.132-.351.144-.389.02-.064.294-.069 4.173-.082 2.778-.009 4.2-.027 4.297-.056l.146-.043 1.434 1.438c.789.79 1.516 1.486 1.615 1.545.153.091.226.107.48.107.257 0 .327-.016.492-.113.476-.28.647-.9.373-1.359-.055-.092-4.65-4.715-10.212-10.273C3.3 1.889 2.525 1.125 2.343 1.065a1 1 0 0 0-.673-.004m15.688 0c-1.128.176-2.215.913-2.789 1.892-.156.266-.388.794-.416.947-.014.078-.054.08-1.874.1-1.81.019-1.863.022-2.019.106-.353.191-.548.509-.548.894 0 .405.207.724.588.905l.2.094L12.311 6c1.69 0 1.813.005 1.832.07.367 1.222 1.219 2.17 2.369 2.634a3.99 3.99 0 0 0 5.192-2.216 3.96 3.96 0 0 0 .001-2.972 3.98 3.98 0 0 0-3.1-2.458 3.7 3.7 0 0 0-1.247.003m1.165 2.012a2.01 2.01 0 0 1 1.27 2.807c-.155.318-.566.745-.863.895a2.07 2.07 0 0 1-1.422.165c-.685-.178-1.259-.746-1.435-1.417a2 2 0 0 1 2.45-2.45M7.92 10.99c-1.326.009-1.695 0-1.925-.048-.893-.186-1.665-.936-1.894-1.84-.08-.314-.079-.962.002-1.276.1-.385.356-.837.645-1.135l.256-.266 2.278 2.277L9.56 10.98zm9.52.047c-.445.136-.733.516-.73.963a.93.93 0 0 0 .336.738c.207.186.203.184.945.317.502.089.879.292 1.27.684.392.391.595.768.684 1.27.133.742.131.738.317.945a.93.93 0 0 0 .738.336c.378.002.703-.197.894-.55.125-.233.111-.814-.033-1.36a4.53 4.53 0 0 0-2.472-2.96c-.644-.305-1.593-.491-1.949-.383M6.523 17.073a2.01 2.01 0 0 1 1.444 1.617c.1.653-.094 1.243-.564 1.714C7.002 20.807 6.547 21 6 21q-.771 0-1.347-.535c-1.33-1.236-.464-3.46 1.347-3.46.143 0 .378.031.523.068"/></svg>