<svg xmlns="http://www.w3.org/2000/svg" width="24" height="24" fill="none" stroke="currentColor" stroke-linecap="round" stroke-linejoin="round" stroke-width="2"><path fill="#000" fill-rule="evenodd" stroke="none" d="M6.466 1.039a3.7 3.7 0 0 0-1.386.554c-.243.158-3.013 2.885-3.319 3.267C.812 6.047.747 7.605 1.592 8.92c.165.257 12.82 12.954 13.283 13.327a3.37 3.37 0 0 0 4.25 0c.373-.301 3.053-2.999 3.243-3.267a3.396 3.396 0 0 0-.121-4.105C21.874 14.413 9.178 1.757 8.92 1.592c-.596-.383-1.123-.551-1.8-.573a4.4 4.4 0 0 0-.654.02M7.591 3.14c.178.081.365.241.859.731l.631.627-.675.681c-.371.375-.711.735-.755.801-.28.416-.135 1.061.303 1.351.315.209.796.204 1.103-.011.09-.063.451-.403.803-.757l.639-.643.791.79.79.789-.674.681c-.757.764-.82.843-.876 1.108-.148.703.45 1.308 1.167 1.181.275-.049.431-.171 1.163-.906l.639-.643.791.79.79.789-.674.681c-.757.764-.82.843-.876 1.108-.114.542.247 1.091.777 1.182.24.042.552-.011.712-.119.066-.045.427-.386.801-.757l.681-.674.789.79.79.791-.643.639c-.354.352-.693.712-.755.8-.403.577-.062 1.412.625 1.53.24.042.552-.011.712-.119.066-.045.427-.386.802-.757l.681-.675.627.631c.764.77.851.918.851 1.45 0 .594-.004.599-1.632 2.233-.774.777-1.484 1.467-1.578 1.532a1.38 1.38 0 0 1-1.54 0c-.094-.066-3.061-3.014-6.594-6.552C2.424 6.991 3.025 7.646 3.023 7c-.002-.596-.002-.597 1.649-2.253.785-.788 1.508-1.48 1.605-1.538a1.43 1.43 0 0 1 1.314-.069"/></svg>