<svg xmlns="http://www.w3.org/2000/svg" width="24" height="24" fill="none" stroke="currentColor" stroke-linecap="round" stroke-linejoin="round" stroke-width="2"><path fill="#000" fill-rule="evenodd" stroke="none" d="M8.695 2.057a1.04 1.04 0 0 0-.567.459L8.02 2.7l-.011 3.65L7.998 10H6.946c-1.149 0-1.302.022-1.564.221-.08.061-.195.194-.254.295-.091.156-.108.23-.108.484 0 .256.016.328.111.489.061.103.173.236.25.294.262.2.357.213 1.529.215L8 12v2H6.946c-1.149 0-1.302.022-1.564.221-.08.061-.195.194-.254.295-.091.156-.108.23-.108.484 0 .256.016.328.111.489.061.103.173.236.25.294.261.2.357.213 1.528.215L7.998 16l.011 2.653.011 2.653.121.197c.068.11.205.253.311.325.471.316 1.102.171 1.407-.325l.121-.197.011-2.653.011-2.653 2.089-.002c1.64-.001 2.121-.013 2.239-.055.221-.079.414-.241.539-.454.095-.161.111-.233.111-.489 0-.254-.017-.328-.108-.484a1.2 1.2 0 0 0-.254-.295c-.284-.217-.335-.221-2.564-.221H10v-1.996l2.35-.015c2.066-.013 2.386-.023 2.65-.085 1.535-.359 2.756-1.29 3.433-2.616.229-.449.372-.849.474-1.328.101-.471.101-1.449 0-1.92-.282-1.319-1.044-2.464-2.107-3.166-.754-.499-1.404-.739-2.248-.831-.594-.065-5.643-.053-5.857.014m6.166 2.065a3.07 3.07 0 0 1 2.014 2.017c.083.273.098.403.098.861s-.015.588-.098.861c-.29.95-1.035 1.699-2.015 2.024-.278.092-.298.093-2.57.106l-2.29.013V3.996l2.27.013 2.27.013z"/></svg>