<svg xmlns="http://www.w3.org/2000/svg" width="24" height="24" fill="none" stroke="currentColor" stroke-linecap="round" stroke-linejoin="round" stroke-width="2"><path fill="#000" fill-rule="evenodd" stroke="none" d="M9.58 1.095c-.11.052-.247.147-.304.21-.139.154-7.19 12.256-7.238 12.423a1.01 1.01 0 0 0 .261.973c.311.311.165.299 3.628.299H9v2H5.446c-3.856 0-3.768-.005-4.064.221-.08.061-.195.194-.254.295-.101.172-.108.215-.107.644.001.5.077.943.247 1.44.578 1.691 1.985 2.925 3.772 3.307.321.069.71.073 6.96.073s6.639-.004 6.96-.073c1.528-.327 2.788-1.277 3.473-2.619.375-.735.544-1.395.546-2.128.001-.429-.006-.472-.107-.644a1.02 1.02 0 0 0-.582-.461c-.151-.045-1.146-.055-5.736-.055H11v-2l5.09-.002c4.148-.001 5.118-.011 5.24-.055.221-.079.414-.241.539-.454.154-.261.158-.662.011-.938-.06-.112-2.331-2.619-5.693-6.285-4.967-5.416-5.615-6.108-5.788-6.183a1 1 0 0 0-.819.012m5.26 7.665c1.942 2.123 3.614 3.946 3.714 4.05l.183.19H11V4.581l.155.16c.085.087 1.743 1.896 3.685 4.019M9 9.36V13H6.877c-1.168 0-2.118-.015-2.11-.034.021-.053 4.212-7.243 4.223-7.244.005-.001.01 1.636.01 3.638m11.797 9.75a3.5 3.5 0 0 1-.492.801c-.412.48-.883.794-1.465.975l-.3.094H5.46l-.3-.094a3.07 3.07 0 0 1-1.465-.975 3.5 3.5 0 0 1-.492-.801L3.162 19h17.676z"/></svg>