<svg xmlns="http://www.w3.org/2000/svg" width="24" height="24" fill="none" stroke="currentColor" stroke-linecap="round" stroke-linejoin="round" stroke-width="2"><path fill="#000" fill-rule="evenodd" stroke="none" d="M18.5 2.379a4 4 0 0 0-.52.14c-.132.048-.269.097-.305.108-.037.011-.19-.025-.34-.079a3.3 3.3 0 0 0-1.326-.176c-.72.038-1.335.272-1.935.735l-.275.213h-.437c-.828 0-1.487.218-2.122.702a3.5 3.5 0 0 0-1.005 1.26l-.087.194-.144-.062c-.858-.37-1.949-.505-2.829-.352a5 5 0 0 0-4.08 3.94c-.077.365-.1 1.301-.044 1.739l.031.24-.248.047a1 1 0 0 0-.694.474c-.12.192-.12.193-.118.795.004.869.128 1.666.402 2.571a9.76 9.76 0 0 0 2.495 4.175c.452.453 1.118 1.022 1.348 1.151.046.025.03.071-.082.239a.993.993 0 0 0 .312 1.426l.197.121h10.612l.197-.121a.993.993 0 0 0 .312-1.426c-.112-.168-.128-.214-.082-.239.428-.24 1.644-1.387 2.114-1.994 1.359-1.757 2.119-3.857 2.13-5.88.003-.606.001-.624-.106-.806a1.3 1.3 0 0 0-.269-.304l-.16-.117.123-.116c.196-.186.465-.584.617-.914.384-.83.417-1.752.095-2.618l-.08-.216.1-.264a3.1 3.1 0 0 0 .222-1.245c.001-1.179-.521-2.156-1.516-2.836-.686-.47-1.646-.663-2.503-.505m1.241 2.087c.264.129.553.425.668.685.185.417.13.973-.135 1.357-.179.26-.242.444-.242.703 0 .237.042.348.301.793.226.389.218.875-.023 1.327-.15.284-.331.447-.657.595-.448.203-.673.477-.721.877l-.023.197h-3.487l1.204-1.21c.663-.665 1.238-1.273 1.279-1.35.052-.099.074-.227.074-.44.001-.255-.015-.328-.107-.484a1 1 0 0 0-1.215-.451c-.177.059-.393.261-2.141 2.004l-1.945 1.937-.776-.013-.777-.013-.265-.13a1.37 1.37 0 0 1-.666-.685c-.151-.325-.152-.81-.002-1.13.204-.434.521-.683 1.035-.813.641-.161.921-.58.832-1.243-.073-.546.068-.963.437-1.301.387-.353.841-.439 1.468-.279.511.131.824.018 1.184-.424.37-.454.687-.617 1.196-.613.313.002.453.048.818.268.457.277.785.267 1.254-.036.348-.227.529-.278.901-.255.228.014.368.047.531.127M8.591 7.064c.17.035.322.071.338.081s-.08.155-.212.322a3.7 3.7 0 0 0-.639 1.22c-.174.605-.137 1.506.084 2.089.043.112.078.209.078.214s-.69.01-1.534.01H5.173l-.046-.153a3.5 3.5 0 0 1-.108-1.087c.162-1.821 1.805-3.061 3.572-2.696m11.329 6.014c0 .043-.037.271-.083.508-.237 1.228-.861 2.53-1.684 3.514a7.9 7.9 0 0 1-2.682 2.1 7.94 7.94 0 0 1-6.942 0 7.9 7.9 0 0 1-2.682-2.1c-.826-.987-1.446-2.282-1.684-3.514a6 6 0 0 1-.083-.508c0-.077.095-.078 7.92-.078s7.92.001 7.92.078"/></svg>