<svg xmlns="http://www.w3.org/2000/svg" width="24" height="24" fill="none" stroke="currentColor" stroke-linecap="round" stroke-linejoin="round" stroke-width="2"><path fill="#000" fill-rule="evenodd" stroke="none" d="M11.485 3.042c-.314.057-.74.213-.992.365-.293.178-8.469 6.784-8.861 7.161-.334.321-.512.627-.593 1.018-.028.135-.039.684-.031 1.542l.012 1.332.113.27.112.27-.112.27-.113.27-.012 1.332c-.014 1.448 0 1.596.194 2.005.146.309.569.746.868.898.461.233.272.225 5.13.225h4.463l.358.265c.484.356.701.477 1.079.599.999.323 2.205.046 2.962-.68l.192-.184h2.505c2.718 0 2.728-.001 3.171-.225.266-.135.708-.575.841-.838.218-.429.235-.588.221-2.032-.012-1.281-.016-1.333-.107-1.565-.117-.3-.117-.381 0-.68.092-.232.095-.282.107-1.545.013-1.426-.009-1.634-.216-2.042a2.4 2.4 0 0 0-.37-.471c-.241-.239-8.017-6.553-8.643-7.017a3 3 0 0 0-.984-.483c-.293-.079-1.003-.112-1.294-.06m.868 2.03c.111.043 1.254.943 3.162 2.488l2.989 2.42-3.252.01c-1.789.006-4.715.006-6.504 0l-3.252-.01 2.989-2.42c1.908-1.545 3.051-2.445 3.162-2.488a1 1 0 0 1 .706 0M21 13v1H3v-2h18zM7.646 16.985c.723.541 1.314.991 1.314 1 0 .008-1.341.015-2.98.015H3v-2h3.333zm9.074-.964c0 .012-.459.632-1.02 1.379-1.117 1.485-1.177 1.545-1.588 1.587a1.3 1.3 0 0 1-.383-.024c-.124-.034-.702-.444-2.117-1.505L9.666 16h3.527c1.94 0 3.527.009 3.527.021M21 17v1h-3.249l.098-.13.749-1 .652-.87H21z"/></svg>