<svg xmlns="http://www.w3.org/2000/svg" width="24" height="24" fill="none" stroke="currentColor" stroke-linecap="round" stroke-linejoin="round" stroke-width="2"><path fill="#000" fill-rule="evenodd" stroke="none" d="M10.695 2.054a.998.998 0 0 0-.497 1.537c.065.09.202.212.304.272.167.098.24.112.751.142 1.074.063 1.745.182 2.587.461a9.03 9.03 0 0 1 5.694 5.694c.279.843.398 1.513.461 2.59.032.531.042.584.151.76a1 1 0 0 0 1.71-.002c.148-.242.175-.587.106-1.399a11.04 11.04 0 0 0-2.192-5.746c-.454-.608-1.523-1.677-2.13-2.128q-2.816-2.094-6.22-2.216c-.412-.014-.604-.005-.725.035m0 4.001a1.05 1.05 0 0 0-.567.461c-.091.156-.108.23-.108.484 0 .257.016.327.113.492.128.218.372.412.583.463.079.019.387.055.684.08s.666.079.82.119a5.05 5.05 0 0 1 3.626 3.626c.04.154.093.523.119.82s.061.605.08.684c.051.211.245.455.463.583.165.097.235.113.492.113s.327-.016.492-.113c.222-.13.409-.369.473-.603.049-.181.026-.82-.047-1.308-.418-2.783-2.527-5.09-5.258-5.751-.678-.164-1.688-.241-1.965-.15M3.65 9.066c-.278.099-.482.34-.758.895a9 9 0 0 0-.798 2.479c-.097.58-.097 1.936 0 2.5.155.898.375 1.592.746 2.36.434.897.9 1.552 1.604 2.256a7.8 7.8 0 0 0 2.216 1.585c1.676.815 3.488 1.053 5.28.695.96-.192 2.411-.79 2.764-1.14.292-.288.376-.781.195-1.141-.037-.074-1.06-1.129-2.272-2.345L10.421 15l1.205-1.21c.663-.665 1.238-1.273 1.279-1.35.052-.099.074-.227.074-.44.001-.255-.015-.328-.107-.484a1.02 1.02 0 0 0-.582-.461c-.236-.071-.347-.069-.613.009-.205.061-.287.135-1.447 1.289l-1.231 1.224-2.229-2.223c-2.015-2.008-2.249-2.23-2.427-2.289a1.04 1.04 0 0 0-.693.001m4.648 6.652c2.177 2.177 3.948 3.969 3.936 3.981a3 3 0 0 1-.401.119c-1.669.423-3.565.094-5.013-.871a6.35 6.35 0 0 1-2.639-6.742c.058-.245.118-.445.133-.445.014 0 1.807 1.781 3.984 3.958"/></svg>