<svg xmlns="http://www.w3.org/2000/svg" width="24" height="24" fill="none" stroke="currentColor" stroke-linecap="round" stroke-linejoin="round" stroke-width="2"><path fill="#000" fill-rule="evenodd" stroke="none" d="M8.64 2.068c-.154.053-.489.37-2.293 2.167-1.181 1.176-2.16 2.184-2.22 2.285-.091.153-.107.225-.106.48 0 .212.022.341.074.44.04.077.84.909 1.777 1.848l1.703 1.708-.202.214c-.298.315-.351.436-.351.79 0 .213.021.34.073.44.1.192 4.2 4.299 4.425 4.433.153.091.225.107.48.106.354-.001.476-.055.79-.352l.214-.202 1.708 1.703c.939.937 1.771 1.737 1.848 1.777.194.102.686.102.88 0 .192-.1 4.299-4.2 4.433-4.425.091-.153.107-.225.106-.48 0-.212-.022-.341-.074-.44-.04-.077-.84-.909-1.777-1.848l-1.703-1.708.202-.214c.298-.315.351-.436.351-.79 0-.215-.021-.34-.074-.44-.04-.077-.39-.46-.778-.85l-.704-.711 1.205-1.209c.662-.666 1.237-1.273 1.278-1.35.052-.099.074-.227.074-.44.001-.255-.015-.328-.107-.484a1 1 0 0 0-1.215-.45c-.173.058-.345.213-1.426 1.287l-1.23 1.222-.73-.721c-.616-.607-.762-.731-.928-.787-.407-.138-.729-.056-1.101.281l-.247.224-1.728-1.721C9.721 2.312 9.519 2.124 9.343 2.066a1.04 1.04 0 0 0-.703.002M10.3 5.72 11.58 7l-1.29 1.29L9 9.58 7.71 8.29 6.42 7 7.7 5.72A60 60 0 0 1 9 4.44c.011 0 .596.576 1.3 1.28m5 3L16.58 10l-2.29 2.29L12 14.58l-1.29-1.29L9.42 12l2.28-2.28A188 188 0 0 1 14 7.44c.011 0 .596.576 1.3 1.28m3 5L19.58 15l-1.29 1.29L17 17.58l-1.29-1.29L14.42 15l1.28-1.28a60 60 0 0 1 1.3-1.28c.011 0 .596.576 1.3 1.28m-15.605.335a1.05 1.05 0 0 0-.567.461c-.091.156-.108.23-.108.484 0 .257.016.327.113.492.128.218.372.412.583.463.079.019.387.055.684.08s.666.079.82.119a5.05 5.05 0 0 1 3.626 3.626c.04.154.093.523.119.82s.061.605.08.684c.051.211.245.455.463.583.165.097.235.113.492.113s.327-.016.492-.113c.222-.13.409-.369.473-.603.049-.181.026-.82-.047-1.308-.418-2.783-2.527-5.09-5.258-5.751-.678-.164-1.688-.241-1.965-.15"/></svg>