<svg xmlns="http://www.w3.org/2000/svg" width="24" height="24" fill="none" stroke="currentColor" stroke-linecap="round" stroke-linejoin="round" stroke-width="2"><path fill="#000" fill-rule="evenodd" stroke="none" d="M11.695 2.057a1.04 1.04 0 0 0-.567.459c-.106.18-.108.2-.128 1.024l-.02.84-.493.211C9.134 5.17 7.549 5.657 6.28 5.883c-.435.078-.699.093-2.02.115-1.048.017-1.555.04-1.633.074a1.13 1.13 0 0 0-.499.444c-.091.156-.108.23-.108.484 0 .256.016.328.111.489.238.406.486.507 1.243.509.426.002.55.014.536.052l-1.45 3.87c-.788 2.101-1.441 3.896-1.451 3.99-.025.216.052.492.19.683.214.295 1.124.827 1.853 1.083.678.238 1.08.3 1.948.3s1.27-.062 1.948-.3c.729-.256 1.639-.788 1.853-1.083.138-.191.215-.467.19-.683-.01-.094-.677-1.924-1.481-4.069L6.049 7.943l.546-.091c1.219-.205 3.02-.733 4.335-1.272.067-.027.07.307.07 6.696V20H8.946c-2.229 0-2.28.004-2.564.221-.08.061-.195.194-.254.295-.091.156-.108.23-.108.484 0 .256.016.328.111.489.125.213.318.375.539.454s10.438.079 10.66 0 .414-.241.539-.454c.095-.161.111-.233.111-.489 0-.254-.017-.328-.108-.484a1.2 1.2 0 0 0-.254-.295c-.284-.217-.335-.221-2.564-.221H13v-6.724c0-6.389.003-6.723.07-6.696 1.315.539 3.116 1.067 4.335 1.272l.546.091-1.461 3.898c-.804 2.145-1.471 3.975-1.481 4.069-.025.216.052.492.19.683.214.295 1.124.827 1.853 1.083.678.238 1.08.3 1.948.3s1.27-.062 1.948-.3c.729-.256 1.639-.788 1.853-1.083.138-.191.215-.467.19-.683-.01-.094-.663-1.889-1.451-3.99l-1.45-3.87c-.014-.038.11-.05.536-.052.757-.002 1.005-.103 1.243-.509.095-.161.111-.233.111-.489 0-.254-.017-.328-.108-.484a1.13 1.13 0 0 0-.499-.444c-.078-.034-.584-.057-1.633-.074-1.408-.023-1.563-.033-2.1-.131-1.308-.239-3.104-.805-4.368-1.379l-.266-.12-.013-.834c-.013-.823-.014-.836-.121-1.018a1.005 1.005 0 0 0-1.177-.459m-5.797 11.19c.798 2.129.866 2.331.804 2.377-.111.081-.819.292-1.122.335-.357.05-.803.05-1.16 0-.303-.043-1.011-.254-1.122-.335-.062-.046.006-.248.804-2.377.48-1.28.884-2.327.898-2.327s.418 1.047.898 2.327m14 0c.798 2.129.866 2.331.804 2.377-.111.081-.819.292-1.122.335-.357.05-.803.05-1.16 0-.303-.043-1.011-.254-1.122-.335-.062-.046.006-.248.804-2.377.48-1.28.884-2.327.898-2.327s.418 1.047.898 2.327"/></svg>