<svg xmlns="http://www.w3.org/2000/svg" width="24" height="24" fill="none" stroke="currentColor" stroke-linecap="round" stroke-linejoin="round" stroke-width="2"><path fill="#000" fill-rule="evenodd" stroke="none" d="M11.382 1.304a4 4 0 0 0-.517.162c-.131.056-1.86.911-3.842 1.902-2.887 1.443-3.632 1.831-3.748 1.953A1.1 1.1 0 0 0 3 6c0 .406.293.811.678.939.296.099.529.066.944-.133.19-.091.353-.166.362-.166S5 7.256 5 8.01v1.37l-1.577.79c-1.443.723-1.596.81-1.814 1.024a2.2 2.2 0 0 0-.567 1.018c-.031.15-.041 1.427-.033 4.29l.011 4.078.094.28c.332.991 1.07 1.722 2.046 2.026l.3.094h17.08l.3-.094c.976-.304 1.714-1.035 2.046-2.026l.094-.28.011-4.078c.008-2.863-.002-4.14-.033-4.29a2.2 2.2 0 0 0-.567-1.018c-.218-.214-.371-.301-1.814-1.024L19 9.38V8.01c0-.754.007-1.37.016-1.37s.172.075.362.166c.415.199.648.232.944.133A1.03 1.03 0 0 0 21 6c0-.226-.116-.512-.275-.679-.117-.122-.882-.52-3.905-2.03-2.659-1.328-3.842-1.899-4.04-1.95-.384-.098-1.045-.116-1.398-.037m3.262 3.138L17 5.619V21h-1.995l-.014-1.79c-.014-1.743-.017-1.797-.107-2.07-.322-.978-1.073-1.725-2.023-2.015-.273-.083-.403-.098-.861-.098s-.588.015-.861.098c-.95.29-1.701 1.037-2.023 2.015-.09.273-.093.327-.107 2.07L8.995 21H7V5.619l2.35-1.168a229 229 0 0 1 2.41-1.188c.033-.012.165-.016.294-.009.216.011.408.099 2.59 1.188M11.499 6.04a3.05 3.05 0 0 0-2.385 2.12c-.135.434-.135 1.246 0 1.68a3.09 3.09 0 0 0 2.046 2.046c.434.135 1.246.135 1.68 0a3.09 3.09 0 0 0 2.046-2.046c.135-.434.135-1.246 0-1.68-.305-.981-1.076-1.753-2.025-2.031-.361-.106-1.029-.149-1.362-.089m.811 2.021c.378.112.69.537.69.94 0 .33-.216.695-.516.871-.156.091-.23.108-.484.108s-.328-.017-.484-.108c-.581-.342-.683-1.098-.212-1.569q.417-.418 1.006-.242M5 16.323v4.684l-.65-.014c-.622-.012-.658-.018-.834-.121a1.2 1.2 0 0 1-.291-.249C2.991 20.317 3 20.482 3 16.385v-3.766l.97-.487c.534-.268.984-.488 1-.49.016-.001.03 2.106.03 4.681m15.02-4.193.98.489v3.744c0 4.064.005 3.958-.221 4.255-.061.08-.194.195-.295.254-.176.103-.212.109-.834.121l-.65.014v-4.684c0-2.575.009-4.683.02-4.683s.461.22 1 .49m-7.71 4.931a.9.9 0 0 1 .387.242c.296.296.303.347.303 2.144V21h-2v-1.553c0-1.798.007-1.848.304-2.144q.417-.418 1.006-.242"/></svg>