<svg xmlns="http://www.w3.org/2000/svg" width="24" height="24" fill="none" stroke="currentColor" stroke-linecap="round" stroke-linejoin="round" stroke-width="2"><path fill="#000" fill-rule="evenodd" stroke="none" d="M3.499 5.04a3.05 3.05 0 0 0-2.385 2.12c-.135.434-.135 1.246 0 1.68a3.09 3.09 0 0 0 2.046 2.046c.257.08.381.094.86.092.521-.002.585-.011.92-.127l.36-.125.64.637.64.637-.64.638-.64.637-.283-.096c-1.658-.564-3.384.312-3.903 1.981-.135.434-.135 1.246 0 1.68a3.09 3.09 0 0 0 2.046 2.046c.434.135 1.246.135 1.68 0a3.09 3.09 0 0 0 2.046-2.046c.08-.257.094-.381.092-.86-.002-.521-.011-.585-.127-.92l-.125-.36 4.053-4.06c2.229-2.233 4.086-4.123 4.126-4.2.052-.099.074-.228.074-.44.001-.255-.015-.328-.107-.484a1 1 0 0 0-1.215-.451c-.179.06-.447.315-2.927 2.79l-2.731 2.724-.637-.64-.636-.639.125-.36c.116-.335.125-.399.127-.92.002-.479-.012-.603-.092-.86-.306-.982-1.076-1.753-2.025-2.031-.361-.106-1.029-.149-1.362-.089m.811 2.021c.378.112.69.537.69.94 0 .33-.216.695-.516.871-.156.091-.23.108-.484.108s-.328-.017-.484-.108c-.581-.342-.683-1.098-.212-1.569q.417-.418 1.006-.242m9.385 3.996a1.04 1.04 0 0 0-.567.459c-.091.156-.108.23-.108.484 0 .256.016.328.111.489.125.213.318.375.539.454.215.077 2.445.077 2.66 0 .221-.079.414-.241.539-.454.095-.161.111-.233.111-.489 0-.254-.017-.328-.108-.484a1.02 1.02 0 0 0-.582-.461c-.251-.076-2.353-.074-2.595.002m6 0a1.04 1.04 0 0 0-.567.459c-.091.156-.108.23-.108.484 0 .256.016.328.111.489.125.213.318.375.539.454.215.077 2.445.077 2.66 0 .221-.079.414-.241.539-.454.095-.161.111-.233.111-.489 0-.254-.017-.328-.108-.484a1.02 1.02 0 0 0-.582-.461c-.251-.076-2.353-.074-2.595.002m-9.2 2.8a1.04 1.04 0 0 0-.567.459c-.092.156-.108.229-.107.484 0 .212.022.341.074.44.101.192 3.401 3.499 3.625 3.633.152.091.226.107.48.107.257 0 .327-.016.492-.113.476-.28.646-.899.374-1.359-.055-.092-.871-.936-1.813-1.874-1.637-1.63-1.723-1.709-1.93-1.77-.257-.076-.404-.077-.628-.007m-6.161 1.207c.364.124.666.549.666.937 0 .33-.216.695-.516.871-.156.091-.23.108-.484.108s-.328-.017-.484-.108c-.579-.341-.683-1.098-.215-1.566a.96.96 0 0 1 1.033-.242"/></svg>