<svg xmlns="http://www.w3.org/2000/svg" width="24" height="24" fill="none" stroke="currentColor" stroke-linecap="round" stroke-linejoin="round" stroke-width="2"><path fill="#000" fill-rule="evenodd" stroke="none" d="M3.499 2.043C2.383 2.23 1.461 3.048 1.114 4.16l-.094.3v11.08l.094.3c.304.976 1.035 1.714 2.026 2.046l.28.094 3.79.011 3.79.012V20H9.446c-1.688 0-1.788.011-2.064.221-.08.061-.195.194-.254.295-.091.156-.108.23-.108.484 0 .256.016.328.111.489.125.213.318.375.539.454s8.438.079 8.66 0 .414-.241.539-.454c.095-.161.111-.233.111-.489 0-.254-.017-.328-.108-.484a1.2 1.2 0 0 0-.254-.295c-.276-.21-.376-.221-2.064-.221H13v-1.997l3.79-.012 3.79-.011.28-.094c.991-.332 1.722-1.07 2.026-2.046.093-.297.094-.319.094-2.22V11.7l-.109-.186a1.01 1.01 0 0 0-1.742 0l-.109.186-.021 1.78c-.014 1.288-.034 1.811-.07 1.893a1.14 1.14 0 0 1-.445.499l-.184.108H3.7l-.184-.108a1.2 1.2 0 0 1-.291-.249C2.988 15.312 3 15.608 3 10.022c0-5.782-.02-5.395.303-5.719.322-.322-.005-.303 5.234-.305 3.774-.001 4.671-.012 4.793-.055.221-.079.414-.241.539-.454.095-.161.111-.233.111-.489 0-.254-.017-.328-.108-.484a1.2 1.2 0 0 0-.254-.295c-.301-.23-.106-.221-5.214-.216-2.587.002-4.795.02-4.905.038m13.196.014a1.04 1.04 0 0 0-.567.459c-.091.156-.108.23-.108.484 0 .256.016.328.111.489.061.103.173.236.25.294.269.206.335.213 1.818.215l1.38.002-1.705 1.71c-.938.941-1.736 1.771-1.773 1.845-.229.455-.045 1.046.407 1.312.165.097.234.113.492.112.212 0 .341-.022.44-.074.077-.04.909-.84 1.848-1.777l1.708-1.703.012 1.441.012 1.44.121.197a.998.998 0 0 0 1.718 0l.121-.197.011-2.743c.011-2.474.005-2.76-.055-2.917a1 1 0 0 0-.516-.552l-.2-.093-2.68.002c-2.074.002-2.717.014-2.845.054"/></svg>