<svg xmlns="http://www.w3.org/2000/svg" width="24" height="24" fill="none" stroke="currentColor" stroke-linecap="round" stroke-linejoin="round" stroke-width="2"><path fill="#000" fill-rule="evenodd" stroke="none" d="M3.499 2.043c-1.109.188-2.02.99-2.383 2.097-.087.266-.092.352-.107 1.668-.017 1.512-.003 1.654.193 2.069.146.309.569.746.868.898.402.204.573.225 1.797.225h1.131l.011 5.29.011 5.29.094.28c.332.991 1.07 1.722 2.046 2.026l.3.094h13.08l.3-.094a3.1 3.1 0 0 0 2.042-2.026c.079-.246.092-.387.108-1.16.024-1.22-.059-1.546-.525-2.047-.467-.502-.875-.647-1.834-.651L20.002 16l-.011-5.79-.011-5.79-.094-.28c-.33-.982-1.065-1.715-2.025-2.019l-.321-.101-6.92-.006c-3.806-.003-7.011.01-7.121.029m.811 2.018a.9.9 0 0 1 .387.242c.281.281.303.4.303 1.644V7H3V5.947c0-1.245.022-1.362.304-1.644q.417-.418 1.006-.242m13 0c.279.083.546.35.629.629.053.179.061.903.061 5.757V16l-3.63.002c-4.047.003-3.915-.006-4.387.279-.28.168-.629.535-.764.802-.179.351-.219.599-.219 1.339 0 .755-.037.954-.221 1.196-.061.08-.194.195-.295.254-.156.091-.23.108-.484.108s-.328-.017-.484-.108a1.15 1.15 0 0 1-.446-.499c-.039-.089-.054-1.715-.07-7.533-.019-6.915-.025-7.434-.09-7.62l-.07-.21c0-.005 2.31-.01 5.133-.01 4.478 0 5.159.008 5.337.061M9.695 7.057a1.04 1.04 0 0 0-.567.459c-.091.156-.108.23-.108.484 0 .256.016.328.111.489.125.213.318.375.539.454.22.078 5.44.078 5.66 0 .221-.079.414-.241.539-.454.095-.161.111-.233.111-.489 0-.254-.017-.328-.108-.484a1.02 1.02 0 0 0-.582-.461c-.259-.078-5.346-.076-5.595.002m0 4a1.04 1.04 0 0 0-.567.459c-.091.156-.108.23-.108.484 0 .256.016.328.111.489.125.213.318.375.539.454.22.078 5.44.078 5.66 0 .221-.079.414-.241.539-.454.095-.161.111-.233.111-.489 0-.254-.017-.328-.108-.484a1.02 1.02 0 0 0-.582-.461c-.259-.078-5.346-.076-5.595.002M21 18.554c0 .798-.11 1.079-.516 1.318l-.184.108-4.73.011c-2.602.005-4.73.005-4.73 0 .001-.006.03-.101.066-.211.047-.146.07-.415.084-.99l.019-.79H21z"/></svg>