<svg xmlns="http://www.w3.org/2000/svg" width="24" height="24" fill="none" stroke="currentColor" stroke-linecap="round" stroke-linejoin="round" stroke-width="2"><path fill="#000" fill-rule="evenodd" stroke="none" d="M11.42 1.025C8.85 1.3 7 2.98 7 5.037c0 1.333.76 2.495 2.168 3.313l.313.181-.347.195C7.779 9.485 7 10.696 7 12.044c0 1.474.897 2.682 2.642 3.557.43.216.817.374 2.678 1.098 1.555.605 2.265 1.076 2.552 1.691.091.195.107.284.107.59.001.317-.013.388-.116.6-.149.305-.554.713-.923.931a4 4 0 0 1-1.313.446c-1.229.168-2.396-.16-3.11-.874-.338-.338-.463-.595-.515-1.057-.046-.417-.154-.635-.407-.821a.996.996 0 0 0-1.584.715c-.04.433.113 1.094.369 1.6.487.963 1.442 1.742 2.64 2.152.703.24 1.114.304 1.98.304.873 0 1.253-.06 1.988-.31 2.046-.698 3.262-2.428 2.969-4.223-.185-1.133-.86-2.03-2.069-2.753l-.371-.222.291-.158c2.03-1.1 2.765-3.263 1.721-5.063-.505-.869-1.39-1.539-2.849-2.158a59 59 0 0 0-1.4-.55C10.207 6.75 9.441 6.282 9.128 5.61c-.091-.195-.107-.284-.107-.59-.001-.317.013-.388.116-.6.292-.598 1.078-1.132 1.958-1.331.391-.088 1.419-.088 1.81 0 .632.143 1.18.43 1.578.828.339.339.463.594.515 1.061.048.432.169.658.454.85.625.419 1.469.011 1.537-.744.04-.437-.112-1.096-.369-1.604-.403-.797-1.106-1.453-2.037-1.899-.761-.365-1.511-.538-2.423-.56a10 10 0 0 0-.74.004m1.506 9.071c.851.186 1.648.731 1.937 1.324.101.208.117.285.117.58s-.016.372-.117.58c-.149.305-.554.713-.923.931-1.1.648-2.78.648-3.88 0-.369-.218-.774-.626-.923-.931-.101-.208-.117-.285-.117-.58 0-.291.016-.373.112-.568.334-.68 1.174-1.214 2.167-1.377.39-.064 1.247-.043 1.627.041"/></svg>