<svg xmlns="http://www.w3.org/2000/svg" width="24" height="24" fill="none" stroke="currentColor" stroke-linecap="round" stroke-linejoin="round" stroke-width="2"><path fill="#000" fill-rule="evenodd" stroke="none" d="M21.209 1.026c-.197.043-19.267 6.582-19.412 6.656-.339.172-.604.502-.738.914-.195.604.123 1.387.687 1.691.107.058 1.976.82 4.154 1.693s4.037 1.632 4.131 1.686a.9.9 0 0 1 .269.247c.054.081.827 1.963 1.718 4.182s1.665 4.112 1.721 4.206c.311.531 1.039.815 1.643.641.419-.12.758-.389.938-.742.045-.087 1.558-4.474 3.364-9.749 2.633-7.691 3.288-9.643 3.305-9.854A1.46 1.46 0 0 0 21.59 1.02a2 2 0 0 0-.381.006m-6.544 6.889-3.874 3.874-3.395-1.364C5.528 9.675 4 9.051 4 9.039c0-.017 14.422-4.979 14.52-4.996.011-.001-1.724 1.741-3.855 3.872m5.079-1.825c-.117.335-1.235 3.603-2.486 7.26C16.007 17.008 14.973 20 14.96 20s-.636-1.529-1.384-3.398l-1.359-3.399 3.861-3.861c2.124-2.124 3.866-3.862 3.87-3.862s-.087.275-.204.61"/></svg>