<svg xmlns="http://www.w3.org/2000/svg" width="24" height="24" fill="none" stroke="currentColor" stroke-linecap="round" stroke-linejoin="round" stroke-width="2"><path fill="#000" fill-rule="evenodd" stroke="none" d="M3.499 1.042A3.05 3.05 0 0 0 1.114 3.16l-.094.3v5.08l.094.3a3.09 3.09 0 0 0 2.046 2.046l.3.094h5.08l.3-.094a3.09 3.09 0 0 0 2.046-2.046l.094-.3V3.46l-.094-.3a3.08 3.08 0 0 0-2.025-2.038l-.321-.1-2.42-.007c-1.331-.004-2.511.008-2.621.027M8.31 3.061c.279.083.546.35.629.629.086.288.091 4.317.006 4.6a1.02 1.02 0 0 1-.461.582L8.3 8.98H3.7l-.184-.108a1.05 1.05 0 0 1-.458-.556c-.088-.251-.086-4.328.003-4.626.079-.269.351-.547.612-.627.285-.088 4.342-.09 4.637-.002m5.385 2.994a1.05 1.05 0 0 0-.567.461c-.091.156-.108.23-.108.484 0 .256.016.328.111.489.061.103.173.236.25.294.241.184.389.213 1.082.215.775.002.972.049 1.216.285.271.264.294.353.319 1.24l.022.783.121.197a.998.998 0 0 0 1.718 0l.121-.197v-.923c0-.856-.007-.945-.094-1.223a3.07 3.07 0 0 0-2.025-2.035c-.287-.086-.41-.098-1.161-.11-.628-.011-.882 0-1.005.04m-7 7.002a1.04 1.04 0 0 0-.567.459l-.108.184v.92c0 .853.007.942.094 1.22a3.1 3.1 0 0 0 2.026 2.042c.243.078.391.092 1.12.108.545.012.898.003 1.004-.026.233-.063.473-.25.603-.472.097-.165.113-.235.113-.492 0-.254-.017-.328-.108-.484a1.1 1.1 0 0 0-.499-.443c-.066-.028-.439-.057-.893-.07-.756-.022-.786-.026-.964-.131a1.13 1.13 0 0 1-.444-.499c-.029-.068-.057-.426-.07-.893-.021-.756-.025-.786-.13-.964a1.005 1.005 0 0 0-1.177-.459m8.804-.015a3.05 3.05 0 0 0-2.385 2.118l-.094.3v5.08l.094.3a3.09 3.09 0 0 0 2.046 2.046l.3.094h5.08l.3-.094a3.09 3.09 0 0 0 2.046-2.046l.094-.3v-5.08l-.094-.3a3.08 3.08 0 0 0-2.025-2.038l-.321-.1-2.42-.007c-1.331-.004-2.511.008-2.621.027m4.811 2.019c.279.083.546.35.629.629.086.288.091 4.317.006 4.6a1.02 1.02 0 0 1-.461.582l-.184.108h-4.6l-.184-.108a1.05 1.05 0 0 1-.458-.556c-.088-.251-.086-4.328.003-4.626.075-.252.343-.537.589-.623.256-.091 4.358-.096 4.66-.006"/></svg>