<svg xmlns="http://www.w3.org/2000/svg" width="24" height="24" fill="none" stroke="currentColor" stroke-linecap="round" stroke-linejoin="round" stroke-width="2"><path fill="#000" fill-rule="evenodd" stroke="none" d="M3.061 2.067c-.654.2-1.093.834-1.05 1.513.016.249.184.723 1.493 4.22 1.383 3.697 1.474 3.956 1.474 4.2s-.09.501-1.474 4.2c-1.649 4.406-1.6 4.242-1.425 4.76.254.75 1.049 1.195 1.781.996.152-.041 17.493-8.208 18.23-8.585.398-.204.622-.424.783-.771.088-.187.103-.276.103-.6 0-.326-.015-.413-.106-.611a1.8 1.8 0 0 0-.318-.441c-.205-.203-.52-.356-9.352-4.527-5.027-2.374-9.229-4.34-9.339-4.368a1.5 1.5 0 0 0-.8.014M11.6 7.879c3.597 1.698 6.548 3.096 6.557 3.105s-2.543.016-5.67.016C8.87 11 6.8 10.986 6.8 10.961c0-.021-.479-1.321-1.063-2.89-.585-1.568-1.124-3.016-1.198-3.218l-.133-.367.327.152c.18.083 3.27 1.542 6.867 3.241m6.48 5.179a5341 5341 0 0 1-13.468 6.365l-.207.094.053-.149c.029-.081.568-1.53 1.197-3.22S6.8 13.059 6.8 13.038c0-.024 2.131-.037 5.69-.036 4.82.001 5.675.01 5.59.056"/></svg>