<svg xmlns="http://www.w3.org/2000/svg" width="24" height="24" fill="none" stroke="currentColor" stroke-linecap="round" stroke-linejoin="round" stroke-width="2"><path fill="#000" fill-rule="evenodd" stroke="none" d="M11.64 3.068c-.154.053-.489.37-2.293 2.167-1.162 1.158-2.158 2.181-2.213 2.273-.272.46-.102 1.079.374 1.359.165.097.234.113.492.112.212 0 .341-.022.44-.074.077-.04.91-.841 1.85-1.779L12 5.421l1.71 1.705c.94.938 1.773 1.739 1.85 1.779.099.052.228.074.44.074.258.001.327-.015.492-.112.476-.28.646-.899.374-1.359-.055-.092-1.051-1.115-2.213-2.273-1.905-1.897-2.132-2.111-2.31-2.17a1.05 1.05 0 0 0-.703.003m-8.945 7.989a1.04 1.04 0 0 0-.567.459c-.091.156-.108.23-.108.484 0 .256.016.328.111.489.125.213.318.375.539.454.223.08 18.437.08 18.66 0 .221-.079.414-.241.539-.454.095-.161.111-.233.111-.489 0-.254-.017-.328-.108-.484a1.02 1.02 0 0 0-.582-.461c-.263-.079-18.343-.077-18.595.002m4.975 4.004c-.222.081-.42.248-.542.455-.091.156-.108.23-.108.484s.016.328.107.48c.134.225 4.241 4.325 4.433 4.425.1.052.227.073.44.073s.34-.021.44-.073c.192-.1 4.299-4.2 4.433-4.425.091-.152.107-.226.107-.48s-.017-.328-.108-.484a1 1 0 0 0-1.215-.45c-.176.058-.378.246-1.927 1.788L12 18.577l-1.73-1.723c-1.549-1.542-1.751-1.73-1.927-1.788a1 1 0 0 0-.673-.005"/></svg>