<svg xmlns="http://www.w3.org/2000/svg" width="24" height="24" fill="none" stroke="currentColor" stroke-linecap="round" stroke-linejoin="round" stroke-width="2"><path fill="#000" fill-rule="evenodd" stroke="none" d="M1.67 1.061c-.221.081-.42.248-.541.454-.089.152-.106.226-.101.444.004.143.003.468-.001.721a452 452 0 0 0-.007 3.16v2.7l.094.3c.304.976 1.037 1.715 2.026 2.046l.28.093 3.08.012 3.08.011.99.989.991.989L7.51 13l-4.05.021-.321.101a3.09 3.09 0 0 0-2.025 2.038l-.094.3v5.08l.094.3c.304.976 1.035 1.714 2.026 2.046l.28.094 8.635.011 8.635.01.315-.136c.19-.082.325-.121.34-.097.06.097.441.231.655.231a.996.996 0 0 0 .904-1.419c-.078-.163-1.958-2.06-10.23-10.325C3.302 1.891 2.525 1.125 2.343 1.065a1 1 0 0 0-.673-.004m5.025-.004c-.23.072-.439.242-.567.459-.091.156-.108.23-.108.484 0 .256.016.328.111.489.125.213.318.375.539.454.123.044 1.348.054 6.793.055 7.473.002 6.907-.022 7.234.305.305.306.303.286.303 2.698 0 2.286-.004 2.332-.221 2.617-.061.08-.194.195-.295.254l-.184.108-2.78.02c-2.102.015-2.807.032-2.893.07a1.15 1.15 0 0 0-.499.446c-.091.156-.108.23-.108.484 0 .257.016.327.113.492.129.219.369.409.594.47.102.027 1.117.037 3.004.029l2.849-.012.28-.094c.989-.329 1.722-1.069 2.026-2.045l.094-.3V3.46l-.094-.3a3.09 3.09 0 0 0-2.025-2.039l-.321-.101-6.84-.008c-5.526-.006-6.872.003-7.005.045m.435 7.935c-.236.006-1.105.006-1.93 0L3.7 8.98l-.184-.108a1.2 1.2 0 0 1-.291-.249C3.002 8.331 3 8.309 3 6.285V4.42L5.28 6.7l2.281 2.28zm11.565 4.063a1.05 1.05 0 0 0-.567.461c-.091.156-.108.23-.108.484 0 .256.016.328.111.489.061.103.173.236.25.294.242.185.387.213 1.102.215.773.002.947.044 1.199.289.268.26.291.351.316 1.236l.022.783.121.197a.998.998 0 0 0 1.718 0l.121-.197v-.923c0-.856-.007-.945-.094-1.223a3.07 3.07 0 0 0-2.025-2.035c-.287-.086-.41-.098-1.161-.11-.628-.011-.882 0-1.005.04M16.58 18l3 3.001-7.94-.011-7.94-.01-.184-.108a1.2 1.2 0 0 1-.291-.249C3 20.327 3 20.332 3 18.022c0-2.436-.003-2.413.304-2.719.316-.317-.041-.297 5.416-.3L13.58 15zm-10.885-.945a1.05 1.05 0 0 0-.567.461c-.091.156-.108.23-.108.484 0 .257.016.327.113.492.518.882 1.865.526 1.865-.492a.99.99 0 0 0-.535-.888 1.17 1.17 0 0 0-.768-.057"/></svg>