<svg xmlns="http://www.w3.org/2000/svg" width="24" height="24" fill="none" stroke="currentColor" stroke-linecap="round" stroke-linejoin="round" stroke-width="2"><path fill="#000" fill-rule="evenodd" stroke="none" d="M3.499 1.043C2.38 1.232 1.461 2.048 1.114 3.16l-.094.3v5.08l.094.3a3.09 3.09 0 0 0 2.026 2.04c.218.069.415.093.89.11.7.024.863-.014 1.143-.266a.99.99 0 0 0 .055-1.398c-.238-.248-.389-.298-.991-.325-.49-.023-.56-.035-.724-.131a1.2 1.2 0 0 1-.288-.247C3 8.327 3 8.332 3 6.022c0-2.436-.003-2.413.303-2.719C3.632 2.974 2.892 3 12 3s8.368-.026 8.697.303c.305.306.303.286.303 2.698 0 2.286-.004 2.332-.221 2.617-.061.08-.193.194-.292.252-.164.096-.234.108-.724.131-.44.02-.573.041-.703.108a.98.98 0 0 0-.548.894c0 .419.256.782.662.937.271.103 1.283.068 1.686-.06a3.09 3.09 0 0 0 2.026-2.04l.094-.3V3.46l-.094-.3a3.09 3.09 0 0 0-2.025-2.039l-.321-.101-8.42-.006c-4.631-.003-8.511.01-8.621.029m2.196 4.012a1.05 1.05 0 0 0-.567.461c-.091.156-.108.23-.108.484 0 .257.016.327.113.492.518.882 1.865.526 1.865-.492a.99.99 0 0 0-.535-.888 1.17 1.17 0 0 0-.768-.057M10 7.384c-.325.14-.599.551-.6.899 0 .1.029.267.064.371l.064.188-.278.269a6 6 0 0 0-.398.421l-.12.152-.188-.047a1.02 1.02 0 0 0-1.168.583c-.084.199-.087.554-.007.743.084.198.294.427.477.52l.154.079v.389c.001.214.011.453.024.531.023.136.016.146-.141.217a.99.99 0 0 0-.328 1.553 1.01 1.01 0 0 0 1.099.284l.188-.064.269.278c.148.153.338.332.422.399.15.119.152.125.11.276a1.02 1.02 0 0 0 .577 1.199c.198.083.551.083.749-.001.202-.086.42-.284.514-.469l.079-.154h.389a5 5 0 0 0 .531-.024c.136-.023.146-.016.217.141.04.091.149.234.241.319.497.458 1.273.292 1.566-.336.109-.234.118-.444.032-.735l-.063-.21.276-.267c.152-.148.331-.337.398-.421.119-.15.125-.152.276-.11a1.02 1.02 0 0 0 1.199-.577c.084-.199.087-.554.007-.743a1.2 1.2 0 0 0-.477-.52L16 12.438v-.389a5 5 0 0 0-.024-.531c-.023-.135-.016-.146.136-.214a.99.99 0 0 0 .578-.905c-.004-.683-.634-1.137-1.306-.942l-.23.067-.267-.275a5 5 0 0 0-.421-.394c-.152-.117-.154-.121-.11-.277a.99.99 0 0 0-.291-1.008.92.92 0 0 0-.67-.25c-.382 0-.683.183-.892.541l-.083.144-.526.013-.526.013-.071-.157a1.2 1.2 0 0 0-.52-.498c-.176-.073-.6-.069-.777.008m2.408 2.66c.326.068.688.258.944.495.233.216.26.257.483.745.306.665.155 1.497-.374 2.068a1.6 1.6 0 0 1-.348.296c-.741.358-.653.332-1.131.331-.409-.001-.465-.011-.749-.133a1.9 1.9 0 0 1-.561-.364c-.256-.234-.281-.272-.512-.775-.222-.482-.205-1.048.045-1.577.135-.284.484-.682.682-.779.361-.176.619-.287.73-.313.19-.046.557-.043.791.006m-8.909 2.997a3.05 3.05 0 0 0-2.385 2.119l-.094.3v5.08l.094.3a3.09 3.09 0 0 0 2.046 2.046l.3.094h17.08l.3-.094a3.09 3.09 0 0 0 2.046-2.046l.094-.3v-5.08l-.094-.3c-.309-.992-1.098-1.774-2.064-2.046-.272-.077-.421-.091-.962-.093-.582-.001-.655.007-.8.085-.353.191-.548.509-.548.894 0 .405.207.724.588.905.171.08.262.094.623.095.529 0 .736.065.977.306.302.302.3.286.3 2.695 0 2.286-.004 2.332-.221 2.617-.061.08-.194.195-.295.254l-.184.108H3.7l-.184-.108a1.2 1.2 0 0 1-.291-.249C3 20.327 3 20.332 3 18.022c0-2.436-.003-2.413.303-2.719.234-.234.46-.303.994-.303.34-.001.434-.016.603-.095.381-.181.588-.5.588-.905a.98.98 0 0 0-.548-.892c-.138-.074-.235-.087-.7-.094a6 6 0 0 0-.741.027m2.196 4.014a1.05 1.05 0 0 0-.567.461c-.091.156-.108.23-.108.484 0 .257.016.327.113.492.518.882 1.865.526 1.865-.492a.99.99 0 0 0-.535-.888 1.17 1.17 0 0 0-.768-.057"/></svg>