<svg xmlns="http://www.w3.org/2000/svg" width="24" height="24" fill="none" stroke="currentColor" stroke-linecap="round" stroke-linejoin="round" stroke-width="2"><path fill="#000" fill-rule="evenodd" stroke="none" d="M3.499 1.043C2.38 1.232 1.461 2.048 1.114 3.16l-.094.3v5.08l.094.3a3.1 3.1 0 0 0 2.026 2.044c.264.086.355.092 1.624.107.883.01 1.399.001 1.504-.028.23-.062.469-.25.599-.471.097-.165.113-.235.113-.492 0-.254-.017-.328-.108-.484a1.14 1.14 0 0 0-.499-.445c-.077-.033-.519-.055-1.393-.07L3.7 8.98l-.184-.108a1.2 1.2 0 0 1-.291-.249C3 8.327 3 8.332 3 6.022c0-2.436-.003-2.413.303-2.719C3.632 2.974 2.892 3 12 3s8.368-.026 8.697.303c.305.306.303.286.303 2.698 0 2.286-.004 2.332-.221 2.617-.061.08-.194.195-.295.254l-.184.108-1.28.021c-.874.015-1.316.037-1.393.07a1.14 1.14 0 0 0-.499.445c-.091.156-.108.23-.108.484 0 .257.016.327.113.492.13.221.369.409.599.471.105.029.621.038 1.504.028 1.269-.015 1.36-.021 1.624-.107a3.1 3.1 0 0 0 2.026-2.044l.094-.3V3.46l-.094-.3a3.09 3.09 0 0 0-2.025-2.039l-.321-.101-8.42-.006c-4.631-.003-8.511.01-8.621.029m2.196 4.012a1.05 1.05 0 0 0-.567.461c-.091.156-.108.23-.108.484 0 .257.016.327.113.492.518.882 1.865.526 1.865-.492a.99.99 0 0 0-.535-.888 1.17 1.17 0 0 0-.768-.057m6.973.006a1.4 1.4 0 0 0-.273.143c-.136.096-4.257 6.246-4.341 6.476-.161.446.063.993.496 1.206l.19.094 2.19.02 2.19.02-1.521 2.28c-.836 1.254-1.538 2.343-1.559 2.42-.123.438.068.912.459 1.142.214.125.546.168.765.099.379-.12.346-.077 2.541-3.369 1.147-1.719 2.112-3.206 2.145-3.303.159-.466-.097-1.006-.577-1.219-.084-.037-.674-.055-2.303-.07l-2.19-.02 1.504-2.255c.827-1.241 1.529-2.327 1.56-2.415.268-.76-.516-1.527-1.276-1.249m-9.169 7.982c-1.116.187-2.038 1.005-2.385 2.117l-.094.3v5.08l.094.3a3.09 3.09 0 0 0 2.046 2.046l.3.094h17.08l.3-.094a3.09 3.09 0 0 0 2.046-2.046l.094-.3v-5.08l-.094-.3a3.08 3.08 0 0 0-2.025-2.036c-.307-.094-.379-.099-1.601-.115-.866-.011-1.346-.002-1.484.029a1.04 1.04 0 0 0-.647.476c-.093.158-.109.231-.109.486 0 .256.016.328.111.489.061.103.173.236.25.294.264.202.352.213 1.602.215 1.341.002 1.426.017 1.717.308.302.302.3.286.3 2.695 0 2.286-.004 2.332-.221 2.617-.061.08-.194.195-.295.254l-.184.108H3.7l-.184-.108a1.2 1.2 0 0 1-.291-.249C3 20.327 3 20.332 3 18.022c0-2.436-.003-2.413.303-2.719.284-.284.391-.303 1.734-.305 1.229-.002 1.319-.014 1.582-.215.077-.058.189-.191.25-.294.095-.161.111-.233.111-.489 0-.254-.017-.328-.108-.484a1.2 1.2 0 0 0-.254-.295c-.268-.205-.402-.221-1.714-.216-.662.002-1.295.02-1.405.038m2.196 4.012a1.05 1.05 0 0 0-.567.461c-.091.156-.108.23-.108.484 0 .257.016.327.113.492.518.882 1.865.526 1.865-.492a.99.99 0 0 0-.535-.888 1.17 1.17 0 0 0-.768-.057"/></svg>