<svg xmlns="http://www.w3.org/2000/svg" width="24" height="24" fill="none" stroke="currentColor" stroke-linecap="round" stroke-linejoin="round" stroke-width="2"><path fill="#000" fill-rule="evenodd" stroke="none" d="M5.401 1.982c-.49.107-1.144.478-1.485.844-.225.24-.621.783-.921 1.259-1.887 3-2.485 6.754-1.578 9.905.543 1.886 1.422 3.374 2.821 4.772.961.962 1.844 1.595 2.982 2.141 3.747 1.796 8.068 1.367 11.417-1.133.609-.454 1.679-1.524 2.133-2.133a11.06 11.06 0 0 0 2.05-4.675c.387-2.15.142-4.108-.736-5.902-1.319-2.692-3.806-4.507-6.804-4.966-.634-.097-1.926-.097-2.56 0a10 10 0 0 0-1.7.414c-.502.175-1.426.622-1.82.88l-.346.224c-.028.017-.108-.078-.21-.25a3.02 3.02 0 0 0-1.842-1.357c-.397-.1-.998-.11-1.401-.023m1.116 2.037c.373.188.603.618.543 1.014-.034.23-.091.342-.358.703-1.646 2.235-2.151 5.363-1.246 7.734.908 2.378 2.972 4.044 5.524 4.456.412.066 1.627.066 2.04 0 3.089-.498 5.415-2.825 5.905-5.906.079-.5.07-1.571-.018-1.98-.368-1.72-1.537-3.099-3.154-3.72-1.054-.405-2.451-.405-3.505 0a5.1 5.1 0 0 0-2.722 2.465 4.54 4.54 0 0 0-.506 2.175c.001.495.014.624.094.88a3.09 3.09 0 0 0 2.046 2.046c.434.135 1.246.135 1.68 0a3.08 3.08 0 0 0 2.045-2.046c.07-.229.092-.4.093-.72.002-.387-.007-.434-.107-.606a1.01 1.01 0 0 0-1.466-.309c-.236.174-.358.404-.403.761a2.6 2.6 0 0 1-.08.409 1.1 1.1 0 0 1-.438.497c-.156.091-.23.108-.484.108s-.328-.017-.484-.108c-.381-.224-.535-.554-.501-1.074a3 3 0 0 1 2.124-2.673c.273-.083.403-.098.861-.098s.588.015.861.098a3.01 3.01 0 0 1 2.123 2.627c.03.366-.038 1.069-.145 1.488a5.06 5.06 0 0 1-2.627 3.236c-.745.366-1.35.504-2.212.504-.67 0-1.044-.058-1.6-.248a5.08 5.08 0 0 1-3.08-2.98c-.444-1.156-.404-2.713.107-4.132a7 7 0 0 1 5.593-4.544c.763-.109 1.887-.054 2.64.129 2.762.671 4.856 2.984 5.265 5.815.076.526.066 1.701-.019 2.26-.302 1.986-1.185 3.73-2.59 5.12a8.5 8.5 0 0 1-2.336 1.661 8.93 8.93 0 0 1-8-.019c-.936-.473-1.6-.949-2.315-1.66A8.8 8.8 0 0 1 3.92 14.94a8.8 8.8 0 0 1-.825-2.64c-.091-.575-.092-1.991-.001-2.68q.336-2.563 1.717-4.647c.59-.892.781-1.05 1.26-1.052.189-.001.3.023.446.098"/></svg>