<svg xmlns="http://www.w3.org/2000/svg" width="24" height="24" fill="none" stroke="currentColor" stroke-linecap="round" stroke-linejoin="round" stroke-width="2"><path fill="#000" fill-rule="evenodd" stroke="none" d="M11.604 1.045c-.413.069-.788.28-1.384.778-1.071.896-2.88 1.792-4.154 2.058a8 8 0 0 1-.939.117c-.515.034-.651.062-1.082.221-.266.098-.373.162-.513.308-.145.151-.429.76-.493 1.059-.029.137-.038 1.495-.028 4.337.015 4.449.009 4.314.23 5.334.634 2.921 2.732 5.264 6.112 6.822.69.318 1.382.596 1.967.789.378.125.454.137.76.122a2.4 2.4 0 0 0 .66-.127c1.494-.51 3.16-1.343 4.24-2.118 1.115-.8 2.054-1.779 2.687-2.799a9.2 9.2 0 0 0 1.092-2.689c.221-1.02.215-.886.23-5.323.016-4.486.019-4.404-.205-4.846-.212-.418-.728-.858-1.161-.991-.112-.034-.449-.079-.75-.098-.962-.064-1.812-.298-2.839-.782a11 11 0 0 1-2.354-1.474c-.46-.376-.566-.448-.827-.558a2.2 2.2 0 0 0-1.249-.14m.678 2.141c1.824 1.557 4.336 2.672 6.306 2.799l.417.027-.016 3.924c-.017 4.267-.012 4.171-.252 5.123-.111.441-.339 1.045-.389 1.034C18.277 16.077 6.524 5.86 6.551 5.838c.016-.012.191-.064.389-.114 1.531-.388 3.459-1.412 4.778-2.538.119-.102.246-.186.282-.186s.163.084.282.186m-.825 9.602c3.167 2.745 5.764 5.012 5.772 5.036.015.049-.615.678-.949.946-1.003.806-2.303 1.504-3.922 2.107l-.342.128-.478-.179c-1.871-.697-3.295-1.526-4.326-2.519-1.338-1.289-2.021-2.737-2.171-4.603C5.018 13.41 5 11.899 5 10.191V7.194l.35.301c.193.165 2.941 2.547 6.107 5.293"/></svg>