<svg xmlns="http://www.w3.org/2000/svg" width="24" height="24" fill="none" stroke="currentColor" stroke-linecap="round" stroke-linejoin="round" stroke-width="2"><path fill="#000" fill-rule="evenodd" stroke="none" d="M1.67 1.061c-.222.081-.42.248-.542.455-.091.156-.108.23-.108.484s.016.328.107.48c.059.099.593.664 1.186 1.255L3.391 4.81l-.094.138c-.051.076-.135.24-.185.365l-.092.227v4.18c0 3.251.012 4.269.053 4.58.506 3.802 2.892 6.478 7.347 8.24 1.513.598 1.668.6 3.1.033 1.221-.482 2.43-1.111 3.309-1.72.398-.276 1.17-.897 1.329-1.069l.098-.106 1.582 1.577c.87.867 1.645 1.61 1.722 1.65.099.052.228.074.44.074.258.001.327-.015.492-.112.476-.28.647-.9.373-1.359-.055-.092-4.65-4.715-10.212-10.273C3.3 1.889 2.525 1.125 2.343 1.065a1 1 0 0 0-.673-.004m9.936-.016c-.366.061-.705.242-1.24.663-.278.22-.668.506-.866.637l-.66.437c-.248.163-.319.236-.41.415a1.02 1.02 0 0 0-.063.771c.063.21.31.483.532.587.215.101.557.113.766.026.368-.154 1.419-.865 1.991-1.347C11.81 3.105 11.964 3 12 3s.163.084.282.186c1.823 1.556 4.336 2.672 6.303 2.799l.415.027v3.622c0 2.385-.016 3.809-.046 4.171-.059.699-.025.844.264 1.14.405.416.959.433 1.376.041.396-.373.403-.468.404-5.286.001-4.24.004-4.183-.214-4.613-.212-.417-.728-.858-1.161-.99-.112-.034-.449-.079-.75-.098-.962-.064-1.812-.298-2.839-.782a11 11 0 0 1-2.354-1.474c-.46-.376-.566-.448-.827-.558a2.2 2.2 0 0 0-1.247-.14m5.123 17.329c-.154.165-.774.655-1.133.896-.885.595-1.997 1.147-3.238 1.608l-.342.127-.478-.179c-1.871-.697-3.295-1.526-4.326-2.519-1.338-1.289-2.021-2.737-2.171-4.603-.024-.301-.041-1.925-.041-3.9V6.42l5.919 5.919 5.919 5.919z"/></svg>