<svg xmlns="http://www.w3.org/2000/svg" width="24" height="24" fill="none" stroke="currentColor" stroke-linecap="round" stroke-linejoin="round" stroke-width="2"><path fill="#000" fill-rule="evenodd" stroke="none" d="M11.604 1.045c-.413.069-.788.28-1.384.778-1.071.896-2.88 1.792-4.154 2.058a8 8 0 0 1-.939.118c-.634.041-.863.101-1.19.313-.451.292-.796.779-.897 1.27-.03.143-.039 1.493-.029 4.343.015 4.446.009 4.312.23 5.332.634 2.921 2.732 5.264 6.112 6.822.69.318 1.382.596 1.967.789.378.125.454.137.76.122a2.4 2.4 0 0 0 .66-.127c1.494-.51 3.16-1.343 4.24-2.118 1.115-.8 2.054-1.779 2.687-2.799a9.2 9.2 0 0 0 1.092-2.689c.221-1.02.215-.886.23-5.323.016-4.486.019-4.404-.205-4.846-.212-.418-.728-.858-1.161-.991-.112-.034-.449-.079-.75-.098-.962-.064-1.812-.298-2.839-.782a11 11 0 0 1-2.354-1.474c-.46-.376-.566-.448-.827-.558a2.2 2.2 0 0 0-1.249-.14m.678 2.141c1.824 1.557 4.336 2.672 6.306 2.799l.417.027-.016 3.924c-.017 4.262-.012 4.172-.25 5.115-.402 1.596-1.42 3.004-2.963 4.098-.878.624-2.067 1.225-3.418 1.728l-.342.128-.478-.179c-1.871-.697-3.295-1.526-4.326-2.519-1.338-1.289-2.021-2.737-2.171-4.603C5.017 13.4 5 11.716 5 9.6V6.012l.427-.028c1.946-.126 4.481-1.254 6.291-2.798.119-.102.246-.186.282-.186s.163.084.282.186m-.587 3.871a1.04 1.04 0 0 0-.567.459l-.108.184v4.606l.121.197c.068.11.205.253.311.325.471.316 1.102.171 1.407-.325l.121-.197V7.7l-.108-.184a1.005 1.005 0 0 0-1.177-.459m0 7.998a1.05 1.05 0 0 0-.567.461c-.091.156-.108.23-.108.484 0 .257.016.327.113.492.518.882 1.865.526 1.865-.492a.99.99 0 0 0-.535-.888 1.17 1.17 0 0 0-.768-.057"/></svg>