<svg xmlns="http://www.w3.org/2000/svg" width="24" height="24" fill="none" stroke="currentColor" stroke-linecap="round" stroke-linejoin="round" stroke-width="2"><path fill="#000" fill-rule="evenodd" stroke="none" d="M11.525 1.059c-.415.1-.736.288-1.305.764-1.071.896-2.88 1.792-4.154 2.058a8 8 0 0 1-.939.118c-.634.041-.863.101-1.19.313-.451.292-.796.779-.897 1.27-.03.143-.039 1.493-.029 4.343.015 4.446.009 4.312.23 5.332.634 2.921 2.732 5.264 6.112 6.822.69.318 1.382.596 1.967.789.378.125.454.137.76.122a2.4 2.4 0 0 0 .66-.127c1.494-.51 3.16-1.343 4.24-2.118 1.115-.8 2.054-1.779 2.687-2.799a9.2 9.2 0 0 0 1.092-2.689c.221-1.02.215-.886.23-5.323.016-4.486.019-4.404-.205-4.846-.212-.418-.728-.858-1.161-.991-.112-.034-.449-.079-.75-.098-.962-.064-1.812-.298-2.839-.782a11 11 0 0 1-2.354-1.474c-.438-.359-.558-.441-.78-.54a2.2 2.2 0 0 0-1.375-.144m-.542 19.531c-.029.029-.78-.304-1.333-.592-1.037-.54-1.772-1.05-2.438-1.691-1.338-1.289-2.021-2.737-2.171-4.603C5.017 13.4 5 11.716 5 9.6V6.012l.427-.028c1.516-.098 3.375-.787 5.027-1.864l.526-.343.01 8.398c.006 4.619.003 8.406-.007 8.415m3.36-15.987c1.433.803 2.958 1.299 4.245 1.382l.417.027-.016 3.924c-.017 4.262-.012 4.172-.25 5.115-.402 1.596-1.42 3.004-2.963 4.098-.621.441-1.674 1.019-2.465 1.352l-.311.132V3.758l.42.282c.23.155.646.408.923.563"/></svg>