<svg xmlns="http://www.w3.org/2000/svg" width="24" height="24" fill="none" stroke="currentColor" stroke-linecap="round" stroke-linejoin="round" stroke-width="2"><path fill="#000" fill-rule="evenodd" stroke="none" d="M11.695 1.057a1.04 1.04 0 0 0-.567.459l-.108.184-.012 1.148-.012 1.148-2.268.013-2.268.013-.321.1c-.957.299-1.697 1.037-2.025 2.018l-.093.28-.012 3.023-.012 3.023-.768.337c-1.193.523-1.256.617-1.217 1.795.047 1.419.284 2.62.793 4.015.184.503.694 1.574.967 2.027.099.165.174.306.168.313a1.5 1.5 0 0 1-.288-.084c-.272-.094-.522-.248-.984-.606-.338-.263-.594-.318-.963-.206-.729.219-.939 1.124-.386 1.661.246.24.88.689 1.181.838 1.35.668 3.188.568 4.385-.238.14-.095.502-.357.805-.584.853-.639 1.046-.713 1.85-.71.784.003.96.076 1.86.777.275.214.628.471.785.572 1.323.854 3.387.83 4.7-.055.14-.095.502-.357.805-.584.853-.639 1.046-.713 1.85-.71.743.002.961.085 1.69.641.445.339.716.407 1.092.274.631-.222.864-.931.496-1.505-.189-.295-1.246-1.004-1.765-1.184l-.127-.044.177-.45c.571-1.446.894-3.054.896-4.459.002-.866-.113-1.005-1.228-1.494l-.768-.337-.012-3.023-.012-3.023-.093-.28c-.328-.981-1.068-1.719-2.025-2.018l-.321-.1-2.268-.013-2.268-.013-.012-1.148L12.98 1.7l-.108-.184a1.005 1.005 0 0 0-1.177-.459m5.615 5.004a.9.9 0 0 1 .387.242c.308.308.303.26.303 2.924 0 1.283-.007 2.333-.015 2.333s-1.11-.486-2.447-1.081c-1.338-.595-2.56-1.121-2.715-1.17-.408-.128-1.238-.128-1.646 0-.155.049-1.377.575-2.715 1.17a275 275 0 0 1-2.447 1.081C6.007 11.56 6 10.51 6 9.227c0-2.664-.005-2.616.304-2.924.317-.318-.07-.297 5.679-.3 4.475-.003 5.148.005 5.327.058m-6.302 6.872.012 1.373.121.197c.068.11.205.253.311.325.471.316 1.102.171 1.407-.325l.121-.197.012-1.373c.007-.755.025-1.372.04-1.371s1.576.691 3.468 1.533l3.44 1.531.013.157c.047.562-.27 2.081-.634 3.037-.182.48-.508 1.169-.573 1.209a3 3 0 0 1-.386.115c-.675.171-1.042.369-1.934 1.041-.333.252-.714.511-.846.576-.615.305-1.535.315-2.147.023a3.4 3.4 0 0 1-.473-.304c-.914-.709-1.138-.864-1.5-1.041-.717-.35-1.536-.488-2.407-.405-.978.093-1.535.328-2.499 1.054-.261.196-.494.344-.519.329-.08-.05-.565-.829-.82-1.317-.704-1.352-1.033-2.53-1.193-4.265l-.017-.184 3.468-1.544c1.907-.848 3.48-1.544 3.495-1.545s.033.616.04 1.371"/></svg>