<svg xmlns="http://www.w3.org/2000/svg" width="24" height="24" fill="none" stroke="currentColor" stroke-linecap="round" stroke-linejoin="round" stroke-width="2"><path fill="#000" fill-rule="evenodd" stroke="none" d="M5.495 1.776c-1.499.499-2.445.836-2.66.947-.495.254-.989.76-1.246 1.277-.428.86-.431 1.137-.033 3.48.335 1.978.364 2.113.511 2.425.145.306.562.726.862.868.4.189.63.227 1.378.227h.691l.011 4.79.011 4.79.105.307c.171.5.371.817.771 1.217s.717.6 1.217.771l.307.105h9.12l.3-.094c.976-.304 1.714-1.035 2.046-2.026l.094-.28.011-4.786.011-4.787.789-.016c.747-.015.804-.021 1.069-.126.501-.196.93-.611 1.134-1.097.082-.193.6-3.062.73-4.044.082-.611-.01-1.115-.313-1.724-.156-.315-.25-.442-.55-.744-.3-.303-.423-.395-.725-.545C20.697 2.493 16.246 1 16.035 1c-.267 0-.552.115-.733.296-.207.207-.286.432-.318.909-.085 1.254-.922 2.301-2.144 2.681-.434.135-1.246.135-1.68 0a3 3 0 0 1-1.052-.565c-.698-.598-1.02-1.24-1.103-2.2-.03-.357-.057-.475-.139-.615A1.07 1.07 0 0 0 7.964 1c-.08 0-1.179.345-2.469.776m2.04 2.459c.674 1.361 1.961 2.342 3.505 2.672.246.053.512.073.96.073s.714-.02.96-.073a5.13 5.13 0 0 0 3.079-1.967c.237-.32.591-1.006.703-1.364l.077-.243 1.68.559c1.088.362 1.74.6 1.848.674.23.157.387.48.383.788-.002.124-.131.986-.287 1.914a201 201 0 0 0-.283 1.71c0 .012-.51.022-1.134.022-1.235 0-1.379.019-1.644.221-.08.061-.195.194-.254.295l-.108.184-.02 5.28c-.016 4.104-.031 5.305-.07 5.393a1.15 1.15 0 0 1-.446.499l-.184.108-4.218.011c-4.704.012-4.451.026-4.751-.265a1.4 1.4 0 0 1-.233-.308c-.076-.154-.079-.294-.098-5.438L6.98 9.7l-.108-.184a1.2 1.2 0 0 0-.254-.295C6.353 9.019 6.209 9 4.974 9 4.35 9 3.84 8.99 3.84 8.978s-.128-.781-.284-1.71-.284-1.798-.285-1.933c-.001-.309.151-.615.384-.771.089-.059.875-.345 1.838-.667l1.683-.562.106.302c.058.167.172.436.253.598"/></svg>