<svg xmlns="http://www.w3.org/2000/svg" width="24" height="24" fill="none" stroke="currentColor" stroke-linecap="round" stroke-linejoin="round" stroke-width="2"><path fill="#000" fill-rule="evenodd" stroke="none" d="M1.829 1.082a1 1 0 0 0-.734.697.7.7 0 0 0-.023.453c.06.283.22.512.47.668l.191.12.75.012.75.013.044.187c.024.104.593 2.753 1.264 5.888s1.256 5.809 1.3 5.942c.126.381.353.732.699 1.081a3 3 0 0 0 1.2.765l.32.112 5.36.012c3.785.008 5.436-.002 5.619-.033.587-.101 1.112-.385 1.585-.86.317-.318.522-.639.669-1.046.054-.15.48-1.991.947-4.091.702-3.159.846-3.858.832-4.047a.98.98 0 0 0-.764-.873c-.131-.029-2.777-.042-8.29-.042-4.454 0-8.098-.009-8.098-.02s-.207-.986-.46-2.167c-.49-2.285-.519-2.379-.788-2.578-.284-.21-.296-.212-1.532-.221-.638-.005-1.228.008-1.311.028M20.826 8.13l-.705 3.163c-.375 1.69-.717 3.142-.76 3.226-.1.195-.357.415-.555.475-.211.063-10.233.066-10.46.003-.169-.047-.48-.31-.568-.48-.03-.059-.354-1.5-.719-3.202a932 932 0 0 0-.685-3.185l-.023-.09h14.498zM7.477 19.073c-.671.176-1.239.75-1.417 1.435a2.07 2.07 0 0 0 .165 1.422c.136.269.576.709.845.845a2.05 2.05 0 0 0 1.86 0c.266-.135.708-.575.841-.838a2.05 2.05 0 0 0 .169-1.408 1.8 1.8 0 0 0-.475-.876A1.97 1.97 0 0 0 8 19.005c-.143 0-.378.031-.523.068m11 0c-.671.176-1.239.75-1.417 1.435a2.07 2.07 0 0 0 .165 1.422c.136.269.576.709.845.845a2.05 2.05 0 0 0 1.86 0c.266-.135.708-.575.841-.838a2.05 2.05 0 0 0 .169-1.408 1.8 1.8 0 0 0-.475-.876A1.97 1.97 0 0 0 19 19.005c-.143 0-.378.031-.523.068"/></svg>