<svg xmlns="http://www.w3.org/2000/svg" width="24" height="24" fill="none" stroke="currentColor" stroke-linecap="round" stroke-linejoin="round" stroke-width="2"><path fill="#000" fill-rule="evenodd" stroke="none" d="M8.659 3.064c-.348.123-.349.125-2.341 3.612L4.42 9.999H3.156c-1.375.001-1.505.017-1.774.222a1.03 1.03 0 0 0-.347 1.043c.064.234.251.473.473.603.175.103.236.114.689.133l.498.02.729 3.369c.401 1.853.767 3.483.813 3.622.131.395.355.741.704 1.089.336.336.614.523 1.02.687.54.218.362.212 6.031.212 5.601.001 5.537.003 6.025-.189.345-.137.733-.4 1.043-.711.346-.347.539-.638.681-1.029.049-.138.435-1.753.856-3.59.422-1.837.776-3.372.787-3.41.018-.06.075-.07.409-.072.576-.002.856-.135 1.076-.509.095-.161.111-.233.111-.489 0-.254-.017-.328-.108-.484a1.2 1.2 0 0 0-.254-.295c-.269-.205-.399-.221-1.774-.222H19.58l-1.898-3.323c-1.402-2.455-1.935-3.354-2.038-3.439A1.16 1.16 0 0 0 15.017 3c-.414 0-.829.294-.957.679-.151.455-.205.336 1.595 3.487L17.274 10H6.726l1.619-2.834C9.81 4.602 9.967 4.31 9.987 4.111a1.003 1.003 0 0 0-1.328-1.047M8.232 13.19c.071.655.129 1.222.129 1.26-.001.065-.101.07-1.541.07-.847 0-1.54-.007-1.54-.016s-.117-.553-.26-1.21a41 41 0 0 1-.26-1.244c0-.039.361-.05 1.671-.05h1.671zm5.629-1.02c-.022.158-.261 2.296-.261 2.333 0 .009-.72.017-1.6.017s-1.6-.008-1.6-.017c0-.037-.239-2.175-.261-2.333l-.024-.17h3.77zm5.459-.12c0 .049-.501 2.259-.544 2.4-.02.065-.13.07-1.579.07-1.456 0-1.557-.005-1.558-.07 0-.038.058-.605.129-1.26l.13-1.19h1.711c1.348 0 1.711.011 1.711.05M8.616 16.67c.013.083.068.573.124 1.09s.111 1.008.124 1.09l.023.15-1.013-.001c-.933-.001-1.028-.007-1.194-.082a1.1 1.1 0 0 1-.484-.423c-.055-.09-.473-1.813-.476-1.964 0-.006.646-.01 1.436-.01h1.437zm4.745-.1c0 .028-.058.585-.129 1.24l-.13 1.19h-2.204l-.13-1.19a77 77 0 0 1-.129-1.24c.001-.039.3-.05 1.361-.05s1.36.011 1.361.05m4.919.007c0 .121-.402 1.791-.456 1.894-.074.141-.287.34-.464.435-.124.066-.258.075-1.194.086l-1.054.013.023-.153c.013-.083.069-.575.125-1.092s.111-1.007.124-1.09l.023-.15h1.437c1.219 0 1.436.009 1.436.057"/></svg>