<svg xmlns="http://www.w3.org/2000/svg" width="24" height="24" fill="none" stroke="currentColor" stroke-linecap="round" stroke-linejoin="round" stroke-width="2"><path fill="#000" fill-rule="evenodd" stroke="none" d="M16.652 1.066c-.311.11-1.167.991-1.504 1.549-.772 1.274-.889 2.8-.318 4.145.079.187.188.41.241.496l.097.156-2.833 2.833-2.833 2.833-.981-.975c-.914-.907-.997-.979-1.199-1.039-.27-.08-.372-.08-.645-.001-.21.062-.3.146-2.882 2.73-2.425 2.426-2.671 2.685-2.73 2.864-.057.174-.065.508-.063 2.86.001 2.12.012 2.694.055 2.813.079.221.241.414.454.539l.189.111 2.716.011c2.435.01 2.738.004 2.92-.055.189-.061.401-.262 2.817-2.671 1.479-1.474 2.659-2.683 2.72-2.785.091-.153.107-.225.106-.48 0-.213-.022-.341-.074-.44-.041-.077-.504-.572-1.029-1.101l-.955-.96 2.834-2.834 2.833-2.833.156.097c.086.053.309.162.496.241 1.478.628 3.149.425 4.473-.542.329-.24 1.041-.943 1.16-1.146.09-.154.107-.229.107-.482 0-.254-.016-.328-.107-.48-.061-.102-1.241-1.31-2.72-2.785-2.37-2.363-2.631-2.611-2.81-2.67a1.03 1.03 0 0 0-.691.001m3.837 5.986c-.09.1-.659.367-.907.426-.255.061-.909.061-1.164 0a3.6 3.6 0 0 1-.536-.207 2.58 2.58 0 0 1-1.15-1.151 3 3 0 0 1-.209-.552 3.9 3.9 0 0 1 .001-1.136c.049-.238.264-.715.399-.887l.089-.113 1.773 1.773c1.699 1.699 1.769 1.775 1.704 1.847M8.8 15.22 10.58 17l-2 2-2 2H3v-3.58l1.99-1.99A144 144 0 0 1 7 13.44c.011 0 .821.801 1.8 1.78"/></svg>