<svg xmlns="http://www.w3.org/2000/svg" width="24" height="24" fill="none" stroke="currentColor" stroke-linecap="round" stroke-linejoin="round" stroke-width="2"><path fill="#000" fill-rule="evenodd" stroke="none" d="M3.67 3.061c-.222.081-.42.248-.542.455-.092.156-.108.229-.107.484 0 .213.022.341.074.44.041.077.524.593 1.075 1.146l1 1.006-.206.341c-1.004 1.663-1.152 3.661-.4 5.42.168.395.492.987.563 1.031.022.014-.184.253-.458.531s-.532.568-.573.645c-.053.1-.075.226-.075.44-.001.258.015.327.112.492.13.222.369.409.603.473.202.054.53.024.709-.066.185-.092 10.291-10.191 10.428-10.419.091-.153.107-.226.107-.48s-.017-.328-.108-.484a1 1 0 0 0-1.213-.449c-.156.053-.301.168-.717.573l-.522.507-.3-.187c-.916-.572-1.928-.851-3.08-.851-1.158 0-2.132.268-3.113.86l-.333.2-1.027-1.018c-.893-.886-1.053-1.027-1.224-1.085a1 1 0 0 0-.673-.005m6.811 3.061c.186.023.447.07.579.103.262.067.9.329.9.37 0 .033-5.332 5.365-5.365 5.365-.041 0-.302-.637-.37-.9-.536-2.08.655-4.212 2.683-4.801a3.7 3.7 0 0 1 1.573-.137m5.214 2.935a1.04 1.04 0 0 0-.567.459c-.092.156-.108.229-.107.484.001.332.08.533.285.728.479.453 1.274.318 1.587-.268.132-.249.122-.7-.021-.944a1.005 1.005 0 0 0-1.177-.459m4 1a1.04 1.04 0 0 0-.567.459c-.092.156-.108.229-.107.484.001.332.08.533.285.728.479.453 1.274.318 1.587-.268.132-.249.122-.7-.021-.944a1.005 1.005 0 0 0-1.177-.459m-7 2a1.04 1.04 0 0 0-.567.459c-.092.156-.108.229-.107.484.001.332.08.533.285.728.479.453 1.274.318 1.587-.268.132-.249.122-.7-.021-.944a1.005 1.005 0 0 0-1.177-.459m4 1a1.04 1.04 0 0 0-.567.459c-.092.156-.108.229-.107.484.001.332.08.533.285.728.479.453 1.274.318 1.587-.268.132-.249.122-.7-.021-.944a1.005 1.005 0 0 0-1.177-.459m-7 2a1.04 1.04 0 0 0-.567.459c-.092.156-.108.229-.107.484.001.332.08.533.285.728.479.453 1.274.318 1.587-.268.132-.249.122-.7-.021-.944a1.005 1.005 0 0 0-1.177-.459m4 1a1.04 1.04 0 0 0-.567.459c-.092.156-.108.229-.107.484.001.332.08.533.285.728.479.453 1.274.318 1.587-.268.132-.249.122-.7-.021-.944a1.005 1.005 0 0 0-1.177-.459m-3 3a1.04 1.04 0 0 0-.567.459c-.092.156-.108.229-.107.484.001.332.08.533.285.728.479.453 1.274.318 1.587-.268.132-.249.122-.7-.021-.944a1.005 1.005 0 0 0-1.177-.459"/></svg>