<svg xmlns="http://www.w3.org/2000/svg" width="24" height="24" fill="none" stroke="currentColor" stroke-linecap="round" stroke-linejoin="round" stroke-width="2"><path fill="#000" fill-rule="evenodd" stroke="none" d="M2.67 2.061c-.222.081-.42.248-.542.455-.092.156-.108.229-.107.484 0 .212.022.341.074.44.04.077 1.066 1.134 2.279 2.35L6.579 8H5.336c-1.353 0-1.486.017-1.754.221-.08.061-.195.194-.254.295-.091.156-.108.23-.108.484 0 .256.016.328.111.489.125.213.318.375.539.454.22.078 5.24.078 5.46 0 .221-.079.414-.241.539-.454L9.98 9.3V3.9l-.108-.184a1.002 1.002 0 0 0-1.744 0L8.02 3.9l-.012 1.337-.012 1.337-2.228-2.222C3.755 2.346 3.521 2.124 3.343 2.065a1 1 0 0 0-.673-.004m17.97.007c-.154.053-.501.383-2.408 2.284l-2.228 2.222-.012-1.337L15.98 3.9l-.108-.184a1.002 1.002 0 0 0-1.744 0l-.108.184v5.4l.111.189c.125.213.318.375.539.454.22.078 5.24.078 5.46 0 .221-.079.414-.241.539-.454.095-.161.111-.233.111-.489 0-.254-.017-.328-.108-.484a1.2 1.2 0 0 0-.254-.295C20.15 8.017 20.017 8 18.664 8h-1.243l2.205-2.21c1.213-1.216 2.239-2.273 2.279-2.35.052-.099.074-.228.074-.44.001-.255-.015-.328-.107-.484a1.016 1.016 0 0 0-1.232-.448M3.895 14.057a1.04 1.04 0 0 0-.567.459c-.091.156-.108.23-.108.484 0 .256.016.328.111.489.061.103.173.236.25.294.267.204.343.213 1.719.215L6.579 16l-2.205 2.21c-1.213 1.215-2.236 2.271-2.273 2.345-.229.455-.045 1.046.407 1.312.165.097.234.113.492.112.212 0 .341-.022.44-.074.077-.04 1.134-1.065 2.348-2.277l2.208-2.203.012 1.341.012 1.34.121.197a.998.998 0 0 0 1.718 0l.121-.197V14.7l-.108-.184a1.05 1.05 0 0 0-.556-.458c-.23-.081-5.162-.082-5.421-.001m10.775.004c-.222.081-.42.248-.542.455l-.108.184v5.406l.121.197a.998.998 0 0 0 1.718 0l.121-.197.012-1.34.012-1.341 2.208 2.203c1.214 1.212 2.269 2.234 2.343 2.271.455.229 1.046.045 1.312-.407.097-.165.113-.234.112-.492 0-.212-.022-.341-.074-.44-.04-.077-1.066-1.135-2.279-2.35L17.421 16l1.279-.002c1.376-.002 1.452-.011 1.719-.215.077-.058.189-.191.25-.294.095-.161.111-.233.111-.489 0-.254-.017-.328-.108-.484a1.02 1.02 0 0 0-.582-.461c-.268-.081-5.199-.075-5.42.006"/></svg>