<svg xmlns="http://www.w3.org/2000/svg" width="24" height="24" fill="none" stroke="currentColor" stroke-linecap="round" stroke-linejoin="round" stroke-width="2"><path fill="#000" fill-rule="evenodd" stroke="none" d="M11.38 2.043c-2.589.255-4.734 2.207-5.257 4.783a5 5 0 0 0-.083.505c0 .077-.085.168-.375.404-1.552 1.261-2.517 3.118-2.708 5.21-.138 1.514.325 3.325 1.19 4.651a7.6 7.6 0 0 0 3.073 2.687c1.009.483 1.809.672 2.987.705l.786.023.014.648c.013.641.014.65.134.844a.998.998 0 0 0 1.718 0c.12-.194.121-.203.134-.845l.014-.649.926-.019c1.037-.021 1.455-.084 2.247-.337 2.09-.666 3.809-2.387 4.48-4.486.271-.846.319-1.168.318-2.147 0-1.061-.078-1.537-.395-2.422-.432-1.202-1.342-2.43-2.347-3.171l-.225-.165-.022-.501a5.92 5.92 0 0 0-1.72-3.956C14.978 2.49 13.23 1.86 11.38 2.043m1.225 2.015a3.99 3.99 0 0 1 2.931 2.102c.348.68.463 1.229.464 2.205 0 .867.066 1.004.68 1.415.708.475 1.096.857 1.502 1.48.311.479.512.923.66 1.46.207.751.21 1.744.008 2.522a5.6 5.6 0 0 1-.736 1.624c-.56.813-1.552 1.559-2.49 1.874-.573.192-.804.225-1.734.248l-.89.022v-2.591l.883-.879c.485-.484.931-.961.99-1.06.091-.152.107-.226.107-.48s-.017-.328-.108-.484a1 1 0 0 0-1.213-.45c-.154.053-.295.165-.677.537l-.482.471-.98-.971c-.849-.84-1.006-.979-1.177-1.037a1 1 0 0 0-1.215.45c-.091.156-.108.23-.108.484s.016.328.107.48c.059.099.505.576.99 1.06l.883.879v3.592l-.71-.024c-.396-.013-.825-.049-.97-.082-.997-.228-1.764-.619-2.545-1.298-.909-.79-1.532-1.926-1.758-3.206-.08-.451-.078-1.336.004-1.806.253-1.462 1.059-2.721 2.319-3.625.22-.157.432-.332.472-.388.11-.156.188-.412.188-.617.001-.29.108-.929.203-1.21.241-.707.734-1.418 1.287-1.856.912-.721 1.985-1.011 3.115-.841"/></svg>