<svg xmlns="http://www.w3.org/2000/svg" width="24" height="24" fill="none" stroke="currentColor" stroke-linecap="round" stroke-linejoin="round" stroke-width="2"><path fill="#000" fill-rule="evenodd" stroke="none" d="M6.149 3.044c-.406.095-.831.45-1.014.847-.1.216-.115.297-.115.609 0 .304.016.394.104.582.058.122 1.156 1.625 2.442 3.34 1.599 2.134 2.352 3.17 2.385 3.283a.96.96 0 0 1 0 .59c-.033.113-.786 1.149-2.385 3.283-1.286 1.715-2.384 3.218-2.442 3.34-.088.188-.104.278-.104.582 0 .31.015.393.112.6.147.315.455.624.764.767l.244.113 5.54.011c3.751.007 5.605-.003 5.743-.032.515-.106 1.115-.561 1.348-1.022.216-.425.234-.591.221-1.971L18.98 16.7l-.109-.186a1.01 1.01 0 0 0-1.742 0l-.109.186-.012 1.15-.013 1.15h-4.737c-2.606 0-4.738-.006-4.738-.013s.91-1.227 2.023-2.71c2.067-2.756 2.214-2.975 2.363-3.517.098-.359.098-1.161 0-1.52-.149-.542-.296-.761-2.363-3.517a354 354 0 0 1-2.023-2.71C7.52 5.006 9.652 5 12.258 5h4.737l.013 1.153.012 1.154.121.196a.998.998 0 0 0 1.718 0l.121-.197.012-1.248c.013-1.358-.011-1.58-.21-1.975-.136-.267-.485-.634-.765-.802-.486-.293-.124-.277-6.237-.275-3.042.001-5.547.018-5.631.038"/></svg>