<svg xmlns="http://www.w3.org/2000/svg" width="24" height="24" fill="none" stroke="currentColor" stroke-linecap="round" stroke-linejoin="round" stroke-width="2"><path fill="#000" fill-rule="evenodd" stroke="none" d="M11.499 1.04a3 3 0 0 0-1.41.655c-.634.544-1.003 1.233-1.073 2.002l-.027.301-2.624.011c-2.495.01-2.633.015-2.785.088-.203.098-2.305 2.174-2.453 2.423-.09.152-.107.226-.107.48 0 .253.017.328.107.48.058.099.607.677 1.22 1.284.973.965 1.138 1.112 1.31 1.17.175.059.483.066 2.77.066H9v11h-.554c-.798 0-1.079.11-1.318.516-.091.156-.108.23-.108.484 0 .256.016.328.111.489.125.213.318.375.539.454s8.438.079 8.66 0 .414-.241.539-.454c.095-.161.111-.233.111-.489 0-.254-.017-.328-.108-.484-.239-.406-.52-.516-1.318-.516H15V10h2.573c2.287 0 2.595-.007 2.77-.066.172-.058.337-.205 1.31-1.17.613-.607 1.162-1.185 1.22-1.284.09-.152.107-.227.107-.48 0-.254-.017-.328-.107-.48-.148-.249-2.25-2.325-2.453-2.423-.152-.073-.29-.078-2.785-.088l-2.624-.011-.027-.301c-.107-1.18-.978-2.233-2.123-2.568-.361-.106-1.029-.149-1.362-.089m.811 2.021c.279.083.546.35.629.629.054.18.061 1.217.061 8.757V21h-2v-8.553c0-9.609-.026-8.814.304-9.144q.417-.418 1.006-.242M9 7v1H4.419l-.499-.5-.499-.5.499-.5.499-.5H9zm11.08-.5.499.5-.499.5-.499.5H15V6h4.581z"/></svg>