<svg xmlns="http://www.w3.org/2000/svg" width="24" height="24" fill="none" stroke="currentColor" stroke-linecap="round" stroke-linejoin="round" stroke-width="2"><path fill="#000" fill-rule="evenodd" stroke="none" d="M12.98 1.041a3.57 3.57 0 0 0-2.61 1.899c-.273.545-.47 1.347-.927 3.76-.516 2.73-.922 4.57-.998 4.523-.138-.085-2.627-.247-3.174-.206-1.499.111-2.694 1.076-3.138 2.531-.095.315-.107.415-.107.952s.012.637.107.952c.368 1.205 1.213 2.05 2.415 2.414.305.092.427.107.912.11.473.003.609-.01.878-.088 1.37-.397 2.468-1.662 3.321-3.828.104-.264.193-.484.197-.489.022-.024.723.216 1.1.376.712.303 1.131.562 1.508.934.293.289.449.582.499.935l.074.525c.055.394.236.74.553 1.057.149.149.365.318.48.377.409.207.562.225 1.93.225s1.521-.018 1.93-.225c.314-.159.725-.591.877-.921.069-.151.131-.28.137-.288s.345.275.754.629.799.673.867.708c.192.099.516.118.736.043a1 1 0 0 0 .568-.457c.093-.158.111-.235.111-.469 0-.487-.02-.512-1.401-1.707-1.435-1.242-1.519-1.294-2.079-1.292-.305.001-.395.017-.589.107-.317.148-.485.284-.645.526-.189.284-.266.572-.266.993V16h-1.989l-.027-.295c-.158-1.746-1.599-3.101-4.215-3.963-.264-.087-.328-.123-.312-.176.168-.568.522-2.216.883-4.106.493-2.59.655-3.294.835-3.65.126-.249.449-.548.736-.682.195-.091.283-.107.589-.107s.394.016.589.107c.283.132.585.409.719.661.403.753.12 1.629-.668 2.069a1.7 1.7 0 0 0-.37.277c-.561.638-.097 1.646.754 1.639.417-.003 1.023-.355 1.518-.884 1.012-1.078 1.238-2.615.582-3.95-.432-.877-1.302-1.584-2.244-1.822-.37-.093-1.051-.131-1.4-.077m-6.46 12c.685.043 1.279.105 1.311.137.029.029-.223.634-.452 1.085-.414.816-.873 1.371-1.321 1.597-.208.104-.281.119-.578.12-.289 0-.376-.017-.58-.112a1.68 1.68 0 0 1-.765-.764c-.095-.208-.111-.296-.111-.604-.001-.309.015-.394.11-.6.194-.423.621-.776 1.04-.858.237-.047.592-.047 1.346-.001m-3.825 7.016a1.04 1.04 0 0 0-.567.459c-.091.156-.108.23-.108.484 0 .256.016.328.111.489.125.213.318.375.539.454.223.08 18.437.08 18.66 0 .221-.079.414-.241.539-.454.095-.161.111-.233.111-.489 0-.254-.017-.328-.108-.484a1.02 1.02 0 0 0-.582-.461c-.263-.079-18.343-.077-18.595.002"/></svg>