<svg xmlns="http://www.w3.org/2000/svg" width="24" height="24" fill="none" stroke="currentColor" stroke-linecap="round" stroke-linejoin="round" stroke-width="2"><path fill="#000" fill-rule="evenodd" stroke="none" d="M11.695 2.057a1.04 1.04 0 0 0-.567.459l-.108.184-.012 1.148-.012 1.148-2.768.014c-2.746.013-2.77.014-3.068.104-.329.1-.732.306-.979.501-.237.187-2.621 2.487-2.769 2.671-.543.677-.543 1.751 0 2.428.148.184 2.532 2.484 2.769 2.671.23.182.637.394.959.501l.28.093 2.789.012 2.789.013.011 3.651.011 3.651.121.197a.998.998 0 0 0 1.718 0l.121-.197.011-3.651.011-3.651 2.789-.013 2.789-.012.28-.093c.34-.113.737-.324.98-.52.229-.185 2.351-2.218 2.629-2.519a2 2 0 0 0 .327-2.234c-.133-.276-.281-.434-1.61-1.711-1.498-1.439-1.693-1.588-2.352-1.789-.291-.089-.326-.09-3.062-.103l-2.768-.014-.012-1.148L12.98 2.7l-.108-.184a1.005 1.005 0 0 0-1.177-.459m6.642 5.008c.158.054.34.208 1.032.87.461.443 1.019.976 1.239 1.185l.399.38-1.168 1.119c-1.268 1.215-1.346 1.283-1.557 1.341-.194.054-12.37.054-12.564 0-.211-.058-.289-.126-1.557-1.341L2.993 9.5l.399-.38c.22-.209.778-.742 1.24-1.185.643-.617.881-.82 1.014-.867.153-.054.902-.062 6.337-.065 5.601-.003 6.18.003 6.354.062"/></svg>