<svg xmlns="http://www.w3.org/2000/svg" width="24" height="24" fill="none" stroke="currentColor" stroke-linecap="round" stroke-linejoin="round" stroke-width="2"><path fill="#000" fill-rule="evenodd" stroke="none" d="M21.695 3.057a1.04 1.04 0 0 0-.567.459l-.108.184v16.606l.121.197a.998.998 0 0 0 1.718 0l.121-.197V3.7l-.108-.184a1.005 1.005 0 0 0-1.177-.459m-5 4a1.04 1.04 0 0 0-.567.459l-.108.184v12.606l.121.197a.998.998 0 0 0 1.718 0l.121-.197V7.7l-.108-.184a1.005 1.005 0 0 0-1.177-.459m-5 4a1.04 1.04 0 0 0-.567.459l-.108.184v8.606l.121.197a.998.998 0 0 0 1.718 0l.121-.197V11.7l-.108-.184a1.005 1.005 0 0 0-1.177-.459m-5 4a1.04 1.04 0 0 0-.567.459l-.108.184v4.606l.121.197c.068.11.205.253.311.325.471.316 1.102.171 1.407-.325l.121-.197V15.7l-.108-.184a1.005 1.005 0 0 0-1.177-.459m-5 3.998a1.05 1.05 0 0 0-.567.461c-.091.156-.108.23-.108.484 0 .257.016.327.113.492.518.882 1.865.526 1.865-.492a.99.99 0 0 0-.535-.888 1.17 1.17 0 0 0-.768-.057"/></svg>