<svg xmlns="http://www.w3.org/2000/svg" width="24" height="24" fill="none" stroke="currentColor" stroke-linecap="round" stroke-linejoin="round" stroke-width="2"><path fill="#000" fill-rule="evenodd" stroke="none" d="M11.695 1.057a1.04 1.04 0 0 0-.567.459c-.108.183-.108.187-.108.987v.803l.121.197a.998.998 0 0 0 1.718 0l.121-.197v-.803c0-.8 0-.804-.108-.987a1.005 1.005 0 0 0-1.177-.459m6.39 2.544c-.213.097-.812.671-.959.919-.089.152-.106.227-.106.48 0 .257.016.327.113.492.279.475.898.646 1.359.374.244-.143.814-.744.908-.957a.975.975 0 0 0-.898-1.388c-.154 0-.305.03-.417.08M4.78 3.947c-.237.054-.366.117-.508.245a.95.95 0 0 0-.293 1.031c.063.217.109.276.595.76.453.452.556.535.74.596a1 1 0 0 0 1.264-1.265c-.06-.183-.143-.286-.574-.717-.277-.277-.567-.532-.644-.566-.156-.069-.457-.113-.58-.084m6.6 2.096c-2.588.255-4.674 2.148-5.265 4.777-.088.391-.09.464-.104 3.364l-.015 2.963-.328.167a3.1 3.1 0 0 0-1.55 1.826c-.079.246-.092.388-.108 1.163-.02.979.004 1.176.192 1.574.146.309.569.746.868.898.468.237.102.225 6.93.225s6.462.012 6.93-.225c.266-.135.708-.575.841-.838.209-.411.239-.632.219-1.617-.015-.794-.028-.933-.108-1.18a3.12 3.12 0 0 0-1.55-1.826l-.328-.167-.015-2.963c-.014-2.9-.016-2.973-.104-3.364-.273-1.214-.784-2.168-1.616-3.015C14.978 6.49 13.23 5.86 11.38 6.043m1.225 2.015c1.469.222 2.705 1.266 3.192 2.697.186.547.203.847.203 3.635V17h-2.998l-.011-2.65-.011-2.65-.109-.186a1.01 1.01 0 0 0-1.742 0l-.109.186-.011 2.65-.011 2.65H8v-2.61c0-2.788.017-3.088.203-3.635.241-.707.734-1.418 1.287-1.856.912-.721 1.985-1.011 3.115-.841m-10.91 2.999a1.04 1.04 0 0 0-.567.459c-.091.156-.108.23-.108.484 0 .256.016.328.111.489.125.213.318.375.539.454.208.074 1.452.074 1.66 0 .221-.079.414-.241.539-.454.095-.161.111-.233.111-.489 0-.254-.017-.328-.108-.484a1.02 1.02 0 0 0-.582-.461c-.24-.072-1.362-.071-1.595.002m19 0a1.04 1.04 0 0 0-.567.459c-.091.156-.108.23-.108.484 0 .256.016.328.111.489.125.213.318.375.539.454.208.074 1.452.074 1.66 0 .221-.079.414-.241.539-.454.095-.161.111-.233.111-.489 0-.254-.017-.328-.108-.484a1.02 1.02 0 0 0-.582-.461c-.24-.072-1.362-.071-1.595.002m-3.385 8.004a.9.9 0 0 1 .387.242c.251.251.303.448.303 1.144V21H6v-.553c0-.697.052-.893.304-1.144.317-.318-.07-.297 5.679-.3 4.475-.003 5.148.005 5.327.058"/></svg>