<svg xmlns="http://www.w3.org/2000/svg" width="24" height="24" fill="none" stroke="currentColor" stroke-linecap="round" stroke-linejoin="round" stroke-width="2"><path fill="#000" fill-rule="evenodd" stroke="none" d="m11.36 2.024-.52.057c-1.609.175-3.334.942-4.703 2.092-1.7 1.427-2.831 3.586-3.099 5.916-.103.893.001 2.173.258 3.177A9 9 0 0 0 4.959 16.6c.173.214.236.323.221.38l-.084.3c-.132.47-.112 1.151.048 1.629.035.105.13.325.21.489.258.526 1.085 1.27 1.538 1.384.101.025.108.041.108.254 0 .509.203.975.596 1.368.286.286.552.443.912.536.342.089 6.642.089 6.984 0 .36-.093.626-.25.912-.536.39-.39.596-.865.596-1.375 0-.206.007-.222.108-.247.453-.114 1.28-.858 1.538-1.384.08-.164.175-.384.21-.489.16-.478.18-1.159.048-1.629l-.084-.3c-.015-.057.048-.166.221-.38a8.2 8.2 0 0 0 1.02-1.62c.605-1.237.882-2.359.927-3.751a8.3 8.3 0 0 0-.456-3.069c-.789-2.351-2.393-4.171-4.632-5.259a8.6 8.6 0 0 0-2.7-.821c-.359-.046-1.603-.084-1.84-.056m1.392 2.019c2.289.251 4.363 1.647 5.403 3.637.807 1.542 1.026 3.079.682 4.776-.259 1.276-1.008 2.652-1.917 3.524-.213.204-.321.415-.348.679-.026.252.032.448.215.723.271.409.271.837-.001 1.214-.163.228-.416.36-.774.405a2.4 2.4 0 0 0-.387.077 1.1 1.1 0 0 0-.497.438c-.103.176-.109.212-.121.834l-.014.65H9.007l-.014-.653c-.013-.647-.014-.656-.133-.845a.97.97 0 0 0-.68-.465c-.637-.112-.821-.199-.998-.467-.239-.364-.227-.798.031-1.188.183-.275.241-.471.215-.723-.027-.264-.135-.475-.348-.679-.493-.473-1.032-1.23-1.365-1.92-.801-1.66-.932-3.508-.369-5.22.185-.561.634-1.458.946-1.891 1.499-2.077 3.954-3.182 6.46-2.906m-4.275 6.03c-.671.176-1.239.75-1.417 1.435a2.07 2.07 0 0 0 .165 1.422c.136.269.576.709.845.845a2.05 2.05 0 0 0 1.86 0c.266-.135.708-.575.841-.838a2.05 2.05 0 0 0 .169-1.408 1.8 1.8 0 0 0-.475-.876A1.97 1.97 0 0 0 9 10.005c-.143 0-.378.031-.523.068m6 0c-.671.176-1.239.75-1.417 1.435a2.07 2.07 0 0 0 .165 1.422c.136.269.576.709.845.845a2.06 2.06 0 0 0 1.867-.004c.26-.132.702-.574.834-.834a2.05 2.05 0 0 0 .169-1.408 1.8 1.8 0 0 0-.475-.876A1.97 1.97 0 0 0 15 10.005c-.143 0-.378.031-.523.068m-2.81 4.992c-.314.096-.482.305-.844 1.046-.284.584-.316.672-.315.879.001.412.21.733.592.915.187.088.247.094.9.094s.713-.006.9-.094c.382-.181.587-.498.591-.914.002-.21-.028-.292-.315-.881-.356-.731-.521-.936-.836-1.044a.98.98 0 0 0-.673-.001"/></svg>