<svg xmlns="http://www.w3.org/2000/svg" width="24" height="24" fill="none" stroke="currentColor" stroke-linecap="round" stroke-linejoin="round" stroke-width="2"><path fill="#000" fill-rule="evenodd" stroke="none" d="M7.96 1.062a2.9 2.9 0 0 0-1.128.577c-.3.268-.593.713-.714 1.083-.084.254-.098.372-.096.798.002.439.016.536.111.8A2.6 2.6 0 0 0 7.68 5.869l.3.111h2.32l.192-.113a1.07 1.07 0 0 0 .471-.6c.028-.103.038-.54.029-1.224-.015-1.039-.018-1.07-.124-1.363A2.535 2.535 0 0 0 7.96 1.062m6 0a2.9 2.9 0 0 0-1.128.577c-.3.268-.593.713-.714 1.083l-.098.298v6l.111.3a2.6 2.6 0 0 0 1.549 1.548c.268.097.355.108.82.108s.552-.011.82-.108a2.6 2.6 0 0 0 1.549-1.548l.111-.3V2.98l-.111-.3a2.54 2.54 0 0 0-2.909-1.618m-5.236 2c.201.104.276.274.276.628V4h-.302c-.35 0-.504-.063-.62-.252a.48.48 0 0 1 .174-.67.45.45 0 0 1 .472-.016m6 0c.066.034.155.12.198.19.075.124.078.22.078 2.748s-.003 2.624-.078 2.748A.54.54 0 0 1 14.5 9a.54.54 0 0 1-.422-.252c-.075-.123-.078-.22-.078-2.74 0-2.883-.01-2.77.252-2.93a.45.45 0 0 1 .472-.016m5.236 3a2.9 2.9 0 0 0-1.128.577c-.3.268-.593.713-.714 1.083-.095.288-.098.338-.098 1.438v1.14l.113.192c.13.221.369.409.6.471.103.028.54.038 1.224.029 1.039-.015 1.07-.018 1.363-.124a2.6 2.6 0 0 0 1.547-1.548c.098-.269.109-.354.109-.82s-.011-.552-.108-.82a2.535 2.535 0 0 0-2.908-1.618m-17 1a2.9 2.9 0 0 0-1.128.577c-.3.268-.593.713-.714 1.083-.084.254-.098.372-.096.798.002.439.016.536.111.8a2.6 2.6 0 0 0 1.547 1.549l.3.111h6.04l.3-.111a2.6 2.6 0 0 0 1.547-1.549c.098-.269.109-.354.109-.82s-.011-.552-.108-.82A2.53 2.53 0 0 0 9.62 7.277c-.559-.277-.549-.276-3.64-.273-2.204.002-2.812.014-3.02.058m17.764 1A.56.56 0 0 1 21 8.5a.56.56 0 0 1-.276.438c-.077.04-.228.062-.422.062H20v-.302c0-.35.063-.504.252-.62a.45.45 0 0 1 .472-.016M8.748 9.078c.328.2.328.644 0 .844-.123.075-.22.078-2.74.078-2.883 0-2.77.01-2.93-.252a.48.48 0 0 1 .174-.67C3.376 9.003 3.472 9 6 9s2.624.003 2.748.078m6.212 2.984a2.9 2.9 0 0 0-1.128.577c-.3.268-.593.713-.714 1.083-.084.254-.098.372-.096.798.002.439.016.536.111.8a2.6 2.6 0 0 0 1.547 1.549l.3.111h6.04l.3-.111a2.6 2.6 0 0 0 1.547-1.549c.098-.269.109-.354.109-.82s-.011-.552-.108-.82a2.53 2.53 0 0 0-1.248-1.403c-.559-.277-.549-.276-3.64-.273-2.204.002-2.812.014-3.02.058m-12 1a2.9 2.9 0 0 0-1.128.577c-.3.268-.593.713-.714 1.083-.084.254-.098.372-.096.798.002.439.016.536.111.8a2.59 2.59 0 0 0 1.547 1.547c.269.098.354.109.82.109s.552-.011.82-.108a2.6 2.6 0 0 0 1.549-1.548l.111-.3V13.7l-.108-.184a1.02 1.02 0 0 0-.582-.461c-.254-.077-1.965-.071-2.33.007m6 0a2.9 2.9 0 0 0-1.128.577c-.3.268-.593.713-.714 1.083l-.098.298v6l.111.3a2.6 2.6 0 0 0 1.549 1.548c.268.097.355.108.82.108s.552-.011.82-.108a2.6 2.6 0 0 0 1.549-1.548l.111-.3v-6.04l-.111-.3a2.54 2.54 0 0 0-2.909-1.618m11.788 1.016A.54.54 0 0 1 21 14.5a.54.54 0 0 1-.252.422c-.123.075-.22.078-2.74.078-2.883 0-2.77.01-2.93-.252a.48.48 0 0 1 .174-.67c.124-.075.22-.078 2.748-.078s2.624.003 2.748.078M4 15.31c0 .354-.075.524-.276.628a.483.483 0 0 1-.646-.19.48.48 0 0 1 .174-.67c.098-.059.201-.078.438-.078H4zm5.724-.248c.066.034.155.12.198.19.075.124.078.22.078 2.748s-.003 2.624-.078 2.748A.54.54 0 0 1 9.5 21a.54.54 0 0 1-.422-.252c-.075-.123-.078-.22-.078-2.74 0-2.883-.01-2.77.252-2.93a.45.45 0 0 1 .472-.016m3.971 2.995a1.04 1.04 0 0 0-.567.459l-.108.184v2.32l.111.3c.265.721.83 1.286 1.549 1.547.269.098.354.109.82.109s.552-.011.82-.108a2.59 2.59 0 0 0 1.547-1.548c.098-.269.109-.354.109-.82s-.011-.552-.108-.82a2.8 2.8 0 0 0-.703-1.044 2.85 2.85 0 0 0-1.145-.576c-.37-.078-2.08-.08-2.325-.003m2.053 2.021A.54.54 0 0 1 16 20.5c0 .244-.252.5-.492.5a.54.54 0 0 1-.43-.252c-.059-.098-.078-.201-.078-.438V20h.31c.237 0 .34.019.438.078"/></svg>