<svg xmlns="http://www.w3.org/2000/svg" width="24" height="24" fill="none" stroke="currentColor" stroke-linecap="round" stroke-linejoin="round" stroke-width="2"><path fill="#000" fill-rule="evenodd" stroke="none" d="M19.472 2.04a3 3 0 0 0-1.474.6c-.142.107-3.996 3.936-8.564 8.507-7.986 7.993-8.308 8.321-8.375 8.528-.17.531.096 1.084.611 1.268.236.084 8.498.082 8.822-.003.36-.093.626-.25.912-.536.516-.516.596-.8.596-2.118 0-.959 0-.963.09-1.009.123-.063 9.987-9.917 10.227-10.217.272-.339.422-.625.547-1.04.15-.498.16-1.24.022-1.72-.302-1.057-1.238-1.969-2.257-2.197a3.9 3.9 0 0 0-1.157-.063m.868 2.079c.381.167.632.564.632 1-.001.521.324.165-5.073 5.562L11 15.58l-.79-.79-.79-.79 4.88-4.883c2.893-2.894 4.943-4.915 5.034-4.962a1.18 1.18 0 0 1 1.006-.036M8.86 16.281c.462.463.908.888.99.945l.15.105V19H4.42l1.78-1.78c.979-.979 1.789-1.78 1.8-1.78s.399.378.86.841"/></svg>