<svg xmlns="http://www.w3.org/2000/svg" width="24" height="24" fill="none" stroke="currentColor" stroke-linecap="round" stroke-linejoin="round" stroke-width="2"><path fill="#000" fill-rule="evenodd" stroke="none" d="M3.695 2.057a1.04 1.04 0 0 0-.567.459L3.02 2.7v7.606l.121.197c.068.11.205.253.311.325.471.316 1.102.171 1.407-.325l.121-.197V2.7l-.108-.184a1.005 1.005 0 0 0-1.177-.459m8 0a1.04 1.04 0 0 0-.567.459l-.108.184-.011 2.15L10.997 7h-.552c-.797 0-1.078.11-1.317.516-.091.156-.108.23-.108.484 0 .256.016.328.111.489.125.213.318.375.539.454.219.078 4.441.078 4.66 0 .221-.079.414-.241.539-.454.095-.161.111-.233.111-.489 0-.254-.017-.328-.108-.484-.239-.406-.52-.516-1.317-.516h-.552l-.012-2.15-.011-2.15-.108-.184a1.005 1.005 0 0 0-1.177-.459m8 0a1.04 1.04 0 0 0-.567.459l-.108.184v9.606l.121.197a.998.998 0 0 0 1.718 0l.121-.197V2.7l-.108-.184a1.005 1.005 0 0 0-1.177-.459m-8 9a1.04 1.04 0 0 0-.567.459l-.108.184v9.606l.121.197a.998.998 0 0 0 1.718 0l.121-.197V11.7l-.108-.184a1.005 1.005 0 0 0-1.177-.459m-10 2a1.04 1.04 0 0 0-.567.459c-.091.156-.108.23-.108.484 0 .256.016.328.111.489.125.213.318.375.539.454.098.035.353.054.739.055l.589.002.011 3.153.011 3.153.121.197a.998.998 0 0 0 1.718 0l.121-.197.011-3.153L5.002 15l.589-.002c.386-.001.641-.02.739-.055.221-.079.414-.241.539-.454.095-.161.111-.233.111-.489 0-.254-.017-.328-.108-.484a1.02 1.02 0 0 0-.582-.461c-.257-.077-4.347-.076-4.595.002m16 2a1.04 1.04 0 0 0-.567.459c-.091.156-.108.23-.108.484 0 .256.016.328.111.489.125.213.318.375.539.454.098.035.352.054.739.055l.588.002.012 2.153.011 2.153.121.197a.998.998 0 0 0 1.718 0l.121-.197.011-2.153.012-2.153.588-.002c.387-.001.641-.02.739-.055.221-.079.414-.241.539-.454.095-.161.111-.233.111-.489 0-.254-.017-.328-.108-.484a1.02 1.02 0 0 0-.582-.461c-.257-.077-4.347-.076-4.595.002"/></svg>