<svg xmlns="http://www.w3.org/2000/svg" width="24" height="24" fill="none" stroke="currentColor" stroke-linecap="round" stroke-linejoin="round" stroke-width="2"><path fill="#000" fill-rule="evenodd" stroke="none" d="M13.695 1.057a1.04 1.04 0 0 0-.567.459l-.108.184v4.606l.121.197a.998.998 0 0 0 1.718 0c.12-.195.121-.203.134-.85L15.007 5l3.086-.002c2.474-.001 3.117-.012 3.237-.055.221-.079.414-.241.539-.454.095-.161.111-.233.111-.489 0-.254-.017-.328-.108-.484a1.2 1.2 0 0 0-.254-.295C21.325 2.997 21.367 3 18.057 3h-3.05l-.014-.65c-.012-.622-.018-.658-.121-.834a1.005 1.005 0 0 0-1.177-.459m-11 2a1.04 1.04 0 0 0-.567.459c-.091.156-.108.23-.108.484 0 .256.016.328.111.489.125.213.318.375.539.454s7.439.079 7.66 0 .414-.241.539-.454c.095-.161.111-.233.111-.489 0-.254-.017-.328-.108-.484a1.02 1.02 0 0 0-.582-.461c-.26-.078-7.345-.076-7.595.002m5 6a1.04 1.04 0 0 0-.567.459c-.103.176-.109.212-.121.834l-.014.65h-2.05c-2.225 0-2.277.004-2.561.221-.08.061-.195.194-.254.295-.091.156-.108.23-.108.484 0 .256.016.328.111.489.125.213.318.375.539.454.118.042.598.054 2.237.055L6.993 13l.014.653c.013.647.014.655.134.85a.998.998 0 0 0 1.718 0l.121-.197V9.7l-.108-.184a1.005 1.005 0 0 0-1.177-.459m4 2a1.04 1.04 0 0 0-.567.459c-.091.156-.108.23-.108.484 0 .256.016.328.111.489.125.213.318.375.539.454s9.438.079 9.66 0 .414-.241.539-.454c.095-.161.111-.233.111-.489 0-.254-.017-.328-.108-.484a1.02 1.02 0 0 0-.582-.461c-.261-.079-9.344-.077-9.595.002m4 6a1.04 1.04 0 0 0-.567.459l-.108.184v4.606l.121.197a.998.998 0 0 0 1.718 0c.12-.195.121-.203.134-.85l.014-.653 2.086-.002c1.639-.001 2.119-.013 2.237-.055.221-.079.414-.241.539-.454.095-.161.111-.233.111-.489 0-.254-.017-.328-.108-.484a1.2 1.2 0 0 0-.254-.295c-.284-.217-.336-.221-2.561-.221h-2.05l-.014-.65c-.012-.622-.018-.658-.121-.834a1.005 1.005 0 0 0-1.177-.459m-13 2a1.04 1.04 0 0 0-.567.459c-.091.156-.108.23-.108.484 0 .256.016.328.111.489.125.213.318.375.539.454s9.438.079 9.66 0 .414-.241.539-.454c.095-.161.111-.233.111-.489 0-.254-.017-.328-.108-.484a1.02 1.02 0 0 0-.582-.461c-.261-.079-9.344-.077-9.595.002"/></svg>