<svg xmlns="http://www.w3.org/2000/svg" width="24" height="24" fill="none" stroke="currentColor" stroke-linecap="round" stroke-linejoin="round" stroke-width="2"><path fill="#000" fill-rule="evenodd" stroke="none" d="M6.499 1.043c-1.12.19-2.038 1.005-2.385 2.117l-.094.3v17.08l.094.3a3.09 3.09 0 0 0 2.046 2.046l.3.094h11.08l.3-.094a3.09 3.09 0 0 0 2.046-2.046l.094-.3V3.46l-.094-.3a3.09 3.09 0 0 0-2.025-2.039l-.321-.101-5.42-.006c-2.981-.003-5.511.01-5.621.029M17.31 3.061c.279.083.546.35.629.629.054.18.061 1.17.061 8.311 0 6.753-.009 8.137-.055 8.289a1.02 1.02 0 0 1-.461.582l-.184.108H6.7l-.184-.108a1.2 1.2 0 0 1-.291-.249c-.24-.315-.225.265-.225-8.601 0-9.134-.026-8.39.304-8.719.317-.318-.07-.297 5.679-.3 4.475-.003 5.148.005 5.327.058M12.4 7.037a1.04 1.04 0 0 0-.445.269c-.166.179-2.844 4.218-2.901 4.374-.161.447.063.993.496 1.206.183.091.234.095 1.38.114l1.19.02-.841 1.26c-.936 1.402-1.003 1.541-.922 1.901.116.52.563.859 1.064.807.244-.025.476-.134.624-.294.198-.214 2.844-4.227 2.905-4.405a1 1 0 0 0-.325-1.063c-.26-.198-.299-.203-1.555-.225l-1.19-.021.841-1.26c1.024-1.534 1.065-1.638.842-2.14-.187-.422-.729-.675-1.163-.543"/></svg>