<svg xmlns="http://www.w3.org/2000/svg" width="24" height="24" fill="none" stroke="currentColor" stroke-linecap="round" stroke-linejoin="round" stroke-width="2"><path fill="#000" fill-rule="evenodd" stroke="none" d="M10.96 1c-2.99.308-5.683 1.766-7.54 4.08a11.03 11.03 0 0 0-2.274 8.64 11.2 11.2 0 0 0 1.012 3.1 10.75 10.75 0 0 0 3.162 3.855c.671.508 1.096.77 1.86 1.145 1.27.623 2.56.977 4 1.099 1.118.094 2.274-.007 3.48-.304 4.127-1.017 7.317-4.38 8.134-8.575.151-.771.185-1.193.185-2.28l.001-1.06-.109-.186a1.008 1.008 0 0 0-1.741 0c-.109.185-.11.189-.136 1.206-.039 1.46-.135 2.105-.46 3.08-.814 2.441-2.726 4.495-5.074 5.451-1.232.501-2.178.688-3.48.687-1.147-.001-2.071-.169-3.172-.575-2.264-.836-4.212-2.733-5.138-5.003-.745-1.825-.868-4.045-.325-5.88.325-1.1.931-2.277 1.617-3.14C6.308 4.648 8.29 3.474 10.48 3.071c.396-.072.624-.085 1.641-.089l1.182-.004.187-.11a.994.994 0 0 0-.198-1.815C13.061.981 11.493.945 10.96 1m7.735.057a1.04 1.04 0 0 0-.567.459l-.108.184-.012 1.15L17.995 4h-1.051c-1.147 0-1.301.022-1.562.221-.08.061-.195.194-.254.295-.091.156-.108.23-.108.484 0 .256.016.328.111.489.061.103.173.236.25.294.261.2.357.213 1.527.215L17.995 6l.013 1.153.012 1.154.121.196a.998.998 0 0 0 1.718 0l.121-.196.012-1.154L20.005 6l1.087-.002c1.17-.002 1.266-.015 1.527-.215.077-.058.189-.191.25-.294.095-.161.111-.233.111-.489 0-.254-.017-.328-.108-.484a1.2 1.2 0 0 0-.254-.295C22.357 4.022 22.203 4 21.056 4h-1.051l-.013-1.15-.012-1.15-.108-.184a1.005 1.005 0 0 0-1.177-.459m-10 6.998a1.05 1.05 0 0 0-.567.461c-.091.156-.108.23-.108.484 0 .257.016.327.113.492.518.882 1.865.526 1.865-.492a.99.99 0 0 0-.535-.888 1.17 1.17 0 0 0-.768-.057m6 0a1.05 1.05 0 0 0-.567.461c-.091.156-.108.23-.108.484 0 .257.016.327.113.492.518.882 1.865.526 1.865-.492a.99.99 0 0 0-.535-.888 1.17 1.17 0 0 0-.768-.057m-7.025 5a1.004 1.004 0 0 0-.613 1.256c.132.397.849 1.113 1.657 1.654a6.1 6.1 0 0 0 1.526.749c.675.218.99.266 1.76.266s1.085-.048 1.76-.266a6.1 6.1 0 0 0 1.526-.749c.808-.541 1.525-1.257 1.657-1.654a1.004 1.004 0 0 0-.679-1.275c-.193-.052-.542-.02-.708.066-.064.033-.319.264-.566.512-.66.662-1.218 1.008-2.019 1.253-.316.096-.413.107-.971.107s-.655-.011-.971-.107c-.801-.245-1.359-.591-2.019-1.253-.247-.248-.504-.48-.571-.514-.173-.09-.585-.114-.769-.045"/></svg>