<svg xmlns="http://www.w3.org/2000/svg" width="24" height="24" fill="none" stroke="currentColor" stroke-linecap="round" stroke-linejoin="round" stroke-width="2"><path fill="#000" fill-rule="evenodd" stroke="none" d="M6.667 2.065c-.261.08-.514.336-.606.613-.123.37-.085.505.435 1.552.391.786.453.937.382.918a12 12 0 0 0-.502-.093c-.352-.06-.447-.064-.606-.022-.759.199-1.019 1.12-.471 1.668.218.218.342.256 1.581.477.561.1 1.061.192 1.11.203.071.016.176.191.49.82l.4.799-.5 1-.5 1H6.001l-.659-.878c-.725-.964-.83-1.059-1.223-1.105a.984.984 0 0 0-1.106.858c-.034.284.045.524.274.838l.194.267-.87.022c-.547.013-.913.039-.984.07-.602.259-.81.993-.429 1.519.065.09.205.214.31.276.192.113.194.113 1.083.133l.89.02-.194.267c-.229.314-.308.554-.274.838a.99.99 0 0 0 1.099.862c.389-.04.503-.142 1.23-1.109L6.001 13H7.88l.5 1 .5 1-.4.799c-.313.625-.419.804-.49.821-.049.012-.583.111-1.186.22-1.181.214-1.369.276-1.563.511a1.006 1.006 0 0 0 .256 1.51c.284.166.619.165 1.372-.002.078-.018.03.101-.375.915-.353.711-.469.984-.484 1.136-.069.715.633 1.261 1.319 1.028.347-.119.439-.241.95-1.257l.472-.938.209.418c.123.246.272.479.361.564.167.159.452.275.679.275.406 0 .811-.293.939-.678.126-.379.092-.493-.518-1.718L9.872 17.5l.373-.75.373-.75h2.764l.373.75.373.75-.549 1.104c-.61 1.225-.644 1.339-.518 1.718.128.385.533.678.939.678.227 0 .512-.116.679-.275.089-.085.238-.318.361-.564l.209-.418.472.938c.511 1.016.603 1.138.95 1.257.686.233 1.388-.313 1.319-1.028-.015-.152-.131-.425-.484-1.136-.405-.814-.453-.933-.375-.915.753.167 1.088.168 1.372.002a1.006 1.006 0 0 0 .256-1.51c-.194-.235-.382-.297-1.563-.511a75 75 0 0 1-1.186-.22c-.071-.017-.177-.196-.49-.821l-.4-.799.5-1 .5-1h1.879l.659.878c.727.967.841 1.069 1.23 1.109a.99.99 0 0 0 1.099-.862c.034-.284-.045-.524-.274-.838l-.194-.267.89-.02c.889-.02.891-.02 1.083-.133a1.003 1.003 0 0 0-.119-1.795c-.071-.031-.437-.057-.984-.07l-.87-.022.194-.267c.229-.314.308-.554.274-.838a.984.984 0 0 0-1.106-.858c-.393.046-.498.141-1.223 1.105l-.659.878H16.12l-.5-1-.5-1 .4-.799c.314-.629.419-.804.49-.82.049-.011.549-.103 1.11-.203s1.108-.211 1.216-.245C18.706 6.814 19 6.4 19 6c0-.395-.295-.81-.667-.936-.242-.083-.346-.081-.853.016l-.429.08c-.005 0 .2-.421.455-.935.513-1.032.555-1.179.438-1.532a1.002 1.002 0 0 0-1.603-.441c-.112.097-.261.353-.62 1.067l-.472.938-.209-.418c-.238-.476-.422-.678-.704-.774-.238-.081-.385-.082-.652-.002-.422.125-.717.575-.674 1.027.015.156.143.451.569 1.306l.549 1.104-.373.75-.373.75h-2.764l-.373-.75-.373-.75.549-1.104c.605-1.215.644-1.341.523-1.703-.227-.685-1.106-.912-1.622-.419-.09.086-.238.317-.362.565l-.209.418-.472-.938c-.511-1.016-.603-1.138-.95-1.257-.224-.076-.408-.075-.662.003M13.88 11l.499 1-.499 1-.499 1h-2.762l-.499-1-.499-1 .499-1 .499-1h2.762z"/></svg>