<svg xmlns="http://www.w3.org/2000/svg" width="24" height="24" fill="none" stroke="currentColor" stroke-linecap="round" stroke-linejoin="round" stroke-width="2"><path fill="#000" fill-rule="evenodd" stroke="none" d="M5.948 2.055a1.05 1.05 0 0 0-.692.831c-.049.357.156.761.5.984.161.105.206.159.227.274.034.181.003.247-.344.715-.506.682-.671 1.166-.625 1.834.027.405.115.732.285 1.067.149.292.264.446.578.774.439.459.833.574 1.263.371.381-.181.588-.5.588-.905 0-.299-.083-.481-.354-.773-.345-.373-.445-.656-.317-.899.031-.059.167-.252.301-.428.588-.77.765-1.485.563-2.276a2.2 2.2 0 0 0-.6-1.061c-.452-.461-.978-.655-1.373-.508m5 0a1.05 1.05 0 0 0-.692.831c-.049.357.156.761.5.984.157.102.206.16.226.266.031.168-.03.294-.366.747-.469.634-.643 1.161-.601 1.817.049.751.329 1.318.96 1.947.275.274.524.375.845.341A.977.977 0 0 0 12.718 8c0-.285-.107-.518-.361-.787-.22-.233-.355-.488-.356-.673-.001-.14.06-.247.401-.704.528-.708.697-1.38.538-2.131-.222-1.049-1.272-1.918-1.992-1.65m5 0a1.05 1.05 0 0 0-.692.831c-.049.357.156.761.5.984.161.105.206.159.227.274.034.181.003.247-.344.715-.506.682-.671 1.166-.625 1.834.052.761.329 1.324.961 1.954.275.274.524.375.845.341A.977.977 0 0 0 17.718 8c0-.283-.107-.518-.355-.781q-.5-.527-.306-.891c.031-.059.167-.252.301-.428.588-.77.765-1.485.563-2.276a2.2 2.2 0 0 0-.6-1.061c-.452-.461-.978-.655-1.373-.508m5.695 3.012a1.1 1.1 0 0 0-.34.229c-.146.147-.263.404-1.12 2.464l-1.154 2.77-.198.47h-7.969c-6.637 0-8 .009-8.152.055a1.02 1.02 0 0 0-.582.461c-.105.178-.108.202-.106.784.004.866.128 1.664.402 2.568a9.76 9.76 0 0 0 2.495 4.175c.452.453 1.118 1.022 1.348 1.151.046.025.03.071-.082.239a.993.993 0 0 0 .312 1.426l.197.121h10.612l.197-.121a.993.993 0 0 0 .312-1.426c-.112-.168-.128-.214-.082-.239.428-.24 1.644-1.387 2.114-1.994 1.359-1.757 2.119-3.857 2.13-5.88.003-.604 0-.625-.105-.804a1 1 0 0 0-.635-.474l-.228-.062.982-2.36c.649-1.559.989-2.422 1-2.545a1.07 1.07 0 0 0-.226-.717c-.246-.297-.748-.428-1.122-.291m-1.723 8.011c0 .043-.037.271-.083.508-.237 1.228-.861 2.53-1.684 3.514a7.9 7.9 0 0 1-2.682 2.1 7.94 7.94 0 0 1-6.942 0 7.9 7.9 0 0 1-2.682-2.1c-.826-.987-1.446-2.282-1.684-3.514a6 6 0 0 1-.083-.508c0-.077.095-.078 7.92-.078s7.92.001 7.92.078"/></svg>