<svg xmlns="http://www.w3.org/2000/svg" width="24" height="24" fill="none" stroke="currentColor" stroke-linecap="round" stroke-linejoin="round" stroke-width="2"><path fill="#000" fill-rule="evenodd" stroke="none" d="M11.64 1.068c-.156.053-.67.551-3.872 3.747-3.68 3.673-4.409 4.424-4.987 5.145-1.259 1.57-1.845 3.161-1.769 4.8a6.44 6.44 0 0 0 1.826 4.255c.941.979 2.178 1.634 3.582 1.895.449.084 1.765.093 2.24.016.769-.125 1.454-.346 2.008-.649.159-.086.297-.157.308-.157s.025.492.032 1.093l.012 1.094.121.196c.068.11.205.253.311.325.471.316 1.102.171 1.407-.325l.121-.196.012-1.094c.007-.601.017-1.093.023-1.093s.199.096.43.213c1.389.706 3.274.863 4.856.406a6.52 6.52 0 0 0 4.438-4.438c.494-1.707.271-3.45-.647-5.061-.686-1.205-1.047-1.602-5.588-6.145-3.639-3.64-3.98-3.971-4.161-4.03a1.06 1.06 0 0 0-.703.003m3.924 5.922c1.948 1.953 3.699 3.739 3.891 3.97 1.172 1.411 1.633 2.603 1.514 3.92-.078.859-.36 1.618-.84 2.263a4.5 4.5 0 0 1-2.904 1.795c-.692.121-1.618.056-2.311-.162-.656-.205-1.291-.613-1.992-1.281-.405-.385-.607-.493-.922-.493s-.517.108-.922.493c-.931.887-1.692 1.291-2.721 1.446-1.801.27-3.434-.384-4.486-1.798a4.5 4.5 0 0 1-.827-2.083 3.7 3.7 0 0 1 .014-1.18c.145-.952.61-1.867 1.486-2.92.304-.365 7.398-7.52 7.456-7.52.012 0 1.616 1.598 3.564 3.55"/></svg>