<svg xmlns="http://www.w3.org/2000/svg" width="24" height="24" fill="none" stroke="currentColor" stroke-linecap="round" stroke-linejoin="round" stroke-width="2"><path fill="#000" fill-rule="evenodd" stroke="none" d="M11.601 1.064a1.46 1.46 0 0 0-.945.794c-.051.111-.454 1.606-.896 3.322-.443 1.716-.841 3.196-.885 3.289a.94.94 0 0 1-.464.437c-.071.03-1.529.415-3.24.857s-3.189.837-3.284.879a1.48 1.48 0 0 0-.813.928 1.48 1.48 0 0 0 .784 1.774c.111.051 1.606.454 3.322.896s3.196.841 3.289.885a.93.93 0 0 1 .435.46c.029.068.414 1.526.856 3.24.442 1.713.845 3.207.897 3.32.303.661 1.07 1 1.769.782.435-.136.756-.416.932-.813.044-.099.441-1.58.882-3.292.442-1.711.827-3.168.855-3.237a.93.93 0 0 1 .436-.46c.093-.045 1.573-.442 3.289-.884 2.133-.548 3.197-.84 3.365-.922.293-.142.543-.401.689-.712.091-.196.106-.279.106-.607s-.015-.411-.106-.607a1.5 1.5 0 0 0-.689-.712c-.166-.08-1.249-.377-3.352-.918-1.709-.44-3.167-.825-3.24-.855a.94.94 0 0 1-.468-.439c-.044-.093-.443-1.573-.885-3.289s-.845-3.211-.896-3.322a1.45 1.45 0 0 0-.963-.796 1.35 1.35 0 0 0-.78.002m8.094.993a1.04 1.04 0 0 0-.567.459c-.103.176-.109.212-.121.834l-.014.65h-.55c-.795 0-1.077.111-1.315.516-.091.156-.108.23-.108.484 0 .256.016.328.111.489.125.213.318.375.539.454.098.035.352.054.737.055l.586.002.014.653c.013.647.014.655.134.85a.998.998 0 0 0 1.718 0c.12-.195.121-.203.134-.85L21.007 6l.586-.002c.385-.001.639-.02.737-.055.221-.079.414-.241.539-.454.095-.161.111-.233.111-.489 0-.254-.017-.328-.108-.484-.238-.405-.52-.516-1.315-.516h-.55l-.014-.65c-.012-.622-.018-.658-.121-.834a1.005 1.005 0 0 0-1.177-.459M12.557 6.67c.292 1.139.583 2.212.647 2.387a2.97 2.97 0 0 0 1.739 1.739c.175.063 1.244.353 2.377.644s2.077.539 2.097.551-.916.268-2.08.568c-2.427.626-2.339.6-2.741.807a2.88 2.88 0 0 0-1.392 1.579c-.063.173-.354 1.247-.647 2.385s-.544 2.07-.558 2.07-.265-.932-.557-2.07-.583-2.212-.646-2.385a2.88 2.88 0 0 0-1.392-1.579c-.401-.206-.312-.18-2.744-.809-1.166-.302-2.093-.56-2.06-.573s1-.267 2.149-.563 2.225-.592 2.391-.658a2.96 2.96 0 0 0 1.656-1.706c.063-.175.354-1.248.647-2.387.293-1.138.544-2.07.558-2.07s.264.932.556 2.07m-8.862 9.387a1.01 1.01 0 0 0-.677.768c-.026.16-.032.165-.237.211a1.04 1.04 0 0 0-.652.478c-.093.158-.109.231-.109.489 0 .268.014.326.121.5.146.237.436.443.676.479.171.025.176.03.201.201.036.24.242.53.479.676.174.107.232.121.503.121s.329-.014.503-.121c.237-.146.443-.436.479-.676.025-.171.03-.176.201-.201.24-.036.53-.242.676-.479.107-.174.121-.232.121-.5 0-.258-.016-.331-.109-.489a1.04 1.04 0 0 0-.652-.478c-.205-.046-.211-.051-.237-.211a1 1 0 0 0-.692-.77.9.9 0 0 0-.595.002"/></svg>