<svg xmlns="http://www.w3.org/2000/svg" width="24" height="24" fill="none" stroke="currentColor" stroke-linecap="round" stroke-linejoin="round" stroke-width="2"><path fill="#000" fill-rule="evenodd" stroke="none" d="M5.499 1.043c-1.119.19-2.038 1.005-2.385 2.117l-.094.3v17.08l.094.3a3.09 3.09 0 0 0 2.046 2.046l.3.094h13.08l.3-.094a3.09 3.09 0 0 0 2.046-2.046l.094-.3V3.46l-.094-.3a3.09 3.09 0 0 0-2.025-2.039l-.321-.101-6.42-.006c-3.531-.003-6.511.01-6.621.029M18.31 3.061c.279.083.546.35.629.629.054.18.061 1.17.061 8.311 0 6.753-.009 8.137-.055 8.289a1.02 1.02 0 0 1-.461.582l-.184.108H5.7l-.184-.108a1.2 1.2 0 0 1-.291-.249c-.24-.315-.225.265-.225-8.601 0-9.134-.026-8.39.304-8.719.319-.32-.184-.297 6.679-.3 5.37-.003 6.148.004 6.327.058m-6.615 1.994a1.05 1.05 0 0 0-.567.461c-.091.156-.108.23-.108.484 0 .257.016.327.113.492.518.882 1.865.526 1.865-.492a.99.99 0 0 0-.535-.888 1.17 1.17 0 0 0-.768-.057M11.4 9.044c-1.639.185-3.139 1.246-3.874 2.741-.368.748-.506 1.351-.506 2.215 0 .67.058 1.044.248 1.6.578 1.691 1.985 2.925 3.772 3.307.471.101 1.449.101 1.92 0 1.528-.327 2.788-1.277 3.473-2.619.405-.794.547-1.389.547-2.288s-.142-1.494-.547-2.287a5.02 5.02 0 0 0-3.193-2.551 5.2 5.2 0 0 0-1.84-.118m1.461 2.085c.943.276 1.723 1.054 2.014 2.01.083.273.098.403.098.861s-.015.588-.098.861a3.07 3.07 0 0 1-2.035 2.025c-.434.135-1.246.135-1.68 0a3.07 3.07 0 0 1-2.035-2.025c-.083-.273-.098-.403-.098-.861s.015-.588.098-.861a3.04 3.04 0 0 1 2.374-2.099c.333-.06 1.001-.017 1.362.089m-1.166 1.926a1.05 1.05 0 0 0-.567.461c-.091.156-.108.23-.108.484 0 .257.016.327.113.492.518.882 1.865.526 1.865-.492a.99.99 0 0 0-.535-.888 1.17 1.17 0 0 0-.768-.057"/></svg>