<svg xmlns="http://www.w3.org/2000/svg" width="24" height="24" fill="none" stroke="currentColor" stroke-linecap="round" stroke-linejoin="round" stroke-width="2"><path fill="#000" fill-rule="evenodd" stroke="none" d="M6.828 1.88a6.44 6.44 0 0 0-5.591 4.68c-.213.772-.283 1.715-.2 2.732.08.99.22 1.618.55 2.463.454 1.163.573 1.678.573 2.477 0 .629-.017.718-.66 3.488-.558 2.4-.563 2.438-.362 2.781.413.705 1.493.632 1.783-.121.066-.173 1.109-4.689 1.187-5.14.094-.55.084-1.527-.022-2.12-.106-.595-.232-1.023-.548-1.861-.428-1.135-.509-1.575-.515-2.779-.003-.78.044-1.128.225-1.658.452-1.32 1.605-2.41 2.96-2.798a4.47 4.47 0 0 1 2.998.2c1.337.582 2.327 1.832 2.575 3.251.049.276.059.896.059 3.5l-.001 3.165-.096.207c-.194.417-.644.733-1.043.732-.11 0-.524-.036-.92-.079-1.2-.131-1.406-.104-1.704.228-.287.318-.28.244-.267 2.795l.011 2.283.121.197a.998.998 0 0 0 1.718 0l.121-.197.012-1.645.011-1.646.447.048c.3.032.543.035.741.011 1.309-.163 2.4-1.112 2.775-2.415.091-.318.092-.331.105-3.279.016-3.769-.007-4.109-.351-5.145a6.42 6.42 0 0 0-4.376-4.154 7.2 7.2 0 0 0-2.316-.201m12.645 4.374c-.507.189-.784.752-.617 1.254.045.134.157.299.35.515 1.091 1.219 1.616 2.403 1.755 3.962.1 1.111-.134 2.363-.624 3.343-.312.624-.572 1.005-1.064 1.561-.412.465-.451.543-.452.911-.001.258.015.327.112.492a.99.99 0 0 0 .979.495c.271-.028.502-.164.763-.449 1.017-1.113 1.683-2.322 2.048-3.718a8.5 8.5 0 0 0-1.443-7.238c-.383-.507-.776-.925-.985-1.047-.217-.127-.599-.165-.822-.081m-2.949 2.891A.99.99 0 0 0 16 10.219c.057.254.094.319.35.601.458.507.652 1.013.652 1.7 0 .683-.18 1.166-.622 1.673-.275.315-.341.441-.368.702a.99.99 0 0 0 .496.972c.165.097.235.113.492.113.385 0 .573-.104.918-.508.815-.957 1.207-2.186 1.079-3.383a4.54 4.54 0 0 0-.868-2.249c-.24-.321-.575-.647-.744-.723a1.06 1.06 0 0 0-.861.028"/></svg>