<svg xmlns="http://www.w3.org/2000/svg" width="24" height="24" fill="none" stroke="currentColor" stroke-linecap="round" stroke-linejoin="round" stroke-width="2"><path fill="#000" fill-rule="evenodd" stroke="none" d="M11.643 3.069c-.383.135-.269-.073-3.558 6.514-2.559 5.125-3.058 6.152-3.075 6.323-.042.441.241.888.65 1.028a.95.95 0 0 0 .68 0c.368-.125.441-.238 1.4-2.166L8.619 13h6.762l.879 1.768c.959 1.928 1.032 2.041 1.4 2.166a.95.95 0 0 0 .68 0c.409-.14.692-.587.65-1.028-.017-.171-.516-1.198-3.075-6.323-3.342-6.694-3.177-6.395-3.599-6.52-.259-.077-.442-.076-.673.006M13.19 8.62c.644 1.287 1.17 2.349 1.17 2.36S13.298 11 12 11s-2.36-.009-2.36-.02c0-.039 2.34-4.7 2.36-4.7.011 0 .547 1.053 1.19 2.34M5.746 19.062c-.457.091-.771.259-1.318.707-.127.105-.271.198-.32.207-.45.087-.555.121-.703.229a1.3 1.3 0 0 0-.276.309c-.093.158-.109.231-.109.486 0 .257.016.327.113.492.13.222.369.409.603.473.196.053.683.021.955-.063q.435-.134.832-.452c.479-.382.596-.45.773-.45.182 0 .264.046.564.314.285.254.555.419.9.547.264.099.357.113.78.116.684.004 1.085-.129 1.582-.526.713-.569.755-.575 1.264-.169.443.354.621.46.985.589.245.086.362.102.769.105.684.006 1.085-.127 1.582-.525.713-.569.755-.575 1.264-.169.443.354.621.46.985.589.245.086.362.102.769.105.684.006 1.085-.127 1.582-.525.493-.394.594-.451.793-.451.359-.001.765-.277.907-.618a1.18 1.18 0 0 0 0-.764 1.03 1.03 0 0 0-.859-.607c-.298-.027-.834.078-1.148.226-.265.123-.398.213-.787.532-.4.328-.539.314-1.071-.112-.735-.588-1.349-.757-2.18-.598-.489.094-.79.252-1.349.71-.4.328-.539.314-1.071-.112-.735-.588-1.349-.757-2.18-.598-.489.094-.79.252-1.349.71-.378.31-.547.306-.924-.022-.489-.426-.78-.582-1.281-.685a2.6 2.6 0 0 0-1.077 0"/></svg>