<svg xmlns="http://www.w3.org/2000/svg" width="24" height="24" fill="none" stroke="currentColor" stroke-linecap="round" stroke-linejoin="round" stroke-width="2"><path fill="#000" fill-rule="evenodd" stroke="none" d="M11.643 3.069c-.383.135-.269-.073-3.558 6.514-2.559 5.125-3.058 6.152-3.075 6.323-.042.441.241.888.65 1.028a.95.95 0 0 0 .68 0c.368-.125.441-.238 1.4-2.166L8.619 13h6.762l.879 1.768c.959 1.928 1.032 2.041 1.4 2.166a.95.95 0 0 0 .68 0c.409-.14.692-.587.65-1.028-.017-.171-.516-1.198-3.075-6.323-3.342-6.694-3.177-6.395-3.599-6.52-.259-.077-.442-.076-.673.006M13.19 8.62c.644 1.287 1.17 2.349 1.17 2.36S13.298 11 12 11s-2.36-.009-2.36-.02c0-.039 2.34-4.7 2.36-4.7.011 0 .547 1.053 1.19 2.34m8.45 8.448c-.152.053-.444.326-1.909 1.785l-1.729 1.722-.731-.72c-.616-.608-.762-.732-.928-.788a1 1 0 0 0-1.215.449c-.092.156-.108.229-.107.484 0 .213.022.341.074.44.102.193 2.202 2.3 2.425 2.433.153.091.225.107.48.106.212 0 .341-.022.44-.074.192-.1 4.299-4.2 4.433-4.425.091-.152.107-.226.107-.48s-.017-.328-.108-.484a1.016 1.016 0 0 0-1.232-.448"/></svg>