<svg xmlns="http://www.w3.org/2000/svg" width="24" height="24" fill="none" stroke="currentColor" stroke-linecap="round" stroke-linejoin="round" stroke-width="2"><path fill="#000" fill-rule="evenodd" stroke="none" d="M18.499 2.04a3.04 3.04 0 0 0-2.191 1.644l-.168.343-.48.049c-2.917.301-5.573 1.541-7.709 3.599C5.85 9.7 4.488 12.419 4.099 15.367a8 8 0 0 0-.061.61l-.001.163-.349.17a3.06 3.06 0 0 0-1.574 1.85c-.135.434-.135 1.246 0 1.68a3.09 3.09 0 0 0 2.046 2.046c.252.078.387.093.84.093s.588-.015.84-.093a3.09 3.09 0 0 0 2.046-2.046c.135-.434.135-1.246 0-1.68a3.08 3.08 0 0 0-1.523-1.826l-.319-.163c-.03-.018.084-.873.182-1.364a11 11 0 0 1 2.005-4.444c.454-.607 1.525-1.678 2.132-2.132a11 11 0 0 1 4.444-2.005c.491-.098 1.346-.212 1.364-.182l.159.316c.354.71 1.037 1.279 1.83 1.526.434.135 1.246.135 1.68 0a3.09 3.09 0 0 0 2.046-2.046c.135-.434.135-1.246 0-1.68-.305-.981-1.076-1.753-2.025-2.031-.361-.106-1.029-.149-1.362-.089m.811 2.021c.378.112.69.537.69.94 0 .33-.216.695-.516.871-.156.091-.23.108-.484.108s-.328-.017-.484-.108c-.581-.342-.683-1.098-.212-1.569q.417-.418 1.006-.242m-14 14c.378.112.69.537.69.94 0 .33-.216.695-.516.871-.156.091-.23.108-.484.108s-.328-.017-.484-.108c-.581-.342-.683-1.098-.212-1.569q.417-.418 1.006-.242"/></svg>