<svg xmlns="http://www.w3.org/2000/svg" width="24" height="24" fill="none" stroke="currentColor" stroke-linecap="round" stroke-linejoin="round" stroke-width="2"><path fill="#000" fill-rule="evenodd" stroke="none" d="M2.58 2.094c-.237.11-.425.311-.516.552-.06.157-.066.443-.055 2.917l.011 2.743.121.197a.998.998 0 0 0 1.718 0l.121-.197L4 6.873l.02-1.434L7.204 8.63c1.751 1.754 3.223 3.247 3.271 3.317.14.206.353.659.43.915.066.22.073.578.093 4.841l.022 4.603.121.197a.998.998 0 0 0 1.718 0l.121-.197.012-4.503c.013-5.01.018-4.893-.256-5.718a4.9 4.9 0 0 0-.71-1.384c-.153-.209-1.344-1.431-3.42-3.511L5.422 4l1.379-.002c1.483-.002 1.549-.009 1.818-.215.077-.058.189-.191.25-.294.095-.161.111-.233.111-.489 0-.254-.017-.328-.108-.484a1.2 1.2 0 0 0-.254-.295C8.327 1.999 8.334 2 5.444 2l-2.664.001zm13.115-.037a1.04 1.04 0 0 0-.567.459c-.091.156-.108.23-.108.484 0 .256.016.328.111.489.061.103.173.236.25.294.269.206.335.213 1.819.215L18.579 4l-2.205 2.21c-1.213 1.215-2.236 2.271-2.273 2.345-.229.455-.045 1.046.407 1.312.165.097.234.113.492.112.212 0 .341-.022.44-.074.077-.04 1.134-1.065 2.348-2.277l2.208-2.203.012 1.441.012 1.44.121.197a.998.998 0 0 0 1.718 0l.121-.197.011-2.743c.011-2.474.005-2.76-.055-2.917a1 1 0 0 0-.516-.552l-.2-.093-2.68.002c-2.074.002-2.717.014-2.845.054"/></svg>