<svg xmlns="http://www.w3.org/2000/svg" width="24" height="24" fill="none" stroke="currentColor" stroke-linecap="round" stroke-linejoin="round" stroke-width="2"><path fill="#000" fill-rule="evenodd" stroke="none" d="M2.695 2.055a1.05 1.05 0 0 0-.567.461c-.091.156-.108.23-.108.484 0 .257.016.327.113.492.518.882 1.865.526 1.865-.492a.99.99 0 0 0-.535-.888 1.17 1.17 0 0 0-.768-.057m4 2a1.05 1.05 0 0 0-.567.461c-.091.156-.108.23-.108.484 0 .257.016.327.113.492.518.882 1.865.526 1.865-.492a.99.99 0 0 0-.535-.888 1.17 1.17 0 0 0-.768-.057m8 .002a1.04 1.04 0 0 0-.567.459l-.108.184-.011 1.939-.012 1.939-.932.941c-.805.813-.941.968-.999 1.138-.06.18-.066.658-.065 5.4 0 5.662-.008 5.456.224 5.913.135.267.538.67.805.805.444.225.426.224 3.99.222 2.968-.001 3.305-.008 3.543-.07a1.93 1.93 0 0 0 1.172-.901c.276-.46.265-.208.265-5.977 0-4.733-.006-5.212-.066-5.392-.058-.17-.194-.325-.999-1.138l-.932-.941-.012-1.939L19.98 4.7l-.108-.184a1.02 1.02 0 0 0-.582-.461c-.257-.077-4.347-.076-4.595.002m-12 1.998a1.05 1.05 0 0 0-.567.461c-.091.156-.108.23-.108.484 0 .257.016.327.113.492.518.882 1.865.526 1.865-.492a.99.99 0 0 0-.535-.888 1.17 1.17 0 0 0-.768-.057m8 0a1.05 1.05 0 0 0-.567.461c-.091.156-.108.23-.108.484 0 .257.016.327.113.492.518.882 1.865.526 1.865-.492a.99.99 0 0 0-.535-.888 1.17 1.17 0 0 0-.768-.057M18 7v1h-2V6h2zM6.695 8.055a1.05 1.05 0 0 0-.567.461c-.091.156-.108.23-.108.484 0 .257.016.327.113.492.518.882 1.865.526 1.865-.492a.99.99 0 0 0-.535-.888 1.17 1.17 0 0 0-.768-.057m-4 2a1.05 1.05 0 0 0-.567.461c-.091.156-.108.23-.108.484 0 .257.016.327.113.492.518.882 1.865.526 1.865-.492a.99.99 0 0 0-.535-.888 1.17 1.17 0 0 0-.768-.057m16.515.575.63.631-2.87.716c-1.579.393-2.892.724-2.92.734-.039.013-.05-.13-.05-.636v-.654l.71-.711.709-.71h3.162zm.79 4.12v1.471l-2.95.736c-1.622.404-2.972.744-3 .754-.039.014-.05-.294-.05-1.457v-1.475l2.97-.746a641 641 0 0 1 3-.749c.017-.002.03.658.03 1.466m0 4.89V21h-6v-1.221l2.97-.746a641 641 0 0 1 3-.749c.017-.002.03.608.03 1.356"/></svg>