<svg xmlns="http://www.w3.org/2000/svg" width="24" height="24" fill="none" stroke="currentColor" stroke-linecap="round" stroke-linejoin="round" stroke-width="2"><path fill="#000" fill-rule="evenodd" stroke="none" d="M18.323 3.042c-1.994.189-3.404.781-4.584 1.924-.296.287-.507.531-.611.706a7.9 7.9 0 0 0-1.113 3.601c-.02.367-.043.475-.164.767-.078.187-.145.344-.149.35a3 3 0 0 1-.222-.3c-.325-.471-.732-.942-1.05-1.216-1.498-1.289-3.517-1.718-6.2-1.317-.302.045-.583.111-.69.163-.318.154-.54.523-.54.897 0 .19.304 1.09.575 1.705.645 1.461 1.598 2.59 2.733 3.24a6.4 6.4 0 0 0 2.306.76c.494.061 1.714.03 2.326-.061.242-.035.474-.068.517-.073.067-.007.085.044.148.432.335 2.041.229 2.73-.537 3.506-.233.235-.738.59-1.097.77L9.763 19H8.328c-1.56 0-1.673.013-1.946.221-.08.061-.195.194-.254.295-.091.156-.108.23-.108.484 0 .256.016.328.111.489.125.213.318.375.539.454s10.438.079 10.66 0 .414-.241.539-.454c.095-.161.111-.233.111-.489 0-.254-.017-.328-.108-.484a1.2 1.2 0 0 0-.254-.295c-.284-.217-.334-.221-2.585-.221h-2.074l.143-.208c.335-.488.572-1.15.66-1.849.065-.518.03-1.257-.101-2.123-.236-1.553-.268-1.848-.27-2.42-.002-.46.014-.646.08-.9.091-.354.156-.54.188-.54.077 0 .894-.132 1.141-.185 1.417-.301 2.705-.933 3.374-1.655 1.101-1.19 1.69-2.743 1.809-4.772.031-.523-.007-.708-.194-.954-.264-.346-.623-.432-1.466-.352M17.88 5.17c-.001.126-.203.918-.298 1.17a4.4 4.4 0 0 1-.831 1.372c-.438.482-1.419.925-2.541 1.149-.16.031-.163.003-.053-.47.112-.478.26-.87.516-1.366.193-.374.266-.472.519-.7.647-.583 1.371-.942 2.307-1.146.313-.068.381-.07.381-.009M6.7 9.441c1.683.158 2.723.89 3.543 2.492.097.188.162.355.146.371-.053.053-1.239.068-1.604.019-.922-.123-1.794-.574-2.388-1.236a7 7 0 0 1-.444-.585c-.229-.341-.553-.938-.553-1.018 0-.086.625-.106 1.3-.043"/></svg>