<svg xmlns="http://www.w3.org/2000/svg" width="24" height="24" fill="none" stroke="currentColor" stroke-linecap="round" stroke-linejoin="round" stroke-width="2"><path fill="#000" fill-rule="evenodd" stroke="none" d="M4.499 2.043C3.38 2.232 2.461 3.048 2.114 4.16l-.094.3v15.08l.094.3a3.09 3.09 0 0 0 2.046 2.046l.3.094h15.08l.3-.094a3.09 3.09 0 0 0 2.046-2.046l.094-.3V4.46l-.094-.3a3.09 3.09 0 0 0-2.025-2.039l-.321-.101-7.42-.006c-4.081-.003-7.511.01-7.621.029M19.31 4.061c.279.083.546.35.629.629.054.18.061 1.065.061 7.311 0 5.906-.009 7.137-.055 7.289a1.02 1.02 0 0 1-.461.582l-.184.108H4.7l-.184-.108a1.2 1.2 0 0 1-.291-.249c-.239-.314-.225.172-.225-7.601 0-6.264.007-7.152.061-7.332.079-.269.351-.547.612-.627.291-.089 14.336-.092 14.637-.002M8.695 6.057a1.04 1.04 0 0 0-.567.459L8.02 6.7v10.606l.121.197a.998.998 0 0 0 1.718 0l.121-.197.012-1.653.011-1.653h1.682c1.521 0 1.72-.008 2.072-.079 1.36-.278 2.436-1.166 2.947-2.433a3.96 3.96 0 0 0 .001-2.972 3.98 3.98 0 0 0-3.1-2.458c-.528-.079-4.657-.08-4.91-.001m4.828 2.016a2.01 2.01 0 0 1 1.27 2.807c-.155.318-.566.745-.863.895-.423.215-.531.225-2.298.225H10V8l1.63.002c1.407.002 1.666.012 1.893.071"/></svg>