<svg xmlns="http://www.w3.org/2000/svg" width="24" height="24" fill="none" stroke="currentColor" stroke-linecap="round" stroke-linejoin="round" stroke-width="2"><path fill="#000" fill-rule="evenodd" stroke="none" d="M4.499 2.043C3.382 2.23 2.454 3.054 2.115 4.16c-.07.23-.092.399-.093.723-.002.402.004.432.119.62.396.644 1.316.653 1.708.017.078-.128.122-.271.15-.489.049-.386.112-.54.302-.73s.344-.253.727-.302c.364-.046.603-.172.774-.408a.99.99 0 0 0-.512-1.536c-.2-.06-.479-.064-.791-.012m4.196.014a1.04 1.04 0 0 0-.567.459c-.091.156-.108.23-.108.484 0 .256.016.328.111.489.125.213.318.375.539.454.208.074 1.452.074 1.66 0 .221-.079.414-.241.539-.454.095-.161.111-.233.111-.489 0-.254-.017-.328-.108-.484a1.02 1.02 0 0 0-.582-.461c-.24-.072-1.362-.071-1.595.002m5 0a1.04 1.04 0 0 0-.567.459c-.091.156-.108.23-.108.484 0 .256.016.328.111.489.125.213.318.375.539.454.208.074 1.452.074 1.66 0 .221-.079.414-.241.539-.454.095-.161.111-.233.111-.489 0-.254-.017-.328-.108-.484a1.02 1.02 0 0 0-.582-.461c-.24-.072-1.362-.071-1.595.002m5-.003a.997.997 0 0 0-.497 1.537c.171.236.41.362.774.408.383.049.537.113.727.302.19.19.253.344.302.73.048.379.183.616.451.797.471.316 1.102.17 1.407-.325.115-.188.121-.218.119-.62-.001-.324-.023-.493-.093-.723-.299-.976-1.076-1.756-2.022-2.03-.4-.115-.941-.151-1.168-.076m-16 6.003a1.04 1.04 0 0 0-.567.459c-.108.183-.108.187-.108.987v.803l.121.197a.998.998 0 0 0 1.718 0l.121-.197v-.803c0-.8 0-.804-.108-.987a1.005 1.005 0 0 0-1.177-.459m18 0a1.04 1.04 0 0 0-.567.459l-.108.184v2.606l.121.197a.998.998 0 0 0 1.718 0l.121-.197V8.7l-.108-.184a1.005 1.005 0 0 0-1.177-.459m-8.545 2.986a1.5 1.5 0 0 0-1.14 1.537c.017.253.188.717 1.808 4.88.984 2.53 1.836 4.687 1.894 4.794.215.396.687.694 1.163.734.597.05 1.198-.282 1.451-.803.044-.091.327-.957.628-1.925l.547-1.759 1.759-.547c.968-.301 1.834-.584 1.925-.628.47-.228.815-.789.815-1.326 0-.525-.336-1.084-.791-1.315-.272-.138-9.145-3.577-9.369-3.631a1.46 1.46 0 0 0-.69-.011m-9.455 2.014a1.04 1.04 0 0 0-.567.459c-.108.183-.108.187-.108.987v.803l.121.197a.998.998 0 0 0 1.718 0l.121-.197v-.803c0-.8 0-.804-.108-.987a1.005 1.005 0 0 0-1.177-.459m14.054 1.633c1.764.685 3.203 1.252 3.196 1.258s-.502.166-1.102.353c-.599.187-1.176.385-1.282.439-.32.162-.662.509-.82.834-.077.157-.284.752-.46 1.322a35 35 0 0 1-.332 1.048c-.009.01-2.291-5.826-2.534-6.481-.024-.064-.016-.072.048-.048.042.015 1.521.589 3.286 1.275M2.695 18.057a1.04 1.04 0 0 0-.567.459c-.099.169-.108.218-.106.604.001.32.023.491.093.72a3.08 3.08 0 0 0 2.022 2.037c.344.105.903.149 1.127.088.234-.064.473-.251.603-.473.097-.165.113-.235.113-.492 0-.254-.017-.328-.108-.484a1.1 1.1 0 0 0-.497-.438 2.6 2.6 0 0 0-.409-.08c-.343-.043-.579-.163-.74-.373-.145-.191-.189-.316-.229-.659-.055-.478-.296-.787-.707-.911a.9.9 0 0 0-.595.002m6 2a1.04 1.04 0 0 0-.567.459c-.091.156-.108.23-.108.484 0 .256.016.328.111.489.125.213.318.375.539.454.215.077 2.445.077 2.66 0 .221-.079.414-.241.539-.454.095-.161.111-.233.111-.489 0-.254-.017-.328-.108-.484a1.02 1.02 0 0 0-.582-.461c-.251-.076-2.353-.074-2.595.002"/></svg>