<svg xmlns="http://www.w3.org/2000/svg" width="24" height="24" fill="none" stroke="currentColor" stroke-linecap="round" stroke-linejoin="round" stroke-width="2"><path fill="#000" fill-rule="evenodd" stroke="none" d="M4.499 2.043C3.38 2.232 2.461 3.048 2.114 4.16l-.094.3v15.08l.094.3c.304.976 1.036 1.715 2.026 2.046l.28.093 3.35.012c2.22.008 3.402-.002 3.504-.029.224-.061.465-.251.593-.47.097-.165.113-.235.113-.492 0-.254-.017-.328-.108-.484a1.15 1.15 0 0 0-.499-.446c-.086-.038-.89-.055-3.393-.07l-3.28-.02-.184-.108a1.2 1.2 0 0 1-.291-.249c-.239-.314-.225.172-.225-7.601 0-8.016-.025-7.391.303-7.719C4.631 3.976 4.009 4 12 4c7.938 0 7.365-.021 7.679.283.32.311.299.061.321 3.74l.02 3.283.121.197a.998.998 0 0 0 1.718 0l.121-.197V4.46l-.094-.3a3.09 3.09 0 0 0-2.025-2.039l-.321-.101-7.42-.006c-4.081-.003-7.511.01-7.621.029m7.651 9a1.5 1.5 0 0 0-1.14 1.537c.017.253.188.717 1.808 4.88.984 2.53 1.836 4.687 1.894 4.794.215.396.687.694 1.163.734.597.05 1.198-.282 1.451-.803.044-.091.327-.957.628-1.925l.547-1.759 1.759-.547c.968-.301 1.834-.584 1.925-.628.47-.228.815-.789.815-1.326 0-.525-.336-1.084-.791-1.315-.272-.138-9.145-3.577-9.369-3.631a1.46 1.46 0 0 0-.69-.011m4.599 3.647c1.764.685 3.203 1.252 3.196 1.258s-.502.166-1.102.353c-.599.187-1.176.385-1.282.439-.32.162-.662.509-.82.834-.077.157-.284.752-.46 1.322a35 35 0 0 1-.332 1.048c-.009.01-2.291-5.826-2.534-6.481-.024-.064-.016-.072.048-.048.042.015 1.521.589 3.286 1.275"/></svg>