<svg xmlns="http://www.w3.org/2000/svg" width="24" height="24" fill="none" stroke="currentColor" stroke-linecap="round" stroke-linejoin="round" stroke-width="2"><path fill="#000" fill-rule="evenodd" stroke="none" d="M4.499 2.043C3.38 2.232 2.461 3.048 2.114 4.16l-.094.3v15.08l.094.3a3.09 3.09 0 0 0 2.046 2.046l.3.094h15.08l.3-.094a3.09 3.09 0 0 0 2.046-2.046l.094-.3V4.46l-.094-.3a3.09 3.09 0 0 0-2.025-2.039l-.321-.101-7.42-.006c-4.081-.003-7.511.01-7.621.029M19.31 4.061c.279.083.546.35.629.629.054.18.061 1.065.061 7.311 0 5.906-.009 7.137-.055 7.289a1.02 1.02 0 0 1-.461.582l-.184.108H4.7l-.184-.108a1.2 1.2 0 0 1-.291-.249c-.239-.314-.225.172-.225-7.601 0-6.264.007-7.152.061-7.332.079-.269.351-.547.612-.627.291-.089 14.336-.092 14.637-.002M8.477 7.073c-.671.176-1.239.75-1.417 1.435C7.009 8.702 7 9.237 7 12c0 3.547-.004 3.478.225 3.93.136.269.576.709.845.845.452.229.384.225 3.923.225 3.546 0 3.486.003 3.944-.229.26-.132.702-.574.834-.834.232-.458.229-.4.228-3.923 0-3.499 0-3.503-.218-3.931-.135-.267-.484-.634-.764-.802-.469-.282-.381-.276-4.017-.276-2.953 0-3.285.006-3.523.068M15 12v3H9V9h6z"/></svg>