<svg xmlns="http://www.w3.org/2000/svg" width="24" height="24" fill="none" stroke="currentColor" stroke-linecap="round" stroke-linejoin="round" stroke-width="2"><path fill="#000" fill-rule="evenodd" stroke="none" d="M4.499 2.043C3.38 2.232 2.461 3.048 2.114 4.16l-.094.3v15.08l.094.3a3.09 3.09 0 0 0 2.046 2.046l.3.094h15.08l.3-.094a3.09 3.09 0 0 0 2.046-2.046l.094-.3V4.46l-.094-.3a3.09 3.09 0 0 0-2.025-2.039l-.321-.101-7.42-.006c-4.081-.003-7.511.01-7.621.029M19.31 4.061c.279.083.546.35.629.629.054.18.061 1.065.061 7.311 0 5.906-.009 7.137-.055 7.289a1.02 1.02 0 0 1-.461.582l-.184.108H4.7l-.184-.108a1.2 1.2 0 0 1-.291-.249c-.239-.314-.225.172-.225-7.601 0-6.264.007-7.152.061-7.332.079-.269.351-.547.612-.627.291-.089 14.336-.092 14.637-.002M6.695 6.057a1.04 1.04 0 0 0-.567.459L6.02 6.7v10.606l.121.197a.998.998 0 0 0 1.718 0l.121-.197V6.7l-.108-.184a1.005 1.005 0 0 0-1.177-.459m4 0a1.04 1.04 0 0 0-.567.459l-.108.184v10.606l.121.197a.998.998 0 0 0 1.718 0l.121-.197V6.7l-.108-.184a1.005 1.005 0 0 0-1.177-.459m3.969.006a1 1 0 0 0-.65.803c-.018.155.18 1.207.984 5.234.553 2.772 1.032 5.119 1.063 5.215a.987.987 0 0 0 1.639.387c.175-.174.3-.459.3-.68 0-.247-2.036-10.309-2.122-10.487-.204-.421-.762-.638-1.214-.472"/></svg>