<svg xmlns="http://www.w3.org/2000/svg" width="24" height="24" fill="none" stroke="currentColor" stroke-linecap="round" stroke-linejoin="round" stroke-width="2"><path fill="#000" fill-rule="evenodd" stroke="none" d="M4.499 2.043C3.38 2.232 2.461 3.048 2.114 4.16l-.094.3v15.08l.094.3a3.09 3.09 0 0 0 2.046 2.046l.3.094h15.08l.3-.094a3.09 3.09 0 0 0 2.046-2.046l.094-.3V4.46l-.094-.3a3.09 3.09 0 0 0-2.025-2.039l-.321-.101-7.42-.006c-4.081-.003-7.511.01-7.621.029M19.31 4.061c.279.083.546.35.629.629.054.18.061 1.065.061 7.311 0 5.906-.009 7.137-.055 7.289a1.02 1.02 0 0 1-.461.582l-.184.108H4.7l-.184-.108a1.2 1.2 0 0 1-.291-.249c-.239-.314-.225.172-.225-7.601 0-6.264.007-7.152.061-7.332.079-.269.351-.547.612-.627.291-.089 14.336-.092 14.637-.002m-7.615 1.996a1.04 1.04 0 0 0-.567.459l-.108.184v4.606l.121.197c.068.11.205.253.311.325.471.316 1.102.171 1.407-.325l.121-.197V6.7l-.108-.184a1.005 1.005 0 0 0-1.177-.459m-4 2c-.251.079-.421.231-.664.593a6.05 6.05 0 0 0-.971 2.53c-.217 1.454.176 3.053 1.055 4.3.248.352.919 1.038 1.281 1.311A6.1 6.1 0 0 0 12 17.999c.415 0 1.07-.076 1.38-.16.842-.229 1.442-.5 2.085-.945.397-.274 1.232-1.128 1.501-1.534 1.229-1.857 1.365-4.121.367-6.096-.247-.49-.601-.978-.801-1.105-.607-.385-1.434.002-1.518.71-.036.304.007.452.234.798.445.679.646 1.202.722 1.883a4.04 4.04 0 0 1-.825 2.914 4 4 0 0 1-3.835 1.477 4.03 4.03 0 0 1-3.176-2.921c-.094-.354-.107-.473-.107-1.04.001-.524.016-.695.084-.946a4.3 4.3 0 0 1 .565-1.245c.297-.459.359-.663.293-.976-.126-.599-.696-.937-1.274-.756"/></svg>