<svg xmlns="http://www.w3.org/2000/svg" width="24" height="24" fill="none" stroke="currentColor" stroke-linecap="round" stroke-linejoin="round" stroke-width="2"><path fill="#000" fill-rule="evenodd" stroke="none" d="M4.499 2.043C3.38 2.232 2.461 3.048 2.114 4.16l-.094.3v15.08l.094.3a3.09 3.09 0 0 0 2.046 2.046l.3.094h15.08l.3-.094a3.09 3.09 0 0 0 2.046-2.046l.094-.3V4.46l-.094-.3a3.09 3.09 0 0 0-2.025-2.039l-.321-.101-7.42-.006c-4.081-.003-7.511.01-7.621.029M19.31 4.061c.279.083.546.35.629.629.054.18.061 1.065.061 7.311 0 5.906-.009 7.137-.055 7.289a1.02 1.02 0 0 1-.461.582l-.184.108H4.7l-.184-.108a1.2 1.2 0 0 1-.291-.249c-.239-.314-.225.172-.225-7.601 0-6.264.007-7.152.061-7.332.079-.269.351-.547.612-.627.291-.089 14.336-.092 14.637-.002M9.641 8.565a1.2 1.2 0 0 0-.232.141c-.142.108-2.155 2.598-2.302 2.847-.124.209-.124.685 0 .894.103.175 2.12 2.695 2.258 2.821.232.213.7.289.998.163.2-.085.426-.294.528-.487.103-.199.119-.613.03-.824-.032-.077-.415-.585-.85-1.13L9.28 12l.791-.99c.435-.544.818-1.053.85-1.13.089-.211.073-.625-.03-.824-.1-.19-.328-.402-.517-.481-.15-.063-.586-.069-.733-.01m3.976.01c-.475.214-.732.792-.557 1.251.045.117.367.556.866 1.18l.794.994-.794.994c-.499.624-.821 1.063-.866 1.18-.177.463.086 1.049.56 1.25.315.133.777.062 1.015-.156.138-.126 2.155-2.646 2.258-2.821.135-.229.124-.686-.022-.927-.215-.355-2.168-2.737-2.344-2.859-.151-.105-.213-.122-.48-.131-.198-.007-.351.009-.43.045"/></svg>