<svg xmlns="http://www.w3.org/2000/svg" width="24" height="24" fill="none" stroke="currentColor" stroke-linecap="round" stroke-linejoin="round" stroke-width="2"><path fill="#000" fill-rule="evenodd" stroke="none" d="M4.499 2.043C3.38 2.232 2.461 3.048 2.114 4.16l-.094.3v15.08l.094.3a3.09 3.09 0 0 0 2.046 2.046l.3.094h15.08l.3-.094a3.09 3.09 0 0 0 2.046-2.046l.094-.3V4.46l-.094-.3a3.09 3.09 0 0 0-2.025-2.039l-.321-.101-7.42-.006c-4.081-.003-7.511.01-7.621.029M19.31 4.061c.279.083.546.35.629.629.054.18.061 1.065.061 7.311 0 5.906-.009 7.137-.055 7.289a1.02 1.02 0 0 1-.461.582l-.184.108H4.7l-.184-.108a1.2 1.2 0 0 1-.291-.249c-.239-.314-.225.172-.225-7.601 0-6.264.007-7.152.061-7.332.079-.269.351-.547.612-.627.291-.089 14.336-.092 14.637-.002M7.695 7.055a1.05 1.05 0 0 0-.567.461L7.02 7.7v8.606l.121.197a.998.998 0 0 0 1.718 0l.121-.197.011-2.941.011-2.941 1.209 1.204c.665.662 1.272 1.236 1.349 1.277.1.052.226.073.44.073s.34-.021.44-.073c.077-.041.684-.615 1.349-1.277l1.209-1.204.011 2.941.011 2.941.121.197a.998.998 0 0 0 1.718 0l.121-.197.011-4.22c.012-4.759.03-4.458-.293-4.782-.287-.287-.648-.369-1.041-.238-.176.058-.378.246-1.927 1.788L12 10.577l-1.71-1.702C9.187 7.777 8.526 7.148 8.427 7.103a1.15 1.15 0 0 0-.732-.048"/></svg>