<svg xmlns="http://www.w3.org/2000/svg" width="24" height="24" fill="none" stroke="currentColor" stroke-linecap="round" stroke-linejoin="round" stroke-width="2"><path fill="#000" fill-rule="evenodd" stroke="none" d="M4.499 2.043C3.38 2.232 2.461 3.048 2.114 4.16l-.094.3v15.08l.094.3a3.09 3.09 0 0 0 2.046 2.046l.3.094h15.08l.3-.094a3.09 3.09 0 0 0 2.046-2.046l.094-.3V4.46l-.094-.3a3.09 3.09 0 0 0-2.025-2.039l-.321-.101-7.42-.006c-4.081-.003-7.511.01-7.621.029M19.31 4.061c.279.083.546.35.629.629.054.18.061 1.065.061 7.311 0 5.906-.009 7.137-.055 7.289a1.02 1.02 0 0 1-.461.582l-.184.108H4.7l-.184-.108a1.2 1.2 0 0 1-.291-.249c-.239-.314-.225.172-.225-7.601 0-6.264.007-7.152.061-7.332.079-.269.351-.547.612-.627.291-.089 14.336-.092 14.637-.002m-5.57 1.941c-1.095.17-1.987.813-2.47 1.78-.283.566-.424 1.152-.459 1.908l-.023.51H9.84c-1.035 0-1.201.025-1.458.221-.08.061-.195.194-.254.295-.091.156-.108.23-.108.484 0 .256.016.328.111.489.061.103.173.236.25.294.258.197.364.213 1.429.215l.99.002-.001 1.13c-.001 1.453-.044 1.769-.29 2.136-.217.325-.765.534-1.4.534-.441 0-.783.18-.981.516-.091.156-.108.23-.108.484 0 .257.016.327.113.492.13.222.369.409.603.473.102.028.33.036.604.022 1.745-.092 2.912-.96 3.299-2.454.133-.514.158-.853.16-2.123l.001-1.21h1.05c1.021-.001 1.056-.003 1.25-.095.381-.181.588-.5.588-.905 0-.385-.195-.703-.548-.894-.151-.081-.221-.087-1.256-.098l-1.096-.013.026-.421c.084-1.376.605-1.876 1.871-1.795.488.031.667-.004.906-.177.643-.466.476-1.512-.277-1.742-.257-.079-1.216-.114-1.574-.058"/></svg>