<svg xmlns="http://www.w3.org/2000/svg" width="24" height="24" fill="none" stroke="currentColor" stroke-linecap="round" stroke-linejoin="round" stroke-width="2"><path fill="#000" fill-rule="evenodd" stroke="none" d="M4.499 2.043C3.382 2.23 2.454 3.054 2.115 4.16c-.07.23-.092.399-.093.723-.002.402.004.432.119.62.396.644 1.316.653 1.708.017.078-.128.122-.271.15-.489.049-.386.112-.54.302-.73s.344-.253.727-.302c.364-.046.603-.172.774-.408a.99.99 0 0 0-.512-1.536c-.2-.06-.479-.064-.791-.012m4.196.014a1.04 1.04 0 0 0-.567.459c-.091.156-.108.23-.108.484 0 .256.016.328.111.489.125.213.318.375.539.454.208.074 1.452.074 1.66 0 .221-.079.414-.241.539-.454.095-.161.111-.233.111-.489 0-.254-.017-.328-.108-.484a1.02 1.02 0 0 0-.582-.461c-.24-.072-1.362-.071-1.595.002m5 0a1.04 1.04 0 0 0-.567.459c-.091.156-.108.23-.108.484 0 .256.016.328.111.489.125.213.318.375.539.454.208.074 1.452.074 1.66 0 .221-.079.414-.241.539-.454.095-.161.111-.233.111-.489 0-.254-.017-.328-.108-.484a1.02 1.02 0 0 0-.582-.461c-.24-.072-1.362-.071-1.595.002m5-.003a.997.997 0 0 0-.497 1.537c.171.236.41.362.774.408.383.049.537.113.727.302.19.19.253.344.302.73.048.379.183.616.451.797.471.316 1.102.17 1.407-.325.115-.188.121-.218.119-.62-.001-.324-.023-.493-.093-.723-.299-.976-1.076-1.756-2.022-2.03-.4-.115-.941-.151-1.168-.076m-11 4.003a1.04 1.04 0 0 0-.567.459L7.02 6.7v7.606l.121.197c.068.11.205.253.311.325.471.316 1.102.171 1.407-.325l.121-.197V6.7l-.108-.184a1.005 1.005 0 0 0-1.177-.459m4 0a1.04 1.04 0 0 0-.567.459l-.108.184v4.606l.121.197c.068.11.205.253.311.325.471.316 1.102.171 1.407-.325l.121-.197V6.7l-.108-.184a1.005 1.005 0 0 0-1.177-.459m4 0a1.04 1.04 0 0 0-.567.459l-.108.184v9.606l.121.197a.998.998 0 0 0 1.718 0l.121-.197V6.7l-.108-.184a1.005 1.005 0 0 0-1.177-.459m-13 2a1.04 1.04 0 0 0-.567.459c-.108.183-.108.187-.108.987v.803l.121.197a.998.998 0 0 0 1.718 0l.121-.197v-.803c0-.8 0-.804-.108-.987a1.005 1.005 0 0 0-1.177-.459m18 0a1.04 1.04 0 0 0-.567.459c-.108.183-.108.187-.108.987v.803l.121.197a.998.998 0 0 0 1.718 0l.121-.197v-.803c0-.8 0-.804-.108-.987a1.005 1.005 0 0 0-1.177-.459m-18 5a1.04 1.04 0 0 0-.567.459c-.108.183-.108.187-.108.987v.803l.121.197a.998.998 0 0 0 1.718 0l.121-.197v-.803c0-.8 0-.804-.108-.987a1.005 1.005 0 0 0-1.177-.459m18 0a1.04 1.04 0 0 0-.567.459c-.108.183-.108.187-.108.987v.803l.121.197a.998.998 0 0 0 1.718 0l.121-.197v-.803c0-.8 0-.804-.108-.987a1.005 1.005 0 0 0-1.177-.459m-18 5a1.04 1.04 0 0 0-.567.459c-.099.169-.108.218-.106.604.001.32.023.491.093.72a3.08 3.08 0 0 0 2.022 2.037c.344.105.903.149 1.127.088.234-.064.473-.251.603-.473.097-.165.113-.235.113-.492 0-.254-.017-.328-.108-.484a1.1 1.1 0 0 0-.497-.438 2.6 2.6 0 0 0-.409-.08c-.343-.043-.579-.163-.74-.373-.145-.191-.189-.316-.229-.659-.055-.478-.296-.787-.707-.911a.9.9 0 0 0-.595.002m18 0c-.397.124-.633.434-.693.909-.045.354-.086.472-.228.659-.161.21-.397.33-.74.373a2.6 2.6 0 0 0-.409.08 1.1 1.1 0 0 0-.497.438c-.091.156-.108.23-.108.484 0 .257.016.327.113.492.13.222.369.409.603.473.224.061.783.017 1.127-.088a3.08 3.08 0 0 0 2.022-2.037c.07-.229.092-.4.093-.72.002-.386-.007-.435-.106-.604a1.005 1.005 0 0 0-1.177-.459m-12 2a1.04 1.04 0 0 0-.567.459c-.091.156-.108.23-.108.484 0 .256.016.328.111.489.125.213.318.375.539.454.208.074 1.452.074 1.66 0 .221-.079.414-.241.539-.454.095-.161.111-.233.111-.489 0-.254-.017-.328-.108-.484a1.02 1.02 0 0 0-.582-.461c-.24-.072-1.362-.071-1.595.002m5 0a1.04 1.04 0 0 0-.567.459c-.091.156-.108.23-.108.484 0 .256.016.328.111.489.125.213.318.375.539.454.208.074 1.452.074 1.66 0 .221-.079.414-.241.539-.454.095-.161.111-.233.111-.489 0-.254-.017-.328-.108-.484a1.02 1.02 0 0 0-.582-.461c-.24-.072-1.362-.071-1.595.002"/></svg>