<svg xmlns="http://www.w3.org/2000/svg" width="24" height="24" fill="none" stroke="currentColor" stroke-linecap="round" stroke-linejoin="round" stroke-width="2"><path fill="#000" fill-rule="evenodd" stroke="none" d="M4.499 2.043C3.383 2.23 2.461 3.048 2.114 4.16l-.094.3v15.08l.094.3a3.09 3.09 0 0 0 2.046 2.046l.3.094h15.08l.3-.094a3.09 3.09 0 0 0 2.046-2.046l.094-.3V12.7l-.109-.186a1.01 1.01 0 0 0-1.742 0l-.109.186-.02 3.28c-.015 2.503-.032 3.307-.07 3.393a1.15 1.15 0 0 1-.446.499l-.184.108H4.7l-.184-.108a1.2 1.2 0 0 1-.291-.249c-.239-.314-.225.172-.225-7.601 0-8.016-.025-7.391.303-7.719.315-.315.168-.303 3.734-.305 2.521-.001 3.173-.012 3.293-.055.221-.079.414-.241.539-.454.095-.161.111-.233.111-.489 0-.254-.017-.328-.108-.484a1.2 1.2 0 0 0-.254-.295c-.295-.225-.236-.221-3.714-.216-1.762.002-3.295.02-3.405.038m10.196.014a1.04 1.04 0 0 0-.567.459c-.091.156-.108.23-.108.484 0 .256.016.328.111.489.125.213.318.375.539.454.117.042.564.054 2.03.055L18.579 4l-3.705 3.71c-2.038 2.041-3.739 3.773-3.779 3.85-.052.099-.074.228-.074.44-.001.258.015.327.112.492.13.222.369.409.603.473.202.054.53.024.709-.066.074-.037 1.804-1.734 3.844-3.771l3.708-3.704.012 1.941.011 1.941.121.197a.998.998 0 0 0 1.718 0l.121-.197.011-3.243c.01-2.937.005-3.259-.055-3.417a1 1 0 0 0-.516-.552l-.2-.093-3.18.002c-2.483.002-3.216.014-3.345.054"/></svg>