<svg xmlns="http://www.w3.org/2000/svg" width="24" height="24" fill="none" stroke="currentColor" stroke-linecap="round" stroke-linejoin="round" stroke-width="2"><path fill="#000" fill-rule="evenodd" stroke="none" d="M4.499 2.043C3.38 2.232 2.461 3.048 2.114 4.16l-.094.3v15.08l.094.3a3.09 3.09 0 0 0 2.046 2.046l.3.094h15.08l.3-.094a3.09 3.09 0 0 0 2.046-2.046l.094-.3V4.46l-.094-.3a3.09 3.09 0 0 0-2.025-2.039l-.321-.101-7.42-.006c-4.081-.003-7.511.01-7.621.029M19.31 4.061c.279.083.546.35.629.629.054.18.061 1.065.061 7.311 0 5.906-.009 7.137-.055 7.289a1.02 1.02 0 0 1-.461.582l-.184.108H4.7l-.184-.108a1.2 1.2 0 0 1-.291-.249c-.239-.314-.225.172-.225-7.601 0-6.264.007-7.152.061-7.332.079-.269.351-.547.612-.627.291-.089 14.336-.092 14.637-.002M8.873 6.063a3.5 3.5 0 0 0-1.915 1.042c-.399.422-.644.852-.825 1.443-.095.315-.107.415-.107.952s.012.637.107.952c.368 1.204 1.212 2.048 2.415 2.414.335.102.404.108 1.401.125l1.048.017.012 2.149.011 2.149.121.197a.998.998 0 0 0 1.718 0l.121-.197.011-4.653.01-4.653h1.998l.01 4.653.011 4.653.121.197a.998.998 0 0 0 1.718 0l.121-.197.011-4.648.01-4.649.179-.027c.243-.036.532-.241.679-.479.107-.174.121-.232.121-.5 0-.257-.016-.331-.108-.487a1.02 1.02 0 0 0-.582-.461c-.27-.081-7.965-.074-8.417.008M11 9.503v1.502l-.93-.012c-.922-.013-.932-.014-1.17-.125a1.68 1.68 0 0 1-.765-.764c-.095-.208-.111-.296-.111-.604-.001-.309.015-.394.11-.6.194-.423.621-.776 1.04-.858.091-.018.539-.035.996-.038L11 8z"/></svg>