<svg xmlns="http://www.w3.org/2000/svg" width="24" height="24" fill="none" stroke="currentColor" stroke-linecap="round" stroke-linejoin="round" stroke-width="2"><path fill="#000" fill-rule="evenodd" stroke="none" d="M4.499 2.043C3.38 2.232 2.461 3.048 2.114 4.16l-.094.3v15.08l.094.3a3.09 3.09 0 0 0 2.046 2.046l.3.094h15.08l.3-.094a3.09 3.09 0 0 0 2.046-2.046l.094-.3V4.46l-.094-.3a3.09 3.09 0 0 0-2.025-2.039l-.321-.101-7.42-.006c-4.081-.003-7.511.01-7.621.029M19.31 4.061c.279.083.546.35.629.629.054.18.061 1.065.061 7.311 0 5.906-.009 7.137-.055 7.289a.98.98 0 0 1-.817.696l-.199.024-.028-.175c-.308-1.937-1.573-3.792-3.285-4.819a15 15 0 0 1-.332-.202c-.008-.006.136-.171.32-.365a5.04 5.04 0 0 0 1.303-2.489c.053-.246.073-.512.073-.96 0-.899-.142-1.494-.547-2.287a5.02 5.02 0 0 0-3.193-2.552c-.933-.241-2.115-.178-2.992.159a5.3 5.3 0 0 0-1.864 1.243c-.661.694-1.083 1.504-1.291 2.477-.101.471-.101 1.449 0 1.92.209.977.63 1.783 1.298 2.485.187.196.333.363.325.369s-.158.098-.332.202c-1.714 1.028-2.975 2.878-3.285 4.819l-.028.175-.199-.024a1 1 0 0 1-.647-.363c-.239-.314-.225.172-.225-7.601 0-6.264.007-7.152.061-7.332.079-.269.351-.547.612-.627.291-.089 14.336-.092 14.637-.002m-6.449 4.068c.943.276 1.723 1.054 2.014 2.01.083.273.098.403.098.861s-.015.588-.098.861a3.07 3.07 0 0 1-2.035 2.025c-.434.135-1.246.135-1.68 0a3.07 3.07 0 0 1-2.035-2.025c-.083-.273-.098-.403-.098-.861s.015-.588.098-.861a3.04 3.04 0 0 1 2.374-2.099c.333-.06 1.001-.017 1.362.089m-.309 7.914a4.98 4.98 0 0 1 3.907 2.717c.179.357.356.837.402 1.09l.028.15H7.111l.028-.15c.135-.741.718-1.776 1.35-2.397a4.95 4.95 0 0 1 4.063-1.41"/></svg>