<svg xmlns="http://www.w3.org/2000/svg" width="24" height="24" fill="none" stroke="currentColor" stroke-linecap="round" stroke-linejoin="round" stroke-width="2"><path fill="#000" fill-rule="evenodd" stroke="none" d="M1.67 1.061c-.222.081-.42.248-.542.455-.091.156-.108.23-.108.484s.016.327.107.48c.137.229 20.24 20.325 20.433 20.425.099.052.228.074.44.074.258.001.327-.015.492-.112.222-.13.409-.369.473-.603a1.2 1.2 0 0 0-.067-.709c-.037-.074-.317-.388-.622-.696l-.555-.561.077-.203c.213-.56.205-.232.193-8.255l-.011-7.42-.094-.28c-.33-.982-1.065-1.715-2.025-2.019l-.321-.101-7.358-.011c-7.942-.011-7.746-.016-8.254.195l-.209.087-.59-.578c-.483-.474-.626-.591-.787-.646a1 1 0 0 0-.672-.006m17.64 3c.279.083.546.35.629.629.054.18.061 1.038.061 7.047v6.843l-2.538-2.538-2.538-2.538.168-.098c.092-.054.292-.199.444-.322 1.12-.905 1.671-2.435 1.385-3.841a4.02 4.02 0 0 0-2.676-3.039C13.715 6.023 13.368 6 11.06 6c-1.418 0-2.215.015-2.32.044a1.05 1.05 0 0 0-.58.423l-.106.167-1.317-1.317L5.42 4h6.843c6.009 0 6.867.007 7.047.061M2.58 7.795c-.203.092-.429.342-.516.569-.061.162-.066.616-.055 5.696l.011 5.52.094.28a3.15 3.15 0 0 0 2.026 2.026l.28.094 5.52.011c6.161.013 5.7.033 6.033-.267a.94.94 0 0 0 .315-.721c0-.388-.194-.705-.548-.897l-.16-.086-5.44-.02-5.44-.02-.184-.108a1.2 1.2 0 0 1-.291-.249c-.237-.311-.225.003-.225-5.798L3.999 8.5l-.094-.2a1.06 1.06 0 0 0-.514-.518c-.203-.085-.611-.079-.811.013m10.943.278c.967.253 1.598 1.231 1.444 2.237a2.04 2.04 0 0 1-1.4 1.613l-.172.051-1.698-1.697L10 8.58V8l1.63.002c1.407.002 1.666.012 1.893.071M8.58 13.795c-.203.092-.429.342-.516.57-.06.156-.067.339-.056 1.559l.012 1.382.121.197a.998.998 0 0 0 1.718 0l.121-.197.012-1.382c.013-1.55.008-1.591-.268-1.896-.196-.219-.404-.306-.724-.306-.166 0-.318.026-.42.073"/></svg>