<svg xmlns="http://www.w3.org/2000/svg" width="24" height="24" fill="none" stroke="currentColor" stroke-linecap="round" stroke-linejoin="round" stroke-width="2"><path fill="#000" fill-rule="evenodd" stroke="none" d="M4.499 2.043C3.38 2.232 2.461 3.048 2.114 4.16l-.094.3v6.846l.121.197a.998.998 0 0 0 1.718 0l.121-.197L4 8.023c.022-3.679.001-3.429.321-3.74C4.635 3.979 4.062 4 12 4c7.991 0 7.369-.024 7.697.303.327.328.303-.294.303 7.698 0 5.906-.009 7.137-.055 7.289a1.02 1.02 0 0 1-.461.582l-.184.108-3.28.02c-2.503.015-3.307.032-3.393.07a1.15 1.15 0 0 0-.499.446c-.091.156-.108.23-.108.484 0 .257.016.327.113.492.128.219.369.409.593.47.102.027 1.284.037 3.504.029l3.35-.012.28-.093c.99-.331 1.722-1.07 2.026-2.046l.094-.3V4.46l-.094-.3a3.09 3.09 0 0 0-2.025-2.039l-.321-.101-7.42-.006c-4.081-.003-7.511.01-7.621.029m7.161 9.023c-.188.057-.432.292-3.929 3.785l-3.728 3.725-.012-1.938L3.98 14.7l-.109-.186a1.01 1.01 0 0 0-1.742 0l-.109.186-.011 3.24c-.01 2.934-.005 3.256.055 3.414.091.241.279.442.516.552l.2.093 3.2-.001c2.569-.001 3.23-.012 3.35-.055.221-.079.414-.241.539-.454.095-.161.111-.233.111-.489 0-.254-.017-.328-.108-.484a1.2 1.2 0 0 0-.254-.295C9.337 20.007 9.265 20 7.264 20H5.421l3.705-3.71c2.038-2.041 3.739-3.773 3.779-3.85.052-.099.074-.228.074-.44.001-.255-.015-.328-.107-.484a1.02 1.02 0 0 0-.582-.461c-.228-.069-.375-.066-.63.011"/></svg>