<svg xmlns="http://www.w3.org/2000/svg" width="24" height="24" fill="none" stroke="currentColor" stroke-linecap="round" stroke-linejoin="round" stroke-width="2"><path fill="#000" fill-rule="evenodd" stroke="none" d="M6.48 2.062c-.677.145-1.268.509-1.756 1.081-.27.317-.433.6-.579 1.007l-.125.35v3.806l.121.197a.998.998 0 0 0 1.718 0l.121-.197L6 6.543c.022-1.982.005-1.87.339-2.204.351-.352-.227-.319 5.661-.319s5.31-.033 5.661.319c.334.334.317.222.339 2.204l.02 1.763.121.197a.998.998 0 0 0 1.718 0l.121-.197V4.5l-.125-.35a3.33 3.33 0 0 0-1.88-1.957c-.477-.195-.413-.193-6.003-.19-4.316.003-5.278.013-5.492.059m-2.785 8.995a1.04 1.04 0 0 0-.567.459c-.091.156-.108.23-.108.484 0 .256.016.328.111.489.125.213.318.375.539.454.223.079 16.437.079 16.66 0 .221-.079.414-.241.539-.454.095-.161.111-.233.111-.489 0-.254-.017-.328-.108-.484a1.02 1.02 0 0 0-.582-.461c-.263-.079-16.343-.077-16.595.002m1 4a1.04 1.04 0 0 0-.567.459l-.108.184v3.8l.125.35c.146.407.309.69.579 1.007.41.481.86.795 1.426.998l.35.125h11l.35-.125a3 3 0 0 0 1.007-.579c.481-.41.795-.86.998-1.426l.125-.35v-3.8l-.109-.186a1.01 1.01 0 0 0-1.742 0l-.109.186-.02 1.76c-.022 1.946-.006 1.829-.297 2.166a1.3 1.3 0 0 1-.351.27l-.208.104H6.856l-.208-.104a1.3 1.3 0 0 1-.351-.27c-.291-.337-.275-.22-.297-2.166l-.02-1.76-.108-.184a1.005 1.005 0 0 0-1.177-.459"/></svg>