<svg xmlns="http://www.w3.org/2000/svg" width="24" height="24" fill="none" stroke="currentColor" stroke-linecap="round" stroke-linejoin="round" stroke-width="2"><path fill="#000" fill-rule="evenodd" stroke="none" d="M4.499 2.043C3.38 2.232 2.461 3.048 2.114 4.16l-.094.3v15.08l.094.3a3.09 3.09 0 0 0 2.046 2.046l.3.094h15.08l.3-.094a3.09 3.09 0 0 0 2.046-2.046l.094-.3V4.46l-.094-.3a3.09 3.09 0 0 0-2.025-2.039l-.321-.101-7.42-.006c-4.081-.003-7.511.01-7.621.029M19.31 4.061c.279.083.546.35.629.629.054.18.061 1.065.061 7.311 0 5.906-.009 7.137-.055 7.289a1.02 1.02 0 0 1-.461.582l-.184.108H4.7l-.184-.108a1.2 1.2 0 0 1-.291-.249c-.239-.314-.225.172-.225-7.601 0-6.264.007-7.152.061-7.332.079-.269.351-.547.612-.627.291-.089 14.336-.092 14.637-.002m-7.615 2.996a1.04 1.04 0 0 0-.567.459l-.108.184L11 8.984l-.02 1.284-1.07-.61c-1.117-.637-1.286-.704-1.598-.637-.525.114-.9.652-.795 1.142.099.46.202.549 1.452 1.257.544.308.989.569.989.58.001.011-.443.272-.987.58-1.256.712-1.356.799-1.454 1.257-.142.663.558 1.308 1.225 1.128.089-.024.632-.312 1.208-.64l1.046-.596.012 1.289.012 1.288.121.197c.068.11.205.253.311.325.471.316 1.102.171 1.407-.325l.121-.197.012-1.288.012-1.289 1.046.596c.576.328 1.119.616 1.208.64.667.18 1.367-.465 1.225-1.128-.098-.458-.198-.545-1.454-1.257-.544-.308-.988-.569-.987-.58 0-.011.445-.272.989-.58 1.25-.708 1.353-.797 1.452-1.257.105-.49-.27-1.028-.795-1.142-.312-.067-.481 0-1.598.637l-1.07.61L13 8.984 12.98 7.7l-.108-.184a1.005 1.005 0 0 0-1.177-.459"/></svg>