<svg xmlns="http://www.w3.org/2000/svg" width="24" height="24" fill="none" stroke="currentColor" stroke-linecap="round" stroke-linejoin="round" stroke-width="2"><path fill="#000" fill-rule="evenodd" stroke="none" d="M4.499 2.043C3.38 2.232 2.461 3.048 2.114 4.16l-.094.3v15.08l.094.3a3.08 3.08 0 0 0 2.023 2.037c.344.105.903.149 1.127.088.234-.064.473-.251.603-.473.097-.165.113-.235.113-.492 0-.254-.017-.328-.108-.484a1.1 1.1 0 0 0-.497-.438 2.6 2.6 0 0 0-.409-.08c-.344-.043-.579-.163-.741-.375-.239-.314-.225.172-.225-7.601 0-8.016-.025-7.391.303-7.719C4.631 3.976 4.009 4 12 4s7.369-.024 7.697.303c.327.328.303-.294.303 7.698 0 7.719.012 7.311-.221 7.617-.166.217-.399.336-.745.38a2.6 2.6 0 0 0-.409.08 1.1 1.1 0 0 0-.497.438c-.091.156-.108.23-.108.484 0 .257.016.327.113.492.13.222.369.409.603.473.224.061.783.017 1.127-.088a3.08 3.08 0 0 0 2.023-2.037l.094-.3V4.46l-.094-.3a3.09 3.09 0 0 0-2.025-2.039l-.321-.101-7.42-.006c-4.081-.003-7.511.01-7.621.029m5.142 6.522a1.2 1.2 0 0 0-.232.141c-.142.108-2.155 2.598-2.302 2.847-.124.209-.124.685 0 .894.103.175 2.12 2.695 2.258 2.821.232.213.7.289.998.163.2-.085.426-.294.528-.487.103-.199.119-.613.03-.824-.032-.077-.415-.585-.85-1.13L9.28 12l.791-.99c.435-.544.818-1.053.85-1.13.089-.211.073-.625-.03-.824-.1-.19-.328-.402-.517-.481-.15-.063-.586-.069-.733-.01m3.976.01c-.475.214-.732.792-.557 1.251.045.117.367.556.866 1.18l.794.994-.794.994c-.499.624-.821 1.063-.866 1.18-.177.463.086 1.049.56 1.25.315.133.777.062 1.015-.156.138-.126 2.155-2.646 2.258-2.821.135-.229.124-.686-.022-.927-.215-.355-2.168-2.737-2.344-2.859-.151-.105-.213-.122-.48-.131-.198-.007-.351.009-.43.045M8.695 20.057a1.04 1.04 0 0 0-.567.459c-.091.156-.108.23-.108.484 0 .256.016.328.111.489.125.213.318.375.539.454.208.074 1.452.074 1.66 0 .221-.079.414-.241.539-.454.095-.161.111-.233.111-.489 0-.254-.017-.328-.108-.484a1.02 1.02 0 0 0-.582-.461c-.24-.072-1.362-.071-1.595.002m5 0a1.04 1.04 0 0 0-.567.459c-.091.156-.108.23-.108.484 0 .256.016.328.111.489.125.213.318.375.539.454.208.074 1.452.074 1.66 0 .221-.079.414-.241.539-.454.095-.161.111-.233.111-.489 0-.254-.017-.328-.108-.484a1.02 1.02 0 0 0-.582-.461c-.24-.072-1.362-.071-1.595.002"/></svg>