<svg xmlns="http://www.w3.org/2000/svg" width="24" height="24" fill="none" stroke="currentColor" stroke-linecap="round" stroke-linejoin="round" stroke-width="2"><path fill="#000" fill-rule="evenodd" stroke="none" d="M11.695 3.057a1.04 1.04 0 0 0-.567.459l-.108.184v16.606l.121.197a.998.998 0 0 0 1.718 0l.121-.197V3.7l-.108-.184a1.005 1.005 0 0 0-1.177-.459M4.48 4.062c-.677.145-1.268.509-1.756 1.081-.27.317-.433.6-.579 1.007l-.125.35v11l.125.35c.146.407.309.69.579 1.007.41.481.86.795 1.426.998l.35.125 1.807.012c1.179.008 1.862-.002 1.964-.03a1.07 1.07 0 0 0 .596-.47c.097-.165.113-.235.113-.492 0-.254-.017-.328-.108-.484a1.2 1.2 0 0 0-.254-.295c-.277-.211-.37-.221-2.14-.221H4.849l-.213-.111c-.251-.132-.533-.456-.595-.685-.029-.107-.039-1.776-.032-5.29.012-5.788-.021-5.224.33-5.575.333-.334.223-.317 2.201-.339l1.76-.02.192-.113c.756-.444.631-1.561-.202-1.812-.264-.079-3.435-.073-3.81.007m11.215-.006a.995.995 0 0 0-.497 1.535c.065.09.205.214.31.276l.192.113 1.76.02c1.978.022 1.868.005 2.201.339.351.351.318-.213.33 5.575.007 3.514-.003 5.183-.032 5.29-.062.229-.344.553-.595.685l-.213.111h-1.629c-1.77 0-1.863.01-2.14.221-.08.061-.195.194-.254.295-.091.156-.108.23-.108.484 0 .257.016.327.113.492.129.22.369.409.596.47.102.028.785.038 1.964.03l1.807-.012.35-.125a3.24 3.24 0 0 0 1.426-.998c.27-.317.433-.6.579-1.007l.125-.35.012-5.34c.008-3.761-.002-5.416-.033-5.598-.158-.922-.835-1.8-1.739-2.255-.557-.28-.561-.28-2.56-.293-1.407-.009-1.836.001-1.965.042"/></svg>