<svg xmlns="http://www.w3.org/2000/svg" width="24" height="24" fill="none" stroke="currentColor" stroke-linecap="round" stroke-linejoin="round" stroke-width="2"><path fill="#000" fill-rule="evenodd" stroke="none" d="M2.58 2.094c-.237.11-.425.311-.516.552-.06.158-.065.48-.055 3.417l.011 3.243.121.197a.998.998 0 0 0 1.718 0l.121-.197.011-1.941.012-1.941 3.708 3.704c2.04 2.037 3.772 3.737 3.849 3.777.099.052.228.074.44.074.258.001.327-.015.492-.112.222-.13.409-.369.473-.603.054-.202.024-.53-.066-.709-.037-.074-1.735-1.804-3.773-3.845L5.421 4 7.3 3.998c1.466-.001 1.913-.013 2.03-.055.221-.079.414-.241.539-.454.095-.161.111-.233.111-.489 0-.254-.017-.328-.108-.484a1.2 1.2 0 0 0-.254-.295C9.324 1.997 9.377 2 5.944 2l-3.164.001zm10.115-.038c-.23.073-.439.243-.567.46-.091.156-.108.23-.108.484 0 .256.016.328.111.489.125.213.318.375.539.454.12.043.772.054 3.293.055 3.566.002 3.419-.01 3.734.305.327.328.303-.294.303 7.698 0 5.906-.009 7.137-.055 7.289a1.02 1.02 0 0 1-.461.582l-.184.108H4.7l-.184-.108a1.15 1.15 0 0 1-.446-.499c-.038-.086-.055-.89-.07-3.393l-.02-3.28-.109-.186a1.01 1.01 0 0 0-1.742 0l-.109.186v6.84l.094.3a3.09 3.09 0 0 0 2.046 2.046l.3.094h15.08l.3-.094a3.09 3.09 0 0 0 2.046-2.046l.094-.3V4.46l-.094-.3a3.09 3.09 0 0 0-2.025-2.038l-.321-.101-3.34-.009c-2.665-.006-3.373.002-3.505.044"/></svg>