<svg xmlns="http://www.w3.org/2000/svg" width="24" height="24" fill="none" stroke="currentColor" stroke-linecap="round" stroke-linejoin="round" stroke-width="2"><path fill="#000" fill-rule="evenodd" stroke="none" d="M4.499 2.043C3.38 2.232 2.461 3.048 2.114 4.16l-.094.3v15.08l.094.3c.304.976 1.036 1.715 2.026 2.046l.28.093 3.35.012c2.22.008 3.402-.002 3.504-.029.224-.061.465-.251.593-.47.097-.165.113-.235.113-.492 0-.254-.017-.328-.108-.484a1.15 1.15 0 0 0-.499-.446c-.086-.038-.89-.055-3.393-.07l-3.28-.02-.184-.108a1.2 1.2 0 0 1-.291-.249c-.239-.314-.225.172-.225-7.601 0-8.016-.025-7.391.303-7.719C4.631 3.976 4.009 4 12 4c7.938 0 7.365-.021 7.679.283.32.311.299.061.321 3.74l.02 3.283.121.197a.998.998 0 0 0 1.718 0l.121-.197V4.46l-.094-.3a3.09 3.09 0 0 0-2.025-2.039l-.321-.101-7.42-.006c-4.081-.003-7.511.01-7.621.029m7.196 9.014a1.04 1.04 0 0 0-.567.459c-.092.156-.108.229-.107.484 0 .212.022.341.074.44.04.077 1.741 1.809 3.779 3.85L18.579 20h-1.843c-2.001 0-2.073.007-2.354.221-.08.061-.195.194-.254.295-.091.156-.108.23-.108.484 0 .256.016.328.111.489.125.213.318.375.539.454.12.043.781.054 3.35.055l3.2.001.2-.093c.237-.11.425-.311.516-.552.06-.158.065-.48.055-3.414l-.011-3.24-.109-.186a1.01 1.01 0 0 0-1.742 0l-.109.186-.011 1.938-.012 1.938-3.728-3.725c-3.629-3.625-3.735-3.726-3.946-3.788-.257-.075-.404-.076-.628-.006"/></svg>