<svg xmlns="http://www.w3.org/2000/svg" width="24" height="24" fill="none" stroke="currentColor" stroke-linecap="round" stroke-linejoin="round" stroke-width="2"><path fill="#000" fill-rule="evenodd" stroke="none" d="M3.499 1.042c-.645.111-1.105.356-1.603.854-.4.4-.6.717-.771 1.217l-.105.307v5.16l.105.307c.171.5.371.817.771 1.217.405.404.731.61 1.211.762.359.114.924.162 1.157.099.234-.064.473-.251.603-.473.097-.165.113-.235.113-.495 0-.268-.014-.326-.12-.495a.97.97 0 0 0-.68-.465c-.635-.112-.809-.195-.996-.477-.182-.276-.188-.37-.176-2.66.011-2.043.016-2.168.089-2.316.099-.199.288-.388.487-.487.149-.073.261-.077 2.416-.077s2.267.004 2.416.077c.353.176.524.446.585.93.048.383.182.619.451.801.471.316 1.102.17 1.407-.325.117-.19.121-.213.116-.64-.008-.783-.262-1.358-.871-1.967-.411-.411-.743-.617-1.243-.774l-.321-.1-2.42-.007c-1.331-.004-2.511.008-2.621.027m6 6c-.645.111-1.105.356-1.603.854-.4.4-.6.717-.771 1.217l-.105.307v5.16l.105.307c.171.5.371.817.771 1.217.405.404.731.61 1.211.762.359.114.924.162 1.157.099.234-.064.473-.251.603-.473.097-.165.113-.235.113-.495 0-.268-.014-.326-.12-.495a.97.97 0 0 0-.68-.465c-.635-.112-.809-.195-.996-.477-.182-.276-.188-.37-.176-2.66.011-2.043.016-2.168.089-2.316.099-.199.288-.388.487-.487.149-.073.261-.077 2.416-.077s2.267.004 2.416.077c.353.176.524.446.585.93.048.383.182.619.451.801.471.316 1.102.17 1.407-.325.117-.19.121-.213.116-.64-.008-.783-.262-1.358-.871-1.967-.411-.411-.743-.617-1.243-.774l-.321-.1-2.42-.007c-1.331-.004-2.511.008-2.621.027m6 6a3.05 3.05 0 0 0-2.385 2.118l-.094.3v5.08l.094.3a3.09 3.09 0 0 0 2.046 2.046l.3.094h5.08l.3-.094a3.09 3.09 0 0 0 2.046-2.046l.094-.3v-5.08l-.094-.3a3.08 3.08 0 0 0-2.025-2.038l-.321-.1-2.42-.007c-1.331-.004-2.511.008-2.621.027m4.811 2.019c.279.083.546.35.629.629.086.288.091 4.317.006 4.6a1.02 1.02 0 0 1-.461.582l-.184.108h-4.6l-.184-.108a1.05 1.05 0 0 1-.458-.556c-.088-.251-.086-4.328.003-4.626.075-.252.343-.537.589-.623.256-.091 4.358-.096 4.66-.006"/></svg>