<svg xmlns="http://www.w3.org/2000/svg" width="24" height="24" fill="none" stroke="currentColor" stroke-linecap="round" stroke-linejoin="round" stroke-width="2"><path fill="#000" fill-rule="evenodd" stroke="none" d="M4.499 2.043C3.38 2.232 2.461 3.048 2.114 4.16l-.094.3v15.08l.094.3a3.08 3.08 0 0 0 2.023 2.037c.344.105.903.149 1.127.088.234-.064.473-.251.603-.473.097-.165.113-.235.113-.492 0-.254-.017-.328-.108-.484a1.1 1.1 0 0 0-.497-.438 2.6 2.6 0 0 0-.409-.08c-.344-.043-.579-.163-.741-.375-.239-.314-.225.172-.225-7.601 0-8.016-.025-7.391.303-7.719C4.631 3.976 4.009 4 12 4s7.369-.024 7.697.303c.327.328.303-.294.303 7.698 0 7.719.012 7.311-.221 7.617-.166.217-.399.336-.745.38a2.6 2.6 0 0 0-.409.08 1.1 1.1 0 0 0-.497.438c-.091.156-.108.23-.108.484 0 .257.016.327.113.492.13.222.369.409.603.473.224.061.783.017 1.127-.088a3.08 3.08 0 0 0 2.023-2.037l.094-.3V4.46l-.094-.3a3.09 3.09 0 0 0-2.025-2.039l-.321-.101-7.42-.006c-4.081-.003-7.511.01-7.621.029m4.196 18.014a1.04 1.04 0 0 0-.567.459c-.091.156-.108.23-.108.484 0 .256.016.328.111.489.125.213.318.375.539.454.208.074 1.452.074 1.66 0 .221-.079.414-.241.539-.454.095-.161.111-.233.111-.489 0-.254-.017-.328-.108-.484a1.02 1.02 0 0 0-.582-.461c-.24-.072-1.362-.071-1.595.002m5 0a1.04 1.04 0 0 0-.567.459c-.091.156-.108.23-.108.484 0 .256.016.328.111.489.125.213.318.375.539.454.208.074 1.452.074 1.66 0 .221-.079.414-.241.539-.454.095-.161.111-.233.111-.489 0-.254-.017-.328-.108-.484a1.02 1.02 0 0 0-.582-.461c-.24-.072-1.362-.071-1.595.002"/></svg>