<svg xmlns="http://www.w3.org/2000/svg" width="24" height="24" fill="none" stroke="currentColor" stroke-linecap="round" stroke-linejoin="round" stroke-width="2"><path fill="#000" fill-rule="evenodd" stroke="none" d="M4.499 2.043C3.38 2.232 2.461 3.048 2.114 4.16l-.094.3v15.08l.094.3a3.09 3.09 0 0 0 2.046 2.046l.3.094h15.08l.3-.094a3.09 3.09 0 0 0 2.046-2.046l.094-.3V4.46l-.094-.3a3.09 3.09 0 0 0-2.025-2.039l-.321-.101-7.42-.006c-4.081-.003-7.511.01-7.621.029M19.31 4.061c.279.083.546.35.629.629.054.18.061 1.065.061 7.311 0 5.906-.009 7.137-.055 7.289a1.02 1.02 0 0 1-.461.582l-.184.108H4.7l-.184-.108a1.2 1.2 0 0 1-.291-.249c-.239-.314-.225.172-.225-7.601 0-6.264.007-7.152.061-7.332.079-.269.351-.547.612-.627.291-.089 14.336-.092 14.637-.002M7.695 7.057a1.04 1.04 0 0 0-.567.459c-.091.156-.108.23-.108.484 0 .256.016.328.111.489.125.213.318.375.539.454.12.043.729.054 3.03.055L13.579 9l-3.205 3.21c-1.763 1.766-3.236 3.271-3.273 3.345-.229.455-.045 1.046.407 1.312.165.097.234.113.492.112.212 0 .341-.022.44-.074.077-.04 1.584-1.515 3.349-3.278l3.209-3.204.011 2.942.011 2.941.121.197a.998.998 0 0 0 1.718 0l.121-.197.011-4.243c.01-3.864.005-4.259-.055-4.417a1 1 0 0 0-.516-.552l-.2-.093-4.18.002c-3.301.002-4.215.013-4.345.054"/></svg>