<svg xmlns="http://www.w3.org/2000/svg" width="24" height="24" fill="none" stroke="currentColor" stroke-linecap="round" stroke-linejoin="round" stroke-width="2"><path fill="#000" fill-rule="evenodd" stroke="none" d="M4.499 2.043c-1.118.189-2.038 1.005-2.385 2.117l-.094.3v15.08l.094.3a3.09 3.09 0 0 0 2.046 2.046l.3.094h15.08l.3-.094c.976-.304 1.714-1.035 2.046-2.026l.094-.28.011-4.62c.013-5.157.032-4.802-.267-5.132-.194-.216-.405-.306-.715-.307-.428-.002-.729.189-.914.579l-.094.2L20 14.704c0 4.78.007 4.614-.221 4.914-.061.08-.194.195-.295.254l-.184.108H4.7l-.184-.108a1.2 1.2 0 0 1-.291-.249c-.239-.314-.225.172-.225-7.601 0-8.016-.025-7.391.303-7.719C4.63 3.977 4.091 4 11.297 4l6.403-.001.2-.094c.381-.181.588-.5.588-.905 0-.385-.195-.703-.548-.894l-.16-.086-6.54-.006c-3.597-.003-6.631.01-6.741.029M21.64 3.068c-.157.053-.789.67-4.909 4.785l-4.73 4.724-1.23-1.222c-1.083-1.076-1.255-1.231-1.428-1.289a1 1 0 0 0-1.215.45c-.091.156-.108.23-.108.484s.016.328.107.48c.134.224 3.241 3.324 3.433 3.425.194.101.686.102.88 0 .193-.1 10.297-10.197 10.433-10.425.091-.153.107-.226.107-.48s-.017-.328-.108-.484a1.016 1.016 0 0 0-1.232-.448"/></svg>