<svg xmlns="http://www.w3.org/2000/svg" width="24" height="24" fill="none" stroke="currentColor" stroke-linecap="round" stroke-linejoin="round" stroke-width="2"><path fill="#000" fill-rule="evenodd" stroke="none" d="M5.86 1.047c-2.007.226-3.808 1.629-4.497 3.504-.661 1.798-.402 3.401.722 4.471.295.281.516.437.863.612.29.146.814.304 1.142.344.126.015.23.035.23.045s-.115.184-.255.387c-1.141 1.651-1.761 3.256-1.992 5.15-.079.65-.069 2.056.019 2.52a6.03 6.03 0 0 0 1.733 3.242 5.6 5.6 0 0 0 2.25 1.359c.936.313.502.293 6.597.308 3.637.009 5.502 0 5.603-.028.223-.06.464-.251.592-.469.097-.165.113-.235.113-.492 0-.254-.017-.328-.108-.484-.244-.415-.515-.516-1.378-.516-.338 0-.614-.004-.613-.01 0-.006.027-.154.058-.33s.059-.442.06-.592c.003-.75.326-1.352.938-1.754.391-.256.523-.281 1.643-.314.872-.026 1.036-.041 1.28-.119a3.1 3.1 0 0 0 2.026-2.041c.092-.293.094-.335.094-1.88 0-1.377-.009-1.624-.073-1.92-.335-1.564-1.31-2.826-2.727-3.53-.305-.152-.794-.328-1.029-.371l-.148-.027-.012-2.206L18.98 3.7l-.109-.186a1.01 1.01 0 0 0-1.742 0c-.106.181-.109.206-.122.892l-.013.706-.147.027c-.251.046-.732.224-1.087.402a5.03 5.03 0 0 0-2.621 3.308c-.015.081-.048.164-.073.183s-.198.057-.385.085a8 8 0 0 0-.699.144 3 3 0 0 1-.372.082c-.006-.006.034-.18.089-.387.136-.515.175-.729.242-1.356.194-1.802-.122-3.144-1.026-4.363a5.5 5.5 0 0 0-5.055-2.19m1.545 2.068c.97.251 1.827.979 2.273 1.931.285.609.368 1.247.285 2.174-.083.92-.251 1.579-.58 2.28-.243.518-.506.921-1.273 1.952a31 31 0 0 0-.898 1.26c-.783 1.242-1.176 2.556-1.187 3.971l-.005.622.121.198a.998.998 0 0 0 1.711.011c.105-.17.12-.242.169-.82.062-.735.137-1.132.308-1.634a6.05 6.05 0 0 1 3.731-3.731c.501-.171.899-.246 1.63-.308.718-.061.894-.129 1.112-.43.143-.198.183-.345.214-.796a3 3 0 0 1 1.644-2.478l.32-.164.02 1.073.02 1.074.113.192c.128.217.371.411.583.464.079.02.299.047.489.06a3 3 0 0 1 2.671 2.123c.094.307.099.379.115 1.601.011.866.002 1.346-.029 1.484a1.04 1.04 0 0 1-.476.647c-.184.108-.196.109-1.126.136-.962.028-1.274.07-1.704.231a4.5 4.5 0 0 0-1.463.912l-.192.18-.243-.225a4.1 4.1 0 0 0-2.467-1.088 1.8 1.8 0 0 0-.519.019 1.07 1.07 0 0 0-.624.525c-.103.195-.114.249-.097.49a.87.87 0 0 0 .135.46c.148.241.436.437.685.468.854.105 1.124.214 1.529.622.42.422.632.963.586 1.499-.026.306-.12.669-.21.81l-.058.09h-3.534c-2.927 0-3.591-.01-3.869-.059-1.573-.275-2.788-1.392-3.175-2.917-.275-1.085-.099-2.941.408-4.304.323-.869.603-1.339 2.096-3.52.898-1.311 1.27-2.262 1.342-3.429.03-.479-.026-.682-.262-.943-.196-.219-.404-.306-.724-.306-.593 0-.956.384-1.016 1.075A1.52 1.52 0 0 1 5.1 7.868c-.207.097-.29.112-.6.112s-.393-.015-.6-.112a1.7 1.7 0 0 1-.767-.764c-.105-.227-.112-.277-.107-.724.006-.563.091-.936.316-1.385.529-1.058 1.488-1.778 2.6-1.953.355-.056 1.108-.018 1.463.073m10.29 8.94a1.05 1.05 0 0 0-.567.461c-.091.156-.108.23-.108.484 0 .257.016.327.113.492.518.882 1.865.526 1.865-.492a.99.99 0 0 0-.535-.888 1.17 1.17 0 0 0-.768-.057"/></svg>