<svg xmlns="http://www.w3.org/2000/svg" width="24" height="24" fill="none" stroke="currentColor" stroke-linecap="round" stroke-linejoin="round" stroke-width="2"><path fill="#000" fill-rule="evenodd" stroke="none" d="M10.349 2.044c-2.814.134-4.611.669-5.943 1.77-.619.512-1.159 1.261-1.521 2.11-.319.747-.543 1.603-.68 2.596-.154 1.113-.184 1.688-.184 3.48s.03 2.367.184 3.48c.539 3.916 2.405 5.771 6.355 6.32 1.063.148 1.66.179 3.44.179s2.377-.031 3.44-.179c.801-.111 1.313-.226 1.961-.439 2.617-.859 3.943-2.644 4.399-5.921.148-1.063.179-1.66.179-3.44s-.031-2.377-.179-3.44c-.306-2.203-1.041-3.782-2.206-4.746-.937-.774-2.125-1.275-3.634-1.531-1.44-.244-3.582-.336-5.611-.239M13.5 4.041c2.54.127 4.012.55 4.935 1.417 1.074 1.01 1.564 3.059 1.564 6.542 0 3.49-.488 5.527-1.569 6.548C17.356 19.562 15.41 20 11.992 20c-3.411-.001-5.348-.439-6.422-1.452C4.489 17.527 4.001 15.49 4.001 12c0-1.995.175-3.615.504-4.68.547-1.765 1.551-2.601 3.624-3.018 1.283-.257 3.392-.36 5.371-.261"/></svg>