<svg xmlns="http://www.w3.org/2000/svg" width="24" height="24" fill="none" stroke="currentColor" stroke-linecap="round" stroke-linejoin="round" stroke-width="2"><path fill="#000" fill-rule="evenodd" stroke="none" d="M11.367 1.043c-1.441.187-2.632 1.092-3.085 2.344-.185.51-.247.846-.27 1.453-.036.975.139 1.71.612 2.578.144.262.287.577.319.698.045.176.057.589.057 2.049v1.829l-1.53.016c-1.405.014-1.555.022-1.834.099-1.237.343-2.128 1.212-2.503 2.439-.103.339-.108.393-.124 1.498-.018 1.256 0 1.423.193 1.831.146.309.569.746.868.898.47.238.008.225 7.93.225s7.46.013 7.93-.225c.266-.135.708-.575.841-.838.216-.426.238-.608.22-1.876-.016-1.122-.021-1.173-.124-1.513-.406-1.327-1.44-2.256-2.775-2.488-.259-.045-.677-.06-1.717-.06H15v-1.832c0-2.126-.01-2.057.378-2.76.303-.55.481-1.053.562-1.596.241-1.599-.318-3.076-1.502-3.969-.892-.672-1.944-.946-3.071-.8m1.156 2.03c.723.189 1.316.84 1.441 1.584.054.319.026.81-.065 1.163-.034.132-.176.447-.315.7C13.012 7.562 13 7.634 13 10.084V12h-2v-1.916c0-2.45-.012-2.523-.584-3.564-.335-.61-.394-.838-.392-1.52.001-.581.067-.87.272-1.193.132-.208.421-.464.666-.588.413-.209 1.08-.271 1.561-.146m5.597 11.071c.33.157.579.406.736.736l.124.26.014.93.013.93H4.993l.013-.93c.014-.921.016-.932.126-1.17.198-.424.623-.775 1.042-.859.091-.018 2.758-.03 5.926-.027l5.76.006zM4.695 21.057a1.04 1.04 0 0 0-.567.459c-.091.156-.108.23-.108.484 0 .256.016.328.111.489.125.213.318.375.539.454.223.079 14.437.079 14.66 0 .221-.079.414-.241.539-.454.095-.161.111-.233.111-.489 0-.254-.017-.328-.108-.484a1.02 1.02 0 0 0-.582-.461c-.263-.079-14.343-.077-14.595.002"/></svg>