<svg xmlns="http://www.w3.org/2000/svg" width="24" height="24" fill="none" stroke="currentColor" stroke-linecap="round" stroke-linejoin="round" stroke-width="2"><path fill="#000" fill-rule="evenodd" stroke="none" d="M11.66 1.037c-.245.06-.503.203-.706.39-.196.182-.28.339-1.455 2.713-.686 1.386-1.297 2.579-1.358 2.652-.123.146-.318.258-.561.322-.088.023-1.337.214-2.776.424-1.439.211-2.681.402-2.761.426s-.243.109-.363.19a1.53 1.53 0 0 0-.256 2.314c.086.092.968.956 1.96 1.92.993.963 1.853 1.809 1.911 1.878.14.168.225.418.225.666 0 .111-.201 1.364-.446 2.785-.286 1.658-.446 2.683-.445 2.863.002.423.122.698.447 1.024.342.342.599.449 1.084.453.416.003.264.072 2.882-1.306 2.766-1.456 2.541-1.348 2.951-1.41.196-.029.408-.081.472-.114.297-.156.533-.547.534-.887.001-.369-.269-.777-.608-.918-.209-.087-.736-.079-1.141.018-.384.092-.302.052-2.622 1.269-.985.518-1.802.93-1.816.917-.013-.013.141-.985.342-2.158.397-2.319.427-2.636.302-3.2-.08-.36-.353-.944-.563-1.208-.088-.11-.87-.893-1.737-1.74A163 163 0 0 1 3.57 9.76c-.006-.011.953-.161 2.129-.332 2.17-.316 2.384-.355 2.79-.507.474-.178 1.092-.675 1.405-1.131.064-.093.633-1.214 1.265-2.49l1.149-2.32.215-.14c.136-.088.26-.213.336-.337.107-.173.121-.233.121-.5 0-.257-.016-.331-.108-.487-.238-.404-.725-.597-1.212-.479"/></svg>