<svg xmlns="http://www.w3.org/2000/svg" width="24" height="24" fill="none" stroke="currentColor" stroke-linecap="round" stroke-linejoin="round" stroke-width="2"><path fill="#000" fill-rule="evenodd" stroke="none" d="M1.67 1.061c-.222.081-.42.248-.542.455-.092.156-.108.229-.107.484 0 .212.022.341.074.44.04.077 1.208 1.277 2.596 2.667 2.247 2.251 2.512 2.53 2.426 2.549-.053.012-1.042.158-2.197.324-1.155.167-2.178.331-2.274.366a.975.975 0 0 0-.45 1.496c.057.078 1.145 1.157 2.418 2.397 2.076 2.024 2.311 2.266 2.293 2.358-.15.749-1.076 6.276-1.077 6.423-.002.62.633 1.108 1.23.945.088-.024 1.452-.719 3.032-1.544 1.579-.826 2.888-1.501 2.909-1.501s1.212.615 2.648 1.366c3.505 1.833 3.277 1.724 3.572 1.703.4-.03.739-.268.887-.623.064-.152.079-.467.033-.687-.025-.123.102-.009 1.125 1.007.635.63 1.217 1.178 1.294 1.219.099.052.227.074.44.074.258.001.327-.015.492-.112.476-.28.647-.9.373-1.359-.055-.092-4.65-4.715-10.212-10.273C3.3 1.889 2.525 1.125 2.343 1.065a1 1 0 0 0-.673-.004m10.001.001c-.372.118-.441.222-1.295 1.958-.86 1.749-.887 1.826-.759 2.21.188.566.888.841 1.409.555.258-.142.38-.31.712-.983l.261-.531 1.134 2.294c1.253 2.535 1.251 2.532 1.675 2.651.117.033 1.292.216 2.612.406s2.404.349 2.409.354c.004.004-.498.502-1.117 1.105-.838.818-1.145 1.143-1.202 1.273a1.14 1.14 0 0 0-.012.788c.145.348.548.617.922.617.399 0 .457-.047 2.44-1.981 1.012-.987 1.887-1.858 1.945-1.936a.98.98 0 0 0-.451-1.496c-.096-.035-1.612-.27-3.37-.523-1.758-.252-3.21-.474-3.227-.491S15.084 5.995 14.3 4.4s-1.475-2.963-1.537-3.04c-.236-.295-.702-.423-1.092-.298m.653 12.688 4.344 4.35.088.515c.048.283.081.521.073.53-.009.008-1.014-.507-2.235-1.145-1.432-.749-2.286-1.172-2.407-1.195a1.2 1.2 0 0 0-.374 0c-.121.023-.975.446-2.407 1.195-1.221.638-2.226 1.153-2.234 1.145-.008-.007.177-1.119.41-2.469.449-2.6.457-2.684.301-2.99-.051-.1-.751-.812-1.902-1.932-1.305-1.271-1.801-1.779-1.751-1.79a525 525 0 0 1 3.71-.559c.022-.003 1.995 1.952 4.384 4.345"/></svg>