<svg xmlns="http://www.w3.org/2000/svg" width="24" height="24" fill="none" stroke="currentColor" stroke-linecap="round" stroke-linejoin="round" stroke-width="2"><path fill="#000" fill-rule="evenodd" stroke="none" d="M11.66 1.035a1.7 1.7 0 0 0-.706.392c-.196.182-.28.339-1.455 2.713-.686 1.386-1.297 2.579-1.358 2.652-.123.146-.318.258-.561.322-.088.023-1.337.214-2.776.424-1.439.211-2.681.402-2.761.426s-.243.109-.363.19a1.53 1.53 0 0 0-.256 2.314c.086.092.968.956 1.96 1.92.993.963 1.853 1.809 1.911 1.878.14.168.225.418.225.666 0 .111-.201 1.364-.446 2.785-.286 1.658-.446 2.683-.445 2.863.002.423.122.698.447 1.024.343.342.598.449 1.085.453.416.004.262.075 3.232-1.489 1.173-.618 2.196-1.145 2.274-1.17.181-.06.484-.06.663-.001.077.025 1.1.551 2.275 1.17 2.976 1.566 2.818 1.494 3.234 1.49.487-.004.742-.111 1.085-.453.325-.326.445-.601.447-1.024.001-.18-.159-1.205-.445-2.863-.245-1.421-.446-2.674-.446-2.785 0-.248.085-.498.225-.666.058-.069.947-.945 1.975-1.946a143 143 0 0 0 1.975-1.946c.293-.35.413-.916.287-1.356a1.47 1.47 0 0 0-.84-.981c-.214-.099-.543-.156-2.882-.496a123 123 0 0 1-2.8-.427c-.243-.064-.438-.176-.561-.322-.061-.073-.664-1.251-1.34-2.619-1.367-2.764-1.379-2.784-1.87-3.018a1.25 1.25 0 0 0-.563-.138 2 2 0 0 0-.426.018m1.385 4.675 1.022 2.07.317.337c.469.5.932.779 1.564.943.115.03 1.168.194 2.34.365 1.173.17 2.136.312 2.142.315s-.337.346-.76.762c-.424.416-1.195 1.18-1.715 1.697l-.945.941-.202.42c-.439.915-.438 1.136.032 3.88.197 1.155.366 2.131.375 2.168.02.083-.006.07-1.979-.97-1.962-1.035-2.089-1.096-2.474-1.193-.672-.169-1.517-.087-2.102.205-.132.065-1.046.542-2.032 1.059-.985.518-1.802.93-1.816.917-.013-.013.141-.985.342-2.158.397-2.319.427-2.636.302-3.2-.08-.36-.353-.944-.563-1.208-.088-.11-.87-.893-1.737-1.74A163 163 0 0 1 3.57 9.76c-.006-.011.953-.161 2.129-.332 2.17-.316 2.384-.355 2.79-.507.498-.187 1.112-.691 1.432-1.178.078-.118.572-1.089 1.098-2.159s.967-1.944.98-1.944.483.931 1.046 2.07"/></svg>