<svg xmlns="http://www.w3.org/2000/svg" width="24" height="24" fill="none" stroke="currentColor" stroke-linecap="round" stroke-linejoin="round" stroke-width="2"><path fill="#000" fill-rule="evenodd" stroke="none" d="M13.67 3.055a1 1 0 0 0-.2.095c-.028.021-2.345 1.874-5.15 4.117-4.2 3.359-5.118 4.11-5.2 4.256s-.1.231-.1.477.018.332.1.477c.082.146 1.002.898 5.196 4.255 2.802 2.242 5.16 4.116 5.24 4.163.112.066.21.085.444.085.256 0 .328-.016.489-.111.213-.125.375-.318.454-.539.044-.123.054-1.597.055-8.31.001-5.503-.012-8.209-.04-8.309a1.06 1.06 0 0 0-.485-.582c-.23-.119-.594-.152-.803-.074m4.025.002a1.04 1.04 0 0 0-.567.459l-.108.184v16.606l.121.197a.998.998 0 0 0 1.718 0l.121-.197V3.7l-.108-.184a1.005 1.005 0 0 0-1.177-.459M13 12v5.92l-3.682-2.945c-2.024-1.62-3.675-2.964-3.668-2.986.01-.03 7.296-5.893 7.34-5.906.005-.002.01 2.661.01 5.917"/></svg>