<svg xmlns="http://www.w3.org/2000/svg" width="24" height="24" fill="none" stroke="currentColor" stroke-linecap="round" stroke-linejoin="round" stroke-width="2"><path fill="#000" fill-rule="evenodd" stroke="none" d="M4.695 1.057a1.01 1.01 0 0 0-.677.768l-.027.166-.281.027c-1.214.12-2.225.954-2.596 2.142l-.094.3v2.6c0 2.765.007 2.886.202 3.665.617 2.458 2.591 4.432 5.053 5.053.212.054.477.11.59.124l.206.027.027.206c.071.543.348 1.401.639 1.979 1.035 2.055 2.94 3.44 5.243 3.812.412.066 1.627.066 2.04 0 2.584-.417 4.687-2.138 5.553-4.546.347-.965.39-1.283.415-3.045l.02-1.486.326-.163a3.1 3.1 0 0 0 1.552-1.846c.135-.434.135-1.246 0-1.68a3.07 3.07 0 0 0-2.025-2.035c-.273-.083-.403-.098-.861-.098s-.588.015-.861.098a3.07 3.07 0 0 0-2.025 2.035c-.135.434-.135 1.246 0 1.68a3.1 3.1 0 0 0 1.556 1.848l.33.165v1.155c0 1.224-.038 1.745-.161 2.232a5.06 5.06 0 0 1-2.627 3.236c-.745.366-1.35.504-2.212.504-.67 0-1.044-.058-1.6-.248a5.05 5.05 0 0 1-3.245-3.51c-.075-.294-.062-.34.098-.341.134-.002.721-.162 1.127-.308a7.02 7.02 0 0 0 4.416-4.913c.175-.714.184-.881.184-3.6v-2.6l-.094-.3a3.07 3.07 0 0 0-.975-1.465 2.97 2.97 0 0 0-1.621-.677l-.281-.027-.027-.166c-.06-.377-.376-.702-.768-.79a1.01 1.01 0 0 0-1.085.479l-.109.186-.012 1.208c-.008.758.003 1.266.03 1.364.061.226.25.466.47.595.165.097.235.113.495.113.268 0 .326-.014.5-.121.239-.147.443-.437.479-.68.03-.2.04-.204.328-.118a.9.9 0 0 1 .387.242c.306.306.303.283.303 2.726 0 2.19-.024 2.671-.161 3.211a5.06 5.06 0 0 1-2.627 3.236c-.745.366-1.35.504-2.212.504-.67 0-1.044-.058-1.6-.248a5.04 5.04 0 0 1-3.238-3.492C3.024 9.702 3 9.222 3 7.029c0-2.443-.003-2.42.303-2.726a.9.9 0 0 1 .387-.242c.288-.086.298-.082.328.118.036.243.24.533.479.68.174.107.232.121.5.121.26 0 .33-.016.495-.113a1.07 1.07 0 0 0 .47-.595c.027-.098.038-.606.03-1.364L5.98 1.7l-.108-.184a1.005 1.005 0 0 0-1.177-.459M20.31 9.061c.378.112.69.537.69.94 0 .33-.216.695-.516.871-.156.091-.23.108-.484.108s-.328-.017-.484-.108c-.581-.342-.683-1.098-.212-1.569q.417-.418 1.006-.242"/></svg>