<svg xmlns="http://www.w3.org/2000/svg" width="24" height="24" fill="none" stroke="currentColor" stroke-linecap="round" stroke-linejoin="round" stroke-width="2"><path fill="#000" fill-rule="evenodd" stroke="none" d="M4.499 2.043c-1.118.189-2.038 1.005-2.385 2.117l-.094.3v15.12l.105.307c.171.5.371.817.771 1.217s.717.6 1.217.771l.307.105h15.12l.3-.094a3.09 3.09 0 0 0 2.046-2.046l.094-.3v-5.66c0-5.425-.003-5.666-.074-5.8-.102-.193-5.766-5.863-5.966-5.973l-.16-.087-5.54-.006c-3.047-.003-5.631.01-5.741.029m8.51 3.747c.014 1.743.017 1.797.107 2.07a3.13 3.13 0 0 0 2.024 2.025c.278.092.298.093 2.57.106l2.29.013v4.552c0 4.941.008 4.762-.221 5.062-.061.08-.194.195-.295.254l-.184.108-7.218.01c-8.041.012-7.446.032-7.751-.264a1.4 1.4 0 0 1-.233-.308c-.076-.155-.078-.296-.088-7.336-.012-8.081-.036-7.45.293-7.779.315-.314.049-.297 4.624-.3L12.995 4zm4.091.211 2 2.001-1.7-.011-1.7-.011-.184-.108a1.05 1.05 0 0 1-.458-.556C14.978 7.089 14.971 4 15.05 4c.028 0 .95.901 2.05 2.001m-9.405 6.054a1.05 1.05 0 0 0-.567.461c-.091.156-.108.23-.108.484 0 .257.016.327.113.492.518.882 1.865.526 1.865-.492a.99.99 0 0 0-.535-.888 1.17 1.17 0 0 0-.768-.057m8 0a1.05 1.05 0 0 0-.567.461c-.091.156-.108.23-.108.484 0 .257.016.327.113.492.518.882 1.865.526 1.865-.492a.99.99 0 0 0-.535-.888 1.17 1.17 0 0 0-.768-.057M9.67 15.057a1.04 1.04 0 0 0-.539.454c-.095.161-.111.233-.111.489 0 .373.089.542.486.923a4 4 0 0 0 1.109.758c.506.234.804.297 1.405.297.631 0 .916-.065 1.48-.339.677-.328 1.302-.905 1.444-1.332a.99.99 0 0 0-.628-1.249c-.393-.138-.75-.033-1.096.323-.324.333-.474.437-.78.539-.545.184-1.033.032-1.597-.495-.251-.234-.37-.316-.53-.363-.251-.075-.443-.076-.643-.005"/></svg>