<svg xmlns="http://www.w3.org/2000/svg" width="24" height="24" fill="none" stroke="currentColor" stroke-linecap="round" stroke-linejoin="round" stroke-width="2"><path fill="#000" fill-rule="evenodd" stroke="none" d="M4.499 2.043c-1.118.189-2.038 1.005-2.385 2.117l-.094.3v15.08l.094.3a3.09 3.09 0 0 0 2.046 2.046l.3.094h15.08l.3-.094c.976-.304 1.714-1.035 2.046-2.026l.094-.28.011-5.857c.01-5.336.005-5.875-.055-6.06-.06-.188-.261-.399-2.711-2.847-1.773-1.773-2.698-2.669-2.805-2.72-.155-.073-.353-.076-5.94-.082-3.179-.003-5.871.01-5.981.029m9.51 3.747c.014 1.743.017 1.797.107 2.07a3.13 3.13 0 0 0 2.024 2.024c.273.09.327.093 2.07.107l1.79.014v4.551c0 4.941.008 4.762-.221 5.062-.061.08-.194.195-.295.254l-.184.108H4.7l-.184-.108a1.2 1.2 0 0 1-.291-.249c-.239-.314-.225.172-.225-7.601 0-8.017-.025-7.391.304-7.719.315-.316-.008-.297 5.123-.3L13.995 4zm5.241 2.202c-.17.007-.814.007-1.43 0L16.7 7.98l-.184-.108a1.2 1.2 0 0 1-.291-.249C16.009 7.34 16 7.265 16 5.785V4.42l1.78 1.78 1.781 1.78z"/></svg>