<svg xmlns="http://www.w3.org/2000/svg" width="24" height="24" fill="none" stroke="currentColor" stroke-linecap="round" stroke-linejoin="round" stroke-width="2"><path fill="#000" fill-rule="evenodd" stroke="none" d="m7.42 1.024-.3.061c-.258.051-.713.253-.987.437-.106.071-1.268 1.201-2.581 2.511-1.979 1.973-2.403 2.416-2.473 2.578-.082.191-.084.237-.07 2.082.014 1.846.016 1.893.106 2.167.264.799.824 1.46 1.545 1.824l.32.161.02 3.868.02 3.867.094.28c.332.99 1.07 1.722 2.046 2.026l.3.094h13.08l.3-.094c.976-.304 1.714-1.036 2.046-2.026l.094-.28.02-3.867.02-3.868.32-.161a3.14 3.14 0 0 0 1.545-1.824c.09-.274.092-.321.106-2.167s.012-1.891-.07-2.082c-.07-.162-.494-.605-2.473-2.578-1.313-1.31-2.469-2.436-2.568-2.502a3.6 3.6 0 0 0-.86-.416l-.28-.095-4.62-.006c-2.541-.003-4.656.001-4.7.01m9.2 2.083c.088.048.79.719 1.56 1.49L19.58 6H4.42l1.4-1.403c1.329-1.332 1.503-1.487 1.74-1.56.055-.017 2.08-.028 4.5-.024l4.4.007zM21 9.054c0 1.149-.022 1.302-.221 1.564-.061.08-.194.195-.295.254-.154.09-.23.108-.464.106-.323-.002-.551-.092-.995-.39-.376-.253-.609-.327-1.025-.327s-.649.074-1.025.327c-.782.526-1.168.526-1.95 0-.376-.253-.609-.327-1.025-.327s-.649.074-1.025.327c-.782.526-1.168.526-1.95 0-.376-.253-.609-.327-1.025-.327s-.649.074-1.025.327c-.782.526-1.168.526-1.95 0-.376-.253-.609-.327-1.025-.327s-.649.074-1.025.327c-.444.298-.672.388-.995.39-.234.002-.31-.016-.464-.106a1.2 1.2 0 0 1-.291-.249C3.016 10.349 3 10.241 3 9.075V8h18zm-14.754 3.42A3.25 3.25 0 0 0 8 12.975c.632 0 1.187-.158 1.75-.499l.25-.151.25.151a3.25 3.25 0 0 0 1.75.499c.632 0 1.187-.158 1.75-.499l.25-.151.25.151a3.25 3.25 0 0 0 1.75.499c.632 0 1.187-.158 1.75-.499l.25-.151.25.152c.137.083.362.194.499.247l.25.096v3.644c.001 3.954.006 3.857-.22 4.154-.061.08-.194.195-.295.254l-.184.108-1.147.012-1.148.012-.014-1.792c-.014-1.745-.017-1.799-.107-2.072-.326-.989-1.103-1.753-2.062-2.028-.31-.089-.376-.092-1.822-.092s-1.512.003-1.822.092c-.959.275-1.736 1.039-2.062 2.028-.09.273-.093.327-.107 2.072l-.014 1.792-1.148-.012L5.7 20.98l-.184-.108a1.2 1.2 0 0 1-.291-.249c-.233-.306-.225-.15-.225-4.138l.001-3.665.249-.095c.201-.076.399-.184.736-.401.003-.002.12.065.26.15m7.064 4.587a.9.9 0 0 1 .387.242c.296.296.303.347.303 2.144V21h-4v-1.553c0-1.798.007-1.848.304-2.144.28-.281.371-.297 1.679-.3.895-.002 1.164.009 1.327.058"/></svg>