<svg xmlns="http://www.w3.org/2000/svg" width="24" height="24" fill="none" stroke="currentColor" stroke-linecap="round" stroke-linejoin="round" stroke-width="2"><path fill="#000" fill-rule="evenodd" stroke="none" d="M8.46 3.045c-.651.08-1.473.438-2 .87-.66.542-1.1 1.245-1.348 2.158-.128.467-.126 1.375.002 1.867.052.198.141.447.199.554a.98.98 0 0 0 .948.494.97.97 0 0 0 .816-.588c.103-.228.104-.465.003-.86-.134-.522-.095-.94.131-1.42.154-.327.557-.737.876-.89.492-.237.358-.23 4.391-.232 2.988-.001 3.731-.012 3.852-.055.221-.079.414-.241.539-.454.095-.161.111-.233.111-.489 0-.254-.017-.328-.108-.484a1.2 1.2 0 0 0-.254-.295c-.298-.227-.194-.221-4.194-.216-2.026.003-3.81.021-3.964.04m-4.765 8.012c-.644.201-.896.983-.497 1.534.065.09.205.214.31.276l.192.113 5.42.02 5.42.02.321.101a3.08 3.08 0 0 1 2.014 2.018c.083.273.098.403.098.861s-.015.588-.098.861c-.29.95-1.032 1.696-2.015 2.025l-.28.093-4.42.021c-3.415.015-4.446.031-4.533.07a1.15 1.15 0 0 0-.499.446c-.091.156-.108.23-.108.484 0 .257.016.327.113.492.128.218.369.409.592.469.101.028 1.632.037 4.564.028 4.064-.012 4.435-.018 4.711-.084 1.543-.366 2.756-1.291 3.433-2.617.405-.794.547-1.389.547-2.288 0-.67-.058-1.043-.248-1.6a5.7 5.7 0 0 0-.577-1.17l-.156-.23 1.091-.002c1.172-.002 1.267-.015 1.529-.215.077-.058.189-.191.25-.294.095-.161.111-.233.111-.489 0-.254-.017-.328-.108-.484a1.02 1.02 0 0 0-.582-.461c-.263-.079-16.343-.077-16.595.002"/></svg>