<svg xmlns="http://www.w3.org/2000/svg" width="24" height="24" fill="none" stroke="currentColor" stroke-linecap="round" stroke-linejoin="round" stroke-width="2"><path fill="#000" fill-rule="evenodd" stroke="none" d="M3.67 4.061c-.222.081-.42.248-.542.455-.092.156-.108.229-.107.484 0 .212.022.341.074.44.04.077.841.91 1.779 1.85L6.579 9l-1.705 1.71c-.938.94-1.736 1.771-1.773 1.845-.229.455-.045 1.046.407 1.312.165.097.234.113.492.112.212 0 .341-.022.44-.074.077-.04.91-.841 1.85-1.779L8 10.421l1.71 1.705c.94.938 1.773 1.739 1.85 1.779.099.052.228.074.44.074.258.001.327-.015.492-.112.222-.13.409-.369.473-.603a1.2 1.2 0 0 0-.066-.709c-.037-.074-.835-.905-1.773-1.845L9.421 9l1.705-1.71c.938-.94 1.739-1.773 1.779-1.85.052-.099.074-.228.074-.44.001-.255-.015-.328-.107-.484a1 1 0 0 0-1.215-.45c-.176.058-.378.246-1.927 1.788L8 7.577 6.27 5.854c-1.549-1.542-1.751-1.73-1.927-1.788a1 1 0 0 0-.673-.005m13.644 6.997c-.606.127-1.077.388-1.557.862-.286.283-.376.404-.532.72-.229.461-.274.74-.165 1.026.155.406.527.668.941.665q.615-.007.926-.628c.144-.288.314-.478.533-.596.228-.122.733-.122.96 0 .314.169.58.553.58.839 0 .331-.277.714-.733 1.014-.136.089-.587.335-1.002.547-1.163.592-1.591.959-1.913 1.642-.227.481-.323.955-.328 1.611-.004.522 0 .546.107.729.125.213.318.375.539.454.219.078 4.441.078 4.66 0 .221-.079.414-.241.539-.454.095-.161.111-.233.111-.489 0-.254-.017-.328-.108-.484a1.15 1.15 0 0 0-.499-.446c-.081-.036-.553-.055-1.671-.07l-1.557-.02.131-.149c.091-.104.313-.241.734-.455 1.197-.606 1.707-.937 2.133-1.383.428-.449.652-.841.777-1.363.367-1.529-.603-3.097-2.181-3.528-.333-.091-1.091-.114-1.425-.044"/></svg>