<svg xmlns="http://www.w3.org/2000/svg" width="24" height="24" fill="none" stroke="currentColor" stroke-linecap="round" stroke-linejoin="round" stroke-width="2"><path fill="#000" fill-rule="evenodd" stroke="none" d="M11.695 2.057a1.04 1.04 0 0 0-.567.459c-.108.183-.108.187-.108.987v.803l.121.197a.998.998 0 0 0 1.718 0l.121-.197v-.803c0-.8 0-.804-.108-.987a1.005 1.005 0 0 0-1.177-.459M5.257 4.713c-.42.197-.641.56-.607.994.028.344.136.509.676 1.035.521.507.662.588 1.018.588a.99.99 0 0 0 .926-.607c.083-.198.077-.593-.012-.786-.087-.189-.98-1.098-1.178-1.198-.21-.107-.622-.12-.823-.026m12.776-.017c-.199.071-.384.224-.834.69-.445.459-.529.611-.529.951 0 .406.201.734.555.905.232.113.615.119.838.015.198-.093 1.031-.9 1.166-1.129.148-.252.168-.606.051-.88a1.01 1.01 0 0 0-1.247-.552M11.4 7.044c-1.639.185-3.139 1.246-3.874 2.741-.368.748-.506 1.351-.506 2.215 0 .67.058 1.044.248 1.6.578 1.691 1.985 2.925 3.772 3.307.471.101 1.449.101 1.92 0 1.528-.327 2.788-1.277 3.473-2.619.405-.794.547-1.389.547-2.288s-.142-1.494-.547-2.287a5.02 5.02 0 0 0-3.193-2.551 5.2 5.2 0 0 0-1.84-.118m1.461 2.085c.943.276 1.723 1.054 2.014 2.01.083.273.098.403.098.861s-.015.588-.098.861a3.07 3.07 0 0 1-2.035 2.025c-.434.135-1.246.135-1.68 0a3.07 3.07 0 0 1-2.035-2.025c-.083-.273-.098-.403-.098-.861s.015-.588.098-.861a3.04 3.04 0 0 1 2.374-2.099c.333-.06 1.001-.017 1.362.089M2.695 11.057a1.04 1.04 0 0 0-.567.459c-.091.156-.108.23-.108.484 0 .256.016.328.111.489.125.213.318.375.539.454.208.074 1.452.074 1.66 0 .221-.079.414-.241.539-.454.095-.161.111-.233.111-.489 0-.254-.017-.328-.108-.484a1.02 1.02 0 0 0-.582-.461c-.24-.072-1.362-.071-1.595.002m17 0a1.04 1.04 0 0 0-.567.459c-.091.156-.108.23-.108.484 0 .256.016.328.111.489.125.213.318.375.539.454.208.074 1.452.074 1.66 0 .221-.079.414-.241.539-.454.095-.161.111-.233.111-.489 0-.254-.017-.328-.108-.484a1.02 1.02 0 0 0-.582-.461c-.24-.072-1.362-.071-1.595.002M5.923 16.762c-.212.096-1.003.859-1.151 1.11-.306.517-.053 1.208.522 1.428.249.095.603.065.836-.072.228-.134 1.035-.968 1.127-1.165.159-.34.063-.858-.207-1.111a1.05 1.05 0 0 0-1.127-.19m11.296.002q-.55.29-.549.892c0 .16.027.308.073.407.092.197.899 1.031 1.127 1.165.233.137.587.167.836.072.575-.22.828-.911.522-1.428-.148-.251-.939-1.014-1.151-1.11-.246-.112-.644-.111-.858.002m-5.524 2.293a1.04 1.04 0 0 0-.567.459c-.108.183-.108.187-.108.987v.803l.121.197a.998.998 0 0 0 1.718 0l.121-.197v-.803c0-.8 0-.804-.108-.987a1.005 1.005 0 0 0-1.177-.459"/></svg>