<svg xmlns="http://www.w3.org/2000/svg" width="24" height="24" fill="none" stroke="currentColor" stroke-linecap="round" stroke-linejoin="round" stroke-width="2"><path fill="#000" fill-rule="evenodd" stroke="none" d="M9.695 2.057a1.04 1.04 0 0 0-.567.459c-.108.183-.108.187-.108.987v.803l.121.197a.998.998 0 0 0 1.718 0l.121-.197v-.803c0-.8 0-.804-.108-.987a1.005 1.005 0 0 0-1.177-.459m6.96.006c-.332.122-.429.253-.934 1.256l-.472.938-.209-.418c-.238-.476-.422-.678-.704-.774-.238-.081-.385-.082-.652-.002-.422.125-.717.575-.674 1.027.015.156.143.451.569 1.306l.549 1.103-.554 1.114c-.549 1.105-.554 1.117-.554 1.388v.273l.679 1.363.679 1.363-.679 1.363-.679 1.363v.273c0 .271.005.283.554 1.388l.554 1.114-.549 1.103c-.61 1.225-.644 1.339-.518 1.718.128.385.533.678.939.678.227 0 .512-.116.679-.275.089-.085.238-.318.361-.564l.209-.418.472.938c.511 1.016.603 1.138.95 1.257.686.233 1.388-.313 1.319-1.028-.015-.152-.131-.425-.484-1.136-.405-.814-.453-.933-.375-.915.753.167 1.088.168 1.372.002a1.006 1.006 0 0 0 .256-1.51c-.194-.235-.382-.297-1.563-.511a75 75 0 0 1-1.186-.22c-.071-.017-.177-.196-.49-.821l-.4-.799.5-1 .5-1h1.879l.659.878c.727.967.841 1.069 1.23 1.109a.99.99 0 0 0 1.099-.862c.034-.284-.045-.524-.274-.838l-.194-.267.89-.02c.889-.02.891-.02 1.083-.133a1.003 1.003 0 0 0-.119-1.795c-.071-.031-.437-.057-.984-.07l-.87-.022.194-.267c.229-.314.308-.554.274-.838a.984.984 0 0 0-1.106-.858c-.393.046-.498.141-1.223 1.105l-.659.878H16.12l-.5-1-.5-1 .4-.799c.314-.629.419-.804.49-.82.049-.011.549-.103 1.11-.203s1.108-.211 1.216-.245C18.706 6.814 19 6.4 19 6c0-.395-.295-.81-.667-.936-.242-.083-.346-.081-.853.016l-.429.08c-.005 0 .2-.421.455-.935.513-1.032.555-1.179.438-1.532a1.3 1.3 0 0 0-.179-.335c-.239-.289-.755-.427-1.11-.295M3.31 4.701c-.222.081-.42.248-.542.455-.092.156-.108.229-.107.484.001.39.05.478.554.994.486.497.667.628.928.675a.987.987 0 0 0 1.166-1.166c-.048-.267-.18-.447-.698-.947-.338-.326-.484-.44-.632-.49a1 1 0 0 0-.669-.005m6.048 3.36c-1.128.176-2.215.913-2.789 1.892a3.992 3.992 0 0 0 1.943 5.751c.774.312 1.61.38 1.983.161.753-.441.626-1.56-.205-1.81A1.6 1.6 0 0 0 9.922 14c-.81 0-1.635-.659-1.849-1.477-.225-.862.108-1.713.864-2.209.293-.192.536-.267 1.015-.313.286-.027.413-.06.551-.141.745-.436.612-1.557-.213-1.805-.221-.066-.478-.065-.932.006m-7.663 2.996a1.04 1.04 0 0 0-.567.459c-.091.156-.108.23-.108.484 0 .256.016.328.111.489.125.213.318.375.539.454.208.074 1.452.074 1.66 0 .221-.079.414-.241.539-.454.095-.161.111-.233.111-.489 0-.254-.017-.328-.108-.484a1.02 1.02 0 0 0-.582-.461c-.24-.072-1.362-.071-1.595.002m2.228 5.705c-.211.096-1.003.858-1.149 1.106-.272.461-.102 1.08.374 1.359.165.097.235.113.492.113.253 0 .328-.017.48-.107.266-.157 1.022-.942 1.119-1.162a.975.975 0 0 0-.897-1.39c-.155 0-.305.03-.419.081m5.772 2.295a1.04 1.04 0 0 0-.567.459c-.108.183-.108.187-.108.987v.803l.121.197a.998.998 0 0 0 1.718 0l.121-.197v-.803c0-.8 0-.804-.108-.987a1.005 1.005 0 0 0-1.177-.459"/></svg>