<svg xmlns="http://www.w3.org/2000/svg" width="24" height="24" fill="none" stroke="currentColor" stroke-linecap="round" stroke-linejoin="round" stroke-width="2"><path fill="#000" fill-rule="evenodd" stroke="none" d="M11.695 1.057a1.04 1.04 0 0 0-.567.459l-.108.184v2.606l.121.197a.998.998 0 0 0 1.718 0l.121-.197V1.7l-.108-.184a1.005 1.005 0 0 0-1.177-.459M4.444 4.025a.99.99 0 0 0-.515.664c-.047.238.006.562.12.73.123.18 1.505 1.569 1.694 1.701.437.306 1.09.177 1.388-.274a1.04 1.04 0 0 0-.011-1.103c-.212-.305-1.606-1.652-1.8-1.74a1.06 1.06 0 0 0-.876.022m14.236-.022c-.193.088-1.589 1.436-1.798 1.737-.402.578-.065 1.407.623 1.529.265.047.553-.009.75-.147.091-.063.502-.454.913-.869.539-.543.771-.806.83-.939.297-.672-.168-1.396-.896-1.393-.156 0-.306.03-.422.082M11.4 7.044c-1.639.185-3.139 1.246-3.874 2.741-.368.748-.506 1.351-.506 2.215 0 .67.058 1.044.248 1.6.578 1.691 1.985 2.925 3.772 3.307.471.101 1.449.101 1.92 0 1.528-.327 2.788-1.277 3.473-2.619.37-.726.543-1.393.545-2.109.002-.395-.008-.461-.1-.639-.268-.522-.956-.695-1.427-.359-.5.356-.646.44-.889.507-1.283.355-2.513-.748-2.289-2.053.056-.328.183-.594.45-.942.107-.14.215-.33.24-.424a1.03 1.03 0 0 0-.347-1.05c-.284-.216-.532-.252-1.216-.175m-1.148 3.046c.014.27.053.598.088.73.386 1.448 1.392 2.454 2.84 2.84.132.035.46.074.73.088s.49.035.49.048c0 .043-.4.442-.61.608-.26.205-.57.363-.951.482-.432.135-1.245.135-1.679 0a3.07 3.07 0 0 1-2.035-2.025c-.138-.456-.144-1.218-.012-1.681.102-.357.303-.751.518-1.015.157-.192.535-.565.573-.565.013 0 .035.22.048.49m-8.557.967a1.04 1.04 0 0 0-.567.459c-.091.156-.108.23-.108.484 0 .256.016.328.111.489.125.213.318.375.539.454.215.077 2.445.077 2.66 0 .221-.079.414-.241.539-.454.095-.161.111-.233.111-.489 0-.254-.017-.328-.108-.484a1.02 1.02 0 0 0-.582-.461c-.251-.076-2.353-.074-2.595.002m18 0a1.04 1.04 0 0 0-.567.459c-.091.156-.108.23-.108.484 0 .256.016.328.111.489.125.213.318.375.539.454.215.077 2.445.077 2.66 0 .221-.079.414-.241.539-.454.095-.161.111-.233.111-.489 0-.254-.017-.328-.108-.484a1.02 1.02 0 0 0-.582-.461c-.251-.076-2.353-.074-2.595.002M5.88 16.803c-.193.088-1.589 1.436-1.798 1.737-.402.578-.065 1.407.623 1.529.265.047.553-.01.75-.148.19-.133 1.573-1.521 1.696-1.702.196-.289.171-.793-.056-1.111-.254-.357-.798-.494-1.215-.305m11.364.022c-.504.251-.698.942-.393 1.395.12.178 1.503 1.568 1.692 1.7.315.221.798.219 1.122-.003.434-.299.554-.946.255-1.374-.212-.305-1.606-1.652-1.8-1.74a1.06 1.06 0 0 0-.876.022m-5.549 2.232a1.04 1.04 0 0 0-.567.459l-.108.184v2.606l.121.197a.998.998 0 0 0 1.718 0l.121-.197V19.7l-.108-.184a1.005 1.005 0 0 0-1.177-.459"/></svg>