<svg xmlns="http://www.w3.org/2000/svg" width="24" height="24" fill="none" stroke="currentColor" stroke-linecap="round" stroke-linejoin="round" stroke-width="2"><path fill="#000" fill-rule="evenodd" stroke="none" d="M11.695 1.057a1.04 1.04 0 0 0-.567.459l-.108.184v2.606l.121.197a.998.998 0 0 0 1.718 0l.121-.197V1.7l-.108-.184a1.005 1.005 0 0 0-1.177-.459M4.78 3.947q-.59.136-.779.638c-.098.263-.101.374-.017.656.058.197.132.284.85 1.011.432.438.859.847.949.909.317.22.799.218 1.122-.004.434-.299.554-.945.256-1.374-.176-.254-1.644-1.681-1.801-1.751-.155-.069-.456-.114-.58-.085m14.069.015a1 1 0 0 0-.3.122c-.186.126-1.574 1.506-1.707 1.696-.403.577-.065 1.407.623 1.529.264.047.552-.009.75-.147.091-.062.519-.472.951-.91.718-.727.792-.814.85-1.011.079-.268.08-.334.002-.596a1.006 1.006 0 0 0-1.169-.683M11.4 7.044c-1.639.185-3.139 1.246-3.874 2.741-.368.748-.506 1.351-.506 2.215 0 .67.058 1.044.248 1.6.578 1.691 1.985 2.925 3.772 3.307.471.101 1.449.101 1.92 0 1.528-.327 2.788-1.277 3.473-2.619.405-.794.547-1.389.547-2.288s-.142-1.494-.547-2.287a5.02 5.02 0 0 0-3.193-2.551 5.2 5.2 0 0 0-1.84-.118m1.461 2.085c.943.276 1.723 1.054 2.014 2.01.083.273.098.403.098.861s-.015.588-.098.861a3.07 3.07 0 0 1-2.035 2.025c-.434.135-1.246.135-1.68 0a3.07 3.07 0 0 1-2.035-2.025c-.083-.273-.098-.403-.098-.861s.015-.588.098-.861a3.04 3.04 0 0 1 2.374-2.099c.333-.06 1.001-.017 1.362.089M1.695 11.057a1.04 1.04 0 0 0-.567.459c-.091.156-.108.23-.108.484 0 .256.016.328.111.489.125.213.318.375.539.454.215.077 2.445.077 2.66 0 .221-.079.414-.241.539-.454.095-.161.111-.233.111-.489 0-.254-.017-.328-.108-.484a1.02 1.02 0 0 0-.582-.461c-.251-.076-2.353-.074-2.595.002m18 0a1.04 1.04 0 0 0-.567.459c-.091.156-.108.23-.108.484 0 .256.016.328.111.489.125.213.318.375.539.454.215.077 2.445.077 2.66 0 .221-.079.414-.241.539-.454.095-.161.111-.233.111-.489 0-.254-.017-.328-.108-.484a1.02 1.02 0 0 0-.582-.461c-.251-.076-2.353-.074-2.595.002m-13.8 5.723c-.144.072-.434.336-1.024.932-.756.763-.828.849-.887 1.047-.084.282-.081.393.017.656.106.283.356.517.642.602.264.079.33.079.598-.001.198-.059.284-.131 1.049-.888.609-.603.859-.879.931-1.026a.973.973 0 0 0-.881-1.422.9.9 0 0 0-.445.1m11.309.005a.986.986 0 0 0-.363 1.435c.061.088.469.514.907.946.727.718.814.792 1.011.85.269.08.333.08.604 0 .298-.089.564-.355.653-.653.08-.271.08-.335 0-.604-.059-.198-.131-.284-.887-1.047-.929-.939-1.062-1.032-1.469-1.032a.9.9 0 0 0-.456.105m-5.509 2.272a1.04 1.04 0 0 0-.567.459l-.108.184v2.606l.121.197a.998.998 0 0 0 1.718 0l.121-.197V19.7l-.108-.184a1.005 1.005 0 0 0-1.177-.459"/></svg>