<svg xmlns="http://www.w3.org/2000/svg" width="24" height="24" fill="none" stroke="currentColor" stroke-linecap="round" stroke-linejoin="round" stroke-width="2"><path fill="#000" fill-rule="evenodd" stroke="none" d="M11.58 1.096c-.158.076-.64.538-2.306 2.21-1.158 1.163-2.136 2.175-2.173 2.249-.229.455-.045 1.046.407 1.312.165.097.234.113.492.112.213 0 .341-.022.44-.074.077-.041.684-.615 1.349-1.277l1.209-1.204.011 2.941.011 2.941.121.197a.998.998 0 0 0 1.718 0l.121-.197.011-2.941.011-2.941 1.209 1.204c.665.662 1.272 1.236 1.349 1.277.099.052.227.074.44.074.258.001.327-.015.492-.112.222-.13.409-.369.473-.603a1.2 1.2 0 0 0-.066-.709c-.037-.074-1.015-1.086-2.173-2.249-1.666-1.672-2.148-2.134-2.306-2.21a.97.97 0 0 0-.84 0m-6.8 8.851q-.59.136-.779.638c-.098.263-.101.374-.017.656.058.197.132.284.85 1.011.432.438.859.847.949.909.438.304 1.09.176 1.387-.273a1.04 1.04 0 0 0-.008-1.103c-.177-.255-1.645-1.683-1.802-1.753-.155-.069-.456-.114-.58-.085m14.069.015a1 1 0 0 0-.3.122c-.186.126-1.574 1.506-1.707 1.696-.403.577-.065 1.407.623 1.529.264.047.552-.009.75-.147.091-.062.519-.472.951-.91.718-.727.792-.814.85-1.011.079-.268.08-.334.002-.596a1.006 1.006 0 0 0-1.169-.683M11.4 13.044c-1.639.185-3.139 1.246-3.874 2.741-.34.69-.503 1.357-.505 2.058-.001.446.003.47.12.66a.998.998 0 0 0 1.711.011c.098-.16.12-.25.153-.631a5 5 0 0 1 .128-.754c.269-.93 1.054-1.714 2.006-2.004.273-.083.403-.098.861-.098s.588.015.861.098c.952.29 1.737 1.074 2.006 2.004.049.17.107.509.128.754.033.381.055.471.153.631a.998.998 0 0 0 1.711-.011c.117-.19.121-.214.12-.66-.004-1.767-1.107-3.489-2.766-4.318a5 5 0 0 0-2.813-.481m-9.705 4.013a1.04 1.04 0 0 0-.567.459c-.091.156-.108.23-.108.484 0 .256.016.328.111.489.125.213.318.375.539.454.215.077 2.445.077 2.66 0 .221-.079.414-.241.539-.454.095-.161.111-.233.111-.489 0-.254-.017-.328-.108-.484a1.02 1.02 0 0 0-.582-.461c-.251-.076-2.353-.074-2.595.002m18 0a1.04 1.04 0 0 0-.567.459c-.091.156-.108.23-.108.484 0 .256.016.328.111.489.125.213.318.375.539.454.215.077 2.445.077 2.66 0 .221-.079.414-.241.539-.454.095-.161.111-.233.111-.489 0-.254-.017-.328-.108-.484a1.02 1.02 0 0 0-.582-.461c-.251-.076-2.353-.074-2.595.002m-18 4a1.04 1.04 0 0 0-.567.459c-.091.156-.108.23-.108.484 0 .256.016.328.111.489.125.213.318.375.539.454.223.08 20.437.08 20.66 0 .221-.079.414-.241.539-.454.095-.161.111-.233.111-.489 0-.254-.017-.328-.108-.484a1.02 1.02 0 0 0-.582-.461c-.263-.079-20.342-.077-20.595.002"/></svg>