<svg xmlns="http://www.w3.org/2000/svg" width="24" height="24" fill="none" stroke="currentColor" stroke-linecap="round" stroke-linejoin="round" stroke-width="2"><path fill="#000" fill-rule="evenodd" stroke="none" d="M11.695 1.057a1.04 1.04 0 0 0-.567.459l-.108.184-.011 2.937-.011 2.937-1.229-1.221C8.688 5.279 8.516 5.124 8.343 5.066a1 1 0 0 0-1.215.45c-.092.156-.108.229-.107.484 0 .212.022.341.074.44.04.077 1.021 1.091 2.179 2.254 2.293 2.302 2.297 2.305 2.726 2.305s.433-.003 2.726-2.305c1.158-1.163 2.139-2.177 2.179-2.254.052-.099.074-.228.074-.44.001-.255-.015-.328-.107-.484a1 1 0 0 0-1.215-.45c-.173.058-.345.213-1.426 1.287l-1.229 1.221-.011-2.937L12.98 1.7l-.108-.184a1.005 1.005 0 0 0-1.177-.459M4.78 9.947q-.59.136-.779.638c-.098.263-.101.374-.017.656.058.197.132.284.85 1.011.432.438.859.847.949.909.438.304 1.09.176 1.387-.273a1.04 1.04 0 0 0-.008-1.103c-.177-.255-1.645-1.683-1.802-1.753-.155-.069-.456-.114-.58-.085m14.069.015a1 1 0 0 0-.3.122c-.186.126-1.574 1.506-1.707 1.696-.403.577-.065 1.407.623 1.529.264.047.552-.009.75-.147.091-.062.519-.472.951-.91.718-.727.792-.814.85-1.011.079-.268.08-.334.002-.596a1.006 1.006 0 0 0-1.169-.683M11.4 13.044c-1.639.185-3.139 1.246-3.874 2.741-.34.69-.503 1.357-.505 2.058-.001.446.003.47.12.66a.998.998 0 0 0 1.711.011c.098-.16.12-.25.153-.631a5 5 0 0 1 .128-.754c.269-.93 1.054-1.714 2.006-2.004.273-.083.403-.098.861-.098s.588.015.861.098c.952.29 1.737 1.074 2.006 2.004.049.17.107.509.128.754.033.381.055.471.153.631a.998.998 0 0 0 1.711-.011c.117-.19.121-.214.12-.66-.004-1.767-1.107-3.489-2.766-4.318a5 5 0 0 0-2.813-.481m-9.705 4.013a1.04 1.04 0 0 0-.567.459c-.091.156-.108.23-.108.484 0 .256.016.328.111.489.125.213.318.375.539.454.215.077 2.445.077 2.66 0 .221-.079.414-.241.539-.454.095-.161.111-.233.111-.489 0-.254-.017-.328-.108-.484a1.02 1.02 0 0 0-.582-.461c-.251-.076-2.353-.074-2.595.002m18 0a1.04 1.04 0 0 0-.567.459c-.091.156-.108.23-.108.484 0 .256.016.328.111.489.125.213.318.375.539.454.215.077 2.445.077 2.66 0 .221-.079.414-.241.539-.454.095-.161.111-.233.111-.489 0-.254-.017-.328-.108-.484a1.02 1.02 0 0 0-.582-.461c-.251-.076-2.353-.074-2.595.002m-18 4a1.04 1.04 0 0 0-.567.459c-.091.156-.108.23-.108.484 0 .256.016.328.111.489.125.213.318.375.539.454.223.08 20.437.08 20.66 0 .221-.079.414-.241.539-.454.095-.161.111-.233.111-.489 0-.254-.017-.328-.108-.484a1.02 1.02 0 0 0-.582-.461c-.263-.079-20.342-.077-20.595.002"/></svg>