<svg xmlns="http://www.w3.org/2000/svg" width="24" height="24" fill="none" stroke="currentColor" stroke-linecap="round" stroke-linejoin="round" stroke-width="2"><path fill="#000" fill-rule="evenodd" stroke="none" d="M17.38 4.057c-.95.188-1.758.782-2.156 1.585-.242.487-.278.758-.143 1.071.112.26.373.498.624.568.525.147.966-.067 1.235-.601.214-.426.588-.68 1-.68.387 0 .801.265.965.618.17.364.112.633-.211.981-.257.278-.598.492-1.526.96-1.053.53-1.501.923-1.816 1.59-.227.481-.323.955-.328 1.611-.004.522 0 .546.107.729.125.213.318.375.539.454.219.078 4.441.078 4.66 0 .221-.079.414-.241.539-.454.095-.161.111-.233.111-.489 0-.254-.017-.328-.108-.484a1.15 1.15 0 0 0-.499-.446c-.081-.036-.553-.055-1.671-.07l-1.557-.02.13-.149c.09-.102.308-.238.698-.436 1.178-.596 1.621-.874 2.062-1.293q1.022-.973.952-2.242c-.038-.692-.244-1.23-.663-1.728-.424-.505-1.009-.881-1.604-1.03-.366-.091-.998-.113-1.34-.045M3.67 10.061c-.222.081-.42.248-.542.455-.092.156-.108.229-.107.484 0 .212.022.341.074.44.04.077.841.91 1.779 1.85L6.579 15l-1.705 1.71c-.938.941-1.736 1.771-1.773 1.845-.229.455-.045 1.046.407 1.312.165.097.234.113.492.112.212 0 .341-.022.44-.074.077-.04.91-.841 1.85-1.779L8 16.421l1.71 1.705c.94.938 1.773 1.739 1.85 1.779.099.052.228.074.44.074.258.001.327-.015.492-.112.222-.13.409-.369.473-.603a1.2 1.2 0 0 0-.066-.709c-.037-.074-.835-.904-1.773-1.845L9.421 15l1.705-1.71c.938-.94 1.739-1.773 1.779-1.85.052-.099.074-.228.074-.44.001-.255-.015-.328-.107-.484a1 1 0 0 0-1.215-.45c-.176.058-.378.246-1.927 1.788L8 13.577l-1.73-1.723c-1.549-1.542-1.751-1.73-1.927-1.788a1 1 0 0 0-.673-.005"/></svg>