<svg xmlns="http://www.w3.org/2000/svg" width="24" height="24" fill="none" stroke="currentColor" stroke-linecap="round" stroke-linejoin="round" stroke-width="2"><path fill="#000" fill-rule="evenodd" stroke="none" d="M4.499 2.042A3.05 3.05 0 0 0 2.114 4.16l-.094.3v6.58c0 6.212.004 6.599.073 6.92.433 2.024 1.923 3.514 3.947 3.947.321.069.708.073 6.92.073h6.58l.3-.094a3.09 3.09 0 0 0 2.046-2.046l.094-.3v-5.08l-.094-.3a3.07 3.07 0 0 0-.975-1.465 3 3 0 0 0-1.582-.674l-.25-.029.31-.33c.639-.678.932-1.42.93-2.35a3.3 3.3 0 0 0-.544-1.845c-.197-.307-2.179-2.341-2.635-2.705a3.39 3.39 0 0 0-3.815-.318c-.313.176-.486.315-.929.746l-.385.374-.021-.572c-.017-.432-.043-.641-.11-.852a3.09 3.09 0 0 0-2.019-2.018l-.321-.1-2.42-.007c-1.331-.004-2.511.008-2.621.027M9.31 4.061a1 1 0 0 1 .631.635c.053.185.059.957.05 6.527L9.98 17.54l-.101.321a3.09 3.09 0 0 1-2.039 2.025c-.434.135-1.246.135-1.68 0a3.09 3.09 0 0 1-2.039-2.025l-.101-.321-.011-6.317c-.012-7.122-.035-6.591.294-6.92.301-.301.265-.297 2.68-.3C8.772 4 9.138 4.01 9.31 4.061m6.299 2.091c.213.105.42.294 1.375 1.256C18.296 8.73 18.3 8.736 18.3 9.32c0 .676.209.427-3.262 3.9L12 16.26V8.418l1.09-1.085c.6-.596 1.153-1.116 1.23-1.155.431-.219.879-.228 1.289-.026m3.701 7.909c.279.083.546.35.629.629.086.288.091 4.317.006 4.6a1.02 1.02 0 0 1-.461.582l-.184.108-4.1.011-4.1.01 3-3 3-3.001h1.003c.781 0 1.048.013 1.207.061M6.695 16.055a1.05 1.05 0 0 0-.567.461c-.091.156-.108.23-.108.484 0 .257.016.327.113.492.518.882 1.865.526 1.865-.492a.99.99 0 0 0-.535-.888 1.17 1.17 0 0 0-.768-.057"/></svg>