<svg xmlns="http://www.w3.org/2000/svg" width="24" height="24" fill="none" stroke="currentColor" stroke-linecap="round" stroke-linejoin="round" stroke-width="2"><path fill="#000" fill-rule="evenodd" stroke="none" d="M9.695 2.057a1.04 1.04 0 0 0-.567.459L9.02 2.7l-.01 6.15L8.999 15H7.446c-1.688 0-1.788.011-2.064.221-.08.061-.195.194-.254.295-.091.156-.108.23-.108.484 0 .256.016.328.111.489.061.103.173.236.25.294.273.208.319.213 2.028.215L8.997 17l.012 2.153.011 2.153.121.197c.068.11.205.253.311.325.471.316 1.102.171 1.407-.325l.121-.197.011-2.153.012-2.153 2.088-.002c1.64-.001 2.121-.013 2.239-.055.221-.079.414-.241.539-.454.095-.161.111-.233.111-.489 0-.254-.017-.328-.108-.484a1.2 1.2 0 0 0-.254-.295c-.284-.217-.335-.221-2.564-.221H11v-4.477l3.11-.012c2.895-.01 3.121-.016 3.27-.083.356-.16.619-.555.619-.928 0-.245-.135-.549-.324-.728-.278-.264-.112-.252-3.554-.252H11V4l3.59-.002c2.894-.001 3.619-.012 3.74-.055.221-.079.414-.241.539-.454.095-.161.111-.233.111-.489 0-.254-.017-.328-.108-.484a1.02 1.02 0 0 0-.582-.461c-.261-.079-8.344-.076-8.595.002"/></svg>