<svg xmlns="http://www.w3.org/2000/svg" width="24" height="24" fill="none" stroke="currentColor" stroke-linecap="round" stroke-linejoin="round" stroke-width="2"><path fill="#000" fill-rule="evenodd" stroke="none" d="M5.67 1.061c-.222.081-.42.248-.542.455-.092.156-.108.229-.107.484 0 .213.022.34.075.44.04.077.389.458.774.847l.701.707-1.555.015c-1.522.015-1.563.017-1.877.114A3.08 3.08 0 0 0 1.114 6.16l-.094.3v11.08l.094.3c.304.976 1.035 1.714 2.026 2.046l.28.094 3.851.011c2.553.008 3.902-.002 4.004-.03.223-.06.464-.25.592-.469.097-.165.113-.235.113-.492 0-.254-.017-.328-.108-.484a1.15 1.15 0 0 0-.499-.446c-.087-.038-.99-.055-3.893-.07l-3.78-.02-.184-.108a1.2 1.2 0 0 1-.291-.249C2.988 17.312 3 17.608 3 12.022c0-5.782-.02-5.395.303-5.719.291-.291.37-.303 1.933-.303h1.341l-.704.71c-.387.391-.734.771-.772.845-.229.453-.045 1.046.407 1.312.165.097.234.113.492.112.212 0 .341-.022.44-.074.077-.04.866-.796 1.754-1.679C9.957 5.472 9.999 5.42 9.999 5c0-.422-.039-.47-1.824-2.244-1.459-1.449-1.656-1.632-1.832-1.69a1 1 0 0 0-.673-.005m7.025 2.995c-.23.073-.439.243-.567.46-.091.156-.108.23-.108.484 0 .256.016.328.111.489.125.213.318.375.539.454.121.043.854.054 3.793.055 4.123.002 3.916-.013 4.234.305.323.324.303-.06.303 5.698 0 4.211-.01 5.138-.055 5.289a1.02 1.02 0 0 1-.461.582l-.184.108-1.44.012-1.44.012.705-.712c.388-.392.739-.775.779-.852.053-.1.075-.227.075-.44.001-.255-.015-.328-.107-.484a1 1 0 0 0-1.215-.45c-.176.058-.373.241-1.832 1.69-1.785 1.774-1.824 1.822-1.824 2.244 0 .42.042.472 1.805 2.226.888.883 1.675 1.636 1.749 1.673.455.229 1.046.045 1.312-.407.097-.165.113-.234.112-.492 0-.213-.022-.34-.075-.44-.04-.077-.389-.458-.774-.847l-.701-.707 1.575-.015c1.516-.014 1.587-.018 1.856-.107a3.1 3.1 0 0 0 2.026-2.044l.094-.3V6.46l-.094-.3a3.09 3.09 0 0 0-2.025-2.038l-.321-.101-3.84-.009c-3.074-.006-3.873.002-4.005.044m-1.337 4.005c-1.128.176-2.215.913-2.789 1.892a3.992 3.992 0 0 0 1.943 5.751 3.99 3.99 0 0 0 5.192-2.216 3.96 3.96 0 0 0 .001-2.972 3.98 3.98 0 0 0-3.1-2.458 3.7 3.7 0 0 0-1.247.003m1.165 2.012a2.01 2.01 0 0 1 1.444 1.617c.1.653-.094 1.243-.564 1.714-.401.403-.856.596-1.403.596q-.771 0-1.347-.535c-1.33-1.236-.464-3.46 1.347-3.46.143 0 .378.031.523.068"/></svg>