<svg xmlns="http://www.w3.org/2000/svg" width="24" height="24" fill="none" stroke="currentColor" stroke-linecap="round" stroke-linejoin="round" stroke-width="2"><path fill="#000" fill-rule="evenodd" stroke="none" d="M2.695 2.056c-.23.073-.439.243-.567.46L2.02 2.7l-.012 1.715c-.01 1.507-.003 1.739.055 1.92.062.193.395.534 5.542 5.686l5.475 5.48-.423.42c-.557.552-.637.688-.637 1.079 0 .257.016.327.113.492.13.222.369.409.603.473.203.054.531.024.709-.066.074-.037.68-.61 1.345-1.273l1.211-1.205 1.287 1.287 1.288 1.288-.203.214c-.297.314-.351.436-.352.79-.001.258.015.327.112.492.28.476.899.646 1.359.374.214-.127 2.314-2.239 2.413-2.426.052-.099.074-.227.074-.44.001-.255-.015-.328-.107-.484a1.05 1.05 0 0 0-.556-.458c-.372-.131-.711-.039-1.075.291l-.248.224-1.286-1.286-1.286-1.286 1.205-1.211c.663-.665 1.238-1.273 1.279-1.35.052-.099.074-.227.074-.44.001-.255-.015-.328-.107-.484a1 1 0 0 0-1.213-.45c-.154.053-.295.165-.677.538l-.482.472-5.46-5.452C8.309 3.899 6.529 2.148 6.42 2.096c-.148-.071-.282-.077-1.86-.084-1.312-.006-1.738.004-1.865.044m15.026-.009a1 1 0 0 0-.26.122c-.177.121-3.647 3.583-3.779 3.771a1 1 0 0 0 .258 1.38c.318.219.804.219 1.115.001.091-.063.885-.836 1.765-1.718L18.42 4H20v1.58l-1.603 1.6c-.882.88-1.653 1.672-1.715 1.76a.995.995 0 0 0 .258 1.38c.318.219.803.219 1.115.002.091-.063.986-.94 1.99-1.949 1.674-1.682 1.83-1.85 1.891-2.038.059-.181.066-.406.056-1.92L21.98 2.7l-.108-.184a1.2 1.2 0 0 0-.254-.295c-.278-.212-.369-.221-2.134-.217-.944.002-1.682.02-1.763.043M10.83 9.25l5.25 5.25-.79.79-.79.79-5.25-5.25L4 5.58V4h1.58zm-6.16 3.811c-.222.081-.42.248-.542.455-.092.156-.108.229-.107.484 0 .213.022.341.074.44.041.077.504.572 1.029 1.101l.955.96-1.036 1.036-1.036 1.036-.248-.224c-.364-.33-.703-.422-1.075-.291a1.05 1.05 0 0 0-.556.458c-.092.156-.108.229-.107.484 0 .213.022.341.074.44.102.193 2.202 2.3 2.425 2.433.152.091.226.107.48.107.257 0 .327-.016.492-.113a.99.99 0 0 0 .496-.972c-.027-.263-.109-.418-.361-.685l-.202-.214 1.036-1.037 1.037-1.037.461.454c.564.555.645.602 1.041.603.258.001.327-.015.492-.112.476-.28.646-.899.374-1.359-.055-.092-1.051-1.115-2.213-2.273-1.905-1.897-2.132-2.111-2.31-2.17a1 1 0 0 0-.673-.004"/></svg>