<svg xmlns="http://www.w3.org/2000/svg" width="24" height="24" fill="none" stroke="currentColor" stroke-linecap="round" stroke-linejoin="round" stroke-width="2"><path fill="#000" fill-rule="evenodd" stroke="none" d="M2.695 2.056c-.23.073-.439.243-.567.46L2.02 2.7l-.012 1.715c-.01 1.507-.003 1.739.055 1.92.062.193.395.534 5.542 5.686l5.475 5.48-.423.42c-.557.552-.637.688-.637 1.079 0 .257.016.327.113.492.13.222.369.409.603.473.203.054.531.024.709-.066.074-.037.68-.61 1.345-1.273l1.211-1.205 1.287 1.287 1.288 1.288-.203.214c-.297.314-.351.436-.352.79-.001.258.015.327.112.492.28.476.899.646 1.359.374.214-.127 2.314-2.239 2.413-2.426.052-.099.074-.227.074-.44.001-.255-.015-.328-.107-.484a1.05 1.05 0 0 0-.556-.458c-.372-.131-.711-.039-1.075.291l-.248.224-1.286-1.286-1.286-1.286 1.205-1.211c.663-.665 1.238-1.273 1.279-1.35.052-.099.074-.227.074-.44.001-.255-.015-.328-.107-.484a1 1 0 0 0-1.213-.45c-.154.053-.295.165-.677.538l-.482.472-5.46-5.452C8.309 3.899 6.529 2.148 6.42 2.096c-.148-.071-.282-.077-1.86-.084-1.312-.006-1.738.004-1.865.044M10.83 9.25l5.25 5.25-.79.79-.79.79-5.25-5.25L4 5.58V4h1.58z"/></svg>