<svg xmlns="http://www.w3.org/2000/svg" width="24" height="24" fill="none" stroke="currentColor" stroke-linecap="round" stroke-linejoin="round" stroke-width="2"><path fill="#000" fill-rule="evenodd" stroke="none" d="M17.67 1.061c-.222.081-.42.248-.542.455-.092.156-.108.229-.107.484 0 .213.022.34.075.44.04.077.391.46.778.851l.704.71-.788.789-.788.788-1.231-1.223c-1.083-1.076-1.255-1.231-1.428-1.289a1 1 0 0 0-1.215.45c-.092.156-.108.229-.107.484.001.354.055.476.352.79l.202.214-4.962 4.968c-2.729 2.732-5.016 5.049-5.082 5.148a4 4 0 0 0-.457.961c-.082.261-.094.378-.093.919.002.597.007.635.135 1.01.074.215.214.519.311.677l.177.287-1.218 1.223c-.669.673-1.248 1.284-1.285 1.358-.229.454-.045 1.046.407 1.312.165.097.234.113.492.112.213 0 .341-.022.44-.074.077-.041.689-.62 1.36-1.289l1.22-1.215.12.082c.225.153.643.35.942.443.258.081.379.094.898.093.636-.001.807-.033 1.32-.247.575-.24.591-.255 5.748-5.406l4.948-4.941.215.202c.313.297.435.351.789.352.258.001.327-.015.492-.112.222-.13.409-.369.473-.603a1.2 1.2 0 0 0-.066-.709c-.037-.074-.61-.68-1.273-1.345l-1.205-1.211.789-.789.789-.788.71.704c.391.387.774.738.851.778.1.053.227.075.44.075.258.001.327-.015.492-.112.476-.28.646-.899.374-1.359-.055-.092-1.051-1.115-2.213-2.273-1.905-1.897-2.132-2.111-2.31-2.17a1 1 0 0 0-.673-.004M16.3 7.72 17.58 9l-2.29 2.29L13 13.58l-1.29-1.29L10.42 11l2.28-2.28A188 188 0 0 1 15 6.44c.011 0 .596.576 1.3 1.28m-6 6 1.28 1.281-1.9 1.897c-2.176 2.174-2.11 2.122-2.72 2.122-.477 0-.6-.072-1.241-.724-.646-.657-.739-.826-.739-1.336 0-.252.02-.382.076-.5.05-.105.74-.826 2-2.09C8.113 13.308 8.988 12.44 9 12.44c.011 0 .596.576 1.3 1.28"/></svg>