<svg xmlns="http://www.w3.org/2000/svg" width="24" height="24" fill="none" stroke="currentColor" stroke-linecap="round" stroke-linejoin="round" stroke-width="2"><path fill="#000" fill-rule="evenodd" stroke="none" d="M6.38 1.043c-2.596.256-4.699 2.172-5.266 4.797-.13.606-.13 1.714 0 2.32.525 2.431 2.299 4.204 4.726 4.725.606.13 1.714.13 2.32 0 1.237-.265 2.252-.817 3.109-1.69.84-.855 1.357-1.826 1.616-3.035.13-.606.13-1.714 0-2.32-.316-1.471-1.099-2.734-2.225-3.583C9.39 1.298 7.945.888 6.38 1.043m1.225 2.015c.425.065.772.172 1.135.352.132.066.248.127.258.136C9.018 3.565 3.595 9 3.556 9c-.032 0-.294-.571-.375-.818A5.5 5.5 0 0 1 3 7c0-.32.103-.95.203-1.245.241-.707.734-1.418 1.287-1.856.912-.721 1.985-1.011 3.115-.841m3.006 2.252c.199.431.264.646.331 1.088a3.4 3.4 0 0 1 0 1.207c-.338 2.238-2.506 3.763-4.711 3.313-.388-.079-1.007-.302-1.17-.422-.075-.055.07-.207 2.64-2.777C9.196 6.224 10.43 5 10.444 5s.088.14.167.31m5.769 5.733c-2.596.256-4.704 2.176-5.265 4.797-.131.61-.131 1.718-.001 2.32.525 2.428 2.303 4.205 4.726 4.725.35.075.543.09 1.16.09.822 0 1.248-.066 1.94-.303 2.014-.69 3.486-2.374 3.945-4.512.13-.606.13-1.714 0-2.32-.259-1.209-.776-2.18-1.616-3.035-1.291-1.315-3.039-1.945-4.889-1.762m1.225 2.015a4.01 4.01 0 0 1 3.175 2.654l.094.268-1.937.01c-1.065.006-2.809.006-3.874 0l-1.937-.01.094-.268c.487-1.392 1.714-2.429 3.138-2.651a3.7 3.7 0 0 1 1.247-.003m3.236 5.052a4.03 4.03 0 0 1-3.068 2.807c-2.009.41-4.005-.804-4.614-2.807l-.033-.11h7.748z"/></svg>