<svg xmlns="http://www.w3.org/2000/svg" width="24" height="24" fill="none" stroke="currentColor" stroke-linecap="round" stroke-linejoin="round" stroke-width="2"><path fill="#000" fill-rule="evenodd" stroke="none" d="M2.695 1.057a1.04 1.04 0 0 0-.567.459L2.02 1.7v1.42c0 1.377.003 1.429.094 1.72A3.09 3.09 0 0 0 4.16 6.886l.3.094h15.08l.3-.094a3.09 3.09 0 0 0 2.046-2.046c.091-.291.094-.343.094-1.72V1.7l-.109-.186a1.01 1.01 0 0 0-1.085-.479c-.271.061-.516.24-.657.479l-.109.186-.021 1.28c-.015.874-.037 1.316-.07 1.393a1.14 1.14 0 0 1-.445.499l-.184.108-1.648.012-1.649.011-.011-1.651L15.98 1.7l-.109-.186a1.01 1.01 0 0 0-1.742 0l-.109.186-.012 1.65L13.997 5h-3.994l-.011-1.65L9.98 1.7l-.109-.186a1.01 1.01 0 0 0-1.742 0L8.02 1.7l-.012 1.652-.011 1.651-1.649-.011L4.7 4.98l-.184-.108a1.14 1.14 0 0 1-.445-.499c-.034-.078-.056-.508-.07-1.393L3.98 1.7l-.108-.184a1.005 1.005 0 0 0-1.177-.459m-1 8a1.04 1.04 0 0 0-.567.459c-.091.156-.108.23-.108.484 0 .256.016.328.111.489.125.213.318.375.539.454.215.077 2.445.077 2.66 0 .221-.079.414-.241.539-.454.095-.161.111-.233.111-.489 0-.254-.017-.328-.108-.484a1.02 1.02 0 0 0-.582-.461c-.251-.076-2.353-.074-2.595.002m6 0a1.04 1.04 0 0 0-.567.459c-.091.156-.108.23-.108.484 0 .256.016.328.111.489.125.213.318.375.539.454.215.077 2.445.077 2.66 0 .221-.079.414-.241.539-.454.095-.161.111-.233.111-.489 0-.254-.017-.328-.108-.484a1.02 1.02 0 0 0-.582-.461c-.251-.076-2.353-.074-2.595.002m6 0a1.04 1.04 0 0 0-.567.459c-.091.156-.108.23-.108.484 0 .256.016.328.111.489.125.213.318.375.539.454.215.077 2.445.077 2.66 0 .221-.079.414-.241.539-.454.095-.161.111-.233.111-.489 0-.254-.017-.328-.108-.484a1.02 1.02 0 0 0-.582-.461c-.251-.076-2.353-.074-2.595.002m6 0a1.04 1.04 0 0 0-.567.459c-.091.156-.108.23-.108.484 0 .256.016.328.111.489.125.213.318.375.539.454.215.077 2.445.077 2.66 0 .221-.079.414-.241.539-.454.095-.161.111-.233.111-.489 0-.254-.017-.328-.108-.484a1.02 1.02 0 0 0-.582-.461c-.251-.076-2.353-.074-2.595.002M4.499 13.043c-1.119.189-2.038 1.005-2.385 2.117l-.094.3v6.846l.121.197a.998.998 0 0 0 1.718 0l.121-.196.012-1.154L4.005 20h3.99l.013 1.153.012 1.154.121.196c.068.11.205.253.311.325.471.316 1.102.171 1.407-.325l.121-.196.012-1.154.013-1.153h3.99l.013 1.153.012 1.154.121.196a.998.998 0 0 0 1.718 0l.121-.196.012-1.154.013-1.153h3.99l.013 1.153.012 1.154.121.196a.998.998 0 0 0 1.718 0l.121-.197V15.46l-.094-.3a3.09 3.09 0 0 0-2.025-2.039l-.321-.101-7.42-.006c-4.081-.003-7.511.01-7.621.029M8 16.5V18H4v-1.053c0-1.242.022-1.363.301-1.641.297-.298.307-.299 2.109-.303L8 15zm6 0V18h-4v-3h4zm5.31-1.439a.9.9 0 0 1 .387.242c.281.281.303.4.303 1.644V18h-4v-3h1.553c1.273 0 1.589.011 1.757.061"/></svg>