<svg xmlns="http://www.w3.org/2000/svg" width="24" height="24" fill="none" stroke="currentColor" stroke-linecap="round" stroke-linejoin="round" stroke-width="2"><path fill="#000" fill-rule="evenodd" stroke="none" d="M4.499 2.043C3.38 2.232 2.461 3.048 2.114 4.16l-.094.3v15.08l.094.3a3.09 3.09 0 0 0 2.046 2.046l.3.094h15.08l.3-.094a3.09 3.09 0 0 0 2.046-2.046l.094-.3V4.46l-.094-.3a3.09 3.09 0 0 0-2.025-2.039l-.321-.101-7.42-.006c-4.081-.003-7.511.01-7.621.029M14 6v2H4V6.447c0-1.798.007-1.848.304-2.144.315-.316-.008-.297 5.126-.3L14 4zm5.31-1.939a.9.9 0 0 1 .387.242c.296.296.303.347.303 2.144V8h-4V4h1.553c1.273 0 1.589.011 1.757.061M14 12v2H4v-4h10zm6 0v2h-4v-4h4zm-6 6.001v2l-4.65-.01-4.65-.011-.184-.108a1.2 1.2 0 0 1-.291-.249c-.219-.287-.225-.34-.225-2.048V16h10zm6-.447c0 1.688-.011 1.788-.221 2.064-.061.08-.194.195-.295.254l-.184.108-1.65.012-1.65.011V16h4z"/></svg>