<svg xmlns="http://www.w3.org/2000/svg" width="24" height="24" fill="none" stroke="currentColor" stroke-linecap="round" stroke-linejoin="round" stroke-width="2"><path fill="#000" fill-rule="evenodd" stroke="none" d="M13.695 1.057a1.04 1.04 0 0 0-.567.459l-.108.184v2.606l.121.197a.998.998 0 0 0 1.718 0l.121-.197V1.7l-.108-.184a1.005 1.005 0 0 0-1.177-.459m-12 .999c-.23.073-.439.243-.567.46-.091.156-.108.23-.108.484 0 .256.016.328.111.489.061.103.173.236.25.294.262.2.357.213 1.529.215L4 4v4H2.946c-1.149 0-1.302.022-1.564.221-.08.061-.195.194-.254.295-.091.156-.108.23-.108.484 0 .256.016.328.111.489.061.103.173.236.25.294.262.2.357.213 1.529.215L4 10v4H2.946c-1.149 0-1.302.022-1.564.221-.08.061-.195.194-.254.295-.091.156-.108.23-.108.484 0 .256.016.328.111.489.061.103.173.236.25.294.262.2.357.213 1.529.215L4 16v4H2.946c-1.149 0-1.302.022-1.564.221-.08.061-.195.194-.254.295-.091.156-.108.23-.108.484 0 .257.016.327.113.492.128.219.369.409.593.47.102.027 1.284.037 3.504.029l3.35-.012.28-.093c.99-.331 1.722-1.07 2.026-2.046l.094-.3V4.46l-.094-.3a3.09 3.09 0 0 0-2.025-2.038l-.321-.101-3.34-.009c-2.665-.006-3.373.002-3.505.044m17.804-.013c-1.116.187-2.038 1.005-2.385 2.117l-.094.3v15.08l.094.3a3.1 3.1 0 0 0 2.026 2.044c.264.086.355.092 1.624.107.883.01 1.399.001 1.504-.028.23-.062.469-.25.599-.471.097-.165.113-.235.113-.492 0-.254-.017-.328-.108-.484a1.14 1.14 0 0 0-.499-.445c-.077-.033-.519-.055-1.393-.07l-1.28-.021-.184-.108a1.2 1.2 0 0 1-.291-.249c-.219-.287-.225-.34-.225-2.048V16l1.59-.002c1.71-.002 1.756-.007 2.029-.215.077-.058.189-.191.25-.294.095-.161.111-.233.111-.489 0-.254-.017-.328-.108-.484a1.2 1.2 0 0 0-.254-.295c-.276-.21-.376-.221-2.064-.221H19v-4l1.59-.002c1.71-.002 1.756-.007 2.029-.215.077-.058.189-.191.25-.294.095-.161.111-.233.111-.489 0-.254-.017-.328-.108-.484a1.2 1.2 0 0 0-.254-.295c-.276-.21-.376-.221-2.064-.221H19V6.447c0-1.797.007-1.848.303-2.144.284-.284.391-.303 1.734-.305 1.229-.002 1.319-.014 1.582-.215.077-.058.189-.191.25-.294.095-.161.111-.233.111-.489 0-.254-.017-.328-.108-.484a1.2 1.2 0 0 0-.254-.295c-.268-.205-.402-.221-1.714-.216-.662.002-1.295.02-1.405.038M8.31 4.061a.9.9 0 0 1 .387.242c.296.296.303.347.303 2.144V8H6V4h1.053c.826 0 1.097.013 1.257.061m5.385 2.996a1.04 1.04 0 0 0-.567.459l-.108.184v2.606l.121.197a.998.998 0 0 0 1.718 0l.121-.197V7.7l-.108-.184a1.005 1.005 0 0 0-1.177-.459M9 12v2H6v-4h3zm4.695 1.057a1.04 1.04 0 0 0-.567.459l-.108.184v2.606l.121.197a.998.998 0 0 0 1.718 0l.121-.197V13.7l-.108-.184a1.005 1.005 0 0 0-1.177-.459M9 17.554c0 1.688-.011 1.788-.221 2.064-.061.08-.194.195-.295.254l-.184.108-1.15.012-1.15.013V16h3zm4.695 1.503a1.04 1.04 0 0 0-.567.459l-.108.184v2.606l.121.197a.998.998 0 0 0 1.718 0l.121-.197V19.7l-.108-.184a1.005 1.005 0 0 0-1.177-.459"/></svg>