<svg xmlns="http://www.w3.org/2000/svg" width="24" height="24" fill="none" stroke="currentColor" stroke-linecap="round" stroke-linejoin="round" stroke-width="2"><path fill="#000" fill-rule="evenodd" stroke="none" d="M4.499 2.043C3.38 2.232 2.461 3.048 2.114 4.16l-.094.3v15.08l.094.3a3.09 3.09 0 0 0 2.046 2.046l.3.094h15.08l.3-.094a3.09 3.09 0 0 0 2.046-2.046l.094-.3V4.46l-.094-.3a3.09 3.09 0 0 0-2.025-2.039l-.321-.101-7.42-.006c-4.081-.003-7.511.01-7.621.029M8 6v2H4V6.447c0-1.798.007-1.848.304-2.144.292-.292.325-.297 2.126-.3L8 4zm11.31-1.939a.9.9 0 0 1 .387.242c.296.296.303.347.303 2.144V8H10V4h4.553c3.959 0 4.579.008 4.757.061M8 15.002v5.001l-1.65-.011-1.65-.012-.184-.108a1.2 1.2 0 0 1-.291-.249C3.989 19.314 4 19.557 4 14.575V10h4zm12-.448c0 4.943.008 4.764-.221 5.064-.061.08-.194.195-.295.254l-.184.108-4.65.011-4.65.01V10h10z"/></svg>