<svg xmlns="http://www.w3.org/2000/svg" width="24" height="24" fill="none" stroke="currentColor" stroke-linecap="round" stroke-linejoin="round" stroke-width="2"><path fill="#000" fill-rule="evenodd" stroke="none" d="M6.499 1.043A3.04 3.04 0 0 0 4.115 3.16c-.07.23-.092.399-.093.723-.002.402.004.432.119.62.305.495.936.641 1.407.325.268-.181.403-.418.451-.797.05-.395.115-.546.322-.748C6.633 2.981 6.174 3 13 3c6.874 0 6.371-.023 6.697.303.329.329.303-.412.303 8.698 0 6.753-.009 8.137-.055 8.289a1.02 1.02 0 0 1-.461.582l-.184.108-1.48.021c-1.04.015-1.513.035-1.593.07a1.14 1.14 0 0 0-.499.445c-.091.156-.108.23-.108.484 0 .257.016.327.113.492.129.22.369.409.598.471.105.028.687.038 1.704.028 1.483-.014 1.556-.019 1.825-.107a3.1 3.1 0 0 0 2.026-2.044l.094-.3V3.46l-.094-.3a3.09 3.09 0 0 0-2.025-2.039l-.321-.101-6.42-.006c-3.531-.003-6.511.01-6.621.029m-2 5.999c-1.122.192-2.038 1.006-2.385 2.118l-.094.3v11.08l.094.3a3.09 3.09 0 0 0 2.046 2.046l.3.094h7.08l.3-.094a3.09 3.09 0 0 0 2.046-2.046l.094-.3V9.46l-.094-.3a3.09 3.09 0 0 0-2.025-2.038l-.321-.101-3.42-.007c-1.881-.003-3.511.009-3.621.028m6.811 2.019c.279.083.546.35.629.629.053.178.061.856.061 5.311 0 4.211-.01 5.138-.055 5.289a1.02 1.02 0 0 1-.461.582l-.184.108H4.7l-.184-.108a1.05 1.05 0 0 1-.458-.556c-.089-.255-.087-10.323.003-10.626.079-.269.351-.547.612-.627.288-.088 6.34-.091 6.637-.002m-3.615 7.994a1.05 1.05 0 0 0-.567.461c-.091.156-.108.23-.108.484 0 .257.016.327.113.492.518.882 1.865.526 1.865-.492a.99.99 0 0 0-.535-.888 1.17 1.17 0 0 0-.768-.057"/></svg>