<svg xmlns="http://www.w3.org/2000/svg" width="24" height="24" fill="none" stroke="currentColor" stroke-linecap="round" stroke-linejoin="round" stroke-width="2"><path fill="#000" fill-rule="evenodd" stroke="none" d="M3.499 1.042c-1.111.19-2.011.982-2.385 2.098l-.094.28-.011 4.026c-.013 4.385-.017 4.278.214 4.859.06.151.181.383.268.515.171.257 8.877 9.009 9.349 9.398.342.282.776.512 1.22.646.321.098.423.11.94.11s.619-.012.94-.11a3.6 3.6 0 0 0 1.22-.645c.452-.372 7.095-7.061 7.248-7.299a3.6 3.6 0 0 0 .458-.988c.095-.312.108-.417.108-.932 0-.517-.012-.619-.11-.94a3.6 3.6 0 0 0-.646-1.22c-.318-.387-9.128-9.169-9.338-9.309a3.6 3.6 0 0 0-.86-.416l-.28-.095-4.02-.006c-2.211-.003-4.111.01-4.221.028m8.121 2.065c.229.125 9.109 9.026 9.213 9.235a1.58 1.58 0 0 1 0 1.316c-.053.106-1.277 1.36-3.527 3.614-3.921 3.927-3.668 3.71-4.305 3.706-.641-.003-.218.372-5.294-4.694-2.631-2.626-4.549-4.571-4.6-4.664l-.087-.16-.011-3.777c-.012-4.284-.027-4.059.294-4.38.316-.315.075-.299 4.357-.291l3.8.008zM7.174 6.039c-.424.09-.845.438-1.042.861-.097.207-.112.29-.112.6 0 .311.015.394.113.604.143.309.452.617.767.764.207.097.29.112.6.112s.393-.015.6-.112c.315-.147.624-.455.767-.764.098-.21.113-.293.113-.604s-.015-.394-.113-.604a1.68 1.68 0 0 0-.748-.753 1.8 1.8 0 0 0-.945-.104"/></svg>