<svg xmlns="http://www.w3.org/2000/svg" width="24" height="24" fill="none" stroke="currentColor" stroke-linecap="round" stroke-linejoin="round" stroke-width="2"><path fill="#000" fill-rule="evenodd" stroke="none" d="M2.477 4.072A2.05 2.05 0 0 0 1.06 5.508c-.086.33-.088 5.853-.002 6.258.077.363.243.767.433 1.054.171.258 5.886 6.018 6.349 6.399.342.281.776.511 1.22.645.321.098.423.11.94.11.515 0 .62-.013.932-.108.385-.117.65-.24.988-.459.239-.154 3.944-3.815 4.299-4.247.281-.342.511-.777.645-1.22.098-.321.11-.423.11-.94s-.012-.619-.11-.94a3.6 3.6 0 0 0-.645-1.22c-.315-.383-6.128-6.168-6.339-6.309a3.6 3.6 0 0 0-.86-.416l-.28-.094-3-.009c-2.74-.008-3.023-.003-3.263.06m12.193-.011c-.222.081-.42.248-.542.455-.092.156-.108.229-.107.484 0 .212.022.341.074.44.04.077 1.563 1.634 3.383 3.46 3.732 3.744 3.5 3.473 3.5 4.1 0 .615.117.471-2.5 3.1-1.27 1.276-2.342 2.383-2.383 2.46-.052.099-.074.227-.074.44-.001.258.015.327.112.492.13.222.369.409.603.473.203.054.531.024.709-.066.166-.083 4.472-4.365 4.802-4.774a3.37 3.37 0 0 0 0-4.25c-.131-.162-1.694-1.746-3.473-3.52-2.948-2.939-3.251-3.23-3.431-3.29a1 1 0 0 0-.673-.004M8.62 6.107c.227.124 6.109 6.026 6.213 6.235.192.385.192.932 0 1.316-.052.102-.8.882-2.027 2.114-2.244 2.251-2.192 2.209-2.805 2.206-.63-.003-.393.196-3.794-3.194-1.733-1.728-3.05-3.072-3.1-3.164-.087-.159-.087-.171-.098-2.891l-.011-2.731 2.731.011c2.72.011 2.732.011 2.891.098M6.174 8.039c-.424.09-.845.438-1.042.861-.097.207-.112.29-.112.6 0 .311.015.394.113.604.143.309.452.617.767.764.207.097.29.112.6.112s.393-.015.6-.112c.315-.147.624-.455.767-.764.098-.21.113-.293.113-.604s-.015-.394-.113-.604a1.68 1.68 0 0 0-.748-.753 1.8 1.8 0 0 0-.945-.104"/></svg>