<svg xmlns="http://www.w3.org/2000/svg" width="24" height="24" fill="none" stroke="currentColor" stroke-linecap="round" stroke-linejoin="round" stroke-width="2"><path fill="#000" fill-rule="evenodd" stroke="none" d="M3.695 3.057a1.04 1.04 0 0 0-.567.459L3.02 3.7l-.01 6.268-.011 6.269-.789.471c-.433.26-.854.537-.934.617-.499.496-.281 1.373.402 1.614.33.117.611.063 1.042-.199.127-.077.24-.14.252-.14s.028.384.035.853l.013.854.121.196a.998.998 0 0 0 1.718 0l.121-.197.012-1.47.012-1.47 1.497-.901 1.497-.902.011 2.372.011 2.371.121.197a.998.998 0 0 0 1.718 0l.121-.197.011-2.971.011-2.972 1.498-.899 1.498-.9.011 3.871.011 3.871.121.197a.998.998 0 0 0 1.718 0l.121-.197.011-4.471.01-4.471 1.499-.9 1.499-.9.01 5.371.011 5.371.121.197a.998.998 0 0 0 1.718 0l.121-.197.011-5.971.01-5.971 1.339-.804c.904-.543 1.372-.847 1.44-.936a.993.993 0 0 0-.59-1.593c-.341-.071-.496-.012-1.395.528l-.791.475-.012-1.167L19.98 3.7l-.109-.186a1.01 1.01 0 0 0-1.742 0l-.109.186-.012 1.769-.011 1.768-1.497.899-1.498.899-.011-2.667L14.98 3.7l-.109-.186a1.01 1.01 0 0 0-1.742 0l-.109.186-.011 3.268-.011 3.269-1.498.899-1.499.9-.01-4.168L9.98 3.7l-.109-.186a1.01 1.01 0 0 0-1.742 0L8.02 3.7l-.011 4.768-.01 4.768-1.499.9-1.499.9-.01-5.668L4.98 3.7l-.108-.184a1.005 1.005 0 0 0-1.177-.459"/></svg>