<svg xmlns="http://www.w3.org/2000/svg" width="24" height="24" fill="none" stroke="currentColor" stroke-linecap="round" stroke-linejoin="round" stroke-width="2"><path fill="#000" fill-rule="evenodd" stroke="none" d="M16.499 1.04a3.05 3.05 0 0 0-2.385 2.12c-.08.257-.094.381-.092.86.002.521.011.585.127.92l.125.36-4.487 4.49c-3.194 3.197-4.504 4.483-4.547 4.464a8 8 0 0 0-.38-.126c-.276-.087-.395-.101-.86-.101-.458 0-.588.015-.861.098a3.07 3.07 0 0 0-2.025 2.035c-.078.252-.093.387-.093.84s.015.588.093.84a3.09 3.09 0 0 0 2.046 2.046c.252.078.387.093.84.093s.588-.015.84-.093a3.09 3.09 0 0 0 2.046-2.046c.08-.257.094-.381.092-.86-.002-.521-.011-.585-.127-.92l-.125-.36.967-.97c.766-.769.972-.956.993-.9.014.038.045.286.069.55.142 1.58.717 3.8 1.612 6.22.517 1.397.747 1.915.935 2.104.177.177.458.296.698.296.534 0 1-.473 1-1.013 0-.105-.097-.401-.285-.863-2.007-4.965-2.593-8.929-1.47-9.943 1.144-1.034 5.013-.433 9.879 1.534.462.188.758.285.863.285.681 0 1.177-.685.954-1.318-.143-.404-.279-.5-1.277-.902-2.834-1.144-5.679-1.918-7.503-2.044-.221-.015-.401-.039-.401-.052 0-.014.437-.46.97-.991l.97-.967.36.125c.34.119.392.125.94.125.513-.001.615-.013.887-.103a3.1 3.1 0 0 0 1.999-2.033c.135-.434.135-1.246 0-1.68-.305-.981-1.076-1.753-2.025-2.031-.361-.106-1.029-.149-1.362-.089m.811 2.021c.378.112.69.537.69.94 0 .33-.216.695-.516.871-.156.092-.229.108-.484.107-.346-.001-.481-.058-.719-.303-.379-.39-.368-.983.026-1.377q.414-.413 1.003-.238M4.334 16.064c.364.124.666.549.666.937 0 .33-.216.695-.516.871-.156.091-.23.108-.484.108s-.328-.017-.484-.108c-.579-.341-.683-1.098-.215-1.566a.96.96 0 0 1 1.033-.242"/></svg>