<svg xmlns="http://www.w3.org/2000/svg" width="24" height="24" fill="none" stroke="currentColor" stroke-linecap="round" stroke-linejoin="round" stroke-width="2"><path fill="#000" fill-rule="evenodd" stroke="none" d="M18.9 2.257c-.652.123-1.557.388-1.856.543a2.9 2.9 0 0 0-1.333 1.39l-.131.29-.96.317c-.528.175-2.301.759-3.94 1.297-7.97 2.619-8.215 2.701-8.475 2.855-.64.379-1.066 1.198-.988 1.9.053.472.614 2.628.764 2.937.29.596 1.01 1.052 1.664 1.054.225 0 .167.011 2.375-.46l2.428-.517.629-.134.066.206c.103.316.319.706.518.933l.181.207-1.406 2.814c-1.54 3.083-1.514 3.016-1.375 3.433.128.385.533.678.939.678.243 0 .521-.119.697-.298.13-.132.446-.734 1.543-2.934L11.62 16h.76l1.38 2.768c1.097 2.2 1.413 2.802 1.543 2.934.176.179.454.298.697.298.406 0 .811-.293.939-.678.139-.417.165-.35-1.375-3.433l-1.406-2.814.181-.207c.216-.247.42-.626.543-1.008.073-.226.092-.387.099-.837l.009-.557 1.286-.274 1.286-.275.169.116c.587.403 1.337.6 1.999.526.45-.051 1.726-.386 2.003-.526.644-.325 1.116-1.156 1.053-1.854-.012-.133-.383-1.689-.826-3.459-.879-3.517-.879-3.517-1.265-3.903a2 2 0 0 0-1.795-.56m.411 2.113c.248.915 1.46 5.872 1.441 5.891-.014.015-.275.089-.579.166-.686.174-.945.172-1.238-.01-.346-.214-.365-.265-.957-2.623-.555-2.209-.593-2.425-.477-2.703.166-.396.347-.514 1.094-.711.652-.173.672-.173.716-.01m-3.255 3.972c.239.957.427 1.747.419 1.755s-.59.135-1.293.284c-1.207.256-1.283.267-1.38.207-.75-.465-1.058-.561-1.802-.561-.623 0-.986.086-1.441.341-.435.245-.907.699-1.145 1.1-.089.151-.121.172-.326.214l-.654.138-.427.09-.326-1.304c-.249-.997-.313-1.309-.273-1.324.247-.094 8.106-2.676 8.152-2.678.047-.003.158.386.496 1.738m-10.3 2.794c.158.636.273 1.169.256 1.185-.042.036-2.246.499-2.269.475-.047-.046-.535-2.1-.506-2.129.055-.055 2.181-.743 2.207-.714.014.015.154.547.312 1.183m6.554.925c.378.112.69.537.69.939 0 .229-.121.513-.293.691a.97.97 0 0 1-1.411.003.967.967 0 0 1 .008-1.391q.417-.418 1.006-.242"/></svg>