<svg xmlns="http://www.w3.org/2000/svg" width="24" height="24" fill="none" stroke="currentColor" stroke-linecap="round" stroke-linejoin="round" stroke-width="2"><path fill="#000" fill-rule="evenodd" stroke="none" d="M3.499 1.04a3.05 3.05 0 0 0-2.385 2.12c-.135.434-.135 1.246 0 1.68A3.09 3.09 0 0 0 3.16 6.886c.434.135 1.246.135 1.68 0A3.09 3.09 0 0 0 6.886 4.84c.135-.434.135-1.246 0-1.68-.305-.981-1.076-1.753-2.025-2.031C4.5 1.023 3.832.98 3.499 1.04m13.081.056c-.156.075-.551.449-1.806 1.71-.883.888-1.639 1.677-1.679 1.754-.052.099-.074.228-.074.44-.001.258.015.327.112.492.13.222.369.409.603.473.203.054.531.024.709-.066.074-.038.455-.385.845-.772l.71-.704V6.58l-1.383 1.38c-.76.759-1.427 1.456-1.482 1.548-.274.459-.103 1.079.373 1.359.165.097.234.113.492.112.213 0 .34-.022.44-.075.077-.04.46-.39.85-.777l.71-.704v3.575l-4.63.011c-5.154.012-4.767-.009-5.059.282-.166.167-5.219 8.249-5.272 8.433-.097.339.004.721.26.977.327.327-.687.299 10.718.297 10.991-.002 10.305.012 10.602-.215.309-.235.455-.708.331-1.071-.033-.096-1.16-1.936-2.505-4.088L18 13.712V9.423l.71.704c.391.387.773.737.85.777.1.053.227.075.44.075.258.001.327-.015.492-.112.476-.28.647-.9.373-1.359-.055-.092-.722-.789-1.482-1.548L18 6.58V4.423l.71.704c.391.387.773.737.85.777.1.053.227.075.44.075.258.001.327-.015.492-.112.222-.13.409-.369.473-.603a1.2 1.2 0 0 0-.066-.709c-.037-.074-.79-.861-1.673-1.749-1.255-1.261-1.65-1.635-1.806-1.71a.97.97 0 0 0-.84 0M4.31 3.061c.378.112.69.537.69.94 0 .33-.216.695-.516.871-.156.091-.23.108-.484.108s-.328-.017-.484-.108c-.581-.342-.683-1.098-.212-1.569q.417-.418 1.006-.242M18.326 18.01l1.87 2.991-2.827-.011-2.826-.01-1.869-2.99-1.87-2.991 2.827.011 2.826.01zM7 18.46V21H3.805l1.587-2.54c.874-1.397 1.593-2.54 1.598-2.54S7 17.063 7 18.46m3.614.01L12.196 21H9v-2.547c0-1.4.007-2.539.016-2.53s.728 1.155 1.598 2.547"/></svg>