<svg xmlns="http://www.w3.org/2000/svg" width="24" height="24" fill="none" stroke="currentColor" stroke-linecap="round" stroke-linejoin="round" stroke-width="2"><path fill="#000" fill-rule="evenodd" stroke="none" d="M9.667 2.069c-.479.16-.769.715-.629 1.204.021.072.435.812.92 1.644l.882 1.511-3.952 6.776-3.953 6.776-.597.023c-.329.012-.649.044-.711.07a1.1 1.1 0 0 0-.499.443c-.091.156-.108.23-.108.484 0 .256.016.328.111.489.125.213.318.375.539.454.223.08 20.437.08 20.66 0 .221-.079.414-.241.539-.454.095-.161.111-.233.111-.489 0-.254-.017-.328-.108-.484a1.1 1.1 0 0 0-.499-.443c-.062-.026-.382-.058-.711-.07l-.597-.023-3.953-6.776-3.952-6.776.882-1.511c.485-.832.899-1.572.92-1.644.177-.619-.326-1.273-.979-1.273-.212 0-.5.121-.659.275-.084.081-.402.579-.725 1.135-.317.545-.586.99-.599.99s-.282-.445-.599-.99c-.332-.571-.64-1.053-.728-1.138a1.1 1.1 0 0 0-.69-.27c-.068.002-.21.032-.316.067M15.1 13.727l3.369 5.779.288.495-1.346-.01-1.346-.011-1.632-2.8c-1.156-1.984-1.675-2.838-1.78-2.931a1.2 1.2 0 0 0-.656-.249c-.185 0-.512.127-.658.256-.094.084-.672 1.037-1.772 2.924l-1.632 2.8-1.346.011-1.346.01.288-.495L8.9 13.727c1.694-2.907 3.089-5.285 3.1-5.285s1.406 2.378 3.1 5.285m-2.206 4.793.851 1.46-.873.011a85 85 0 0 1-1.744 0l-.873-.011.858-1.471c.472-.81.874-1.467.894-1.46.019.006.419.669.887 1.471"/></svg>