<svg xmlns="http://www.w3.org/2000/svg" width="24" height="24" fill="none" stroke="currentColor" stroke-linecap="round" stroke-linejoin="round" stroke-width="2"><path fill="#000" fill-rule="evenodd" stroke="none" d="M2.6 5.184c-.333.144-.599.551-.599.916 0 .386.303.818.664.945.231.082 14.439.082 14.67 0 .361-.127.664-.559.664-.945 0-.37-.269-.777-.608-.918-.132-.055-.937-.062-7.4-.06-6.384.001-7.268.008-7.391.062m0 6c-.333.144-.599.551-.599.916 0 .386.303.818.664.945.231.082 18.439.082 18.67 0 .361-.127.664-.559.664-.945 0-.37-.269-.777-.608-.918-.133-.055-1.13-.062-9.4-.06-8.17.001-9.267.008-9.391.062m.095 5.873a1.04 1.04 0 0 0-.567.459c-.091.156-.108.23-.108.484 0 .256.016.328.111.489.125.213.318.375.539.454.123.044 1.281.054 6.39.055l6.24.001.2-.094c.381-.181.588-.5.588-.905 0-.385-.195-.703-.548-.894l-.16-.086-6.26-.008c-5.04-.006-6.292.003-6.425.045"/></svg>