<svg xmlns="http://www.w3.org/2000/svg" width="24" height="24" fill="none" stroke="currentColor" stroke-linecap="round" stroke-linejoin="round" stroke-width="2"><path fill="#000" fill-rule="evenodd" stroke="none" d="M4.695 1.057a1.03 1.03 0 0 0-.563.453c-.092.157-.107.239-.136.743-.095 1.649-.32 2.733-.823 3.967-.414 1.016-1.119 2.202-1.688 2.84-.359.402-.484.645-.484.94 0 .246.127.567.278.7.249.219.758.978 1.06 1.578.384.764.587 1.551.656 2.535.032.46.047.529.151.699a1 1 0 0 0 1.713-.009c.121-.197.121-.199.117-.78-.007-1.136-.325-2.333-.929-3.505a5 5 0 0 1-.195-.401c.004-.004.193-.054.42-.112 2.461-.628 4.659-2.423 5.787-4.725.611-1.246.913-2.463.918-3.7.003-.562 0-.586-.106-.766-.389-.662-1.351-.667-1.736-.009-.092.156-.11.254-.157.826-.068.843-.11 1.093-.28 1.651a7 7 0 0 1-1.763 2.954 7.2 7.2 0 0 1-2.137 1.469c-.608.262-.592.294-.22-.452.492-.987.793-1.8 1.039-2.802.249-1.013.409-2.325.377-3.077-.014-.319-.034-.406-.124-.56a1 1 0 0 0-1.175-.457m9 0a1.04 1.04 0 0 0-.567.459c-.104.178-.108.204-.105.764.005 1.237.307 2.454.918 3.7 1.128 2.302 3.326 4.097 5.787 4.725.227.058.416.108.42.112.005.003-.083.184-.195.401-.604 1.172-.922 2.369-.929 3.505-.004.581-.004.583.117.78a1 1 0 0 0 1.713.009c.104-.17.119-.239.151-.699.069-.984.272-1.771.656-2.535.302-.6.811-1.359 1.06-1.578.151-.133.278-.454.278-.7 0-.256-.128-.565-.298-.72-.328-.298-1-1.281-1.4-2.047-.825-1.582-1.179-2.936-1.296-4.959-.03-.528-.044-.605-.139-.767a1.008 1.008 0 0 0-1.735.005c-.092.156-.111.241-.125.562-.032.753.128 2.064.377 3.08a12.6 12.6 0 0 0 1.039 2.799c.372.746.388.714-.22.452a7.2 7.2 0 0 1-2.137-1.469 7 7 0 0 1-1.763-2.954c-.17-.558-.212-.808-.28-1.651-.047-.569-.066-.67-.156-.824a1.004 1.004 0 0 0-1.171-.45m-6 13a1.04 1.04 0 0 0-.567.459c-.091.156-.108.23-.108.484 0 .256.016.328.111.489.125.213.318.375.539.454s8.438.079 8.66 0 .414-.241.539-.454c.095-.161.111-.233.111-.489 0-.254-.017-.328-.108-.484a1.02 1.02 0 0 0-.582-.461c-.261-.079-8.344-.076-8.595.002m-4.196 3.985a3.05 3.05 0 0 0-2.385 2.118c-.087.278-.094.367-.094 1.223v.923l.121.197a.998.998 0 0 0 1.718 0l.121-.197.022-.783c.025-.887.048-.976.319-1.24C3.613 20 3.616 20 6 20s2.387 0 2.679.283c.271.264.294.353.319 1.24l.022.783.121.197a.998.998 0 0 0 1.718 0l.121-.197v-.923c0-.856-.007-.945-.094-1.223a3.08 3.08 0 0 0-2.025-2.038l-.321-.1-2.42-.007c-1.331-.004-2.511.008-2.621.027m12 0a3.05 3.05 0 0 0-2.385 2.118c-.087.278-.094.367-.094 1.223v.923l.121.197a.998.998 0 0 0 1.718 0l.121-.197.022-.783c.025-.887.048-.976.319-1.24C15.613 20 15.616 20 18 20s2.387 0 2.679.283c.271.264.294.353.319 1.24l.022.783.121.197a.998.998 0 0 0 1.718 0l.121-.197v-.923c0-.856-.007-.945-.094-1.223a3.08 3.08 0 0 0-2.025-2.038l-.321-.1-2.42-.007c-1.331-.004-2.511.008-2.621.027"/></svg>