<svg xmlns="http://www.w3.org/2000/svg" width="24" height="24" fill="none" stroke="currentColor" stroke-linecap="round" stroke-linejoin="round" stroke-width="2"><path fill="#000" fill-rule="evenodd" stroke="none" d="M17.499 1.04c-1.125.204-2.011.984-2.385 2.1l-.094.28-.011 5.3-.011 5.3-.137.094c-.206.141-.782.753-.972 1.032a5.06 5.06 0 0 0-.51 4.759c.272.676.609 1.164 1.175 1.702a5.05 5.05 0 0 0 2.506 1.32c.319.069 1.561.069 1.88 0 1.009-.219 1.798-.641 2.548-1.361 1.743-1.673 2.004-4.385.618-6.426-.186-.274-.763-.887-.967-1.026l-.137-.094-.011-5.3-.011-5.3-.094-.28c-.331-.986-1.086-1.737-2.025-2.011-.361-.106-1.029-.149-1.362-.089M6.667 2.065c-.261.08-.514.336-.606.613-.123.37-.085.505.435 1.552.391.786.453.937.382.918a12 12 0 0 0-.502-.093c-.352-.06-.447-.064-.606-.022-.759.199-1.019 1.12-.471 1.668.218.218.342.256 1.581.477.561.1 1.061.192 1.11.203.071.016.176.191.49.82l.4.799-.5 1-.5 1H6.001l-.659-.878c-.725-.964-.83-1.059-1.223-1.105a.984.984 0 0 0-1.106.858c-.034.284.045.524.274.838l.194.267-.87.022c-.547.013-.913.039-.984.07-.602.259-.81.993-.429 1.519.065.09.205.214.31.276.192.113.194.113 1.083.133l.89.02-.194.267c-.229.314-.308.554-.274.838a.99.99 0 0 0 1.099.862c.389-.04.503-.142 1.23-1.109L6.001 13H7.88l.5 1 .5 1-.4.799c-.313.625-.419.804-.49.821-.049.012-.583.111-1.186.22-1.181.214-1.369.276-1.563.511a1.006 1.006 0 0 0 .256 1.51c.284.166.619.165 1.372-.002.078-.018.03.101-.375.915-.353.711-.469.984-.484 1.136-.069.715.633 1.261 1.319 1.028.347-.119.439-.241.95-1.257l.472-.938.209.418c.123.246.272.479.361.564.167.159.452.275.679.275.406 0 .811-.293.939-.678.126-.379.092-.493-.518-1.718L9.872 17.5l.373-.75c.219-.44.397-.75.43-.75.287 0 .713-.322.83-.627.083-.218.09-.492.017-.708-.1-.3-.436-.583-.766-.645-.138-.026-.148-.042-.637-1.023L9.621 12l.499-1 .499-1 .78-.002c.841-.002.971-.025 1.22-.215.077-.058.189-.191.25-.294.095-.161.111-.233.111-.489 0-.254-.017-.328-.108-.484a1.2 1.2 0 0 0-.254-.295C12.372 8.034 12.181 8 11.363 8h-.745l-.373-.75-.373-.75.549-1.104c.605-1.215.644-1.341.523-1.703-.227-.685-1.106-.912-1.622-.419-.09.086-.238.317-.362.565l-.209.418-.472-.938c-.511-1.016-.603-1.138-.95-1.257-.224-.076-.408-.075-.662.003m11.643.996c.279.083.546.35.629.629.053.179.061.89.061 5.627l.001 5.423.094.2c.106.223.204.322.588.59.303.212.592.493.765.743.163.235.411.779.477 1.047.079.317.068 1.114-.02 1.44a3.08 3.08 0 0 1-2.065 2.127c-.434.135-1.246.135-1.68 0a3.08 3.08 0 0 1-2.065-2.127c-.085-.312-.098-1.164-.022-1.44q.315-1.139 1.244-1.79c.358-.25.475-.362.577-.55l.086-.16.02-5.54c.022-6.209-.006-5.679.322-5.997.267-.259.606-.336.988-.222"/></svg>