<svg xmlns="http://www.w3.org/2000/svg" width="24" height="24" fill="none" stroke="currentColor" stroke-linecap="round" stroke-linejoin="round" stroke-width="2"><path fill="#000" fill-rule="evenodd" stroke="none" d="M11.499 1.04c-1.125.204-2.011.984-2.385 2.1l-.094.28-.011 5.3-.011 5.3-.137.094c-.206.141-.782.753-.972 1.032a5.06 5.06 0 0 0-.51 4.759c.272.676.609 1.164 1.175 1.702a5.05 5.05 0 0 0 2.506 1.32c.319.069 1.561.069 1.88 0 1.009-.219 1.798-.641 2.548-1.361 1.743-1.673 2.004-4.385.618-6.426-.186-.274-.763-.887-.967-1.026l-.137-.094-.011-5.3-.011-5.3-.094-.28c-.331-.986-1.086-1.737-2.025-2.011-.361-.106-1.029-.149-1.362-.089m.811 2.021c.279.083.546.35.629.629.053.179.061.89.061 5.627l.001 5.423.094.2c.106.223.204.322.588.59.303.212.592.493.765.743.163.235.411.779.477 1.047.079.317.068 1.114-.02 1.44a3.08 3.08 0 0 1-2.065 2.127c-.434.135-1.246.135-1.68 0a3.08 3.08 0 0 1-2.065-2.127c-.085-.312-.098-1.164-.022-1.44q.314-1.139 1.244-1.79c.358-.25.475-.362.577-.55l.086-.16.02-5.54c.022-6.209-.006-5.679.322-5.997.267-.259.606-.336.988-.222"/></svg>