<svg xmlns="http://www.w3.org/2000/svg" width="24" height="24" fill="none" stroke="currentColor" stroke-linecap="round" stroke-linejoin="round" stroke-width="2"><path fill="#000" fill-rule="evenodd" stroke="none" d="M17.499 1.04c-1.125.204-2.011.984-2.385 2.1l-.094.28-.011 5.3-.011 5.3-.137.094c-.206.141-.782.753-.972 1.032a5.06 5.06 0 0 0-.51 4.759c.272.676.609 1.164 1.175 1.702a5.05 5.05 0 0 0 2.506 1.32c.319.069 1.561.069 1.88 0 1.009-.219 1.798-.641 2.548-1.361 1.743-1.673 2.004-4.385.618-6.426-.186-.274-.763-.887-.967-1.026l-.137-.094-.011-5.3-.011-5.3-.094-.28c-.331-.986-1.086-1.737-2.025-2.011-.361-.106-1.029-.149-1.362-.089m-5.804 1.017a1.04 1.04 0 0 0-.567.459l-.108.184v2.606l.121.197a.998.998 0 0 0 1.718 0l.121-.197V2.7l-.108-.184a1.005 1.005 0 0 0-1.177-.459m6.615 1.004c.279.083.546.35.629.629.053.179.061.89.061 5.627l.001 5.423.094.2c.106.223.204.322.588.59.303.212.592.493.765.743.163.235.411.779.477 1.047.079.317.068 1.114-.02 1.44a3.08 3.08 0 0 1-2.065 2.127c-.434.135-1.246.135-1.68 0a3.08 3.08 0 0 1-2.065-2.127c-.085-.312-.098-1.164-.022-1.44q.315-1.139 1.244-1.79c.358-.25.475-.362.577-.55l.086-.16.02-5.54c.022-6.209-.006-5.679.322-5.997.267-.259.606-.336.988-.222M4.78 4.947q-.59.136-.779.638c-.098.263-.101.374-.017.656.058.197.132.284.85 1.011.432.438.859.847.949.909.317.22.799.218 1.122-.004.434-.299.554-.945.256-1.374-.176-.254-1.644-1.681-1.801-1.751-.155-.069-.456-.114-.58-.085m6.66 3.079-.4.059c-.688.101-1.466.447-2.127.945-1.26.948-1.968 2.382-1.97 3.99-.001.82.15 1.444.542 2.241.434.884 1.277 1.749 2.068 2.123a.99.99 0 0 0 1.339-.444c.064-.119.086-.231.086-.44 0-.445-.131-.636-.68-.993-.928-.604-1.463-1.731-1.339-2.817a2.98 2.98 0 0 1 1.767-2.425c.382-.174.584-.221 1.136-.262.383-.028.484-.051.635-.139.75-.44.621-1.56-.207-1.809-.167-.05-.605-.065-.85-.029m-9.745 4.031a1.04 1.04 0 0 0-.567.459c-.091.156-.108.23-.108.484 0 .256.016.328.111.489.125.213.318.375.539.454.215.077 2.445.077 2.66 0 .221-.079.414-.241.539-.454.095-.161.111-.233.111-.489 0-.254-.017-.328-.108-.484a1.02 1.02 0 0 0-.582-.461c-.251-.076-2.353-.074-2.595.002m4.545 5.412c-.144.051-.342.223-.994.867-.447.442-.858.88-.912.972-.272.461-.101 1.08.374 1.359.165.097.235.113.492.113.254 0 .328-.017.48-.107.221-.132 1.723-1.64 1.825-1.833.052-.1.074-.227.074-.44.001-.255-.015-.328-.107-.484a1.01 1.01 0 0 0-1.232-.447"/></svg>