<svg xmlns="http://www.w3.org/2000/svg" width="24" height="24" fill="none" stroke="currentColor" stroke-linecap="round" stroke-linejoin="round" stroke-width="2"><path fill="#000" fill-rule="evenodd" stroke="none" d="M11.647 1.065c-.371.136-.35.099-2.247 3.895-.973 1.947-1.822 3.606-1.886 3.687a1 1 0 0 1-.305.24c-.187.092-.208.093-1.969.115-1.749.022-1.785.024-2.101.122a3.08 3.08 0 0 0-2.025 2.036l-.094.3v9.08l.094.3c.304.976 1.035 1.714 2.026 2.046l.28.094 7.189.011c7.797.011 7.433.021 7.989-.204.718-.29 1.333-.869 1.626-1.532.153-.346 2.532-8.544 2.582-8.895.168-1.202-.506-2.461-1.616-3.015-.668-.334-.527-.32-3.38-.335-1.392-.008-2.53-.02-2.53-.028 0-.007.161-.677.358-1.488.45-1.856.458-1.906.43-2.551-.04-.897-.279-1.568-.812-2.283a4.08 4.08 0 0 0-3.036-1.635c-.311-.018-.439-.009-.573.04m1.354 2.219c.417.222.792.663.967 1.138.072.194.088.323.088.698 0 .455-.005.482-.532 2.62-.451 1.832-.529 2.192-.511 2.372.025.25.173.523.361.666.298.227.214.222 3.513.222 2.104 0 3.092.014 3.215.045.217.054.509.302.626.53.177.347.185.312-1.12 4.776-1.026 3.51-1.213 4.113-1.316 4.24a1.07 1.07 0 0 1-.527.368c-.094.026-1.856.041-4.955.041H8V10.737l.261-.15c.337-.194.773-.607.995-.942.096-.146.883-1.681 1.748-3.411 1.566-3.134 1.572-3.146 1.673-3.108.055.021.201.092.324.158M6 16.002v5.003l-1.15-.013-1.15-.012-.184-.108a1.2 1.2 0 0 1-.291-.249C2.99 20.315 3 20.515 3 16.022c0-4.666-.017-4.398.304-4.719.278-.279.376-.297 1.626-.3L6 11z"/></svg>