<svg xmlns="http://www.w3.org/2000/svg" width="24" height="24" fill="none" stroke="currentColor" stroke-linecap="round" stroke-linejoin="round" stroke-width="2"><path fill="#000" fill-rule="evenodd" stroke="none" d="M5.939 1.058c-.924.169-1.791.845-2.163 1.687-.153.346-2.532 8.544-2.582 8.895-.07.505.019 1.086.245 1.583.357.789 1.019 1.368 1.901 1.663l.28.093 2.55.012c1.402.007 2.55.018 2.55.024s-.161.677-.357 1.489c-.469 1.937-.458 1.877-.431 2.528.039.923.272 1.583.815 2.313a4.12 4.12 0 0 0 2.653 1.599c.446.073.703.07.936-.009.388-.132.352-.07 2.276-3.918.979-1.959 1.828-3.618 1.885-3.686.058-.069.19-.167.294-.218.187-.092.207-.093 1.989-.115 1.738-.021 1.81-.025 2.08-.114a3.1 3.1 0 0 0 2.026-2.044l.094-.3V3.46l-.094-.3a3.09 3.09 0 0 0-2.025-2.039l-.321-.101-7.16-.007c-5.68-.005-7.218.004-7.441.045M16 8.138v5.137l-.244.131c-.317.168-.787.609-1.011.947-.097.147-.884 1.683-1.749 3.413l-1.572 3.147-.162-.063a2.23 2.23 0 0 1-1.232-1.276c-.07-.19-.086-.321-.086-.694 0-.455.005-.482.532-2.62.45-1.83.528-2.192.51-2.372a1 1 0 0 0-.36-.666c-.298-.227-.211-.222-3.544-.222-3.42 0-3.306.009-3.584-.273a1.6 1.6 0 0 1-.228-.307c-.178-.338-.185-.309 1.121-4.771 1.267-4.33 1.234-4.235 1.534-4.458.257-.193.102-.187 5.245-.189L16 3zm4.31-5.077c.279.083.546.35.629.629.053.177.061.751.061 4.311 0 4.457.007 4.318-.221 4.617-.061.08-.194.195-.295.254l-.184.108-1.15.012-1.15.013V3h1.053c.826 0 1.097.013 1.257.061"/></svg>