<svg xmlns="http://www.w3.org/2000/svg" width="24" height="24" fill="none" stroke="currentColor" stroke-linecap="round" stroke-linejoin="round" stroke-width="2"><path fill="#000" fill-rule="evenodd" stroke="none" d="M3.499 4.043c-1.109.187-2.021.99-2.383 2.097-.086.264-.092.355-.107 1.624-.017 1.456-.006 1.557.189 1.827.188.259.415.369.85.41.477.046.721.121 1.015.311a2.013 2.013 0 0 1 .73 2.568c-.155.318-.566.745-.863.895-.262.133-.611.225-.852.225-.41 0-.758.189-.95.516l-.108.184v1.42c0 1.377.003 1.429.094 1.72a3.09 3.09 0 0 0 2.046 2.046l.3.094h17.08l.3-.094a3.09 3.09 0 0 0 2.046-2.046c.091-.291.094-.343.094-1.72V14.7l-.108-.184c-.192-.327-.54-.516-.95-.516-.81 0-1.635-.659-1.849-1.477-.225-.862.108-1.713.864-2.209.293-.192.536-.267 1.015-.313.435-.041.662-.151.85-.41.195-.27.206-.371.189-1.827-.015-1.269-.021-1.36-.107-1.624a3.11 3.11 0 0 0-2.023-2.019l-.321-.101-8.42-.006c-4.631-.003-8.511.01-8.621.029m8.508 2.61c.013.647.014.655.134.85a.998.998 0 0 0 1.718 0c.12-.195.121-.203.134-.85L14.007 6h3.049c3.463 0 3.326-.011 3.641.304.262.262.308.45.294 1.213l-.011.609-.26.091a4 4 0 0 0-2.637 3.01c-.383 1.878.673 3.804 2.457 4.484.176.067.352.132.39.144.063.02.07.087.07.637 0 .866-.101 1.136-.516 1.38l-.184.108-3.147.011-3.146.011-.014-.651c-.012-.625-.017-.658-.122-.837a1.01 1.01 0 0 0-1.742 0c-.105.179-.11.212-.122.837l-.014.65-4.146-.01L3.7 17.98l-.184-.108a1.2 1.2 0 0 1-.291-.249C3.034 17.372 3 17.207 3 16.514c0-.571.007-.639.07-.659 1.272-.405 2.167-1.209 2.634-2.367.856-2.123-.24-4.506-2.424-5.271l-.26-.091-.011-.609c-.014-.763.032-.951.294-1.214.315-.314.049-.297 4.624-.3L11.993 6zm.688 3.404a1.04 1.04 0 0 0-.567.459l-.108.184v2.606l.121.197a.998.998 0 0 0 1.718 0l.121-.197V10.7l-.108-.184a1.005 1.005 0 0 0-1.177-.459"/></svg>