<svg xmlns="http://www.w3.org/2000/svg" width="24" height="24" fill="none" stroke="currentColor" stroke-linecap="round" stroke-linejoin="round" stroke-width="2"><path fill="#000" fill-rule="evenodd" stroke="none" d="M15.06 1.896c-.257.064.213-.157-5.66 2.653L4.3 6.988l-.42.024c-.914.052-1.599.393-2.201 1.096-.242.283-.44.652-.565 1.052l-.094.3v10.08l.094.3a3.09 3.09 0 0 0 2.046 2.046l.3.094h17.08l.3-.094a3.09 3.09 0 0 0 2.046-2.046l.094-.3V9.46l-.094-.3a3.07 3.07 0 0 0-2.025-2.034c-.268-.08-.436-.099-1.021-.116l-.7-.02-.717-1.585c-1.109-2.451-1.22-2.673-1.455-2.93-.453-.493-1.261-.739-1.908-.579m1.199 3.597c.368.81.661 1.48.651 1.49-.009.01-1.803.013-3.986.007l-3.969-.01 3.272-1.565c3.166-1.514 3.274-1.562 3.318-1.48.025.047.347.748.714 1.558M5.007 9.653c.013.647.014.655.134.85a.998.998 0 0 0 1.718 0c.12-.195.121-.203.134-.85L7.007 9h6.549c7.37 0 6.814-.024 7.141.303.322.322.303-.002.303 5.198 0 5 .008 4.817-.221 5.117-.061.08-.194.195-.295.254l-.184.108-6.647.01-6.646.011-.014-.651c-.012-.624-.017-.657-.122-.836a1.01 1.01 0 0 0-1.742 0c-.105.179-.11.211-.122.839l-.014.654-.646-.014c-.619-.012-.655-.018-.831-.121a1.2 1.2 0 0 1-.291-.249C2.989 19.314 3 19.562 3 14.522c0-5.224-.019-4.897.304-5.219.25-.25.424-.297 1.123-.3L4.993 9zm12.663 1.404c-.083.03-.227.117-.32.194-.138.113-1.382 1.234-1.79 1.612l-.1.092-1.62-.217c-1.715-.23-2.003-.251-2.214-.163a1.04 1.04 0 0 0-.586 1.206c.065.231.345.548.558.634.088.035.515.11.951.166s.825.117.867.133c.064.026-.015.113-.493.548-.832.759-.723.714-1.803.739-.821.019-.914.028-1.06.106-.353.19-.548.508-.548.896 0 .289.107.533.315.721.298.268.4.287 1.5.267.872-.016 1.002-.027 1.253-.108.36-.117.752-.322.99-.519.103-.085 1.322-1.186 2.709-2.446 2.8-2.545 2.701-2.438 2.701-2.938 0-.234-.018-.311-.111-.469-.244-.415-.76-.611-1.199-.454m-11.975 2a1.04 1.04 0 0 0-.567.459c-.108.183-.108.187-.108.987v.803l.121.197a.998.998 0 0 0 1.718 0l.121-.197v-.803c0-.8 0-.804-.108-.987a1.005 1.005 0 0 0-1.177-.459"/></svg>