<svg xmlns="http://www.w3.org/2000/svg" width="24" height="24" fill="none" stroke="currentColor" stroke-linecap="round" stroke-linejoin="round" stroke-width="2"><path fill="#000" fill-rule="evenodd" stroke="none" d="M3.499 4.043c-1.109.187-2.021.99-2.383 2.097-.086.264-.092.355-.107 1.624-.017 1.456-.006 1.557.189 1.827.188.259.415.369.85.41.477.046.721.121 1.015.311a2.013 2.013 0 0 1 .73 2.568c-.155.318-.566.745-.863.895-.262.133-.611.225-.852.225-.41 0-.758.189-.95.516l-.108.184v1.42c0 1.377.003 1.429.094 1.72a3.09 3.09 0 0 0 2.046 2.046l.3.094h17.08l.3-.094a3.09 3.09 0 0 0 2.046-2.046c.091-.291.094-.343.094-1.72V14.7l-.108-.184c-.192-.327-.54-.516-.95-.516-.81 0-1.635-.659-1.849-1.477-.225-.862.108-1.713.864-2.209.293-.192.536-.267 1.015-.313.435-.041.662-.151.85-.41.195-.27.206-.371.189-1.827-.015-1.269-.021-1.36-.107-1.624a3.11 3.11 0 0 0-2.023-2.019l-.321-.101-8.42-.006c-4.631-.003-8.511.01-8.621.029M20.31 6.061a.9.9 0 0 1 .387.243c.262.262.308.45.294 1.213l-.011.609-.26.091a4 4 0 0 0-2.637 3.01c-.383 1.878.673 3.804 2.457 4.484.176.067.352.132.39.144.063.02.07.087.07.637 0 .866-.101 1.136-.516 1.38l-.184.108H3.7l-.184-.108a1.2 1.2 0 0 1-.291-.249C3.034 17.372 3 17.207 3 16.514c0-.571.007-.639.07-.659 1.272-.405 2.167-1.209 2.634-2.367.856-2.123-.24-4.506-2.424-5.271l-.26-.091-.011-.609c-.014-.763.032-.951.294-1.214a.94.94 0 0 1 .37-.24c.16-.049 1.357-.058 8.31-.06 7.161-.003 8.147.004 8.327.058M9.044 8.625a.99.99 0 0 0-.515.664c-.047.238.006.562.12.73.045.066.498.539 1.006 1.051l.924.93-.924.93c-.508.512-.96.984-1.004 1.05-.275.409-.138 1.046.289 1.34.298.205.8.22 1.077.032.068-.046.541-.499 1.053-1.007l.93-.924.93.924c.512.508.985.961 1.051 1.006.281.19.781.174 1.084-.034.413-.284.553-.941.286-1.336-.045-.066-.498-.539-1.006-1.051l-.924-.929.948-.951c.705-.707.968-.998 1.029-1.136.297-.673-.168-1.396-.896-1.393-.413.001-.505.067-1.552 1.11l-.95.947-.95-.947c-.679-.677-1.001-.97-1.13-1.028a1.06 1.06 0 0 0-.876.022"/></svg>