<svg xmlns="http://www.w3.org/2000/svg" width="24" height="24" fill="none" stroke="currentColor" stroke-linecap="round" stroke-linejoin="round" stroke-width="2"><path fill="#000" fill-rule="evenodd" stroke="none" d="M3.499 4.043c-1.109.187-2.021.99-2.383 2.097-.086.264-.092.355-.107 1.624-.017 1.456-.006 1.557.189 1.827.188.259.415.369.85.41.477.046.721.121 1.015.311a2.013 2.013 0 0 1 .73 2.568c-.155.318-.566.745-.863.895-.262.133-.611.225-.852.225-.41 0-.758.189-.95.516l-.108.184v1.42c0 1.377.003 1.429.094 1.72a3.09 3.09 0 0 0 2.046 2.046l.3.094h17.08l.3-.094a3.09 3.09 0 0 0 2.046-2.046c.091-.291.094-.343.094-1.72V14.7l-.108-.184c-.192-.327-.54-.516-.95-.516-.81 0-1.635-.659-1.849-1.477-.225-.862.108-1.713.864-2.209.293-.192.536-.267 1.015-.313.435-.041.662-.151.85-.41.195-.27.206-.371.189-1.827-.015-1.269-.021-1.36-.107-1.624a3.11 3.11 0 0 0-2.023-2.019l-.321-.101-8.42-.006c-4.631-.003-8.511.01-8.621.029M20.31 6.061a.9.9 0 0 1 .387.243c.262.262.308.45.294 1.213l-.011.609-.26.091a4 4 0 0 0-2.637 3.01c-.383 1.878.673 3.804 2.457 4.484.176.067.352.132.39.144.063.02.07.087.07.637 0 .866-.101 1.136-.516 1.38l-.184.108H3.7l-.184-.108a1.2 1.2 0 0 1-.291-.249C3.034 17.372 3 17.207 3 16.514c0-.571.007-.639.07-.659 1.272-.405 2.167-1.209 2.634-2.367.856-2.123-.24-4.506-2.424-5.271l-.26-.091-.011-.609c-.014-.763.032-.951.294-1.214a.94.94 0 0 1 .37-.24c.16-.049 1.357-.058 8.31-.06 7.161-.003 8.147.004 8.327.058M8.695 8.055a1.05 1.05 0 0 0-.567.461c-.091.156-.108.23-.108.484 0 .257.016.327.113.492.518.882 1.865.526 1.865-.492a.99.99 0 0 0-.535-.888 1.17 1.17 0 0 0-.768-.057m5.945.013c-.155.053-.604.485-3.293 3.167-1.777 1.773-3.159 3.182-3.22 3.285-.091.152-.107.226-.107.48 0 .257.016.327.113.492.13.222.369.409.603.473.202.054.53.024.709-.066.185-.092 6.292-6.192 6.428-6.419.091-.152.107-.226.107-.48s-.017-.328-.108-.484a1.016 1.016 0 0 0-1.232-.448m.055 5.987a1.05 1.05 0 0 0-.567.461c-.091.156-.108.23-.108.484 0 .257.016.327.113.492.518.882 1.865.526 1.865-.492a.99.99 0 0 0-.535-.888 1.17 1.17 0 0 0-.768-.057"/></svg>