<svg xmlns="http://www.w3.org/2000/svg" width="24" height="24" fill="none" stroke="currentColor" stroke-linecap="round" stroke-linejoin="round" stroke-width="2"><path fill="#000" fill-rule="evenodd" stroke="none" d="M4.499 1.043c-1.12.191-2.038 1.005-2.385 2.117l-.094.3v10.28l.093.42c.334 1.519 1.123 2.759 2.327 3.657.209.156.533.363.72.459s.346.18.353.186c.007.005-.307.52-.698 1.144s-.753 1.24-.806 1.369c-.316.774.133 1.7.944 1.946.263.079.347.08 5.887.07l5.62-.011.229-.107a1.67 1.67 0 0 0 .761-.748c.118-.238.13-.298.13-.624 0-.451-.026-.51-.736-1.641-.5-.798-.522-.841-.435-.866.05-.014.151-.028.225-.03.073-.002.316-.041.54-.087a6.005 6.005 0 0 0 4.813-5.595c.035-.743-.105-1.18-.522-1.629a2 2 0 0 0-.942-.58c-.232-.06-.513-.069-2.392-.071L16.003 11l-.012-3.79-.011-3.79-.094-.28c-.329-.982-1.065-1.716-2.025-2.019l-.321-.101-4.42-.006c-2.431-.003-4.511.01-4.621.029m8.811 2.018c.279.083.546.35.629.629.053.176.061.693.061 3.757V11h-3.554c-3.856 0-3.768-.005-4.064.221-.08.061-.195.194-.254.295-.091.156-.108.23-.108.484 0 .256.016.328.111.489.125.213.318.375.539.454.123.044 1.339.054 6.74.055L20 13v.11c-.001.226-.12.888-.204 1.135-.311.908-.966 1.727-1.749 2.186-.684.402-1.349.569-2.259.569-.673 0-.963.068-1.278.301-.5.369-.726 1.07-.532 1.653.037.113.326.619.642 1.125l.575.921H6.318l.059-.11c.033-.061.309-.506.613-.99l.553-.88.382-.023c.321-.018.413-.04.57-.132.753-.441.625-1.56-.205-1.81A1.8 1.8 0 0 0 7.87 17c-.33 0-.99-.141-1.349-.289a4 4 0 0 1-2.463-3.106c-.088-.589-.086-9.616.003-9.915.079-.269.351-.547.612-.627.289-.089 8.338-.091 8.637-.002"/></svg>