<svg xmlns="http://www.w3.org/2000/svg" width="24" height="24" fill="none" stroke="currentColor" stroke-linecap="round" stroke-linejoin="round" stroke-width="2"><path fill="#000" fill-rule="evenodd" stroke="none" d="M3.499 3.043C2.38 3.232 1.461 4.048 1.114 5.16l-.094.3v13.08l.094.3a3.09 3.09 0 0 0 2.046 2.046l.3.094h17.08l.3-.094a3.09 3.09 0 0 0 2.046-2.046l.094-.3V5.46l-.094-.3a3.09 3.09 0 0 0-2.025-2.039l-.321-.101-8.42-.006c-4.631-.003-8.511.01-8.621.029M20.31 5.061c.279.083.546.35.629.629.053.176.061.693.061 3.757V13H3V9.447c0-3.064.008-3.581.061-3.757.079-.269.351-.547.612-.627.16-.049 1.357-.058 8.31-.06 7.161-.003 8.147.004 8.327.058M11 17.001v2.001l-3.65-.011-3.65-.011-.184-.108a1.2 1.2 0 0 1-.291-.249c-.219-.287-.225-.34-.225-2.048V15h8zm10-.447c0 1.688-.011 1.788-.221 2.064-.061.08-.194.195-.295.254l-.184.108-3.65.011-3.65.011V15h8z"/></svg>