<svg xmlns="http://www.w3.org/2000/svg" width="24" height="24" fill="none" stroke="currentColor" stroke-linecap="round" stroke-linejoin="round" stroke-width="2"><path fill="#000" fill-rule="evenodd" stroke="none" d="M1.67 1.061c-.222.081-.42.248-.542.455-.092.156-.108.229-.107.484 0 .214.022.34.075.44.041.077.301.37.578.651l.504.511-.21.201c-.441.424-.68.803-.854 1.358l-.094.299v13.08l.094.3c.304.976 1.035 1.714 2.026 2.046l.28.094 8.08.011 8.079.01.921.915c.506.503.983.948 1.06.989.099.052.227.074.44.074.258.001.327-.015.492-.112.476-.28.647-.9.373-1.359-.055-.092-4.65-4.715-10.212-10.273C3.3 1.889 2.525 1.125 2.343 1.065a1 1 0 0 0-.673-.004m8.025 1.996c-.23.072-.439.242-.567.459-.091.156-.108.23-.108.484 0 .256.016.328.111.489.125.213.318.375.539.454.122.044 1.101.054 5.293.055 5.798.002 5.41-.018 5.734.305.317.318.303.12.303 4.144V13h-.554c-.798 0-1.079.11-1.318.516-.091.156-.108.23-.108.484 0 .256.016.328.111.489.125.213.318.375.539.454.098.035.352.054.737.055l.586.002.014.653c.013.647.014.655.134.85a.998.998 0 0 0 1.718 0l.121-.197V5.46l-.094-.3a3.09 3.09 0 0 0-2.025-2.039l-.321-.101-5.34-.008c-4.3-.006-5.372.003-5.505.045M7.62 9.04 11.58 13H3V9.446c0-3.8-.001-3.777.198-4.034.099-.129.356-.332.419-.332.024 0 1.825 1.782 4.003 3.96M11 17.001v2.001l-3.65-.011-3.65-.011-.184-.108a1.2 1.2 0 0 1-.291-.249c-.219-.287-.225-.34-.225-2.048V15h8zM15.58 17l2 2H13v-4h.58z"/></svg>