<svg xmlns="http://www.w3.org/2000/svg" width="24" height="24" fill="none" stroke="currentColor" stroke-linecap="round" stroke-linejoin="round" stroke-width="2"><path fill="#000" fill-rule="evenodd" stroke="none" d="M10.695 1.057a1.04 1.04 0 0 0-.567.459c-.092.156-.108.23-.108.487 0 .268.014.326.121.5.147.239.437.443.68.479l.179.027V5H7.446c-2.895 0-3.587.01-3.736.055a.97.97 0 0 0-.697.855c-.017.209.067.526.925 3.51.519 1.804.993 3.379 1.053 3.499s.226.339.369.484c.385.392.873.597 1.421.597h.218l.01 4.153.011 4.153.121.197a.998.998 0 0 0 1.718 0l.121-.197.011-4.153.01-4.153h5.998l.01 4.153.011 4.153.121.197c.068.11.205.253.311.325.471.316 1.102.171 1.407-.325l.121-.197.011-4.153.01-4.153h.25c.703-.002 1.455-.455 1.749-1.054.145-.297 2-6.74 2-6.949 0-.239-.12-.519-.299-.698-.314-.314-.106-.299-4.128-.299H13V3.009l.179-.027c.243-.036.533-.24.68-.479.107-.174.121-.232.121-.5 0-.257-.016-.331-.108-.487a1.02 1.02 0 0 0-.582-.461c-.251-.076-2.353-.074-2.595.002M8.139 7.09c.011.05.165 1.116.342 2.37s.332 2.338.345 2.41l.023.13H6.764l-.038-.13a1555 1555 0 0 0-1.362-4.74L5.326 7h2.792zm5.687.04c-.013.072-.168 1.156-.345 2.41a209 209 0 0 1-.342 2.37l-.021.09h-2.236l-.021-.09c-.011-.049-.165-1.116-.342-2.37a332 332 0 0 0-.345-2.41L10.151 7h3.698zm4.81 0-1.363 4.74-.037.13h-2.085l.023-.13c.013-.072.168-1.156.345-2.41s.331-2.32.342-2.37l.021-.09h2.792z"/></svg>