<svg xmlns="http://www.w3.org/2000/svg" width="24" height="24" fill="none" stroke="currentColor" stroke-linecap="round" stroke-linejoin="round" stroke-width="2"><path fill="#000" fill-rule="evenodd" stroke="none" d="M5.477 3.073c-.671.176-1.239.75-1.417 1.435-.046.176-.06.485-.06 1.351v1.123l-.31.049a2.3 2.3 0 0 0-.57.176c-.318.155-.745.567-.895.863C1.99 8.534 2 8.267 2 14s-.01 5.466.225 5.93c.136.269.576.709.845.845.472.239-.087.225 8.93.225s8.458.014 8.93-.225c.266-.135.708-.575.841-.838.239-.471.229-.205.228-5.923 0-5.697.008-5.487-.224-5.945-.15-.295-.577-.707-.895-.862a2.3 2.3 0 0 0-.57-.176L20 6.982l-.002-1.141c-.002-.944-.014-1.186-.071-1.404a2 2 0 0 0-.958-1.209c-.386-.209-.584-.227-2.489-.225-1.947.002-2.059.014-2.497.278-.28.168-.629.535-.764.802-.197.388-.219.567-.219 1.785V7h-2l-.002-1.15c-.002-.953-.014-1.195-.071-1.413a2 2 0 0 0-.958-1.209c-.386-.209-.584-.227-2.489-.225-1.512.001-1.774.011-2.003.07M9 6v1H6V5h3zm9 0v1h-3V5h3zm2 8v5H4V9h16z"/></svg>