<svg xmlns="http://www.w3.org/2000/svg" width="24" height="24" fill="none" stroke="currentColor" stroke-linecap="round" stroke-linejoin="round" stroke-width="2"><path fill="#000" fill-rule="evenodd" stroke="none" d="M2.695 3.057a1.04 1.04 0 0 0-.567.459c-.092.156-.108.23-.108.487 0 .268.014.326.121.5.147.239.437.443.68.479L3 5.009v5.521l-.266.265c-.79.785-1.366 1.867-1.62 3.045-.13.606-.13 1.714 0 2.32.524 2.427 2.303 4.205 4.726 4.725.606.13 1.714.13 2.32 0 1.197-.257 2.249-.817 3.04-1.619l.26-.264 1.843-.001L15.147 19l.165.33a3.1 3.1 0 0 0 1.848 1.556c.252.078.387.093.84.093.609 0 .922-.072 1.4-.323.62-.326 1.237-1.038 1.435-1.656.036-.113.09-.163.275-.259.437-.225.825-.711.955-1.195.094-.351.735-4.442.735-4.692 0-.94-.739-1.8-1.66-1.931a50 50 0 0 0-1.62-.143 46 46 0 0 1-1.43-.123l-.09-.019V6.009l.179-.027c.243-.036.533-.24.68-.479.107-.174.121-.232.121-.503s-.014-.328-.12-.498c-.331-.529-1.017-.645-1.74-.295-.318.155-.744.566-.895.863-.223.441-.225.465-.225 3.038v2.372h-.094c-.137 0-2.001-.162-2.014-.175-.006-.006-.182-1.252-.391-2.768s-.4-2.852-.424-2.968c-.153-.745-.848-1.41-1.597-1.528-.414-.065-8.574-.05-8.785.016M7 6.996v1.996l-.33.025c-.6.047-1.399.201-1.598.307C5.003 9.361 5 9.269 5 7.181V5h2zm4.14-1.866c.037.209.695 5.008.687 5.015a23 23 0 0 1-.727-.053c-.718-.058-.721-.058-.98-.21-.346-.203-.785-.42-.97-.48L9 9.354V5h2.116zm-3.3 5.969c1.363.289 2.499 1.31 2.957 2.656.1.295.203.925.203 1.245 0 .322-.103.951-.204 1.245-.475 1.387-1.601 2.383-3.023 2.672-2.21.451-4.377-1.072-4.715-3.312a3.4 3.4 0 0 1 0-1.21 4.01 4.01 0 0 1 3.3-3.337 4.7 4.7 0 0 1 1.482.041m8.94 1.464c2.2.179 4.004.329 4.01.334.012.011-.48 3.116-.497 3.139-.007.009-.074-.047-.149-.124a3 3 0 0 0-1.324-.799c-.463-.132-1.225-.126-1.681.012-.78.237-1.46.812-1.827 1.545l-.165.33h-2.495l.072-.211c.185-.548.251-1.021.251-1.789 0-.617-.015-.81-.09-1.16-.104-.486-.287-1.041-.451-1.369a2 2 0 0 1-.114-.255c0-.014.103-.015.23-.002s2.03.17 4.23.349M6.695 14.055a1.05 1.05 0 0 0-.567.461c-.091.156-.108.23-.108.484 0 .257.016.327.113.492.518.882 1.865.526 1.865-.492a.99.99 0 0 0-.535-.888 1.17 1.17 0 0 0-.768-.057m11.615 3.006c.378.112.69.537.69.94 0 .33-.216.695-.516.871-.156.091-.23.108-.484.108s-.328-.017-.484-.108c-.581-.342-.683-1.098-.212-1.569q.417-.418 1.006-.242"/></svg>