<svg xmlns="http://www.w3.org/2000/svg" width="24" height="24" fill="none" stroke="currentColor" stroke-linecap="round" stroke-linejoin="round" stroke-width="2"><path fill="#000" fill-rule="evenodd" stroke="none" d="M11.263.944c-.744.18-1.535.808-1.883 1.495-.076.151-1.964 6.358-2.567 8.441-.099.341-.21.649-.246.684s-1.003.601-2.147 1.256a112 112 0 0 0-2.32 1.353c-.671.45-1.099 1.161-1.099 1.827 0 .603.364 1.277.922 1.707.388.299 8.106 4.843 8.452 4.976a4.25 4.25 0 0 0 3.078-.012c.196-.079 1.87-1.044 4.187-2.414a742 742 0 0 1 4.177-2.46c.721-.403 1.182-1.104 1.182-1.797 0-.504-.24-1.036-.659-1.461-.254-.257-.475-.4-2.36-1.525-1.144-.683-2.209-1.318-2.367-1.411l-.287-.168-.087-.288a8 8 0 0 1-.138-.527 2 2 0 0 0-.116-.38c-.062-.136-2.012-6.618-2.183-7.262-.255-.954-1.09-1.769-2.067-2.019-.372-.095-1.109-.103-1.472-.015m1.131 2.013c.223.114.423.356.484.585.029.109.185.642.347 1.186s.295.995.295 1.005c0 .041-.526.225-.811.284a4.2 4.2 0 0 1-1.421 0c-.397-.082-.831-.262-.819-.339.006-.032.163-.57.349-1.195.371-1.241.42-1.342.741-1.511.227-.12.616-.127.835-.015M10.29 7.818c1.059.346 2.357.348 3.404.004.223-.073.409-.13.413-.127.016.013.773 2.563.773 2.605 0 .117-.898.445-1.613.589-.651.131-1.886.13-2.54-.001-.816-.165-1.675-.501-1.636-.641.05-.182.768-2.567.773-2.567.003 0 .195.062.426.138M8.962 12.46c1.899.731 4.259.718 6.17-.035.242-.096.358-.124.37-.092.057.155.471 1.546.488 1.639.031.177-.069.458-.253.708-.399.542-1.376 1.025-2.477 1.224-.565.103-1.955.103-2.52 0C9.162 15.619 8 14.816 8 14.01c0-.149.281-1.116.402-1.382a.9.9 0 0 0 .077-.262c.001-.074.016-.088.071-.066zm10.509 2.576c.71.423 1.339.811 1.398.862l.108.092-.219.111c-.12.061-1.937 1.129-4.038 2.373s-3.928 2.308-4.06 2.364c-.215.091-.293.102-.76.102s-.545-.011-.76-.102c-.292-.123-7.816-4.573-7.993-4.728L3.02 16l.127-.11c.157-.135 2.813-1.664 2.841-1.635.012.011.047.161.079.333.071.376.327.935.586 1.276C7.662 17.195 9.677 18 12 18c1.341 0 2.505-.242 3.544-.738 1.34-.639 2.184-1.6 2.398-2.733.068-.361.072-.369.154-.316.046.03.665.4 1.375.823"/></svg>