<svg xmlns="http://www.w3.org/2000/svg" width="24" height="24" fill="none" stroke="currentColor" stroke-linecap="round" stroke-linejoin="round" stroke-width="2"><path fill="#000" fill-rule="evenodd" stroke="none" d="m11.28 1.023-.56.06c-1.888.2-3.729.94-5.36 2.152-.609.453-1.676 1.52-2.134 2.132-1.266 1.698-2.021 3.67-2.186 5.718-.029.359-.04 2.295-.032 5.878l.012 5.343.121.197a.998.998 0 0 0 1.718 0l.121-.197.022-5.603c.02-5.095.028-5.641.092-6.023.168-1.001.404-1.751.826-2.62a8.9 8.9 0 0 1 4.14-4.14c1.319-.64 2.447-.897 3.94-.897s2.621.257 3.94.897c2.388 1.157 4.171 3.36 4.793 5.92.253 1.039.241.729.265 6.863l.022 5.603.121.197a.998.998 0 0 0 1.718 0l.121-.197.012-5.323c.009-3.715-.001-5.492-.032-5.883-.168-2.07-.916-4.03-2.19-5.737-.454-.608-1.523-1.677-2.13-2.128-1.595-1.186-3.275-1.875-5.217-2.139C13 1.038 11.574.99 11.28 1.023m.26 4c-.826.079-1.29.177-1.92.404a7 7 0 0 0-4.398 4.848c-.191.762-.202.933-.202 3.205 0 1.918.008 2.175.073 2.48a5.5 5.5 0 0 0 .775 1.855c.254.386.957 1.079 1.359 1.341l.327.213-.724 1.086c-.399.597-.748 1.148-.776 1.225-.154.426.042.945.445 1.182.337.197.8.166 1.117-.076.068-.052.527-.7 1.02-1.44L9.533 20h4.934l.897 1.346c.493.74.952 1.388 1.02 1.44.655.499 1.616.031 1.616-.786 0-.265-.1-.451-.835-1.553l-.722-1.082.148-.09a6.2 6.2 0 0 0 .995-.801 5.15 5.15 0 0 0 1.321-2.514c.065-.305.073-.562.073-2.48 0-1.572-.014-2.23-.053-2.48-.316-2.042-1.415-3.738-3.183-4.915-.466-.31-1.397-.709-2.024-.868-.565-.142-1.68-.241-2.18-.194m1.012 2.019a4.6 4.6 0 0 1 1.158.265l.29.104v.486c0 .767-.128 1.124-.546 1.527-.797.767-2.111.767-2.908 0-.418-.403-.546-.76-.546-1.527v-.486l.29-.104a4.9 4.9 0 0 1 2.262-.265m-4.15 2.804c.399.796 1.168 1.497 2.01 1.834.625.249.864.294 1.588.294s.963-.045 1.588-.294a4.2 4.2 0 0 0 1.718-1.346c.211-.296.462-.82.558-1.164l.069-.25.153.21c.177.245.47.795.591 1.11.288.75.333 1.254.314 3.5-.014 1.785-.015 1.803-.114 2.121a3.08 3.08 0 0 1-2.037 2.025l-.3.094H9.46l-.3-.094a3.08 3.08 0 0 1-2.037-2.025c-.099-.318-.1-.336-.114-2.121-.01-1.161.001-1.956.03-2.24a4.7 4.7 0 0 1 .812-2.269l.206-.308.109.334c.06.185.166.449.236.589m1.293 4.209a1.05 1.05 0 0 0-.567.461c-.091.156-.108.23-.108.484 0 .257.016.327.113.492.518.882 1.865.526 1.865-.492a.99.99 0 0 0-.535-.888 1.17 1.17 0 0 0-.768-.057m4 0a1.05 1.05 0 0 0-.567.461c-.091.156-.108.23-.108.484 0 .257.016.327.113.492.518.882 1.865.526 1.865-.492a.99.99 0 0 0-.535-.888 1.17 1.17 0 0 0-.768-.057"/></svg>