<svg xmlns="http://www.w3.org/2000/svg" width="24" height="24" fill="none" stroke="currentColor" stroke-linecap="round" stroke-linejoin="round" stroke-width="2"><path fill="#000" fill-rule="evenodd" stroke="none" d="M11.34 1.024c-.908.094-1.475.209-2.18.442-1.9.628-3.546 1.893-4.692 3.607-.558.835-1.08 2.109-1.285 3.136-.174.873-.19 1.234-.172 3.991.018 2.878.016 2.851.308 3.725.16.48.305.799.553 1.215.535.9 1.452 1.745 2.408 2.22.099.05.186.095.193.101s-.298.477-.678 1.045c-.38.569-.713 1.097-.741 1.174-.154.426.042.945.445 1.182.337.197.8.166 1.117-.076.068-.052.527-.7 1.02-1.44L8.533 20h6.934l.897 1.346c.493.74.952 1.388 1.02 1.44.655.499 1.616.031 1.616-.786 0-.264-.099-.45-.8-1.499-.377-.566-.68-1.034-.673-1.04s.094-.051.193-.101c.956-.475 1.873-1.32 2.408-2.22.248-.416.393-.735.553-1.215.292-.874.29-.847.308-3.725.011-1.744.002-2.729-.029-3.04-.307-3.122-2.197-5.863-4.982-7.224a9 9 0 0 0-2.658-.835c-.409-.062-1.658-.11-1.98-.077m1.762 2.074c.197.029.475.083.618.119.286.073.996.321 1.172.41l.113.058-.014 1.927c-.014 1.924-.014 1.929-.114 2.249a3.08 3.08 0 0 1-2.037 2.025c-.434.135-1.246.135-1.68 0a3.08 3.08 0 0 1-2.037-2.025c-.1-.32-.1-.325-.114-2.249l-.014-1.927.113-.058c.198-.1.902-.342 1.232-.422.284-.07.724-.136 1.2-.182.273-.026 1.186.018 1.562.075M7.095 7.98c.448 2.021 1.929 3.496 3.945 3.927.246.053.512.073.96.073.898 0 1.494-.142 2.286-.547 1.336-.681 2.281-1.927 2.619-3.453.056-.254.075-.584.093-1.591l.022-1.272.202.232c.939 1.077 1.497 2.279 1.704 3.671.041.273.054.992.054 2.98l-.001 2.62-.11.4c-.428 1.56-1.612 2.646-3.184 2.921-.496.087-6.874.087-7.37 0-1.572-.275-2.756-1.361-3.184-2.921l-.11-.4L5.02 12c0-1.988.013-2.707.054-2.98.207-1.392.765-2.594 1.704-3.671l.202-.232.022 1.272c.018 1.007.037 1.337.093 1.591m.575 5.081c-.222.081-.42.248-.542.455-.091.156-.108.23-.108.484 0 .253.017.328.107.48.13.22 1.239 1.321 1.433 1.424.1.053.226.075.44.075.258.001.327-.015.492-.112.475-.279.646-.897.375-1.359-.055-.092-.375-.439-.713-.771-.506-.497-.649-.615-.811-.67a1 1 0 0 0-.673-.006m7.971.008c-.138.049-.32.202-.794.667-.338.332-.659.68-.714.772-.271.462-.1 1.08.375 1.359.165.097.234.113.492.112.214 0 .34-.022.44-.075.194-.103 1.303-1.204 1.433-1.424.09-.152.107-.227.107-.48 0-.254-.017-.328-.108-.484a1.01 1.01 0 0 0-1.231-.447"/></svg>