<svg xmlns="http://www.w3.org/2000/svg" width="24" height="24" fill="none" stroke="currentColor" stroke-linecap="round" stroke-linejoin="round" stroke-width="2"><path fill="#000" fill-rule="evenodd" stroke="none" d="M13.67 1.061c-.222.081-.42.248-.542.455-.091.156-.108.23-.108.484 0 .391.08.527.637 1.079l.423.42-.788.789-.787.788-.485-.472c-.383-.372-.526-.485-.68-.538a1 1 0 0 0-1.212.45c-.091.156-.108.23-.108.484 0 .391.08.527.637 1.079l.423.42-.788.789-.787.788-.485-.472c-.383-.372-.526-.485-.68-.538a1 1 0 0 0-1.212.45c-.091.156-.108.23-.108.484 0 .391.08.527.637 1.079l.423.42-.788.789-.787.788-.485-.472c-.383-.372-.526-.485-.68-.538a1 1 0 0 0-1.212.45c-.091.156-.108.23-.108.484 0 .391.08.527.637 1.079l.423.42-.788.789-.787.788-.485-.472c-.383-.372-.526-.485-.68-.538a1 1 0 0 0-1.212.45c-.092.156-.108.229-.107.484.001.396.048.477.604 1.041l.454.462-.422.418c-.557.552-.637.688-.637 1.079 0 .257.016.327.113.492a.99.99 0 0 0 .972.496c.304-.031.428-.112.936-.612l.461-.454 1.789 1.789 1.79 1.79-.424.419c-.49.486-.614.673-.644.968a.99.99 0 0 0 .495.979c.165.097.235.113.492.113.391 0 .527-.08 1.079-.637l.418-.422.462.454c.564.556.645.603 1.041.604.258.001.327-.015.492-.112a.99.99 0 0 0 .496-.972c-.031-.304-.112-.428-.612-.936l-.454-.461.789-.789.79-.789.42.423c.485.49.672.614.967.644a.99.99 0 0 0 .979-.495c.097-.165.113-.235.113-.492 0-.391-.08-.527-.637-1.079l-.423-.42.789-.79.789-.789.461.454c.508.5.632.581.936.612a.99.99 0 0 0 .972-.496c.097-.165.113-.234.112-.492-.001-.396-.048-.477-.603-1.041l-.454-.461.789-.789.79-.789.42.423c.485.49.672.614.967.644a.99.99 0 0 0 .979-.495c.097-.165.113-.234.112-.492-.001-.396-.048-.477-.603-1.041l-.454-.461.789-.789.79-.789.42.423c.552.557.688.637 1.079.637.257 0 .327-.016.492-.113a.99.99 0 0 0 .495-.979c-.03-.295-.154-.482-.644-.967l-.422-.418.454-.462c.556-.564.603-.645.604-1.041.001-.255-.015-.328-.107-.484a1.02 1.02 0 0 0-.582-.461c-.235-.071-.348-.069-.606.008-.182.053-.28.129-.7.538l-.488.475-1.788-1.788-1.789-1.789.424-.419c.557-.553.637-.689.637-1.08 0-.254-.017-.328-.108-.484a1 1 0 0 0-1.213-.45c-.154.053-.296.165-.677.537l-.482.469-.482-.47c-.381-.37-.524-.483-.678-.536a1 1 0 0 0-.67-.005m4.62 8.229-.789.79-1.791-1.79-1.79-1.789.79-.791.789-.79 1.791 1.79 1.79 1.789zm-3 3-.789.79-1.791-1.79-1.79-1.789.79-.791.789-.79 1.791 1.79 1.79 1.789zm-3 3-.789.79-1.791-1.79-1.79-1.789.79-.791.789-.79 1.791 1.79 1.79 1.789zm-3 3-.789.79-1.791-1.79-1.79-1.789.79-.791.789-.79 1.791 1.79 1.79 1.789z"/></svg>