<svg xmlns="http://www.w3.org/2000/svg" width="24" height="24" fill="none" stroke="currentColor" stroke-linecap="round" stroke-linejoin="round" stroke-width="2"><path fill="#000" fill-rule="evenodd" stroke="none" d="M5.499 2.043c-1.119.19-2.038 1.005-2.385 2.117l-.094.3v13.08l.094.3c.124.4.323.769.565 1.051.577.674 1.251 1.028 2.091 1.099l.35.03-.52.78c-.629.941-.686 1.105-.539 1.522a1 1 0 0 0 1.555.464c.068-.052.527-.7 1.02-1.44L8.533 20h6.934l.897 1.346c.493.74.952 1.388 1.02 1.44.655.499 1.616.031 1.616-.786 0-.255-.096-.444-.617-1.225l-.504-.755.351-.03c1.249-.105 2.278-.937 2.656-2.15l.094-.3V4.46l-.094-.3a3.09 3.09 0 0 0-2.025-2.039l-.321-.101-6.42-.006c-3.531-.003-6.511.01-6.621.029M11 7v3H5V7.447c0-2.909-.007-2.833.304-3.144.305-.306.216-.297 3.126-.3L11 4zm7.31-2.939a.9.9 0 0 1 .387.242c.31.311.303.235.303 3.144V10h-6V4h2.553c2.169 0 2.583.009 2.757.061M19 14.554c0 2.771 0 2.774-.221 3.064-.061.08-.194.195-.295.254l-.184.108H5.7l-.184-.108a1.2 1.2 0 0 1-.291-.249c-.229-.3-.225-.25-.225-3.048V12h14zm-11.305-.499a1.05 1.05 0 0 0-.567.461c-.091.156-.108.23-.108.484 0 .257.016.327.113.492.518.882 1.865.526 1.865-.492a.99.99 0 0 0-.535-.888 1.17 1.17 0 0 0-.768-.057m8 0a1.05 1.05 0 0 0-.567.461c-.091.156-.108.23-.108.484 0 .257.016.327.113.492.518.882 1.865.526 1.865-.492a.99.99 0 0 0-.535-.888 1.17 1.17 0 0 0-.768-.057"/></svg>