<svg xmlns="http://www.w3.org/2000/svg" width="24" height="24" fill="none" stroke="currentColor" stroke-linecap="round" stroke-linejoin="round" stroke-width="2"><path fill="#000" fill-rule="evenodd" stroke="none" d="M9.48 1.062c-.677.145-1.268.509-1.756 1.081a2.9 2.9 0 0 0-.577 1.007c-.117.333-.124.386-.139 1.1L6.991 5H4.942c-2.224 0-2.276.004-2.56.221-.08.061-.195.194-.254.295-.091.156-.108.23-.108.484 0 .256.016.328.111.489.125.213.318.375.539.454.098.035.353.054.739.055l.59.002.01 6.75.011 6.75.125.35c.203.566.517 1.016.998 1.426.317.27.6.433 1.007.579l.35.125h11l.35-.125a3 3 0 0 0 1.007-.579c.481-.41.795-.86.998-1.426l.125-.35.011-6.75.01-6.75.59-.002c.386-.001.641-.02.739-.055.221-.079.414-.241.539-.454.095-.161.111-.233.111-.489 0-.254-.017-.328-.108-.484a1.2 1.2 0 0 0-.254-.295c-.284-.217-.336-.221-2.56-.221h-2.049l-.017-.75c-.015-.714-.022-.767-.139-1.1-.374-1.061-1.279-1.867-2.346-2.087-.422-.087-4.621-.088-5.027-.001m4.874 2.031c.173.095.459.381.552.553.059.109.076.249.087.744l.014.61H9v-.53c0-.292.018-.592.039-.667.085-.295.412-.639.714-.748.117-.042.593-.051 2.307-.044 2.008.008 2.169.014 2.294.082M18 13.53c0 4.437-.014 6.578-.042 6.681-.063.225-.346.548-.594.678l-.213.111H6.849l-.213-.111c-.248-.13-.531-.453-.594-.678C6.014 20.108 6 17.967 6 13.53V7h12zm-8.305-3.473a1.04 1.04 0 0 0-.567.459l-.108.184v6.606l.121.197a.998.998 0 0 0 1.718 0l.121-.197V10.7l-.108-.184a1.005 1.005 0 0 0-1.177-.459m4 0a1.04 1.04 0 0 0-.567.459l-.108.184v6.606l.121.197a.998.998 0 0 0 1.718 0l.121-.197V10.7l-.108-.184a1.005 1.005 0 0 0-1.177-.459"/></svg>