<svg xmlns="http://www.w3.org/2000/svg" width="24" height="24" fill="none" stroke="currentColor" stroke-linecap="round" stroke-linejoin="round" stroke-width="2"><path fill="#000" fill-rule="evenodd" stroke="none" d="M11.678 2.062c-.1.031-.248.115-.329.187-.341.304-4.246 4.548-4.353 4.731a1.9 1.9 0 0 0-.267 1.113c.025.488.122.737.486 1.247.053.075-.01.154-1.021 1.26-.677.741-1.128 1.269-1.213 1.42-.4.711-.334 1.593.166 2.21l.138.169-1.091 1.2c-.627.69-1.145 1.296-1.219 1.427a2.03 2.03 0 0 0-.03 1.904c.142.279.578.708.86.845.472.229.378.224 3.923.225h3.267l.013 1.153.012 1.154.121.196a.998.998 0 0 0 1.718 0l.121-.196.012-1.154.013-1.153h3.267c3.545-.001 3.451.004 3.923-.225.282-.137.718-.566.86-.845a2.03 2.03 0 0 0-.03-1.904c-.074-.131-.592-.737-1.219-1.427l-1.091-1.2.138-.169c.5-.617.566-1.499.166-2.21-.085-.151-.536-.679-1.213-1.42-1.011-1.106-1.074-1.185-1.021-1.26.364-.51.461-.759.486-1.247a1.9 1.9 0 0 0-.267-1.113c-.127-.217-4.14-4.557-4.409-4.769-.268-.212-.561-.259-.917-.149m1.971 4.178 1.618 1.74-.263.026c-.439.043-.686.188-.876.51-.146.248-.153.655-.017.924.053.103.744.895 1.624 1.86l1.532 1.68-.263.026c-.439.043-.686.188-.876.51-.146.248-.153.655-.017.924.053.103.744.895 1.624 1.86l1.531 1.68-3.633.01c-1.998.006-5.268.006-7.266 0l-3.633-.01 1.514-1.66c.833-.913 1.56-1.736 1.616-1.828a.99.99 0 0 0-.152-1.18c-.198-.198-.377-.275-.715-.307l-.264-.025 1.514-1.66c.833-.913 1.561-1.736 1.617-1.828a.99.99 0 0 0-.152-1.18c-.198-.198-.377-.275-.716-.307l-.264-.025 1.624-1.748c.893-.962 1.635-1.745 1.649-1.74.014.004.754.791 1.644 1.748"/></svg>