<svg xmlns="http://www.w3.org/2000/svg" width="24" height="24" fill="none" stroke="currentColor" stroke-linecap="round" stroke-linejoin="round" stroke-width="2"><path fill="#000" fill-rule="evenodd" stroke="none" d="M12.674 2.053c-.223.084-.333.185-1.138 1.047q-.747.8-.841 1c-.172.364-.11.746.172 1.06.204.227.43.328.733.328.365 0 .515-.089.982-.579l.421-.443.254.277c.139.152.874.943 1.632 1.757l1.378 1.48-.263.025c-.339.032-.518.109-.716.307a.99.99 0 0 0-.152 1.18c.056.092.784.915 1.617 1.828l1.514 1.66-.264.025c-.338.032-.517.109-.715.307a.99.99 0 0 0-.152 1.18c.056.092.783.915 1.616 1.828l1.514 1.66-4.263.02c-3.29.015-4.289.031-4.376.07a1.15 1.15 0 0 0-.499.446c-.092.156-.108.23-.108.487 0 .268.014.326.121.5.147.238.436.443.678.479l.177.026.012 1.149.012 1.15.121.196a.998.998 0 0 0 1.718 0l.121-.196.012-1.154.013-1.153h3.267c3.545-.001 3.451.004 3.923-.225.282-.137.718-.566.86-.845a2.03 2.03 0 0 0-.03-1.904c-.074-.131-.592-.737-1.219-1.427l-1.091-1.2.138-.169c.5-.617.566-1.499.166-2.21-.085-.151-.536-.679-1.213-1.42-1.011-1.106-1.074-1.185-1.021-1.26.364-.51.461-.759.486-1.247a1.9 1.9 0 0 0-.26-1.103c-.061-.105-1.073-1.226-2.25-2.491-1.62-1.743-2.18-2.32-2.31-2.383-.218-.106-.583-.135-.777-.063M6.358 6.061c-1.612.251-2.944 1.528-3.268 3.132l-.075.37-.211.142c-.532.358-1.09 1.024-1.364 1.628a4.04 4.04 0 0 0 .101 3.537c.475.9 1.281 1.59 2.239 1.917.45.153.893.213 1.584.213h.634l.011 2.653.011 2.653.121.197a.998.998 0 0 0 1.718 0l.121-.197.011-2.648.011-2.649.789-.019c.861-.021 1.125-.069 1.699-.309.895-.372 1.737-1.212 2.107-2.101.246-.59.301-.888.299-1.62-.002-.601-.012-.692-.111-1.02-.281-.928-.866-1.748-1.597-2.24l-.203-.137-.071-.35a3.99 3.99 0 0 0-3.309-3.155 3.7 3.7 0 0 0-1.247.003m1.12 2.001c.478.109.911.423 1.208.875.205.313.271.547.311 1.111.049.695.151.84.833 1.191a1.97 1.97 0 0 1 .971 2.418 2.03 2.03 0 0 1-1.473 1.299c-.14.029-.939.044-2.34.043-2.31 0-2.412-.008-2.839-.224-.304-.154-.709-.578-.864-.903-.49-1.03-.063-2.178 1.004-2.704.531-.262.711-.539.711-1.097 0-.383.1-.782.265-1.057.474-.792 1.319-1.155 2.213-.952"/></svg>