<svg xmlns="http://www.w3.org/2000/svg" width="24" height="24" fill="none" stroke="currentColor" stroke-linecap="round" stroke-linejoin="round" stroke-width="2"><path fill="#000" fill-rule="evenodd" stroke="none" d="M6.825 2.043C4.4 2.258 2.239 3.808 1.401 5.934c-.262.665-.433 1.601-.391 2.131a.99.99 0 0 0 .66.878c.112.04.447.054 1.313.055 1.361.002 1.398-.005 1.775-.346l.247-.223.187.175c.103.097.19.177.195.177a6 6 0 0 1-.292.32c-1.262 1.334-1.907 2.9-1.91 4.639-.002 1.49.487 2.8 1.453 3.891.35.395.558.503.951.495.396-.008.327.055 3.918-3.534l3.366-3.365.042.157c.317 1.183.595 2.697.751 4.076.085.752.097 2.708.02 3.36-.082.7-.266 1.695-.39 2.11-.02.064-.099.07-.919.07-.493 0-.897-.01-.897-.022s.089-.315.197-.672c.375-1.236.507-2.187.472-3.404-.024-.836-.132-1.594-.266-1.856a1.2 1.2 0 0 0-.509-.471c-.176-.074-.581-.07-.765.007-.32.133-.608.549-.608.878a4 4 0 0 0 .065.54c.094.54.095 1.833.002 2.415-.128.803-.354 1.571-.798 2.705-.133.341-.25.704-.261.806a1 1 0 0 0 .289.774c.303.303.273.3 2.702.3s2.399.003 2.702-.3c.146-.146.19-.237.351-.723.303-.917.465-1.662.615-2.817.098-.759.097-3.001-.001-3.86-.144-1.26-.31-2.267-.528-3.21l-.021-.09h1.014c1.193 0 1.257-.013 1.624-.346l.244-.221.244.221c.388.352.354.346 2.273.344 1.789-.002 1.828-.006 2.102-.215.338-.257.43-.632.343-1.385-.201-1.729-1.141-3.235-2.654-4.251-1.832-1.231-4.329-1.486-6.389-.653l-.421.17-.209-.382c-1.209-2.205-3.753-3.48-6.464-3.239m1.642 2.058c1.613.324 2.893 1.394 3.353 2.803.119.364.125.434.034.399-.177-.068-.715-.191-1.064-.244C10.487 7.013 9.961 7 8.415 7H6.429l-.452-.438c-.383-.37-.484-.447-.662-.5A1.5 1.5 0 0 0 5 6c-.058 0-.2.028-.315.062-.178.053-.279.13-.662.5L3.571 7h-.205c-.12 0-.206-.018-.206-.043 0-.105.267-.668.45-.948.697-1.068 1.909-1.795 3.28-1.968a6.6 6.6 0 0 1 1.577.06m8.993 2.998c1.239.25 2.297.939 2.93 1.91.183.28.45.843.45.948 0 .029-.231.043-.706.043h-.705l-.448-.434C18.509 9.109 18.32 9 18 9s-.509.109-.981.566l-.448.434h-1.958l-.31-1.073c-.171-.589-.304-1.115-.297-1.167.029-.2.944-.578 1.694-.7.443-.072 1.304-.052 1.76.039m-6.554 2.015c.346.091.854.302.854.354 0 .018-1.374 1.406-3.053 3.085-2.351 2.351-3.062 3.04-3.094 3-.059-.074-.238-.537-.317-.818-.09-.319-.122-1.328-.054-1.732.149-.896.605-1.784 1.278-2.496.708-.747 1.766-1.313 2.743-1.465.403-.063 1.273-.025 1.643.072"/></svg>