<svg xmlns="http://www.w3.org/2000/svg" width="24" height="24" fill="none" stroke="currentColor" stroke-linecap="round" stroke-linejoin="round" stroke-width="2"><path fill="#000" fill-rule="evenodd" stroke="none" d="M11.358 2.061c-1.128.176-2.215.913-2.789 1.892-.17.289-.409.842-.409.945 0 .082-.113.126-.462.178-.855.128-1.866.67-2.471 1.324a4.64 4.64 0 0 0-1.191 2.448c-.106.725.028 1.781.301 2.377l.1.219-.288.358c-.496.614-.784 1.185-1.014 2.01-.14.502-.177 1.472-.077 2.008.383 2.057 1.824 3.577 3.858 4.069.317.077.49.085 2.212.1l1.868.017.012 1.15.012 1.151.121.196a.998.998 0 0 0 1.718 0l.121-.196.012-1.151.012-1.15 1.868-.017c2.008-.019 2.033-.021 2.716-.25 1.189-.399 2.256-1.309 2.822-2.404.498-.964.693-2.083.533-3.058-.163-.987-.648-2.014-1.249-2.64l-.137-.143.121-.304c.242-.603.3-.936.299-1.71-.001-.632-.012-.739-.109-1.1-.283-1.052-.962-2.011-1.832-2.59-.589-.393-1.32-.675-1.897-.734-.247-.026-.26-.033-.293-.151-.41-1.472-1.714-2.616-3.241-2.847a3.7 3.7 0 0 0-1.247.003m1.165 2.012c.524.137 1.028.555 1.274 1.056.117.237.149.394.229 1.1.026.231.23.522.471.67.197.121.197.121.84.125.53.003.687.018.89.085.803.263 1.399.864 1.677 1.691.105.311.104 1.091 0 1.4a3.6 3.6 0 0 1-.424.84c-.195.29-.255.483-.228.741a.96.96 0 0 0 .378.686c.943.753 1.347 1.516 1.34 2.533-.003.559-.094.942-.334 1.403-.297.57-.917 1.137-1.507 1.377-.56.227-.479.224-5.269.211-4.925-.014-4.553.009-5.2-.309a2.96 2.96 0 0 1-1.648-2.815c.054-.953.44-1.686 1.202-2.281.374-.293.505-.494.537-.829.024-.251-.052-.464-.303-.849-.349-.535-.479-1.013-.434-1.608.047-.623.284-1.125.746-1.58.548-.539 1.089-.732 1.994-.711.46.01.521.003.674-.079.368-.197.572-.538.572-.959 0-.29.116-.709.265-.957.48-.802 1.37-1.173 2.258-.941"/></svg>