<svg xmlns="http://www.w3.org/2000/svg" width="24" height="24" fill="none" stroke="currentColor" stroke-linecap="round" stroke-linejoin="round" stroke-width="2"><path fill="#000" fill-rule="evenodd" stroke="none" d="M15.695 6.057a1.04 1.04 0 0 0-.567.459c-.091.156-.108.23-.108.484 0 .256.016.328.111.489.125.213.318.375.539.454.117.042.564.054 2.03.055L19.58 8l-3.04 3.04-3.039 3.04-2.201-2.198c-1.676-1.675-2.243-2.218-2.38-2.279a1.13 1.13 0 0 0-.84 0c-.139.062-.936.836-3.513 3.409-1.833 1.83-3.377 3.404-3.432 3.496-.274.459-.103 1.079.373 1.359.165.097.234.113.492.112.212 0 .341-.022.44-.074.077-.04 1.472-1.403 3.1-3.029l2.961-2.956 2.139 2.143c1.177 1.179 2.213 2.194 2.303 2.257.312.219.801.219 1.112.001.091-.063 1.686-1.638 3.545-3.498l3.38-3.383.02 1.933.02 1.933.121.197a.998.998 0 0 0 1.718 0l.121-.197.011-3.243c.01-2.937.005-3.259-.055-3.417a1 1 0 0 0-.516-.552l-.2-.093-3.18.002c-2.483.002-3.216.014-3.345.054"/></svg>