<svg xmlns="http://www.w3.org/2000/svg" width="24" height="24" fill="none" stroke="currentColor" stroke-linecap="round" stroke-linejoin="round" stroke-width="2"><path fill="#000" fill-rule="evenodd" stroke="none" d="M1.695 6.057a1.04 1.04 0 0 0-.567.459c-.092.156-.108.229-.107.484 0 .212.022.341.074.44.083.16 6.599 6.706 6.848 6.88.292.205.797.22 1.074.032.068-.046 1.104-1.062 2.303-2.258L13.5 9.92l3.04 3.04L19.58 16h-1.844c-2.001 0-2.073.007-2.354.221-.08.061-.195.194-.254.295-.091.156-.108.23-.108.484 0 .256.016.328.111.489.125.213.318.375.539.454.12.043.781.054 3.35.055l3.2.001.2-.093c.237-.11.425-.311.516-.552.06-.158.065-.48.055-3.414l-.011-3.24-.109-.186a1.01 1.01 0 0 0-1.742 0l-.109.186-.011 1.938-.012 1.938-3.448-3.446c-2.671-2.669-3.49-3.465-3.629-3.527a1.06 1.06 0 0 0-.862.016c-.15.075-.728.629-2.377 2.28l-2.18 2.18-2.98-2.976c-2.89-2.886-2.988-2.978-3.198-3.039-.257-.076-.404-.077-.628-.007"/></svg>