<svg xmlns="http://www.w3.org/2000/svg" width="24" height="24" fill="none" stroke="currentColor" stroke-linecap="round" stroke-linejoin="round" stroke-width="2"><path fill="#000" fill-rule="evenodd" stroke="none" d="M15.695 2.057a1.04 1.04 0 0 0-.567.459c-.091.156-.108.23-.108.484 0 .256.016.328.111.489.061.103.173.236.25.294.269.206.335.213 1.819.215L18.58 4l-3.289 3.289-3.29 3.29-1.73-1.724c-1.55-1.543-1.752-1.731-1.928-1.789a.98.98 0 0 0-.686-.001c-.179.06-.474.342-3.31 3.17-1.712 1.708-3.158 3.181-3.213 3.273-.272.46-.102 1.079.374 1.359.165.097.234.113.492.112.212 0 .341-.022.44-.074.077-.04 1.359-1.291 2.85-2.779L8 9.421l1.71 1.705c.94.938 1.773 1.739 1.85 1.779.194.102.686.102.88 0 .077-.04 1.809-1.74 3.848-3.777l3.708-3.704.012 1.441.012 1.441.121.197a.998.998 0 0 0 1.718 0l.121-.197.011-2.743c.011-2.474.005-2.76-.055-2.917a1 1 0 0 0-.516-.552l-.2-.093-2.68.002c-2.074.002-2.717.014-2.845.054m-1.208 11.828c-.193.056-.549.419-.603.615-.067.245-.051.539.039.74.062.137.623.722 2.368 2.47L18.579 20h-1.343c-1.461 0-1.583.015-1.854.221-.08.061-.195.194-.254.295-.091.156-.108.23-.108.484 0 .256.016.328.111.489.125.213.318.375.539.454.12.043.698.054 2.85.055l2.7.001.2-.093c.237-.11.425-.311.516-.552.06-.157.066-.443.055-2.914l-.011-2.74-.109-.186a1.01 1.01 0 0 0-1.742 0l-.109.186-.012 1.438-.012 1.437-2.288-2.286c-1.746-1.744-2.331-2.304-2.468-2.366-.194-.088-.522-.104-.753-.038"/></svg>