<svg xmlns="http://www.w3.org/2000/svg" width="24" height="24" fill="none" stroke="currentColor" stroke-linecap="round" stroke-linejoin="round" stroke-width="2"><path fill="#000" fill-rule="evenodd" stroke="none" d="m11.68 2.023-.34.06a3.2 3.2 0 0 0-.646.238 3.03 3.03 0 0 0-1.266 1.153c-.254.428-.309.683-.212.989.13.412.552.737.958.737.364 0 .713-.231.912-.605.148-.278.334-.447.589-.534.495-.168.975.038 1.238.532.232.436.571.636 1.007.596a.995.995 0 0 0 .917-1.004c-.006-.348-.277-.827-.715-1.269-.446-.447-.92-.72-1.454-.836-.219-.047-.839-.083-.988-.057M7.647 6.864a1 1 0 0 0-.305.23c-.12.159-1.092 1.838-1.171 2.024-.212.5.106 1.143.645 1.303.265.079.379.075.642-.024.305-.114.418-.258 1.025-1.31.568-.983.655-1.185.619-1.427-.108-.722-.821-1.112-1.455-.796m7.802-.017c-.214.104-.46.38-.522.585-.065.217-.055.477.025.675.14.344 1.072 1.913 1.235 2.079.509.518 1.381.298 1.635-.414a.83.83 0 0 0 .013-.551c-.05-.183-1.037-1.915-1.212-2.128-.255-.312-.802-.426-1.174-.246M4.765 12.028c-.096.034-.24.128-.32.21-.174.177-1.192 1.934-1.273 2.197-.178.58.319 1.235.943 1.243.519.006.732-.198 1.375-1.325.593-1.04.628-1.117.629-1.404.002-.407-.196-.712-.579-.894a1.02 1.02 0 0 0-.775-.027m13.718.001c-.468.165-.753.754-.588 1.216.094.262 1.122 2.011 1.269 2.159a1 1 0 0 0 1.098.181.99.99 0 0 0 .483-1.325c-.052-.11-.313-.578-.58-1.04-.519-.899-.705-1.125-.995-1.212a1.15 1.15 0 0 0-.687.021M1.87 17.214c-.406.152-.63.464-.794 1.109-.072.282-.072 1.072 0 1.354a3.07 3.07 0 0 0 2.358 2.265c.327.07.685.074.895.01.225-.067.53-.354.616-.579a.98.98 0 0 0-.177-1.021c-.197-.218-.398-.31-.775-.353-.493-.056-.717-.214-.913-.646-.104-.23-.099-.43.021-.805.117-.366.118-.39.037-.663a1.1 1.1 0 0 0-.512-.612c-.204-.104-.559-.132-.756-.059m19.499.088c-.478.241-.645.729-.451 1.313.142.426.087.743-.185 1.066-.139.165-.464.318-.676.319-.724.001-1.209.633-1.016 1.325.059.214.321.489.566.594.185.08.256.088.572.069.84-.05 1.553-.408 2.111-1.059.675-.79.884-1.906.542-2.905-.115-.339-.26-.541-.489-.682-.16-.099-.247-.123-.479-.134-.244-.011-.314.002-.495.094M7.695 20.057a1.04 1.04 0 0 0-.567.459c-.091.156-.108.23-.108.484 0 .256.016.328.111.489.125.213.318.375.539.454.215.077 2.445.077 2.66 0 .221-.079.414-.241.539-.454.095-.161.111-.233.111-.489 0-.254-.017-.328-.108-.484a1.02 1.02 0 0 0-.582-.461c-.251-.076-2.353-.074-2.595.002m6 0a1.04 1.04 0 0 0-.567.459c-.091.156-.108.23-.108.484 0 .256.016.328.111.489.125.213.318.375.539.454.215.077 2.445.077 2.66 0 .221-.079.414-.241.539-.454.095-.161.111-.233.111-.489 0-.254-.017-.328-.108-.484a1.02 1.02 0 0 0-.582-.461c-.251-.076-2.353-.074-2.595.002"/></svg>