<svg xmlns="http://www.w3.org/2000/svg" width="24" height="24" fill="none" stroke="currentColor" stroke-linecap="round" stroke-linejoin="round" stroke-width="2"><path fill="#000" fill-rule="evenodd" stroke="none" d="M11.32 2.065a3 3 0 0 0-.548.192c-.643.305-1.048.68-1.428 1.32-.478.806-7.905 13.827-8.042 14.099a2.98 2.98 0 0 0-.009 2.629 3 3 0 0 0 1.367 1.377c.661.325-.195.298 9.32.298 9.556 0 8.653.031 9.36-.317a2.78 2.78 0 0 0 1.323-1.323c.25-.509.316-.788.316-1.34 0-.535-.064-.82-.294-1.3-.161-.338-7.898-13.902-8.174-14.331A3.04 3.04 0 0 0 12.7 2.08c-.372-.095-.983-.102-1.38-.015M12.425 4.1c.111.055.239.141.285.19.132.141 8.197 14.278 8.246 14.453a.95.95 0 0 1-.256.951c-.334.334.455.306-8.717.304-6.715-.001-8.19-.011-8.313-.055a1.15 1.15 0 0 1-.542-.433c-.096-.146-.108-.201-.108-.507v-.343l4.072-7.12c2.24-3.916 4.129-7.178 4.198-7.249a.97.97 0 0 1 1.135-.191m-.73 3.957a1.04 1.04 0 0 0-.567.459l-.108.184v4.606l.121.197c.068.11.205.253.311.325.471.316 1.102.171 1.407-.325l.121-.197V8.7l-.108-.184a1.005 1.005 0 0 0-1.177-.459m0 7.998a1.05 1.05 0 0 0-.567.461c-.091.156-.108.23-.108.484 0 .257.016.327.113.492.518.882 1.865.526 1.865-.492a.99.99 0 0 0-.535-.888 1.17 1.17 0 0 0-.768-.057"/></svg>