<svg xmlns="http://www.w3.org/2000/svg" width="24" height="24" fill="none" stroke="currentColor" stroke-linecap="round" stroke-linejoin="round" stroke-width="2"><path fill="#000" fill-rule="evenodd" stroke="none" d="M11.566 2.041c-.804.111-1.638.647-2.084 1.339-.269.419-8.008 13.986-8.167 14.32-.23.48-.294.765-.294 1.3 0 .552.066.831.316 1.34a2.78 2.78 0 0 0 1.323 1.323c.707.348-.194.317 9.34.317s8.633.031 9.34-.317a2.78 2.78 0 0 0 1.323-1.323c.25-.509.316-.788.316-1.34 0-.535-.064-.82-.294-1.3-.159-.334-7.898-13.901-8.167-14.32a3.2 3.2 0 0 0-1.764-1.275 3.9 3.9 0 0 0-1.188-.064m.749 2.025c.13.042.262.125.365.23.185.189 8.173 14.125 8.265 14.42a.94.94 0 0 1-.245.978c-.334.334.452.306-8.7.306s-8.366.028-8.7-.306a.94.94 0 0 1-.245-.978c.03-.097 1.865-3.344 4.078-7.216 2.829-4.951 4.071-7.089 4.185-7.204.268-.271.62-.352.997-.23"/></svg>