<svg xmlns="http://www.w3.org/2000/svg" width="24" height="24" fill="none" stroke="currentColor" stroke-linecap="round" stroke-linejoin="round" stroke-width="2"><path fill="#000" fill-rule="evenodd" stroke="none" d="M20.857 2.977c-.266.06-.706.269-.957.453-.625.459-18.096 14.632-18.304 14.849q-.602.63-.547 1.336c.055.674.55 1.161 1.351 1.328.242.05 1.501.057 9.23.048l8.95-.011.28-.094c.991-.332 1.722-1.07 2.026-2.046l.094-.3V4.5l-.093-.297q-.253-.806-.928-1.121a1.77 1.77 0 0 0-1.102-.105m.103 15.247c-.055.26-.236.507-.474.647l-.186.109-8.237.01c-4.53.006-8.229.003-8.22-.006s3.869-3.133 8.577-6.942l8.56-6.924.012 6.451c.009 4.553-.001 6.511-.032 6.655"/></svg>