<svg xmlns="http://www.w3.org/2000/svg" width="24" height="24" fill="none" stroke="currentColor" stroke-linecap="round" stroke-linejoin="round" stroke-width="2"><path fill="#000" fill-rule="evenodd" stroke="none" d="M3.499 3.043c-1.11.189-2.011.981-2.385 2.097l-.094.28-.011 5.899c-.007 4.024.003 5.964.031 6.103.075.357.26.686.551.977.493.493.825.601 1.851.601h.705l.165.33a3.1 3.1 0 0 0 1.848 1.556c.434.135 1.246.135 1.68 0a3.1 3.1 0 0 0 1.848-1.556l.165-.33h4.294l.165.33a3.1 3.1 0 0 0 1.848 1.556c.252.078.387.093.84.093s.588-.015.84-.093a3.1 3.1 0 0 0 1.848-1.556l.165-.33h.705c.767 0 1.005-.039 1.372-.225.266-.135.708-.575.841-.838.223-.439.229-.513.229-2.735 0-2.256-.012-2.389-.243-2.794-.131-.23-3.712-4.721-3.901-4.893a2.3 2.3 0 0 0-.692-.407c-.21-.079-.318-.085-1.689-.099l-1.466-.014-.019-.788c-.016-.671-.032-.828-.108-1.067a3.1 3.1 0 0 0-2.021-2.019l-.321-.101-4.42-.006c-2.431-.003-4.511.01-4.621.029m8.811 2.018c.279.083.546.35.629.629.053.179.061.903.061 5.757V17H9.853l-.165-.33a3.08 3.08 0 0 0-1.827-1.545c-.273-.083-.403-.098-.861-.098s-.588.015-.861.098a3.08 3.08 0 0 0-1.827 1.545l-.165.33H3v-5.553c0-6.257-.022-5.819.304-6.144.314-.314.042-.297 4.679-.3 3.58-.003 4.149.005 4.327.058m6.95 6.114L21 13.35V17h-1.147l-.165-.33a3.08 3.08 0 0 0-1.827-1.545c-.456-.138-1.218-.144-1.681-.012a3.1 3.1 0 0 0-1.01.514l-.17.138V9h2.52zM7.31 17.061c.378.112.69.537.69.94 0 .33-.216.695-.516.871-.156.091-.23.108-.484.108s-.328-.017-.484-.108c-.581-.342-.683-1.098-.212-1.569q.417-.418 1.006-.242m10 0c.378.112.69.537.69.94 0 .33-.216.695-.516.871-.156.091-.23.108-.484.108s-.328-.017-.484-.108c-.584-.344-.685-1.097-.209-1.573q.414-.413 1.003-.238"/></svg>