<svg xmlns="http://www.w3.org/2000/svg" width="24" height="24" fill="none" stroke="currentColor" stroke-linecap="round" stroke-linejoin="round" stroke-width="2"><path fill="#000" fill-rule="evenodd" stroke="none" d="M3.499 2.043C2.38 2.232 1.461 3.048 1.114 4.16l-.094.3v11.08l.094.3a3.09 3.09 0 0 0 2.046 2.046l.3.094h17.08l.3-.094a3.09 3.09 0 0 0 2.046-2.046l.094-.3V4.46l-.094-.3a3.09 3.09 0 0 0-2.025-2.039l-.321-.101-8.42-.006c-4.631-.003-8.511.01-8.621.029M20.31 4.061c.279.083.546.35.629.629.053.178.061.856.061 5.311 0 4.211-.01 5.138-.055 5.289a1.02 1.02 0 0 1-.461.582l-.184.108H3.7l-.184-.108a1.05 1.05 0 0 1-.458-.556c-.089-.255-.087-10.323.003-10.626.079-.269.351-.547.612-.627.16-.049 1.357-.058 8.31-.06 7.161-.003 8.147.004 8.327.058m-9.97 1.992a1.79 1.79 0 0 0-1.172.977l-.148.31-.011 2.554c-.01 2.133-.002 2.59.046 2.78.262 1.015 1.375 1.589 2.325 1.199.402-.165 4.044-2.425 4.272-2.65a1.9 1.9 0 0 0 .343-.5c.138-.289.145-.323.145-.723s-.007-.434-.145-.723a1.8 1.8 0 0 0-.344-.5c-.222-.219-3.963-2.536-4.306-2.666-.251-.096-.746-.124-1.005-.058m2.68 3.385c.44.27.821.511.847.536.042.042-.676.501-2.715 1.738l-.152.093V8.201l.61.374zM6.695 20.057a1.04 1.04 0 0 0-.567.459c-.091.156-.108.23-.108.484 0 .256.016.328.111.489.125.213.318.375.539.454.122.044 1.104.053 5.33.053s5.208-.009 5.33-.053c.221-.079.414-.241.539-.454.095-.161.111-.233.111-.489 0-.254-.017-.328-.108-.484a1.02 1.02 0 0 0-.582-.461c-.262-.079-10.344-.077-10.595.002"/></svg>