<svg xmlns="http://www.w3.org/2000/svg" width="24" height="24" fill="none" stroke="currentColor" stroke-linecap="round" stroke-linejoin="round" stroke-width="2"><path fill="#000" fill-rule="evenodd" stroke="none" d="M15.275 3.043c-1.139.167-2.299.757-3.033 1.541a5 5 0 0 0-1.316 2.851l-.064.534-.294-.026c-1.13-.103-2.481-.512-3.648-1.106-1.051-.534-1.707-1.022-2.672-1.985-.656-.653-.754-.737-.938-.791-.258-.077-.409-.077-.635 0-.284.097-.448.262-.651.656a9.1 9.1 0 0 0-.862 5.763 9.56 9.56 0 0 0 2.747 5.213c.596.579 1.097.972 1.691 1.326.324.192.309.178.239.222-.131.082-.924.372-1.319.481-.666.184-1.082.243-1.96.273-.906.032-1.01.057-1.265.313a.95.95 0 0 0-.241.993c.103.301.234.434.736.745 1.671 1.038 3.415 1.655 5.31 1.881.573.068 2.195.067 2.74-.002 2.933-.37 5.549-1.638 7.588-3.677 2.159-2.159 3.419-4.85 3.695-7.888.049-.545.027-1.935-.039-2.395l-.031-.215.312-.414c.171-.228.422-.599.556-.825.487-.817 1.019-2.024 1.065-2.416.053-.45-.243-.906-.67-1.032-.394-.118-.541-.085-1.11.248-.464.271-1.167.606-1.572.749l-.307.108-.213-.159a5.2 5.2 0 0 0-2.43-.965 6.7 6.7 0 0 0-1.409-.001m1.573 2.056c.486.134.969.402 1.43.795.341.292.631.356 1.197.264.14-.023.263-.033.272-.024s-.127.186-.305.392c-.45.52-.477.618-.388 1.394.257 2.245-.028 4.058-.936 5.95-.581 1.213-1.25 2.15-2.163 3.031-2.35 2.269-5.451 3.371-8.555 3.041-.678-.072-1.974-.344-1.914-.401a7 7 0 0 1 .414-.161c1.216-.449 2.721-1.42 2.979-1.921.148-.289.144-.686-.01-.948-.155-.264-.313-.369-.824-.549a7.5 7.5 0 0 1-4.946-6.055 10 10 0 0 1-.017-1.948c.043-.348.185-1.017.236-1.113.022-.039.092.002.266.154C5.083 8.317 7.299 9.387 9.34 9.78c.992.191 2.54.286 2.919.18.381-.106.674-.433.725-.807.014-.1.002-.314-.026-.477-.081-.462-.065-1.078.039-1.454.302-1.101 1.188-1.912 2.363-2.164.328-.07 1.168-.047 1.488.041"/></svg>