<svg xmlns="http://www.w3.org/2000/svg" width="24" height="24" fill="none" stroke="currentColor" stroke-linecap="round" stroke-linejoin="round" stroke-width="2"><path fill="#000" fill-rule="evenodd" stroke="none" d="M3.499 2.043C2.38 2.232 1.461 3.048 1.114 4.16c-.093.298-.094.313-.094 2.34s.001 2.042.094 2.34a3.09 3.09 0 0 0 2.046 2.046c.252.078.387.093.84.093s.588-.015.84-.093c1.183-.368 2.036-1.397 2.144-2.584L7.011 8H9v7.99l-.286.028c-1.219.12-2.23.953-2.6 2.142-.135.434-.135 1.246 0 1.68a3.09 3.09 0 0 0 2.046 2.046l.3.094h7.08l.3-.094a3.09 3.09 0 0 0 2.046-2.046c.135-.434.135-1.246 0-1.68a3.1 3.1 0 0 0-.975-1.465 2.97 2.97 0 0 0-1.625-.677L15 15.99V8h1.989l.027.302c.108 1.187.961 2.216 2.144 2.584.434.135 1.246.135 1.68 0a3.09 3.09 0 0 0 2.046-2.046c.093-.298.094-.313.094-2.34s-.001-2.042-.094-2.34a3.09 3.09 0 0 0-2.025-2.039l-.321-.101-8.42-.006c-4.631-.003-8.511.01-8.621.029M20.31 4.061c.279.083.546.35.629.629.085.286.09 3.32.006 3.6a1.02 1.02 0 0 1-.461.582c-.156.091-.23.108-.484.108s-.328-.017-.484-.108a1.1 1.1 0 0 1-.443-.499c-.026-.062-.058-.365-.072-.673-.022-.496-.038-.588-.136-.804a1.68 1.68 0 0 0-.765-.764l-.24-.112h-3.72l-.24.112a1.7 1.7 0 0 0-.767.764l-.113.244v9.72l.112.24c.148.318.455.625.764.765.215.097.31.113.804.136.643.029.775.071 1.017.32.163.169.283.456.283.68 0 .33-.216.695-.516.871l-.184.108H8.7l-.184-.108c-.569-.334-.682-1.088-.233-1.551.242-.249.374-.291 1.017-.32.494-.023.589-.039.804-.136a1.67 1.67 0 0 0 .764-.765l.112-.24V7.14l-.112-.24a1.7 1.7 0 0 0-.764-.767L9.86 6.02H6.14l-.24.112a1.67 1.67 0 0 0-.765.764c-.097.215-.113.311-.137.804-.014.308-.047.611-.072.673-.078.192-.25.386-.442.499-.156.091-.23.108-.484.108s-.328-.017-.484-.108a1.05 1.05 0 0 1-.458-.556c-.087-.249-.085-3.33.003-3.626.079-.269.351-.547.612-.627.16-.049 1.357-.058 8.31-.06 7.161-.003 8.147.004 8.327.058"/></svg>