<svg xmlns="http://www.w3.org/2000/svg" width="24" height="24" fill="none" stroke="currentColor" stroke-linecap="round" stroke-linejoin="round" stroke-width="2"><path fill="#000" fill-rule="evenodd" stroke="none" d="M1.67 1.061c-.222.081-.42.248-.542.455-.092.156-.108.229-.107.484 0 .212.022.341.074.44.041.077.711.78 1.49 1.561l1.416 1.422-.144.138a8 8 0 0 0-.468.539 11.4 11.4 0 0 0-2.011 3.872c-.199.695-.345 1.502-.352 1.948-.006.349.003.395.105.569.125.213.318.375.539.454.122.043 1.01.054 4.739.055l4.589.002.011 3.89.011 3.89.107.292c.385 1.055 1.212 1.744 2.312 1.928.834.14 1.781-.176 2.401-.8.502-.505.724-.981.641-1.372-.053-.249-.123-.379-.288-.534-.222-.209-.382-.272-.693-.272-.419 0-.629.132-.934.585a1.3 1.3 0 0 1-.236.266.847.847 0 0 1-1.246-.326c-.083-.17-.084-.211-.084-3.149v-2.977l4.21 4.205c2.316 2.313 4.273 4.239 4.35 4.279.099.052.228.074.44.074.258.001.327-.015.492-.112.476-.28.647-.9.373-1.359-.055-.092-4.65-4.715-10.212-10.273C3.3 1.889 2.525 1.125 2.343 1.065a1 1 0 0 0-.673-.004m10.025-.004a1 1 0 0 0-.68.794l-.025.185-.225.024c-.594.065-1.805.337-2.165.486-.18.075-.384.271-.492.474-.121.225-.12.656.002.886.25.473.757.642 1.37.454.87-.267 1.774-.378 2.828-.349 1.125.032 2.03.206 2.953.567 2.663 1.041 4.655 3.214 5.436 5.93l.135.472-1.806.02c-1.756.019-1.81.022-1.966.106-.353.191-.548.509-.548.894 0 .405.207.724.588.905l.2.094 2.44-.001c1.934-.001 2.471-.013 2.59-.055.221-.079.414-.241.539-.454.1-.171.111-.224.107-.549-.013-1.159-.596-3.042-1.346-4.351a10.2 10.2 0 0 0-1.847-2.409 10.85 10.85 0 0 0-6.368-3.104l-.405-.046-.025-.182a.99.99 0 0 0-.695-.793.9.9 0 0 0-.595.002M7.5 8.92 9.58 11H6.39c-2.898 0-3.19-.006-3.19-.064 0-.111.232-.867.376-1.223.17-.423.49-1.063.71-1.422.269-.441 1.041-1.445 1.114-1.45.011 0 .956.935 2.1 2.079"/></svg>