<svg xmlns="http://www.w3.org/2000/svg" width="24" height="24" fill="none" stroke="currentColor" stroke-linecap="round" stroke-linejoin="round" stroke-width="2"><path fill="#000" fill-rule="evenodd" stroke="none" d="M11.695 1.057a1 1 0 0 0-.682.819c-.013.112-.035.204-.049.204s-.267.036-.564.08a11.04 11.04 0 0 0-9.2 8.58c-.15.686-.217 1.21-.183 1.435.037.247.24.536.48.684l.197.121 4.652.011 4.651.01.012 3.79.011 3.789.094.28c.332.991 1.071 1.723 2.046 2.026.434.135 1.246.135 1.68 0a3.08 3.08 0 0 0 2.045-2.046c.07-.229.092-.4.093-.72.002-.387-.007-.434-.107-.606a1.01 1.01 0 0 0-1.466-.309c-.236.174-.358.404-.403.761a2.6 2.6 0 0 1-.08.409 1.1 1.1 0 0 1-.438.497c-.156.091-.23.108-.484.108s-.328-.017-.484-.108a1.2 1.2 0 0 1-.291-.249c-.233-.306-.225-.159-.225-4.047v-3.575l4.653-.01 4.653-.011.197-.121c.241-.148.443-.436.48-.685.054-.358-.166-1.544-.448-2.42A10.5 10.5 0 0 0 21.218 7 11.02 11.02 0 0 0 13.6 2.16a25 25 0 0 0-.564-.08c-.014 0-.036-.092-.049-.204a.995.995 0 0 0-1.292-.819m1.645 3.082a9.09 9.09 0 0 1 6.866 5.125c.187.397.513 1.31.574 1.606l.026.13h-8.803c-7.836 0-8.803-.007-8.803-.061 0-.133.401-1.266.592-1.67a9.1 9.1 0 0 1 5.315-4.752c.673-.228 1.33-.364 2.193-.453.327-.034 1.653.015 2.04.075"/></svg>