<svg xmlns="http://www.w3.org/2000/svg" width="24" height="24" fill="none" stroke="currentColor" stroke-linecap="round" stroke-linejoin="round" stroke-width="2"><path fill="#000" fill-rule="evenodd" stroke="none" d="M5.695 3.057a1.04 1.04 0 0 0-.567.459L5.02 3.7v3.48c0 2.683.012 3.558.053 3.82.479 3.09 2.808 5.425 5.907 5.926.412.066 1.627.066 2.04 0 3.096-.5 5.429-2.84 5.907-5.926.041-.262.053-1.14.053-3.82V3.7l-.109-.186a1.01 1.01 0 0 0-1.742 0l-.109.186-.025 3.48c-.015 2.152-.04 3.556-.066 3.68-.125.602-.269 1.007-.531 1.493a5 5 0 0 1-2.798 2.379c-.556.19-.93.248-1.6.248s-1.044-.058-1.6-.248a5.08 5.08 0 0 1-3.08-2.98 6 6 0 0 1-.249-.892c-.026-.124-.051-1.528-.066-3.68L6.98 3.7l-.108-.184a1.005 1.005 0 0 0-1.177-.459m-2 16a1.04 1.04 0 0 0-.567.459c-.091.156-.108.23-.108.484 0 .256.016.328.111.489.125.213.318.375.539.454.223.079 16.437.079 16.66 0 .221-.079.414-.241.539-.454.095-.161.111-.233.111-.489 0-.254-.017-.328-.108-.484a1.02 1.02 0 0 0-.582-.461c-.263-.079-16.343-.077-16.595.002"/></svg>