<svg xmlns="http://www.w3.org/2000/svg" width="24" height="24" fill="none" stroke="currentColor" stroke-linecap="round" stroke-linejoin="round" stroke-width="2"><path fill="#000" fill-rule="evenodd" stroke="none" d="M8.64 3.068c-.155.053-.55.43-2.814 2.687C2.961 8.609 3.001 8.564 3.001 9s-.037.393 2.805 3.226c1.438 1.433 2.675 2.636 2.749 2.673.455.229 1.046.045 1.312-.407.097-.165.113-.234.112-.492 0-.212-.022-.341-.074-.44-.04-.077-.841-.909-1.779-1.85L6.421 10h4.14c2.772 0 4.258.015 4.499.044a4.52 4.52 0 0 1 3.48 2.493c.721 1.489.559 3.304-.411 4.606a4.5 4.5 0 0 1-2.904 1.795c-.289.05-.729.062-2.344.062-2.158 0-2.216.005-2.499.221-.08.061-.195.194-.254.295-.091.156-.108.23-.108.484 0 .257.016.327.113.492.129.22.369.409.597.471.107.029.878.037 2.364.026 1.815-.014 2.263-.029 2.526-.082 2.779-.557 4.779-2.571 5.29-5.327.092-.495.092-1.665 0-2.16-.451-2.433-2.09-4.326-4.41-5.095C15.553 8.011 15.351 8 10.541 8h-4.12l1.705-1.71c.938-.94 1.739-1.773 1.779-1.85.052-.099.074-.228.074-.44.001-.255-.015-.328-.107-.484a1.016 1.016 0 0 0-1.232-.448"/></svg>