<svg xmlns="http://www.w3.org/2000/svg" width="24" height="24" fill="none" stroke="currentColor" stroke-linecap="round" stroke-linejoin="round" stroke-width="2"><path fill="#000" fill-rule="evenodd" stroke="none" d="M2.695 6.057a1.04 1.04 0 0 0-.567.459L2.02 6.7l-.011 3.24c-.01 2.934-.005 3.256.055 3.414.091.241.279.442.516.552l.2.093 3.2-.001c2.569-.001 3.23-.012 3.35-.055.221-.079.414-.241.539-.454.095-.161.111-.233.111-.489 0-.254-.017-.328-.108-.484a1.15 1.15 0 0 0-.499-.446c-.083-.037-.6-.055-1.929-.07l-1.816-.02.536-.481c.925-.831 1.286-1.103 1.976-1.489 2.845-1.593 6.472-1.253 8.96.838a7.8 7.8 0 0 1 2.084 2.652c.462.941.705 1.856.781 2.94.022.319.049.656.06.749.027.231.232.522.472.67.174.107.232.121.5.121.26 0 .33-.016.495-.113.222-.13.409-.369.473-.603.096-.349-.021-1.657-.225-2.524a9.84 9.84 0 0 0-2.678-4.801 9.7 9.7 0 0 0-2.422-1.793c-2.498-1.316-5.572-1.501-8.164-.492-.644.251-.938.389-1.428.67-.78.449-1.2.769-2.276 1.739-.401.362-.738.657-.749.657s-.025-.904-.032-2.01L3.98 6.7l-.108-.184a1.005 1.005 0 0 0-1.177-.459"/></svg>