<svg xmlns="http://www.w3.org/2000/svg" width="24" height="24" fill="none" stroke="currentColor" stroke-linecap="round" stroke-linejoin="round" stroke-width="2"><path fill="#000" fill-rule="evenodd" stroke="none" d="M5.477 3.073c-.671.176-1.239.75-1.417 1.435C4.01 4.698 4 5.123 4 7c0 2.455.003 2.491.225 2.93.136.269.576.709.845.845.452.229.383.225 3.93.225s3.478.004 3.93-.225c.266-.135.708-.575.841-.838.225-.443.229-.495.228-2.923 0-2.413-.008-2.518-.218-2.931-.135-.267-.484-.634-.764-.802-.469-.282-.381-.276-4.017-.276-2.953 0-3.285.006-3.523.068M12 7v2H6V5h6zm-.523 6.073c-.671.176-1.239.75-1.417 1.435-.05.19-.06.615-.06 2.492 0 2.455.003 2.491.225 2.93.136.269.576.709.845.845.452.229.383.225 3.93.225s3.478.004 3.93-.225c.266-.135.708-.575.841-.838.225-.443.229-.495.228-2.923 0-2.413-.008-2.518-.218-2.931-.135-.267-.484-.634-.764-.802-.469-.282-.381-.276-4.017-.276-2.953 0-3.285.006-3.523.068M18 17v2h-6v-4h6z"/></svg>