<svg xmlns="http://www.w3.org/2000/svg" width="24" height="24" fill="none" stroke="currentColor" stroke-linecap="round" stroke-linejoin="round" stroke-width="2"><path fill="#000" fill-rule="evenodd" stroke="none" d="M11.676 3.059c-.079.029-1.456.927-3.06 1.997L5.7 7H3.796c-2.066 0-2.132.006-2.414.221-.08.061-.195.194-.254.295L1.02 7.7v12.84l.094.3a3.09 3.09 0 0 0 2.046 2.046l.3.094h17.08l.3-.094a3.09 3.09 0 0 0 2.046-2.046l.094-.3V7.7l-.108-.184a1.2 1.2 0 0 0-.254-.295C22.336 7.006 22.27 7 20.204 7H18.3l-2.915-1.944c-1.604-1.069-2.988-1.969-3.075-2a1 1 0 0 0-.634.003m3.089 3.985c1.521 1.014 2.837 1.869 2.925 1.9.127.044.482.056 1.735.056H21v5.554c0 4.59-.01 5.585-.055 5.736a1.02 1.02 0 0 1-.461.582l-.184.108-2.648.011-2.648.011-.013-2.291c-.013-2.273-.014-2.293-.106-2.571-.325-.98-1.074-1.725-2.024-2.015-.273-.083-.403-.098-.861-.098s-.588.015-.861.098c-.95.29-1.699 1.035-2.024 2.015-.092.278-.093.298-.106 2.571l-.013 2.291-2.648-.011L3.7 20.98l-.184-.108a1.2 1.2 0 0 1-.291-.249C2.987 20.312 3 20.65 3 14.575V9h1.565c1.066 0 1.615-.015 1.72-.046.084-.025 1.4-.879 2.924-1.897a698 698 0 0 1 2.781-1.854c.006-.002 1.255.827 2.775 1.841m-3.288 1.029c-.671.176-1.239.75-1.417 1.435a2.07 2.07 0 0 0 .165 1.422c.136.269.576.709.845.845a2.05 2.05 0 0 0 1.86 0c.266-.135.708-.575.841-.838a2.05 2.05 0 0 0 .169-1.408 1.8 1.8 0 0 0-.475-.876A1.97 1.97 0 0 0 12 8.005c-.143 0-.378.031-.523.068m-5.782 3.984a1.04 1.04 0 0 0-.567.459c-.092.156-.108.229-.107.484.001.332.08.533.285.728.479.453 1.274.318 1.587-.268.132-.249.122-.7-.021-.944a1.005 1.005 0 0 0-1.177-.459m12 0a1.04 1.04 0 0 0-.567.459c-.092.156-.108.229-.107.484.001.332.08.533.285.728.479.453 1.274.318 1.587-.268.132-.249.122-.7-.021-.944a1.005 1.005 0 0 0-1.177-.459m-12 4a1.04 1.04 0 0 0-.567.459c-.092.156-.108.229-.107.484.001.332.08.533.285.728.479.453 1.274.318 1.587-.268.132-.249.122-.7-.021-.944a1.005 1.005 0 0 0-1.177-.459m6.639.007c.112.038.259.136.366.242.301.301.3.292.3 2.641V21h-2v-2.053c0-2.349-.001-2.34.301-2.641a.96.96 0 0 1 1.033-.242m5.361-.007a1.04 1.04 0 0 0-.567.459c-.092.156-.108.229-.107.484.001.332.08.533.285.728.479.453 1.274.318 1.587-.268.132-.249.122-.7-.021-.944a1.005 1.005 0 0 0-1.177-.459"/></svg>