<svg xmlns="http://www.w3.org/2000/svg" width="24" height="24" fill="none" stroke="currentColor" stroke-linecap="round" stroke-linejoin="round" stroke-width="2"><path fill="#000" fill-rule="evenodd" stroke="none" d="M7.695 1.057a1.04 1.04 0 0 0-.567.459L7.02 1.7v3.606l.121.197a.998.998 0 0 0 1.718 0l.121-.197V1.7l-.108-.184a1.005 1.005 0 0 0-1.177-.459m8.364.082c-.965.152-1.906.537-2.646 1.085-.338.25-2.318 2.152-2.469 2.372a.88.88 0 0 0-.183.597.975.975 0 0 0 .996.975c.124 0 .296-.029.381-.065q.155-.064 1.178-1.075c1.055-1.043 1.336-1.276 1.835-1.526.547-.275.956-.38 1.594-.411 1.802-.088 3.399.988 3.973 2.677.167.491.216.868.191 1.481-.025.652-.117 1.022-.388 1.571-.289.586-.511.855-1.583 1.92-.882.876-.973.979-1.037 1.175-.278.845.564 1.605 1.359 1.23.262-.124 2.169-2.044 2.527-2.545 1.725-2.414 1.489-5.636-.568-7.725a5.9 5.9 0 0 0-3.392-1.733c-.49-.073-1.312-.074-1.768-.003M1.695 7.057a1.04 1.04 0 0 0-.567.459c-.091.156-.108.23-.108.484 0 .256.016.328.111.489.125.213.318.375.539.454.218.078 3.442.078 3.66 0 .221-.079.414-.241.539-.454.095-.161.111-.233.111-.489 0-.254-.017-.328-.108-.484a1.02 1.02 0 0 0-.582-.461c-.255-.077-3.349-.075-3.595.002m3.041 3.801c-.27.137-2.174 2.056-2.522 2.542-.991 1.383-1.37 3.12-1.033 4.739.437 2.104 1.996 3.846 4.019 4.493.63.201.936.252 1.66.275.579.019.753.01 1.175-.062A6.2 6.2 0 0 0 10.1 22.1c.462-.267.857-.608 1.875-1.616 1.169-1.158 1.264-1.283 1.264-1.664 0-.37-.269-.777-.608-.918-.191-.08-.591-.08-.782 0-.095.04-.506.416-1.149 1.053-.55.545-1.122 1.082-1.271 1.194a4.4 4.4 0 0 1-1.29.636c-.335.103-.407.11-1.079.11-.669 0-.745-.008-1.08-.109-1.52-.46-2.618-1.688-2.861-3.199-.072-.443-.03-1.32.081-1.707.108-.378.339-.874.561-1.205.095-.14.636-.723 1.203-1.296 1.108-1.118 1.194-1.233 1.195-1.599.001-.394-.156-.676-.494-.889-.251-.159-.654-.173-.929-.033m13.959 4.199a1.04 1.04 0 0 0-.567.459c-.091.156-.108.23-.108.484 0 .256.016.328.111.489.125.213.318.375.539.454.218.078 3.442.078 3.66 0 .221-.079.414-.241.539-.454.095-.161.111-.233.111-.489 0-.254-.017-.328-.108-.484a1.02 1.02 0 0 0-.582-.461c-.255-.077-3.349-.075-3.595.002m-3 3a1.04 1.04 0 0 0-.567.459l-.108.184v3.606l.121.197c.068.11.205.253.311.325.471.316 1.102.171 1.407-.325l.121-.197V18.7l-.108-.184a1.005 1.005 0 0 0-1.177-.459"/></svg>