<svg xmlns="http://www.w3.org/2000/svg" width="24" height="24" fill="none" stroke="currentColor" stroke-linecap="round" stroke-linejoin="round" stroke-width="2"><path fill="#000" fill-rule="evenodd" stroke="none" d="M19.187 2.545c-1.794.598-1.883.641-2.065.995-.081.158-.102.255-.101.479.002.334.061.464.352.771l.203.214-5.097 5.097c-2.803 2.803-5.108 5.084-5.122 5.068-.04-.046-1.157-2.863-1.157-2.918 0-.027.729-.785 1.621-1.685l1.62-1.637.15.034c.395.092.937.016 1.339-.188.266-.135.708-.575.841-.838a2.05 2.05 0 0 0 .169-1.408 1.8 1.8 0 0 0-.475-.876 1.975 1.975 0 0 0-2.93 0c-.397.428-.559.885-.524 1.486l.02.359-1.93 1.961c-1.061 1.079-1.963 2.024-2.004 2.101-.051.097-.075.226-.076.42-.001.273.021.335.889 2.501a100 100 0 0 1 .89 2.26c0 .022-.284.324-.631.67l-.632.631-.342-.027c-.661-.05-1.223.166-1.661.638-.58.627-.7 1.506-.309 2.277.136.269.576.709.845.845a2.05 2.05 0 0 0 1.86 0c.266-.135.708-.575.841-.838.202-.398.28-.928.193-1.302l-.033-.146 2.144-2.144c1.18-1.18 2.163-2.145 2.185-2.145.021 0 1.037.399 2.258.887 1.406.562 2.287.893 2.406.904.116.011.269-.008.402-.051.198-.065.324-.179 1.714-1.558l1.5-1.489.16.057c.226.08.577.043.79-.083.212-.125 1.314-1.237 1.414-1.427.053-.1.075-.226.075-.44.001-.41-.074-.525-.825-1.263C19.504 10.1 19.348 10 19 10s-.504.1-1.154.737c-.338.332-.659.679-.714.773a1.07 1.07 0 0 0-.082.796l.058.166-1.164 1.164c-.641.64-1.182 1.164-1.204 1.164-.048 0-2.868-1.121-2.909-1.157-.016-.014 1.59-1.644 3.568-3.622l3.597-3.597.214.203c.314.297.436.351.79.352.258.001.327-.015.492-.112.105-.062.244-.185.308-.273.149-.206 1.2-3.341 1.2-3.58C22 2.464 21.534 2 20.983 2c-.102 0-.772.203-1.796.545"/></svg>