<svg xmlns="http://www.w3.org/2000/svg" width="24" height="24" fill="none" stroke="currentColor" stroke-linecap="round" stroke-linejoin="round" stroke-width="2"><path fill="#000" fill-rule="evenodd" stroke="none" d="M11.38 2.043c-2.596.256-4.704 2.176-5.265 4.797-.131.61-.131 1.718-.001 2.32a6.14 6.14 0 0 0 1.983 3.391c.131.114.23.215.22.223-.009.008-.204.11-.433.227-1.351.69-2.535 1.755-3.416 3.072-.34.508-.801 1.468-1.007 2.096-.304.927-.491 2.087-.453 2.811.015.283.036.365.136.528a1 1 0 0 0 1.71.004c.107-.175.119-.237.169-.86.078-.977.173-1.44.433-2.122a7.04 7.04 0 0 1 4.884-4.325 7.6 7.6 0 0 1 3.32 0c2.512.61 4.53 2.629 5.134 5.135.103.425.122.565.185 1.333.049.601.062.667.168.84a1 1 0 0 0 1.709-.005c.1-.163.121-.245.136-.528.058-1.096-.317-2.712-.908-3.92-.867-1.768-2.294-3.22-4.009-4.079l-.433-.217.109-.084c.06-.046.26-.231.444-.412.871-.853 1.425-1.871 1.69-3.108.13-.606.13-1.714 0-2.32-.259-1.209-.776-2.18-1.616-3.035C14.978 2.49 13.23 1.86 11.38 2.043m1.225 2.015c1.469.222 2.705 1.266 3.192 2.697.1.295.203.925.203 1.245 0 .322-.103.951-.204 1.245-.475 1.387-1.601 2.383-3.023 2.672-2.21.451-4.377-1.072-4.715-3.312a3.4 3.4 0 0 1 0-1.21c.256-1.697 1.617-3.071 3.3-3.334a3.7 3.7 0 0 1 1.247-.003"/></svg>