<svg xmlns="http://www.w3.org/2000/svg" width="24" height="24" fill="none" stroke="currentColor" stroke-linecap="round" stroke-linejoin="round" stroke-width="2"><path fill="#000" fill-rule="evenodd" stroke="none" d="M9.38 2.043c-2.596.256-4.699 2.172-5.266 4.797-.13.606-.13 1.714 0 2.32.298 1.377 1.039 2.62 2.064 3.46l.18.148-.329.16c-.818.395-1.733 1.053-2.411 1.734-1.605 1.611-2.579 3.871-2.594 6.021l-.004.622.121.198a1 1 0 0 0 1.713.008c.106-.173.119-.235.15-.72.043-.665.095-1.023.222-1.531.629-2.51 2.691-4.518 5.214-5.074 1.192-.263 2.24-.235 3.509.095.463.12.612.121.897.007.164-.066.39-.284.482-.464.089-.173.119-.558.059-.747-.03-.095-.008-.122.26-.325 1.132-.855 1.924-2.126 2.238-3.592.13-.606.13-1.714 0-2.32-.259-1.209-.776-2.18-1.616-3.035C12.978 2.49 11.23 1.86 9.38 2.043m1.225 2.015c1.469.222 2.705 1.266 3.192 2.697.1.295.203.925.203 1.245 0 .322-.103.951-.204 1.245-.475 1.387-1.601 2.383-3.023 2.672-2.21.451-4.377-1.072-4.715-3.312a3.4 3.4 0 0 1 0-1.21c.256-1.697 1.617-3.071 3.3-3.334a3.7 3.7 0 0 1 1.247-.003m6.753 10.003c-1.128.176-2.215.913-2.789 1.892a3.992 3.992 0 0 0 1.943 5.751 3.97 3.97 0 0 0 2.982-.003c.19-.076.387-.166.438-.199.088-.058.109-.042.749.602.363.364.735.706.827.761.459.274 1.079.103 1.359-.373.097-.165.113-.235.113-.492 0-.411-.07-.516-.876-1.319-.644-.64-.66-.661-.602-.749.125-.192.342-.8.419-1.175a3.94 3.94 0 0 0-.216-2.241 3.98 3.98 0 0 0-3.1-2.458 3.7 3.7 0 0 0-1.247.003m1.165 2.012c.967.253 1.598 1.231 1.444 2.237-.067.435-.234.754-.572 1.092-.413.414-.844.598-1.395.598q-.771 0-1.347-.535c-1.33-1.236-.464-3.46 1.347-3.46.143 0 .378.031.523.068"/></svg>