<svg xmlns="http://www.w3.org/2000/svg" width="24" height="24" fill="none" stroke="currentColor" stroke-linecap="round" stroke-linejoin="round" stroke-width="2"><path fill="#000" fill-rule="evenodd" stroke="none" d="M9.38 2.043c-2.596.256-4.699 2.172-5.266 4.797-.13.606-.13 1.714 0 2.32a6.14 6.14 0 0 0 1.983 3.391c.131.114.23.214.22.222a20 20 0 0 1-.457.244 8.8 8.8 0 0 0-2.868 2.343c-.85 1.064-1.481 2.366-1.768 3.646-.142.635-.235 1.46-.217 1.918.014.345.028.407.135.581a1 1 0 0 0 1.712.006c.107-.174.119-.233.151-.74.07-1.097.259-1.883.653-2.711.731-1.538 1.779-2.606 3.282-3.343a6.73 6.73 0 0 1 3.887-.657c1.401.173 2.557.673 3.688 1.594.35.285.576.37.883.334a.976.976 0 0 0 .874-1.077 1.3 1.3 0 0 0-.092-.366c-.148-.31-1.226-1.116-2.067-1.545a12 12 0 0 1-.43-.226c-.009-.008.098-.118.239-.244 1.054-.949 1.671-2.007 1.963-3.37.13-.606.13-1.714 0-2.32-.259-1.209-.776-2.18-1.616-3.035C12.978 2.49 11.23 1.86 9.38 2.043m1.225 2.015c1.469.222 2.705 1.266 3.192 2.697.1.295.203.925.203 1.245 0 .322-.103.951-.204 1.245-.475 1.387-1.601 2.383-3.023 2.672-2.21.451-4.377-1.072-4.715-3.312a3.4 3.4 0 0 1 0-1.21c.256-1.697 1.617-3.071 3.3-3.334a3.7 3.7 0 0 1 1.247-.003m11.035 12.01c-.152.053-.444.326-1.909 1.785l-1.729 1.722-.731-.72c-.616-.608-.762-.732-.928-.788a1 1 0 0 0-1.215.449c-.092.156-.108.229-.107.484 0 .213.022.341.074.44.102.193 2.202 2.3 2.425 2.433.153.091.225.107.48.106.212 0 .341-.022.44-.074.192-.1 4.299-4.2 4.433-4.425.091-.152.107-.226.107-.48s-.017-.328-.108-.484a1.016 1.016 0 0 0-1.232-.448"/></svg>