<svg xmlns="http://www.w3.org/2000/svg" width="24" height="24" fill="none" stroke="currentColor" stroke-linecap="round" stroke-linejoin="round" stroke-width="2"><path fill="#000" fill-rule="evenodd" stroke="none" d="M9.4 2.044c-1.639.185-3.139 1.246-3.874 2.741C5.158 5.533 5.02 6.136 5.02 7c0 .67.058 1.044.248 1.6.578 1.691 1.985 2.925 3.772 3.307.471.101 1.449.101 1.92 0 1.528-.327 2.788-1.277 3.473-2.619.405-.794.547-1.389.547-2.288s-.142-1.494-.547-2.287a5.02 5.02 0 0 0-3.193-2.551 5.2 5.2 0 0 0-1.84-.118m1.461 2.085c.943.276 1.723 1.054 2.014 2.01.083.273.098.403.098.861s-.015.588-.098.861a3.07 3.07 0 0 1-2.035 2.025c-.434.135-1.246.135-1.68 0a3.07 3.07 0 0 1-2.035-2.025c-.083-.273-.098-.403-.098-.861s.015-.588.098-.861A3.04 3.04 0 0 1 9.499 4.04c.333-.06 1.001-.017 1.362.089m8.469 7.915a3.06 3.06 0 0 0-1.37.618c-.312.243-4.483 4.44-4.631 4.661-.263.392-.382.715-.851 2.319-.467 1.598-.484 1.669-.464 1.948.038.545.357 1.012.861 1.26.235.116.299.13.604.129.315-.002.458-.036 1.881-.454 1.761-.517 2.094-.654 2.56-1.057.565-.488 4.42-4.398 4.58-4.645.661-1.02.662-2.403.002-3.397a3.4 3.4 0 0 0-1.463-1.203c-.478-.195-1.175-.268-1.709-.179m-12.93 2c-1.644.188-3.139 1.246-3.874 2.741a5.4 5.4 0 0 0-.433 1.255c-.063.294-.073.539-.073 1.803v1.463l.121.197a.998.998 0 0 0 1.718 0l.121-.196.023-1.424c.022-1.361.028-1.437.121-1.744a3.07 3.07 0 0 1 2.015-2.017l.321-.1 2.66-.021c2.631-.021 2.662-.022 2.82-.107.353-.191.548-.509.548-.894s-.195-.703-.548-.894c-.159-.085-.177-.086-2.7-.091-1.397-.003-2.675.01-2.84.029m13.953.072c.241.123.38.258.507.491.158.289.169.717.025.998-.118.231-4.322 4.446-4.505 4.517-.159.062-2.115.637-2.126.625-.024-.024.584-2.028.657-2.167.086-.164 4.216-4.31 4.414-4.431.27-.165.739-.18 1.028-.033"/></svg>