<svg xmlns="http://www.w3.org/2000/svg" width="24" height="24" fill="none" stroke="currentColor" stroke-linecap="round" stroke-linejoin="round" stroke-width="2"><path fill="#000" fill-rule="evenodd" stroke="none" d="M9.4 2.044c-1.639.185-3.139 1.246-3.874 2.741C5.158 5.533 5.02 6.136 5.02 7c0 .67.058 1.044.248 1.6.578 1.691 1.985 2.925 3.772 3.307.471.101 1.449.101 1.92 0 1.528-.327 2.788-1.277 3.473-2.619.405-.794.547-1.389.547-2.288s-.142-1.494-.547-2.287a5.02 5.02 0 0 0-3.193-2.551 5.2 5.2 0 0 0-1.84-.118m1.461 2.085c.943.276 1.723 1.054 2.014 2.01.083.273.098.403.098.861s-.015.588-.098.861a3.07 3.07 0 0 1-2.035 2.025c-.434.135-1.246.135-1.68 0a3.07 3.07 0 0 1-2.035-2.025c-.083-.273-.098-.403-.098-.861s.015-.588.098-.861A3.04 3.04 0 0 1 9.499 4.04c.333-.06 1.001-.017 1.362.089m5.497 8.932c-1.128.176-2.215.913-2.789 1.892a3.992 3.992 0 0 0 1.943 5.751 3.97 3.97 0 0 0 2.982-.003c.19-.076.387-.166.438-.199.088-.058.109-.042.749.602.363.364.735.706.827.761.459.274 1.079.103 1.359-.373.097-.165.113-.235.113-.492 0-.411-.07-.516-.876-1.319-.644-.64-.66-.661-.602-.749.125-.192.342-.8.419-1.175a3.94 3.94 0 0 0-.216-2.241 3.98 3.98 0 0 0-3.1-2.458 3.7 3.7 0 0 0-1.247.003m-9.958.983a5.01 5.01 0 0 0-3.874 2.741 5.4 5.4 0 0 0-.433 1.255c-.063.294-.073.539-.073 1.803v1.463l.121.197a.998.998 0 0 0 1.718 0l.121-.196.023-1.424c.022-1.361.028-1.437.121-1.744a3.07 3.07 0 0 1 2.015-2.016c.32-.099.329-.099 2.381-.121 2.014-.022 2.064-.024 2.22-.108.353-.191.548-.509.548-.894s-.195-.703-.548-.894c-.157-.085-.193-.086-2.1-.092-1.067-.003-2.075.011-2.24.03m11.123 1.029c.967.253 1.598 1.231 1.444 2.237-.067.435-.234.754-.572 1.092-.413.414-.844.598-1.395.598q-.771 0-1.347-.535c-1.33-1.236-.464-3.46 1.347-3.46.143 0 .378.031.523.068"/></svg>