<svg xmlns="http://www.w3.org/2000/svg" width="24" height="24" fill="none" stroke="currentColor" stroke-linecap="round" stroke-linejoin="round" stroke-width="2"><path fill="#000" fill-rule="evenodd" stroke="none" d="M9.38 2.043c-2.596.256-4.699 2.172-5.266 4.797-.13.606-.13 1.714 0 2.32a6.14 6.14 0 0 0 1.983 3.391c.131.114.23.214.22.222a20 20 0 0 1-.457.244A9.1 9.1 0 0 0 2.384 16.2c-.31.486-.728 1.379-.922 1.969-.308.935-.493 2.079-.454 2.814.015.28.036.362.136.525a1 1 0 0 0 1.71.003c.106-.173.119-.235.15-.72.077-1.184.288-2.022.736-2.91.72-1.431 1.78-2.472 3.24-3.182.813-.395 1.486-.578 2.45-.666.907-.084 1.797.025 2.819.344.251.079.513.143.582.143.315 0 .727-.256.884-.551.153-.286.126-.718-.062-.996l-.101-.148.114-.082c.165-.12.523-.452.757-.704.727-.784 1.221-1.756 1.462-2.879.13-.606.13-1.714 0-2.32-.259-1.209-.776-2.18-1.616-3.035C12.978 2.49 11.23 1.86 9.38 2.043m1.225 2.015c1.469.222 2.705 1.266 3.192 2.697.1.295.203.925.203 1.245 0 .322-.103.951-.204 1.245-.475 1.387-1.601 2.383-3.023 2.672-2.21.451-4.377-1.072-4.715-3.312a3.4 3.4 0 0 1 0-1.21c.256-1.697 1.617-3.071 3.3-3.334a3.7 3.7 0 0 1 1.247-.003m8.725 7.986a3.06 3.06 0 0 0-1.37.618c-.312.243-4.483 4.44-4.631 4.661-.263.392-.382.715-.851 2.319-.467 1.598-.484 1.669-.464 1.948.038.545.357 1.012.861 1.26.235.116.299.13.604.129.315-.002.458-.036 1.881-.454 1.761-.517 2.094-.654 2.56-1.057.565-.488 4.42-4.398 4.58-4.645.661-1.02.662-2.403.002-3.397a3.4 3.4 0 0 0-1.463-1.203c-.478-.195-1.175-.268-1.709-.179m1.023 2.072c.241.123.38.258.507.491.158.289.169.717.025.998-.118.231-4.322 4.446-4.505 4.517-.159.062-2.115.637-2.126.625-.024-.024.584-2.028.657-2.167.086-.164 4.216-4.31 4.414-4.431.27-.165.739-.18 1.028-.033"/></svg>