<svg xmlns="http://www.w3.org/2000/svg" width="24" height="24" fill="none" stroke="currentColor" stroke-linecap="round" stroke-linejoin="round" stroke-width="2"><path fill="#000" fill-rule="evenodd" stroke="none" d="M9.38 2.043c-2.596.256-4.699 2.172-5.266 4.797-.13.606-.13 1.714 0 2.32.297 1.376 1.039 2.621 2.061 3.458l.177.145-.466.242c-2.121 1.103-3.671 2.911-4.422 5.159-.307.922-.495 2.08-.456 2.819.015.28.036.362.136.525.39.634 1.301.649 1.695.027.127-.201.134-.238.197-1.075a6.4 6.4 0 0 1 .682-2.52c.704-1.437 1.752-2.492 3.192-3.214 1.606-.806 3.578-.941 5.301-.365.203.068.6.233.882.367.286.135.591.251.69.262a.97.97 0 0 0 .956-.513c.241-.437.118-1.004-.276-1.275a5 5 0 0 0-.501-.279l-.323-.156.11-.085c.061-.047.262-.233.446-.414.871-.853 1.425-1.871 1.69-3.108.13-.606.13-1.714 0-2.32-.259-1.209-.776-2.18-1.616-3.035C12.978 2.49 11.23 1.86 9.38 2.043m1.225 2.015c1.469.222 2.705 1.266 3.192 2.697.1.295.203.925.203 1.245 0 .322-.103.951-.204 1.245-.475 1.387-1.601 2.383-3.023 2.672-2.21.451-4.377-1.072-4.715-3.312a3.4 3.4 0 0 1 0-1.21c.256-1.697 1.617-3.071 3.3-3.334a3.7 3.7 0 0 1 1.247-.003m6.065 12.003c-.222.081-.42.248-.542.455-.091.156-.108.23-.108.484s.016.328.107.48c.059.099.523.594 1.03 1.099l.922.92-.955.96c-.525.529-.986 1.022-1.023 1.096-.229.454-.045 1.046.407 1.312.165.097.235.113.492.113.254 0 .328-.016.48-.107.099-.059.594-.523 1.099-1.03l.92-.922.96.955c.529.525 1.024.988 1.101 1.029.099.052.227.074.44.074.258.001.327-.015.492-.112.222-.13.409-.369.473-.603a1.2 1.2 0 0 0-.066-.709c-.037-.074-.498-.567-1.023-1.096l-.955-.96.922-.92c.507-.505.971-1 1.03-1.099.091-.152.107-.226.107-.48s-.017-.328-.108-.484a1 1 0 0 0-1.215-.45c-.171.058-.327.196-1.177 1.038l-.98.972-.98-.972c-.849-.842-1.006-.98-1.177-1.038a1 1 0 0 0-.673-.005"/></svg>