<svg xmlns="http://www.w3.org/2000/svg" width="24" height="24" fill="none" stroke="currentColor" stroke-linecap="round" stroke-linejoin="round" stroke-width="2"><path fill="#000" fill-rule="evenodd" stroke="none" d="M9.38 2.043c-2.596.256-4.699 2.172-5.266 4.797-.13.606-.13 1.714 0 2.32.298 1.377 1.039 2.62 2.064 3.46l.18.148-.329.16c-.818.395-1.733 1.053-2.411 1.734-1.605 1.611-2.579 3.871-2.594 6.021l-.004.622.121.198a1 1 0 0 0 1.713.008c.106-.173.119-.235.15-.72.043-.665.095-1.023.222-1.531.629-2.51 2.691-4.518 5.214-5.074 1.192-.263 2.24-.235 3.509.095.463.12.612.121.897.007.164-.066.39-.284.482-.464.089-.173.119-.558.059-.747-.03-.095-.008-.122.26-.325 1.132-.855 1.924-2.126 2.238-3.592.13-.606.13-1.714 0-2.32-.259-1.209-.776-2.18-1.616-3.035C12.978 2.49 11.23 1.86 9.38 2.043m1.225 2.015c1.469.222 2.705 1.266 3.192 2.697.1.295.203.925.203 1.245 0 .322-.103.951-.204 1.245-.475 1.387-1.601 2.383-3.023 2.672-2.21.451-4.377-1.072-4.715-3.312a3.4 3.4 0 0 1 0-1.21c.256-1.697 1.617-3.071 3.3-3.334a3.7 3.7 0 0 1 1.247-.003m5.43 9.373a.97.97 0 0 0-.49 1.125l.063.246-.114.085a6 6 0 0 0-.421.404c-.303.316-.308.319-.436.274a1.3 1.3 0 0 0-.344-.045.94.94 0 0 0-.884.552c-.224.491-.039 1.069.417 1.301l.182.092v1.064l-.204.116a1 1 0 0 0-.469.64c-.136.523.224 1.071.781 1.19.153.033.247.03.422-.016l.225-.059.418.419.419.418-.059.225c-.181.694.452 1.361 1.15 1.212a1.05 1.05 0 0 0 .673-.488l.105-.194h1.062l.105.194c.339.629 1.273.676 1.671.084.178-.266.226-.522.152-.808l-.059-.225.419-.418.418-.419.225.059c.706.184 1.384-.477 1.203-1.174a1 1 0 0 0-.469-.64l-.204-.116v-1.064l.182-.092c.733-.372.669-1.469-.105-1.792-.172-.072-.523-.08-.706-.016-.128.045-.133.042-.436-.274a6 6 0 0 0-.421-.404l-.114-.085.063-.246a.94.94 0 0 0-.148-.825c-.399-.592-1.36-.535-1.682.099l-.094.185-.53.002-.53.003-.095-.188c-.239-.471-.853-.654-1.341-.401m2.488 2.642c.965.252 1.599 1.233 1.444 2.232-.07.449-.243.779-.585 1.118-.373.369-.749.538-1.262.567a1.87 1.87 0 0 1-1.467-.525c-1.33-1.236-.464-3.46 1.347-3.46.143 0 .378.031.523.068"/></svg>