<svg xmlns="http://www.w3.org/2000/svg" width="24" height="24" fill="none" stroke="currentColor" stroke-linecap="round" stroke-linejoin="round" stroke-width="2"><path fill="#000" fill-rule="evenodd" stroke="none" d="M8.4 2.044c-1.639.185-3.139 1.246-3.874 2.741C4.158 5.533 4.02 6.136 4.02 7c0 .67.058 1.044.248 1.6.578 1.691 1.985 2.925 3.772 3.307.471.101 1.449.101 1.92 0 1.528-.327 2.788-1.277 3.473-2.619.405-.794.547-1.389.547-2.288s-.142-1.494-.547-2.287a5.02 5.02 0 0 0-3.193-2.551 5.2 5.2 0 0 0-1.84-.118m1.461 2.085c.943.276 1.723 1.054 2.014 2.01.083.273.098.403.098.861s-.015.588-.098.861A3.07 3.07 0 0 1 9.84 9.886c-.434.135-1.246.135-1.68 0a3.07 3.07 0 0 1-2.035-2.025c-.083-.273-.098-.403-.098-.861s.015-.588.098-.861A3.04 3.04 0 0 1 8.499 4.04c.333-.06 1.001-.017 1.362.089M16 10.384c-.325.14-.599.551-.6.899 0 .1.029.267.064.371l.064.188-.278.269a6 6 0 0 0-.398.421l-.12.152-.188-.047a1.02 1.02 0 0 0-1.168.583c-.084.199-.087.554-.007.743.084.198.294.427.477.52l.154.079v.389c.001.214.011.453.024.531.023.136.016.146-.141.217a.99.99 0 0 0-.328 1.553 1.01 1.01 0 0 0 1.099.284l.188-.064.269.278c.148.153.338.332.422.399.15.119.152.125.11.276a1.02 1.02 0 0 0 .577 1.199c.198.083.551.083.749-.001.202-.086.42-.284.514-.469l.079-.154h.389a5 5 0 0 0 .531-.024c.136-.023.146-.016.217.141.04.091.149.234.241.319.497.458 1.273.292 1.566-.336.109-.234.118-.444.032-.735l-.063-.21.276-.267c.152-.148.331-.337.398-.421.119-.15.125-.152.276-.11a1.02 1.02 0 0 0 1.199-.577c.084-.199.087-.554.007-.743a1.2 1.2 0 0 0-.477-.52L22 15.438v-.389a5 5 0 0 0-.024-.531c-.023-.135-.016-.146.136-.214a.99.99 0 0 0 .578-.905c-.004-.683-.634-1.137-1.306-.942l-.23.067-.267-.275a5 5 0 0 0-.421-.394c-.152-.117-.154-.121-.11-.277a.99.99 0 0 0-.291-1.008.92.92 0 0 0-.67-.25c-.382 0-.683.183-.892.541l-.083.144-.526.013-.526.013-.071-.157a1.2 1.2 0 0 0-.52-.498c-.176-.073-.6-.069-.777.008m2.408 2.66c.326.068.688.258.944.495.233.216.26.257.483.745.306.665.155 1.497-.374 2.068a1.6 1.6 0 0 1-.348.296c-.741.358-.653.332-1.131.331-.409-.001-.465-.011-.749-.133a1.9 1.9 0 0 1-.561-.364c-.256-.234-.281-.272-.512-.775-.222-.482-.205-1.048.045-1.577.135-.284.484-.682.682-.779.361-.176.619-.287.73-.313.19-.046.557-.043.791.006m-13.008 1c-1.639.185-3.139 1.246-3.874 2.741a5.4 5.4 0 0 0-.433 1.255c-.063.294-.073.539-.073 1.803v1.463l.121.197a.998.998 0 0 0 1.718 0l.121-.196.024-1.424c.026-1.591.037-1.665.316-2.223a3.08 3.08 0 0 1 1.819-1.537l.321-.1 2.42-.021 2.42-.022.192-.113c.756-.444.631-1.561-.202-1.812-.146-.044-.623-.054-2.386-.05-1.212.003-2.339.021-2.504.039"/></svg>