<svg xmlns="http://www.w3.org/2000/svg" width="24" height="24" fill="none" stroke="currentColor" stroke-linecap="round" stroke-linejoin="round" stroke-width="2"><path fill="#000" fill-rule="evenodd" stroke="none" d="M9.38 2.043c-2.596.256-4.699 2.172-5.266 4.797-.13.606-.13 1.714 0 2.32a6.14 6.14 0 0 0 1.983 3.391c.131.114.23.215.22.223-.009.008-.204.11-.433.227-1.351.69-2.535 1.755-3.416 3.072-.34.508-.801 1.468-1.007 2.096-.304.927-.491 2.087-.453 2.811.015.283.036.365.136.528a1 1 0 0 0 1.71.004c.107-.175.119-.237.169-.86.078-.977.173-1.44.433-2.122a7.04 7.04 0 0 1 4.884-4.325 7.6 7.6 0 0 1 3.32 0c2.512.61 4.53 2.629 5.134 5.135.103.425.122.565.185 1.333.049.601.062.667.168.84a1 1 0 0 0 1.709-.005c.1-.163.121-.245.136-.528.058-1.096-.317-2.712-.908-3.92-.867-1.768-2.294-3.22-4.009-4.079l-.433-.217.109-.084c.06-.046.26-.231.444-.412.871-.853 1.425-1.871 1.69-3.108.13-.606.13-1.714 0-2.32-.259-1.209-.776-2.18-1.616-3.035C12.978 2.49 11.23 1.86 9.38 2.043m7.759.752c-.186.085-.394.28-.485.457a1.2 1.2 0 0 0-.085.375c-.034.434.113.687.592 1.012 1.765 1.197 2.329 3.372 1.359 5.237a4.4 4.4 0 0 1-.992 1.215c-.405.342-.508.53-.508.929 0 .386.108.559.597.956.975.793 1.768 1.827 2.424 3.164.613 1.248.863 2.206.955 3.651.031.485.044.547.15.72a1 1 0 0 0 1.713-.008l.121-.197-.003-.603c-.011-2.433-1.187-5.24-3.06-7.302l-.395-.436.276-.368c.501-.667.897-1.547 1.09-2.423.116-.528.126-1.688.019-2.234a6.14 6.14 0 0 0-1.666-3.174 5.6 5.6 0 0 0-1.167-.903c-.224-.123-.297-.143-.517-.142-.162 0-.317.028-.418.074m-6.534 1.263c1.469.222 2.705 1.266 3.192 2.697.1.295.203.925.203 1.245 0 .322-.103.951-.204 1.245-.475 1.387-1.601 2.383-3.023 2.672-2.21.451-4.377-1.072-4.715-3.312a3.4 3.4 0 0 1 0-1.21c.256-1.697 1.617-3.071 3.3-3.334a3.7 3.7 0 0 1 1.247-.003"/></svg>