<svg xmlns="http://www.w3.org/2000/svg" width="24" height="24" fill="none" stroke="currentColor" stroke-linecap="round" stroke-linejoin="round" stroke-width="2"><path fill="#000" fill-rule="evenodd" stroke="none" d="M2.695 1.057a1.04 1.04 0 0 0-.567.459L2.02 1.7v7.88l.105.307c.171.5.371.817.771 1.217.404.403.725.605 1.217.767.275.09.39.103 1.096.12l.79.018.01 5.149.011 5.148.121.197a.998.998 0 0 0 1.718 0l.121-.197.011-5.148.01-5.149.79-.019c.673-.016.83-.032 1.069-.108a3.1 3.1 0 0 0 2.026-2.042l.094-.3V1.7l-.109-.186a1.01 1.01 0 0 0-1.742 0l-.109.186L10 5.48c-.015 2.903-.032 3.806-.07 3.893a1.15 1.15 0 0 1-.446.499c-.176.103-.212.109-.833.121l-.65.014-.01-4.154L7.98 1.7l-.109-.186a1.01 1.01 0 0 0-1.742 0L6.02 1.7l-.011 4.15-.01 4.15h-.573c-.416 0-.622-.017-.757-.063-.217-.074-.459-.294-.571-.519-.075-.153-.079-.284-.098-3.938L3.98 1.7l-.108-.184a1.005 1.005 0 0 0-1.177-.459m17.685-.014c-2.597.256-4.686 2.159-5.267 4.797l-.093.42v7.32l.105.307c.171.5.371.817.771 1.217.402.402.721.603 1.217.769.299.1.339.103 1.596.118l1.289.016.011 3.15.011 3.149.121.197a.998.998 0 0 0 1.718 0l.121-.197V1.7l-.108-.184c-.266-.453-.607-.561-1.492-.473M20 8.56V14h-1.073c-1.214 0-1.335-.021-1.597-.275a1.4 1.4 0 0 1-.232-.307c-.075-.152-.078-.271-.089-3.388-.009-2.683-.001-3.296.048-3.624.219-1.466 1.231-2.681 2.655-3.188l.278-.097c.005 0 .01 2.447.01 5.439"/></svg>