<svg xmlns="http://www.w3.org/2000/svg" width="24" height="24" fill="none" stroke="currentColor" stroke-linecap="round" stroke-linejoin="round" stroke-width="2"><path fill="#000" fill-rule="evenodd" stroke="none" d="M15.64 1.068c-.152.052-.392.274-1.524 1.407-.739.74-1.427 1.463-1.529 1.608-.743 1.06-.941 2.385-.533 3.579.193.568.429.965.859 1.451l.26.294-.586.586-.587.587-4.05-4.048C4.801 3.384 3.86 2.466 3.72 2.403a1.06 1.06 0 0 0-.874.021c-.341.17-.92.888-1.256 1.557-.369.734-.53 1.44-.53 2.319 0 .878.161 1.585.529 2.317s.49.869 3.347 3.733l2.643 2.651-.64.633c-.351.348-1.776 1.753-3.165 3.12-2.732 2.69-2.662 2.61-2.662 3.048 0 .72.744 1.204 1.389.903.161-.075.778-.66 3.08-2.925l3.147-3.093.268-.261.594.577c.371.361.69.634.852.728.768.449 1.865.514 2.744.162.414-.165.719-.391 1.285-.946l.532-.524 3.208 3.205c1.765 1.762 3.272 3.237 3.349 3.277.099.052.228.074.44.074.258.001.327-.015.492-.112.222-.13.409-.369.473-.603.054-.202.024-.53-.066-.709-.037-.074-2.185-2.255-4.773-4.845L13.42 12l.586-.585.585-.586.295.257c.507.442.888.668 1.452.86a3.98 3.98 0 0 0 3.579-.534c.339-.239 2.816-2.696 2.956-2.932.09-.152.107-.227.107-.48 0-.254-.017-.328-.108-.484a1 1 0 0 0-1.215-.45c-.174.059-.359.226-1.557 1.412-1.444 1.428-1.543 1.507-2.023 1.62a2 2 0 0 1-1.886-.527l-.169-.172 1.905-1.91c1.048-1.05 1.938-1.972 1.978-2.049.052-.099.074-.228.074-.44.001-.255-.015-.328-.107-.484a1 1 0 0 0-1.215-.45c-.177.058-.393.26-2.13 1.99L14.594 7.98l-.213-.228a2.01 2.01 0 0 1-.335-2.232c.11-.227.292-.428 1.455-1.6.731-.737 1.363-1.403 1.403-1.48.053-.1.075-.227.075-.44.001-.255-.015-.328-.107-.484a1.016 1.016 0 0 0-1.232-.448m-2.562 14.429c-.44.434-.528.503-.717.559a1.7 1.7 0 0 1-.398.064c-.442-.001-.187.229-4.316-3.893-2.097-2.094-3.893-3.918-3.991-4.053-.417-.578-.592-1.131-.592-1.874 0-.557.052-.827.239-1.252l.1-.225 5.089 5.09 5.088 5.09z"/></svg>