<svg xmlns="http://www.w3.org/2000/svg" width="24" height="24" fill="none" stroke="currentColor" stroke-linecap="round" stroke-linejoin="round" stroke-width="2"><path fill="#000" fill-rule="evenodd" stroke="none" d="M11.695 1.057a1.04 1.04 0 0 0-.567.459l-.108.184-.012 1.15L10.995 4H8.007l-.014-.65c-.012-.624-.017-.657-.122-.836a1.01 1.01 0 0 0-1.742 0c-.105.179-.11.212-.122.836L5.993 4H4.007l-.014-.65c-.012-.624-.017-.657-.122-.836a1.01 1.01 0 0 0-1.742 0c-.105.178-.11.212-.122.83l-.014.645-.211.047c-.267.06-.512.239-.653.478-.093.158-.109.231-.109.486 0 .256.016.328.111.489.061.103.173.236.25.294.269.206.335.213 1.819.215L4.58 6l3.21 3.21 3.209 3.21.011 4.943.01 4.943.121.197a.998.998 0 0 0 1.718 0l.121-.197.01-4.943.011-4.943 3.209-3.21L19.42 6l1.38-.002c1.484-.002 1.55-.009 1.819-.215.077-.058.189-.191.25-.294.095-.161.111-.233.111-.489 0-.255-.016-.328-.109-.486a1.04 1.04 0 0 0-.653-.478l-.211-.047-.014-.645c-.012-.618-.017-.652-.122-.83a1.01 1.01 0 0 0-1.085-.479c-.271.061-.516.24-.657.479-.105.179-.11.212-.122.836l-.014.65h-1.986l-.014-.65c-.012-.624-.017-.657-.122-.836a1.01 1.01 0 0 0-1.742 0c-.105.179-.11.212-.122.836l-.014.65h-2.988l-.013-1.15-.012-1.15-.108-.184a1.005 1.005 0 0 0-1.177-.459M11 7.78c0 .979-.005 1.78-.01 1.78-.006 0-.811-.801-1.79-1.78L7.42 6H11zm5.56-1.77c0 .006-.801.811-1.78 1.79L13 9.58V6h1.78c.979 0 1.78.005 1.78.01"/></svg>