<svg xmlns="http://www.w3.org/2000/svg" width="24" height="24" fill="none" stroke="currentColor" stroke-linecap="round" stroke-linejoin="round" stroke-width="2"><path fill="#000" fill-rule="evenodd" stroke="none" d="M4.499 2.043C3.38 2.232 2.461 3.048 2.114 4.16l-.094.3v15.08l.094.3a3.09 3.09 0 0 0 2.046 2.046l.3.094h15.08l.3-.094a3.09 3.09 0 0 0 2.046-2.046l.094-.3V4.46l-.094-.3a3.09 3.09 0 0 0-2.025-2.039l-.321-.101-7.42-.006c-4.081-.003-7.511.01-7.621.029M19.31 4.061c.279.083.546.35.629.629.054.18.061 1.065.061 7.311 0 5.906-.009 7.137-.055 7.289a1.02 1.02 0 0 1-.461.582l-.184.108H4.7l-.184-.108a1.2 1.2 0 0 1-.291-.249c-.239-.314-.225.172-.225-7.601 0-6.264.007-7.152.061-7.332.079-.269.351-.547.612-.627.291-.089 14.336-.092 14.637-.002M7.174 6.039c-.424.09-.845.438-1.042.861-.097.207-.112.29-.112.6 0 .311.015.394.113.604.219.475.724.84 1.225.885l.233.021.842.845.841.845-.125.36c-.118.339-.126.393-.126.94s.008.601.126.94l.125.36-.842.846-.843.846-.25.027c-.51.054-.982.399-1.207.881-.097.207-.112.29-.112.6s.015.393.112.6c.147.315.455.624.764.767.21.098.293.113.604.113s.394-.015.604-.113c.475-.219.84-.724.885-1.225l.021-.233.845-.842.845-.841.36.125c.339.118.393.126.94.126s.601-.008.94-.126l.36-.125.845.841.845.842.021.233c.045.501.41 1.006.885 1.225.21.098.293.113.604.113.31 0 .393-.015.6-.112.315-.147.624-.455.767-.764.098-.21.113-.293.113-.604 0-.31-.015-.393-.112-.6a1.55 1.55 0 0 0-1.207-.881l-.25-.027-.843-.846-.842-.846.125-.36c.118-.339.126-.393.126-.94s-.008-.601-.126-.94l-.125-.36.841-.845.842-.845.233-.021c.501-.045 1.006-.41 1.225-.885.098-.21.113-.293.113-.604s-.015-.394-.113-.604a1.68 1.68 0 0 0-.767-.762c-.206-.095-.292-.111-.6-.111s-.394.016-.6.111c-.482.221-.843.719-.889 1.226l-.021.231-.845.842-.845.842-.298-.101a4 4 0 0 0-.65-.146 3.1 3.1 0 0 0-1.354.146l-.298.101-.845-.842-.845-.842-.021-.231c-.045-.499-.408-1.006-.87-1.217a1.8 1.8 0 0 0-.945-.104m5.133 5.021c.15.045.252.113.403.273.257.272.331.537.252.897-.044.195-.085.264-.277.456-.233.233-.408.314-.685.314-.258 0-.447-.082-.664-.287-.439-.416-.449-.987-.024-1.406.292-.287.601-.364.995-.247"/></svg>