<svg xmlns="http://www.w3.org/2000/svg" width="24" height="24" fill="none" stroke="currentColor" stroke-linecap="round" stroke-linejoin="round" stroke-width="2"><path fill="#000" fill-rule="evenodd" stroke="none" d="M1.689 1.056a1 1 0 0 0-.558.455c-.095.161-.111.233-.111.489 0 .431.08.549.74 1.099.538.449 1.443 1.268 1.733 1.571l.153.16-.298.381a11 11 0 0 0-.727 12.535c.448.731.917 1.317 1.617 2.016.699.7 1.285 1.169 2.016 1.617a11.03 11.03 0 0 0 9.826.833c1.469-.583 2.689-1.409 3.849-2.607 1.655-1.708 2.645-3.784 2.997-6.285.082-.578.07-2.22-.02-2.8-.196-1.269-.567-2.454-1.093-3.495l-.159-.314.216-.323c.712-1.063 1.097-2.46 1.106-4.008.004-.67.002-.683-.104-.864a1.04 1.04 0 0 0-.586-.465c-.374-.117-1.886.016-2.774.244-.703.18-1.448.515-1.972.885l-.24.17-.52-.251a11.1 11.1 0 0 0-3.222-.983c-.517-.078-.769-.093-1.538-.09-1.195.003-1.986.108-3.038.4-1.221.34-2.651 1.056-3.664 1.836l-.226.174-.156-.162c-.545-.563-2.254-2.049-2.507-2.18-.168-.087-.533-.105-.74-.038M13.32 3.101c.528.08 1.157.232 1.599.387.379.133 1.001.392 1.001.418 0 .009-.061.137-.135.285-.423.843-.692 1.931-.768 3.104l-.029.434-.587 1.166c-1.07 2.125-1.67 3.72-2.16 5.745-.093.385-.178.727-.189.76s-.107-.228-.213-.58a27.9 27.9 0 0 0-4.913-9.318c-.23-.285-.419-.545-.422-.578-.007-.096.857-.656 1.516-.982 1.085-.538 2.067-.802 3.42-.918.356-.031 1.469.015 1.88.077m7.581.202c-.043.351-.204.97-.335 1.29a3.5 3.5 0 0 1-1.969 1.971c-.35.142-.954.303-1.278.339-.275.031-.269.043-.198-.366.339-1.952 1.393-3.032 3.319-3.399.143-.027.312-.051.375-.054l.114-.004zM5.71 7.196a25.8 25.8 0 0 1 4.668 9.933c.248 1.09.542 3.054.542 3.621 0 .157-.008.17-.105.17-.225 0-1.141-.212-1.653-.383-2.953-.984-5.219-3.462-5.922-6.477-.23-.986-.291-2.353-.147-3.3.24-1.579.819-2.985 1.718-4.17l.204-.27.123.147c.067.08.325.408.572.729M20.251 8.41c.512 1.204.718 2.211.722 3.53.004 1.537-.268 2.741-.913 4.044a8.96 8.96 0 0 1-6.413 4.86c-.248.047-.459.077-.469.067-.023-.023.212-1.656.404-2.801.598-3.584 1.271-5.72 2.65-8.41l.348-.68.18-.028c.099-.015.405-.055.68-.09.858-.106 1.716-.355 2.36-.685.143-.073.271-.134.285-.135s.089.147.166.328"/></svg>