<svg xmlns="http://www.w3.org/2000/svg" width="24" height="24" fill="none" stroke="currentColor" stroke-linecap="round" stroke-linejoin="round" stroke-width="2"><path fill="#000" fill-rule="evenodd" stroke="none" d="M3.499 5.041A3.05 3.05 0 0 0 1.114 7.16l-.094.3v2.64c0 2.611.001 2.645.093 3.06.407 1.849 1.544 3.353 3.151 4.168.825.419 1.53.601 2.596.671 1.26.083 1.927.247 2.886.708.517.249.933.512 1.387.878.451.365.514.393.867.393.35 0 .427-.034.824-.362a7.3 7.3 0 0 1 2.796-1.411c.464-.113.8-.159 1.52-.206 1.023-.067 1.759-.25 2.509-.625a5.6 5.6 0 0 0 1.546-1.105c.871-.855 1.417-1.858 1.692-3.109.092-.415.093-.449.093-3.06V7.46l-.094-.3c-.309-.991-1.094-1.77-2.064-2.048-.317-.091-.354-.092-2.322-.092-1.429 0-2.103.015-2.36.052-1.419.205-2.727.699-3.85 1.455l-.29.195-.29-.195c-1.086-.731-2.298-1.201-3.69-1.432-.327-.055-.76-.069-2.36-.078-1.078-.006-2.051.005-2.161.024M7.88 7.093c1.283.256 2.299.722 3.253 1.492.451.365.514.393.867.393.35 0 .427-.034.824-.362.764-.631 1.809-1.165 2.736-1.398.7-.176.812-.185 2.686-.206 2.118-.023 2.139-.021 2.45.291.307.306.304.279.304 2.754 0 2.311-.023 2.658-.204 3.188-.229.669-.68 1.346-1.184 1.776-.755.643-1.563.937-2.742.997a8.94 8.94 0 0 0-4.58 1.509l-.29.195-.29-.195a8.94 8.94 0 0 0-4.58-1.509 8 8 0 0 1-.909-.104 3.98 3.98 0 0 1-3.163-3.309c-.086-.577-.085-4.621.003-4.915a1.04 1.04 0 0 1 .612-.629c.267-.085 3.754-.059 4.207.032m-2.185 2.961c-.232.077-.44.247-.567.462-.092.156-.108.23-.108.487 0 .268.014.326.121.5.148.241.439.445.67.472l.592.06c.9.088 1.284.374 1.617 1.206.25.624.751.887 1.32.693.372-.127.66-.538.66-.941 0-.309-.322-1.051-.649-1.495-.686-.93-1.683-1.416-3.031-1.477-.33-.015-.507-.006-.625.033m11.597-.01c-1.142.133-2.028.62-2.643 1.454-.327.444-.649 1.186-.649 1.495 0 .403.288.814.66.941.566.193 1.075-.072 1.313-.682.324-.829.725-1.13 1.624-1.217l.592-.06c.231-.027.522-.231.67-.472.107-.174.121-.232.121-.5 0-.257-.016-.331-.108-.487-.269-.457-.673-.578-1.58-.472"/></svg>