<svg xmlns="http://www.w3.org/2000/svg" width="24" height="24" fill="none" stroke="currentColor" stroke-linecap="round" stroke-linejoin="round" stroke-width="2"><path fill="#000" fill-rule="evenodd" stroke="none" d="M1.67 1.061c-.222.081-.42.248-.542.455-.091.156-.108.23-.108.484s.016.327.107.48c.061.101 1.368 1.439 2.99 3.06L7 8.42v4.921c0 4.293.008 4.952.061 5.158.176.673.736 1.24 1.41 1.427.25.069.474.074 3.5.074 3.598 0 3.571.002 4.015-.265.439-.263.795-.7.92-1.128l.063-.217 2.225 2.221c1.224 1.221 2.289 2.254 2.366 2.294.099.052.228.074.44.074.258.001.327-.015.492-.112.476-.28.647-.9.373-1.359-.055-.092-4.65-4.715-10.212-10.273C3.3 1.889 2.525 1.125 2.343 1.065a1 1 0 0 0-.673-.004m8.73 2.976c-.446.136-.728.509-.728.963 0 .405.207.724.588.905l.2.094L12.73 6H15v2.27l.001 2.27.094.2c.181.381.5.588.905.588s.724-.207.905-.588l.094-.2L17 8.139c0-2.216-.006-2.421-.074-2.668a2.12 2.12 0 0 0-.997-1.243c-.402-.217-.533-.227-3.089-.224-1.287.002-2.385.017-2.44.033M1.67 7.061c-.222.081-.42.248-.542.455-.092.156-.108.229-.107.484 0 .213.022.34.075.44.04.077.39.46.777.85l.704.71-.704.71c-.387.391-.737.773-.777.85-.053.1-.074.225-.074.44s.021.34.074.44c.04.077.39.46.777.85l.704.71-.704.71c-.387.391-.734.771-.772.845-.229.453-.045 1.046.407 1.312.165.097.235.113.492.113.254 0 .328-.016.48-.107.223-.133 2.323-2.24 2.425-2.433.102-.194.102-.686-.001-.88-.04-.077-.39-.459-.777-.85L3.423 12l.704-.71c.387-.39.737-.773.777-.85.053-.1.075-.227.075-.44.001-.254-.015-.328-.106-.48-.058-.099-.607-.677-1.22-1.284-.973-.965-1.138-1.112-1.31-1.17a1 1 0 0 0-.673-.005m19.97.008c-.148.052-.375.256-1.293 1.167-.613.607-1.162 1.185-1.22 1.284-.091.152-.107.226-.106.48 0 .213.022.34.075.44.04.077.39.46.777.85l.704.71-.704.71c-.387.391-.737.773-.777.85-.103.194-.103.686-.001.88s2.202 2.3 2.425 2.433c.152.091.226.107.48.107.257 0 .327-.016.492-.113.222-.13.409-.369.473-.603a1.2 1.2 0 0 0-.066-.709c-.038-.074-.385-.454-.772-.845l-.704-.71.704-.71c.387-.39.737-.773.777-.85.053-.1.074-.225.074-.44s-.021-.34-.074-.44c-.04-.077-.39-.459-.777-.85l-.704-.71.704-.71c.387-.39.737-.773.777-.85.053-.1.075-.227.075-.44.001-.255-.015-.328-.107-.484a1.014 1.014 0 0 0-1.232-.447M15 17.21V18H9v-7.58l3 3 3 3z"/></svg>