<svg xmlns="http://www.w3.org/2000/svg" width="24" height="24" fill="none" stroke="currentColor" stroke-linecap="round" stroke-linejoin="round" stroke-width="2"><path fill="#000" fill-rule="evenodd" stroke="none" d="M8.477 4.073c-.671.176-1.239.75-1.417 1.435C7.008 5.706 7 6.577 7 12c0 6.828-.012 6.462.225 6.93.136.269.576.709.845.845.452.229.384.225 3.923.225 3.546 0 3.486.003 3.944-.229.26-.132.702-.574.834-.834.241-.475.229-.107.228-6.923 0-6.767.009-6.485-.218-6.931-.135-.267-.484-.634-.764-.802-.469-.282-.381-.276-4.017-.276-2.953 0-3.285.006-3.523.068M15 12v6H9V6h6zM1.67 7.061c-.222.081-.42.248-.542.455-.092.156-.108.229-.107.484 0 .213.022.34.075.44.04.077.39.46.777.85l.704.71-.704.71c-.387.391-.737.773-.777.85-.053.1-.074.225-.074.44s.021.34.074.44c.04.077.39.46.777.85l.704.71-.704.71c-.387.391-.734.771-.772.845-.229.453-.045 1.046.407 1.312.165.097.235.113.492.113.254 0 .328-.016.48-.107.223-.133 2.323-2.24 2.425-2.433.102-.194.102-.686-.001-.88-.04-.077-.39-.459-.777-.85L3.423 12l.704-.71c.387-.39.737-.773.777-.85.053-.1.075-.227.075-.44.001-.254-.015-.328-.106-.48-.058-.099-.607-.677-1.22-1.284-.973-.965-1.138-1.112-1.31-1.17a1 1 0 0 0-.673-.005m19.97.008c-.148.052-.375.256-1.293 1.167-.613.607-1.162 1.185-1.22 1.284-.091.152-.107.226-.106.48 0 .213.022.34.075.44.04.077.39.46.777.85l.704.71-.704.71c-.387.391-.737.773-.777.85-.103.194-.103.686-.001.88s2.202 2.3 2.425 2.433c.152.091.226.107.48.107.257 0 .327-.016.492-.113.222-.13.409-.369.473-.603a1.2 1.2 0 0 0-.066-.709c-.038-.074-.385-.454-.772-.845l-.704-.71.704-.71c.387-.39.737-.773.777-.85.053-.1.074-.225.074-.44s-.021-.34-.074-.44c-.04-.077-.39-.459-.777-.85l-.704-.71.704-.71c.387-.39.737-.773.777-.85.053-.1.075-.227.075-.44.001-.255-.015-.328-.107-.484a1.014 1.014 0 0 0-1.232-.447"/></svg>