<svg xmlns="http://www.w3.org/2000/svg" width="24" height="24" fill="none" stroke="currentColor" stroke-linecap="round" stroke-linejoin="round" stroke-width="2"><path fill="#000" fill-rule="evenodd" stroke="none" d="M3.499 5.043c-1.12.19-2.038 1.005-2.385 2.117l-.094.3v9.08l.094.3a3.09 3.09 0 0 0 2.046 2.046l.3.094h11.08l.3-.094a3.1 3.1 0 0 0 2.042-2.026c.076-.239.093-.403.114-1.13l.024-.85 1.896 1.264c1.231.821 1.974 1.291 2.117 1.34.432.149.978.061 1.359-.218.215-.158.356-.342.496-.646l.092-.2V7.498l-.131-.266c-.165-.335-.48-.632-.799-.754-.308-.117-.787-.121-1.07-.008-.11.043-1.046.574-2.08 1.179l-1.88 1.1-.025-.664c-.021-.523-.045-.725-.114-.945a3.1 3.1 0 0 0-2.02-2.019l-.321-.101-5.42-.006c-2.981-.003-5.511.01-5.621.029M14.31 7.061c.279.083.546.35.629.629.053.177.061.751.061 4.311 0 4.457.007 4.318-.221 4.617-.061.08-.194.195-.295.254l-.184.108H3.7l-.184-.108a1.05 1.05 0 0 1-.458-.556c-.089-.254-.087-8.324.003-8.626.079-.269.351-.547.612-.627.29-.089 10.337-.091 10.637-.002M21 11.945v3.184l-.11-.071-2.001-1.332-1.891-1.26.011-.701.011-.7 1.96-1.149c1.078-.631 1.973-1.15 1.99-1.152s.03 1.429.03 3.181"/></svg>