<svg xmlns="http://www.w3.org/2000/svg" width="24" height="24" fill="none" stroke="currentColor" stroke-linecap="round" stroke-linejoin="round" stroke-width="2"><path fill="#000" fill-rule="evenodd" stroke="none" d="M1.67 1.061c-.222.081-.42.248-.542.455-.091.156-.108.23-.108.484s.016.328.107.48c.059.099.639.71 1.288 1.357l1.18 1.177-.359.091c-.995.252-1.804 1.035-2.122 2.055l-.094.3v9.08l.094.3a3.09 3.09 0 0 0 2.046 2.046l.3.094h11.08l.299-.094c.556-.174.934-.413 1.358-.855l.202-.211 2.511 2.506c1.38 1.378 2.573 2.539 2.65 2.579.099.052.228.074.44.074.258.001.327-.015.492-.112.476-.28.647-.9.373-1.359-.055-.092-4.65-4.715-10.212-10.273C3.3 1.889 2.525 1.125 2.343 1.065a1 1 0 0 0-.673-.004m8.73 3.975c-.45.142-.728.51-.728.964 0 .405.207.724.588.905l.2.094L12.283 7c2.097 0 2.113.002 2.414.303.292.292.303.363.304 1.994.001 1.324.005 1.413.082 1.583.21.464.684.707 1.144.587.117-.031 1.086-.572 2.468-1.379 1.252-.73 2.282-1.328 2.29-1.328S21 10.436 21 12.485c0 2.831.012 3.765.049 3.89.03.101.128.245.25.372.426.437 1.027.425 1.436-.029.1-.112.193-.266.221-.366.035-.129.044-1.26.036-4.513l-.012-4.341-.131-.266c-.165-.335-.48-.632-.799-.754-.308-.117-.787-.121-1.07-.008-.11.043-1.046.574-2.08 1.179l-1.88 1.1-.025-.664c-.021-.523-.045-.725-.114-.945a3.09 3.09 0 0 0-2.02-2.017l-.321-.1-2.02-.009c-1.111-.005-2.065.005-2.12.022m-.15 6.634c2.569 2.569 4.67 4.689 4.67 4.712 0 .094-.259.386-.434.489l-.186.109H3.7l-.184-.108a1.2 1.2 0 0 1-.291-.249C2.99 16.315 3 16.515 3 12.022c0-4.666-.017-4.398.304-4.719.269-.27.397-.297 1.416-.3L5.58 7z"/></svg>