<svg xmlns="http://www.w3.org/2000/svg" width="24" height="24" fill="none" stroke="currentColor" stroke-linecap="round" stroke-linejoin="round" stroke-width="2"><path fill="#000" fill-rule="evenodd" stroke="none" d="M3.499 3.043C2.38 3.232 1.461 4.048 1.114 5.16l-.094.3v13.08l.094.3a3.09 3.09 0 0 0 2.046 2.046l.3.094h17.08l.3-.094a3.09 3.09 0 0 0 2.046-2.046l.094-.3V5.46l-.094-.3a3.09 3.09 0 0 0-2.025-2.039l-.321-.101-8.42-.006c-4.631-.003-8.511.01-8.621.029M20.31 5.061a.9.9 0 0 1 .387.242c.251.251.303.448.303 1.144V7H3v-.553c0-.697.052-.893.304-1.144a.9.9 0 0 1 .369-.24c.16-.049 1.357-.058 8.31-.06 7.161-.003 8.147.004 8.327.058m.69 8.493c0 4.943.008 4.764-.221 5.064-.061.08-.194.195-.295.254l-.184.108H3.7l-.184-.108a1.2 1.2 0 0 1-.291-.249C2.989 18.314 3 18.557 3 13.575V9h18zM7.499 11.043a3.04 3.04 0 0 0-2.385 2.117c-.135.434-.135 1.246 0 1.68a3.09 3.09 0 0 0 2.046 2.046c.434.135 1.246.135 1.68 0a3.09 3.09 0 0 0 2.046-2.046c.146-.468.129-1.361-.032-1.783C10.835 13.008 11 13 12 13s1.165.008 1.146.057c-.094.246-.123.467-.124.943-.002.61.07.92.322 1.4.36.685 1.045 1.246 1.816 1.486.434.135 1.246.135 1.68 0a3.09 3.09 0 0 0 2.046-2.046c.135-.434.135-1.246 0-1.68a3.09 3.09 0 0 0-2.025-2.039l-.321-.101-4.42-.006c-2.431-.003-4.511.01-4.621.029m.811 2.018c.378.112.69.537.69.94 0 .33-.216.695-.516.871-.156.091-.23.108-.484.108s-.328-.017-.484-.108a1.2 1.2 0 0 1-.295-.254.983.983 0 0 1 .083-1.315q.417-.418 1.006-.242m8 0c.378.112.69.537.69.94 0 .33-.216.695-.516.871-.156.091-.23.108-.484.108s-.328-.017-.484-.108c-.584-.344-.685-1.097-.209-1.573q.414-.413 1.003-.238"/></svg>