<svg xmlns="http://www.w3.org/2000/svg" width="24" height="24" fill="none" stroke="currentColor" stroke-linecap="round" stroke-linejoin="round" stroke-width="2"><path fill="#000" fill-rule="evenodd" stroke="none" d="M4.499 2.043C3.38 2.232 2.461 3.048 2.114 4.16c-.091.291-.094.343-.094 1.723v1.423l.121.197a.998.998 0 0 0 1.718 0l.121-.196L4 6.023c.023-1.442.025-1.452.321-1.74C4.635 3.979 4.062 4 12 4s7.365-.021 7.679.283c.296.288.298.298.321 1.74l.02 1.284.121.196a.998.998 0 0 0 1.718 0l.121-.197V5.883c0-1.38-.003-1.432-.094-1.723a3.09 3.09 0 0 0-2.025-2.039l-.321-.101-7.42-.006c-4.081-.003-7.511.01-7.621.029m6.744 4.003a8.2 8.2 0 0 0-2.941.813c-1.715.842-3.061 2.165-3.884 3.818-.559 1.123-.559 1.523 0 2.646.919 1.845 2.528 3.313 4.482 4.089a8.5 8.5 0 0 0 4.725.427c2.563-.497 4.798-2.19 5.954-4.51.562-1.129.563-1.528.003-2.652a7.9 7.9 0 0 0-1.585-2.183c-.531-.516-.75-.695-1.297-1.059a8.27 8.27 0 0 0-4.04-1.393c-.623-.046-.759-.046-1.417.004m1.337 1.995a6.1 6.1 0 0 1 2.204.596 6.4 6.4 0 0 1 3.015 2.953l.205.41-.205.41c-.664 1.326-1.691 2.326-3.054 2.971a6.39 6.39 0 0 1-5.494-.002q-2.042-.967-3.052-2.969L5.993 12l.206-.41c.408-.808.954-1.508 1.577-2.022C9.2 8.394 10.821 7.879 12.58 8.041m-1.103 2.032c-.671.176-1.239.75-1.417 1.435a2.07 2.07 0 0 0 .165 1.422c.136.269.576.709.845.845a2.05 2.05 0 0 0 1.86 0c.266-.135.708-.575.841-.838a2.05 2.05 0 0 0 .169-1.408 1.8 1.8 0 0 0-.475-.876A1.97 1.97 0 0 0 12 10.005c-.143 0-.378.031-.523.068m-8.782 5.984a1.04 1.04 0 0 0-.567.459l-.108.184v1.42c0 1.377.003 1.429.094 1.72a3.09 3.09 0 0 0 2.046 2.046l.3.094h15.08l.3-.094a3.09 3.09 0 0 0 2.046-2.046c.091-.291.094-.343.094-1.72V16.7l-.109-.186a1.01 1.01 0 0 0-1.742 0l-.109.186-.021 1.28c-.015.874-.037 1.316-.07 1.393a1.14 1.14 0 0 1-.445.499l-.184.108H4.7l-.184-.108a1.14 1.14 0 0 1-.445-.499c-.034-.078-.056-.508-.07-1.393L3.98 16.7l-.108-.184a1.005 1.005 0 0 0-1.177-.459"/></svg>