<svg xmlns="http://www.w3.org/2000/svg" width="24" height="24" fill="none" stroke="currentColor" stroke-linecap="round" stroke-linejoin="round" stroke-width="2"><path fill="#000" fill-rule="evenodd" stroke="none" d="M5.4 7.044c-1.639.185-3.139 1.246-3.874 2.741a5.4 5.4 0 0 0-.433 1.255c-.101.471-.101 1.449 0 1.92.433 2.024 1.923 3.514 3.947 3.947.321.069.71.073 6.96.073s6.639-.004 6.96-.073c1.528-.327 2.788-1.277 3.473-2.619.405-.794.547-1.389.547-2.288s-.142-1.494-.547-2.287a5.02 5.02 0 0 0-3.193-2.552c-.933-.241-2.115-.178-2.992.159a5.3 5.3 0 0 0-1.864 1.243c-.661.694-1.083 1.504-1.291 2.477-.101.471-.101 1.449 0 1.92a5.4 5.4 0 0 0 .745 1.806l.156.234H9.999l.156-.23c.206-.304.45-.799.577-1.17.19-.557.248-.93.248-1.6 0-.899-.142-1.494-.547-2.287A5.02 5.02 0 0 0 7.24 7.162a5.2 5.2 0 0 0-1.84-.118m1.461 2.085c.943.276 1.723 1.054 2.014 2.01.083.273.098.403.098.861s-.015.588-.098.861a3.07 3.07 0 0 1-2.035 2.025c-.434.135-1.246.135-1.68 0a3.07 3.07 0 0 1-2.035-2.025c-.083-.273-.098-.403-.098-.861s.015-.588.098-.861A3.04 3.04 0 0 1 5.499 9.04c.333-.06 1.001-.017 1.362.089m12 0c.943.276 1.723 1.054 2.014 2.01.083.273.098.403.098.861s-.015.588-.098.861a3.07 3.07 0 0 1-2.035 2.025c-.434.135-1.246.135-1.68 0a3.07 3.07 0 0 1-2.035-2.025c-.083-.273-.098-.403-.098-.861s.015-.588.098-.861a3.04 3.04 0 0 1 2.374-2.099c.333-.06 1.001-.017 1.362.089"/></svg>