<svg xmlns="http://www.w3.org/2000/svg" width="24" height="24" fill="none" stroke="currentColor" stroke-linecap="round" stroke-linejoin="round" stroke-width="2"><path fill="#000" fill-rule="evenodd" stroke="none" d="m11.28 1.023-.56.06c-1.888.2-3.729.94-5.36 2.152-.609.453-1.676 1.52-2.134 2.132C1.27 7.989.564 11.236 1.265 14.394c.277 1.247.889 2.706 1.522 3.626.521.757.807 1.1 1.47 1.762 1.357 1.355 2.77 2.202 4.6 2.756.923.28 1.754.413 2.803.449a10.9 10.9 0 0 0 6.037-1.582c.781-.474 1.347-.924 2.065-1.643 1.168-1.169 1.87-2.226 2.458-3.702.324-.813.579-1.789.7-2.68.07-.511.099-2.223.044-2.534l-.145-.809a11 11 0 0 0-2.049-4.674c-.454-.608-1.523-1.677-2.13-2.128-1.595-1.186-3.275-1.875-5.217-2.139C13 1.038 11.574.99 11.28 1.023m2.035 2.079c2.548.373 4.807 1.827 6.245 4.018.207.317.8 1.448.8 1.528 0 .013-.219-.102-.486-.255a17.5 17.5 0 0 0-5.554-2.01c-.464-.084-.894-.137-2.03-.248l-.21-.021v-.167c.001-.478.281-1.924.504-2.597.119-.36.072-.344.731-.248m-2.772.088c-.307.98-.505 2.471-.505 3.81 0 1.574.195 2.831.684 4.407l.132.427-.154.193c-.268.335-1.147 1.18-1.595 1.533a9 9 0 0 1-.469.354c-.045.016-.315-.552-.567-1.194a15.3 15.3 0 0 1-1.068-5.68C7 5.839 7.133 4.5 7.269 4.351c.118-.131 1.349-.708 1.891-.886.46-.152 1.171-.331 1.353-.342.032-.002.044.024.03.067m-5.554 4c.013 1.122.095 1.976.297 3.07.266 1.443.861 3.246 1.469 4.451l.121.239-.268.123c-.632.29-1.592.606-2.26.744-.461.095-.458.096-.575-.167a9.6 9.6 0 0 1-.679-2.37c-.097-.634-.097-1.926 0-2.56a9.1 9.1 0 0 1 1.7-4.109l.186-.25zM13.1 8.225c2.681.313 5.313 1.379 7.507 3.04l.405.307-.025.664c-.035.912-.144 1.604-.371 2.358-.183.605-.105.596-.667.078a12.5 12.5 0 0 0-1.809-1.426 13.4 13.4 0 0 0-4.88-2.043l-.52-.108-.107-.297c-.158-.441-.378-1.382-.471-2.018a16 16 0 0 1-.082-.609c0-.056.151-.048 1.02.054m-.327 4.915c.706.135 1.372.333 2.114.629l.507.202-.103.165c-.056.09-.257.371-.446.624-1.646 2.204-3.928 3.993-6.405 5.02-.614.255-.528.26-1.08-.07a9.7 9.7 0 0 1-1.392-1.036c-.339-.305-.888-.891-.888-.949 0-.018.104-.055.23-.083s.491-.137.81-.243a13.6 13.6 0 0 0 4.96-2.897c.359-.328 1.069-1.072 1.251-1.312.046-.06.094-.11.107-.11s.163.027.335.06m4.847 2.176c.437.328 1.048.878 1.437 1.293.21.225.383.422.383.437s-.106.17-.236.342c-1.545 2.049-3.809 3.317-6.384 3.575-.487.049-1.664.029-1.936-.033l-.135-.032.475-.276c1.329-.773 2.418-1.619 3.579-2.78.887-.886 1.455-1.568 2.09-2.507l.247-.365.12.083c.066.045.228.164.36.263"/></svg>