<svg xmlns="http://www.w3.org/2000/svg" width="24" height="24" fill="none" stroke="currentColor" stroke-linecap="round" stroke-linejoin="round" stroke-width="2"><path fill="#000" fill-rule="evenodd" stroke="none" d="M6.499 4.043c-.642.109-1.104.355-1.603.853-.4.4-.6.717-.771 1.217l-.105.307-.011 5.79L3.998 18H2.945c-1.148 0-1.301.022-1.563.221-.08.061-.195.194-.254.295-.091.156-.108.23-.108.484 0 .256.016.328.111.489.125.213.318.375.539.454.223.08 20.437.08 20.66 0 .221-.079.414-.241.539-.454.095-.161.111-.233.111-.489 0-.254-.017-.328-.108-.484a1.2 1.2 0 0 0-.254-.295c-.262-.199-.415-.221-1.563-.221h-1.053l-.011-5.79-.011-5.79-.094-.28c-.33-.982-1.065-1.715-2.025-2.019l-.321-.101-5.42-.006c-2.981-.003-5.511.01-5.621.029M17.31 6.061c.279.083.546.35.629.629.053.179.061.903.061 5.757V18H6v-5.55c0-3.867.014-5.597.044-5.706a1.03 1.03 0 0 1 .682-.698c.083-.024 2.093-.04 5.257-.042 4.477-.004 5.148.004 5.327.057m-2.67 3.007c-.152.053-.444.326-1.909 1.785l-1.729 1.722-.734-.724c-.665-.656-.753-.729-.948-.787-.263-.078-.374-.08-.61-.009a1.02 1.02 0 0 0-.582.461c-.092.156-.108.229-.107.484 0 .213.022.341.074.44.102.193 2.202 2.3 2.425 2.433.153.091.225.107.48.106.212 0 .341-.022.44-.074.192-.1 4.299-4.2 4.433-4.425.091-.152.107-.226.107-.48s-.017-.328-.108-.484a1.016 1.016 0 0 0-1.232-.448"/></svg>