<svg xmlns="http://www.w3.org/2000/svg" width="24" height="24" fill="none" stroke="currentColor" stroke-linecap="round" stroke-linejoin="round" stroke-width="2"><path fill="#000" fill-rule="evenodd" stroke="none" d="M4.499 2.043C3.383 2.23 2.461 3.048 2.114 4.16l-.094.3v15.08l.094.3c.304.976 1.035 1.714 2.026 2.046l.28.094 7.9.011c5.405.007 7.964-.003 8.103-.032.515-.106 1.115-.561 1.348-1.022.219-.431.229-.54.229-2.443l.001-1.754.141-.096c.205-.14.527-.505.637-.722.2-.394.221-.58.22-1.908 0-1.331-.025-1.551-.217-1.929-.116-.23-.451-.607-.644-.726L22 11.273l-.001-1.746c0-1.896-.014-2.042-.224-2.458-.15-.295-.577-.707-.895-.862a2.3 2.3 0 0 0-.57-.176L20 5.982l-.001-1.101c0-1.19-.029-1.426-.218-1.798-.135-.267-.484-.634-.764-.802-.491-.296.028-.277-7.537-.274-3.729.001-6.871.018-6.981.036M18 5v1.001l-6.65-.011-6.65-.01-.184-.108c-.581-.342-.683-1.098-.212-1.569a.9.9 0 0 1 .369-.24c.159-.049 1.156-.058 6.757-.06L18 4zM4.22 7.91c.187.065.709.071 7.99.081l7.79.01v2.992l-1.27.016c-1.212.016-1.285.021-1.591.115a3.08 3.08 0 0 0-2.025 2.036c-.135.434-.135 1.246 0 1.68a3.1 3.1 0 0 0 2.026 2.044c.263.085.358.092 1.57.107l1.29.016v2.994l-7.65-.011-7.65-.01-.184-.108a1.2 1.2 0 0 1-.291-.249c-.238-.312-.225.034-.225-6.128 0-3.11.005-5.655.01-5.655.006.001.1.032.21.07M21 14.002v1.001l-1.65-.011-1.65-.012-.184-.108c-.581-.342-.683-1.098-.212-1.569.292-.292.325-.297 2.126-.3L21 13z"/></svg>