<svg xmlns="http://www.w3.org/2000/svg" width="24" height="24" fill="none" stroke="currentColor" stroke-linecap="round" stroke-linejoin="round" stroke-width="2"><path fill="#000" fill-rule="evenodd" stroke="none" d="M4.499 2.043C3.38 2.232 2.461 3.048 2.114 4.16l-.094.3v15.08l.094.3a3.09 3.09 0 0 0 2.046 2.046l.3.094h15.08l.3-.094a3.09 3.09 0 0 0 2.046-2.046l.094-.3V4.46l-.094-.3a3.09 3.09 0 0 0-2.025-2.039l-.321-.101-7.42-.006c-4.081-.003-7.511.01-7.621.029M19.31 4.061a.9.9 0 0 1 .387.242c.258.258.303.44.303 1.227 0 .586-.005.634-.07.615-.416-.125-.437-.125-7.93-.125s-7.514 0-7.93.125C4.005 6.164 4 6.116 4 5.53c0-.787.045-.969.304-1.227a.9.9 0 0 1 .369-.24c.291-.089 14.336-.092 14.637-.002m0 4a.9.9 0 0 1 .387.242c.251.251.303.448.303 1.144V10h-1.037c-.571 0-1.177.019-1.348.043-.624.087-1.387.401-1.864.768-.255.196-.889.721-1.549 1.282-.747.635-1.229.852-1.983.895-.824.047-1.563-.218-2.193-.787a25 25 0 0 0-.666-.562 18 18 0 0 1-.728-.625c-.476-.442-.964-.707-1.632-.885-.361-.096-.444-.102-1.69-.119L4 9.992v-.549c0-.692.052-.889.304-1.14a.9.9 0 0 1 .369-.24c.291-.089 14.336-.092 14.637-.002M6.471 12.06c.34.08.544.191.807.437a60 60 0 0 0 1.755 1.473c.842.678 2.09 1.073 3.216 1.02 1.219-.058 2.233-.487 3.253-1.377.75-.653 1.542-1.274 1.774-1.391.396-.198.579-.222 1.706-.222H20v3.554c0 3.856.005 3.768-.221 4.064-.061.08-.194.195-.295.254l-.184.108H4.7l-.184-.108a1.2 1.2 0 0 1-.291-.249C3.992 19.317 4 19.464 4 15.575V12l1.11.001c.839 0 1.171.015 1.361.059"/></svg>