<svg xmlns="http://www.w3.org/2000/svg" width="24" height="24" fill="none" stroke="currentColor" stroke-linecap="round" stroke-linejoin="round" stroke-width="2"><path fill="#000" fill-rule="evenodd" stroke="none" d="M4.499 2.043C3.383 2.23 2.461 3.048 2.114 4.16l-.094.3v15.08l.094.3a3.09 3.09 0 0 0 2.046 2.046l.3.094h15.08l.3-.094a3.09 3.09 0 0 0 2.046-2.046l.094-.3V8.46l-.094-.3a3.09 3.09 0 0 0-2.025-2.039l-.321-.101-6.28-.012c-4.464-.009-6.339 0-6.484.031-.26.056-.507.237-.647.475-.093.158-.109.231-.109.486 0 .256.016.328.111.489.125.213.318.375.539.454.123.044 1.266.054 6.293.055 6.915.002 6.408-.021 6.734.305.323.324.303-.06.303 5.698 0 4.211-.01 5.138-.055 5.289a1.02 1.02 0 0 1-.461.582l-.184.108H4.7l-.184-.108a1.2 1.2 0 0 1-.291-.249c-.239-.314-.225.172-.225-7.601 0-8.016-.025-7.391.303-7.719.328-.327-.298-.303 7.734-.305 5.863-.001 7.17-.011 7.293-.055.221-.079.414-.241.539-.454.095-.161.111-.233.111-.489 0-.254-.017-.328-.108-.484a1.02 1.02 0 0 0-.582-.461c-.152-.046-1.388-.054-7.386-.05-3.962.002-7.295.02-7.405.038m12.196 11.012a1.05 1.05 0 0 0-.567.461c-.091.156-.108.23-.108.484 0 .257.016.327.113.492.518.882 1.865.526 1.865-.492a.99.99 0 0 0-.535-.888 1.17 1.17 0 0 0-.768-.057"/></svg>