<svg xmlns="http://www.w3.org/2000/svg" width="24" height="24" fill="none" stroke="currentColor" stroke-linecap="round" stroke-linejoin="round" stroke-width="2"><path fill="#000" fill-rule="evenodd" stroke="none" d="M9.695 1.057a1.01 1.01 0 0 0-.677.768c-.026.16-.032.165-.237.211a1.04 1.04 0 0 0-.652.478c-.093.158-.109.231-.109.489 0 .268.014.326.121.5.146.237.436.443.676.479.171.025.176.03.201.201.036.24.242.53.479.676.174.107.232.121.503.121s.329-.014.503-.121c.237-.146.443-.436.479-.676.025-.171.03-.176.201-.201.24-.036.53-.242.676-.479.107-.174.121-.232.121-.5 0-.258-.016-.331-.109-.489a1.04 1.04 0 0 0-.652-.478c-.205-.046-.211-.051-.237-.211a1 1 0 0 0-.692-.77.9.9 0 0 0-.595.002M19 1.063a2.7 2.7 0 0 0-.52.183c-.239.118-.928.796-8.612 8.471-5.074 5.068-8.413 8.433-8.507 8.572-.256.381-.341.692-.338 1.231.002.387.019.501.102.721.161.426.347.657 1.242 1.543.769.761.883.858 1.153.986.659.312 1.295.313 1.96.002.297-.139.376-.216 8.726-8.566s8.427-8.429 8.566-8.726c.31-.664.31-1.298-.001-1.96-.129-.276-.214-.373-1.066-1.222-.775-.772-.967-.942-1.185-1.05A2.3 2.3 0 0 0 19 1.063m1.287 2.646c.459.456.713.737.713.79q0 .081-2 2.081l-2 2-.79-.79-.79-.79 2.001-2c1.248-1.248 2.029-2 2.077-2 .046 0 .363.285.789.709M4.695 5.057a1.04 1.04 0 0 0-.567.459c-.103.176-.109.212-.121.834L3.993 7h-.55c-.795 0-1.077.111-1.315.516-.091.156-.108.23-.108.484 0 .256.016.328.111.489.125.213.318.375.539.454.098.035.352.054.737.055L3.993 9l.014.653c.013.647.014.655.134.85.068.11.205.253.311.325.471.316 1.102.171 1.407-.325.12-.195.121-.203.134-.85L6.007 9l.586-.002c.385-.001.639-.02.737-.055.221-.079.414-.241.539-.454.095-.161.111-.233.111-.489 0-.254-.017-.328-.108-.484C7.634 7.111 7.352 7 6.557 7h-.55l-.014-.65c-.012-.622-.018-.658-.121-.834a1.005 1.005 0 0 0-1.177-.459M14.8 9.22l.78.78-5.5 5.5C6.372 19.208 4.554 21 4.499 21 4.391 21 3 19.606 3 19.498c0-.049 1.993-2.07 5.49-5.568 3.019-3.019 5.499-5.49 5.51-5.49s.371.351.8.78m3.895 3.837a1.04 1.04 0 0 0-.567.459c-.103.176-.109.212-.121.834l-.014.65h-.55c-.795 0-1.077.111-1.315.516-.091.156-.108.23-.108.484 0 .256.016.328.111.489.125.213.318.375.539.454.098.035.352.054.737.055l.586.002.014.653c.013.647.014.655.134.85.068.11.205.253.311.325.471.316 1.102.171 1.407-.325.12-.195.121-.203.134-.85l.014-.653.586-.002c.385-.001.639-.02.737-.055.221-.079.414-.241.539-.454.095-.161.111-.233.111-.489 0-.254-.017-.328-.108-.484-.238-.405-.52-.516-1.315-.516h-.55l-.014-.65c-.012-.622-.018-.658-.121-.834a1.005 1.005 0 0 0-1.177-.459"/></svg>