<svg xmlns="http://www.w3.org/2000/svg" width="24" height="24" fill="none" stroke="currentColor" stroke-linecap="round" stroke-linejoin="round" stroke-width="2"><path fill="#000" fill-rule="evenodd" stroke="none" d="M14.695 1.057a1.04 1.04 0 0 0-.567.459l-.108.184v2.606l.121.197a.998.998 0 0 0 1.718 0l.121-.197V1.7l-.108-.184a1.005 1.005 0 0 0-1.177-.459M10.67 4.061c-.222.081-.42.248-.542.455-.091.156-.108.23-.108.484s.017.328.107.48c.131.221 1.439 1.522 1.633 1.624.1.053.226.075.44.075.258.001.327-.015.492-.112.475-.279.646-.898.375-1.359-.055-.092-.421-.484-.813-.871-.6-.591-.746-.714-.911-.77a1 1 0 0 0-.673-.006m7.97.009c-.142.05-.331.212-.894.767-.392.386-.758.779-.813.871-.271.461-.1 1.08.375 1.359.165.097.235.113.492.113.254 0 .328-.017.48-.107.221-.131 1.522-1.439 1.624-1.633.053-.1.075-.226.075-.44.001-.255-.015-.328-.107-.484a1.01 1.01 0 0 0-1.232-.446M7.695 8.057a1.04 1.04 0 0 0-.567.459c-.091.156-.108.23-.108.484 0 .256.016.328.111.489.125.213.318.375.539.454.215.077 2.445.077 2.66 0 .221-.079.414-.241.539-.454.095-.161.111-.233.111-.489 0-.254-.017-.328-.108-.484a1.02 1.02 0 0 0-.582-.461c-.251-.076-2.353-.074-2.595.002m7-.002a1.05 1.05 0 0 0-.567.461c-.091.156-.108.23-.108.484 0 .257.016.327.113.492.518.882 1.865.526 1.865-.492a.99.99 0 0 0-.535-.888 1.17 1.17 0 0 0-.768-.057m5 .002a1.04 1.04 0 0 0-.567.459c-.091.156-.108.23-.108.484 0 .256.016.328.111.489.125.213.318.375.539.454.215.077 2.445.077 2.66 0 .221-.079.414-.241.539-.454.095-.161.111-.233.111-.489 0-.254-.017-.328-.108-.484a1.02 1.02 0 0 0-.582-.461c-.251-.076-2.353-.074-2.595.002m-2.225 2.804c-.222.081-.42.248-.542.455-.091.156-.108.23-.108.484s.017.328.107.48c.131.221 1.439 1.522 1.633 1.624.1.053.226.075.44.075.258.001.327-.015.492-.112.475-.279.646-.898.375-1.359-.055-.092-.421-.484-.813-.871-.6-.591-.746-.714-.911-.77a1 1 0 0 0-.673-.006m-5.81.205c-.188.057-.475.335-4.813 4.667-2.671 2.668-4.658 4.683-4.72 4.787-.091.152-.107.226-.107.48 0 .257.016.327.113.492.28.476.9.647 1.359.373.217-.129 9.317-9.24 9.413-9.425.052-.099.074-.228.074-.44.001-.255-.015-.328-.107-.484a1.02 1.02 0 0 0-.582-.461c-.228-.069-.375-.066-.63.011m3.035 1.991a1.04 1.04 0 0 0-.567.459l-.108.184v2.606l.121.197a.998.998 0 0 0 1.718 0l.121-.197V13.7l-.108-.184a1.005 1.005 0 0 0-1.177-.459"/></svg>