<svg xmlns="http://www.w3.org/2000/svg" width="24" height="24" fill="none" stroke="currentColor" stroke-linecap="round" stroke-linejoin="round" stroke-width="2"><path fill="#000" fill-rule="evenodd" stroke="none" d="M11.384 2.226c-.312.067-8.314 3.253-8.789 3.5a2.99 2.99 0 0 0-1.556 2.185q-.042.268-.03 6.469l.011 6.2.094.28c.332.991 1.07 1.722 2.046 2.026l.3.094h17.08l.3-.094c.976-.304 1.714-1.035 2.046-2.026l.094-.28.011-6.2q.012-6.202-.03-6.469a3 3 0 0 0-1.551-2.183c-.535-.278-8.479-3.434-8.82-3.505a3.1 3.1 0 0 0-1.206.003m5.014 3.613c3.874 1.549 4.149 1.666 4.304 1.821.321.321.298-.177.298 6.501 0 4.923-.009 5.978-.055 6.129a1.02 1.02 0 0 1-.461.582c-.176.103-.212.109-.833.121l-.65.014-.01-5.654L18.98 9.7l-.108-.184a1.02 1.02 0 0 0-.582-.461C18.139 9.009 17.059 9 12 9s-6.139.009-6.29.055a1.02 1.02 0 0 0-.582.461L5.02 9.7l-.011 5.653-.01 5.654-.65-.014c-.621-.012-.657-.018-.833-.121a1.2 1.2 0 0 1-.291-.249c-.238-.312-.225.063-.225-6.441 0-6.702-.023-6.201.298-6.522.155-.155.426-.27 4.284-1.809l4.178-1.666c.033-.013.159-.018.28-.012.182.009.928.294 4.358 1.666M17 12v1H7v-2h10zm0 4v1H7v-2h10zm0 4v1H7v-2h10z"/></svg>