<svg xmlns="http://www.w3.org/2000/svg" width="24" height="24" fill="none" stroke="currentColor" stroke-linecap="round" stroke-linejoin="round" stroke-width="2"><path fill="#000" fill-rule="evenodd" stroke="none" d="M4.499 1.043C3.38 1.232 2.461 2.048 2.114 3.16l-.094.3v17.08l.094.3a3.09 3.09 0 0 0 2.046 2.046l.3.094h15.08l.3-.094a3.09 3.09 0 0 0 2.046-2.046l.094-.3V3.46l-.094-.3a3.09 3.09 0 0 0-2.025-2.039l-.321-.101-7.42-.006c-4.081-.003-7.511.01-7.621.029M19.31 3.061c.279.083.546.35.629.629.054.18.061 1.17.061 8.311 0 6.753-.009 8.137-.055 8.289a1.02 1.02 0 0 1-.461.582l-.184.108H4.7l-.184-.108a1.2 1.2 0 0 1-.291-.249c-.239-.313-.225.12-.225-7.048V7l1.09-.002c1.172-.002 1.267-.015 1.529-.215.077-.058.189-.191.25-.294.095-.161.111-.233.111-.489 0-.254-.017-.328-.108-.484a1.2 1.2 0 0 0-.254-.295C6.356 5.022 6.203 5 5.054 5H4v-.553c0-.697.052-.893.304-1.144a.9.9 0 0 1 .369-.24c.291-.089 14.336-.092 14.637-.002m-2.615 1.994a1.05 1.05 0 0 0-.567.461c-.091.156-.108.23-.108.484 0 .257.016.327.113.492.518.882 1.865.526 1.865-.492a.99.99 0 0 0-.535-.888 1.17 1.17 0 0 0-.768-.057M11.18 7.063c-.686.105-1.273.282-1.791.541-1.716.859-2.871 2.352-3.274 4.236-.131.61-.131 1.718-.001 2.32.525 2.428 2.303 4.205 4.726 4.725.606.13 1.714.13 2.32 0 1.237-.265 2.252-.817 3.109-1.69.84-.855 1.357-1.826 1.616-3.035.13-.606.13-1.714 0-2.32-.408-1.904-1.562-3.387-3.305-4.25-.979-.484-2.32-.692-3.4-.527m1.425 1.995c1.469.222 2.705 1.266 3.192 2.697.1.295.203.925.203 1.245a4.2 4.2 0 0 1-.411 1.74l-.121.24-.068-.28a3.41 3.41 0 0 0-1.895-2.338c-.473-.227-.799-.31-1.405-.359-.661-.052-.959-.187-1.264-.573a1.506 1.506 0 0 1 .366-2.191c.358-.23.745-.28 1.403-.181m-3.856 2.73a3.51 3.51 0 0 0 2.807 2.173l.663.08c.387.047.675.205.927.511.648.785.313 2.029-.634 2.355-.629.217-1.725.013-2.559-.476-.783-.459-1.438-1.278-1.749-2.186A5 5 0 0 1 8 13c0-.554.164-1.246.411-1.74l.121-.24.068.28c.037.154.105.373.149.488"/></svg>