<svg xmlns="http://www.w3.org/2000/svg" width="24" height="24" fill="none" stroke="currentColor" stroke-linecap="round" stroke-linejoin="round" stroke-width="2"><path fill="#000" fill-rule="evenodd" stroke="none" d="M10.02 1.059c-1.084.199-2.051 1.102-2.314 2.161a99 99 0 0 0-.407 2.06c-.38 1.987-.34 1.862-.742 2.34-.744.883-1.278 2.095-1.483 3.36-.066.413-.066 1.627 0 2.04.228 1.407.766 2.544 1.746 3.684.14.164.141.167.537 2.141.219 1.087.435 2.076.48 2.198.311.832 1.028 1.5 1.943 1.811.226.077.354.082 2.138.096 2.167.016 2.237.009 2.834-.291.753-.379 1.331-1.044 1.544-1.781.035-.12.241-1.106.459-2.191l.394-1.973.139-.147c.488-.515.993-1.376 1.285-2.187.303-.842.404-1.436.404-2.38s-.101-1.538-.404-2.38-.721-1.539-1.389-2.32c-.135-.158-.141-.181-.522-2.088-.461-2.307-.53-2.536-.898-3.002-.495-.626-1.136-1.027-1.841-1.153-.416-.074-3.497-.073-3.903.002m3.679 2.007c.221.075.48.314.567.522.061.146.425 1.895.399 1.92-.008.008-.165-.039-.35-.105-.755-.269-1.422-.378-2.315-.378-.897 0-1.551.107-2.331.383-.193.068-.356.116-.363.108-.019-.024.314-1.715.373-1.892.068-.206.344-.477.564-.555.271-.096 3.176-.099 3.456-.003m-1.147 3.977a5.01 5.01 0 0 1 4.128 3.205c.412 1.072.405 2.472-.017 3.545a5.08 5.08 0 0 1-3.063 2.939c-.556.19-.93.248-1.6.248s-1.044-.058-1.6-.248a5.04 5.04 0 0 1-3.239-3.492c-.241-.933-.178-2.115.159-2.992a5 5 0 0 1 5.232-3.205m-.857 2.014a1.04 1.04 0 0 0-.567.459l-.108.184-.012 1.213c-.011 1.059-.004 1.239.056 1.419.058.174.16.299.672.821.332.338.68.659.772.714.462.271 1.08.1 1.359-.375.097-.165.113-.234.112-.492-.001-.391-.05-.478-.562-1l-.412-.42-.012-.94c-.013-.939-.013-.94-.121-1.124a1.005 1.005 0 0 0-1.177-.459m3.065 9.396c0 .093-.37 1.814-.412 1.913a.98.98 0 0 1-.486.499c-.201.094-.206.094-1.822.094s-1.621 0-1.822-.094a.98.98 0 0 1-.487-.5c-.055-.131-.415-1.854-.393-1.877a1.6 1.6 0 0 1 .286.092c.728.274 1.465.397 2.376.397.932 0 1.661-.125 2.4-.412.301-.117.36-.136.36-.112"/></svg>