<svg xmlns="http://www.w3.org/2000/svg" width="24" height="24" fill="none" stroke="currentColor" stroke-linecap="round" stroke-linejoin="round" stroke-width="2"><path fill="#000" fill-rule="evenodd" stroke="none" d="M8.915 4.043a4.1 4.1 0 0 0-1.608.526c-.15.087-.546.364-.88.616-.334.251-.715.511-.847.576-.615.305-1.535.315-2.147.023a3.4 3.4 0 0 1-.473-.305c-.59-.461-.781-.532-1.182-.442a.984.984 0 0 0-.459 1.681c.246.24.88.689 1.181.838 1.35.668 3.188.568 4.385-.238.14-.095.502-.357.805-.584.853-.639 1.046-.713 1.85-.71.784.003.96.076 1.86.777.275.214.628.471.785.572 1.323.854 3.387.83 4.7-.055.14-.095.502-.357.805-.584.853-.639 1.046-.713 1.85-.71.743.002.961.085 1.69.641.445.339.716.407 1.092.274.631-.222.864-.931.496-1.505-.137-.213-.895-.768-1.358-.995-.479-.234-.881-.343-1.484-.405-.841-.085-1.746.066-2.421.404-.358.179-.6.341-1.255.84a6 6 0 0 1-.72.484c-.616.304-1.536.314-2.147.022a3.4 3.4 0 0 1-.473-.304c-.914-.708-1.138-.864-1.5-1.041-.752-.368-1.586-.498-2.545-.396m0 6a4.1 4.1 0 0 0-1.608.526c-.15.087-.546.364-.88.616-.334.251-.715.511-.847.576-.615.305-1.535.315-2.147.023a3.4 3.4 0 0 1-.473-.305c-.59-.461-.781-.532-1.182-.442a.984.984 0 0 0-.459 1.681c.246.24.88.689 1.181.838 1.35.668 3.188.568 4.385-.238.14-.095.502-.357.805-.584.853-.639 1.046-.713 1.85-.71.784.003.96.076 1.86.777.275.214.628.471.785.572 1.323.854 3.387.83 4.7-.055.14-.095.502-.357.805-.584.853-.639 1.046-.713 1.85-.71.743.002.961.085 1.69.641.445.339.716.407 1.092.274.631-.222.864-.931.496-1.505-.137-.213-.895-.768-1.358-.995-.479-.234-.881-.343-1.484-.405-.841-.085-1.746.066-2.421.404-.358.179-.6.341-1.255.84a6 6 0 0 1-.72.484c-.616.304-1.536.314-2.147.022a3.4 3.4 0 0 1-.473-.304c-.914-.708-1.138-.864-1.5-1.041-.752-.368-1.586-.498-2.545-.396m0 6a4.1 4.1 0 0 0-1.608.526c-.15.087-.546.364-.88.616-.334.251-.715.511-.847.576-.615.305-1.535.315-2.147.023a3.4 3.4 0 0 1-.473-.305c-.59-.461-.781-.532-1.182-.442a.984.984 0 0 0-.459 1.681c.246.24.88.689 1.181.838 1.35.668 3.188.568 4.385-.238.14-.095.502-.357.805-.584.853-.639 1.046-.713 1.85-.71.784.003.96.076 1.86.777.275.214.628.471.785.572 1.323.854 3.387.83 4.7-.055.14-.095.502-.357.805-.584.853-.639 1.046-.713 1.85-.71.743.002.961.085 1.69.641.445.339.716.407 1.092.274.631-.222.864-.931.496-1.505-.137-.213-.895-.768-1.358-.995-.479-.234-.881-.343-1.484-.405-.841-.085-1.746.066-2.421.404-.358.179-.6.341-1.255.84a6 6 0 0 1-.72.484c-.616.304-1.536.314-2.147.022a3.4 3.4 0 0 1-.473-.304c-.914-.708-1.138-.864-1.5-1.041-.752-.368-1.586-.498-2.545-.396"/></svg>