<svg xmlns="http://www.w3.org/2000/svg" width="24" height="24" fill="none" stroke="currentColor" stroke-linecap="round" stroke-linejoin="round" stroke-width="2"><path fill="#000" fill-rule="evenodd" stroke="none" d="M8.499 4.043c-1.106.185-2.011.981-2.385 2.097l-.094.28-.011 5.548-.011 5.547-.229.144c-.324.203-.678.304-1.149.328-.678.035-1.147-.109-1.66-.508-.59-.461-.781-.532-1.182-.442a.984.984 0 0 0-.459 1.681c.246.24.88.689 1.181.838.976.483 2.284.577 3.36.242.598-.186.918-.373 1.875-1.095.8-.604 1.008-.682 1.805-.679.784.003.96.076 1.86.777.275.214.628.471.785.572.983.635 2.455.805 3.675.425.598-.186.918-.373 1.875-1.095.8-.604 1.008-.682 1.805-.679.743.002.961.085 1.69.641.182.138.398.27.48.293a1.002 1.002 0 0 0 1.278-.85c.046-.445-.114-.707-.696-1.147-.495-.374-1.09-.68-1.549-.799-.835-.215-1.875-.194-2.653.055l-.09.028V11.57c0-5.236-.016-4.94.283-5.249.201-.207.353-.272.745-.322.364-.046.603-.172.774-.408a.993.993 0 0 0-.57-1.553c-.411-.099-1.179.053-1.673.33a3.15 3.15 0 0 0-1.441 1.772c-.076.239-.092.396-.108 1.07l-.019.79H8v-.553c0-.678.053-.888.283-1.126.201-.207.353-.272.745-.322.364-.046.603-.172.774-.408a.99.99 0 0 0-.512-1.536c-.2-.06-.479-.064-.791-.012M16 11v1H8v-2h8zm0 4.757v1.757l-.23.144c-.325.204-.678.305-1.15.329-.677.035-1.145-.108-1.66-.507-.914-.709-1.138-.864-1.5-1.041a5 5 0 0 0-.717-.277c-.835-.215-1.875-.194-2.653.055l-.09.028V14h8z"/></svg>