<svg xmlns="http://www.w3.org/2000/svg" width="24" height="24" fill="none" stroke="currentColor" stroke-linecap="round" stroke-linejoin="round" stroke-width="2"><path fill="#000" fill-rule="evenodd" stroke="none" d="M11.34 1.024c-1.314.136-2.249.391-3.28.894A8.87 8.87 0 0 0 3.939 6.02a8.91 8.91 0 0 0 0 7.96 8.88 8.88 0 0 0 4.121 4.102c.846.412 1.725.69 2.56.811l.36.051.011 1.028.01 1.028H8.947c-2.23 0-2.281.004-2.565.221-.08.061-.195.194-.254.295-.091.156-.108.23-.108.484 0 .256.016.328.111.489.125.213.318.375.539.454s10.438.079 10.66 0 .414-.241.539-.454c.095-.161.111-.233.111-.489 0-.254-.017-.328-.108-.484a1.2 1.2 0 0 0-.254-.295c-.284-.217-.335-.221-2.565-.221h-2.054l.01-1.028.011-1.028.36-.051c1.472-.212 3.065-.918 4.277-1.895.174-.14.489-.428.701-.64A8.97 8.97 0 0 0 20.084 6.06a9 9 0 0 0-6.764-4.959c-.409-.062-1.658-.11-1.98-.077m1.762 2.074c2.997.453 5.389 2.887 5.822 5.922.066.463.066 1.497 0 1.96-.437 3.067-2.798 5.444-5.904 5.946-.413.066-1.627.066-2.04 0-3.107-.502-5.467-2.879-5.904-5.946-.109-.763-.054-1.887.129-2.64a7.04 7.04 0 0 1 5.135-5.135c.284-.07.724-.136 1.2-.182.273-.026 1.186.018 1.562.075m-1.744 2.963c-1.128.176-2.215.913-2.789 1.892a3.992 3.992 0 0 0 1.943 5.751 3.99 3.99 0 0 0 5.192-2.216 3.96 3.96 0 0 0 .001-2.972 3.98 3.98 0 0 0-3.1-2.458 3.7 3.7 0 0 0-1.247.003m1.165 2.012a2.01 2.01 0 0 1 1.444 1.617c.1.653-.094 1.243-.564 1.714-.401.403-.856.596-1.403.596q-.771 0-1.347-.535c-1.33-1.236-.464-3.46 1.347-3.46.143 0 .378.031.523.068"/></svg>