<svg xmlns="http://www.w3.org/2000/svg" width="24" height="24" fill="none" stroke="currentColor" stroke-linecap="round" stroke-linejoin="round" stroke-width="2"><path fill="#000" fill-rule="evenodd" stroke="none" d="M1.67 1.061c-.222.081-.42.248-.542.455-.092.156-.108.229-.107.484 0 .212.022.341.074.44.04.077 1.676 1.745 3.634 3.706l3.562 3.565.034.215c.035.219.021.386-.054.634-.023.077-.744 1.453-1.601 3.058-.858 1.605-1.584 2.989-1.615 3.075-.23.653.333 1.364 1.028 1.298.25-.024.539-.173.679-.351.13-.165 3.278-6.048 3.278-6.126 0-.03 1.017.963 2.26 2.206l2.26 2.26-1.57.022c-1.568.022-1.57.022-1.891.129-.939.313-1.668.993-2.535 2.364q-.535.846-1.345 1.183c-1.706.71-3.604-.219-4.063-1.988-.106-.409-.113-1.045-.017-1.43.039-.154.15-.453.246-.664.265-.582.235-.938-.109-1.283-.363-.364-.868-.407-1.3-.11-.126.087-.211.2-.348.466-.396.767-.563 1.451-.559 2.291a4.84 4.84 0 0 0 1.466 3.502c.595.592 1.137.931 1.905 1.191 1.728.586 3.57.202 4.943-1.032.358-.321.635-.664.957-1.181.343-.552.497-.751.783-1.016.465-.431.255-.402 3.035-.415l2.419-.011.972.971c1.078 1.077 1.047 1.019.546 1.027-.44.007-.769.184-.967.52-.091.156-.108.23-.108.484 0 .256.016.328.111.489.203.346.524.511.991.511.534 0 1.224-.136 1.74-.342l.266-.107.646.64c.355.352.709.673.786.713.1.053.226.075.44.075.258.001.327-.015.492-.112.476-.28.647-.9.373-1.359-.055-.092-4.65-4.715-10.212-10.273C3.3 1.889 2.525 1.125 2.343 1.065a1 1 0 0 0-.673-.004m9.888-.016a5 5 0 0 0-2.99 1.372c-.399.382-.525.582-.556.877a.992.992 0 0 0 1.304 1.047c.16-.053.298-.153.6-.435.67-.625 1.264-.871 2.104-.872 1.078-.002 1.994.506 2.57 1.426.259.413.543.593.93.589a.95.95 0 0 0 .661-.255c.226-.199.316-.407.318-.734.001-.26-.012-.304-.176-.59-.691-1.208-2.041-2.147-3.403-2.369a5.4 5.4 0 0 0-1.362-.056m.092 4.021c-.479.17-.767.776-.596 1.255.086.242.712 1.251.869 1.404.654.633 1.759.078 1.664-.836-.019-.187-.081-.318-.426-.893-.431-.719-.545-.843-.866-.939a.96.96 0 0 0-.645.009m6.614 6.997c-.511.187-.797.784-.606 1.265.165.414.359.553.993.71.248.061.532.152.63.202.887.451 1.463 1.211 1.666 2.197.077.375.165.553.358.722a.85.85 0 0 0 .619.241c.408 0 .7-.162.897-.499.146-.249.161-.488.061-.976-.399-1.94-1.922-3.452-3.895-3.868-.334-.07-.52-.069-.723.006"/></svg>