<svg xmlns="http://www.w3.org/2000/svg" width="24" height="24" fill="none" stroke="currentColor" stroke-linecap="round" stroke-linejoin="round" stroke-width="2"><path fill="#000" fill-rule="evenodd" stroke="none" d="M11.251 1.06c-1.103.169-2.267.805-2.97 1.622C6.842 4.354 6.62 6.584 7.701 8.5c.526.932.682 1.369.649 1.825-.018.262-.044.313-1.639 3.261-.891 1.647-1.64 3.055-1.665 3.13-.215.639.356 1.34 1.037 1.275.25-.024.538-.173.679-.351.212-.268 3.331-6.084 3.454-6.44.097-.282.12-.423.135-.825.029-.769-.142-1.435-.574-2.243-.663-1.236-.738-1.455-.736-2.145.001-.498.084-.859.296-1.287.317-.641.752-1.081 1.363-1.382.465-.229.754-.293 1.32-.293.535 0 .837.062 1.256.257.532.248.952.621 1.302 1.156.299.458.542.615.942.611a.95.95 0 0 0 .661-.255c.227-.199.316-.407.317-.734.001-.241-.017-.314-.129-.521-.652-1.205-1.923-2.131-3.349-2.44-.406-.088-1.32-.108-1.769-.039m.416 4.005c-.369.113-.667.534-.667.942 0 .084.033.238.074.343.143.367 3.285 6.059 3.476 6.297.366.454.941.838 1.59 1.06.547.187.891.245 1.74.292.49.027.743.06.981.13.942.275 1.723 1.054 2.014 2.01.083.273.098.403.098.861s-.015.588-.098.861a3.06 3.06 0 0 1-2.015 2.015c-.154.046-.469.1-.7.12s-.471.056-.533.08a1.1 1.1 0 0 0-.499.44c-.091.156-.108.23-.108.484 0 .257.016.327.113.492.13.222.369.409.603.473.206.056.815.024 1.244-.065a5.17 5.17 0 0 0 2.606-1.426 5.14 5.14 0 0 0 1.321-2.514c.101-.471.101-1.449 0-1.92-.282-1.319-1.044-2.464-2.107-3.166-.813-.538-1.455-.761-2.4-.835-1.063-.082-1.302-.116-1.61-.224-.617-.218-.482-.021-2.312-3.375-1.138-2.086-1.673-3.029-1.785-3.144-.264-.273-.626-.354-1.026-.231m-9.385 8.979c-.22.067-.456.262-.593.487-.883 1.463-.908 3.43-.062 4.889.275.474.464.717.89 1.145.748.752 1.64 1.197 2.761 1.379 1.474.24 3.061-.27 4.174-1.34.388-.374.628-.683.949-1.224.393-.662.757-1.07 1.134-1.272l.165-.088 3.26-.02c3.028-.019 3.271-.025 3.42-.092.356-.16.619-.555.619-.928 0-.245-.135-.549-.324-.728-.279-.265-.093-.252-3.731-.252-3.647 0-3.604-.003-4.162.255-.854.395-1.427.987-2.237 2.313-.801 1.311-2.445 1.793-3.847 1.13-1.08-.511-1.781-1.708-1.679-2.87.038-.441.114-.704.342-1.19.163-.345.199-.46.199-.64a1.02 1.02 0 0 0-.571-.904c-.153-.079-.525-.105-.707-.05"/></svg>