<svg xmlns="http://www.w3.org/2000/svg" width="24" height="24" fill="none" stroke="currentColor" stroke-linecap="round" stroke-linejoin="round" stroke-width="2"><path fill="#000" fill-rule="evenodd" stroke="none" d="M11.358 1.061c-2.208.344-3.722 2.521-3.276 4.711.076.369.312 1.034.401 1.126.02.021.037.052.037.07S8.021 7 7.41 7c-.61 0-1.226.019-1.367.042-1.062.173-2.017.963-2.342 1.938-.095.284-2.562 9.236-2.616 9.492-.148.701.062 1.644.5 2.246.444.611.985.985 1.715 1.185.272.075.517.077 8.72.077s8.448-.002 8.72-.077c1.471-.404 2.423-1.793 2.23-3.253-.03-.224-.522-2.037-1.367-5.03-1.512-5.358-1.436-5.141-2-5.7-.359-.355-.634-.541-1.043-.706-.445-.18-.757-.214-1.964-.214-.614 0-1.116-.014-1.116-.032s.017-.049.037-.07c.085-.087.33-.778.404-1.141a3.94 3.94 0 0 0-.216-2.241 3.98 3.98 0 0 0-3.1-2.458 3.7 3.7 0 0 0-1.247.003m1.165 2.012a2.01 2.01 0 0 1 1.27 2.807c-.155.318-.566.745-.863.895a2.07 2.07 0 0 1-1.422.165c-.685-.178-1.259-.746-1.435-1.417a2 2 0 0 1 2.45-2.45m5.357 6.021c.176.094.39.294.462.431.03.058.634 2.155 1.343 4.66 1.418 5.015 1.389 4.891 1.196 5.269a.95.95 0 0 1-.514.472c-.167.071-.466.074-8.32.074-5.489 0-8.196-.014-8.296-.042-.373-.103-.711-.539-.711-.916 0-.124.424-1.725 1.241-4.685.682-2.473 1.27-4.585 1.305-4.693.04-.121.129-.261.233-.365.316-.316-.161-.294 6.221-.286 5.475.007 5.706.01 5.84.081"/></svg>