<svg xmlns="http://www.w3.org/2000/svg" width="24" height="24" fill="none" stroke="currentColor" stroke-linecap="round" stroke-linejoin="round" stroke-width="2"><path fill="#000" fill-rule="evenodd" stroke="none" d="M1.67 1.061c-.222.081-.42.248-.542.455-.091.156-.108.23-.108.484s.016.327.107.48c.061.101 1.286 1.357 2.786 2.855l2.678 2.676-.214.264c-.267.329-.624 1.035-.752 1.485-.053.187-.112.339-.131.339a3 3 0 0 1-.264-.057.95.95 0 0 0-.86.196c-.303.242-1.815 1.795-2.041 2.096a5 5 0 0 0-.406.68 4.41 4.41 0 0 0 0 3.972c.256.519.491.828 1.133 1.486l.519.531-1.203 1.209c-.662.664-1.234 1.269-1.271 1.343-.229.454-.045 1.046.407 1.312.165.097.234.113.492.112.213 0 .341-.022.44-.074.077-.041.684-.615 1.348-1.277l1.209-1.203.531.518c.293.285.64.601.772.702a4.6 4.6 0 0 0 2.065.852c.533.079.737.079 1.27 0a4.6 4.6 0 0 0 2.065-.85c.348-.265 2.05-1.957 2.166-2.155.133-.225.165-.547.079-.807-.082-.251-.082-.245.025-.245.16-.001.841-.258 1.19-.449.187-.102.45-.275.585-.384l.244-.198 2.676 2.678c1.498 1.5 2.754 2.725 2.855 2.786.153.091.226.107.48.107.257 0 .327-.016.492-.113.476-.28.647-.9.373-1.359-.055-.092-4.65-4.715-10.212-10.273C3.3 1.889 2.525 1.125 2.343 1.065a1 1 0 0 0-.673-.004m17.73-.017q-1.24.14-2.332.919c-.619.441-1.246 1.178-1.535 1.805l-.107.233-.943-.934c-.815-.807-.97-.943-1.14-1.001a.97.97 0 0 0-.686 0c-.172.057-.322.19-1.182 1.05-.986.985-1.223 1.261-1.439 1.672a.992.992 0 0 0 .853 1.463c.397.009.638-.141.963-.6.121-.171.43-.518.686-.771l.466-.46.549.56c.776.792.977 1.206.979 2.02a2.35 2.35 0 0 1-.481 1.491c-.287.394-.314.801-.078 1.194.233.392.732.592 1.151.463a2 2 0 0 0 .433-.226c.484-.329.882-.453 1.459-.454.441 0 .774.081 1.159.282.22.114.413.274.845.697l.56.549-.46.466c-.253.256-.6.565-.771.686-.452.32-.606.562-.606.953 0 .541.453.98 1.012.978.257 0 .519-.115.908-.399.334-.244 2.082-1.983 2.21-2.2.09-.152.107-.227.107-.48 0-.254-.016-.328-.107-.48-.059-.099-.504-.575-.989-1.058l-.881-.878.354-.187c1.302-.688 2.229-1.936 2.55-3.437.063-.294.073-.539.073-1.8V1.7l-.108-.184a1.02 1.02 0 0 0-.582-.461c-.208-.063-2.359-.071-2.89-.011m1.59 2.726c-.017.663-.033.814-.116 1.091a3.08 3.08 0 0 1-2.014 2.021c-.239.076-.396.092-1.075.108l-.795.02.02-.775c.017-.669.032-.819.116-1.096a3.03 3.03 0 0 1 2.373-2.096c.11-.018.496-.036.856-.038L21.009 3zm-10.732 8.378c-.131.258-.254.409-.708.872l-.549.56-.551-.56c-.787-.799-.981-1.199-.981-2.02 0-.573.143-1.037.441-1.434l.101-.135 1.202 1.202 1.203 1.203zm-4.693.842c.771.791.966 1.196.966 2.01 0 .82-.194 1.221-.98 2.02L5 17.58l-.551-.56c-.786-.799-.98-1.2-.98-2.02 0-.814.195-1.219.966-2.01.296-.302.55-.55.565-.55s.269.248.565.55m7.814 1.809c1.349 1.35 1.258 1.194.841 1.437-.554.323-1.367.401-2 .191-.446-.147-.722-.344-1.3-.927l-.5-.505.561-.547c.444-.435.621-.579.854-.698.161-.082.305-.15.319-.15s.566.54 1.225 1.199M9.68 17.547c.461.126.746.318 1.34.9l.56.549-.5.504c-.578.583-.854.78-1.3.928-.272.09-.389.106-.78.106-.845 0-1.259-.206-2.08-1.034l-.5-.504.56-.549c.566-.555.845-.749 1.28-.889.378-.122.999-.127 1.42-.011"/></svg>