<svg xmlns="http://www.w3.org/2000/svg" width="24" height="24" fill="none" stroke="currentColor" stroke-linecap="round" stroke-linejoin="round" stroke-width="2"><path fill="#000" fill-rule="evenodd" stroke="none" d="M19.4 1.044c-1.609.182-3.14 1.249-3.844 2.68-.069.141-.129.26-.132.264s-.429-.411-.945-.924c-.813-.807-.965-.941-1.136-.998a.98.98 0 0 0-.686 0c-.172.057-.319.187-1.161 1.03-.53.53-1.056 1.087-1.169 1.238a5.3 5.3 0 0 0-.701 1.426c-.054.187-.113.339-.132.339a3 3 0 0 1-.264-.057.95.95 0 0 0-.86.196c-.303.242-1.815 1.795-2.041 2.096a5.2 5.2 0 0 0-.703 1.426c-.054.187-.113.339-.132.339a3 3 0 0 1-.264-.057.95.95 0 0 0-.86.196c-.303.242-1.815 1.795-2.041 2.096a5 5 0 0 0-.406.68 4.41 4.41 0 0 0 0 3.972c.256.519.491.828 1.133 1.486l.519.531-1.203 1.209c-.662.664-1.234 1.269-1.271 1.343-.229.454-.045 1.046.407 1.312.165.097.234.113.492.112.213 0 .341-.022.44-.074.077-.041.684-.615 1.348-1.277l1.209-1.203.531.518c.293.285.64.601.772.702a4.6 4.6 0 0 0 2.065.852c.533.079.737.079 1.27 0a4.6 4.6 0 0 0 2.065-.85c.348-.265 2.05-1.957 2.166-2.155.133-.225.165-.547.079-.807-.081-.25-.082-.245.019-.245.156 0 .814-.243 1.156-.428.187-.101.448-.265.58-.365.348-.265 2.05-1.957 2.166-2.155.133-.225.165-.547.079-.807-.081-.25-.082-.245.019-.245.156 0 .814-.243 1.156-.428.187-.101.448-.265.58-.365.359-.273 2.051-1.96 2.174-2.167.089-.152.106-.227.106-.48 0-.254-.017-.328-.107-.48-.059-.099-.504-.575-.989-1.057-.486-.483-.879-.88-.873-.884l.356-.189c1.291-.679 2.22-1.933 2.54-3.43.063-.294.073-.539.073-1.8V1.7l-.108-.184a1.02 1.02 0 0 0-.582-.461c-.208-.063-2.359-.071-2.89-.011m1.59 2.726c-.017.663-.033.814-.116 1.091a3.08 3.08 0 0 1-2.014 2.021c-.239.076-.396.092-1.075.108l-.795.02.02-.775c.017-.669.032-.819.116-1.096a3.03 3.03 0 0 1 2.373-2.096c.11-.018.496-.036.856-.038L21.009 3zm-7.425 1.22c.771.791.966 1.196.966 2.01 0 .82-.194 1.221-.98 2.02L13 9.58l-.551-.56c-.786-.799-.98-1.2-.98-2.02 0-.814.195-1.219.966-2.01.296-.302.55-.55.565-.55s.269.248.565.55m-4 4c.771.791.966 1.196.966 2.01 0 .82-.194 1.221-.98 2.02L9 13.58l-.551-.56c-.786-.799-.98-1.2-.98-2.02 0-.814.195-1.219.966-2.01.296-.302.55-.55.565-.55s.269.248.565.55m8.115.557c.461.126.746.318 1.34.9l.56.549-.5.504c-.578.583-.854.78-1.3.928-.272.09-.389.106-.78.106-.845 0-1.259-.206-2.08-1.034l-.5-.504.56-.549c.566-.555.845-.749 1.28-.889.378-.122.999-.127 1.42-.011M5.565 12.99c.771.791.966 1.196.966 2.01 0 .82-.194 1.221-.98 2.02L5 17.58l-.551-.56c-.786-.799-.98-1.2-.98-2.02 0-.814.195-1.219.966-2.01.296-.302.55-.55.565-.55s.269.248.565.55m8.115.557c.461.126.746.318 1.34.9l.56.549-.5.504c-.578.583-.854.78-1.3.928-.272.09-.389.106-.78.106-.845 0-1.259-.206-2.08-1.034l-.5-.504.56-.549c.566-.555.845-.749 1.28-.889.378-.122.999-.127 1.42-.011m-4 4c.461.126.746.318 1.34.9l.56.549-.5.504c-.578.583-.854.78-1.3.928-.272.09-.389.106-.78.106-.845 0-1.259-.206-2.08-1.034l-.5-.504.56-.549c.566-.555.845-.749 1.28-.889.378-.122.999-.127 1.42-.011"/></svg>