<svg xmlns="http://www.w3.org/2000/svg" width="24" height="24" fill="none" stroke="currentColor" stroke-linecap="round" stroke-linejoin="round" stroke-width="2"><path fill="#000" fill-rule="evenodd" stroke="none" d="M13.695 6.057a1.04 1.04 0 0 0-.567.459l-.108.184-.011 4.213c-.007 2.759.004 4.265.03 4.364.06.221.251.462.469.59.165.097.235.113.492.113s.327-.016.493-.113c.106-.063.241-.183.3-.269.119-.173.152-.184.274-.099.046.033.242.123.435.201a3.986 3.986 0 0 0 5.202-2.212 3.96 3.96 0 0 0 .001-2.972 3.98 3.98 0 0 0-3.1-2.458 3.4 3.4 0 0 0-1.21 0 3.6 3.6 0 0 0-1.124.348 3 3 0 0 1-.247.114c-.01 0-.024-.409-.031-.91-.013-.906-.013-.911-.121-1.094a1.005 1.005 0 0 0-1.177-.459M6.358 8.061c-1.128.176-2.215.913-2.789 1.892a3.992 3.992 0 0 0 1.943 5.751 3.96 3.96 0 0 0 2.986-.004c.193-.078.389-.168.435-.201.122-.085.155-.074.274.099.059.086.194.206.3.269.166.097.236.113.493.113s.327-.016.492-.113c.218-.128.409-.369.469-.591.027-.099.037-1.271.03-3.364L10.98 8.7l-.108-.184c-.176-.3-.541-.516-.871-.516-.308 0-.732.243-.871.498-.041.076-.056.073-.396-.087-.471-.22-.676-.284-1.132-.353a3.7 3.7 0 0 0-1.244.003m1.165 2.012a2.01 2.01 0 0 1 1.444 1.617c.1.653-.094 1.243-.564 1.714C8.002 13.807 7.547 14 7 14q-.771 0-1.347-.535c-1.33-1.236-.464-3.46 1.347-3.46.143 0 .378.031.523.068m10 0a2.01 2.01 0 0 1 1.444 1.617c.1.653-.094 1.243-.564 1.714-.401.403-.856.596-1.403.596q-.771 0-1.347-.535c-1.33-1.236-.464-3.46 1.347-3.46.143 0 .378.031.523.068M1.695 16.057a1.04 1.04 0 0 0-.567.459c-.105.179-.108.204-.121.912-.015.821.017 1.046.203 1.421.149.301.597.763.893.92C2.566 20.016 1.9 20 12 20s9.434.016 9.897-.231c.296-.157.744-.619.893-.92.186-.375.218-.6.203-1.421-.013-.71-.016-.733-.122-.914a1.01 1.01 0 0 0-1.742 0c-.103.177-.11.219-.129.826l-.02.64-8.987.01-8.986.01-.014-.65c-.012-.622-.018-.658-.121-.834a1.005 1.005 0 0 0-1.177-.459"/></svg>