<svg xmlns="http://www.w3.org/2000/svg" width="24" height="24" fill="none" stroke="currentColor" stroke-linecap="round" stroke-linejoin="round" stroke-width="2"><path fill="#000" fill-rule="evenodd" stroke="none" d="M1.67 1.061c-.222.081-.42.248-.542.455-.092.156-.108.229-.107.484 0 .212.022.341.074.44.04.077.813.882 1.717 1.789s1.636 1.655 1.626 1.662c-.01.008-.297.18-.638.383-.936.557-1.897 1.264-2.423 1.786-.223.22-.295.321-.336.471-.174.637.298 1.279.941 1.28.319.001.477-.076.911-.44.872-.732 1.707-1.296 2.576-1.741l.489-.25 1.144 1.143 1.144 1.144-.193.072c-.622.231-1.583.733-2.213 1.154-.826.553-1.712 1.369-1.793 1.652a1 1 0 0 0 .048.715c.181.382.5.588.908.588.312 0 .515-.103.898-.454a8.6 8.6 0 0 1 2.159-1.477c.505-.248 1.564-.637 1.733-.637.037 0 .688.621 1.447 1.38l1.38 1.381-.36-.025c-.883-.061-2.041.178-2.88.594-.81.401-1.624 1.048-1.789 1.421a.996.996 0 0 0 .614 1.347c.26.077.329.077.58.003.135-.04.295-.141.497-.313.635-.54 1.201-.83 1.938-.992.31-.069 1.25-.069 1.56 0 .737.162 1.303.452 1.939.993.381.324.623.407.978.334l.236-.049 2.744 2.739c1.508 1.506 2.806 2.772 2.883 2.812.099.052.228.074.44.074.258.001.327-.015.492-.112.476-.28.647-.9.373-1.359-.055-.092-4.65-4.715-10.212-10.273C3.3 1.889 2.525 1.125 2.343 1.065a1 1 0 0 0-.673-.004m9.198 2.981c-.354.029-.47.056-.635.146a.97.97 0 0 0-.261 1.516c.286.325.234.316 1.768.318 1.456.002 1.907.04 2.94.243a14.06 14.06 0 0 1 6.465 3.139c.393.331.559.408.873.407.632-.001 1.096-.61.944-1.241-.059-.246-.19-.408-.634-.78-2.473-2.077-5.327-3.304-8.588-3.692-.626-.074-2.273-.107-2.872-.056m5.945 6.322a.94.94 0 0 0-.53.279.85.85 0 0 0-.272.58c-.048.466.153.781.716 1.127.457.28.906.62 1.333 1.009.425.387.621.489.937.489.408 0 .727-.206.908-.588a.91.91 0 0 0 .001-.8c-.154-.327-.946-1.03-1.805-1.602-.712-.472-.937-.559-1.288-.494m-5.118 8.691a1.05 1.05 0 0 0-.567.461c-.091.156-.108.23-.108.484 0 .257.016.327.113.492.518.882 1.865.526 1.865-.492a.99.99 0 0 0-.535-.888 1.17 1.17 0 0 0-.768-.057"/></svg>