<svg xmlns="http://www.w3.org/2000/svg" width="24" height="24" fill="none" stroke="currentColor" stroke-linecap="round" stroke-linejoin="round" stroke-width="2"><path fill="#000" fill-rule="evenodd" stroke="none" d="M10.903 4.04Q5.945 4.428 2.1 7.436c-.662.517-.995.862-1.059 1.095-.174.637.298 1.279.941 1.28.315.001.48-.077.876-.411 1.723-1.458 3.631-2.448 5.733-2.975C9.769 6.13 10.67 6.024 12 6.024c1.295 0 2.191.102 3.323.378 2.137.522 4.059 1.512 5.822 3.001.393.331.558.409.873.408.64-.001 1.095-.609.941-1.257-.043-.184-.091-.254-.335-.495-.378-.373-1.117-.946-1.804-1.398-2.178-1.433-4.486-2.266-7.1-2.562-.651-.074-2.213-.106-2.817-.059m.193 4.998c-2.507.227-4.846 1.264-6.592 2.922-.5.475-.619.855-.409 1.3.181.382.5.588.908.588.316 0 .512-.103.937-.491a9 9 0 0 1 3.9-2.09c.763-.186 1.272-.244 2.16-.244 1.495 0 2.626.258 3.94.898.832.405 1.465.839 2.229 1.529.349.314.524.398.831.398.405 0 .724-.207.905-.588.207-.438.09-.824-.39-1.282-1.576-1.508-3.694-2.527-5.935-2.857-.632-.093-1.902-.135-2.484-.083m.225 5.008a6 6 0 0 0-2.961 1.198c-.661.505-.848.769-.848 1.2 0 .433.281.811.693.934.26.077.329.077.58.003.135-.04.295-.141.497-.313.377-.32.611-.479.949-.645.612-.3 1.056-.4 1.769-.4 1.068 0 1.837.295 2.718 1.045.202.172.362.273.497.313.251.074.32.074.58-.003a.97.97 0 0 0 .693-.934c0-.431-.187-.695-.848-1.2-1.244-.95-2.735-1.363-4.319-1.198m.374 5.009a1.05 1.05 0 0 0-.567.461c-.091.156-.108.23-.108.484 0 .257.016.327.113.492.518.882 1.865.526 1.865-.492a.99.99 0 0 0-.535-.888 1.17 1.17 0 0 0-.768-.057"/></svg>