<svg xmlns="http://www.w3.org/2000/svg" width="24" height="24" fill="none" stroke="currentColor" stroke-linecap="round" stroke-linejoin="round" stroke-width="2"><path fill="#000" fill-rule="evenodd" stroke="none" d="M11.321 14.046a6 6 0 0 0-2.961 1.198c-.661.505-.848.769-.848 1.2 0 .433.281.811.693.934.26.077.329.077.58.003.135-.04.295-.141.497-.313.377-.32.611-.479.949-.645.612-.3 1.056-.4 1.769-.4 1.068 0 1.837.295 2.718 1.045.202.172.362.273.497.313.251.074.32.074.58-.003a.97.97 0 0 0 .693-.934c0-.431-.187-.695-.848-1.2-1.244-.95-2.735-1.363-4.319-1.198m.374 5.009a1.05 1.05 0 0 0-.567.461c-.091.156-.108.23-.108.484 0 .257.016.327.113.492.518.882 1.865.526 1.865-.492a.99.99 0 0 0-.535-.888 1.17 1.17 0 0 0-.768-.057"/></svg>