<svg xmlns="http://www.w3.org/2000/svg" width="24" height="24" fill="none" stroke="currentColor" stroke-linecap="round" stroke-linejoin="round" stroke-width="2"><path fill="#000" fill-rule="evenodd" stroke="none" d="M9.695 1.057a1.04 1.04 0 0 0-.567.459L9.02 1.7l-.011 2.937-.011 2.937-1.229-1.221C6.688 5.279 6.516 5.124 6.343 5.066a1 1 0 0 0-1.215.45c-.092.156-.108.229-.107.484 0 .212.022.341.074.44.04.077 1.021 1.091 2.179 2.254 2.293 2.302 2.297 2.305 2.726 2.305s.433-.003 2.726-2.305c1.158-1.163 2.139-2.177 2.179-2.254.052-.099.074-.228.074-.44.001-.255-.015-.328-.107-.484a1 1 0 0 0-1.215-.45c-.173.058-.345.213-1.426 1.287l-1.229 1.221-.011-2.937L10.98 1.7l-.108-.184a1.005 1.005 0 0 0-1.177-.459m9.285 6.987a3.44 3.44 0 0 0-2.032 1.076c-.333.36-.441.577-.439.88.006.582.507 1.047 1.066.989.296-.031.481-.137.785-.452.179-.185.341-.308.52-.393.234-.111.297-.124.62-.121.313.003.394.019.62.124q.483.225.732.732c.116.235.128.293.127.624-.001.327-.014.39-.13.625a1.67 1.67 0 0 1-.76.745l-.229.107-9.06.02c-7.131.016-9.084.031-9.173.07a1.15 1.15 0 0 0-.499.446c-.091.156-.108.23-.108.484 0 .257.016.327.113.492.128.218.369.409.59.469.1.027 3.208.037 9.263.029 8.737-.01 9.125-.014 9.374-.085 1.529-.436 2.554-1.705 2.629-3.253a3 3 0 0 0-.157-1.212 3.51 3.51 0 0 0-3.852-2.396M1.695 17.057c-.23.072-.439.242-.567.459-.091.156-.108.23-.108.484 0 .256.016.328.111.489.125.213.318.375.539.454.123.044 1.269.054 6.313.055 6.921.002 6.396-.021 6.718.301a.993.993 0 0 1-.212 1.57c-.161.095-.233.111-.49.111-.286 0-.316-.009-.599-.18-.284-.172-.312-.18-.6-.179-.256.001-.331.018-.49.111-.488.286-.652.913-.361 1.383.213.345.831.692 1.459.822a2.98 2.98 0 0 0 3.453-2.077c.479-1.647-.415-3.254-2.097-3.769-.207-.064-.701-.069-6.564-.078-5.12-.007-6.372.002-6.505.044"/></svg>