<svg xmlns="http://www.w3.org/2000/svg" width="24" height="24" fill="none" stroke="currentColor" stroke-linecap="round" stroke-linejoin="round" stroke-width="2"><path fill="#000" fill-rule="evenodd" stroke="none" d="M10.485 3.042c-.538.097-1.253.457-1.47.741a1.002 1.002 0 0 0 .296 1.486c.162.095.233.111.492.111.278 0 .323-.012.54-.144.413-.251.643-.291.997-.17.405.138.692.587.651 1.017-.038.395-.344.776-.702.875C11.19 6.986 9.578 7 6.516 7c-5.019 0-4.834-.008-5.134.221-.08.061-.195.194-.254.295-.091.156-.108.23-.108.484 0 .256.016.328.111.489.125.213.318.375.539.454.122.043 1.033.054 4.882.055 4.16.002 4.769-.006 5.04-.061 1.452-.298 2.485-1.625 2.396-3.077a3.4 3.4 0 0 0-.397-1.369c-.368-.647-1.08-1.19-1.827-1.392-.28-.076-.993-.108-1.279-.057m8.495 3.002a3.44 3.44 0 0 0-2.032 1.076c-.333.36-.441.577-.439.88.006.582.507 1.047 1.066.989.296-.031.481-.137.785-.452.179-.185.341-.308.52-.393.234-.111.297-.124.62-.121.313.003.394.019.62.124q.483.225.732.732c.116.235.128.293.127.624-.001.327-.014.39-.13.625a1.67 1.67 0 0 1-.76.745l-.229.107-9.06.02c-7.131.016-9.084.031-9.173.07a1.15 1.15 0 0 0-.499.446c-.091.156-.108.23-.108.484 0 .257.016.327.113.492.128.218.369.409.59.469.1.027 3.208.037 9.263.029 8.737-.01 9.125-.014 9.374-.085 1.529-.436 2.554-1.705 2.629-3.253a3 3 0 0 0-.157-1.212 3.51 3.51 0 0 0-3.852-2.396M1.695 15.057c-.23.072-.439.242-.567.459-.091.156-.108.23-.108.484 0 .256.016.328.111.489.125.213.318.375.539.454.123.044 1.269.054 6.313.055 6.921.002 6.396-.021 6.718.301a.993.993 0 0 1-.212 1.57c-.161.095-.233.111-.49.111-.286 0-.316-.009-.599-.18-.284-.172-.312-.18-.6-.179-.256.001-.331.018-.49.111-.488.286-.652.913-.361 1.383.213.345.831.692 1.459.822a2.98 2.98 0 0 0 3.453-2.077c.479-1.647-.415-3.254-2.097-3.769-.207-.064-.701-.069-6.564-.078-5.12-.007-6.372.002-6.505.044"/></svg>