<svg xmlns="http://www.w3.org/2000/svg" width="24" height="24" fill="none" stroke="currentColor" stroke-linecap="round" stroke-linejoin="round" stroke-width="2"><path fill="#000" fill-rule="evenodd" stroke="none" d="M8.664 1.063a1 1 0 0 0-.497.386c-.179.29-1.145 3.078-1.502 4.331-.609 2.144-.81 4.139-.544 5.4.376 1.783 1.534 3.324 3.106 4.131.54.278.965.427 1.663.586l.11.025V21H9.446c-1.688 0-1.788.011-2.064.221-.08.061-.195.194-.254.295-.091.156-.108.23-.108.484 0 .256.016.328.111.489.125.213.318.375.539.454s8.438.079 8.66 0 .414-.241.539-.454c.095-.161.111-.233.111-.489 0-.254-.017-.328-.108-.484a1.2 1.2 0 0 0-.254-.295c-.276-.21-.376-.221-2.064-.221H13v-5.078l.11-.025c1.347-.306 2.283-.81 3.159-1.702 1.317-1.341 1.871-3.007 1.694-5.095-.154-1.817-.675-3.799-1.799-6.836-.307-.831-.404-.988-.707-1.144l-.195-.1-3.221-.008c-2.719-.006-3.245.002-3.377.051M14.67 4.03c.422 1.21.761 2.31.929 3.015.146.616.321 1.598.321 1.804V9H8.08v-.151c0-.206.175-1.188.321-1.804.168-.705.507-1.805.929-3.015L9.69 3h4.62zm1.171 7.08a4.03 4.03 0 0 1-3.068 2.807c-2.009.41-4.005-.804-4.614-2.807L8.126 11h7.748z"/></svg>