<svg xmlns="http://www.w3.org/2000/svg" width="24" height="24" fill="none" stroke="currentColor" stroke-linecap="round" stroke-linejoin="round" stroke-width="2"><path fill="#000" fill-rule="evenodd" stroke="none" d="M1.67 1.061c-.222.081-.42.248-.542.455-.092.156-.108.229-.107.484 0 .212.022.341.074.44.04.077 1.208 1.277 2.594 2.666L6.21 7.631l-.063.455c-.177 1.257-.188 2.378-.03 3.105.396 1.822 1.533 3.315 3.154 4.142.57.291.99.437 1.639.57l.09.019V21H9.446c-1.688 0-1.788.011-2.064.221-.08.061-.195.194-.254.295-.091.156-.108.23-.108.484 0 .256.016.328.111.489.125.213.318.375.539.454s8.438.079 8.66 0 .414-.241.539-.454c.095-.161.111-.233.111-.489 0-.254-.017-.328-.108-.484a1.2 1.2 0 0 0-.254-.295c-.276-.21-.376-.221-2.064-.221H13v-5.071l.364-.088c.2-.048.465-.123.589-.165l.225-.078 3.621 3.617c1.991 1.989 3.684 3.65 3.761 3.69.099.052.228.074.44.074.258.001.327-.015.492-.112.476-.28.647-.9.373-1.359-.055-.092-4.65-4.715-10.212-10.273C3.3 1.889 2.525 1.125 2.343 1.065a1 1 0 0 0-.673-.004m6.973.007c-.246.088-.493.348-.602.636-.491 1.29-.507 1.52-.134 1.936.529.588 1.411.382 1.695-.396L9.691 3h4.619l.36 1.03c.422 1.21.761 2.31.929 3.015.144.609.321 1.598.321 1.799v.145l-.27.02c-.322.023-.54.124-.738.343-.364.403-.326 1.008.087 1.379a.95.95 0 0 0 .692.269h.181l-.019.15c-.053.401.336.917.764 1.013.394.088.797-.056 1.034-.369.299-.395.419-1.595.291-2.914-.169-1.74-.684-3.656-1.778-6.616-.307-.831-.404-.988-.707-1.144l-.195-.1-3.221-.007c-2.836-.007-3.242 0-3.398.055m2.411 11.406c1.643 1.644 1.565 1.524.999 1.525a4.03 4.03 0 0 1-3.836-2.729L8.125 11H9.58z"/></svg>