<svg xmlns="http://www.w3.org/2000/svg" width="24" height="24" fill="none" stroke="currentColor" stroke-linecap="round" stroke-linejoin="round" stroke-width="2"><path fill="#000" fill-rule="evenodd" stroke="none" d="M4.499 2.042A3.05 3.05 0 0 0 2.114 4.16l-.094.3v5.08l.094.3a3.1 3.1 0 0 0 2.026 2.042c.239.076.396.092 1.067.108l.788.019.014 1.786c.014 1.738.017 1.792.107 2.065a3.13 3.13 0 0 0 2.024 2.024c.273.09.327.093 2.065.107l1.786.014.019.788c.016.671.032.828.108 1.067a3.1 3.1 0 0 0 2.042 2.026l.3.094h5.08l.3-.094a3.09 3.09 0 0 0 2.046-2.046l.094-.3v-5.08l-.094-.3c-.309-.991-1.094-1.77-2.064-2.048-.321-.092-.332-.092-2.822-.092s-2.501 0-2.822.092c-.961.275-1.747 1.049-2.06 2.028-.076.239-.092.396-.108 1.072l-.019.791-1.646-.011L8.7 15.98l-.184-.108a1.2 1.2 0 0 1-.291-.249C8.006 15.336 8 15.283 8 13.58v-1.571l.79-.019c.674-.016.831-.032 1.07-.108a3.1 3.1 0 0 0 2.026-2.042l.094-.3V4.46l-.094-.3a3.08 3.08 0 0 0-2.025-2.038l-.321-.1-2.42-.007c-1.331-.004-2.511.008-2.621.027M9.31 4.061c.279.083.546.35.629.629.086.288.091 4.317.006 4.6a1.02 1.02 0 0 1-.461.582L9.3 9.98H4.7l-.184-.108a1.05 1.05 0 0 1-.458-.556c-.088-.251-.086-4.328.003-4.626.079-.269.351-.547.612-.627.285-.088 4.342-.09 4.637-.002m10 10c.279.083.546.35.629.629.086.288.091 4.317.006 4.6a1.02 1.02 0 0 1-.461.582l-.184.108h-4.6l-.184-.108a1.05 1.05 0 0 1-.458-.556c-.088-.251-.086-4.328.003-4.626.079-.269.351-.547.612-.627.285-.088 4.342-.09 4.637-.002"/></svg>