<svg xmlns="http://www.w3.org/2000/svg" width="24" height="24" fill="none" stroke="currentColor" stroke-linecap="round" stroke-linejoin="round" stroke-width="2"><path fill="#000" fill-rule="evenodd" stroke="none" d="M6.62 1.986c-1.062.123-1.893.375-2.799.849-1.205.631-1.721 1.004-2.125 1.536-.659.87-.867 2.116-.53 3.163.648 2.009 2.906 3.007 4.814 2.128.154-.071.446-.23.648-.354s.437-.242.521-.265c.392-.106.811.225.811.64 0 .095-.145.637-.34 1.272-.415 1.351-.518 1.752-.598 2.324-.271 1.939.332 4.158 1.552 5.721a8.7 8.7 0 0 0 1.813 1.69c2.283 1.554 5.316 1.757 7.793.519.38-.19 1.185-.696 1.487-.935l.246-.196.899.447c1.003.498 1.143.536 1.51.414A1.03 1.03 0 0 0 23 20a1.08 1.08 0 0 0-.275-.678c-.102-.106-.393-.274-.978-.566l-.832-.416.032-.22c.055-.365.035-1.035-.04-1.36a3.8 3.8 0 0 0-.527-1.195c-.238-.356-.723-.818-1.054-1.005a7 7 0 0 1-.31-.182c-.054-.036.009-.186.446-1.064.561-1.127.601-1.263.482-1.621a1 1 0 0 0-1.261-.634c-.374.124-.45.234-1.179 1.693-.366.732-.688 1.337-.715 1.344-.564.147-.859.281-1.567.718-.196.12-.275.146-.451.146-.278 0-.499-.113-.641-.328-.185-.279-.158-.478.223-1.698.524-1.68.613-2.075.67-2.994.084-1.366-.4-3.204-1.154-4.38-1.472-2.296-3.92-3.626-6.617-3.594-.282.003-.566.012-.632.02m1.891 2.089a5.55 5.55 0 0 1 2.755 1.457 5.57 5.57 0 0 1 1.695 3.284c.065.444.055 1.295-.021 1.724-.076.427-.096.501-.503 1.824-.394 1.28-.436 1.458-.436 1.86a2.76 2.76 0 0 0 1.533 2.451c.476.232.806.299 1.355.276.536-.023.872-.127 1.345-.416.689-.422.798-.469 1.151-.487.483-.026.863.118 1.184.449.538.553.545 1.49.017 2.059-.305.328-1.408.956-2.066 1.176-1.113.373-2.423.374-3.58.004-.907-.291-1.862-.916-2.528-1.656-1.041-1.156-1.595-2.892-1.415-4.435.061-.516.121-.754.542-2.125.408-1.332.424-1.402.425-1.842a2.55 2.55 0 0 0-.778-1.856c-.543-.545-1.151-.796-1.913-.791-.601.004-.982.133-1.704.576-.63.387-.971.461-1.453.315-.491-.149-.75-.374-.972-.842-.112-.234-.124-.296-.12-.62.003-.295.022-.4.104-.58.204-.445.354-.574 1.232-1.067.829-.465 1.507-.712 2.22-.81.435-.06 1.496-.02 1.931.072"/></svg>