<svg xmlns="http://www.w3.org/2000/svg" width="24" height="24" fill="none" stroke="currentColor" stroke-linecap="round" stroke-linejoin="round" stroke-width="2"><path fill="#000" fill-rule="evenodd" stroke="none" d="M2.695 5.057a1.04 1.04 0 0 0-.567.459c-.091.156-.108.23-.108.484 0 .256.016.328.111.489.125.213.318.375.539.454.223.08 18.437.08 18.66 0 .221-.079.414-.241.539-.454.095-.161.111-.233.111-.489 0-.254-.017-.328-.108-.484a1.02 1.02 0 0 0-.582-.461c-.263-.079-18.343-.077-18.595.002m0 6a1.04 1.04 0 0 0-.567.459c-.091.156-.108.23-.108.484 0 .256.016.328.111.489.125.213.318.375.539.454.123.044 1.53.054 7.87.058 8.612.004 7.984-.017 8.477.28a2.023 2.023 0 0 1 .776 2.599c-.155.318-.566.745-.863.895-.388.196-.589.225-1.584.225h-.918l.201-.212c.295-.312.349-.434.35-.788.001-.255-.015-.328-.107-.484a1 1 0 0 0-1.215-.45c-.172.058-.34.207-1.332 1.19-1.247 1.235-1.324 1.337-1.324 1.744 0 .405.079.51 1.305 1.726.613.608 1.177 1.138 1.254 1.179.099.052.227.074.44.074.258.001.327-.015.492-.112a.99.99 0 0 0 .496-.972c-.027-.263-.109-.418-.359-.683L16.428 19h.97c.81 0 1.034-.013 1.359-.079 1.36-.278 2.436-1.166 2.947-2.433a3.96 3.96 0 0 0 .001-2.972 3.98 3.98 0 0 0-3.1-2.458c-.541-.081-15.65-.082-15.91-.001m0 6a1.04 1.04 0 0 0-.567.459c-.091.156-.108.23-.108.484 0 .256.016.328.111.489.125.213.318.375.539.454s7.439.079 7.66 0 .414-.241.539-.454c.095-.161.111-.233.111-.489 0-.254-.017-.328-.108-.484a1.02 1.02 0 0 0-.582-.461c-.26-.078-7.345-.076-7.595.002"/></svg>