<svg xmlns="http://www.w3.org/2000/svg" width="24" height="24" fill="none" stroke="currentColor" stroke-linecap="round" stroke-linejoin="round" stroke-width="2"><path fill="#000" fill-rule="evenodd" stroke="none" d="M10.42 3.962c-1.905.056-3.926.24-5.959.541-.825.123-1.032.178-1.425.382-.671.348-1.226.997-1.45 1.695-.159.494-.423 2.18-.532 3.4-.087.976-.087 3.064 0 4.04.109 1.22.373 2.906.532 3.4.224.699.782 1.35 1.45 1.694.446.229.605.269 1.684.424 2.677.385 4.547.518 7.28.518 2.224 0 3.545-.071 5.58-.297 1.069-.119 2.652-.353 2.88-.425.905-.288 1.669-1.037 1.954-1.914.158-.488.422-2.176.532-3.4.087-.976.087-3.064 0-4.04-.11-1.224-.374-2.912-.532-3.4a3 3 0 0 0-1.45-1.695c-.393-.204-.6-.259-1.425-.382a51 51 0 0 0-6.151-.544c-1.356-.04-1.483-.04-2.968.003m2.977 1.999c1.655.052 3.109.162 4.543.342.968.121 1.883.261 2 .305a.96.96 0 0 1 .477.403c.164.282.434 1.947.544 3.349.058.745.058 2.535 0 3.28-.11 1.402-.38 3.067-.544 3.349a.96.96 0 0 1-.477.403c-.193.071-1.638.279-2.82.406-4.154.444-8.143.354-12.4-.281-.597-.089-.719-.125-.909-.265-.231-.169-.315-.377-.447-1.092A21.7 21.7 0 0 1 2.993 12c0-1.516.109-2.735.371-4.16.132-.715.216-.923.447-1.092.199-.147.316-.178 1.069-.285 2.048-.292 3.76-.446 5.578-.501 1.444-.044 1.58-.044 2.939-.001m-3.73 2.104c-.252.077-.512.335-.601.595-.059.175-.066.515-.064 3.357.002 3.41-.004 3.315.215 3.602.227.298.702.452 1.047.341.086-.028 1.339-.76 2.785-1.627 1.843-1.105 2.659-1.615 2.729-1.707.287-.376.289-.873.006-1.244-.077-.102-.809-.561-2.735-1.715-1.446-.866-2.69-1.596-2.765-1.621-.178-.06-.379-.054-.617.019m2.327 3.301c.52.311.967.585.993.61.035.033-.21.198-.97.652L11 13.236v-1.218c0-.67.011-1.218.024-1.218s.449.254.97.566"/></svg>