<svg xmlns="http://www.w3.org/2000/svg" width="24" height="24" fill="none" stroke="currentColor" stroke-linecap="round" stroke-linejoin="round" stroke-width="2"><path fill="#000" fill-rule="evenodd" stroke="none" d="M1.67 1.061c-.222.081-.42.248-.542.455-.092.156-.108.229-.107.484 0 .212.022.341.074.44.04.077 1.232 1.301 2.648 2.72l2.576 2.58-1.924 1.98c-1.057 1.089-1.985 2.072-2.06 2.184a1.83 1.83 0 0 0-.323.957c-.068.963.56 1.827 1.513 2.081.179.047.827.057 3.849.058 2.981 0 3.631.009 3.614.052-.011.029-.458 1.42-.993 3.09-.955 2.982-.973 3.044-.973 3.378-.001.297.015.373.124.604.414.88 1.569 1.154 2.282.542.106-.091 1.127-1.129 2.268-2.306l2.329-2.4.255-.259 2.57 2.565c1.413 1.411 2.633 2.599 2.71 2.639.099.052.228.074.44.074.258.001.327-.015.492-.112.476-.28.647-.9.373-1.359-.055-.092-4.65-4.715-10.212-10.273C3.3 1.889 2.525 1.125 2.343 1.065a1 1 0 0 0-.673-.004m11.48-.02c-.355.089-.53.226-1.355 1.066-1.701 1.732-2.105 2.157-2.172 2.288-.096.185-.125.525-.063.744.063.226.323.528.538.626.185.084.514.097.757.029.136-.037.285-.167.841-.73.371-.376.664-.648.65-.604l-.389 1.22c-.318.995-.362 1.166-.344 1.345.058.587.622 1.02 1.17.898.254-.057.546-.243.652-.416.043-.07.408-1.153.811-2.407.713-2.22.732-2.289.732-2.62.001-.297-.015-.373-.124-.604a1.48 1.48 0 0 0-1.265-.86 2 2 0 0 0-.439.025m2.25 7.996c-.304.093-.592.357-.682.628-.072.216-.066.49.016.706.074.192.344.474.536.56.081.036.722.054 2.41.069l2.3.02-.876.9c-.954.98-1.032 1.092-1.032 1.475 0 .309.1.533.33.74a.98.98 0 0 0 1.09.166c.174-.082 1.997-1.933 2.189-2.221.268-.402.386-1.028.28-1.484-.181-.78-.827-1.416-1.578-1.553-.274-.05-4.821-.055-4.983-.006m-3.736 4.072c-.007.007-.065-.01-.128-.038-.09-.04-.935-.055-3.816-.071l-3.7-.02 1.858-1.912 1.857-1.912 1.971 1.97c1.084 1.084 1.965 1.976 1.958 1.983m3.176 3.178c0 .029-3.174 3.311-3.189 3.297-.005-.005.29-.943.656-2.086.734-2.295.769-2.46.639-2.956l-.063-.238.979.978c.538.537.978.99.978 1.005"/></svg>