<svg xmlns="http://www.w3.org/2000/svg" width="24" height="24" fill="none" stroke="currentColor" stroke-linecap="round" stroke-linejoin="round" stroke-width="2"><path fill="#000" fill-rule="evenodd" stroke="none" d="M13.15 1.041c-.35.088-.534.23-1.28.987-2.456 2.492-9.421 9.705-9.536 9.876a2.6 2.6 0 0 0-.218.416c-.105.278-.142.801-.077 1.084.18.772.803 1.395 1.553 1.552.146.03 1.339.044 3.814.044 2.954 0 3.599.009 3.582.052-.011.029-.458 1.42-.993 3.09-.955 2.982-.973 3.044-.973 3.378-.001.297.015.373.124.604.414.88 1.567 1.153 2.283.542.354-.303 10.097-10.362 10.237-10.57a2.6 2.6 0 0 0 .218-.416c.105-.278.142-.801.077-1.084-.181-.78-.827-1.416-1.578-1.553C20.224 9.014 18.957 9 16.568 9c-2.892 0-3.573-.01-3.557-.051.011-.028.458-1.419.993-3.09.956-2.983.974-3.045.974-3.379 0-.298-.015-.373-.124-.604a1.48 1.48 0 0 0-1.265-.86 2 2 0 0 0-.439.025m-1.457 5.461c-.716 2.241-.756 2.421-.655 2.908.136.654.646 1.231 1.308 1.482.234.088.238.088 3.934.108l3.7.02-4.16 4.286a773 773 0 0 1-4.169 4.278c-.005-.005.29-.943.655-2.086.553-1.728.668-2.13.684-2.385.057-.881-.472-1.675-1.333-2.003l-.237-.09-3.7-.02-3.7-.02 4.16-4.286a773 773 0 0 1 4.169-4.278c.004.004-.291.943-.656 2.086"/></svg>